<?xml version="1.0" encoding="UTF-8" standalone="no"?>
<!-- Created with Inkscape (http://www.inkscape.org/) -->

<svg
   xmlns:dc="http://purl.org/dc/elements/1.1/"
   xmlns:cc="http://creativecommons.org/ns#"
   xmlns:rdf="http://www.w3.org/1999/02/22-rdf-syntax-ns#"
   xmlns:svg="http://www.w3.org/2000/svg"
   xmlns="http://www.w3.org/2000/svg"
   xmlns:sodipodi="http://sodipodi.sourceforge.net/DTD/sodipodi-0.dtd"
   xmlns:inkscape="http://www.inkscape.org/namespaces/inkscape"
   width="250"
   height="365.94141"
   id="svg2"
   version="1.1"
   inkscape:version="0.48.4 r9939"
   sodipodi:docname="drawing20.svg">
  <defs
     id="defs4" />
  <sodipodi:namedview
     id="base"
     pagecolor="#888888"
     bordercolor="#666666"
     borderopacity="1.0"
     inkscape:pageopacity="1"
     inkscape:pageshadow="2"
     inkscape:zoom="0.88"
     inkscape:cx="177.74"
     inkscape:cy="148.38191"
     inkscape:document-units="px"
     inkscape:current-layer="layer1"
     showgrid="false"
     fit-margin-top="0"
     fit-margin-left="0"
     fit-margin-right="0"
     fit-margin-bottom="0"
     inkscape:window-width="1301"
     inkscape:window-height="744"
     inkscape:window-x="65"
     inkscape:window-y="24"
     inkscape:window-maximized="1" />
  <metadata
     id="metadata7">
    <rdf:RDF>
      <cc:Work
         rdf:about="">
        <dc:format>image/svg+xml</dc:format>
        <dc:type
           rdf:resource="http://purl.org/dc/dcmitype/StillImage" />
        <dc:title />
      </cc:Work>
    </rdf:RDF>
  </metadata>
  <g
     inkscape:label="Layer 1"
     inkscape:groupmode="layer"
     id="layer1"
     transform="translate(824.62111,-223.89494)">
    <g
       transform="matrix(1.7242927,0,0,1.7242927,-2187.125,-415.62158)"
       id="g3284">
      <path
         inkscape:connector-curvature="0"
         d="m 866.79635,443.78331 c 3.7175,-0.16125 4.40125,-3.8525 4.19625,-8.55375 -0.2075,-4.70375 -1.2125,-8.31875 -4.93125,-8.155 -3.71625,0.16375 -4.4025,3.8525 -4.1975,8.555 0.20875,4.7025 1.21375,8.3175 4.9325,8.15375"
         style="fill:#3d464c;fill-opacity:1;fill-rule:nonzero;stroke:none"
         id="path3026" />
      <path
         inkscape:connector-curvature="0"
         d="m 824.5451,428.89581 c -3.71875,0.16375 -4.40375,3.8525 -4.19875,8.5575 0.2075,4.7025 1.2125,8.3175 4.93125,8.15375 3.71625,-0.16375 4.40375,-3.8525 4.19875,-8.55625 -0.2075,-4.7025 -1.215,-8.31625 -4.93125,-8.155"
         style="fill:#3d464c;fill-opacity:1;fill-rule:nonzero;stroke:none"
         id="path3028" />
      <path
         inkscape:connector-curvature="0"
         d="m 932.3526,423.37456 c -2.1775,-0.7625 -4.6625,-1.15125 -7.39,-1.15125 -3.935,0 -7.33875,0.79625 -8.845,1.21125 l -3.09125,-11.37625 c -0.0687,-0.245 -0.24625,-0.4475 -0.48375,-0.54 -0.77625,-0.31 -1.61625,-0.46625 -2.4975,-0.46625 -2.96125,0 -5.4725,1.7525 -5.5775,1.82625 -0.2425,0.1725 -0.37375,0.46375 -0.3375,0.7575 l 2.15125,18.73 c 2.18,10.42625 7.98,13.13875 9.38625,13.6525 0.0225,4.63 -0.575,9.15 -2.06,13.335 -1.81625,5.1975 -5.04875,9.8625 -9.52375,13.5875 -4.45625,3.74125 -10.03,6.52125 -16.00125,8.41125 -2.99,0.94875 -6.08375,1.685 -9.23125,2.22125 -2.51625,0.42625 -5.12375,0.735 -7.65625,0.87875 -0.6,-1.305 -1.39625,-2.52625 -2.41875,-3.6325 18.67125,-6.1275 22.72625,-18.90875 22.24625,-29.8725 l -0.42,-9.54875 c 13.725,-19.89125 3.5375,-51.3275 0.23125,-58.095 -3.34875,-6.86 -7.22125,-9.805 -14.3775,-11.12125 -23.38375,-4.29875 -63.90625,2.965 -75.815,9.1275 -6.42625,3.32625 -10.935,10.92375 -10.42,33.45125 0.39375,17.22125 6.58,26.4225 9.47625,29.80625 l 0.45375,10.36625 c 0.4975,11.35125 6.0975,24.54125 28.0075,28.405 -0.1325,0.22125 -0.25375,0.4475 -0.37375,0.675 -0.0438,0.0175 -0.095,0.0337 -0.14,0.0512 -0.34875,0.14375 -0.67625,0.2975 -0.98875,0.46125 -0.6225,0.33 -1.19125,0.69625 -1.7275,1.0875 -1.0725,0.785 -2.0125,1.66625 -2.86375,2.59375 -1.7075,1.86125 -3.04,3.8775 -4.24625,5.9575 -2.3925,4.175 -4.63375,8.50875 -6.13,12.89625 -2.6275,7.825 -4.5775,16.125 -5.535,24.1475 -0.11,0.0812 -0.205,0.18125 -0.26375,0.3075 -0.14375,0.31 -3.49125,7.7125 0.0125,16.92125 0.0763,0.2025 0.2325,0.36625 0.43,0.455 0.25375,0.11125 6.29875,2.74625 13.4025,2.74625 0.46375,0 0.8275,-0.36375 0.8275,-0.81375 0,-0.075 -0.009,-0.14875 -0.0263,-0.21625 -0.0513,-0.7425 -0.25375,-3.975 -0.21,-7.2225 l 0.3275,0.77625 c 0.12625,0.30375 0.4225,0.50125 0.74625,0.50125 0.115,0 2.80375,-0.02 4.25125,-1.685 0.15875,-0.18 0.22625,-0.4175 0.1925,-0.65375 -0.0363,-0.245 -0.9325,-6.0575 -3.82125,-11.075 -0.0675,-0.12125 -0.175,-0.2125 -0.295,-0.2825 -0.7075,-7.29 -0.5025,-14.43125 0.25875,-21.5575 0.45,-4.075 1.6925,-8.29875 2.86625,-12.06375 0.2975,-0.9475 0.63,-1.91125 1.00125,-2.81 l -1.84375,28.47 c 0,6.57125 4.1775,7.82625 10.1425,8.03875 -0.2575,2.27125 -0.48875,4.53625 -0.70375,6.81375 -0.4175,4.45875 -0.75625,8.92375 -1.025,13.39625 -0.4425,7.45625 -0.67125,14.93875 -0.68875,22.43875 -4.7875,2.21 -4.2775,7.295 -4.09,9.00625 0.0275,0.2325 0.25,0.41375 0.48125,0.41375 l 17.26875,0 c 0.22875,0 0.44375,-0.18625 0.46375,-0.415 0.14125,-1.485 0.64625,-6.41625 -3.1525,-8.775 -0.805,-7.5 -1.39125,-15.04375 -1.75,-22.6125 -0.2075,-4.3825 -0.34375,-8.77125 -0.4025,-13.16375 -0.0325,-2.35375 -0.0425,-4.71875 -0.0225,-7.075 0.0825,0 0.16625,-0.003 0.25125,-0.003 l 17.16375,0 c 0.0825,0 0.1675,0.003 0.25125,0.003 0.0175,2.35625 0.008,4.72125 -0.0225,7.075 -0.0587,4.3925 -0.195,8.78125 -0.4025,13.16375 -0.36125,7.595 -0.9525,15.16875 -1.76,22.6925 -2.46625,2.38375 -2.86375,7.195 -2.7175,8.695 0.02,0.22875 0.235,0.415 0.46375,0.415 l 26.71375,0 c 0.2325,0 0.45375,-0.18125 0.47875,-0.41375 0.21,-1.87625 -0.68875,-8.66375 -13.96,-9.93125 -0.0312,-7.1925 -0.26375,-14.3625 -0.68875,-21.51375 -0.26625,-4.4725 -0.6075,-8.9375 -1.025,-13.39625 -0.215,-2.2775 -0.445,-4.5425 -0.70375,-6.81375 5.965,-0.2125 10.1425,-1.4675 10.1425,-8.03875 l -2.0025,-30.93125 c 0,-0.7975 -0.0412,-1.58625 -0.12375,-2.3625 2.29,0.14625 4.5525,0.1825 6.855,0.13125 3.46125,-0.09 6.93875,-0.4025 10.41,-0.9775 6.92375,-1.15375 13.92375,-3.36125 20.33,-7.3 3.1925,-1.96375 6.20625,-4.37125 8.865,-7.19125 2.6575,-2.815 4.94625,-6.035 6.7675,-9.4825 3.55625,-6.70875 5.2925,-14.1175 5.92,-21.34 0.0412,-0.0412 0.085,-0.0813 0.1175,-0.13 6.845,-10.2875 0.97125,-19.62875 0.9125,-19.72125 -0.1,-0.1525 -0.24625,-0.26625 -0.415,-0.32625 z M 824.16635,542.16331 c -0.67375,0.56125 -1.645,0.76125 -2.24125,0.835 l -1.48375,-3.5425 c -0.14375,-0.345 -0.50375,-0.5475 -0.87125,-0.49125 -0.36625,0.0563 -0.65,0.35375 -0.68625,0.725 -0.3525,3.58625 -0.1325,8.3525 -0.0175,10.3075 -5.515,-0.175 -10.325,-1.965 -11.565,-2.4625 -2.6575,-7.3175 -0.66125,-13.4725 -0.0825,-14.98125 2.68,-0.62 5.2825,-0.935 7.74375,-0.935 3.09875,0 5.115,0.50625 5.80625,0.71375 2.20125,3.955 3.14875,8.47875 3.3975,9.83125 z m -21.57875,-87.33625 -1.42375,-32.415 c 0.2925,-12.1075 0.96375,-18.60125 0.96375,-18.60125 0,0 3.22625,3.18375 12.9625,3.23 20.825,0.1 65.76125,-13.21375 65.76125,-13.21375 2.8025,6.155 4.75125,13.28 6.10875,20.14 l 1.6275,37.085 c 0.8425,19.2 -13.06875,29.57875 -41.3425,30.8475 -1.73125,0.0787 -3.4375,0.11875 -5.06875,0.11875 -25.4775,0 -38.7975,-9.14875 -39.58875,-27.19125 z m 128.05375,-12.5175 c -1.0575,0.39375 -5.92,2.02625 -14.33875,2.20875 -0.8,-0.27625 -6.35,-2.52625 -8.4175,-12.4125 l -2.0825,-18.1475 c 0.74,-0.43375 2.42125,-1.2825 4.2425,-1.2825 0.535,0 1.045,0.0725 1.52375,0.22125 l 3.19875,11.765 c 0.0587,0.215 0.2025,0.39625 0.3975,0.50375 0.195,0.105 0.4275,0.12375 0.64,0.055 0.0412,-0.0137 4.22125,-1.37125 9.1575,-1.37125 2.42625,0 4.63625,0.325 6.575,0.965 0.79375,1.4075 4.585,9.0375 -0.89625,17.495"
         style="fill:#3d464c;fill-opacity:1;fill-rule:nonzero;stroke:none"
         id="path3030" />
      <path
         inkscape:connector-curvature="0"
         d="m 926.4451,433.01206 c -0.0425,-0.65375 -0.15625,-1.29375 -0.3275,-1.90625 -0.17125,-0.61375 -0.39625,-1.205 -0.66875,-1.7675 -0.27625,-0.56375 -0.58875,-1.1025 -0.9675,-1.5975 l -0.1125,0.0737 c 0.27375,0.54 0.48125,1.11375 0.6475,1.6875 0.16125,0.5775 0.27375,1.16625 0.3275,1.74875 0.0563,0.5875 0.0563,1.16875 -0.01,1.74 -0.0537,0.49 -0.16125,0.9675 -0.3075,1.425 l -2.89125,0.25375 -0.76125,-0.095 -1.7575,-0.2225 -1.20875,-5.52 -0.1375,0.0125 -0.195,5.32 -6.68875,-0.83625 8.73,2.72875 c -0.0538,0.24375 -0.1,0.485 -0.14875,0.73 -0.09,0.5075 -0.17875,1.01625 -0.24875,1.525 -0.0737,0.51125 -0.1425,1.02375 -0.2025,1.535 -0.045,0.39375 -0.0838,0.79 -0.115,1.185 l -4.8875,1.44 5.59,-0.33375 0.3525,-0.02 0.1575,-0.48125 c 0.16375,-0.4925 0.31125,-0.9875 0.45,-1.48375 0.13625,-0.5 0.27375,-0.99875 0.3925,-1.4975 0.13,-0.5025 0.24,-1.0025 0.3475,-1.5075 0.0775,-0.38125 0.15125,-0.7625 0.2125,-1.15 l 10.3775,-2.0825 -0.0188,-0.135 -5.945,0.51625 c 0.0362,-0.4325 0.0437,-0.865 0.015,-1.285"
         style="fill:#3d464c;fill-opacity:1;fill-rule:nonzero;stroke:none"
         id="path3032" />
      <path
         inkscape:connector-curvature="0"
         d="m 848.5151,468.09956 c 4.5475,-0.3675 8.08375,-2.53 7.8975,-4.83125 -0.1875,-2.30125 -4.0275,-3.865 -8.57625,-3.49625 -4.55375,0.36875 -8.08875,2.5325 -7.9,4.8325 0.1875,2.30125 4.0275,3.86625 8.57875,3.495"
         style="fill:#3d464c;fill-opacity:1;fill-rule:nonzero;stroke:none"
         id="path3040" />
    </g>
    <path
       style="fill:#000000"
       d="m 65.24,362.30878 c 0,-3.96811 2.601384,-9.63889 5.050419,-11.00943 1.303746,-0.72962 1.892286,-6.52656 2.861151,-28.18148 0.670875,-14.9946 1.671197,-31.60951 2.222937,-36.92201 1.108519,-10.67354 0.812546,-11.31714 -5.217774,-11.34624 -4.666738,-0.0225 -10.183349,-4.62781 -10.831205,-9.04193 -0.271218,-1.84792 0.149328,-12.46258 0.934545,-23.58812 0.785216,-11.12554 1.444329,-22.27371 1.464696,-24.77371 0.03215,-3.94557 -0.134096,-4.25038 -1.259611,-2.30957 -2.605819,4.49339 -5.595642,18.52515 -6.54539,30.71866 -1.269512,16.29887 0.06742,29.58986 4.073789,40.49923 2.779869,7.56959 2.983274,8.92777 1.588699,10.60812 -1.034608,1.24663 -2.725615,1.7618 -4.788981,1.45896 l -3.189639,-0.46814 0,6.76776 0,6.76777 -5.965909,-0.74658 c -3.28125,-0.41062 -8.621791,-1.56017 -11.867868,-2.55456 -4.826316,-1.47848 -6.120719,-2.43553 -7.102273,-5.25121 -1.69828,-4.87169 -1.488459,-17.59118 0.39928,-24.20465 0.879777,-3.08218 2.188109,-9.18352 2.907406,-13.55852 4.665795,-28.37892 17.771444,-56.69365 31.009612,-66.99618 l 5.777334,-4.49618 -7.2947,-1.8425 C 47.764405,188.88254 37.907227,183.57623 31.464974,176.7645 21.253661,165.96754 17.549656,155.19664 17.513824,136.19586 17.501191,129.49677 17.000389,126.94368 15.173339,124.26404 6.3517468,111.32589 1.8903556,96.616425 0.87190091,77.111383 -0.40130705,52.727407 3.8743108,32.030315 11.891337,23.769316 24.298367,10.984719 80.935842,-0.17036677 125.94669,1.3054395 c 25.28434,0.8290179 34.31022,3.3073894 41.04391,11.2700595 10.40014,12.298268 18.7615,46.599442 17.2192,70.638993 -0.79725,12.426719 -3.11258,21.631658 -7.75277,30.822278 -3.27971,6.49601 -3.43576,7.44277 -3.30233,20.03646 0.0771,7.27006 -0.46993,15.70756 -1.21545,18.75 -3.44643,14.06478 -12.74941,24.92584 -27.37335,31.95791 -4.86751,2.34059 -8.85482,4.65714 -8.86068,5.14788 -0.006,0.49074 0.83302,2.1799 1.8642,3.75367 1.74688,2.66607 2.30932,2.81187 8.23864,2.1357 12.40617,-1.41476 25.81812,-5.21646 36.22539,-10.2683 21.58196,-10.47619 34.34291,-29.22437 34.34291,-50.45599 0,-5.17299 -0.42825,-6.57354 -2.38338,-7.79454 -1.31087,-0.81864 -2.09026,-1.78156 -1.732,-2.13983 0.35825,-0.35826 1.44241,0.006 2.40924,0.80753 2.02094,1.67722 16.39886,0.97494 23.68085,-1.15669 3.63501,-1.06406 4.75357,-2.16176 6.71868,-6.59338 2.83703,-6.39798 3.07392,-16.03396 0.54068,-21.99459 -1.58633,-3.732588 -2.34132,-4.262648 -7.08462,-4.97395 -4.95264,-0.742694 -14.85575,-0.104034 -20.55082,1.325333 -2.26317,0.568023 -2.68983,-0.197719 -5.01562,-9.001734 -1.3981,-5.292413 -2.93501,-10.258457 -3.41535,-11.035655 -1.17025,-1.89351 -8.97284,-0.433769 -9.84616,1.842062 -0.89122,2.322497 1.66396,25.619485 3.72478,33.960804 0.92437,3.74147 2.42735,7.94223 3.33993,9.33501 1.96761,3.00296 2.12826,4.17266 0.42884,3.12235 -2.634,-1.62789 -5.8308,-11.83901 -7.27492,-23.237325 -3.37829,-26.66452 -3.4078,-24.496667 0.35467,-26.055128 1.83464,-0.759933 5.00792,-1.216933 7.05174,-1.015557 3.96592,0.390761 3.91645,0.29426 7.84321,15.300001 l 1.23164,4.706589 11.63703,-0.561791 c 15.03748,-0.725951 17.08475,0.07852 19.61931,7.709356 2.38198,7.171465 1.76893,15.780865 -1.59292,22.370655 -1.28014,2.50927 -2.88268,8.07169 -3.56122,12.36092 -4.70515,29.74291 -19.94602,50.93515 -44.93411,62.48036 -12.0784,5.58056 -24.94422,8.414 -41.70084,9.18378 -7.96875,0.36607 -14.48119,0.97562 -14.4721,1.35457 0.009,0.37893 0.76869,11.17193 1.68801,23.98443 2.38402,33.22624 2.28901,37.84394 -0.85227,41.42172 -1.67914,1.91246 -4.42773,3.2525 -8.00704,3.90374 -2.99762,0.5454 -5.65955,1.20098 -5.91542,1.45684 -0.25586,0.25587 0.27237,9.13849 1.17385,19.73919 0.90148,10.60068 1.65144,24.89896 1.66656,31.77396 0.0151,6.875 0.33976,14.38858 0.7214,16.69684 0.65408,3.95603 1.01525,4.26576 6.29428,5.39791 9.78434,2.09837 16.48063,7.03343 17.10501,12.60615 l 0.31363,2.7991 -23.01136,0.30763 -23.01137,0.30761 0,-3.47789 c 0,-1.91284 0.99705,-5.43227 2.21567,-7.82096 2.93446,-5.752 4.45857,-20.71888 5.36339,-52.66866 l 0.73213,-25.85227 -15.69032,0 -15.690325,0 0.735792,27.55681 c 0.929785,34.82227 2.036798,45.07511 5.350788,49.55752 1.450047,1.96129 2.560873,5.21633 2.640642,7.73781 l 0.137689,4.3524 -15.056818,0.31708 -15.056818,0.31707 0,-3.4985 z M 49.798519,304.09359 c -0.343902,-2.65625 -0.141469,-6.875 0.449849,-9.375 l 1.075124,-4.54546 1.387601,3.69318 c 1.548497,4.12142 1.598705,4.14934 4.585972,2.55061 2.026663,-1.08464 2.045427,-1.4448 0.370012,-7.10228 -3.583974,-12.10222 -3.712758,-12.2118 -14.331259,-12.19418 -5.1402,0.009 -10.488228,0.32173 -11.884509,0.69598 -4.389224,1.17648 -6.174282,12.33184 -3.605651,22.53279 1.17204,4.65459 1.572218,5.02995 7.102273,6.66155 3.223138,0.95095 8.023763,1.77027 10.668058,1.82068 l 4.807805,0.0917 -0.625275,-4.82954 z M 111.49174,190.71653 c 22.23144,-2.78758 37.59216,-8.95801 46.96121,-18.86441 11.60236,-12.26777 12.54331,-18.57266 10.23505,-68.57948 -1.13161,-24.515355 -1.87939,-32.044309 -4.00933,-40.36775 -3.48585,-13.622074 -7.22591,-23.29994 -9.00437,-23.29994 -0.79633,0 -10.09198,2.309608 -20.657,5.132461 -55.986569,14.958985 -92.431238,19.743518 -108.401523,14.23118 -3.430824,-1.18419 -6.499005,-1.891366 -6.818182,-1.571502 -1.089354,1.091698 -0.333215,67.962431 0.937886,82.943921 0.808633,9.53071 2.114261,17.20341 3.605788,21.18987 5.46769,14.61372 20.047134,24.68092 41.466913,28.63318 9.851454,1.81774 33.328559,2.10166 45.683558,0.55247 l 0,0 z"
       id="path2988"
       inkscape:connector-curvature="0"
       transform="translate(-824.62111,223.89494)" />
    <path
       style="fill:#000000"
       d="m 127.11361,122.49518 c -2.66103,-2.94041 -3.6813,-15.47739 -1.65724,-20.36391 2.51371,-6.068626 8.92917,-5.904074 11.52327,0.29556 2.37196,5.66873 2.02402,17.10397 -0.60894,20.01336 -2.74687,3.03526 -6.53959,3.05778 -9.25709,0.055 l 0,0 z"
       id="path2990"
       inkscape:connector-curvature="0"
       transform="translate(-824.62111,223.89494)" />
    <path
       style="fill:#000000"
       d="m 55.586781,125.97507 c -1.461156,-1.61456 -2.18143,-4.6372 -2.504782,-10.51136 -0.583175,-10.59425 0.970931,-13.92694 6.494431,-13.92694 3.231638,0 4.228243,0.60465 5.618939,3.40909 2.562148,5.16675 2.309143,17.89263 -0.415583,20.90342 -2.725081,3.01118 -6.534589,3.06331 -9.193005,0.12579 z"
       id="path2992"
       inkscape:connector-curvature="0"
       transform="translate(-824.62111,223.89494)" />
    <path
       style="fill:#000000"
       d="m 89.955909,165.09134 c -7.364198,-3.99514 -0.636987,-10.70196 10.741981,-10.70942 8.65536,-0.006 12.48616,1.77513 12.04073,5.5973 -0.67805,5.81833 -15.394244,9.12043 -22.782711,5.11212 z"
       id="path2994"
       inkscape:connector-curvature="0"
       transform="translate(-824.62111,223.89494)" />
    <path
       style="fill:#ffffff"
       d="m 70.921818,190.03722 c -18.35369,-3.54728 -27.79885,-7.70899 -36.563737,-16.1106 -7.974016,-7.64353 -10.936153,-15.29551 -12.240933,-31.62155 -1.772315,-22.1761 -2.70214,-59.25096 -1.812655,-72.275958 l 0.832427,-12.189475 3.585631,1.915054 c 4.660767,2.489274 25.73533,3.318013 38.574243,1.516899 19.979228,-2.802797 56.518426,-10.936366 90.231806,-20.08546 3.13268,-0.850144 4.86381,2.911402 9.47027,20.577911 2.79705,10.727098 3.42888,16.075646 4.45477,37.710403 1.65193,34.836876 1.53021,48.817996 -0.48402,55.600666 -4.8836,16.44485 -19.55862,27.31374 -44.34326,32.84231 -7.82649,1.7458 -45.622128,3.29537 -51.704542,2.1198 l 0,0 z m 38.156192,-24.33851 c 5.9318,-2.87153 7.00382,-6.03706 3.29911,-9.74176 -2.33166,-2.33166 -3.81001,-2.71564 -10.45547,-2.71564 -10.075486,0 -15.501402,2.64933 -16.01679,7.82058 -0.311241,3.12291 0.13292,3.80391 3.409091,5.22696 5.498385,2.3883 14.144739,2.13012 19.764059,-0.59014 z M 64.139747,128.22199 c 4.791996,-2.5646 5.620504,-17.98435 1.354346,-25.20638 -1.408124,-2.38376 -2.746609,-3.179017 -5.328648,-3.165986 -6.344138,0.03202 -8.561809,3.521076 -8.561809,13.470276 0,13.01135 4.988559,18.94141 12.536111,14.90209 l 0,0 z m 73.367313,-4.64811 c 3.16809,-3.50462 2.9551,-19.10135 -0.32105,-23.50915 -3.00062,-4.037095 -8.18926,-4.641065 -11.20862,-1.304707 -3.07578,3.398697 -3.20944,19.540297 -0.19983,24.133537 2.56495,3.91461 8.49486,4.25855 11.7295,0.68032 l 0,0 z"
       id="path2996"
       inkscape:connector-curvature="0"
       transform="translate(-824.62111,223.89494)" />
    <path
       style="fill:#ffffff"
       d="m 36.418174,306.14853 c -3.039504,-0.81666 -5.954729,-2.17794 -6.478277,-3.02506 -3.233997,-5.23271 -2.384049,-21.82275 1.216762,-23.74984 1.163661,-0.62278 6.229881,-1.13232 11.258267,-1.13232 l 9.142519,0 2.200952,4.31422 c 2.735411,5.36185 4.107413,12.23843 2.624629,13.15484 -0.608594,0.37613 -1.739285,-0.84372 -2.512644,-2.71077 -0.77336,-1.86706 -2.052196,-3.39465 -2.841856,-3.39465 -1.733023,0 -3.302251,10.80678 -2.204395,15.18099 0.7044,2.80655 0.506084,2.99586 -3.063213,2.92413 -2.099004,-0.0422 -6.30324,-0.74488 -9.342744,-1.56154 l 0,0 z"
       id="path2998"
       inkscape:connector-curvature="0"
       transform="translate(-824.62111,223.89494)" />
    <path
       style="fill:#ffffff"
       d="m 210.82624,120.99514 c -4.60824,-4.90525 -6.95235,-12.70469 -8.89281,-29.588533 -1.0443,-9.086336 -1.5825,-16.836831 -1.19601,-17.223324 0.3865,-0.386493 2.36409,-0.782115 4.39466,-0.87916 l 3.69194,-0.176446 2.84728,10.626381 2.84727,10.626381 4.0539,-0.714461 c 9.49014,-1.672546 14.94204,-2.032455 19.78543,-1.306143 5.53033,0.829324 6.43175,2.16035 8.13888,12.017845 l 0.68879,3.97727 -5.63515,0.19825 c -5.51203,0.19391 -5.65029,0.11753 -6.32815,-3.49576 -0.38115,-2.0317 -1.43175,-4.67773 -2.33466,-5.880066 -1.47913,-1.969621 -1.57454,-1.595381 -0.96363,3.779846 l 0.67804,5.96591 -4.60385,0 c -4.4856,0 -4.62358,-0.11676 -5.37181,-4.54545 -0.95559,-5.656109 -2.84091,-5.960388 -2.84091,-0.45851 l 0,4.08695 -5.57495,-0.39377 c -3.06623,-0.21657 -5.39179,-0.0986 -5.16793,0.26215 0.22387,0.36076 3.49965,1.59229 7.2795,2.73674 3.77986,1.14445 6.87248,2.73361 6.87248,3.53147 0,3.85943 -2.28864,6.90398 -6.05991,8.06142 -3.54256,1.08724 -4.28484,0.94498 -6.3084,-1.20899 l 0,0 z"
       id="path3000"
       inkscape:connector-curvature="0"
       transform="translate(-824.62111,223.89494)" />
    <path
       style="fill:#ffffff"
       d="m 214.95591,125.3375 c -1.73817,-1.80301 -0.71696,-2.20034 4.69141,-1.82533 l 5.54509,0.3845 1.35553,-5.65046 1.35552,-5.65045 7.02054,-1.33291 c 3.8613,-0.7331 7.91543,-1.5939 9.00918,-1.91289 2.56952,-0.7494 2.63266,2.46306 0.16941,8.61934 -1.45242,3.62995 -2.65533,4.7939 -5.96591,5.77269 -5.38001,1.59064 -22.07753,2.73991 -23.18077,1.59551 z"
       id="path3002"
       inkscape:connector-curvature="0"
       transform="translate(-824.62111,223.89494)" />
  </g>
</svg>
