<?xml version="1.0" encoding="UTF-8" standalone="no"?>
<!-- Created with Inkscape (http://www.inkscape.org/) -->

<svg
   xmlns:dc="http://purl.org/dc/elements/1.1/"
   xmlns:cc="http://creativecommons.org/ns#"
   xmlns:rdf="http://www.w3.org/1999/02/22-rdf-syntax-ns#"
   xmlns:svg="http://www.w3.org/2000/svg"
   xmlns="http://www.w3.org/2000/svg"
   xmlns:sodipodi="http://sodipodi.sourceforge.net/DTD/sodipodi-0.dtd"
   xmlns:inkscape="http://www.inkscape.org/namespaces/inkscape"
   width="250"
   height="367.52612"
   id="svg2"
   version="1.1"
   inkscape:version="0.48.4 r9939"
   sodipodi:docname="drawing5.svg">
  <defs
     id="defs4" />
  <sodipodi:namedview
     id="base"
     pagecolor="#888888"
     bordercolor="#666666"
     borderopacity="1.0"
     inkscape:pageopacity="1"
     inkscape:pageshadow="2"
     inkscape:zoom="0.76"
     inkscape:cx="144.91649"
     inkscape:cy="150.0769"
     inkscape:document-units="px"
     inkscape:current-layer="layer1"
     showgrid="false"
     fit-margin-top="0"
     fit-margin-left="0"
     fit-margin-right="0"
     fit-margin-bottom="0"
     inkscape:window-width="1615"
     inkscape:window-height="1026"
     inkscape:window-x="1431"
     inkscape:window-y="24"
     inkscape:window-maximized="1" />
  <metadata
     id="metadata7">
    <rdf:RDF>
      <cc:Work
         rdf:about="">
        <dc:format>image/svg+xml</dc:format>
        <dc:type
           rdf:resource="http://purl.org/dc/dcmitype/StillImage" />
        <dc:title />
      </cc:Work>
    </rdf:RDF>
  </metadata>
  <g
     inkscape:label="Layer 1"
     inkscape:groupmode="layer"
     id="layer1"
     transform="translate(-264.36918,-114.91293)">
    <g
       transform="matrix(1.7301727,0,0,1.7301727,641.9932,-1127.1992)"
       id="g3367">
      <path
         inkscape:connector-curvature="0"
         d="m -184.64179,862.01848 c 0.43213,1.13763 0.96438,2.207 1.57613,3.25925 1.71725,2.893 4.32475,5.39788 7.208,7.09225 2.88725,1.71638 5.96437,2.71725 8.94287,3.30563 2.99313,0.586 5.92288,0.774 8.79638,0.7325 1.438,-0.0245 2.86137,-0.10987 4.28712,-0.2515 0.1245,-0.0122 0.249,-0.0317 0.3735,-0.0464 3.63288,3.08587 7.74325,4.65324 12.22076,4.65324 4.10987,0 6.97125,-1.35487 7.09087,-1.41112 0.1635,-0.0781 0.29538,-0.2075 0.37588,-0.371 3.05912,-6.15 2.32425,-13.62062 1.9595,-16.11575 l 11.67087,-1.65525 c 0.2515,-0.0366 0.47363,-0.188 0.59575,-0.41262 2.02388,-3.66213 -0.25,-7.99801 -0.34662,-8.18113 -0.14163,-0.26125 -0.41263,-0.42725 -0.70813,-0.42975 l -18.8525,-0.19038 c -11.86275,0.96675 -14.73388,7.6245 -14.851,7.90763 -0.0196,0.0489 -0.0294,0.10013 -0.0391,0.15387 l -0.0805,0.0317 -0.67388,0.23675 c -0.46237,0.15388 -0.94087,0.30038 -1.42337,0.437 -0.96438,0.276 -1.94825,0.51038 -2.92725,0.70075 -1.96038,0.38326 -3.91213,0.59325 -5.73725,0.56888 -1.82863,-0.0196 -3.51813,-0.2735 -4.95363,-0.78125 -1.74312,-0.61775 -3.7085,-1.84325 -4.57625,-3.562 0.0181,0.0366 0.0352,0.0733 0.0548,0.11225 -0.228,-0.33688 -0.44437,-0.67875 -0.66012,-1.0205 -0.51663,-0.84475 -0.983,-1.74562 -1.40038,-2.69288 -0.83987,-1.89699 -1.482,-3.96725 -1.942,-6.13037 -0.46037,-2.1655 -0.74362,-4.42138 -0.86562,-6.71137 -0.0611,-1.14263 -0.083,-2.29738 -0.0635,-3.44975 0.0171,-1.13776 0.083,-2.34626 0.1855,-3.38863 l 0.0123,-0.14162 c 0.10887,-1.10838 -0.55663,-2.18513 -1.65775,-2.55376 -1.27925,-0.42724 -2.666,0.26376 -3.09325,1.54538 -0.44188,1.32325 -0.77,2.50987 -1.0815,3.77688 -0.30525,1.25249 -0.5665,2.51462 -0.78475,3.79149 -0.436,2.55626 -0.70063,5.1685 -0.73975,7.83938 -0.0366,2.6685 0.15487,5.40287 0.68462,8.1665 0.33688,1.76762 0.82525,3.49125 1.42338,5.18562 z m 31.88475,-1.587 c 0.3735,-0.76175 3.29588,-5.98875 13.36176,-6.81387 l 18.26662,0.19037 c 0.43113,1.00588 1.34038,3.61575 0.33938,5.85201 l -12.07275,1.7115 c -0.22075,0.0317 -0.41988,0.15137 -0.54938,0.33449 -0.12687,0.18063 -0.17675,0.40763 -0.13425,0.62738 0.0171,0.0879 1.687,8.84037 -1.55025,15.66162 -0.74225,0.30276 -3.07612,1.14501 -6.14112,1.14501 -4.05663,0 -7.79201,-1.41601 -11.10838,-4.20901 -0.26025,-1.09612 -1.2735,-6.1255 -0.41163,-14.4995"
         style="fill:#3d464c;fill-opacity:1;fill-rule:nonzero;stroke:none"
         id="path3053" />
      <path
         inkscape:connector-curvature="0"
         d="m -167.18579,921.14441 c -0.80662,-7.50005 -1.39162,-15.04393 -1.75287,-22.6123 -0.2075,-4.38238 -0.34425,-8.772 -0.40288,-13.16413 -0.0292,-2.3535 -0.039,-4.71912 -0.022,-7.07762 0.0855,0 0.1685,0 0.253,0 l 15.8115,0 c -0.21975,-0.1635 -0.44437,-0.31488 -0.66162,-0.48825 -1.377,0.12937 -2.76363,0.2075 -4.13088,0.2295 -0.271,0.005 -0.53712,0.007 -0.80562,0.007 -2.97225,0 -5.69675,-0.2515 -8.33013,-0.76912 -3.59712,-0.71037 -6.69187,-1.85537 -9.46137,-3.50337 -3.19238,-1.875 -5.95613,-4.59475 -7.775,-7.65876 -0.36225,-0.625 -0.7055,-1.25725 -1.02875,-1.90424 l -0.38963,6.02049 c 0,6.57225 4.17725,7.82963 10.14163,8.04201 -0.25738,2.27049 -0.48838,4.53374 -0.70413,6.81399 -0.4165,4.458 -0.75837,8.92088 -1.02437,13.39351 -0.44438,7.45849 -0.67238,14.93899 -0.6895,22.43898 -4.78663,2.21191 -4.27738,7.29493 -4.08938,9.00879 0.0254,0.2295 0.249,0.4126 0.4795,0.4126 l 17.26813,0 c 0.23187,0 0.44575,-0.18555 0.46525,-0.41504 0.14262,-1.48437 0.648,-6.41601 -3.15088,-8.77441"
         style="fill:#3d464c;fill-opacity:1;fill-rule:nonzero;stroke:none"
         id="path3055" />
      <path
         inkscape:connector-curvature="0"
         d="m -177.77516,834.42324 -0.0136,0.13912 c -0.0976,1.01075 -0.16113,2.168 -0.17825,3.25925 -0.0171,1.10113 0.002,2.22412 0.061,3.33987 0.12212,2.25338 0.40287,4.42625 0.834,6.4575 0.44925,2.11676 1.06787,4.06988 1.83837,5.81063 0.3955,0.89838 0.8335,1.73825 1.29988,2.50488 0,0 0.581,0.93499 0.89987,1.36474 0.84713,1.145 2.11038,1.95063 3.4385,2.41938 1.23775,0.4395 2.7295,0.67138 4.42863,0.69088 l 0.26612,0 c 1.57963,0 3.31063,-0.18301 5.14163,-0.53951 0.94237,-0.18549 1.88387,-0.41012 2.79537,-0.669 0.459,-0.12937 0.91313,-0.27087 1.35263,-0.41499 1.0425,-1.8945 4.90237,-7.5 16.02687,-8.41063 l 0.0741,-0.005 10.19537,0.10251 c -0.72125,-0.79101 -1.42575,-1.67963 -2.08987,-2.63175 -1.07663,-1.54551 -2.07275,-3.23738 -2.998,-4.99513 -1.07425,-2.05325 -2.05813,-4.21637 -2.9615,-6.41112 -0.393,-2.98351 -1.455,-5.752 -3.44725,-8.05426 20.31013,-6.09862 24.50838,-19.43849 23.87451,-30.78187 l -0.53463,-9.5425 c 13.4815,-20.05625 2.915,-51.365 -0.47125,-58.09125 -3.4325,-6.81625 -7.33975,-9.71625 -14.51163,-10.9475 -23.43513,-4.01625 -63.86725,3.7375 -75.69828,10.04375 -6.38672,3.40375 -10.80176,11.055 -10.01465,33.575 0.60059,17.21625 6.89942,26.3425 9.83398,29.69 l 0.58009,10.35875 c 0.63232,11.29375 6.36573,24.42612 28.29448,28.04675 1.15963,0.82763 1.8285,2.20938 1.6835,3.69138 z m -27.54388,-31.87313 -1.81546,-32.40375 c 0.14649,-12.105 0.73876,-18.60375 0.73876,-18.60375 0,0 3.2652,3.14625 12.99908,3.07375 20.82762,-0.14875 65.59813,-14.00625 65.59813,-14.00625 2.87837,6.12 4.91212,13.2225 6.35012,20.0675 l 2.07763,37.05875 c 1.07325,19.18925 -12.71,29.73613 -40.96688,31.3475 -2.163,0.12212 -4.27975,0.1855 -6.2925,0.1855 -24.67913,0 -37.69675,-8.99162 -38.68888,-26.71925"
         style="fill:#3d464c;fill-opacity:1;fill-rule:nonzero;stroke:none"
         id="path3057" />
      <path
         inkscape:connector-curvature="0"
         d="m -142.90116,919.98962 c -0.0341,-7.19238 -0.26462,-14.36526 -0.68937,-21.51613 -0.26763,-4.47263 -0.607,-8.93551 -1.02438,-13.39351 -0.0952,-1.01562 -0.21,-2.02637 -0.3135,-3.03962 -2.377,-0.44675 -4.63775,-1.34025 -6.7715,-2.66112 0.009,1.99712 0.007,3.99662 -0.0181,5.98637 -0.06,4.3945 -0.19675,8.78412 -0.40425,13.1665 -0.36138,7.59525 -0.94975,15.1685 -1.76025,22.69286 -2.46438,2.38281 -2.86138,7.19239 -2.71725,8.69385 0.0195,0.22949 0.23437,0.41504 0.46525,0.41504 l 26.71487,0 c 0.232,0 0.45413,-0.1831 0.4785,-0.4126 0.2075,-1.87744 -0.69087,-8.66455 -13.96,-9.93164"
         style="fill:#3d464c;fill-opacity:1;fill-rule:nonzero;stroke:none"
         id="path3059" />
      <path
         inkscape:connector-curvature="0"
         d="m -74.946784,842.09661 c -0.14,-0.26375 -0.4125,-0.42725 -0.70875,-0.42975 l -18.852,-0.19288 c -11.862746,0.97176 -14.733876,7.627 -14.851126,7.91013 -0.21237,0.52987 -1.86612,0.84475 -2.35687,1.001 -0.88625,0.28325 -1.80325,0.54687 -2.73438,0.79587 -1.272,0.337 -2.57575,0.62988 -3.89062,0.90338 0.55175,1.1255 2.42087,5.51262 0.21975,9.4995 -0.36625,0.6665 -1.03613,1.12787 -1.792,1.23537 l -6.77,0.95951 c 0.143,0.0316 0.27825,0.0756 0.42375,0.10249 0.43462,0.0904 0.97262,0.14163 1.34275,0.18551 0.49912,0.0952 1.107,0.19049 1.63925,0.27837 1.1035,0.17575 2.21187,0.3345 3.32762,0.4785 2.23388,0.28075 4.49213,0.49075 6.791,0.60787 1.15088,0.0586 2.3105,0.0928 3.49463,0.0952 0.34662,0 0.70212,-0.007 1.05375,-0.0146 3.65712,3.13962 7.80025,4.73388 12.317866,4.73388 4.10913,0 6.97163,-1.35751 7.09163,-1.41363 0.16125,-0.0781 0.295,-0.2075 0.37375,-0.371 3.06,-6.15 2.325,-13.62062 1.96125,-16.11825 l 11.67,-1.65275 c 0.2525,-0.0366 0.47375,-0.188 0.59625,-0.41263 2.0225,-3.66462 -0.25,-8.0005 -0.3475,-8.18112 z m -0.89875,7.04337 -12.0725,1.7115 c -0.22,0.0318 -0.41875,0.15375 -0.5475,0.33438 -0.12875,0.18075 -0.1775,0.40775 -0.13625,0.6275 0.0188,0.0904 1.6875,8.84038 -1.55,15.65913 -0.74125,0.30524 -3.075,1.14749 -6.14038,1.14749 -4.056246,0 -7.792996,-1.41599 -11.108496,-4.20899 -0.25975,-1.09613 -1.27437,-6.1255 -0.41112,-14.50188 0.37362,-0.75938 3.296,-5.98637 13.361866,-6.81162 l 18.26688,0.188 c 0.43,1.00837 1.33875,3.61574 0.3375,5.85449"
         style="fill:#3d464c;fill-opacity:1;fill-rule:nonzero;stroke:none"
         id="path3061" />
      <path
         inkscape:connector-curvature="0"
         d="m -93.994914,860.42173 c -0.59075,0.0855 -1.18887,0.1245 -1.77487,0.10738 -0.58838,-0.017 -1.167,-0.0902 -1.72463,-0.227 -0.47987,-0.11475 -0.93987,-0.28075 -1.37587,-0.481 l 0.10737,-2.90038 0.1895,-0.74462 0.4355,-1.71625 5.62988,-0.51275 0.005,-0.13913 -5.255,-0.85449 1.66112,-6.53326 -3.7925,8.32525 c -0.235746,-0.0855 -0.470116,-0.16112 -0.706996,-0.23925 -0.48925,-0.15387 -0.98387,-0.30025 -1.48187,-0.437 -0.49563,-0.13675 -0.99613,-0.26612 -1.49763,-0.39062 -0.38475,-0.0928 -0.773,-0.18075 -1.16112,-0.26125 l -0.82038,-5.02925 -0.36375,5.58837 -0.0244,0.3515 0.4565,0.21725 c 0.47125,0.22225 0.94237,0.43213 1.4185,0.62988 0.4775,0.20025 0.957,0.39563 1.438,0.57625 0.481,0.19038 0.96187,0.36375 1.45162,0.53225 0.36725,0.1245 0.73825,0.24413 1.11425,0.3515 l 0.776376,10.55663 0.13675,0 0.22612,-5.96188 c 0.42575,0.0879 0.852,0.14888 1.27438,0.17087 0.65287,0.0415 1.30125,0.007 1.93112,-0.0854 0.62988,-0.0952 1.24613,-0.24425 1.83938,-0.44437 0.59075,-0.20513 1.1645,-0.44926 1.702,-0.76176 l -0.06,-0.122 c -0.5675,0.2075 -1.1635,0.33925 -1.75438,0.4345"
         style="fill:#3d464c;fill-opacity:1;fill-rule:nonzero;stroke:none"
         id="path3063" />
      <path
         inkscape:connector-curvature="0"
         d="m -142.06128,790.74386 c 3.71587,-0.21 4.358,-3.90625 4.09425,-8.60625 -0.26363,-4.70125 -1.3135,-8.3025 -5.02925,-8.095 -3.71338,0.2075 -4.35801,3.90625 -4.09426,8.60625 0.26263,4.69875 1.31588,8.3025 5.02926,8.095"
         style="fill:#3d464c;fill-opacity:1;fill-rule:nonzero;stroke:none"
         id="path3065" />
      <path
         inkscape:connector-curvature="0"
         d="m -179.45966,784.46011 c -0.26275,-4.7 -1.316,-8.30125 -5.02838,-8.09375 -3.71575,0.2075 -4.35887,3.90625 -4.09662,8.60625 0.26362,4.7 1.31587,8.30375 5.03175,8.095 3.71237,-0.2075 4.35687,-3.90625 4.09325,-8.6075"
         style="fill:#3d464c;fill-opacity:1;fill-rule:nonzero;stroke:none"
         id="path3067" />
      <path
         inkscape:connector-curvature="0"
         d="m -160.84791,821.88173 c 15.21875,-0.82525 17.41213,-11.39162 17.688,-15.50537 0.0601,-0.89363 -0.7065,-1.5825 -1.6015,-1.53375 l -33.921,1.834 c -0.89588,0.0489 -1.582,0.81787 -1.42575,1.70162 0.71775,4.06013 4.0405,14.32626 19.26025,13.5035"
         style="fill:#3d464c;fill-opacity:1;fill-rule:nonzero;stroke:none"
         id="path3069" />
    </g>
    <path
       style="fill:#ffffff"
       d="M 68.995437,190.21242 C 43.911952,186.1298 30.227698,175.90418 24.974541,157.31764 22.621379,148.99176 19.497313,92.116526 20.446718,74.886282 l 0.844485,-15.326098 4.77317,2.021065 C 39.918927,67.447577 86.201819,60.406053 143.59418,43.70015 l 12.75665,-3.713232 3.17441,8.665363 c 5.80964,15.858885 7.44933,26.340501 9.28025,59.323259 2.37799,42.83777 1.36551,50.28201 -8.45999,62.20203 -13.59912,16.4981 -55.97654,25.79228 -91.350063,20.03485 z m 41.146153,-11.87459 c 11.77604,-3.49711 19.93883,-13.34514 20.00916,-24.14011 l 0.0289,-4.43572 -20.06579,0.96811 c -11.036186,0.53246 -25.394738,1.34432 -31.907896,1.80414 l -11.842106,0.83603 0.150095,4.93434 c 0.260566,8.56608 8.459967,17.65675 18.721798,20.75685 5.801219,1.75254 17.735229,1.40581 24.905839,-0.72364 l 0,0 z m -45.443891,-50.2965 c 2.962475,-3.3584 3.858945,-9.3172 2.495152,-16.5852 -1.412116,-7.52553 -3.846285,-10.38849 -8.832582,-10.38849 -5.231049,0 -7.12799,3.49843 -7.12799,13.14578 0,10.72151 2.590279,16.13054 7.724597,16.13054 2.040305,0 4.623676,-1.03618 5.740823,-2.30263 z m 72.223501,-4.43892 c 2.48394,-2.48394 2.72437,-3.88183 2.16551,-12.59012 -0.38115,-5.93919 -1.35174,-10.48193 -2.46523,-11.538293 -3.39302,-3.21894 -7.23259,-3.529781 -10.53476,-0.852862 -2.76402,2.240665 -3.14356,3.643055 -3.14102,11.605905 0.002,6.44682 0.67446,10.08221 2.33296,12.61341 2.85635,4.35934 7.72643,4.67807 11.64254,0.76196 l 0,0 z"
       id="path2992"
       inkscape:connector-curvature="0"
       transform="translate(264.36918,114.91293)" />
    <path
       style="fill:#ffffff"
       d="m 120.36805,274.75009 c -6.12792,-3.50601 -7.88083,-8.89972 -6.85733,-21.10002 0.76021,-9.06196 2.09205,-10.9145 10.74788,-14.95001 5.91697,-2.75861 8.46557,-3.06853 25.32894,-3.08009 l 18.75,-0.0128 0,4.46936 0,4.46935 -11.10085,1.57577 -11.10086,1.57577 0.0306,10.97223 c 0.0182,6.54497 -0.68408,12.46771 -1.74059,14.67855 -1.6434,3.43898 -2.38719,3.73066 -10.3113,4.04351 -6.87236,0.27133 -9.55687,-0.24453 -13.74647,-2.64157 l 0,0 z"
       id="path2994"
       inkscape:connector-curvature="0"
       transform="translate(264.36918,114.91293)" />
    <path
       style="fill:#ffffff"
       d="m 208.14017,259.66352 c -0.93515,-0.3363 -1.64473,-2.81485 -1.64473,-5.745 0,-4.46186 0.39733,-5.15592 2.96052,-5.17147 3.90328,-0.0237 8.88136,-1.39012 8.88245,-2.43813 4.7e-4,-0.45836 -2.21993,-0.83338 -4.93421,-0.83338 -4.56085,0 -4.96533,-0.31067 -5.33402,-4.09696 -0.37815,-3.88351 -0.10394,-4.14955 5.26316,-5.10653 l 5.6621,-1.00958 -4.80077,-1.24262 c -4.73968,-1.2268 -4.78451,-1.30153 -3.52251,-5.87211 2.01311,-7.29087 0.0869,-6.81049 -3.0606,0.7633 -2.61516,6.29277 -3.14417,6.8026 -6.24969,6.02316 -4.31094,-1.08198 -5.5068,-2.93777 -5.07764,-7.87971 0.27269,-3.14017 1.41906,-4.48551 5.60594,-6.57895 4.38698,-2.19349 8.49407,-2.70643 24.67106,-3.08121 l 19.40789,-0.44963 0,4.66633 c 0,5.11815 1.08768,4.60642 -15.13158,7.11903 l -6.57894,1.01918 -0.0919,8.52104 c -0.11324,10.5053 -1.43871,17.722 -3.56139,19.39046 -1.92675,1.51446 -10.14942,2.83559 -12.46518,2.00278 l 0,0 z"
       id="path3000"
       inkscape:connector-curvature="0"
       transform="translate(264.36918,114.91293)" />
    <path
       style="fill:#ffffff"
       d="m 199.25809,257.46776 c -6.78225,-2.95584 -7.89423,-5.40565 -7.89423,-17.39182 0,-7.45577 0.56431,-11.45843 1.78016,-12.62672 1.48958,-1.43132 1.63667,-0.82665 0.90112,3.70441 -0.86725,5.34232 -0.80987,5.44262 4.27907,7.47881 4.73965,1.89643 5.22696,2.56617 6.00677,8.25555 1.12031,8.17355 1.07286,12.41504 -0.13817,12.35184 -0.54277,-0.0283 -2.76339,-0.82576 -4.93472,-1.77207 l 0,0 z"
       id="path3002"
       inkscape:connector-curvature="0"
       transform="translate(264.36918,114.91293)" />
    <path
       style="fill:#000000"
       d="m 86.758595,245.18449 c -9.255222,-1.66166 -15.789473,-16.19656 -15.789473,-35.12239 0,-6.60513 -0.643507,-11.67417 -1.658177,-13.06181 -0.911996,-1.24722 -5.204759,-3.19249 -9.539473,-4.3228 -16.766727,-4.3721 -29.478143,-13.68858 -35.928907,-26.33312 -3.271014,-6.41171 -5.505022,-18.12875 -5.505022,-28.873 0,-7.13134 -0.576775,-9.03584 -4.503765,-14.87132 C 3.8508882,107.76554 0.70541632,92.837744 1.5276403,64.197534 2.6559317,24.896188 8.6592618,18.603523 54.521753,8.6493258 77.962602,3.5616208 97.288307,1.3965915 119.26184,1.3965915 c 23.44451,0 35.39619,1.6556089 41.46232,5.7435706 7.10928,4.7909459 12.54271,13.3361689 16.65979,26.2010329 5.67257,17.725382 7.20655,27.345157 7.18045,45.029081 -0.0247,16.740129 -2.0183,26.593934 -7.44573,36.802504 -2.44444,4.59782 -2.82194,7.48924 -2.83965,21.75013 -0.0187,15.03651 -0.3207,17.08791 -3.52096,23.91467 -4.96366,10.58841 -12.93944,18.66238 -23.80523,24.09831 -5.0776,2.54023 -10.04062,4.6186 -11.02892,4.6186 -2.29787,0 -2.27796,1.98064 0.0641,6.37593 1.02355,1.92087 3.14655,7.13551 4.7178,11.58811 1.57124,4.45257 4.80213,11.04943 7.17975,14.65967 l 4.32295,6.56406 -13.31705,0.53887 c -14.72902,0.59599 -19.33827,2.24832 -27.16571,9.73834 -3.3531,3.20857 -6.59263,4.80886 -11.69275,5.77608 -7.258856,1.37662 -7.700924,1.38957 -13.274385,0.38894 z m 35.199665,-55.03804 c 19.65998,-3.97554 31.16353,-9.82667 40.29618,-20.49611 9.31785,-10.88581 10.2725,-19.86521 7.39627,-69.56954 -1.52301,-26.319419 -4.59209,-42.818135 -10.41275,-55.976687 l -2.49133,-5.632077 -10.98086,3.231395 C 86.670118,59.093816 40.132643,66.241134 25.742643,60.136822 22.940448,58.948116 20.51284,57.975539 20.34796,57.975539 c -1.579377,0 -1.626417,36.886168 -0.07971,62.500001 2.548955,42.2112 4.765234,49.2023 18.98495,59.88679 7.676559,5.76805 19.148344,9.92566 32.373813,11.73291 12.012537,1.6415 37.446358,0.65672 50.331238,-1.94879 l 10e-6,0 z"
       id="path2996"
       inkscape:connector-curvature="0"
       transform="translate(264.36918,114.91293)" />
    <path
       style="fill:#000000"
       d="m 126.4749,122.34876 c -4.27434,-6.8443 -3.03352,-22.23123 1.94685,-24.142377 2.83202,-1.08675 6.95492,1.529162 8.39983,5.329557 2.20555,5.80104 1.54294,16.92707 -1.15343,19.36725 -3.28003,2.96838 -7.13854,2.73568 -9.19325,-0.55443 z"
       id="path2998"
       inkscape:connector-curvature="0"
       transform="translate(264.36918,114.91293)" />
    <path
       style="fill:#000000"
       d="m 54.596364,126.10382 c -1.360607,-1.94254 -2.048295,-5.89332 -2.048295,-11.76749 0,-7.44391 0.429861,-9.14424 2.716701,-10.746 3.394264,-2.37744 7.428069,-1.41299 9.397865,2.24694 2.168856,4.02979 2.097508,18.3609 -0.104632,21.01468 -2.551579,3.0749 -7.546647,2.69976 -9.961646,-0.74813 l 7e-6,0 z"
       id="path3001"
       inkscape:connector-curvature="0"
       transform="translate(264.36918,114.91293)" />
    <path
       style="fill:#000000"
       d="m 83.649728,177.10078 c -2.795404,-0.99653 -6.781603,-3.43967 -8.858221,-5.42919 -4.322433,-4.14116 -8.790915,-14.54671 -6.984996,-16.26565 1.089043,-1.03659 42.344589,-4.02148 55.465239,-4.01297 5.04686,0.003 5.59211,0.316 5.59211,3.20744 0,9.07297 -8.76069,19.46336 -18.96587,22.49397 -8.07286,2.39739 -19.533411,2.40018 -26.248262,0.006 l 0,-5e-5 z"
       id="path3003"
       inkscape:connector-curvature="0"
       transform="translate(264.36918,114.91293)" />
    <path
       style="fill:#000000"
       d="M 89.449782,272.32769 C 74.554658,269.40787 62.65603,259.74425 58.184425,246.93513 c -4.665959,-13.36585 -1.606801,-49.48591 4.191168,-49.48591 3.054694,0 3.901472,2.75024 4.210898,13.6765 0.385506,13.61275 4.43436,26.90242 9.988625,32.78596 5.315744,5.63087 12.06644,6.97703 24.484444,4.88247 7.53721,-1.27132 9.48608,-2.15339 11.86404,-5.36976 1.56495,-2.11671 5.34764,-5.1788 8.40597,-6.80464 4.97334,-2.64388 7.81874,-3.00437 26.94218,-3.41335 11.75987,-0.2515 21.38049,0.0377 21.37915,0.64277 -0.001,0.60503 -9.327,1.10005 -20.72369,1.10005 -18.66986,0 -21.24229,0.27923 -25.9844,2.82052 -2.89474,1.55128 -6.27971,3.94462 -7.52215,5.31853 -2.94208,3.2534 -4.25908,15.03523 -2.65695,23.76885 l 1.26721,6.90789 -9.35984,-0.14416 c -5.147922,-0.0793 -11.997503,-0.66121 -15.221298,-1.29316 z"
       id="path3005"
       inkscape:connector-curvature="0"
       transform="translate(264.36918,114.91293)" />
    <path
       style="fill:#000000"
       d="m 63.074385,362.52099 c 0,-3.2422 1.020125,-5.68519 3.344611,-8.00968 3.273678,-3.27368 3.370543,-3.9212 4.567405,-30.5323 0.672536,-14.95322 1.615276,-31.68789 2.094976,-37.18814 l 0.87218,-10.00045 -5.632676,-0.7555 c -7.981808,-1.07059 -10.808439,-4.42625 -11.544273,-13.70488 l -0.6062,-7.64397 4.212651,5.26315 c 4.974195,6.21461 13.097223,11.9652 19.683128,13.9344 l 4.718724,1.41091 -0.389757,14.69577 c -0.584717,22.04668 2.832933,60.92183 5.627306,64.00957 1.222269,1.3506 2.546144,4.87 2.941944,7.82091 l 0.719636,5.36529 -15.304828,0 -15.304827,0 0,-4.66508 z"
       id="path3007"
       inkscape:connector-curvature="0"
       transform="translate(264.36918,114.91293)" />
    <path
       style="fill:#000000"
       d="m 107.81123,362.87357 c 0,-2.37187 0.89612,-5.59188 1.99137,-7.15557 2.23633,-3.19281 5.90336,-42.36867 5.90336,-63.06711 l 0,-12.09523 5.16166,2.02755 c 6.28398,2.46842 6.32004,2.65249 7.90601,40.35164 1.13854,27.06359 1.46435,28.39284 6.9715,28.44159 7.50832,0.0665 18.11873,8.09517 18.11873,13.71011 0,1.84218 -2.82233,2.09952 -23.02632,2.09952 l -23.02631,0 0,-4.3125 z"
       id="path3009"
       inkscape:connector-curvature="0"
       transform="translate(264.36918,114.91293)" />
    <path
       style="fill:#000000"
       d="m 176.66652,254.14436 c -9.15499,-0.75118 -14.92195,-2.74777 -7.93668,-2.74777 4.59989,0 6.46092,-3.77158 6.01419,-12.18842 l -0.35832,-6.75099 6.22956,-1.58917 c 3.42625,-0.87405 7.19089,-2.38571 8.36585,-3.35925 1.94456,-1.61119 2.05873,-1.06148 1.2721,6.12467 -0.47532,4.34211 -0.36027,11.00329 0.25566,14.80264 1.05868,6.53051 0.96886,6.89627 -1.64416,6.69514 -1.52021,-0.11702 -7.0094,-0.5611 -12.1982,-0.98685 z"
       id="path3011"
       inkscape:connector-curvature="0"
       transform="translate(264.36918,114.91293)" />
    <path
       style="fill:#000000"
       d=""
       id="path3017"
       inkscape:connector-curvature="0"
       transform="translate(264.36918,114.91293)" />
    <path
       style="fill:#000000"
       d=""
       id="path3019"
       inkscape:connector-curvature="0"
       transform="translate(264.36918,114.91293)" />
  </g>
</svg>
