<?xml version="1.0" encoding="UTF-8" standalone="no"?>
<!-- Created with Inkscape (http://www.inkscape.org/) -->

<svg
   xmlns:dc="http://purl.org/dc/elements/1.1/"
   xmlns:cc="http://creativecommons.org/ns#"
   xmlns:rdf="http://www.w3.org/1999/02/22-rdf-syntax-ns#"
   xmlns:svg="http://www.w3.org/2000/svg"
   xmlns="http://www.w3.org/2000/svg"
   xmlns:sodipodi="http://sodipodi.sourceforge.net/DTD/sodipodi-0.dtd"
   xmlns:inkscape="http://www.inkscape.org/namespaces/inkscape"
   width="249.99998"
   height="198.47"
   id="svg2"
   version="1.1"
   inkscape:version="0.48.4 r9939"
   sodipodi:docname="drawing17.svg">
  <defs
     id="defs4" />
  <sodipodi:namedview
     id="base"
     pagecolor="#888888"
     bordercolor="#666666"
     borderopacity="1.0"
     inkscape:pageopacity="1"
     inkscape:pageshadow="2"
     inkscape:zoom="0.58"
     inkscape:cx="-40.883211"
     inkscape:cy="-49.845821"
     inkscape:document-units="px"
     inkscape:current-layer="layer1"
     showgrid="false"
     fit-margin-top="0"
     fit-margin-left="0"
     fit-margin-right="0"
     fit-margin-bottom="0"
     inkscape:window-width="1615"
     inkscape:window-height="1026"
     inkscape:window-x="1431"
     inkscape:window-y="24"
     inkscape:window-maximized="1" />
  <metadata
     id="metadata7">
    <rdf:RDF>
      <cc:Work
         rdf:about="">
        <dc:format>image/svg+xml</dc:format>
        <dc:type
           rdf:resource="http://purl.org/dc/dcmitype/StillImage" />
        <dc:title />
      </cc:Work>
    </rdf:RDF>
  </metadata>
  <g
     inkscape:label="Layer 1"
     inkscape:groupmode="layer"
     id="layer1"
     transform="translate(605.9979,-284.04634)">
    <g
       transform="matrix(1.3757224,0,0,1.3757224,55.422688,-233.65716)"
       id="g3711">
      <path
         inkscape:connector-curvature="0"
         d="m -299.16266,382.65485 -1.66375,-2.99875 c -0.11875,-0.2125 -0.32375,-0.35625 -0.55625,-0.4075 l -37.935,0 c -0.4025,0.06 -0.71875,0.3925 -0.71875,0.8125 0,4.1275 1.99375,7.06 2.07875,7.18125 0.0962,0.14 0.2325,0.24625 0.39125,0.30625 1.30625,0.49625 3.05875,1.05625 4.87625,1.5925 0.2775,8.54 0.17625,17.07 -0.48875,25.525 -0.79125,9.92625 -2.3425,19.775 -5.1925,29.17 -2.125,6.9625 -4.99375,13.715 -8.91125,19.71125 0.26625,-1.60625 0.41375,-3.21 0.46,-4.7775 l 0.28125,-9.55375 c 15.145,-18.8325 7.29,-50.93 4.49125,-57.9225 -2.8375,-7.085 -6.4825,-7.05625 -13.5225,-8.8925 -16.71337,-4.36125 -70.2455,-2.29 -76.27825,0.29 -6.65425,2.84625 -11.7095,10.0925 -12.84675,32.5975 -0.86962,17.205 4.62413,26.835 7.26325,30.42125 l -0.30662,10.37125 c -0.0766,2.635 0.122,5.1175 0.57962,7.45875 -3.99125,-6.69625 -6.49512,-14.35 -8.108,-22.1625 -1.8305,-8.9575 -2.51162,-18.2175 -2.55125,-27.4975 -0.0269,-8.2925 0.47663,-16.62125 1.32613,-24.935 1.57912,-0.47625 3.07625,-0.95875 4.22375,-1.39625 0.15812,-0.06 0.29237,-0.16625 0.39062,-0.30625 0.083,-0.12125 2.07613,-3.05375 2.07613,-7.18125 0,-0.42 -0.314,-0.7525 -0.71675,-0.8125 -0.0415,-0.005 -0.0768,-0.025 -0.11963,-0.025 l -37.64024,0 c -0.0595,0 -0.11862,0.0125 -0.17575,0.025 -0.23287,0.0513 -0.4385,0.195 -0.55512,0.4075 l -1.66312,2.99875 c -0.11328,0.2025 -0.13672,0.44375 -0.0654,0.6625 0.10253,0.315 0.84571,1.9825 5.57717,4.11625 0.36125,0.12625 6.85638,2.3925 12.75049,3.5225 0.0464,7.875 0.39738,15.76875 1.2045,23.65625 1.023,9.88375 2.7295,19.78 5.71538,29.42375 1.499,4.81625 3.32912,9.56625 5.61775,14.13125 2.2885,4.56375 5.04537,8.94875 8.40662,12.89625 3.35263,3.94125 7.33213,7.43625 11.87413,10.03375 2.2695,1.29875 4.67037,2.37 7.17187,3.15625 1.25088,0.3925 2.52438,0.715 3.82513,0.94875 0.64937,0.1175 1.30612,0.215 1.97562,0.285 0.106,0.0112 0.2075,0.02 0.3095,0.03 -0.65662,2.085 -0.86912,4.3225 -0.74062,6.615 l -0.27688,30.9925 c 0.25238,4.52625 2.34963,6.41375 5.582,7.1125 0.0796,0.0575 0.16263,0.11625 0.24075,0.175 0.86425,0.65 1.70413,1.32875 2.51075,2.03625 1.61525,1.4125 3.1045,2.9325 4.37638,4.54 2.56112,3.20375 4.1255,6.8325 3.8585,10.03875 -0.19775,3.2025 -2.08838,6.27375 -4.88925,8.995 -2.79238,2.72125 -6.33788,5.0475 -10.08488,7.09125 -3.1875,2.04875 -3.69287,7.7325 -3.53425,9.3875 0.0196,0.23125 0.233,0.415 0.46538,0.415 l 26.71387,0 c 0.23138,0 0.45413,-0.18125 0.4795,-0.4125 0.16838,-1.52 -0.38725,-6.25875 -7.64312,-8.6825 0.33112,-0.365 0.66062,-0.73375 0.982,-1.11875 1.70012,-2.055 3.25925,-4.37125 4.393,-7.035 1.13525,-2.645 1.79687,-5.67375 1.6495,-8.6825 -0.127,-3.0125 -1.03088,-5.88125 -2.32913,-8.325 -1.30037,-2.46 -2.959,-4.55375 -4.74762,-6.39375 -0.66888,-0.685 -1.36475,-1.32625 -2.07025,-1.94875 0.41012,-0.025 0.82275,-0.0487 1.24025,-0.0738 l 17.13625,-0.95375 c 0.94812,-0.0525 1.87737,-0.0975 2.78312,-0.1425 -0.81937,0.985 -1.60637,2.00625 -2.34712,3.07375 -2.62113,3.7875 -4.77688,8.18125 -5.628,13.1625 -0.42088,2.47875 -0.49263,5.08125 -0.14988,7.65 0.33688,2.5725 1.0855,5.09125 2.13375,7.425 0.4215,0.935 0.897,1.83 1.3965,2.7025 -3.48137,0.76125 -5.79825,1.97875 -7.31337,3.31 1.81687,2.1825 2.30612,4.6175 2.12937,6.21 -0.009,0.0813 -0.0318,0.15625 -0.0494,0.235 l 22.34037,0 c 0.23188,0 0.44675,-0.18375 0.46425,-0.415 0.14875,-1.53 -0.27137,-6.49875 -2.874,-8.82625 l 0.0474,-0.0562 c -2.96963,-2.2125 -5.53563,-4.7625 -7.25675,-7.65 -1.731,-2.87875 -2.587,-6.105 -2.3975,-9.55875 0.17237,-3.44875 1.37112,-7.0525 3.19825,-10.4425 0.914,-1.6975 1.98237,-3.34875 3.16312,-4.9325 0.59175,-0.79125 1.21188,-1.5675 1.85638,-2.31625 0.311,-0.3625 0.63962,-0.7325 0.96775,-1.08875 2.57325,-1.1525 4.05787,-3.2675 3.83162,-7.3275 l -3.72175,-30.77 c -0.0366,-0.6425 -0.0986,-1.275 -0.1865,-1.89875 1.02888,-0.16375 2.05075,-0.36 3.06013,-0.60875 2.69687,-0.665 5.31687,-1.61 7.82812,-2.78375 5.03125,-2.34875 9.60625,-5.625 13.59,-9.45375 3.9925,-3.83125 7.40625,-8.205 10.31875,-12.8375 2.915,-4.63875 5.33875,-9.5375 7.3875,-14.5525 4.0875,-10.045 6.72375,-20.52125 8.5475,-31.04 1.4575,-8.465 2.37,-16.98125 2.92,-25.495 5.77,-1.15625 11.95125,-3.31375 12.35125,-3.45625 4.665,-2.10625 5.4075,-3.77375 5.51,-4.08875 0.0725,-0.21875 0.0475,-0.46 -0.0638,-0.6625 z m -175.37874,3.22625 c -2.94237,-1.3275 -4.05662,-2.39 -4.4335,-2.84125 l 1.1865,-2.1425 36.28024,0 c -0.19525,2.5975 -1.2475,4.5625 -1.61862,5.185 -4.07225,1.5075 -12.29888,3.5925 -13.17138,3.8125 -0.2075,0.0125 -0.42237,0.0175 -0.6455,0.0175 -6.03912,0 -17.55036,-4.01625 -17.59774,-4.03125 z m 42.51812,19.36 c 0,0 2.98687,3.4125 12.69037,4.1725 20.76525,1.62625 66.55525,-8.35375 66.55525,-8.35375 2.34375,6.345 3.765,13.59375 4.6125,20.53375 l -1.095,37.1025 c -0.545,18.43375 -14.0775,27.78125 -40.22312,27.78125 -1.06538,0 -2.15275,-0.0163 -3.27,-0.0488 -15.56888,-0.44375 -27.05075,-3.73375 -34.122,-9.77625 -5.84775,-4.99875 -8.68313,-11.895 -8.42925,-20.4975 l 0.9585,-32.42875 c 1.17925,-12.05625 2.32275,-18.485 2.32275,-18.485 z m 126.79312,-19.38625 c -0.11875,0.0425 -12.49875,4.36125 -18.31125,4.04 -0.8725,-0.22 -9.09875,-2.305 -13.17125,-3.8125 -0.37125,-0.62375 -1.4225,-2.59 -1.61875,-5.185 l 36.28125,0 1.18375,2.135 c -0.39,0.47625 -1.4975,1.5275 -4.36375,2.8225"
         style="fill:#3d464c;fill-opacity:1;fill-rule:nonzero;stroke:none"
         id="path3325" />
      <path
         inkscape:connector-curvature="0"
         d="m -369.58916,442.72985 c 3.40025,-0.04 4.15775,-3.4325 4.13525,-7.7875 -0.0188,-4.355 -0.8125,-7.72625 -4.21337,-7.6875 -3.3985,0.0412 -4.15925,3.4325 -4.13676,7.7875 0.0205,4.355 0.814,7.72625 4.21488,7.6875"
         style="fill:#3d464c;fill-opacity:1;fill-rule:nonzero;stroke:none"
         id="path3327" />
      <path
         inkscape:connector-curvature="0"
         d="m -412.63016,443.0761 c 4.1875,-0.0225 5.10788,-4.15 5.06,-9.4575 -0.0479,-5.3075 -1.0425,-9.42625 -5.2295,-9.40625 -4.1895,0.0238 -5.10737,4.15 -5.0595,9.4575 0.0472,5.31125 1.04,9.42875 5.229,9.40625"
         style="fill:#3d464c;fill-opacity:1;fill-rule:nonzero;stroke:none"
         id="path3329" />
      <path
         inkscape:connector-curvature="0"
         d="m -410.00178,450.3511 c -1.44438,0.0238 -2.17038,0.82125 -2.7515,1.4575 -0.4175,0.45875 -0.90913,0.79875 -1.30275,1.07375 -0.57713,0.40125 -1.07613,0.74625 -1.06538,1.3675 0.01,0.51375 0.437,1.07125 1.35738,1.0825 0.78275,0.01 1.61962,-0.3875 2.24275,-1.06625 0.55025,-0.6025 0.8725,-0.9175 1.65037,-0.93 0.6665,0.007 1.00438,0.32375 1.54638,0.8775 0.58987,0.6 1.31937,1.3475 2.69037,1.36625 l 0.11625,0 c 1.44525,-0.0263 2.17138,-0.82125 2.75638,-1.46125 0.55025,-0.605 0.8725,-0.92 1.65137,-0.93375 0.6665,0.009 1.00588,0.3225 1.54875,0.8775 0.5875,0.60125 1.31738,1.34625 2.688,1.365 l 0.11625,0 c 1.44438,-0.025 2.17288,-0.82 2.75638,-1.46125 0.54925,-0.6025 0.86812,-0.915 1.62012,-0.93 0.6665,0.009 1.00675,0.32125 1.54875,0.87625 0.586,0.59875 1.31688,1.3475 2.6865,1.365 l 0.11775,0 c 1.44388,-0.0263 2.17138,-0.8225 2.75488,-1.46125 0.55325,-0.60625 0.8725,-0.92125 1.65037,-0.93375 0.668,0.009 1.00825,0.3225 1.55025,0.8775 0.58938,0.59875 1.31988,1.34875 2.688,1.36625 l 0.11875,0 c 1.44525,-0.025 2.17138,-0.8225 2.75575,-1.4625 0.55088,-0.60375 0.87313,-0.92 1.65188,-0.93375 0.6705,0.009 1.00837,0.32375 1.54937,0.88 0.604,0.61875 1.38275,0.97875 2.13625,0.9875 0.48188,0.008 0.893,-0.135 1.15575,-0.4 0.19875,-0.2 0.30513,-0.46 0.30025,-0.72875 -0.007,-0.6225 -0.5185,-0.9525 -1.11087,-1.335 -0.40375,-0.25875 -0.90813,-0.58375 -1.33788,-1.025 -0.58687,-0.59875 -1.31737,-1.34625 -2.684,-1.36375 l -0.11875,0 c -1.44525,0.025 -2.17187,0.82125 -2.75625,1.46125 -0.55187,0.6025 -0.87012,0.91875 -1.6505,0.93125 -0.6665,-0.007 -1.00575,-0.32125 -1.54687,-0.87625 -0.58925,-0.6 -1.32025,-1.3475 -2.68988,-1.365 l -0.11625,0.001 c -1.44525,0.0263 -2.17037,0.82 -2.75387,1.46 -0.55325,0.60375 -0.87013,0.92 -1.64888,0.9325 -0.668,-0.01 -1.00887,-0.32375 -1.54937,-0.8775 -0.58688,-0.6 -1.31688,-1.34625 -2.6865,-1.365 l -0.11775,-10e-4 c -1.44375,0.025 -2.17225,0.82125 -2.75488,1.46375 -0.55175,0.6025 -0.874,0.91875 -1.65175,0.93125 -0.66512,-0.007 -1.0045,-0.3225 -1.5455,-0.87625 -0.58687,-0.6025 -1.31687,-1.34875 -2.68887,-1.36625 l -0.11475,0 c -1.44688,0.0263 -2.17188,0.82125 -2.75738,1.46125 -0.54837,0.60375 -0.87062,0.92125 -1.65037,0.93375 -0.6665,-0.009 -1.00588,-0.325 -1.54788,-0.8775 -0.58737,-0.6 -1.31987,-1.3475 -2.687,-1.3675 l -0.11962,0.002"
         style="fill:#3d464c;fill-opacity:1;fill-rule:nonzero;stroke:none"
         id="path3331" />
    </g>
    <path
       style="fill:#ffffff"
       d="m 108.95399,149.59802 c -22.502641,-3.00564 -36.023639,-10.45433 -41.71114,-22.9786 -2.646234,-5.82719 -3.229517,-11.3938 -3.260609,-31.117865 -0.02083,-13.21164 0.829519,-30.784672 1.889656,-39.051181 l 1.927523,-15.030018 5.775721,2.41325 c 10.939707,4.570902 34.179399,3.1643 79.730159,-4.825734 17.70331,-3.105329 21.50009,-3.336215 22.70852,-1.380935 3.94081,6.376365 5.63614,25.918368 4.71679,54.370251 -1.09633,33.929102 -3.02369,40.158472 -15.14076,48.936032 -10.91141,7.90418 -34.87835,11.57092 -56.63586,8.6648 l 0,0 z m -9.113618,-40.90344 c 1.399188,1.39919 3.068988,1.42778 5.977978,0.10236 2.59498,-1.18235 5.07455,-1.2582 6.94332,-0.21239 1.8319,1.02519 4.00614,1.01156 5.87956,-0.0369 1.91857,-1.07368 4.09753,-1.06164 6.1447,0.034 1.85767,0.99419 4.0193,1.06776 5.21693,0.17754 1.12473,-0.83602 6.8941,-1.37565 12.82083,-1.19918 11.41909,0.34002 13.09666,-0.87139 7.06102,-5.09892 -2.67386,-1.87284 -4.60643,-2.12481 -6.89655,-0.89917 -2.05663,1.10067 -4.2815,1.11421 -6.29186,0.0383 -1.71057,-0.91547 -3.97793,-1.12818 -5.03856,-0.47267 -1.06063,0.6555 -10.11041,1.0739 -20.11064,0.92977 -13.401089,-0.19314 -18.689114,0.34872 -20.109873,2.06063 -2.781293,3.35125 -0.433095,6.32506 3.382136,4.28321 2.05656,-1.10063 3.724435,-1.00317 5.021009,0.2934 l 0,0 z M 99.191437,88.966674 c 5.471963,-7.812322 1.653523,-23.7543 -5.689655,-23.7543 -5.099495,0 -7.143614,3.763602 -7.143614,13.152709 0,13.167905 6.99074,18.94297 12.833269,10.601591 z m 59.580523,-8.212048 c 0,-9.394407 -3.35983,-13.185364 -9.0072,-10.162983 -4.3002,2.301398 -4.3686,17.855976 -0.089,20.250934 5.6121,3.140688 9.09625,-0.723312 9.09625,-10.087951 z"
       id="path2987"
       inkscape:connector-curvature="0"
       transform="translate(-605.9979,284.04634)" />
    <path
       style="fill:#ffffff"
       d="M 25.151272,16.611607 C 14.532715,14.458466 3.4680012,9.9235257 4.5523492,8.1690138 5.088513,7.3014826 16.270836,6.5916843 29.401956,6.5916843 c 22.167657,0 23.816566,0.2225586 23.060804,3.1125957 -1.161261,4.440663 -18.210887,8.75267 -27.311488,6.907327 z"
       id="path2989"
       inkscape:connector-curvature="0"
       transform="translate(-605.9979,284.04634)" />
    <path
       style="fill:#ffffff"
       d="m 205.32369,14.815105 c -5.76556,-1.888865 -8.53699,-4.123711 -8.59429,-6.9303173 -0.0378,-1.8492293 47.85223,-1.6065452 48.99859,0.2483021 1.57606,2.5501172 -12.97335,7.4358142 -24.02499,8.0676032 -5.68966,0.32526 -13.06035,-0.298255 -16.37931,-1.385588 z"
       id="path2991"
       inkscape:connector-curvature="0"
       transform="translate(-605.9979,284.04634)" />
    <path
       style="fill:#000000"
       d="m 86.38457,266.50548 c 0.03636,-5.34259 1.523203,-7.26299 10.06475,-12.99955 9.00591,-6.04845 14.02025,-13.27263 14.03542,-20.22092 0.015,-6.87691 -7.10232,-17.07805 -15.703799,-22.50793 l -6.928247,-4.3736 0.54584,-28.14624 0.545841,-28.14625 -9.482758,-3.16513 C 67.115105,142.82487 51.075073,127.25613 43.293018,111.83997 35.822986,97.041917 29.999928,73.179931 27.834032,48.49145 25.084604,17.151449 24.643973,19.245287 34.202996,18.226704 c 4.50431,-0.479966 9.513307,-1.424461 11.131103,-2.098877 2.60123,-1.084383 2.750795,-0.561438 1.293104,4.521233 -2.549586,8.889888 -1.94783,47.555954 1.005303,64.59609 1.459507,8.421627 4.887614,19.96722 7.618017,25.65688 l 4.964369,10.34483 0.140604,-11.93369 C 60.461073,100.35232 59.418249,94.685281 56.169351,86.56431 50.63858,72.739562 49.299846,59.271555 51.736832,41.972039 54.106286,25.151912 58.616994,15.362139 66.062923,10.879548 71.173025,7.80317 75.631784,7.4255708 113.51412,6.861045 c 62.65706,-0.933721 72.32171,1.4904943 77.86783,19.531834 7.33505,23.860673 6.29763,44.539193 -3.33561,66.487648 -4.03725,9.198513 -5.18436,14.079363 -4.7577,20.243633 l 0.5622,8.1227 5.74742,-11.6826 c 8.4178,-17.110608 11.9792,-33.176658 14.29596,-64.491698 l 2.064,-27.898433 8.73447,0.984833 c 4.80394,0.541658 9.04946,1.255802 9.4345,1.586987 0.38501,0.331184 -0.25902,8.562994 -1.43121,18.292909 -7.34097,60.934699 -29.01839,99.815582 -62.15714,111.485802 -4.77074,1.68008 -8.96265,3.37556 -9.31534,3.76775 -0.3527,0.39219 0.39764,8.47169 1.66741,17.95445 3.56084,26.5927 3.24938,32.25739 -2.04536,37.19946 -9.14363,8.53459 -14.74286,25.5983 -11.32346,34.50835 0.94274,2.45653 4.88377,8.12872 8.75784,12.60486 3.87406,4.47614 7.04376,9.64296 7.04376,11.48184 0,3.04285 -1.30069,3.34342 -14.46827,3.34342 -14.22034,0 -14.48795,-0.0785 -15.61722,-4.57783 -1.15424,-4.59884 0.92209,-7.40845 5.51652,-7.46474 2.60724,-0.0319 2.63798,0.59581 -0.38132,-7.78502 -3.83011,-10.63145 -3.17886,-18.27098 2.51465,-29.49841 2.83282,-5.58623 5.1604,-10.35073 5.17242,-10.5878 0.0121,-0.23706 -5.60316,-0.41915 -12.47816,-0.40463 -14.30678,0.0302 -18.52884,1.57343 -14.17974,5.18286 9.61014,7.97572 11.81615,25.56676 4.49548,35.84769 -4.50997,6.33367 -4.61503,8.41322 -0.49119,9.72207 1.75265,0.55627 4.0636,2.93614 5.13545,5.2886 l 1.94883,4.27721 -18.06649,0 c -17.594008,0 -18.065792,-0.10145 -18.04008,-3.87931 z M 149.5585,149.47655 c 12.20455,-2.31032 23.64102,-10.23483 28.11826,-19.48358 3.08694,-6.37677 3.76356,-11.9184 4.679,-38.322013 0.89626,-25.850466 0.58085,-33.066768 -1.94069,-44.400569 l -3.01088,-13.533338 -8.02301,1.070439 c -4.41266,0.588742 -16.55749,2.636173 -26.98853,4.549847 -27.8159,5.103095 -60.173125,6.410683 -68.799206,2.780245 -3.701633,-1.557897 -6.893467,-2.62839 -7.092964,-2.378874 -0.199496,0.249517 -1.244163,7.48897 -2.321482,16.087676 -2.781819,22.203324 -2.559326,63.211807 0.381143,70.249337 8.882584,21.25901 44.480009,31.05094 84.998359,23.38083 z"
       id="path2993"
       inkscape:connector-curvature="0"
       transform="translate(-605.9979,284.04634)" />
  </g>
</svg>
