<?xml version="1.0" encoding="UTF-8" standalone="no"?>
<!-- Created with Inkscape (http://www.inkscape.org/) -->

<svg
   xmlns:dc="http://purl.org/dc/elements/1.1/"
   xmlns:cc="http://creativecommons.org/ns#"
   xmlns:rdf="http://www.w3.org/1999/02/22-rdf-syntax-ns#"
   xmlns:svg="http://www.w3.org/2000/svg"
   xmlns="http://www.w3.org/2000/svg"
   xmlns:sodipodi="http://sodipodi.sourceforge.net/DTD/sodipodi-0.dtd"
   xmlns:inkscape="http://www.inkscape.org/namespaces/inkscape"
   width="250"
   height="196.47461"
   id="svg2"
   version="1.1"
   inkscape:version="0.48.4 r9939"
   sodipodi:docname="drawing14.svg">
  <defs
     id="defs4" />
  <sodipodi:namedview
     id="base"
     pagecolor="#888888"
     bordercolor="#666666"
     borderopacity="1.0"
     inkscape:pageopacity="1"
     inkscape:pageshadow="2"
     inkscape:zoom="1.5219183"
     inkscape:cx="255.1255"
     inkscape:cy="133.57989"
     inkscape:document-units="px"
     inkscape:current-layer="layer1"
     showgrid="false"
     fit-margin-top="0"
     fit-margin-left="0"
     fit-margin-right="0"
     fit-margin-bottom="0"
     inkscape:window-width="1615"
     inkscape:window-height="1026"
     inkscape:window-x="1431"
     inkscape:window-y="24"
     inkscape:window-maximized="1" />
  <metadata
     id="metadata7">
    <rdf:RDF>
      <cc:Work
         rdf:about="">
        <dc:format>image/svg+xml</dc:format>
        <dc:type
           rdf:resource="http://purl.org/dc/dcmitype/StillImage" />
        <dc:title />
      </cc:Work>
    </rdf:RDF>
  </metadata>
  <g
     inkscape:label="Layer 1"
     inkscape:groupmode="layer"
     id="layer1"
     transform="translate(9.116098,-154.86185)">
    <g
       id="g4359"
       transform="translate(-225.37346,9.1989168)">
      <path
         d="m 429.91187,203.77834 c 2.14686,5.08484 3.87132,10.35001 4.92758,15.74614 1.05786,5.39076 1.38419,10.92107 0.81419,16.35585 -0.56945,5.4337 -2.05508,10.75845 -4.41125,15.68549 -1.17165,2.46674 -2.55852,4.83204 -4.10963,7.08624 -0.38697,0.56463 -0.78736,1.12013 -1.1958,1.66919 -0.40683,0.54852 -0.81795,1.07826 -1.2586,1.63107 -0.84693,1.05948 -1.74754,2.09963 -2.68089,3.09685 -3.74466,3.99852 -8.0577,7.47858 -12.7035,10.42783 -4.64366,2.96052 -9.58948,5.44712 -14.70223,7.51186 -10.23515,4.12036 -21.12671,6.58227 -32.11594,7.46356 -5.49543,0.4385 -11.02144,0.47285 -16.51418,0.0934 -1.38097,-0.0939 -2.73081,-0.21576 -4.11929,-0.36282 -1.35252,-0.14652 -2.72114,-0.32471 -4.07366,-0.5335 -2.70505,-0.42078 -5.39399,-0.96823 -8.03999,-1.65737 -5.28128,-1.38526 -10.42837,-3.30241 -15.21587,-5.8679 -4.79286,-2.55852 -9.23686,-5.75359 -13.069,-9.55568 -3.83215,-3.79672 -7.05244,-8.20315 -9.39788,-13.03251 -2.35081,-4.82453 -3.82141,-10.06608 -4.27762,-15.39888 -0.23615,-2.68894 -0.20395,-5.28879 0.19859,-7.90098 0.40253,-2.59824 1.13246,-5.14871 2.15759,-7.58915 1.01439,-2.44098 2.31324,-4.77622 3.83214,-6.96173 0.75677,-1.09328 1.57258,-2.14847 2.43669,-3.15803 0.42937,-0.50397 0.87484,-0.99668 1.32568,-1.47274 0.23079,-0.23777 0.46158,-0.47124 0.69237,-0.69827 0.22005,-0.21951 0.48304,-0.46426 0.67089,-0.62795 l 0.62259,-2.09534 -0.13418,-0.28392 c -1.5189,-3.29919 -2.34008,-7.00252 -2.56013,-10.68814 -0.21468,-3.69743 0.23079,-7.40989 1.25055,-10.93986 1.02512,-3.53105 2.68894,-6.8619 4.87337,-9.84013 2.16833,-2.99057 4.86263,-5.60116 7.81993,-7.89722 5.95217,-4.58838 13.04217,-7.75177 20.37907,-10.01993 0.91778,-0.285 1.84093,-0.55443 2.76944,-0.80937 l 1.3901,-0.37355 1.41156,-0.35692 c 1.85703,-0.45137 3.73016,-0.86411 5.6194,-1.18936 3.77633,-0.6623 7.60579,-1.04283 11.44705,-1.16037 15.35917,-0.41649 30.92712,3.21116 44.50708,10.65593 6.78247,3.71622 13.07115,8.37651 18.46621,13.93151 5.39345,5.54963 9.87717,11.99826 12.97079,19.12369 l -0.005,-0.007 z m 3.91426,-1.69173 c -1.64181,-3.75861 -3.67864,-7.41256 -5.99993,-10.80299 -2.32988,-3.40599 -4.95818,-6.58818 -7.81726,-9.52669 -5.72138,-5.87917 -12.35249,-10.77509 -19.47684,-14.66895 -7.13938,-3.87025 -14.73765,-6.84848 -22.59945,-8.77583 -3.92929,-0.9693 -7.92352,-1.65469 -11.94137,-2.12163 -4.01785,-0.47285 -8.06951,-0.6827 -12.12063,-0.60381 -4.05113,0.0773 -8.10118,0.43313 -12.10883,1.08954 -2.00194,0.32041 -3.98779,0.73905 -5.97363,1.18936 l -1.45987,0.34993 -1.47596,0.3757 c -0.97682,0.25441 -1.94828,0.52437 -2.91973,0.81098 -3.88582,1.13784 -7.71259,2.53759 -11.43739,4.24273 -3.73017,1.69709 -7.34763,3.73178 -10.71283,6.21999 -1.67455,1.25001 -3.29543,2.59233 -4.8358,4.0479 -1.52964,1.46309 -2.96804,3.04371 -4.27225,4.74778 -2.61917,3.40063 -4.69626,7.29664 -6.01121,11.46369 -1.29348,4.16867 -1.96438,8.56275 -1.8302,12.97401 0.0644,2.20429 0.3113,4.41072 0.76214,6.60159 0.45084,2.19087 1.05196,4.37745 1.96974,6.549 l 1.15394,-5.5652 -0.005,0.002 0.16102,0.1857 -0.28446,0.27104 -0.22542,0.22918 -0.42938,0.44494 c -0.27372,0.29573 -0.54208,0.58931 -0.7997,0.88504 -0.51525,0.59146 -1.00902,1.19097 -1.4867,1.79961 -0.94462,1.2178 -1.82483,2.47425 -2.64064,3.77203 -1.63161,2.59179 -3.03244,5.33494 -4.1005,8.21979 -1.06806,2.88001 -1.81409,5.89849 -2.15759,8.96045 -0.16638,1.53178 -0.24689,3.07216 -0.22006,4.6077 0.0107,0.76535 0.0537,1.53876 0.11271,2.2907 l 0.10735,1.11368 0.12881,1.11046 c 0.69773,5.92211 2.51719,11.66979 5.26517,16.87324 1.37399,2.60253 2.9734,5.07357 4.76066,7.38144 1.7819,2.31539 3.77847,4.44185 5.87166,6.44863 2.09856,1.99765 4.35276,3.82034 6.71967,5.46805 2.36692,1.64879 4.8519,3.10704 7.3852,4.4499 2.54403,1.33052 5.16856,2.48929 7.85214,3.4865 1.33642,0.50291 2.69431,0.94784 4.05219,1.38634 1.35789,0.44171 2.73188,0.8421 4.11124,1.20922 2.75871,0.731 5.555,1.31226 8.36738,1.76149 1.41156,0.23401 2.81239,0.45138 4.24005,0.63064 1.38419,0.17497 2.82366,0.33277 4.23146,0.45568 1.41693,0.12666 2.83654,0.22273 4.2583,0.29895 1.42068,0.0918 2.84405,0.15403 4.2701,0.1916 2.85049,0.0816 5.70474,0.0301 8.56329,-0.0762 5.71547,-0.22327 11.43363,-0.86304 17.09973,-1.92198 2.83278,-0.53081 5.65161,-1.17057 8.44896,-1.92036 2.79629,-0.75248 5.57916,-1.59834 8.30781,-2.61702 2.73349,-1.00634 5.43317,-2.12915 8.08776,-3.37862 2.64815,-1.26343 5.23243,-2.68036 7.75982,-4.22019 5.06713,-3.05928 9.79344,-6.8093 13.96532,-11.22969 1.02889,-1.13139 1.99283,-2.27352 2.95945,-3.51709 l 0.65318,-0.8566 c 0.2324,-0.3129 0.47821,-0.63493 0.69236,-0.93871 0.44333,-0.61454 0.87914,-1.23498 1.29778,-1.8683 1.65576,-2.54564 3.13495,-5.22278 4.37369,-8.0153 2.49143,-5.57701 4.01033,-11.60163 4.44883,-17.63645 0.48465,-6.04288 -0.19698,-12.05194 -1.49529,-17.78298 -1.34286,-5.73211 -3.24337,-11.24471 -5.58398,-16.51203 l -0.0166,-0.0397"
         style="fill:#050301;fill-opacity:1;fill-rule:nonzero;stroke:none"
         id="path17568"
         inkscape:connector-curvature="0" />
      <path
         d="m 279.6662,327.32907 c 1.1915,-5.77827 2.80701,-11.38103 4.58354,-16.91939 1.78726,-5.53461 3.76774,-10.99192 5.8985,-16.38698 2.13612,-5.39291 4.42253,-10.7241 6.92362,-15.96512 1.20761,-2.5231 2.40985,-5.0258 3.74627,-7.49254 l 2.00194,2.01644 c -1.09489,2.22951 -2.09318,4.40804 -3.09147,6.68961 -2.28641,5.24692 -4.36886,10.59153 -6.30104,15.98659 -1.9268,5.39559 -3.69259,10.84647 -5.26517,16.34189 -0.55282,1.94559 -1.08416,3.89763 -1.58331,5.85502 2.31324,-2.93314 4.72846,-5.77612 7.23492,-8.53054 5.01292,-5.50348 10.38543,-10.65272 16.06387,-15.42197 11.35152,-9.5342 23.92138,-17.56292 37.32423,-23.67341 -13.05935,6.81037 -25.0925,15.44075 -35.77312,25.42203 -5.34568,4.99306 -10.34786,10.32747 -14.95824,15.96405 -4.61038,5.63658 -8.82896,11.57747 -12.53766,17.7937 l -6.25273,10.50083 1.98585,-12.18021"
         style="fill:#050301;fill-opacity:1;fill-rule:nonzero;stroke:none"
         id="path17574"
         inkscape:connector-curvature="0" />
      <path
         d="m 399.04499,152.59243 c 5.59526,1.61713 11.0193,3.85254 16.07676,6.74812 5.05746,2.89021 9.73976,6.4395 13.87623,10.54269 4.14021,4.09943 7.73137,8.74577 10.71014,13.75117 2.98199,5.00648 5.3548,10.36718 7.14206,15.91091 0.022,-1.53715 -0.0666,-3.06625 -0.2705,-4.57227 -0.19322,-1.50978 -0.4766,-3.00561 -0.83405,-4.48748 -0.71598,-2.96105 -1.73574,-5.85824 -3.03405,-8.63896 -2.5596,-5.58452 -6.25649,-10.68492 -10.70263,-15.00171 -4.44454,-4.32163 -9.64799,-7.86663 -15.26686,-10.33713 -5.62423,-2.44849 -11.629,-3.91695 -17.6971,-3.91534"
         style="fill:#050301;fill-opacity:1;fill-rule:nonzero;stroke:none"
         id="path17576"
         inkscape:connector-curvature="0" />
      <path
         d="m 420.35633,148.27349 c 3.8563,1.51139 7.59881,3.33622 11.09121,5.56949 3.49133,2.2279 6.72719,4.87069 9.54226,7.91279 2.82097,3.03673 5.20506,6.47063 7.12596,10.14122 1.92519,3.67113 3.39311,7.5709 4.50787,11.5603 0.14759,-2.19462 -0.10627,-4.33289 -0.46212,-6.47439 -0.39233,-2.12861 -0.99882,-4.22716 -1.81194,-6.25648 -1.59673,-4.07313 -4.0522,-7.85697 -7.09537,-11.06706 -3.03996,-3.21868 -6.64722,-5.86737 -10.53894,-7.80008 -3.90406,-1.91714 -8.05931,-3.20204 -12.35893,-3.58579"
         style="fill:#050301;fill-opacity:1;fill-rule:nonzero;stroke:none"
         id="path17578"
         inkscape:connector-curvature="0" />
      <path
         inkscape:connector-curvature="0"
         id="path3848"
         d="m 297.84514,304.31097 c 4.92983,-5.12746 13.56544,-12.76687 19.19026,-16.97644 10.09853,-7.55769 30.10803,-19.03665 30.10803,-17.27225 0,0.50021 -1.21537,1.46324 -2.70083,2.14005 -1.48545,0.67682 -6.50136,3.7079 -11.14645,6.73572 -6.67131,4.34858 -8.11313,5.69123 -6.86294,6.39086 3.73703,2.09135 16.60633,3.88922 27.83934,3.88922 35.43295,0 66.03631,-15.66086 77.28966,-39.55195 3.57566,-7.59121 3.65233,-8.00614 3.64122,-19.70559 -0.01,-10.348 -0.37696,-13.04849 -2.73695,-20.13214 -11.99909,-36.01599 -56.28814,-57.65841 -96.17368,-46.99652 -17.10989,4.57367 -29.4483,12.97688 -34.65795,23.60413 -2.31341,4.71919 -2.77782,6.9422 -2.7469,13.14881 0.0205,4.1082 0.40949,9.12808 0.8645,11.15531 0.72841,3.24546 0.47149,4.13793 -2.15037,7.46943 -4.13487,5.25406 -6.78521,10.82746 -8.10115,17.03585 -2.06213,9.72885 2.554,24.31329 10.46801,33.07315 l 3.54789,3.9271 -3.93722,9.23315 c -4.01493,9.41543 -11.68823,31.60951 -11.05003,31.96087 0.19373,0.10664 4.38573,-4.0013 9.31556,-9.12876 l 0,0 z"
         style="fill:#f9f9f9" />
    </g>
  </g>
</svg>
