<?xml version="1.0" encoding="UTF-8" standalone="no"?>
<!-- Created with Inkscape (http://www.inkscape.org/) -->

<svg
   xmlns:dc="http://purl.org/dc/elements/1.1/"
   xmlns:cc="http://creativecommons.org/ns#"
   xmlns:rdf="http://www.w3.org/1999/02/22-rdf-syntax-ns#"
   xmlns:svg="http://www.w3.org/2000/svg"
   xmlns="http://www.w3.org/2000/svg"
   xmlns:sodipodi="http://sodipodi.sourceforge.net/DTD/sodipodi-0.dtd"
   xmlns:inkscape="http://www.inkscape.org/namespaces/inkscape"
   width="250"
   height="436.71753"
   id="svg2"
   version="1.1"
   inkscape:version="0.48.4 r9939"
   sodipodi:docname="New document 1">
  <defs
     id="defs4" />
  <sodipodi:namedview
     id="base"
     pagecolor="#ffffff"
     bordercolor="#666666"
     borderopacity="1.0"
     inkscape:pageopacity="0.0"
     inkscape:pageshadow="2"
     inkscape:zoom="0.35"
     inkscape:cx="546.92184"
     inkscape:cy="-230.52524"
     inkscape:document-units="px"
     inkscape:current-layer="layer1"
     showgrid="false"
     fit-margin-top="0"
     fit-margin-left="0"
     fit-margin-right="0"
     fit-margin-bottom="0"
     inkscape:window-width="1615"
     inkscape:window-height="1026"
     inkscape:window-x="1431"
     inkscape:window-y="24"
     inkscape:window-maximized="1" />
  <metadata
     id="metadata7">
    <rdf:RDF>
      <cc:Work
         rdf:about="">
        <dc:format>image/svg+xml</dc:format>
        <dc:type
           rdf:resource="http://purl.org/dc/dcmitype/StillImage" />
        <dc:title></dc:title>
      </cc:Work>
    </rdf:RDF>
  </metadata>
  <g
     inkscape:label="Layer 1"
     inkscape:groupmode="layer"
     id="layer1"
     transform="translate(137.63612,106.30918)">
    <g
       transform="matrix(1.3557633,0,0,1.3557633,-1157.2205,-357.16906)"
       id="g3299">
      <path
         inkscape:connector-curvature="0"
         d="m 828.65218,367.82157 c 3.7175,-0.16125 4.40125,-3.8525 4.19625,-8.55375 -0.2075,-4.70375 -1.2125,-8.31875 -4.93125,-8.155 -3.71625,0.16375 -4.4025,3.8525 -4.1975,8.555 0.20875,4.7025 1.21375,8.3175 4.9325,8.15375"
         style="fill:#3d464c;fill-opacity:1;fill-rule:nonzero;stroke:none"
         id="path3007" />
      <path
         inkscape:connector-curvature="0"
         d="m 786.40093,352.93407 c -3.71875,0.16375 -4.40375,3.8525 -4.19875,8.5575 0.2075,4.7025 1.2125,8.3175 4.93125,8.15375 3.71625,-0.16375 4.40375,-3.8525 4.19875,-8.55625 -0.2075,-4.7025 -1.215,-8.31625 -4.93125,-8.155"
         style="fill:#3d464c;fill-opacity:1;fill-rule:nonzero;stroke:none"
         id="path3009" />
      <path
         inkscape:connector-curvature="0"
         d="m 894.20843,347.41282 c -2.1775,-0.7625 -4.6625,-1.15125 -7.39,-1.15125 -3.935,0 -7.33875,0.79625 -8.845,1.21125 l -3.09125,-11.37625 c -0.0687,-0.245 -0.24625,-0.4475 -0.48375,-0.54 -0.77625,-0.31 -1.61625,-0.46625 -2.4975,-0.46625 -2.96125,0 -5.4725,1.7525 -5.5775,1.82625 -0.2425,0.1725 -0.37375,0.46375 -0.3375,0.7575 l 2.15125,18.73 c 2.18,10.42625 7.98,13.13875 9.38625,13.6525 0.0225,4.63 -0.575,9.15 -2.06,13.335 -1.81625,5.1975 -5.04875,9.8625 -9.52375,13.5875 -4.45625,3.74125 -10.03,6.52125 -16.00125,8.41125 -2.99,0.94875 -6.08375,1.685 -9.23125,2.22125 -2.51625,0.42625 -5.12375,0.735 -7.65625,0.87875 -0.6,-1.305 -1.39625,-2.52625 -2.41875,-3.6325 18.67125,-6.1275 22.72625,-18.90875 22.24625,-29.8725 l -0.42,-9.54875 c 13.725,-19.89125 3.5375,-51.3275 0.23125,-58.095 -3.34875,-6.86 -7.22125,-9.805 -14.3775,-11.12125 -23.38375,-4.29875 -63.90625,2.965 -75.815,9.1275 -6.42625,3.32625 -10.935,10.92375 -10.42,33.45125 0.39375,17.22125 6.58,26.4225 9.47625,29.80625 l 0.45375,10.36625 c 0.4975,11.35125 6.0975,24.54125 28.0075,28.405 -0.1325,0.22125 -0.25375,0.4475 -0.37375,0.675 -0.0437,0.0175 -0.095,0.0337 -0.14,0.0512 -0.34875,0.14375 -0.67625,0.2975 -0.98875,0.46125 -0.6225,0.33 -1.19125,0.69625 -1.7275,1.0875 -1.0725,0.785 -2.0125,1.66625 -2.86375,2.59375 -1.7075,1.86125 -3.04,3.8775 -4.24625,5.9575 -2.3925,4.175 -4.63375,8.50875 -6.13,12.89625 -2.6275,7.825 -4.5775,16.125 -5.535,24.1475 -0.11,0.0813 -0.205,0.18125 -0.26375,0.3075 -0.14375,0.31 -3.49125,7.7125 0.0125,16.92125 0.0763,0.2025 0.2325,0.36625 0.43,0.455 0.25375,0.11125 6.29875,2.74625 13.4025,2.74625 0.46375,0 0.8275,-0.36375 0.8275,-0.81375 0,-0.075 -0.009,-0.14875 -0.0263,-0.21625 -0.0513,-0.7425 -0.25375,-3.975 -0.21,-7.2225 l 0.3275,0.77625 c 0.12625,0.30375 0.4225,0.50125 0.74625,0.50125 0.115,0 2.80375,-0.02 4.25125,-1.685 0.15875,-0.18 0.22625,-0.4175 0.1925,-0.65375 -0.0363,-0.245 -0.9325,-6.0575 -3.82125,-11.075 -0.0675,-0.12125 -0.175,-0.2125 -0.295,-0.2825 -0.7075,-7.29 -0.5025,-14.43125 0.25875,-21.5575 0.45,-4.075 1.6925,-8.29875 2.86625,-12.06375 0.2975,-0.9475 0.63,-1.91125 1.00125,-2.81 l -1.84375,28.47 c 0,6.57125 4.1775,7.82625 10.1425,8.03875 -0.2575,2.27125 -0.48875,4.53625 -0.70375,6.81375 -0.4175,4.45875 -0.75625,8.92375 -1.025,13.39625 -0.4425,7.45625 -0.67125,14.93875 -0.68875,22.43875 -4.7875,2.21 -4.2775,7.295 -4.09,9.00625 0.0275,0.2325 0.25,0.41375 0.48125,0.41375 l 17.26875,0 c 0.22875,0 0.44375,-0.18625 0.46375,-0.415 0.14125,-1.485 0.64625,-6.41625 -3.1525,-8.775 -0.805,-7.5 -1.39125,-15.04375 -1.75,-22.6125 -0.2075,-4.3825 -0.34375,-8.77125 -0.4025,-13.16375 -0.0325,-2.35375 -0.0425,-4.71875 -0.0225,-7.075 0.0825,0 0.16625,-0.003 0.25125,-0.003 l 17.16375,0 c 0.0825,0 0.1675,0.003 0.25125,0.003 0.0175,2.35625 0.007,4.72125 -0.0225,7.075 -0.0587,4.3925 -0.195,8.78125 -0.4025,13.16375 -0.36125,7.595 -0.9525,15.16875 -1.76,22.6925 -2.46625,2.38375 -2.86375,7.195 -2.7175,8.695 0.02,0.22875 0.235,0.415 0.46375,0.415 l 26.71375,0 c 0.2325,0 0.45375,-0.18125 0.47875,-0.41375 0.21,-1.87625 -0.68875,-8.66375 -13.96,-9.93125 -0.0312,-7.1925 -0.26375,-14.3625 -0.68875,-21.51375 -0.26625,-4.4725 -0.6075,-8.9375 -1.025,-13.39625 -0.215,-2.2775 -0.445,-4.5425 -0.70375,-6.81375 5.965,-0.2125 10.1425,-1.4675 10.1425,-8.03875 l -2.0025,-30.93125 c 0,-0.7975 -0.0412,-1.58625 -0.12375,-2.3625 2.29,0.14625 4.5525,0.1825 6.855,0.13125 3.46125,-0.09 6.93875,-0.4025 10.41,-0.9775 6.92375,-1.15375 13.92375,-3.36125 20.33,-7.3 3.1925,-1.96375 6.20625,-4.37125 8.865,-7.19125 2.6575,-2.815 4.94625,-6.035 6.7675,-9.4825 3.55625,-6.70875 5.2925,-14.1175 5.92,-21.34 0.0413,-0.0412 0.085,-0.0813 0.1175,-0.13 6.845,-10.2875 0.97125,-19.62875 0.9125,-19.72125 -0.1,-0.1525 -0.24625,-0.26625 -0.415,-0.32625 z M 786.02218,466.20157 c -0.67375,0.56125 -1.645,0.76125 -2.24125,0.835 l -1.48375,-3.5425 c -0.14375,-0.345 -0.50375,-0.5475 -0.87125,-0.49125 -0.36625,0.0562 -0.65,0.35375 -0.68625,0.725 -0.3525,3.58625 -0.1325,8.3525 -0.0175,10.3075 -5.515,-0.175 -10.325,-1.965 -11.565,-2.4625 -2.6575,-7.3175 -0.66125,-13.4725 -0.0825,-14.98125 2.68,-0.62 5.2825,-0.935 7.74375,-0.935 3.09875,0 5.115,0.50625 5.80625,0.71375 2.20125,3.955 3.14875,8.47875 3.3975,9.83125 z m -21.57875,-87.33625 -1.42375,-32.415 c 0.2925,-12.1075 0.96375,-18.60125 0.96375,-18.60125 0,0 3.22625,3.18375 12.9625,3.23 20.825,0.1 65.76125,-13.21375 65.76125,-13.21375 2.8025,6.155 4.75125,13.28 6.10875,20.14 l 1.6275,37.085 c 0.8425,19.2 -13.06875,29.57875 -41.3425,30.8475 -1.73125,0.0788 -3.4375,0.11875 -5.06875,0.11875 -25.4775,0 -38.7975,-9.14875 -39.58875,-27.19125 z m 128.05375,-12.5175 c -1.0575,0.39375 -5.92,2.02625 -14.33875,2.20875 -0.8,-0.27625 -6.35,-2.52625 -8.4175,-12.4125 l -2.0825,-18.1475 c 0.74,-0.43375 2.42125,-1.2825 4.2425,-1.2825 0.535,0 1.045,0.0725 1.52375,0.22125 l 3.19875,11.765 c 0.0587,0.215 0.2025,0.39625 0.3975,0.50375 0.195,0.105 0.4275,0.12375 0.64,0.055 0.0413,-0.0138 4.22125,-1.37125 9.1575,-1.37125 2.42625,0 4.63625,0.325 6.575,0.965 0.79375,1.4075 4.585,9.0375 -0.89625,17.495"
         style="fill:#3d464c;fill-opacity:1;fill-rule:nonzero;stroke:none"
         id="path3011" />
      <path
         inkscape:connector-curvature="0"
         d="m 888.30093,357.05032 c -0.0425,-0.65375 -0.15625,-1.29375 -0.3275,-1.90625 -0.17125,-0.61375 -0.39625,-1.205 -0.66875,-1.7675 -0.27625,-0.56375 -0.58875,-1.1025 -0.9675,-1.5975 l -0.1125,0.0738 c 0.27375,0.54 0.48125,1.11375 0.6475,1.6875 0.16125,0.5775 0.27375,1.16625 0.3275,1.74875 0.0562,0.5875 0.0562,1.16875 -0.01,1.74 -0.0537,0.49 -0.16125,0.9675 -0.3075,1.425 l -2.89125,0.25375 -0.76125,-0.095 -1.7575,-0.2225 -1.20875,-5.52 -0.1375,0.0125 -0.195,5.32 -6.68875,-0.83625 8.73,2.72875 c -0.0537,0.24375 -0.1,0.485 -0.14875,0.73 -0.09,0.5075 -0.17875,1.01625 -0.24875,1.525 -0.0738,0.51125 -0.1425,1.02375 -0.2025,1.535 -0.045,0.39375 -0.0838,0.79 -0.115,1.185 l -4.8875,1.44 5.59,-0.33375 0.3525,-0.02 0.1575,-0.48125 c 0.16375,-0.4925 0.31125,-0.9875 0.45,-1.48375 0.13625,-0.5 0.27375,-0.99875 0.3925,-1.4975 0.13,-0.5025 0.24,-1.0025 0.3475,-1.5075 0.0775,-0.38125 0.15125,-0.7625 0.2125,-1.15 l 10.3775,-2.0825 -0.0187,-0.135 -5.945,0.51625 c 0.0363,-0.4325 0.0438,-0.865 0.015,-1.285"
         style="fill:#3d464c;fill-opacity:1;fill-rule:nonzero;stroke:none"
         id="path3013" />
      <path
         inkscape:connector-curvature="0"
         d="m 861.84718,298.82282 c 0,-1.35625 -1.0975,-2.4575 -2.455,-2.4575 -1.3575,0 -2.45625,1.10125 -2.45625,2.4575 0,1.3575 1.09875,2.4575 2.45625,2.4575 1.3575,0 2.455,-1.1 2.455,-2.4575"
         style="fill:#3d464c;fill-opacity:1;fill-rule:nonzero;stroke:none"
         id="path3015" />
      <path
         inkscape:connector-curvature="0"
         d="m 862.98843,288.60282 c 0.10875,2.6 2.30375,4.62 4.90125,4.51 1.915,-0.0812 3.50875,-1.29375 4.175,-2.96375 0.865,0.22625 1.7725,0.33 2.7125,0.2925 5.025,-0.2125 8.92625,-4.4575 8.71375,-9.48375 -0.21,-5.0225 -4.45375,-8.9275 -9.48,-8.715 -5.0275,0.21 -8.92875,4.45625 -8.71875,9.48125 0.0375,0.83875 0.19375,1.64125 0.4375,2.4025 -1.685,0.775 -2.825,2.50875 -2.74125,4.47625"
         style="fill:#3d464c;fill-opacity:1;fill-rule:nonzero;stroke:none"
         id="path3017" />
      <path
         inkscape:connector-curvature="0"
         d="m 930.81968,223.54157 c -0.7225,-1.06375 -1.50125,-2.0675 -2.32375,-3.0175 0.0825,-0.8175 0.12625,-1.6475 0.12625,-2.485 0,-13.70125 -11.105,-24.80625 -24.80375,-24.80625 -0.60375,0 -1.19625,0.0312 -1.7925,0.0725 -7.915,-9.08125 -21.5425,-11.03875 -31.77,-4.11125 -2.8075,1.90125 -5.085,4.2925 -6.80375,6.9775 -1.875,-0.45625 -3.83125,-0.7025 -5.845,-0.7025 -13.655,0 -24.72375,11.06875 -24.72375,24.725 0,7.6025 3.435,14.4 8.835,18.93625 -1.01125,6.13125 0.23,12.64625 3.99125,18.1975 7.69625,11.35875 23.0425,14.43 34.505,7.00875 10.79125,11.34625 28.50375,13.57125 41.89625,4.49875 14.91,-10.1025 18.81125,-30.38125 8.70875,-45.29375"
         style="fill:#3d464c;fill-opacity:1;fill-rule:nonzero;stroke:none"
         id="path3019" />
      <path
         inkscape:connector-curvature="0"
         d="m 810.37093,392.13782 c 4.5475,-0.3675 8.08375,-2.53 7.8975,-4.83125 -0.1875,-2.30125 -4.0275,-3.865 -8.57625,-3.49625 -4.55375,0.36875 -8.08875,2.5325 -7.9,4.8325 0.1875,2.30125 4.0275,3.86625 8.57875,3.495"
         style="fill:#3d464c;fill-opacity:1;fill-rule:nonzero;stroke:none"
         id="path3021" />
    </g>
  </g>
</svg>
