<?xml version="1.0" encoding="UTF-8" standalone="no"?>
<!-- Created with Inkscape (http://www.inkscape.org/) -->

<svg
   xmlns:dc="http://purl.org/dc/elements/1.1/"
   xmlns:cc="http://creativecommons.org/ns#"
   xmlns:rdf="http://www.w3.org/1999/02/22-rdf-syntax-ns#"
   xmlns:svg="http://www.w3.org/2000/svg"
   xmlns="http://www.w3.org/2000/svg"
   xmlns:sodipodi="http://sodipodi.sourceforge.net/DTD/sodipodi-0.dtd"
   xmlns:inkscape="http://www.inkscape.org/namespaces/inkscape"
   width="250"
   height="185.88684"
   id="svg2"
   version="1.1"
   inkscape:version="0.48.4 r9939"
   sodipodi:docname="drawing9.svg">
  <defs
     id="defs4" />
  <sodipodi:namedview
     id="base"
     pagecolor="#888888"
     bordercolor="#666666"
     borderopacity="1.0"
     inkscape:pageopacity="1"
     inkscape:pageshadow="2"
     inkscape:zoom="1.8756036"
     inkscape:cx="313.9308"
     inkscape:cy="112.80517"
     inkscape:document-units="px"
     inkscape:current-layer="layer1"
     showgrid="false"
     fit-margin-top="0"
     fit-margin-left="0"
     fit-margin-right="0"
     fit-margin-bottom="0"
     inkscape:window-width="1615"
     inkscape:window-height="1026"
     inkscape:window-x="1431"
     inkscape:window-y="24"
     inkscape:window-maximized="1" />
  <metadata
     id="metadata7">
    <rdf:RDF>
      <cc:Work
         rdf:about="">
        <dc:format>image/svg+xml</dc:format>
        <dc:type
           rdf:resource="http://purl.org/dc/dcmitype/StillImage" />
        <dc:title></dc:title>
      </cc:Work>
    </rdf:RDF>
  </metadata>
  <g
     inkscape:label="Layer 1"
     inkscape:groupmode="layer"
     id="layer1"
     transform="translate(18.05229,-238.36174)">
    <g
       id="g4500"
       transform="matrix(-1,0,0,1,480.64528,21.859629)">
      <path
         d="m 271.79817,249.74168 c 0.4575,-3.31435 1.39569,-6.57177 2.83896,-9.59332 1.4392,-3.02562 3.38267,-5.80724 5.73851,-8.19032 2.35339,-2.38308 5.11549,-4.35543 8.11549,-5.84384 3,-1.48841 6.23505,-2.48881 9.54005,-3.02155 -1.74745,-0.305 -3.50386,-0.23994 -5.26311,-0.0488 -1.75193,0.2196 -3.48922,0.65474 -5.16185,1.28914 -3.35787,1.24441 -6.44408,3.31029 -8.96259,5.91297 -2.52419,2.59862 -4.48922,5.7381 -5.68401,9.10126 -0.59496,1.68361 -1.00773,3.42009 -1.20659,5.1647 -0.18869,1.74868 -0.22611,3.50142 0.0451,5.22976"
         style="fill:#050301;fill-opacity:1;fill-rule:nonzero;stroke:none"
         id="path17616"
         inkscape:connector-curvature="0" />
      <path
         d="m 271.995,295.2801 c 0.13095,3.68158 1.17975,7.31639 2.97804,10.54941 0.88125,1.62667 1.96014,3.15412 3.20618,4.53843 0.62179,0.69296 1.29077,1.34363 1.9882,1.96665 0.69175,0.62708 1.42335,1.21553 2.1891,1.75844 1.54006,1.09394 3.21594,2.00528 4.98374,2.72183 0.66002,-1.7503 1.5429,-3.39324 2.71329,-4.79463 -0.46441,1.83123 -0.77918,3.64539 -0.89223,5.4514 -0.0403,0.64417 -0.0557,1.28671 -0.0415,1.92924 10e-4,0.40423 0.0171,0.81009 0.0403,1.21513 0.0439,0.79626 0.12729,1.58926 0.25946,2.3656 0.19154,1.17486 0.44123,2.33062 0.80561,3.44814 0.17974,0.55918 0.38389,1.10777 0.60512,1.64742 0.21106,0.54372 0.44246,1.07727 0.69785,1.59984 0.50833,1.04433 1.10288,2.0427 1.77389,2.98088 1.2932,1.91054 2.90239,3.59049 4.72061,4.98618 0.89671,0.7137 1.85441,1.35176 2.85848,1.90605 1.00163,0.56202 2.06263,1.00326 3.13339,1.42375 2.1529,0.82636 4.46075,1.24157 6.79503,1.39732 1.84506,0.098 3.71005,-0.0333 5.56243,-0.37861 1.09597,-0.20415 2.18747,-0.4815 3.26677,-0.83489 0.34119,0.65636 0.71126,1.29321 1.09475,1.91988 0.18422,0.30094 0.36438,0.60309 0.55836,0.8959 0.29971,0.45181 0.62098,0.88694 0.94022,1.32086 0.31639,0.43554 0.64335,0.86254 0.98455,1.27735 0.68117,0.82879 1.41276,1.61366 2.18747,2.34688 1.50264,1.51484 3.20415,2.81333 5.00894,3.92435 0.8959,0.56852 1.82798,1.08011 2.78976,1.53152 0.95973,0.45547 1.95607,0.82513 2.95526,1.19316 2.00895,0.7194 4.11997,1.14356 6.26393,1.42457 2.69947,0.31476 5.45669,0.25701 8.23261,-0.14681 -0.01,-0.92029 -0.0382,-1.84262 -0.10004,-2.76454 -0.31151,-4.6897 -1.29443,-9.36883 -2.77999,-13.90482 1.90362,4.37129 3.34445,8.97763 4.11834,13.73565 0.14436,0.88288 0.25823,1.77186 0.35543,2.66409 0.0663,0.60756 0.122,1.21635 0.16633,1.82716 0.24115,3.3168 0.15982,6.6706 -0.2924,9.99431 -0.64945,4.83245 -2.05083,9.58519 -4.11753,14.05042 -1.03294,2.23302 -2.22854,4.39609 -3.58275,6.46767 -0.26759,0.40911 -0.54616,0.81089 -0.82636,1.21187 4.81741,-1.18666 9.51769,-2.8414 13.97275,-5.03822 6.18178,-3.03701 11.86255,-7.13339 16.6828,-12.12648 2.36071,-2.43879 4.51403,-5.08499 6.4514,-7.89101 1.04067,-1.50711 2.01992,-3.05977 2.93412,-4.6531 0.86336,-1.50509 1.67019,-3.04596 2.41765,-4.6157 1.50711,-3.16226 2.78283,-6.44244 3.8174,-9.80316 0.51647,-1.67995 0.97316,-3.38105 1.36194,-5.09841 0.38348,-1.71777 0.71736,-3.45059 0.91581,-5.20455 -0.0862,1.76453 -0.31028,3.52216 -0.58519,5.27084 -0.2802,1.74827 -0.63034,3.48841 -1.04311,5.21431 -0.82716,3.45342 -1.90524,6.85643 -3.23505,10.17119 -0.65515,1.63603 -1.37373,3.25051 -2.15454,4.83815 0.55714,0.26515 1.11997,0.51769 1.69419,0.74095 1.7194,0.67832 3.51281,1.13705 5.32533,1.45506 1.81497,0.31476 3.66409,0.44124 5.5002,0.3656 1.83774,-0.0667 3.65881,-0.35869 5.44124,-0.79342 1.78406,-0.4331 3.52338,-1.0614 5.17974,-1.86864 0.82758,-0.40342 1.6336,-0.85279 2.41643,-1.34079 0.79057,-0.4758 1.55755,-0.9939 2.29565,-1.55185 1.47906,-1.11631 2.83123,-2.40219 4.05734,-3.80602 1.23953,-1.39284 2.33713,-2.92558 3.25905,-4.56811 0.39813,-0.70393 0.76698,-1.42903 1.11143,-2.16754 0.45668,-0.97926 0.86579,-1.98576 1.19886,-3.02318 0.14802,-0.4453 0.28466,-0.89508 0.41073,-1.34851 0.67507,0.46319 1.38105,0.87149 2.11428,1.20659 0.2318,0.11508 0.4697,0.21512 0.70719,0.31557 2.25864,0.95039 4.75397,1.2497 7.12932,1.00041 1.31639,-0.14884 2.61123,-0.4632 3.83083,-0.97316 1.22895,-0.48434 2.38836,-1.1525 3.42781,-1.9756 1.04026,-0.82269 1.95933,-1.79992 2.71655,-2.8902 0.77475,-1.07767 1.40586,-2.26515 1.84258,-3.53233 0.22001,-0.63156 0.3917,-1.28304 0.51834,-1.9455 0.0291,-0.16593 0.0607,-0.33144 0.0839,-0.49899 l 0.0194,-0.12525 0.005,-0.0313 c 0.003,-0.0281 -10e-4,0.0211 -3.3e-4,0.009 l 0.002,-0.0171 0.009,-0.0724 0.0351,-0.28752 c 0.0307,-0.30947 0.0664,-0.64904 0.0887,-0.98861 0.0289,-0.45588 0.0264,-0.91379 0.01,-1.3717 -0.031,-0.85603 -0.1379,-1.71126 -0.32977,-2.55469 0.0438,-0.004 0.0883,-0.007 0.13217,-0.0118 0.57902,-0.0537 1.15551,-0.12444 1.72818,-0.21512 0.83811,-0.1342 1.66828,-0.30582 2.48768,-0.51119 3.65335,-0.91378 7.09048,-2.51403 10.06775,-4.71492 1.83542,-1.32411 3.5015,-2.8719 4.94502,-4.59618 0.36108,-0.43147 0.70752,-0.87352 1.0427,-1.3237 0.34026,-0.44571 0.66673,-0.90159 0.97775,-1.36804 0.62351,-0.93168 1.18682,-1.9028 1.68751,-2.90362 1.01082,-1.99959 1.72884,-4.13176 2.23892,-6.30744 0.50277,-2.18056 0.73742,-4.42903 0.69309,-6.66327 -0.0403,-2.23912 -0.3765,-4.46767 -0.96076,-6.62953 -0.57299,-2.16673 -1.41935,-4.26596 -2.51594,-6.23261 -2.20602,-3.92029 -5.34278,-7.35949 -9.16579,-9.84465 -1.91375,-1.23261 -3.96629,-2.27409 -6.13803,-3.03294 -1.04603,-0.36722 -2.11736,-0.66734 -3.20504,-0.9089 -1.06002,-0.23546 -2.13595,-0.41237 -3.22078,-0.53762 -0.11106,-0.0126 -0.22175,-0.0281 -0.33314,-0.0399 -2.31533,-0.23546 -4.66547,-0.15494 -7.0026,0.14843 -2.4571,0.31761 -7.03863,1.48678 -7.03863,1.48678 2.05937,-1.30906 4.33346,-2.33428 6.72834,-3.02562 2.3904,-0.72143 4.90646,-1.06588 7.44046,-1.11834 0.12725,-0.004 0.25433,0 0.38142,-0.004 0.002,-0.1647 0,-0.3233 -0.003,-0.49126 -0.0119,-0.63928 -0.0575,-1.27572 -0.13692,-1.90565 -0.17349,-1.25661 -0.41033,-2.49654 -0.80574,-3.68808 -0.383,-1.19155 -0.91817,-2.32615 -1.51675,-3.41603 -0.60045,-1.08987 -1.31497,-2.11061 -2.12708,-3.05002 -0.40545,-0.46767 -0.83774,-0.91093 -1.29037,-1.33387 -0.45262,-0.42294 -0.90971,-0.83774 -1.39731,-1.22001 -0.9695,-0.7686 -2.02481,-1.42741 -3.13705,-1.97234 -0.55632,-0.27247 -1.12769,-0.51241 -1.71045,-0.72388 -0.57869,-0.22366 -1.16917,-0.41886 -1.77064,-0.57747 -1.19886,-0.32533 -2.45343,-0.5246 -3.70109,-0.58967 -1.25173,-0.0569 -2.5181,-0.0447 -3.7743,0.13827 -0.76088,0.10574 -1.51566,0.26434 -2.26189,0.4636 0.45994,2.44409 0.69865,4.91257 0.68645,7.36885 -0.0931,5.80724 -1.49247,11.5246 -4.23586,16.41439 1.55795,-5.33469 2.10329,-10.87149 1.44896,-16.23139 -0.305,-2.67588 -0.88491,-5.3111 -1.75071,-7.83651 -0.86499,-2.52542 -1.93982,-4.97357 -3.29077,-7.25092 -0.67222,-1.14274 -1.40504,-2.24074 -2.19398,-3.29808 -0.78528,-1.06141 -1.61244,-2.08622 -2.4998,-3.05816 -1.77185,-1.94388 -3.75437,-3.69255 -5.89792,-5.19723 -4.26352,-3.04595 -9.16348,-5.19723 -14.29605,-6.18951 -2.55755,-0.52867 -5.17284,-0.78487 -7.7865,-0.74827 -2.6161,0.0285 -5.22204,0.37414 -7.77755,0.94754 -2.55795,0.56934 -5.06262,1.42334 -7.45059,2.53355 -1.19357,0.55307 -2.35502,1.17934 -3.48759,1.85035 -1.13705,0.671 -2.23994,1.40301 -3.29972,2.19601 -2.12688,1.57788 -4.06018,3.41602 -5.82635,5.41683 -1.76779,2.00082 -3.31557,4.2131 -4.62749,6.56771 -2.66693,4.69703 -4.31598,10.00813 -4.93981,15.5307 -0.64376,-5.57137 0.29077,-11.38267 2.43595,-16.77511 0.25173,-0.61 0.52216,-1.21594 0.80724,-1.81781 -0.52989,-0.2684 -1.07198,-0.5002 -1.62586,-0.69133 -1.77918,-0.61407 -3.67833,-0.80114 -5.50265,-0.60594 -1.82391,0.2074 -3.59211,0.8174 -5.1407,1.80968 -1.5486,0.98414 -2.87515,2.33021 -3.83449,3.91622 -0.30866,0.51647 -0.58031,1.05327 -0.81374,1.61041 -0.1277,0.305 -0.24766,0.61407 -0.3477,0.93534 -0.21513,0.63034 -0.37414,1.29321 -0.47906,1.96015 -0.54128,-0.29281 -1.08987,-0.57747 -1.65108,-0.82554 -0.71655,-0.32127 -1.44652,-0.60594 -2.18462,-0.85807 -0.0521,-0.0203 -0.10615,-0.0366 -0.1582,-0.0529 -0.68361,-0.23994 -1.37617,-0.4514 -2.07523,-0.62627 -1.50671,-0.38227 -3.03782,-0.60594 -4.5852,-0.69947 -1.52663,-0.1098 -3.0732,-0.0813 -4.58845,0.10166 -3.03009,0.38227 -5.98861,1.25661 -8.67669,2.67589 -5.36844,2.83042 -9.695,7.58438 -11.90158,13.32655 -0.45588,1.13054 -0.82351,2.30581 -1.10452,3.5063 -0.072,0.30907 -0.14233,0.61773 -0.20292,0.93046 -0.0675,0.33794 -0.12729,0.67629 -0.18382,1.01586 -1.01057,0.146 -2.00732,0.35014 -2.98536,0.61854 -0.19927,0.0529 -0.39487,0.11672 -0.59333,0.17406 -1.65026,0.47702 -3.24603,1.10817 -4.74136,1.91094 -1.67303,0.90036 -3.25945,1.94225 -4.68035,3.17771 -5.72916,4.88491 -8.95608,12.33143 -8.53436,19.71492 z m -4.65596,-6.46604 c 0.46279,-2.19723 1.16674,-4.34933 2.15332,-6.36193 0.98495,-2.01139 2.19886,-3.90688 3.64741,-5.59537 0.72184,-0.84465 1.48231,-1.65351 2.30338,-2.39609 0.82228,-0.74014 1.68605,-1.42822 2.58438,-2.06182 0.89874,-0.63237 1.83164,-1.21065 2.79219,-1.72997 0.96096,-0.51972 1.94713,-0.98617 2.97031,-1.35502 2.01668,-0.74583 4.10248,-1.25701 6.20415,-1.49125 0.11671,-1.68809 0.39853,-3.3717 0.86295,-5.01871 0.98292,-3.50549 2.72468,-6.84018 5.10207,-9.65433 2.35665,-2.83855 5.33469,-5.1525 8.63359,-6.79951 3.2985,-1.65107 6.93819,-2.61081 10.59577,-2.80195 1.83123,-0.10167 3.6527,0.0122 5.45831,0.27654 1.77633,0.28873 3.54697,0.72793 5.22611,1.37047 0.59984,0.22774 1.18666,0.47987 1.76657,0.74421 0.18951,-0.52867 0.4022,-1.05328 0.65474,-1.56161 1.17161,-2.37088 2.9878,-4.44083 5.21187,-5.92517 2.21757,-1.48435 4.84465,-2.39935 7.51606,-2.54169 2.66857,-0.1708 5.3355,0.42701 7.6523,1.63481 0.64579,0.33347 1.25335,0.72794 1.82879,1.15901 0.47377,-0.77674 0.97112,-1.54534 1.49817,-2.29361 0.83977,-1.21188 1.78365,-2.35055 2.78284,-3.44449 0.99878,-1.08988 2.05896,-2.13095 3.17893,-3.10696 1.11671,-0.98413 2.29321,-1.90321 3.5185,-2.76128 1.22814,-0.84994 2.51932,-1.61041 3.84059,-2.31801 2.64497,-1.41115 5.46157,-2.49289 8.37169,-3.27776 2.91094,-0.7808 5.92355,-1.19561 8.9455,-1.30541 3.024,-0.0813 6.05694,0.183 9.02603,0.76454 2.96299,0.61407 5.85929,1.54128 8.61366,2.78162 2.74298,1.26474 5.36071,2.80602 7.74949,4.64416 2.38552,1.83815 4.57991,3.92436 6.47336,6.25051 0.94754,1.16307 1.84262,2.36681 2.64579,3.62749 0.79829,1.26067 1.52542,2.56608 2.17772,3.89996 0.6527,1.33794 1.22773,2.70435 1.72875,4.09516 0.22692,0.63033 0.43839,1.2688 0.63318,1.91134 0.76332,-0.3172 1.54778,-0.59374 2.35421,-0.81334 3.02196,-0.8052 6.25945,-0.92314 9.37901,-0.2928 0.78081,0.1586 1.55632,0.3538 2.31842,0.5978 0.75885,0.25214 1.50549,0.54087 2.23506,0.87434 1.46319,0.65474 2.84465,1.49248 4.11386,2.47255 2.55279,1.94795 4.62741,4.5059 6.03648,7.36885 0.70516,1.43147 1.22509,2.94835 1.58503,4.48963 0.33664,1.54941 0.51741,3.12728 0.48117,4.69377 -0.0139,0.96218 -0.10687,1.91704 -0.25969,2.85808 1.16742,0.14884 2.33025,0.36722 3.4797,0.65311 2.49451,0.62505 4.94388,1.55103 7.2063,2.84099 2.27036,1.27287 4.38996,2.83733 6.29211,4.64701 0.47434,0.45343 0.93835,0.91948 1.38443,1.40341 0.43924,0.48882 0.86527,0.99065 1.27368,1.50753 0.81956,1.0309 1.5741,2.11508 2.26161,3.24359 1.37426,2.25539 2.4691,4.69134 3.24669,7.23424 0.76584,2.54616 1.18064,5.20049 1.27531,7.86173 0.0504,1.33387 -0.007,2.66043 -0.13424,3.9943 -0.12692,1.31233 -0.33835,2.63807 -0.62891,3.93697 -0.57552,2.6039 -1.53071,5.12119 -2.75628,7.48597 -2.4996,4.70719 -6.22888,8.73647 -10.70557,11.50182 -1.10993,0.70435 -2.27942,1.30704 -3.46812,1.85035 -1.18983,0.5429 -2.41509,0.99918 -3.66307,1.366 -1.54502,0.47214 -3.12831,0.78609 -4.71814,0.97153 0.0704,0.53355 0.11993,1.07076 0.14441,1.60919 0.0221,0.45669 0.0225,0.91013 0,1.40911 l -0.0129,0.29036 -0.004,0.072 -0.009,0.11875 -0.0133,0.17202 c -0.0159,0.22936 -0.0408,0.45791 -0.0652,0.68687 -0.10581,0.91419 -0.27658,1.82676 -0.51724,2.72346 -0.50183,1.78772 -1.27068,3.51362 -2.28784,5.0854 -1.03046,1.5612 -2.28971,2.97641 -3.73721,4.17283 -1.45758,1.183 -3.09036,2.1521 -4.83294,2.86416 -1.75193,0.68402 -3.60553,1.12892 -5.48027,1.24563 -0.9386,0.0582 -1.87109,0.0439 -2.80724,-0.035 -0.91704,-0.0732 -1.84506,-0.25092 -2.74177,-0.47255 -1.05368,-0.25864 -2.07523,-0.62953 -3.05246,-1.08378 -0.83041,2.76658 -2.11549,5.43595 -3.81293,7.84709 -2.57706,3.64701 -6.03619,6.75234 -10.06587,8.86539 -1.99919,1.08622 -4.15006,1.88939 -6.3534,2.47947 -2.20699,0.58641 -4.488,0.87718 -6.76413,0.95201 -4.55551,0.11631 -9.11305,-0.80195 -13.23668,-2.6771 -0.74542,-0.33957 -1.47336,-0.71168 -2.18462,-1.11265 -1.82066,3.03741 -3.88817,5.94022 -6.20578,8.65717 -4.69662,5.52745 -10.42252,10.24441 -16.78812,13.88532 -6.36437,3.65311 -13.32533,6.24196 -20.45831,7.92395 l -10.21878,2.13908 c 0,0 8.0675,-7.77755 11.79056,-12.54331 1.38105,-1.76779 2.68605,-3.61773 3.83042,-5.5734 2.29076,-3.91297 4.02236,-8.19276 5.06994,-12.67913 0.66409,-2.82676 1.0488,-5.73363 1.1647,-8.6706 -2.61773,1.12241 -5.5006,1.75234 -8.41724,1.85807 -5.01504,0.18422 -10.17689,-1.17934 -14.52256,-3.88572 -1.09272,-0.66409 -2.11794,-1.43473 -3.1033,-2.24604 -0.976,-0.82309 -1.88165,-1.72509 -2.73363,-2.66937 -1.66897,-1.91948 -3.08011,-4.0553 -4.09678,-6.35501 -0.15535,-0.34282 -0.2989,-0.69053 -0.43717,-1.03985 -2.03294,0.85766 -4.23099,1.39812 -6.47702,1.59414 -1.39976,0.1098 -2.81497,0.11143 -4.22245,-0.0435 -1.41073,-0.13787 -2.81171,-0.42375 -4.18056,-0.83124 -2.74176,-0.8113 -5.33143,-2.16226 -7.59699,-3.92273 -1.1342,-0.87922 -2.17161,-1.878 -3.13013,-2.94062 -0.94388,-1.07686 -1.78934,-2.23628 -2.52542,-3.45751 -1.44855,-2.45506 -2.46197,-5.15941 -2.88938,-7.93615 -0.39162,-2.45994 -0.3534,-4.94794 0.10777,-7.33265 -0.0679,-0.0171 -0.13624,-0.0329 -0.20537,-0.0504 -1.05409,-0.2684 -2.08133,-0.6405 -3.08947,-1.06466 -1.00691,-0.42537 -1.99308,-0.91134 -2.94835,-1.45831 -0.95567,-0.54494 -1.88125,-1.15088 -2.77023,-1.81009 -0.88532,-0.66531 -1.72021,-1.39853 -2.51728,-2.17202 -1.59943,-1.54493 -2.98292,-3.31801 -4.15616,-5.22285 -1.16958,-1.90972 -2.08093,-3.97967 -2.75275,-6.12607 -0.64985,-2.15412 -1.03416,-4.39121 -1.14762,-6.63968 -0.0882,-2.25092 0.0805,-4.50346 0.5242,-6.70476"
         style="fill:#050301;fill-opacity:1;fill-rule:nonzero;stroke:none"
         id="path17620"
         inkscape:connector-curvature="0" />
      <path
         d="m 263.11253,267.37324 c 0.48637,-1.03986 1.09922,-2.01546 1.75722,-2.97926 0.6771,-0.94754 1.44123,-1.84221 2.27165,-2.69215 0.85157,-0.82147 1.76576,-1.59821 2.75844,-2.28142 1.00122,-0.66287 2.05124,-1.27694 3.16917,-1.74461 1.70313,-0.74014 3.52013,-1.22001 5.3477,-1.40707 1.06466,-4.19276 3.01464,-8.19032 5.64213,-11.72021 l 0.55836,-0.73607 c 0.19927,-0.2562 0.33265,-0.43514 0.55795,-0.70354 0.41033,-0.49207 0.80439,-0.94347 1.22367,-1.40301 0.83407,-0.90687 1.70272,-1.78121 2.61651,-2.60675 1.85115,-1.62261 3.82472,-3.10695 5.94306,-4.35949 1.05937,-0.62221 2.15006,-1.19968 3.25783,-1.72428 1.11061,-0.52867 2.24603,-1.01261 3.40789,-1.41114 2.3176,-0.81334 4.6954,-1.43148 7.11427,-1.77308 2.41073,-0.366 4.86173,-0.45954 7.27978,-0.33347 l 0.45425,0.0325 0.13583,0.008 0.10614,0.0122 0.21106,0.0163 0.89711,0.0935 c 0.61407,0.0651 1.20049,0.1464 1.79504,0.24806 0.5913,0.10574 1.17934,0.21554 1.76169,0.34567 0.13014,0.0325 0.25865,0.0651 0.38837,0.0976 0.41196,-0.69947 0.88736,-1.3542 1.41562,-1.94387 0.4209,-0.48801 0.87678,-0.93534 1.35746,-1.35015 0.47418,-0.42293 0.97397,-0.81333 1.49695,-1.16307 2.06832,-1.44368 4.43473,-2.35462 6.82594,-2.87515 2.39813,-0.51647 4.85401,-0.58154 7.20822,-0.2562 2.35502,0.34567 4.6043,1.08987 6.62342,2.17974 -2.15047,-0.66287 -4.39162,-1.04514 -6.64294,-1.0858 -2.25051,-0.0407 -4.50875,0.2562 -6.66491,0.90687 -2.15494,0.65067 -4.21228,1.63481 -6.04026,2.95242 -1.82065,1.31354 -3.44367,2.95242 -4.54371,4.9207 -2.23017,-0.35787 -4.49044,-0.53681 -6.74949,-0.50834 -2.25905,0.0325 -4.51443,0.2684 -6.7316,0.69947 -4.43513,0.86214 -8.71695,2.51322 -12.57868,4.8597 -3.86255,2.34241 -7.32249,5.35583 -10.1281,8.89792 -2.81456,3.53396 -4.97234,7.58845 -6.34811,11.89101 l -8.1e-4,0 c -2.14925,0.17487 -4.27816,0.65474 -6.27694,1.46808 -2,0.80927 -3.86214,1.95201 -5.50793,3.34688 -1.64823,1.39081 -3.08418,3.02725 -4.29565,4.81049 -1.20414,1.78732 -2.22448,3.71005 -2.92598,5.75071 0.15901,-2.23912 0.86092,-4.42456 1.85238,-6.47986"
         style="fill:#050301;fill-opacity:1;fill-rule:nonzero;stroke:none"
         id="path17624"
         inkscape:connector-curvature="0" />
      <path
         inkscape:connector-curvature="0"
         id="path4059"
         d="m 346.13544,388.04141 c 0,-0.20572 1.06204,-2.78268 2.36008,-5.72657 2.87672,-6.52426 4.6114,-14.30316 4.6114,-20.67908 0,-5.40971 -3.44864,-19.92405 -5.10526,-21.48659 -0.78174,-0.73734 -0.92482,-0.46327 -0.50108,0.95983 0.85316,2.86535 2.61856,12.45424 2.61856,14.2229 0,1.24596 -1.09863,1.39938 -6.44543,0.90009 -9.15193,-0.85462 -17.33145,-5.48667 -21.44665,-12.14522 -1.99661,-3.23058 -2.12157,-3.27452 -7.83766,-2.7562 -7.02883,0.63735 -12.00647,-0.842 -16.70042,-4.96334 -5.5987,-4.91573 -7.77283,-10.06573 -7.66833,-18.1645 0.084,-6.5077 -0.009,-6.82241 -1.39889,-4.73065 -1.97748,2.97626 -2.53969,2.8663 -7.2907,-1.42595 -8.64645,-7.81155 -10.90341,-18.88532 -5.85192,-28.71253 2.64401,-5.14368 10.07633,-11.75836 12.62802,-11.23881 0.7979,0.16246 2.19222,2.50663 3.0985,5.20926 2.12955,6.35052 4.34509,7.40911 3.00273,1.4347 -2.37966,-10.59106 4.19178,-23.18043 14.55776,-27.88936 4.71471,-2.14174 14.51151,-2.39485 18.94468,-0.48946 2.89343,1.24361 3.05095,1.17143 4.98839,-2.28575 2.4699,-4.40728 7.94867,-7.30662 12.20025,-6.45631 l 3.06324,0.61265 -1.4116,4.00088 c -0.77637,2.20049 -1.37152,6.5215 -1.32254,9.60224 l 0.0891,5.60136 1.24282,-4.48167 c 3.34665,-12.0681 10.76517,-21.92163 19.85117,-26.367 18.64963,-9.12441 39.98976,-1.89672 49.76281,16.85417 2.98335,5.72393 3.14186,6.59568 3.15143,17.33094 l 0.0101,11.30385 1.92182,-4.33237 c 1.32905,-2.99606 1.94342,-6.71228 1.99185,-12.04811 l 0.07,-7.71573 4.27236,-0.003 c 8.27589,-0.005 15.90549,6.35229 17.62606,14.68721 0.60661,2.93861 0.44787,3.23675 -1.72338,3.23675 -3.19351,1e-5 -11.70965,2.94722 -11.70965,4.05243 0,0.48257 1.45654,0.55249 3.23676,0.15536 14.90546,-3.32506 29.41932,4.35238 34.0024,17.98636 3.28608,9.77556 0.79065,20.10208 -6.60494,27.33241 -4.45005,4.35062 -11.64661,8.17815 -15.44636,8.21524 -1.986,0.0194 -2.24083,0.5276 -2.24083,4.46887 0,3.55061 -0.62088,5.15415 -3.08014,7.9551 -4.22803,4.81546 -9.54201,6.34552 -14.82751,4.26931 l -3.98368,-1.56483 -1.8746,4.23786 c -5.02551,11.36098 -17.72005,17.96177 -29.74344,15.46573 -4.44105,-0.92196 -5.27384,-1.41409 -4.70003,-2.77748 1.90908,-4.53609 5.22788,-16.085 5.69934,-19.83284 0.66114,-5.25574 -0.77755,-4.72347 -1.62925,0.60275 -0.92454,5.78183 -6.06684,17.76006 -10.20201,23.76415 -5.51217,8.00342 -14.33369,15.5936 -23.39361,20.12823 -7.18055,3.59398 -10.86166,4.84198 -10.86166,3.68241 z"
         style="fill:#f9f9f9" />
    </g>
  </g>
</svg>
