<?xml version="1.0" encoding="UTF-8" standalone="no"?>
<!-- Created with Inkscape (http://www.inkscape.org/) -->

<svg
   xmlns:dc="http://purl.org/dc/elements/1.1/"
   xmlns:cc="http://creativecommons.org/ns#"
   xmlns:rdf="http://www.w3.org/1999/02/22-rdf-syntax-ns#"
   xmlns:svg="http://www.w3.org/2000/svg"
   xmlns="http://www.w3.org/2000/svg"
   xmlns:sodipodi="http://sodipodi.sourceforge.net/DTD/sodipodi-0.dtd"
   xmlns:inkscape="http://www.inkscape.org/namespaces/inkscape"
   width="250"
   height="420.02228"
   id="svg2"
   version="1.1"
   inkscape:version="0.48.4 r9939"
   sodipodi:docname="drawing6.svg">
  <defs
     id="defs4" />
  <sodipodi:namedview
     id="base"
     pagecolor="#ffffff"
     bordercolor="#666666"
     borderopacity="1.0"
     inkscape:pageopacity="0.0"
     inkscape:pageshadow="2"
     inkscape:zoom="0.35"
     inkscape:cx="447.5476"
     inkscape:cy="-116.79254"
     inkscape:document-units="px"
     inkscape:current-layer="layer1"
     showgrid="false"
     fit-margin-top="0"
     fit-margin-left="0"
     fit-margin-right="0"
     fit-margin-bottom="0"
     inkscape:window-width="1615"
     inkscape:window-height="1026"
     inkscape:window-x="1431"
     inkscape:window-y="24"
     inkscape:window-maximized="1" />
  <metadata
     id="metadata7">
    <rdf:RDF>
      <cc:Work
         rdf:about="">
        <dc:format>image/svg+xml</dc:format>
        <dc:type
           rdf:resource="http://purl.org/dc/dcmitype/StillImage" />
        <dc:title></dc:title>
      </cc:Work>
    </rdf:RDF>
  </metadata>
  <g
     inkscape:label="Layer 1"
     inkscape:groupmode="layer"
     id="layer1"
     transform="translate(72.547596,4.4526215)">
    <g
       transform="matrix(1.5516586,0,0,-1.5516586,567.54218,891.42537)"
       id="g28170">
      <path
         d="m -405.89323,308.41978 19.2109,0 0,19.2109 -19.2109,0 0,-19.2109 z"
         style="fill:#ffffff;fill-opacity:1;fill-rule:nonzero;stroke:none"
         id="path4674"
         inkscape:connector-curvature="0" />
      <path
         d="m -367.47223,308.41978 19.2109,0 0,19.2109 -19.2109,0 0,-19.2109 z"
         style="fill:#ffffff;fill-opacity:1;fill-rule:nonzero;stroke:none"
         id="path4678"
         inkscape:connector-curvature="0" />
      <path
         d="m -329.05023,308.41978 19.2113,0 0,19.2109 -19.2113,0 0,-19.2109 z"
         style="fill:#ffffff;fill-opacity:1;fill-rule:nonzero;stroke:none"
         id="path4682"
         inkscape:connector-curvature="0" />
      <path
         d="m -386.68223,327.63078 19.2102,0 0,19.2109 -19.2102,0 0,-19.2109 z"
         style="fill:#ffffff;fill-opacity:1;fill-rule:nonzero;stroke:none"
         id="path4796"
         inkscape:connector-curvature="0" />
      <path
         d="m -348.26123,327.63078 19.2109,0 0,19.2109 -19.2109,0 0,-19.2109 z"
         style="fill:#ffffff;fill-opacity:1;fill-rule:nonzero;stroke:none"
         id="path4800"
         inkscape:connector-curvature="0" />
      <path
         d="m -309.83923,327.63078 19.2109,0 0,19.2109 -19.2109,0 0,-19.2109 z"
         style="fill:#ffffff;fill-opacity:1;fill-rule:nonzero;stroke:none"
         id="path4804"
         inkscape:connector-curvature="0" />
      <path
         d="m -405.89323,346.84178 19.2109,0 0,19.2109 -19.2109,0 0,-19.2109 z"
         style="fill:#ffffff;fill-opacity:1;fill-rule:nonzero;stroke:none"
         id="path4910"
         inkscape:connector-curvature="0" />
      <path
         d="m -367.47223,346.84178 19.2109,0 0,19.2109 -19.2109,0 0,-19.2109 z"
         style="fill:#ffffff;fill-opacity:1;fill-rule:nonzero;stroke:none"
         id="path4914"
         inkscape:connector-curvature="0" />
      <path
         d="m -329.05023,346.84178 19.2113,0 0,19.2109 -19.2113,0 0,-19.2109 z"
         style="fill:#ffffff;fill-opacity:1;fill-rule:nonzero;stroke:none"
         id="path4918"
         inkscape:connector-curvature="0" />
      <path
         d="m -386.68223,366.05278 19.2102,0 0,19.2109 -19.2102,0 0,-19.2109 z"
         style="fill:#ffffff;fill-opacity:1;fill-rule:nonzero;stroke:none"
         id="path5032"
         inkscape:connector-curvature="0" />
      <path
         d="m -348.26123,366.05278 19.2109,0 0,19.2109 -19.2109,0 0,-19.2109 z"
         style="fill:#ffffff;fill-opacity:1;fill-rule:nonzero;stroke:none"
         id="path5036"
         inkscape:connector-curvature="0" />
      <path
         d="m -309.83923,366.05278 19.2109,0 0,19.2109 -19.2109,0 0,-19.2109 z"
         style="fill:#ffffff;fill-opacity:1;fill-rule:nonzero;stroke:none"
         id="path5040"
         inkscape:connector-curvature="0" />
      <path
         d="m -405.89323,385.26378 19.2109,0 0,19.2102 -19.2109,0 0,-19.2102 z"
         style="fill:#ffffff;fill-opacity:1;fill-rule:nonzero;stroke:none"
         id="path5146"
         inkscape:connector-curvature="0" />
      <path
         d="m -367.47223,385.26378 19.2109,0 0,19.2102 -19.2109,0 0,-19.2102 z"
         style="fill:#ffffff;fill-opacity:1;fill-rule:nonzero;stroke:none"
         id="path5150"
         inkscape:connector-curvature="0" />
      <path
         d="m -329.05023,385.26378 19.2113,0 0,19.2102 -19.2113,0 0,-19.2102 z"
         style="fill:#ffffff;fill-opacity:1;fill-rule:nonzero;stroke:none"
         id="path5154"
         inkscape:connector-curvature="0" />
      <path
         d="m -290.62823,385.26378 19.2109,0 0,19.2102 -19.2109,0 0,-19.2102 z"
         style="fill:#ffffff;fill-opacity:1;fill-rule:nonzero;stroke:none"
         id="path5158"
         inkscape:connector-curvature="0" />
      <path
         d="m -386.68223,404.47378 19.2102,0 0,19.2121 -19.2102,0 0,-19.2121 z"
         style="fill:#ffffff;fill-opacity:1;fill-rule:nonzero;stroke:none"
         id="path5268"
         inkscape:connector-curvature="0" />
      <path
         d="m -348.26123,404.47378 19.2109,0 0,19.2121 -19.2109,0 0,-19.2121 z"
         style="fill:#ffffff;fill-opacity:1;fill-rule:nonzero;stroke:none"
         id="path5272"
         inkscape:connector-curvature="0" />
      <path
         d="m -309.83923,404.47378 19.2109,0 0,19.2121 -19.2109,0 0,-19.2121 z"
         style="fill:#ffffff;fill-opacity:1;fill-rule:nonzero;stroke:none"
         id="path5276"
         inkscape:connector-curvature="0" />
      <path
         d="m -271.41723,404.47378 19.2109,0 0,19.2121 -19.2109,0 0,-19.2121 z"
         style="fill:#ffffff;fill-opacity:1;fill-rule:nonzero;stroke:none"
         id="path5280"
         inkscape:connector-curvature="0" />
      <path
         d="m -405.89323,423.68578 19.2109,0 0,19.2109 -19.2109,0 0,-19.2109 z"
         style="fill:#ffffff;fill-opacity:1;fill-rule:nonzero;stroke:none"
         id="path5382"
         inkscape:connector-curvature="0" />
      <path
         d="m -367.47223,423.68578 19.2109,0 0,19.2109 -19.2109,0 0,-19.2109 z"
         style="fill:#ffffff;fill-opacity:1;fill-rule:nonzero;stroke:none"
         id="path5386"
         inkscape:connector-curvature="0" />
      <path
         d="m -329.05023,423.68578 19.2113,0 0,19.2109 -19.2113,0 0,-19.2109 z"
         style="fill:#ffffff;fill-opacity:1;fill-rule:nonzero;stroke:none"
         id="path5390"
         inkscape:connector-curvature="0" />
      <path
         d="m -290.62823,423.68578 19.2109,0 0,19.2109 -19.2109,0 0,-19.2109 z"
         style="fill:#ffffff;fill-opacity:1;fill-rule:nonzero;stroke:none"
         id="path5394"
         inkscape:connector-curvature="0" />
      <path
         d="m -386.68223,442.89678 19.2102,0 0,19.2098 -19.2102,0 0,-19.2098 z"
         style="fill:#ffffff;fill-opacity:1;fill-rule:nonzero;stroke:none"
         id="path5504"
         inkscape:connector-curvature="0" />
      <path
         d="m -348.26123,442.89678 19.2109,0 0,19.2098 -19.2109,0 0,-19.2098 z"
         style="fill:#ffffff;fill-opacity:1;fill-rule:nonzero;stroke:none"
         id="path5508"
         inkscape:connector-curvature="0" />
      <path
         d="m -309.83923,442.89678 19.2109,0 0,19.2098 -19.2109,0 0,-19.2098 z"
         style="fill:#ffffff;fill-opacity:1;fill-rule:nonzero;stroke:none"
         id="path5512"
         inkscape:connector-curvature="0" />
      <path
         d="m -271.41723,442.89678 19.2109,0 0,19.2098 -19.2109,0 0,-19.2098 z"
         style="fill:#ffffff;fill-opacity:1;fill-rule:nonzero;stroke:none"
         id="path5516"
         inkscape:connector-curvature="0" />
      <path
         d="m -367.47223,462.10678 19.2109,0 0,19.2121 -19.2109,0 0,-19.2121 z"
         style="fill:#ffffff;fill-opacity:1;fill-rule:nonzero;stroke:none"
         id="path5622"
         inkscape:connector-curvature="0" />
      <path
         d="m -329.05023,462.10678 19.2113,0 0,19.2121 -19.2113,0 0,-19.2121 z"
         style="fill:#ffffff;fill-opacity:1;fill-rule:nonzero;stroke:none"
         id="path5626"
         inkscape:connector-curvature="0" />
      <path
         d="m -290.62823,462.10678 19.2109,0 0,19.2121 -19.2109,0 0,-19.2121 z"
         style="fill:#ffffff;fill-opacity:1;fill-rule:nonzero;stroke:none"
         id="path5630"
         inkscape:connector-curvature="0" />
      <path
         d="m -386.68223,481.31878 19.2102,0 0,19.2109 -19.2102,0 0,-19.2109 z"
         style="fill:#ffffff;fill-opacity:1;fill-rule:nonzero;stroke:none"
         id="path5740"
         inkscape:connector-curvature="0" />
      <path
         d="m -348.26123,481.31878 19.2109,0 0,19.2109 -19.2109,0 0,-19.2109 z"
         style="fill:#ffffff;fill-opacity:1;fill-rule:nonzero;stroke:none"
         id="path5744"
         inkscape:connector-curvature="0" />
      <path
         d="m -309.83923,481.31878 19.2109,0 0,19.2109 -19.2109,0 0,-19.2109 z"
         style="fill:#ffffff;fill-opacity:1;fill-rule:nonzero;stroke:none"
         id="path5748"
         inkscape:connector-curvature="0" />
      <path
         d="m -271.41723,481.31878 19.2109,0 0,19.2109 -19.2109,0 0,-19.2109 z"
         style="fill:#ffffff;fill-opacity:1;fill-rule:nonzero;stroke:none"
         id="path5752"
         inkscape:connector-curvature="0" />
      <path
         d="m -367.47223,500.52978 19.2109,0 0,19.2102 -19.2109,0 0,-19.2102 z"
         style="fill:#ffffff;fill-opacity:1;fill-rule:nonzero;stroke:none"
         id="path5858"
         inkscape:connector-curvature="0" />
      <path
         d="m -329.05023,500.52978 19.2113,0 0,19.2102 -19.2113,0 0,-19.2102 z"
         style="fill:#ffffff;fill-opacity:1;fill-rule:nonzero;stroke:none"
         id="path5862"
         inkscape:connector-curvature="0" />
      <path
         d="m -290.62823,500.52978 19.2109,0 0,19.2102 -19.2109,0 0,-19.2102 z"
         style="fill:#ffffff;fill-opacity:1;fill-rule:nonzero;stroke:none"
         id="path5866"
         inkscape:connector-curvature="0" />
      <path
         d="m -386.68223,519.73978 19.2102,0 0,19.2109 -19.2102,0 0,-19.2109 z"
         style="fill:#ffffff;fill-opacity:1;fill-rule:nonzero;stroke:none"
         id="path5976"
         inkscape:connector-curvature="0" />
      <path
         d="m -348.26123,519.73978 19.2109,0 0,19.2109 -19.2109,0 0,-19.2109 z"
         style="fill:#ffffff;fill-opacity:1;fill-rule:nonzero;stroke:none"
         id="path5980"
         inkscape:connector-curvature="0" />
      <path
         d="m -309.83923,519.73978 19.2109,0 0,19.2109 -19.2109,0 0,-19.2109 z"
         style="fill:#ffffff;fill-opacity:1;fill-rule:nonzero;stroke:none"
         id="path5984"
         inkscape:connector-curvature="0" />
      <path
         d="m -367.47223,538.95078 19.2109,0 0,19.2109 -19.2109,0 0,-19.2109 z"
         style="fill:#ffffff;fill-opacity:1;fill-rule:nonzero;stroke:none"
         id="path6094"
         inkscape:connector-curvature="0" />
      <path
         d="m -329.05023,538.95078 19.2113,0 0,19.2109 -19.2113,0 0,-19.2109 z"
         style="fill:#ffffff;fill-opacity:1;fill-rule:nonzero;stroke:none"
         id="path6098"
         inkscape:connector-curvature="0" />
      <path
         d="m -290.62823,538.95078 19.2109,0 0,19.2109 -19.2109,0 0,-19.2109 z"
         style="fill:#ffffff;fill-opacity:1;fill-rule:nonzero;stroke:none"
         id="path6102"
         inkscape:connector-curvature="0" />
      <path
         d="m -386.68223,558.15778 19.2102,0 0,19.2102 -19.2102,0 0,-19.2102 z"
         style="fill:#ffffff;fill-opacity:1;fill-rule:nonzero;stroke:none"
         id="path6212"
         inkscape:connector-curvature="0" />
      <path
         d="m -348.26123,558.15778 19.2109,0 0,19.2102 -19.2109,0 0,-19.2102 z"
         style="fill:#ffffff;fill-opacity:1;fill-rule:nonzero;stroke:none"
         id="path6216"
         inkscape:connector-curvature="0" />
      <path
         d="m -309.83923,558.15778 19.2109,0 0,19.2102 -19.2109,0 0,-19.2102 z"
         style="fill:#ffffff;fill-opacity:1;fill-rule:nonzero;stroke:none"
         id="path6220"
         inkscape:connector-curvature="0" />
      <path
         d="m -345.50023,541.59178 c 1.069,0.121 1.391,-0.49 1.424,-1.12 0.113,-2.007 -3.307,-1.67 -2.545,0.408 0.109,0.293 0.453,0.636 1.121,0.712"
         style="fill:#050301;fill-opacity:1;fill-rule:evenodd;stroke:none"
         id="path7348"
         inkscape:connector-curvature="0" />
      <path
         d="m -332.26123,541.59178 c 2.451,0.835 2.363,-3.203 0,-2.545 -0.762,0.212 -1.409,2.065 0,2.545"
         style="fill:#050301;fill-opacity:1;fill-rule:evenodd;stroke:none"
         id="path7350"
         inkscape:connector-curvature="0" />
      <path
         d="m -318.61523,541.59178 c 2.449,0.835 2.361,-3.203 0,-2.545 -0.764,0.212 -1.41,2.065 0,2.545"
         style="fill:#050301;fill-opacity:1;fill-rule:evenodd;stroke:none"
         id="path7352"
         inkscape:connector-curvature="0" />
      <path
         d="m -304.46123,541.59178 c 1.068,0.121 1.391,-0.49 1.426,-1.12 0.113,-2.008 -3.308,-1.672 -2.547,0.408 0.108,0.293 0.451,0.636 1.121,0.712"
         style="fill:#050301;fill-opacity:1;fill-rule:evenodd;stroke:none"
         id="path7354"
         inkscape:connector-curvature="0" />
      <path
         d="m -358.33123,540.98078 c 0.163,-0.376 0.149,-1.066 -0.102,-1.323 -0.354,-0.327 -1.274,-0.254 -1.528,0.101 -0.656,1.212 0.873,2.033 1.63,1.222"
         style="fill:#050301;fill-opacity:1;fill-rule:evenodd;stroke:none"
         id="path7356"
         inkscape:connector-curvature="0" />
      <path
         d="m -289.89823,540.98078 c 0.162,-0.376 0.147,-1.066 -0.102,-1.323 -0.355,-0.327 -1.275,-0.254 -1.529,0.101 -0.653,1.212 0.873,2.033 1.631,1.222"
         style="fill:#050301;fill-opacity:1;fill-rule:evenodd;stroke:none"
         id="path7358"
         inkscape:connector-curvature="0" />
      <path
         d="m -332.26123,529.88078 c 4.434,0.709 5.05,-6.307 0.61,-6.415 -4.046,-0.098 -4.445,5.803 -0.61,6.415"
         style="fill:#050301;fill-opacity:1;fill-rule:evenodd;stroke:none"
         id="path7360"
         inkscape:connector-curvature="0" />
      <path
         d="m -318.81823,529.88078 c 4.543,0.924 5.166,-5.767 1.424,-6.415 -4.301,-0.744 -5.421,5.604 -1.424,6.415"
         style="fill:#050301;fill-opacity:1;fill-rule:evenodd;stroke:none"
         id="path7362"
         inkscape:connector-curvature="0" />
      <path
         d="m -346.01023,529.67678 c 4.678,0.908 4.749,-6.482 0.205,-6.007 -3.169,0.332 -3.581,5.354 -0.205,6.007"
         style="fill:#050301;fill-opacity:1;fill-rule:evenodd;stroke:none"
         id="path7364"
         inkscape:connector-curvature="0" />
      <path
         d="m -304.86723,529.57578 c 2.326,0.396 4.336,-2.046 3.156,-4.277 -1.113,-2.103 -4.308,-1.867 -5.296,0 -0.286,0.541 -0.614,1.689 0,2.852 0.24,0.452 0.718,1.184 2.14,1.425"
         style="fill:#050301;fill-opacity:1;fill-rule:evenodd;stroke:none"
         id="path7366"
         inkscape:connector-curvature="0" />
      <path
         d="m -359.45123,529.06678 c 3.493,0.448 3.371,-4.685 0.408,-4.786 -2.868,-0.097 -3.506,4.39 -0.408,4.786"
         style="fill:#050301;fill-opacity:1;fill-rule:evenodd;stroke:none"
         id="path7368"
         inkscape:connector-curvature="0" />
      <path
         d="m -290.91623,528.65878 c 0.485,0.056 0.953,0.022 1.322,-0.203 1.596,-0.965 0.743,-3.7 -1.018,-3.768 -2.536,-0.098 -2.88,3.677 -0.304,3.971"
         style="fill:#050301;fill-opacity:1;fill-rule:evenodd;stroke:none"
         id="path7370"
         inkscape:connector-curvature="0" />
      <path
         d="m -373.30123,527.94678 c 2.45,0.834 2.362,-3.203 0,-2.546 -0.762,0.213 -1.408,2.067 0,2.546"
         style="fill:#050301;fill-opacity:1;fill-rule:evenodd;stroke:none"
         id="path7372"
         inkscape:connector-curvature="0" />
      <path
         d="m -332.46623,517.66078 c 1.627,0.238 2.941,-0.224 3.87,-1.018 0.616,-0.525 1.813,-2.096 1.629,-4.175 -0.521,-5.907 -10.224,-5.594 -9.574,1.019 0.249,2.499 1.94,3.862 4.075,4.174"
         style="fill:#050301;fill-opacity:1;fill-rule:evenodd;stroke:none"
         id="path7374"
         inkscape:connector-curvature="0" />
      <path
         d="m -318.20923,517.66078 c 4.929,0.159 6.404,-6.419 2.649,-8.756 -2.182,-1.359 -5.446,-0.359 -6.62,1.527 -2.007,3.222 0.405,7.115 3.971,7.229"
         style="fill:#050301;fill-opacity:1;fill-rule:evenodd;stroke:none"
         id="path7376"
         inkscape:connector-curvature="0" />
      <path
         d="m -345.90623,517.55978 c 6.445,0.738 6.564,-9.064 0.508,-9.064 -5.512,0 -6.153,8.418 -0.508,9.064"
         style="fill:#050301;fill-opacity:1;fill-rule:evenodd;stroke:none"
         id="path7378"
         inkscape:connector-curvature="0" />
      <path
         d="m -304.56323,517.05078 c 2.229,0.134 4.325,-1.578 4.38,-3.972 0.125,-5.564 -8.234,-5.38 -8.351,-0.203 -0.051,2.278 1.509,4.025 3.971,4.175"
         style="fill:#050301;fill-opacity:1;fill-rule:evenodd;stroke:none"
         id="path7380"
         inkscape:connector-curvature="0" />
      <path
         d="m -359.85823,516.64278 c 1.407,0.251 2.686,-0.242 3.361,-0.918 0.502,-0.502 1.415,-2.538 0.814,-4.07 -1.297,-3.315 -5.889,-2.646 -6.924,0 -0.797,2.029 0.457,4.581 2.749,4.988"
         style="fill:#050301;fill-opacity:1;fill-rule:evenodd;stroke:none"
         id="path7382"
         inkscape:connector-curvature="0" />
      <path
         d="m -291.22223,515.52378 c 2.948,0.539 4.38,-3.507 1.832,-4.889 -3.41,-1.849 -5.915,4.139 -1.832,4.889"
         style="fill:#050301;fill-opacity:1;fill-rule:evenodd;stroke:none"
         id="path7384"
         inkscape:connector-curvature="0" />
      <path
         d="m -373.30123,515.01278 c 2.702,0.607 3.51,-3.514 1.019,-3.972 -1.318,-0.24 -3.177,0.725 -2.444,2.852 0.127,0.373 0.593,0.934 1.425,1.12"
         style="fill:#050301;fill-opacity:1;fill-rule:evenodd;stroke:none"
         id="path7386"
         inkscape:connector-curvature="0" />
      <path
         d="m -332.16023,504.62678 c 3.264,0.264 5.805,-2.229 5.805,-5.295 0,-7.019 -10.793,-7.096 -10.793,0 0,3.016 2.105,5.061 4.988,5.295"
         style="fill:#050301;fill-opacity:1;fill-rule:evenodd;stroke:none"
         id="path7390"
         inkscape:connector-curvature="0" />
      <path
         d="m -346.01023,504.42178 c 5.824,0.718 7.914,-7.326 2.955,-9.774 -4.029,-1.989 -9.462,2.095 -7.027,7.024 0.533,1.083 1.781,2.468 4.072,2.75"
         style="fill:#050301;fill-opacity:1;fill-rule:evenodd;stroke:none"
         id="path7392"
         inkscape:connector-curvature="0" />
      <path
         d="m -319.02123,504.42178 c 3.545,0.558 7.084,-2.149 6.006,-6.517 -1.129,-4.582 -8.852,-5.403 -10.182,0 -0.789,3.192 1.15,6.043 4.176,6.517"
         style="fill:#050301;fill-opacity:1;fill-rule:evenodd;stroke:none"
         id="path7394"
         inkscape:connector-curvature="0" />
      <path
         d="m -304.76623,503.60778 c 2.562,0.262 4.786,-1.52 4.786,-4.276 0,-5.748 -8.758,-5.649 -8.758,0 0,2.611 1.662,4.041 3.972,4.276"
         style="fill:#050301;fill-opacity:1;fill-rule:evenodd;stroke:none"
         id="path7396"
         inkscape:connector-curvature="0" />
      <path
         d="m -359.55423,503.50678 c 2.498,0.267 4.685,-1.704 4.685,-4.175 0,-5.507 -8.422,-5.384 -8.553,-0.103 -0.06,2.395 1.411,4.013 3.868,4.278"
         style="fill:#050301;fill-opacity:1;fill-rule:evenodd;stroke:none"
         id="path7398"
         inkscape:connector-curvature="0" />
      <path
         d="m -290.91623,501.87678 c 0.814,0.074 1.569,-0.179 2.036,-0.61 2.533,-2.351 -1.36,-6.364 -3.767,-3.768 -1.445,1.556 -0.507,4.175 1.731,4.378"
         style="fill:#050301;fill-opacity:1;fill-rule:evenodd;stroke:none"
         id="path7400"
         inkscape:connector-curvature="0" />
      <path
         d="m -373.40323,501.67178 c 3.494,0.778 3.932,-4.259 1.223,-4.785 -2.947,-0.571 -4.472,4.063 -1.223,4.785"
         style="fill:#050301;fill-opacity:1;fill-rule:evenodd;stroke:none"
         id="path7402"
         inkscape:connector-curvature="0" />
      <path
         d="m -332.66923,490.98078 c 2.025,0.305 3.729,-0.421 4.685,-1.324 0.974,-0.919 1.894,-2.959 1.629,-4.888 -0.166,-1.212 -0.852,-2.319 -1.629,-3.054 -3.273,-3.094 -9.983,-1.032 -9.164,4.886 0.304,2.204 2.065,4.015 4.479,4.38"
         style="fill:#050301;fill-opacity:1;fill-rule:evenodd;stroke:none"
         id="path7406"
         inkscape:connector-curvature="0" />
      <path
         d="m -345.90623,490.87878 c 3.174,0.328 5.803,-2.066 5.803,-5.194 0,-6.793 -10.589,-6.906 -10.589,0 -0.001,3.147 2.093,4.916 4.786,5.194"
         style="fill:#050301;fill-opacity:1;fill-rule:evenodd;stroke:none"
         id="path7408"
         inkscape:connector-curvature="0" />
      <path
         d="m -318.71923,490.77678 c 5.823,0.716 7.914,-7.326 2.955,-9.775 -4.029,-1.989 -9.46,2.094 -7.025,7.026 0.531,1.081 1.779,2.467 4.07,2.749"
         style="fill:#050301;fill-opacity:1;fill-rule:evenodd;stroke:none"
         id="path7410"
         inkscape:connector-curvature="0" />
      <path
         d="m -359.75623,489.96378 c 4.765,0.648 6.766,-5.725 2.951,-8.047 -2.871,-1.747 -6.544,0.574 -6.719,3.463 -0.079,1.276 0.605,2.64 0.611,2.648 0.572,0.94 1.638,1.728 3.157,1.936"
         style="fill:#050301;fill-opacity:1;fill-rule:evenodd;stroke:none"
         id="path7412"
         inkscape:connector-curvature="0" />
      <path
         d="m -304.56323,489.75878 c 2.229,0.135 4.325,-1.578 4.38,-3.971 0.125,-5.563 -8.234,-5.38 -8.351,-0.205 -0.051,2.28 1.509,4.027 3.971,4.176"
         style="fill:#050301;fill-opacity:1;fill-rule:evenodd;stroke:none"
         id="path7414"
         inkscape:connector-curvature="0" />
      <path
         d="m -372.99623,488.23178 c 0.816,0.074 1.572,-0.18 2.037,-0.611 2.536,-2.352 -1.36,-6.364 -3.767,-3.769 -1.442,1.555 -0.506,4.176 1.73,4.38"
         style="fill:#050301;fill-opacity:1;fill-rule:evenodd;stroke:none"
         id="path7416"
         inkscape:connector-curvature="0" />
      <path
         d="m -291.32423,487.82378 c 3.705,0.899 3.652,-5.132 0,-4.378 -1.553,0.32 -2.604,3.745 0,4.378"
         style="fill:#050301;fill-opacity:1;fill-rule:evenodd;stroke:none"
         id="path7418"
         inkscape:connector-curvature="0" />
      <path
         d="m -332.66923,477.23278 c 2.025,0.307 3.729,-0.419 4.685,-1.323 0.973,-0.92 1.894,-2.963 1.629,-4.889 -0.166,-1.21 -0.852,-2.319 -1.629,-3.055 -3.273,-3.094 -9.983,-1.032 -9.164,4.889 0.304,2.202 2.065,4.013 4.479,4.378"
         style="fill:#050301;fill-opacity:1;fill-rule:evenodd;stroke:none"
         id="path7420"
         inkscape:connector-curvature="0" />
      <path
         d="m -346.11123,477.13178 c 3.375,0.456 5.772,-1.831 6.008,-4.685 0.341,-4.123 -3.121,-5.981 -5.702,-5.804 -6.541,0.445 -6.169,9.695 -0.306,10.489"
         style="fill:#050301;fill-opacity:1;fill-rule:evenodd;stroke:none"
         id="path7422"
         inkscape:connector-curvature="0" />
      <path
         d="m -318.81823,476.92878 c 3.126,0.441 5.574,-1.718 5.803,-4.482 0.583,-7.027 -9.645,-7.524 -10.182,-1.019 -0.229,2.76 1.484,5.089 4.379,5.501"
         style="fill:#050301;fill-opacity:1;fill-rule:evenodd;stroke:none"
         id="path7424"
         inkscape:connector-curvature="0" />
      <path
         d="m -359.65623,476.31578 c 2.611,0.306 4.938,-1.553 4.992,-4.276 0.118,-6.155 -8.857,-5.695 -8.961,-0.204 -0.048,2.432 1.541,4.197 3.969,4.48"
         style="fill:#050301;fill-opacity:1;fill-rule:evenodd;stroke:none"
         id="path7426"
         inkscape:connector-curvature="0" />
      <path
         d="m -304.76623,475.70578 c 5.272,0.579 5.504,-7.637 0.407,-7.637 -2.152,0 -3.822,1.805 -3.869,3.767 -0.051,2.127 1.205,3.621 3.462,3.87"
         style="fill:#050301;fill-opacity:1;fill-rule:evenodd;stroke:none"
         id="path7428"
         inkscape:connector-curvature="0" />
      <path
         d="m -373.50623,474.58578 c 4.669,1.082 4.098,-6.545 -0.303,-5.091 -1.83,0.601 -2.646,4.408 0.303,5.091"
         style="fill:#050301;fill-opacity:1;fill-rule:evenodd;stroke:none"
         id="path7430"
         inkscape:connector-curvature="0" />
      <path
         d="m -291.11923,473.76978 c 3.087,0.641 2.797,-3.767 0.406,-3.767 -1.973,0 -2.797,3.273 -0.406,3.767"
         style="fill:#050301;fill-opacity:1;fill-rule:evenodd;stroke:none"
         id="path7432"
         inkscape:connector-curvature="0" />
      <path
         d="m -332.56823,463.58778 c 3.32,0.501 5.891,-1.87 6.213,-4.583 0.877,-7.416 -9.996,-8.177 -10.793,-1.426 -0.38,3.201 1.738,5.579 4.58,6.009"
         style="fill:#050301;fill-opacity:1;fill-rule:evenodd;stroke:none"
         id="path7436"
         inkscape:connector-curvature="0" />
      <path
         d="m -346.41623,463.48578 c 4.141,0.659 7.84,-3.373 5.703,-7.638 -0.902,-1.8 -4.082,-3.92 -7.231,-2.342 -1.861,0.934 -4.021,3.882 -2.341,7.231 0.383,0.765 1.695,2.402 3.869,2.749"
         style="fill:#050301;fill-opacity:1;fill-rule:evenodd;stroke:none"
         id="path7438"
         inkscape:connector-curvature="0" />
      <path
         d="m -318.51423,463.17978 c 2.807,0.269 5.34,-1.736 5.398,-4.787 0.118,-6.389 -9.981,-6.672 -9.981,-0.102 0,2.612 1.824,4.625 4.583,4.889"
         style="fill:#050301;fill-opacity:1;fill-rule:evenodd;stroke:none"
         id="path7440"
         inkscape:connector-curvature="0" />
      <path
         d="m -359.85823,462.67078 c 1.597,0.258 3.119,-0.405 3.87,-1.12 0.271,-0.261 1.281,-2.279 1.324,-2.647 0.337,-2.864 -1.685,-4.835 -3.869,-5.093 -2.977,-0.35 -5.367,2.213 -5.092,4.991 0.213,2.182 1.677,3.532 3.767,3.869"
         style="fill:#050301;fill-opacity:1;fill-rule:evenodd;stroke:none"
         id="path7442"
         inkscape:connector-curvature="0" />
      <path
         d="m -304.86723,461.75478 c 2.107,0.298 4.016,-1.13 4.071,-3.362 0.126,-4.93 -6.942,-4.517 -7.128,-0.303 -0.086,1.976 1.1,3.389 3.057,3.665"
         style="fill:#050301;fill-opacity:1;fill-rule:evenodd;stroke:none"
         id="path7444"
         inkscape:connector-curvature="0" />
      <path
         d="m -373.19923,460.93978 c 3.984,0.563 4.01,-5.398 0.408,-5.398 -3.276,0 -3.701,4.931 -0.408,5.398"
         style="fill:#050301;fill-opacity:1;fill-rule:evenodd;stroke:none"
         id="path7446"
         inkscape:connector-curvature="0" />
      <path
         d="m -291.22223,459.81878 c 2.291,0.621 2.955,-2.727 1.018,-3.156 -2.044,-0.454 -3.155,2.578 -1.018,3.156"
         style="fill:#050301;fill-opacity:1;fill-rule:evenodd;stroke:none"
         id="path7448"
         inkscape:connector-curvature="0" />
      <path
         d="m -332.36323,449.94178 c 3.269,0.365 5.959,-1.901 6.008,-5.194 0.043,-2.908 -2.301,-5.454 -5.296,-5.498 -3.163,-0.049 -5.497,2.444 -5.497,5.397 0,3.062 2.152,5 4.785,5.295"
         style="fill:#050301;fill-opacity:1;fill-rule:evenodd;stroke:none"
         id="path7452"
         inkscape:connector-curvature="0" />
      <path
         d="m -346.41623,449.83878 c 4.141,0.661 7.84,-3.373 5.703,-7.638 -0.904,-1.8 -4.082,-3.918 -7.231,-2.34 -1.861,0.932 -4.021,3.882 -2.341,7.229 0.383,0.765 1.696,2.404 3.869,2.749"
         style="fill:#050301;fill-opacity:1;fill-rule:evenodd;stroke:none"
         id="path7454"
         inkscape:connector-curvature="0" />
      <path
         d="m -318.92223,449.33078 c 3.58,0.562 7.065,-2.832 5.195,-6.823 -0.829,-1.77 -3.699,-3.563 -6.517,-2.24 -2.006,0.939 -3.595,3.632 -2.243,6.517 0.358,0.761 1.645,2.244 3.565,2.546"
         style="fill:#050301;fill-opacity:1;fill-rule:evenodd;stroke:none"
         id="path7456"
         inkscape:connector-curvature="0" />
      <path
         d="m -359.96123,449.02478 c 2.68,0.458 4.977,-1.256 5.297,-3.665 0.378,-2.856 -1.883,-5.556 -5.092,-5.194 -2.363,0.265 -4.174,2.395 -3.869,5.092 0.221,1.973 1.637,3.422 3.664,3.767"
         style="fill:#050301;fill-opacity:1;fill-rule:evenodd;stroke:none"
         id="path7458"
         inkscape:connector-curvature="0" />
      <path
         d="m -305.07223,447.80378 c 4.545,0.923 5.168,-5.77 1.426,-6.416 -4.299,-0.744 -5.422,5.603 -1.426,6.416"
         style="fill:#050301;fill-opacity:1;fill-rule:evenodd;stroke:none"
         id="path7460"
         inkscape:connector-curvature="0" />
      <path
         d="m -373.40323,447.29378 c 4.702,0.932 4.057,-6.757 -0.406,-5.296 -2.023,0.662 -2.633,4.693 0.406,5.296"
         style="fill:#050301;fill-opacity:1;fill-rule:evenodd;stroke:none"
         id="path7462"
         inkscape:connector-curvature="0" />
      <path
         d="m -291.22223,445.96978 c 2.56,0.824 2.439,-3.381 0,-2.75 -1.305,0.339 -1.223,2.357 0,2.75"
         style="fill:#050301;fill-opacity:1;fill-rule:evenodd;stroke:none"
         id="path7464"
         inkscape:connector-curvature="0" />
      <path
         d="m -385.72423,445.25778 c 0.162,-0.377 0.148,-1.065 -0.102,-1.324 -0.354,-0.327 -1.275,-0.255 -1.528,0.102 -0.656,1.211 0.873,2.032 1.63,1.222"
         style="fill:#050301;fill-opacity:1;fill-rule:evenodd;stroke:none"
         id="path7466"
         inkscape:connector-curvature="0" />
      <path
         d="m -346.41623,436.09178 c 4.141,0.659 7.84,-3.373 5.703,-7.638 -0.902,-1.801 -4.082,-3.92 -7.231,-2.341 -1.861,0.934 -4.021,3.881 -2.341,7.229 0.381,0.765 1.696,2.405 3.869,2.75"
         style="fill:#050301;fill-opacity:1;fill-rule:evenodd;stroke:none"
         id="path7468"
         inkscape:connector-curvature="0" />
      <path
         d="m -332.77123,436.09178 c 3.205,0.548 5.906,-1.478 6.313,-4.176 0.505,-3.337 -1.651,-5.915 -4.276,-6.313 -3.285,-0.496 -7.324,2.29 -6.211,6.517 0.548,2.088 1.865,3.578 4.174,3.972"
         style="fill:#050301;fill-opacity:1;fill-rule:evenodd;stroke:none"
         id="path7470"
         inkscape:connector-curvature="0" />
      <path
         d="m -318.61523,435.48078 c 2.756,0.316 5.193,-1.673 5.193,-4.583 0,-6.06 -9.369,-6.121 -9.367,0 0,2.704 1.69,4.299 4.174,4.583"
         style="fill:#050301;fill-opacity:1;fill-rule:evenodd;stroke:none"
         id="path7472"
         inkscape:connector-curvature="0" />
      <path
         d="m -359.34923,435.37878 c 2.371,0.133 4.722,-1.594 4.786,-4.378 0.141,-6.122 -9.165,-6.122 -9.165,-0.103 0,2.478 1.909,4.344 4.379,4.481"
         style="fill:#050301;fill-opacity:1;fill-rule:evenodd;stroke:none"
         id="path7474"
         inkscape:connector-curvature="0" />
      <path
         d="m -304.76623,433.85078 c 3.94,0.439 4.475,-5.893 0.407,-6.007 -3.715,-0.105 -4.254,5.58 -0.407,6.007"
         style="fill:#050301;fill-opacity:1;fill-rule:evenodd;stroke:none"
         id="path7476"
         inkscape:connector-curvature="0" />
      <path
         d="m -373.40323,433.54678 c 4.702,0.933 4.057,-6.758 -0.406,-5.296 -2.023,0.663 -2.633,4.693 0.406,5.296"
         style="fill:#050301;fill-opacity:1;fill-rule:evenodd;stroke:none"
         id="path7478"
         inkscape:connector-curvature="0" />
      <path
         d="m -290.91623,432.01778 c 0.942,0.179 1.382,-0.361 1.425,-1.017 0.105,-1.624 -2.342,-1.756 -2.444,-0.204 -0.051,0.781 0.312,1.089 1.019,1.221"
         style="fill:#050301;fill-opacity:1;fill-rule:evenodd;stroke:none"
         id="path7480"
         inkscape:connector-curvature="0" />
      <path
         d="m -385.72423,431.61278 c 0.162,-0.378 0.148,-1.068 -0.102,-1.326 -0.354,-0.325 -1.275,-0.254 -1.528,0.102 -0.656,1.211 0.873,2.034 1.63,1.224"
         style="fill:#050301;fill-opacity:1;fill-rule:evenodd;stroke:none"
         id="path7482"
         inkscape:connector-curvature="0" />
      <path
         d="m -346.41623,422.44778 c 4.141,0.659 7.84,-3.375 5.703,-7.638 -0.902,-1.802 -4.082,-3.922 -7.231,-2.344 -1.866,0.936 -4.021,3.883 -2.341,7.231 0.383,0.765 1.695,2.402 3.869,2.751"
         style="fill:#050301;fill-opacity:1;fill-rule:evenodd;stroke:none"
         id="path7484"
         inkscape:connector-curvature="0" />
      <path
         d="m -332.66923,422.44778 c 4.142,0.659 7.841,-3.375 5.702,-7.638 -0.901,-1.802 -4.082,-3.922 -7.23,-2.344 -1.865,0.936 -4.02,3.883 -2.344,7.231 0.387,0.765 1.698,2.402 3.872,2.751"
         style="fill:#050301;fill-opacity:1;fill-rule:evenodd;stroke:none"
         id="path7486"
         inkscape:connector-curvature="0" />
      <path
         d="m -359.96123,421.63078 c 2.68,0.458 4.977,-1.255 5.297,-3.666 0.378,-2.853 -1.883,-5.554 -5.092,-5.193 -2.363,0.266 -4.174,2.396 -3.869,5.091 0.221,1.976 1.637,3.422 3.664,3.768"
         style="fill:#050301;fill-opacity:1;fill-rule:evenodd;stroke:none"
         id="path7488"
         inkscape:connector-curvature="0" />
      <path
         d="m -318.92223,421.63078 c 2.68,0.458 4.977,-1.255 5.295,-3.666 0.378,-2.853 -1.882,-5.554 -5.092,-5.193 -2.36,0.266 -4.17,2.396 -3.869,5.091 0.221,1.976 1.639,3.422 3.666,3.768"
         style="fill:#050301;fill-opacity:1;fill-rule:evenodd;stroke:none"
         id="path7490"
         inkscape:connector-curvature="0" />
      <path
         d="m -373.40323,419.90078 c 4.702,0.931 4.057,-6.758 -0.406,-5.295 -2.023,0.662 -2.633,4.692 0.406,5.295"
         style="fill:#050301;fill-opacity:1;fill-rule:evenodd;stroke:none"
         id="path7492"
         inkscape:connector-curvature="0" />
      <path
         d="m -305.07223,419.90078 c 4.701,0.931 4.058,-6.758 -0.408,-5.295 -2.022,0.662 -2.631,4.692 0.408,5.295"
         style="fill:#050301;fill-opacity:1;fill-rule:evenodd;stroke:none"
         id="path7494"
         inkscape:connector-curvature="0" />
      <path
         d="m -385.72423,417.86278 c 0.162,-0.376 0.148,-1.064 -0.102,-1.323 -0.354,-0.326 -1.275,-0.256 -1.528,0.102 -0.656,1.212 0.873,2.032 1.63,1.221"
         style="fill:#050301;fill-opacity:1;fill-rule:evenodd;stroke:none"
         id="path7496"
         inkscape:connector-curvature="0" />
      <path
         d="m -289.89823,417.86278 c 0.162,-0.376 0.147,-1.064 -0.102,-1.323 -0.355,-0.326 -1.275,-0.256 -1.529,0.102 -0.653,1.212 0.873,2.032 1.631,1.221"
         style="fill:#050301;fill-opacity:1;fill-rule:evenodd;stroke:none"
         id="path7498"
         inkscape:connector-curvature="0" />
      <path
         d="m -346.11123,408.69978 c 5.82,0.716 7.914,-7.328 2.953,-9.777 -4.027,-1.989 -9.461,2.095 -7.026,7.027 0.533,1.081 1.782,2.468 4.073,2.75"
         style="fill:#050301;fill-opacity:1;fill-rule:evenodd;stroke:none"
         id="path7500"
         inkscape:connector-curvature="0" />
      <path
         d="m -332.77123,408.59778 c 3.864,0.658 7.573,-2.709 5.804,-7.027 -1.532,-3.746 -7.797,-4.34 -9.574,0 -0.348,0.857 -0.683,2.598 0.105,4.277 0.364,0.777 1.542,2.387 3.665,2.75"
         style="fill:#050301;fill-opacity:1;fill-rule:evenodd;stroke:none"
         id="path7502"
         inkscape:connector-curvature="0" />
      <path
         d="m -359.96123,407.88378 c 2.997,0.513 5.562,-1.627 5.195,-4.888 -0.31,-2.751 -2.812,-4.012 -4.99,-3.767 -2.572,0.288 -4.032,2.636 -3.768,4.99 0.22,1.961 1.452,3.305 3.563,3.665"
         style="fill:#050301;fill-opacity:1;fill-rule:evenodd;stroke:none"
         id="path7504"
         inkscape:connector-curvature="0" />
      <path
         d="m -318.71923,407.78178 c 1.559,0.212 2.889,-0.34 3.666,-1.12 0.254,-0.253 1.147,-1.696 1.223,-2.647 0.234,-2.917 -1.897,-4.559 -3.973,-4.685 -2.943,-0.178 -4.711,2.419 -4.582,4.582 0.081,1.332 0.768,2.294 1.223,2.75 0.426,0.424 1.301,0.964 2.443,1.12"
         style="fill:#050301;fill-opacity:1;fill-rule:evenodd;stroke:none"
         id="path7506"
         inkscape:connector-curvature="0" />
      <path
         d="m -373.50623,406.15378 c 4.67,1.081 4.096,-6.544 -0.303,-5.092 -1.83,0.601 -2.646,4.407 0.303,5.092"
         style="fill:#050301;fill-opacity:1;fill-rule:evenodd;stroke:none"
         id="path7508"
         inkscape:connector-curvature="0" />
      <path
         d="m -304.76623,406.05178 c 3.68,0.463 3.415,-4.99 0.305,-4.99 -2.997,0 -3.442,4.595 -0.305,4.99"
         style="fill:#050301;fill-opacity:1;fill-rule:evenodd;stroke:none"
         id="path7510"
         inkscape:connector-curvature="0" />
      <path
         d="m -385.72423,404.21878 c 0.162,-0.378 0.148,-1.066 -0.102,-1.325 -0.354,-0.326 -1.275,-0.254 -1.528,0.102 -0.656,1.211 0.873,2.034 1.63,1.223"
         style="fill:#050301;fill-opacity:1;fill-rule:evenodd;stroke:none"
         id="path7512"
         inkscape:connector-curvature="0" />
      <path
         d="m -346.01023,394.33978 c 6.448,0.739 6.568,-9.063 0.51,-9.063 -5.514,0 -6.153,8.417 -0.51,9.063"
         style="fill:#050301;fill-opacity:1;fill-rule:evenodd;stroke:none"
         id="path7514"
         inkscape:connector-curvature="0" />
      <path
         d="m -332.26123,394.23778 c 2.612,0.307 4.937,-1.553 4.99,-4.277 0.119,-6.156 -8.856,-5.694 -8.961,-0.204 -0.049,2.432 1.543,4.197 3.971,4.481"
         style="fill:#050301;fill-opacity:1;fill-rule:evenodd;stroke:none"
         id="path7516"
         inkscape:connector-curvature="0" />
      <path
         d="m -359.34923,393.72878 c 2.127,0.14 4.175,-1.465 4.175,-3.869 0,-5.246 -7.839,-4.904 -7.944,-0.103 -0.048,2.271 1.472,3.821 3.769,3.972"
         style="fill:#050301;fill-opacity:1;fill-rule:evenodd;stroke:none"
         id="path7518"
         inkscape:connector-curvature="0" />
      <path
         d="m -318.20923,393.42378 c 2.128,0.101 4.486,-1.969 3.565,-4.787 -1.366,-4.176 -8.506,-2.397 -6.922,2.445 0.332,1.024 0.443,0.974 0.912,1.425 0.485,0.467 1.342,0.863 2.445,0.917"
         style="fill:#050301;fill-opacity:1;fill-rule:evenodd;stroke:none"
         id="path7520"
         inkscape:connector-curvature="0" />
      <path
         d="m -373.09723,392.20078 c 3.492,0.448 3.372,-4.683 0.408,-4.786 -2.867,-0.097 -3.504,4.39 -0.408,4.786"
         style="fill:#050301;fill-opacity:1;fill-rule:evenodd;stroke:none"
         id="path7522"
         inkscape:connector-curvature="0" />
      <path
         d="m -346.21323,380.08378 c 4.383,0.779 6.088,-4.643 3.362,-6.925 -3.897,-3.259 -8.713,2.107 -5.704,5.703 0.521,0.621 1.237,1.025 2.342,1.222"
         style="fill:#050301;fill-opacity:1;fill-rule:evenodd;stroke:none"
         id="path7526"
         inkscape:connector-curvature="0" />
      <path
         d="m -332.46623,380.08378 c 4.384,0.779 6.088,-4.643 3.361,-6.925 -3.895,-3.259 -8.713,2.107 -5.702,5.703 0.522,0.621 1.237,1.025 2.341,1.222"
         style="fill:#050301;fill-opacity:1;fill-rule:evenodd;stroke:none"
         id="path7528"
         inkscape:connector-curvature="0" />
      <path
         d="m -359.65623,379.47178 c 4.605,0.711 5.141,-6.509 0.613,-6.618 -4.179,-0.101 -4.59,6.005 -0.613,6.618"
         style="fill:#050301;fill-opacity:1;fill-rule:evenodd;stroke:none"
         id="path7530"
         inkscape:connector-curvature="0" />
      <path
         d="m -318.61523,379.47178 c 4.603,0.711 5.139,-6.509 0.611,-6.618 -4.179,-0.101 -4.591,6.005 -0.611,6.618"
         style="fill:#050301;fill-opacity:1;fill-rule:evenodd;stroke:none"
         id="path7532"
         inkscape:connector-curvature="0" />
      <path
         d="m -373.30123,378.14978 c 2.702,0.605 3.51,-3.518 1.019,-3.972 -1.312,-0.24 -3.179,0.717 -2.444,2.851 0.127,0.372 0.593,0.933 1.425,1.121"
         style="fill:#050301;fill-opacity:1;fill-rule:evenodd;stroke:none"
         id="path7536"
         inkscape:connector-curvature="0" />
      <path
         d="m -331.85423,367.25178 c 4.931,0.16 6.4,-6.421 2.648,-8.758 -2.182,-1.358 -5.446,-0.357 -6.619,1.529 -2.007,3.221 0.401,7.113 3.971,7.229"
         style="fill:#050301;fill-opacity:1;fill-rule:evenodd;stroke:none"
         id="path7538"
         inkscape:connector-curvature="0" />
      <path
         d="m -345.70323,367.14978 c 3.275,0.183 5.981,-3.048 4.481,-6.517 -0.844,-1.946 -3.653,-3.451 -6.211,-2.342 -4.1,1.773 -3.469,8.571 1.73,8.859"
         style="fill:#050301;fill-opacity:1;fill-rule:evenodd;stroke:none"
         id="path7540"
         inkscape:connector-curvature="0" />
      <path
         d="m -318.92223,366.64078 c 2.563,0.47 4.674,-1.332 4.991,-3.258 0.978,-5.95 -7.557,-6.46 -8.35,-1.63 -0.441,2.683 1.278,4.508 3.359,4.888"
         style="fill:#050301;fill-opacity:1;fill-rule:evenodd;stroke:none"
         id="path7542"
         inkscape:connector-curvature="0" />
      <path
         d="m -359.34923,366.43778 c 2.127,0.139 4.175,-1.464 4.175,-3.87 0,-5.246 -7.839,-4.902 -7.944,-0.102 -0.048,2.271 1.472,3.82 3.769,3.972"
         style="fill:#050301;fill-opacity:1;fill-rule:evenodd;stroke:none"
         id="path7544"
         inkscape:connector-curvature="0" />
      <path
         d="m -304.97023,365.41978 c 2.328,0.396 4.337,-2.047 3.157,-4.277 -1.112,-2.103 -4.308,-1.867 -5.296,0 -0.285,0.54 -0.613,1.688 0,2.852 0.242,0.452 0.719,1.183 2.139,1.425"
         style="fill:#050301;fill-opacity:1;fill-rule:evenodd;stroke:none"
         id="path7546"
         inkscape:connector-curvature="0" />
      <path
         d="m -373.40323,365.01278 c 4.218,0.91 4.007,-5.742 0,-4.99 -1.991,0.372 -2.947,4.352 0,4.99"
         style="fill:#050301;fill-opacity:1;fill-rule:evenodd;stroke:none"
         id="path7548"
         inkscape:connector-curvature="0" />
      <path
         d="m -386.74223,363.58578 c 0.869,0.187 1.284,-0.302 1.323,-0.916 0.095,-1.451 -2.241,-1.724 -2.241,-0.102 0,0.524 0.274,0.881 0.918,1.018"
         style="fill:#050301;fill-opacity:1;fill-rule:evenodd;stroke:none"
         id="path7552"
         inkscape:connector-curvature="0" />
      <path
         d="m -345.90623,353.91078 c 2.891,0.236 5.56,-1.873 5.6,-4.989 0.044,-3.452 -2.731,-5.265 -5.092,-5.295 -5.884,-0.076 -6.461,7.289 -2.952,9.572 0.651,0.426 1.272,0.619 2.444,0.712"
         style="fill:#050301;fill-opacity:1;fill-rule:evenodd;stroke:none"
         id="path7554"
         inkscape:connector-curvature="0" />
      <path
         d="m -332.16023,353.91078 c 2.893,0.236 5.561,-1.873 5.6,-4.989 0.045,-3.452 -2.727,-5.265 -5.091,-5.295 -5.885,-0.076 -6.46,7.289 -2.952,9.572 0.652,0.426 1.275,0.619 2.443,0.712"
         style="fill:#050301;fill-opacity:1;fill-rule:evenodd;stroke:none"
         id="path7556"
         inkscape:connector-curvature="0" />
      <path
         d="m -359.65623,353.30078 c 6.448,0.739 6.568,-9.063 0.51,-9.063 -5.511,0 -6.153,8.417 -0.51,9.063"
         style="fill:#050301;fill-opacity:1;fill-rule:evenodd;stroke:none"
         id="path7558"
         inkscape:connector-curvature="0" />
      <path
         d="m -318.81823,353.30078 c 3.666,0.556 6.494,-3.087 4.887,-6.517 -1.659,-3.536 -6.965,-2.955 -8.35,0 -0.447,0.95 -0.741,2.493 0,4.073 0.473,1.01 1.468,2.143 3.463,2.444"
         style="fill:#050301;fill-opacity:1;fill-rule:evenodd;stroke:none"
         id="path7560"
         inkscape:connector-curvature="0" />
      <path
         d="m -305.27523,351.87578 c 1.853,0.427 3.662,-0.743 3.972,-2.241 0.472,-2.287 -1.322,-4.519 -3.972,-3.971 -2.773,0.572 -3.391,5.429 0,6.212"
         style="fill:#050301;fill-opacity:1;fill-rule:evenodd;stroke:none"
         id="path7562"
         inkscape:connector-curvature="0" />
      <path
         d="m -373.50623,351.77378 c 2.372,0.476 4.534,-1.388 3.667,-4.074 -1.033,-3.214 -7.352,-2.247 -5.905,2.242 0.219,0.681 0.855,1.554 2.238,1.832"
         style="fill:#050301;fill-opacity:1;fill-rule:evenodd;stroke:none"
         id="path7564"
         inkscape:connector-curvature="0" />
      <path
         d="m -387.04923,350.04278 c 2.45,0.834 2.364,-3.205 0,-2.546 -0.759,0.211 -1.406,2.067 0,2.546"
         style="fill:#050301;fill-opacity:1;fill-rule:evenodd;stroke:none"
         id="path7568"
         inkscape:connector-curvature="0" />
      <path
         d="m -345.70323,339.65578 c 2.371,0.131 4.721,-1.596 4.785,-4.379 0.143,-6.123 -9.164,-6.122 -9.164,-0.102 0,2.456 1.897,4.341 4.379,4.481"
         style="fill:#050301;fill-opacity:1;fill-rule:evenodd;stroke:none"
         id="path7570"
         inkscape:connector-curvature="0" />
      <path
         d="m -332.56823,339.45178 c 2.999,0.51 5.562,-1.627 5.195,-4.888 -0.309,-2.75 -2.811,-4.012 -4.99,-3.768 -2.572,0.288 -4.033,2.635 -3.768,4.99 0.221,1.96 1.452,3.306 3.563,3.666"
         style="fill:#050301;fill-opacity:1;fill-rule:evenodd;stroke:none"
         id="path7572"
         inkscape:connector-curvature="0" />
      <path
         d="m -360.06223,339.04378 c 0.729,0.147 1.761,0.051 2.24,-0.102 1.589,-0.506 3.451,-2.586 2.443,-5.295 -1.449,-3.901 -8.747,-3.064 -7.739,2.443 0.249,1.357 1.515,2.645 3.056,2.954"
         style="fill:#050301;fill-opacity:1;fill-rule:evenodd;stroke:none"
         id="path7574"
         inkscape:connector-curvature="0" />
      <path
         d="m -318.81823,338.73878 c 1.406,0.25 2.685,-0.241 3.359,-0.917 0.503,-0.504 1.416,-2.538 0.815,-4.073 -1.299,-3.313 -5.889,-2.646 -6.922,0 -0.799,2.031 0.458,4.583 2.748,4.99"
         style="fill:#050301;fill-opacity:1;fill-rule:evenodd;stroke:none"
         id="path7576"
         inkscape:connector-curvature="0" />
      <path
         d="m -373.50623,337.72078 c 4.669,1.082 4.098,-6.543 -0.303,-5.093 -1.83,0.604 -2.646,4.409 0.303,5.093"
         style="fill:#050301;fill-opacity:1;fill-rule:evenodd;stroke:none"
         id="path7578"
         inkscape:connector-curvature="0" />
      <path
         d="m -304.76623,337.51678 c 3.493,0.448 3.372,-4.686 0.407,-4.787 -2.867,-0.098 -3.505,4.39 -0.407,4.787"
         style="fill:#050301;fill-opacity:1;fill-rule:evenodd;stroke:none"
         id="path7580"
         inkscape:connector-curvature="0" />
      <path
         d="m -386.74223,336.29378 c 0.943,0.179 1.383,-0.361 1.426,-1.017 0.105,-1.624 -2.342,-1.757 -2.445,-0.205 -0.051,0.782 0.312,1.089 1.019,1.222"
         style="fill:#050301;fill-opacity:1;fill-rule:evenodd;stroke:none"
         id="path7582"
         inkscape:connector-curvature="0" />
      <path
         d="m -346.21323,324.27878 c 3.981,0.863 4.751,-4.979 1.425,-5.601 -2.193,-0.411 -4.009,1.132 -3.562,3.564 0.107,0.592 0.172,0.54 0.204,0.611 0.059,0.143 0.635,1.143 1.933,1.426"
         style="fill:#050301;fill-opacity:1;fill-rule:evenodd;stroke:none"
         id="path7586"
         inkscape:connector-curvature="0" />
      <path
         d="m -332.16023,324.17678 c 3.984,0.565 4.01,-5.397 0.408,-5.397 -3.274,0 -3.701,4.931 -0.408,5.397"
         style="fill:#050301;fill-opacity:1;fill-rule:evenodd;stroke:none"
         id="path7588"
         inkscape:connector-curvature="0" />
      <path
         d="m -359.75623,323.86978 c 3.492,0.777 3.932,-4.26 1.223,-4.786 -2.949,-0.571 -4.474,4.064 -1.223,4.786"
         style="fill:#050301;fill-opacity:1;fill-rule:evenodd;stroke:none"
         id="path7590"
         inkscape:connector-curvature="0" />
      <path
         d="m -318.61523,323.46378 c 2.7,0.606 3.508,-3.517 1.018,-3.972 -1.317,-0.241 -3.177,0.723 -2.444,2.852 0.127,0.372 0.594,0.933 1.426,1.12"
         style="fill:#050301;fill-opacity:1;fill-rule:evenodd;stroke:none"
         id="path7592"
         inkscape:connector-curvature="0" />
      <path
         d="m -373.30123,322.95378 c 1.268,0.315 1.823,-0.353 1.936,-1.12 0.322,-2.199 -3.3,-2.724 -3.057,-0.101 0.049,0.513 0.318,1.022 1.121,1.221"
         style="fill:#050301;fill-opacity:1;fill-rule:evenodd;stroke:none"
         id="path7594"
         inkscape:connector-curvature="0" />
      <path
         d="m -345.70323,308.79978 c 0.871,0.186 1.282,-0.301 1.323,-0.917 0.094,-1.451 -2.241,-1.723 -2.241,-0.102 0,0.524 0.274,0.881 0.918,1.019"
         style="fill:#050301;fill-opacity:1;fill-rule:evenodd;stroke:none"
         id="path7598"
         inkscape:connector-curvature="0" />
      <path
         d="m -331.03923,308.39178 c 0.163,-0.377 0.149,-1.066 -0.101,-1.324 -0.354,-0.326 -1.276,-0.255 -1.529,0.102 -0.656,1.212 0.873,2.033 1.63,1.222"
         style="fill:#050301;fill-opacity:1;fill-rule:evenodd;stroke:none"
         id="path7600"
         inkscape:connector-curvature="0" />
      <path
         d="m -280.36023,542.11678 c 0.581,0.228 1.169,0.04 1.319,-0.472 0.454,-1.542 -2.13,-1.91 -1.884,-0.187 0.028,0.184 0.099,0.474 0.565,0.659"
         style="fill:#050301;fill-opacity:1;fill-rule:evenodd;stroke:none"
         id="path15204"
         inkscape:connector-curvature="0" />
      <path
         d="m -284.69023,528.84178 c 0.581,0.227 1.167,0.038 1.319,-0.472 0.453,-1.542 -2.131,-1.908 -1.885,-0.19 0.027,0.188 0.099,0.477 0.566,0.662"
         style="fill:#050301;fill-opacity:1;fill-rule:evenodd;stroke:none"
         id="path15264"
         inkscape:connector-curvature="0" />
      <path
         d="m -279.88923,498.14878 c 0.872,0.164 1.279,-0.335 1.319,-0.941 0.098,-1.502 -2.165,-1.624 -2.26,-0.19 -0.047,0.723 0.288,1.008 0.941,1.131"
         style="fill:#050301;fill-opacity:1;fill-rule:evenodd;stroke:none"
         id="path15400"
         inkscape:connector-curvature="0" />
      <path
         d="m -270.94523,480.73078 c 1.068,0.232 1.56,-0.35 1.602,-1.13 0.091,-1.749 -2.637,-1.965 -2.637,-0.093 0,0.716 0.306,1.065 1.035,1.223"
         style="fill:#050301;fill-opacity:1;fill-rule:evenodd;stroke:none"
         id="path15474"
         inkscape:connector-curvature="0" />
      <path
         d="m -262.00123,463.12478 c 1.069,0.231 1.561,-0.351 1.602,-1.13 0.091,-1.749 -2.637,-1.965 -2.637,-0.094 0,0.718 0.307,1.067 1.035,1.224"
         style="fill:#050301;fill-opacity:1;fill-rule:evenodd;stroke:none"
         id="path15550"
         inkscape:connector-curvature="0" />
      <path
         d="m -253.05623,445.42578 c 1.025,0.235 1.464,-0.32 1.506,-1.038 0.097,-1.622 -2.448,-1.861 -2.448,-0.093 0,0.62 0.265,0.973 0.942,1.131"
         style="fill:#050301;fill-opacity:1;fill-rule:evenodd;stroke:none"
         id="path15624"
         inkscape:connector-curvature="0" />
      <path
         d="m -252.77323,400.89178 c 0.58,0.228 1.168,0.04 1.318,-0.469 0.453,-1.544 -2.131,-1.91 -1.883,-0.19 0.027,0.186 0.096,0.477 0.565,0.659"
         style="fill:#050301;fill-opacity:1;fill-rule:evenodd;stroke:none"
         id="path15784"
         inkscape:connector-curvature="0" />
      <path
         d="m -391.44423,452.66878 c 1.258,0.431 1.774,-0.238 1.902,-0.887 0.403,-2.076 -2.468,-2.401 -2.789,-0.759 -0.213,1.077 0.173,1.4 0.887,1.646"
         style="fill:#050301;fill-opacity:1;fill-rule:evenodd;stroke:none"
         id="path16668"
         inkscape:connector-curvature="0" />
      <path
         d="m -410.31623,443.93078 c 2.121,0.152 3.273,-2.707 1.775,-4.056 -3.035,-2.729 -6.234,3.731 -1.775,4.056"
         style="fill:#050301;fill-opacity:1;fill-rule:evenodd;stroke:none"
         id="path16712"
         inkscape:connector-curvature="0" />
      <path
         d="m -396.13123,438.35678 c 2.358,0.6 2.282,-2.809 0.507,-2.913 -1.634,-0.096 -2.375,2.436 -0.507,2.913"
         style="fill:#050301;fill-opacity:1;fill-rule:evenodd;stroke:none"
         id="path16738"
         inkscape:connector-curvature="0" />
      <path
         d="m -260.11323,457.82478 -46.474,-69.905 35.124,76.243 c 1.506,3.271 5.379,4.701 8.649,3.194 3.27,-1.507 4.7,-5.379 3.193,-8.65 -0.138,-0.299 -0.316,-0.614 -0.492,-0.882"
         style="fill:#050301;fill-opacity:1;fill-rule:nonzero;stroke:none"
         id="path17548"
         inkscape:connector-curvature="0" />
      <path
         d="m -289.62023,449.65678 -23.593,-57.093 15.046,59.915 c 0.608,2.417 3.059,3.884 5.476,3.277 2.417,-0.607 3.884,-3.058 3.277,-5.475 -0.053,-0.207 -0.128,-0.432 -0.206,-0.624"
         style="fill:#050301;fill-opacity:1;fill-rule:nonzero;stroke:none"
         id="path17550"
         inkscape:connector-curvature="0" />
      <path
         d="m -399.96823,440.54678 17.819,-53.824 -26.998,49.855 c -1.321,2.438 -0.414,5.484 2.023,6.805 2.439,1.32 5.485,0.414 6.805,-2.024 0.139,-0.257 0.261,-0.546 0.351,-0.812"
         style="fill:#050301;fill-opacity:1;fill-rule:nonzero;stroke:none"
         id="path17552"
         inkscape:connector-curvature="0" />
      <path
         d="m -314.43823,363.13778 c -1.514,8.2 -11.29,13.917 -23.949,14.457 -2.927,0.124 -6.009,-0.029 -9.176,-0.49 -18.079,-2.636 -31.909,-14.202 -29.691,-25.627 1.647,-8.481 11.558,-13.832 23.831,-14.354 4.197,-0.179 8.673,0.207 13.186,1.225 16.537,3.734 27.656,14.72 25.799,24.789"
         style="fill:#ffffff;fill-opacity:1;fill-rule:nonzero;stroke:none"
         id="path17554"
         inkscape:connector-curvature="0" />
      <path
         d="m -311.85823,363.61378 c 0.37,-2.055 0.291,-4.181 -0.17,-6.158 -0.464,-1.983 -1.252,-3.824 -2.212,-5.514 -1.982,-3.351 -4.593,-6.139 -7.486,-8.479 -2.9,-2.351 -6.13,-4.171 -9.451,-5.762 -3.325,-1.577 -6.839,-2.786 -10.42,-3.647 -3.609,-0.852 -7.247,-1.488 -11.104,-1.645 -3.708,-0.188 -7.625,0.09 -11.491,0.956 -3.869,0.873 -7.84,2.318 -11.444,5.05 -1.803,1.345 -3.507,3.03 -4.872,5.092 -1.376,2.042 -2.411,4.451 -2.896,6.953 -0.463,2.511 -0.385,5.137 0.152,7.553 0.589,2.407 1.565,4.597 2.787,6.494 2.532,3.744 5.68,6.521 9.037,8.628 3.363,2.108 6.89,3.636 10.451,4.835 3.556,1.213 7.175,2.072 10.821,2.613 3.655,0.517 7.318,0.706 11.044,0.47 3.643,-0.207 7.329,-0.909 10.897,-1.979 3.564,-1.105 7.063,-2.736 10.106,-5.235 1.512,-1.251 2.899,-2.732 4.005,-4.459 1.103,-1.703 1.911,-3.747 2.237,-5.724 l 0.009,-0.042 z m -4.851,-0.933 c -0.506,2.813 -2.234,5.231 -4.615,7.12 -2.377,1.885 -5.306,3.219 -8.375,4.098 -3.085,0.871 -6.299,1.353 -9.588,1.442 -3.234,0.105 -6.542,-0.168 -9.774,-0.735 -6.461,-1.133 -12.748,-3.617 -17.923,-7.439 -2.56,-1.921 -4.846,-4.197 -6.395,-6.818 -1.547,-2.61 -2.273,-5.555 -1.736,-8.356 0.446,-2.817 2.129,-5.375 4.498,-7.322 2.369,-1.96 5.321,-3.353 8.419,-4.286 3.113,-0.932 6.374,-1.423 9.701,-1.529 3.275,-0.108 6.62,0.139 9.888,0.706 3.279,0.57 6.494,1.452 9.579,2.677 3.088,1.211 5.972,2.902 8.555,4.894 2.532,2.05 4.749,4.475 6.206,7.194 0.715,1.359 1.256,2.769 1.548,4.186 0.288,1.419 0.289,2.845 0.005,4.206 l 0.007,-0.038"
         style="fill:#050301;fill-opacity:1;fill-rule:nonzero;stroke:none"
         id="path17556"
         inkscape:connector-curvature="0" />
      <path
         d="m -352.92123,401.28578 c 4.609,0.69 9.229,0.949 13.737,0.774 3.644,-0.144 7.192,-0.573 10.597,-1.27 3.578,38.626 14.316,107.062 23.385,141.673 -31.334,-1.342 -64.029,-2.659 -64.029,-2.659 -3.653,-40.746 -3.378,-101.538 -0.313,-142.983 5.21,2.073 10.808,3.597 16.623,4.465"
         style="fill:#ffffff;fill-opacity:1;fill-rule:nonzero;stroke:none"
         id="path17558"
         inkscape:connector-curvature="0" />
      <path
         d="m -351.99623,395.09978 c -2.609,-0.4 -5.195,-0.946 -7.737,-1.638 -1.273,-0.344 -2.531,-0.728 -3.781,-1.141 -1.256,-0.389 -2.5,-0.814 -3.731,-1.276 l -8.031,-2.952 -0.468,8.271 c -0.68,12.026 -1.041,24.021 -1.218,36.01 -0.172,11.99 -0.15,23.97 0.05,35.948 0.203,11.977 0.583,23.949 1.191,35.92 0.617,11.971 1.446,23.938 2.71,35.9 l 0.351,3.313 3.276,0.14 64.016,2.732 5.22,0.222 -1.314,-5.066 0,0 c -2.829,-11.476 -5.102,-23.189 -7.222,-34.913 -2.107,-11.735 -4.007,-23.52 -5.769,-35.324 -1.758,-11.804 -3.372,-23.632 -4.825,-35.471 -1.444,-11.833 -2.752,-23.691 -3.71,-35.502 l -0.495,-6.103 -6.229,1.113 -0.001,0 c -1.835,0.294 -3.684,0.502 -5.541,0.625 -0.928,0.077 -1.865,0.129 -2.732,0.165 -1.023,0.035 -1.896,0.054 -2.847,0.043 -1.866,-0.014 -3.735,-0.107 -5.597,-0.277 -0.932,-0.087 -1.863,-0.192 -2.791,-0.314 l -1.38,-0.198 -1.429,-0.234 0.034,0.007 z m -1.209,8.161 c 2.042,0.293 4.15,0.514 6.231,0.647 2.087,0.129 4.182,0.173 6.276,0.129 1.041,-0.017 2.106,-0.073 3.123,-0.135 1.065,-0.075 2.108,-0.162 3.149,-0.282 2.083,-0.235 4.159,-0.562 6.213,-0.989 l 0.002,0 -2.246,-1.667 c 1.161,11.961 2.664,23.861 4.304,35.74 1.647,11.878 3.455,23.73 5.406,35.559 1.955,11.828 4.05,23.634 6.354,35.404 2.321,11.767 4.788,23.51 7.851,35.147 l 0.001,0.001 1.399,-1.734 -64.031,-2.731 1.392,1.324 c -1.004,-11.847 -1.579,-23.738 -1.942,-35.637 -0.357,-11.899 -0.485,-23.807 -0.439,-35.715 0.05,-11.908 0.277,-23.815 0.696,-35.712 0.424,-11.897 1.032,-23.786 1.951,-35.638 l -2.781,1.739 0,0 c 5.499,2.172 11.243,3.688 17.08,4.548 l 0.011,0.002"
         style="fill:#050301;fill-opacity:1;fill-rule:nonzero;stroke:none"
         id="path17560"
         inkscape:connector-curvature="0" />
    </g>
  </g>
</svg>
