<?xml version="1.0" encoding="UTF-8" standalone="no"?>
<!-- Created with Inkscape (http://www.inkscape.org/) -->

<svg
   xmlns:dc="http://purl.org/dc/elements/1.1/"
   xmlns:cc="http://creativecommons.org/ns#"
   xmlns:rdf="http://www.w3.org/1999/02/22-rdf-syntax-ns#"
   xmlns:svg="http://www.w3.org/2000/svg"
   xmlns="http://www.w3.org/2000/svg"
   xmlns:sodipodi="http://sodipodi.sourceforge.net/DTD/sodipodi-0.dtd"
   xmlns:inkscape="http://www.inkscape.org/namespaces/inkscape"
   width="250"
   height="342.78714"
   id="svg2"
   version="1.1"
   inkscape:version="0.48.4 r9939"
   sodipodi:docname="drawing4.svg">
  <defs
     id="defs4" />
  <sodipodi:namedview
     id="base"
     pagecolor="#888888"
     bordercolor="#666666"
     borderopacity="1.0"
     inkscape:pageopacity="1"
     inkscape:pageshadow="2"
     inkscape:zoom="0.76351725"
     inkscape:cx="211.95389"
     inkscape:cy="-24.680818"
     inkscape:document-units="px"
     inkscape:current-layer="layer1"
     showgrid="false"
     fit-margin-top="0"
     fit-margin-left="0"
     fit-margin-right="0"
     fit-margin-bottom="0"
     inkscape:window-width="1615"
     inkscape:window-height="1026"
     inkscape:window-x="1431"
     inkscape:window-y="24"
     inkscape:window-maximized="1" />
  <metadata
     id="metadata7">
    <rdf:RDF>
      <cc:Work
         rdf:about="">
        <dc:format>image/svg+xml</dc:format>
        <dc:type
           rdf:resource="http://purl.org/dc/dcmitype/StillImage" />
        <dc:title />
      </cc:Work>
    </rdf:RDF>
  </metadata>
  <g
     inkscape:label="Layer 1"
     inkscape:groupmode="layer"
     id="layer1"
     transform="translate(-1196.6163,-36.298246)">
    <g
       transform="matrix(1.6196723,0,0,1.6196723,700.87307,223.12504)"
       id="g3292">
      <path
         inkscape:connector-curvature="0"
         d="m 380.51002,-58.838695 c -3.72125,0 -4.57125,3.6575 -4.57125,8.365 0,4.7075 0.85,8.36375 4.57125,8.36375 3.72,0 4.5675,-3.65625 4.5675,-8.36375 0,-4.7075 -0.8475,-8.365 -4.5675,-8.365"
         style="fill:#3d464c;fill-opacity:1;fill-rule:nonzero;stroke:none"
         id="path3033" />
      <path
         inkscape:connector-curvature="0"
         d="m 338.95252,-58.838695 c -3.72375,0 -4.57125,3.6575 -4.57125,8.365 0,4.7075 0.8475,8.36375 4.57125,8.36375 3.7175,0 4.5675,-3.65625 4.5675,-8.36375 0,-4.7075 -0.85,-8.365 -4.5675,-8.365"
         style="fill:#3d464c;fill-opacity:1;fill-rule:nonzero;stroke:none"
         id="path3035" />
      <path
         inkscape:connector-curvature="0"
         d="m 374.61377,-26.801945 c -9.83875,0.70063 -19.7175,0.70063 -29.55625,0 -0.84875,-0.0586 -1.59125,0.57125 -1.66,1.4185 -0.0663,0.84712 0.57875,1.58925 1.44125,1.65038 9.985,0.71287 20.00625,0.71287 29.995,0 0.86125,-0.0611 1.50625,-0.80326 1.4375,-1.65038 -0.0687,-0.84725 -0.8075,-1.47713 -1.6575,-1.4185"
         style="fill:#3d464c;fill-opacity:1;fill-rule:nonzero;stroke:none"
         id="path3037" />
      <path
         inkscape:connector-curvature="0"
         d="m 460.35377,-37.353695 c -2.88375,-6.2325 -9.1725,-10.335 -11.3475,-11.61125 l 6.01,-10.13875 c 0.13,-0.22 0.14875,-0.48875 0.0512,-0.72375 -1.59125,-3.87375 -6.39625,-4.81125 -6.59875,-4.8475 -0.295,-0.0513 -0.59125,0.0537 -0.77875,0.2825 l -11.94375,14.5875 c -6.0175,8.90125 -3.835,14.985 -3.245,16.27875 -0.1025,0.15625 -0.21,0.31125 -0.3025,0.47625 -0.295,0.515 -0.69125,1.16 -1.0525,1.74625 l -1.13,1.80125 c -0.76375,1.199 -1.5475,2.39525 -2.34125,3.577 -1.59375,2.36562 -3.24,4.68987 -4.94625,6.94325 -1.70625,2.24863 -3.47125,4.42875 -5.305,6.4625 -3.40375,3.7718699 -7.13875,7.1508699 -11.995,8.8768699 -2.4025,0.85213 -5.03875,1.40138 -7.76125,1.70175 -2.72375,0.30025 -5.53875,0.35638 -8.36875,0.22213 -2.615,-0.127 -5.3225,-0.43212 -7.85125,-0.8935 -0.3325,-0.691 -0.7225,-1.35988 -1.175,-1.99713 20.1075,-5.0635 24.93625,-18.0028699 24.93625,-29.2503699 l 0,-9.55625 c 14.5825,-19.27 5.78375,-51.1225 2.77875,-58.028755 -3.04375,-7 -6.785,-10.1125 -13.87625,-11.73875 -23.175,-5.3225 -63.975,0.15875 -76.14125,5.79125 -6.5675,3.04125 -11.40625,10.433755 -11.8775,32.963755 -0.36125,17.22125 5.415,26.68375 8.1575,30.1925 l 0,10.37625 c 0,11.21575 4.85375,24.1136199 25.03625,29.2063699 -0.4125,0.5665 -0.77875,1.15488 -1.09625,1.76513 -0.3975,0.12463 -0.7275,0.24913 -1.05,0.38337 -0.64375,0.27101 -1.25,0.581 -1.82875,0.918 -1.15625,0.67862999 -2.20625,1.46962999 -3.17375,2.32412999 -1.935,1.71875001 -3.545,3.69150001 -4.93625,5.74950001 -2.77625,4.1406201 -4.72125,8.6303701 -6.27375,13.1616201 -1.54375,4.5435 -2.67375,9.16263 -3.5625,13.79401 -0.69625,3.64262 -1.235,7.29487 -1.6675,10.94975 -0.1075,0.0781 -0.1975,0.17812 -0.25375,0.30274 -0.14625,0.3075 -3.49125,7.71238 0.0125,16.91888 0.075,0.20262 0.23125,0.36625 0.42875,0.4565 0.255,0.10988 6.2975,2.74425 13.40125,2.74425 0.46625,0 0.83,-0.36388 0.83,-0.813 0,-0.0758 -0.01,-0.149 -0.0288,-0.21738 -0.0487,-0.73975 -0.25125,-3.97449 -0.2075,-7.22162 l 0.32625,0.77875 c 0.1275,0.30275 0.42,0.49812 0.75,0.49812 0.1125,0 2.7975,-0.0171 4.24875,-1.68212 0.15625,-0.18075 0.22625,-0.42 0.1925,-0.65675 -0.0387,-0.24413 -0.9325,-6.05475 -3.82125,-11.07175 -0.0687,-0.11963 -0.17125,-0.21 -0.2875,-0.28075 -0.29375,-3.17875 -0.49375,-6.3575 -0.56875,-9.524 -0.1,-4.231 0.0188,-8.44475 0.4925,-12.57325 0.47875,-4.11863 1.30625,-8.17375 2.76875,-11.875 0.65,-1.6283701 1.435,-3.1762501 2.375,-4.5727501 l -1.98,30.5786201 c 0,6.57225 4.1775,7.82713 10.1425,8.0395 -0.25875,2.27063 -0.48875,4.53625 -0.70375,6.8165 -0.4175,4.45551 -0.75875,8.92088 -1.025,13.39351 -0.445,7.45612 -0.67375,14.93899 -0.68875,22.43898 -4.7875,2.21191 -4.2775,7.29493 -4.08875,9.00635 0.0238,0.23194 0.24875,0.41504 0.4775,0.41504 l 17.26875,0 c 0.23125,0 0.44375,-0.18555 0.46625,-0.41504 0.14125,-1.48437 0.64625,-6.41846 -3.1525,-8.77441 -0.8075,-7.50005 -1.39125,-15.04393 -1.7525,-22.6148 -0.2075,-4.37988 -0.34375,-8.77188 -0.4025,-13.164 -0.03,-2.3535 -0.0387,-4.71925 -0.0225,-7.07525 0.0863,-0.002 0.16875,-0.002 0.25375,-0.002 l 17.16125,0 c 0.085,0 0.16875,0 0.25375,0.002 0.0175,2.356 0.007,4.72175 -0.0225,7.07525 -0.06,4.39212 -0.1975,8.78412 -0.405,13.164 -0.36125,7.59775 -0.95,15.171 -1.76,22.69536 -2.46375,2.38038 -2.86125,7.19239 -2.7175,8.69385 0.02,0.22949 0.235,0.41504 0.46625,0.41504 l 26.71375,0 c 0.2325,0 0.455,-0.1831 0.47875,-0.41504 0.2075,-1.87743 -0.69125,-8.66455 -13.96,-9.93164 -0.0312,-7.18994 -0.26625,-14.36282 -0.68875,-21.51369 -0.2675,-4.47263 -0.6075,-8.938 -1.025,-13.39351 -0.215,-2.28025 -0.44625,-4.54587 -0.7025,-6.8165 5.96375,-0.21237 10.14125,-1.46725 10.14125,-8.0395 l -2.0025,-30.9301201 c 0,-0.70312 -0.0337,-1.399 -0.0975,-2.0825 1.7875,0.5615 3.57875,1.04238 5.4275,1.46475 3.04875,0.68363 6.17375,1.17188 9.3875,1.37937 3.21,0.20275 6.51875,0.12463 9.885,-0.42962 3.48625,-0.58113 6.8875,-1.67488 9.985,-3.38625 3.1425,-1.77000001 5.71125,-3.7085 8.2175,-5.75688 2.48125,-2.04824 4.8025,-4.18449 7.03875,-6.3745 2.23625,-2.1898699 4.3825,-4.4359899 6.4725,-6.7259999 1.045,-1.14749 2.075,-2.30475 3.09375,-3.47899 l 1.5175,-1.77738 c 0.50375,-0.59813 0.9675,-1.14988 1.505,-1.82613 0.0337,-0.002 0.07,-0.002 0.105,-0.007 12.15,-2.251 14.765,-12.971 14.79,-13.0785 0.0412,-0.17625 0.0213,-0.36125 -0.0538,-0.525 z m -126.63375,92.69525 c -0.67375,0.56163 -1.6475,0.76175 -2.24125,0.8325 l -1.48375,-3.54238 c -0.145,-0.34187 -0.50875,-0.542 -0.8725,-0.48837 -0.36875,0.0562 -0.65125,0.354 -0.68625,0.72513 -0.35125,3.58399 -0.13125,8.35212 -0.0163,10.30762 -5.515,-0.17825 -10.325,-1.96775 -11.5675,-2.46575 -2.65625,-7.3145 -0.65875,-13.47175 -0.0788,-14.9805 2.67625,-0.62012 5.27875,-0.93513 7.7425,-0.93513 3.0975,0 5.115,0.50788 5.805,0.71288 2.2025,3.95512 3.1525,8.4815 3.39875,9.834 z m 26.39625,-60.1952501 -0.12125,0 c -28.33125,0 -43.30625,-10.0293799 -43.30625,-29.0062499 l 0,-32.44375 c 0.8225,-12.0825 1.7775,-18.5425 1.7775,-18.5425 0,0 3.08375,3.3225 12.8075,3.79375 20.80375,1.015 66.27875,-10.315 66.27875,-10.315 2.53,6.2725 4.1625,13.47375 5.2175,20.38625 l 0,37.12125 c 0,19.21862 -14.35,28.9793699 -42.65375,29.0062499 z m 85.45375,-20.5419999 c -1.0175,-0.48587 -5.575,-2.83938 -11.56875,-8.7555 -0.38875,-0.8075 -2.6275,-6.28625 3.04625,-14.6825 l 11.5775,-14.135 c 1.0525,0.29 3.655,1.20875 4.7775,3.4025 l -6.21875,10.48875 c -0.11375,0.19 -0.14375,0.42 -0.0825,0.635 0.0612,0.215 0.2075,0.3925 0.405,0.4975 0.0788,0.0425 7.96125,4.23125 11.2475,11.01375 -0.45125,1.59125 -3.2025,9.56287 -13.18375,11.5355"
         style="fill:#3d464c;fill-opacity:1;fill-rule:nonzero;stroke:none"
         id="path3039" />
      <path
         inkscape:connector-curvature="0"
         d="m 449.32002,-34.882445 c 0.4425,-0.48375 0.82125,-1.01125 1.14125,-1.5625 0.32125,-0.55 0.59,-1.12625 0.805,-1.7125 0.2125,-0.59 0.37875,-1.18875 0.47375,-1.80375 l -0.13375,-0.0312 c -0.19375,0.57375 -0.46375,1.12 -0.76,1.64 -0.3025,0.5175 -0.64625,1.00875 -1.025,1.4525 -0.38375,0.45 -0.80375,0.8525 -1.2575,1.20375 -0.38875,0.3025 -0.8075,0.55625 -1.2375,0.77125 l -2.1925,-1.89625 -0.46375,-0.615 -1.065,-1.41375 3.12,-4.71 -0.105,-0.0925 -3.955,3.56375 -4.055,-5.38 4.11875,8.16375 c -0.2125,0.1325 -0.42,0.26625 -0.6275,0.4 -0.4275,0.29125 -0.8525,0.58125 -1.265,0.88375 -0.4225,0.30375 -0.835,0.61375 -1.245,0.92375 -0.315,0.24375 -0.6225,0.4925 -0.93,0.74375 l -4.43625,-2.505 4.13125,3.78 0.25875,0.23625 0.45625,-0.22125 c 0.46625,-0.225 0.925,-0.46375 1.3775,-0.71125 0.45375,-0.24625 0.905,-0.4975 1.35,-0.75875 0.44625,-0.25625 0.88625,-0.525 1.325,-0.80125 0.325,-0.2075 0.65,-0.4225 0.97,-0.64875 l 8.7225,5.99875 0.0837,-0.1075 -4.51,-3.90375 c 0.335,-0.27875 0.6475,-0.5725 0.93,-0.88625"
         style="fill:#3d464c;fill-opacity:1;fill-rule:nonzero;stroke:none"
         id="path3041" />
    </g>
    <path
       style="fill:#ffffff"
       d="m 69.736194,177.16746 c -20.658241,-2.17877 -36.577983,-9.80028 -44.872479,-21.48254 -5.922666,-8.34168 -7.013159,-15.99188 -6.988259,-49.02508 0.02032,-26.953651 1.438191,-53.067151 2.964221,-54.593181 0.273615,-0.273615 3.312933,0.461839 6.75404,1.634342 5.134239,1.749412 9.8142,2.00155 26.089236,1.40559 20.232757,-0.740885 40.422558,-3.769119 75.496127,-11.323537 9.72473,-2.094589 18.05092,-3.411473 18.50263,-2.926409 1.1791,1.266135 4.64733,12.80388 6.28846,20.919754 0.79785,3.94556 1.40347,22.636895 1.40347,43.315141 0,41.32786 -0.53161,44.40015 -9.43234,54.51191 -8.72333,9.91023 -21.55841,15.26014 -42.30192,17.63226 -13.239636,1.51401 -19.010918,1.50239 -33.903186,-0.0682 l 0,-2e-5 z m 43.925246,-29.66834 c 3.62824,-3.6341 -1.03246,-4.31367 -27.142481,-3.95765 -21.80484,0.29733 -26.100608,0.66952 -26.100608,2.26144 0,3.16569 5.509491,3.8446 29.078604,3.58322 15.990265,-0.17732 23.004415,-0.72506 24.164485,-1.88701 z m -55.803012,-31.0465 c 2.633662,-2.63367 3.214787,-4.51657 3.214787,-10.4162 0,-11.379299 -3.727565,-16.670622 -10.279065,-14.591257 -3.490234,1.107758 -5.437672,6.333444 -5.437672,14.591257 0,5.89963 0.581125,7.78253 3.214786,10.4162 1.768133,1.76813 3.857745,3.21478 4.643582,3.21478 0.785837,0 2.875449,-1.44665 4.643582,-3.21478 z m 68.873642,-1.03663 c 1.82838,-3.41635 1.80178,-16.944547 -0.0401,-20.3861 -2.03116,-3.795253 -6.21525,-4.782943 -9.93548,-2.345356 -6.02245,3.946063 -5.68005,22.115206 0.47459,25.183636 3.81707,1.90301 7.70753,0.89889 9.50097,-2.45218 l 10e-6,0 z"
       id="path2988"
       inkscape:connector-curvature="0"
       transform="translate(1196.6163,36.298246)" />
    <path
       style="fill:#ffffff"
       d="m 25.361922,286.76642 c -3.433326,-0.92351 -6.665453,-2.10215 -7.182504,-2.6192 -1.404581,-1.40458 -1.91902,-19.49625 -0.60927,-21.42664 1.362596,-2.00828 13.1148,-3.59135 17.845889,-2.40393 3.263734,0.81915 6.189509,5.66017 8.155878,13.49481 0.894441,3.56373 -1.791566,4.20304 -3.072489,0.73129 -1.282549,-3.47615 -3.548151,-4.43132 -4.546109,-1.91663 -0.489805,1.23423 -0.93198,5.33829 -0.98261,9.12013 -0.10212,7.62816 -0.03788,7.59459 -9.608785,5.02017 z"
       id="path2990"
       inkscape:connector-curvature="0"
       transform="translate(1196.6163,36.298246)" />
    <path
       style="fill:#ffffff"
       d=""
       id="path2992"
       inkscape:connector-curvature="0"
       transform="translate(1196.6163,36.298246)" />
    <path
       style="fill:#ffffff"
       d=""
       id="path2994"
       inkscape:connector-curvature="0"
       transform="translate(1196.6163,36.298246)" />
    <path
       style="fill:#ffffff"
       d="m 235.25273,135.33733 c -3.27919,-3.41999 -3.28169,-3.44177 -0.86901,-7.57285 1.33081,-2.27865 2.15125,-4.88532 1.82321,-5.79261 -0.35044,-0.96924 -1.28062,-0.19381 -2.25529,1.8801 -2.15053,4.5759 -5.00826,5.59311 -8.03014,2.85834 -2.34739,-2.12436 -2.33873,-2.31677 0.29623,-6.58022 2.98275,-4.82619 1.67241,-5.9225 -2.09848,-1.75571 -2.3744,2.62367 -2.40301,2.61592 -6.04354,-1.63716 -4.34833,-5.07998 -4.73129,-4.09981 -1.14485,2.93018 3.25691,6.38407 3.25142,6.8336 -0.10903,8.93224 -2.28076,1.42435 -3.23185,1.37416 -5.79594,-0.3059 -2.32929,-1.52621 -3.2482,-1.62406 -3.81856,-0.40662 -0.41311,0.88178 -0.41164,-1.34365 0.003,-4.9454 0.4149,-3.60175 1.9011,-8.52066 3.30269,-10.9309 2.99664,-5.15321 19.78896,-26.184767 21.00693,-26.310159 0.46046,-0.0474 2.0867,0.945221 3.61385,2.205834 l 2.77666,2.292024 -5.46795,9.081713 -5.46795,9.081718 3.16382,1.97718 c 1.74011,1.08745 6.28638,5.12133 10.10283,8.96419 l 6.93899,6.98702 -2.96546,5.27633 c -4.07765,7.2552 -5.17749,7.71793 -8.96226,3.77066 z"
       id="path2996"
       inkscape:connector-curvature="0"
       transform="translate(1196.6163,36.298246)" />
    <path
       style="fill:#ffffff"
       d="m 220.06052,141.1445 c -6.40517,-4.28466 -12.29776,-9.78188 -12.29776,-11.47262 0,-0.71114 1.51004,0.12562 3.35564,1.85947 3.27871,3.08019 3.44628,3.10043 7.30964,0.88317 2.17471,-1.24811 4.54662,-2.26929 5.27092,-2.26929 1.80234,0 12.87782,8.04698 12.87782,9.35648 0,1.31536 -7.0814,5.05053 -9.57515,5.05053 -1.01578,0 -4.13928,-1.53349 -6.94111,-3.40774 z"
       id="path2998"
       inkscape:connector-curvature="0"
       transform="translate(1196.6163,36.298246)" />
    <path
       style="fill:#000000"
       d="m 51.905116,339.63668 c 0,-3.36883 3.365385,-10.00656 5.420773,-10.69169 1.066162,-0.35539 1.848299,-8.02181 2.517447,-24.67574 0.533909,-13.28808 1.397688,-29.2297 1.919507,-35.42578 l 0.948762,-11.26563 -5.717292,-0.76686 c -3.745689,-0.5024 -6.568591,-1.81152 -8.185905,-3.79623 -2.63573,-3.23448 -2.634944,-1.6729 -0.02293,-45.59557 l 0.739932,-12.44241 -2.566812,4.00458 c -5.016535,7.82649 -7.293801,20.77879 -7.240436,41.18104 l 0.04968,18.99105 -11.61269,0.12783 c -13.573391,0.14935 -12.819019,1.59105 -9.123045,-17.43523 5.675044,-29.21422 16.058219,-49.61851 29.026621,-57.04111 6.92642,-3.9644 7.271962,-5.73687 1.483289,-7.60856 -24.636215,-7.96586 -35.619016,-23.25008 -35.619016,-49.56928 0,-10.18838 -0.421282,-12.06342 -4.6193246,-20.5596 C 3.3714204,95.061537 0.86543954,83.009473 0.89415507,66.623412 0.93903801,41.01166 6.7525752,21.867191 16.429844,15.463078 26.101938,9.0623892 60.159027,2.5932894 92.506687,1.0123806 111.57359,0.08053504 133.58696,1.8291594 144.83313,5.1689117 c 17.1936,5.1059503 25.68921,23.2157093 27.19172,57.9635003 0.93396,21.599181 -0.75503,32.061193 -7.14388,44.250818 -4.38213,8.36088 -4.78101,10.09474 -5.53773,24.07172 -0.6567,12.12932 -1.41802,16.26372 -3.91025,21.23468 -5.67117,11.31166 -16.44851,19.97597 -30.51053,24.52857 -2.70132,0.87456 -4.91148,2.06162 -4.91148,2.6379 0,3.94942 11.99039,5.65615 28.07672,3.99648 14.25064,-1.47028 21.85247,-5.44835 32.47975,-16.9968 8.70509,-9.45964 23.02118,-29.96081 24.62904,-35.26968 0.56948,-1.88032 1.08181,-2.42569 1.14397,-1.21775 0.15333,2.97992 16.99818,15.44024 21.06822,15.58442 2.07266,0.0735 2.55333,0.39649 1.30973,0.8803 -1.08053,0.42037 -9.33181,8.25361 -18.33619,17.40721 -26.19003,26.62402 -37.2599,32.27502 -60.85338,31.06476 -7.23044,-0.37091 -15.65491,-1.42765 -18.72105,-2.34832 -3.06613,-0.92069 -5.90826,-1.34049 -6.31583,-0.93292 -0.40757,0.40756 -0.0973,9.78469 0.68951,20.83806 2.37018,33.29754 2.27757,37.46103 -0.90401,40.64261 -1.51473,1.51473 -5.00983,3.12874 -7.76689,3.58669 -4.55549,0.75667 -4.99627,1.18745 -4.83136,4.72178 0.0998,2.13903 0.93699,17.58432 1.8604,34.32285 l 1.67893,30.43372 4.68824,0.84941 c 9.88886,1.79164 17.13066,7.22451 17.13066,12.85156 0,1.77825 -2.87104,2.0507 -21.61051,2.0507 -21.540143,0 -21.610489,-0.009 -21.602446,-2.94689 0.0045,-1.62079 0.967557,-4.71502 2.140265,-6.87607 2.499093,-4.60531 5.545591,-36.58807 5.645271,-59.2652 l 0.0648,-14.73444 -15.219835,0 -15.219836,0 0.881122,18.00876 c 1.826594,37.33269 3.417921,51.71709 6.098382,55.12474 1.377487,1.7512 2.504521,4.87264 2.504521,6.93654 l 0,3.75256 -14.407009,0 c -13.65021,0 -14.407009,-0.14102 -14.407009,-2.6845 z M 116.7057,176.54039 c 18.71913,-3.78417 32.06788,-13.56506 37.18725,-27.2478 2.60264,-6.95618 2.79041,-9.9183 2.79041,-44.01686 0,-20.797238 -0.6048,-39.551061 -1.40285,-43.499332 -1.8587,-9.195881 -6.4392,-23.31214 -7.56441,-23.31214 -0.49243,0 -8.65934,1.750618 -18.14869,3.890262 -36.924858,8.325756 -55.85175,10.981157 -78.972022,11.079598 -18.153539,0.07729 -22.325444,-0.275543 -26.079739,-2.20569 -2.458074,-1.263737 -4.653765,-2.113164 -4.879313,-1.887615 -1.644218,1.644218 -3.244404,37.782178 -2.811955,63.504097 0.46846,27.86377 0.798261,31.65868 3.211713,36.95607 7.511539,16.48741 24.442827,26.08857 50.769543,28.78967 13.020835,1.33594 33.724223,0.41115 45.900063,-2.05026 l 0,0 z"
       id="path2995"
       inkscape:connector-curvature="0"
       transform="translate(1196.6163,36.298246)" />
    <path
       style="fill:#000000"
       d="m 49.959724,116.56908 c -3.49096,-2.55265 -4.455087,-16.54434 -1.455478,-21.122323 4.960082,-7.570041 11.259238,-1.916609 11.259238,10.105053 0,5.82065 -0.604519,8.17147 -2.619456,10.18641 -3.099504,3.0995 -3.947614,3.19758 -7.184304,0.83086 z"
       id="path2997"
       inkscape:connector-curvature="0"
       transform="translate(1196.6163,36.298246)" />
    <path
       style="fill:#000000"
       d="m 117.49714,116.0871 c -5.65753,-4.58118 -4.66283,-21.407032 1.37889,-23.324598 8.25314,-2.619447 12.04339,18.671738 4.24564,23.849248 -2.38532,1.58379 -3.10344,1.51681 -5.62453,-0.52465 z"
       id="path2999"
       inkscape:connector-curvature="0"
       transform="translate(1196.6163,36.298246)" />
    <path
       style="fill:#000000"
       d="m 63.133565,147.30866 c -5.114893,-2.00373 1.862286,-2.75643 25.551056,-2.75643 21.238389,0 27.263789,0.88262 21.396279,3.1342 -2.96044,1.13602 -43.924532,0.8064 -46.947335,-0.37777 z"
       id="path3001"
       inkscape:connector-curvature="0"
       transform="translate(1196.6163,36.298246)" />
  </g>
</svg>
