<?xml version="1.0" encoding="UTF-8" standalone="no"?>
<!-- Created with Inkscape (http://www.inkscape.org/) -->

<svg
   xmlns:dc="http://purl.org/dc/elements/1.1/"
   xmlns:cc="http://creativecommons.org/ns#"
   xmlns:rdf="http://www.w3.org/1999/02/22-rdf-syntax-ns#"
   xmlns:svg="http://www.w3.org/2000/svg"
   xmlns="http://www.w3.org/2000/svg"
   xmlns:sodipodi="http://sodipodi.sourceforge.net/DTD/sodipodi-0.dtd"
   xmlns:inkscape="http://www.inkscape.org/namespaces/inkscape"
   width="250"
   height="360.60455"
   id="svg2"
   version="1.1"
   inkscape:version="0.48.4 r9939"
   sodipodi:docname="drawing16.svg">
  <defs
     id="defs4" />
  <sodipodi:namedview
     id="base"
     pagecolor="#888888"
     bordercolor="#666666"
     borderopacity="1.0"
     inkscape:pageopacity="1"
     inkscape:pageshadow="2"
     inkscape:zoom="0.58"
     inkscape:cx="-42.089366"
     inkscape:cy="42.96313"
     inkscape:document-units="px"
     inkscape:current-layer="layer1"
     showgrid="false"
     fit-margin-top="0"
     fit-margin-left="0"
     fit-margin-right="0"
     fit-margin-bottom="0"
     inkscape:window-width="1615"
     inkscape:window-height="1026"
     inkscape:window-x="1431"
     inkscape:window-y="24"
     inkscape:window-maximized="1" />
  <metadata
     id="metadata7">
    <rdf:RDF>
      <cc:Work
         rdf:about="">
        <dc:format>image/svg+xml</dc:format>
        <dc:type
           rdf:resource="http://purl.org/dc/dcmitype/StillImage" />
        <dc:title />
      </cc:Work>
    </rdf:RDF>
  </metadata>
  <g
     inkscape:label="Layer 1"
     inkscape:groupmode="layer"
     id="layer1"
     transform="translate(604.79175,-214.72075)">
    <g
       transform="matrix(1.7038533,0,0,1.7038533,-2083.6702,-840.79322)"
       id="g3570">
      <path
         inkscape:connector-curvature="0"
         d="m 942.39347,692.72574 c 3.72,0 4.5675,-3.65625 4.5675,-8.365 0,-4.70625 -0.8475,-8.36375 -4.5675,-8.36375 -3.72125,0 -4.57,3.6575 -4.57,8.36375 0,4.70875 0.84875,8.365 4.57,8.365"
         style="fill:#3d464c;fill-opacity:1;fill-rule:nonzero;stroke:none"
         id="path3259" />
      <path
         inkscape:connector-curvature="0"
         d="m 900.83472,675.99699 c -3.72,0 -4.57,3.6575 -4.57,8.36375 0,4.70875 0.85,8.365 4.57,8.365 3.71875,0 4.57125,-3.65625 4.57125,-8.365 0,-4.70625 -0.8525,-8.36375 -4.57125,-8.36375"
         style="fill:#3d464c;fill-opacity:1;fill-rule:nonzero;stroke:none"
         id="path3261" />
      <path
         inkscape:connector-curvature="0"
         d="m 938.15722,709.45312 c -0.0688,-0.84713 -0.80875,-1.47901 -1.6575,-1.41788 -9.83875,0.69913 -19.7175,0.69913 -29.55875,0 -0.84625,-0.0611 -1.58875,0.57075 -1.6575,1.41788 -0.0688,0.84624 0.57625,1.58837 1.4375,1.65087 9.98875,0.71 20.01,0.71 29.9975,0 0.8625,-0.0625 1.505,-0.80463 1.43875,-1.65087"
         style="fill:#3d464c;fill-opacity:1;fill-rule:nonzero;stroke:none"
         id="path3263" />
      <path
         inkscape:connector-curvature="0"
         d="m 1014.436,720.09324 c -0.028,-0.266 -0.1825,-0.50038 -0.4175,-0.63475 -0.23,-0.13325 -0.5125,-0.1455 -0.7575,-0.0346 -0.05,0.022 -5.1675,2.30613 -11.3388,2.30613 -2.49373,0 -4.82748,-0.37012 -6.95873,-1.09963 l 1.4575,-4.09425 c 0.155,-0.437 -0.0713,-0.9145 -0.50625,-1.06975 l -4.57875,-1.63187 c -0.2775,-0.0961 -0.58625,-0.0425 -0.81375,0.145 -0.009,0.007 -0.67375,0.55812 -2.96375,2.35262 -0.18125,0.1425 -0.9125,0.39551 -1.44625,0.5795 -1.585,0.54938 -2.65375,0.96438 -3.05125,1.72613 -0.0188,0.0356 -0.0312,0.0707 -0.0475,0.10637 -0.025,0.0724 -1.575,4.60213 -0.0425,9.4175 -0.39,0.78663 -0.77125,1.57763 -1.175,2.354 -1.2875,2.46538 -2.655,4.875 -4.11375,7.15438 -1.455,2.2715 -3.01125,4.4335 -4.635,6.23875 -1.25375,1.3965 -2.6825,2.81 -4.43375,3.561 -0.23375,-0.0942 -1.40125,0.0645 -1.8525,-0.006 -1.14,-0.17862 -2.24875,-0.54487 -3.31875,-0.97062 -2.34125,-0.941 -4.7525,-2.30575 -7.09625,-3.83163 -4.51125,-2.96675 -8.90875,-6.54925 -12.9575,-10.31875 -0.345,-0.73487 -0.75375,-1.44049 -1.23,-2.11675 20.105,-5.0625 24.93375,-18.00437 24.93375,-29.25037 l 0,-9.55375 c 14.585,-19.2725 5.785,-51.125 2.77875,-58.03375 -3.045,-6.9975 -6.78375,-10.11 -13.875,-11.7375 -23.1725,-5.32125 -63.975,0.15875 -76.1425,5.7925 -6.5675,3.04125 -11.40375,10.43625 -11.87625,32.96375 -0.36,17.2225 5.41625,26.68625 8.15875,30.19375 l 0,10.375 c 0,11.21425 4.85375,24.11362 25.03625,29.20737 -0.36875,0.50838 -0.7,1.03275 -0.99375,1.57375 -0.14125,0.0351 -0.28625,0.0669 -0.4325,0.1025 -1.1025,0.275 -2.1975,0.59188 -3.28125,0.96338 -2.1675,0.73687 -4.30125,1.671 -6.36125,2.85262 -4.1025,2.3315 -7.99125,5.81438 -10.51375,10.455 -1.26875,2.28075 -2.14125,4.8745 -2.69,7.35988 -0.2925,1.38525 -0.495,2.78075 -0.56625,4.19537 -0.0687,1.38913 -0.0225,2.77725 0.12625,4.1455 0.295,2.73925 0.98,5.376 1.92875,7.876 0.47875,1.25 1.02125,2.46825 1.63875,3.666 0.69375,1.34125 1.59,3.32275 2.75125,4.36863 0.23,0.2065 5.7525,5.08937 15.08625,6.0425 0.0275,0.002 0.055,0.004 0.0825,0.004 0.195,0 0.38375,-0.0674 0.535,-0.19037 0.13125,-0.11138 2.27,-1.897 4.5875,-4.82425 1.02625,0.15862 2.145,0.24162 3.33375,0.28562 -0.2575,2.269 -0.4875,4.53463 -0.705,6.814 -0.4175,4.45551 -0.75625,8.92088 -1.0225,13.3945 -0.445,7.4575 -0.67375,14.938 -0.69,22.43897 -4.7875,2.20996 -4.27875,7.29492 -4.08875,9.00684 0.025,0.23047 0.24875,0.41357 0.47875,0.41357 l 17.2675,0 c 0.2325,0 0.445,-0.18555 0.465,-0.4165 0.1425,-1.48291 0.64875,-6.41603 -3.15,-8.77295 -0.80625,-7.50005 -1.39125,-15.04393 -1.7525,-22.6123 -0.2075,-4.38375 -0.34375,-8.773 -0.405,-13.1655 -0.0275,-2.3535 -0.0375,-4.71925 -0.02,-7.07625 0.0837,0 0.16875,-10e-4 0.25125,-10e-4 l 17.16375,0 c 0.0838,0 0.16875,10e-4 0.25125,10e-4 0.0187,2.357 0.009,4.72275 -0.0225,7.07625 -0.0587,4.3925 -0.195,8.78175 -0.4025,13.1655 -0.36125,7.59525 -0.95,15.167 -1.76,22.69286 -2.46625,2.38135 -2.86125,7.19336 -2.7175,8.69239 0.02,0.23095 0.23375,0.4165 0.46375,0.4165 l 26.715,0 c 0.23125,0 0.45375,-0.1831 0.48,-0.41357 0.2075,-1.87793 -0.69125,-8.66504 -13.96,-9.93213 -0.0337,-7.19092 -0.26625,-14.3628 -0.69125,-21.51368 -0.26625,-4.47362 -0.60625,-8.93899 -1.0225,-13.3945 -0.2175,-2.27937 -0.44625,-4.54499 -0.70375,-6.81399 5.96375,-0.21488 10.14,-1.46875 10.14,-8.04201 l -1.85125,-28.62062 c 1.96375,2.24362 4.03125,4.4175 6.255,6.52837 2.2925,2.1425 4.73625,4.2065 7.62875,6.03513 1.45875,0.90575 3.03125,1.75637 4.86625,2.43262 4.52625,1.65188 8.84125,1.04738 13.03375,-1.251 1.7325,-0.97025 3.20625,-2.04975 4.56875,-3.164 2.7075,-2.23387 4.97875,-4.61425 7.105,-7.04987 2.11625,-2.4365 4.0625,-4.9375 5.91,-7.49025 0.3325,-0.4565 0.64375,-0.92625 0.97,-1.38763 1.3275,0.13913 2.8275,0.23775 4.43875,0.23775 5.06503,0 9.49123,-0.95212 13.16123,-2.8305 0.195,-0.10012 0.3413,-0.2725 0.4125,-0.48 0.076,-0.2295 1.87,-5.72225 0.9713,-13.88387 z m -135.86253,-19.1175 0,-32.445 c 0.82375,-12.08375 1.7775,-18.5425 1.7775,-18.5425 0,0 3.085,3.32375 12.80875,3.79625 20.80125,1.01375 66.27875,-10.315 66.27875,-10.315 2.53,6.27 4.1625,13.4725 5.2175,20.385 l 0,37.12125 c 0,19.21962 -14.35,28.97937 -42.655,29.00625 l -0.11875,0 c -28.3325,0 -43.30875,-10.02938 -43.30875,-29.00625 z m 9.91375,49.161 c 0.925,-3.082 2.96875,-6.01562 5.78625,-8.45213 1.225,-1.0655 2.5875,-2.03612 4.0325,-2.91012 -0.0238,0.4345 -0.0412,0.873 -0.0412,1.3125 l -1.475,22.78562 c -1.19375,-0.40525 -3.2,-0.8545 -6.2375,-0.8545 -0.65,-0.92774 -1.1925,-1.8945 -1.61875,-2.88474 -0.59625,-1.37938 -0.845,-2.75638 -1.11125,-4.22126 -0.0312,-1.69287 0.2,-3.21387 0.665,-4.77537 z m 9.18875,31.94487 c -7.24375,-0.8325 -12.06625,-4.2285 -13.40375,-5.27587 1.7775,-7.17288 5.41375,-11.95175 6.365,-13.11525 3.565,0.0108 5.50125,0.67475 6.245,1.00725 l 0,2.6695 -0.49875,-0.004 c -0.35,-0.0196 -0.705,0.24163 -0.81,0.6005 -0.10625,0.35938 0.04,0.74375 0.35625,0.94238 2.8875,1.82375 7.005,3.66462 8.765,4.42387 -2.5,4.57763 -6.0375,7.88375 -7.01875,8.7515 z m 114.29753,-48.95512 c -3.3725,1.65287 -7.435,2.48875 -12.08253,2.48875 -4.9275,0 -8.90375,-0.97163 -9.56375,-1.14113 -8.73125,-5.00975 -6.12875,-13.96962 -5.76875,-15.07075 0.27625,-0.27925 1.455,-0.6875 2.1,-0.91062 0.94875,-0.32713 1.55,-0.5435 1.93125,-0.84375 1.415,-1.108 2.21625,-1.74763 2.62875,-2.08013 l 3.3475,1.19188 -1.455,4.08787 c -0.15125,0.42638 0.0612,0.89363 0.4825,1.05813 2.525,0.99275 5.32625,1.49562 8.32873,1.49562 4.8925,0 9.0688,-1.31587 10.9575,-2.0215 0.5025,6.12163 -0.5725,10.55075 -0.9062,11.74563"
         style="fill:#3d464c;fill-opacity:1;fill-rule:nonzero;stroke:none"
         id="path3265" />
    </g>
    <path
       style="fill:#f9f9f9"
       d="m 72.629494,186.0738 c -25.588527,-3.06091 -41.918226,-12.41677 -49.380335,-28.29173 -3.325095,-7.07383 -3.614387,-10.7065 -3.614387,-45.38618 0,-20.733301 0.489868,-42.383713 1.088595,-48.112029 l 1.088595,-10.415117 6.238991,2.620216 c 12.530729,5.262584 56.359319,1.040375 109.026397,-10.503012 l 18.30464,-4.011949 2.70462,8.781988 c 5.73435,18.619593 6.78245,29.801367 6.11444,65.232993 -0.63318,33.58428 -0.85642,35.51742 -5.04118,43.65503 -5.87198,11.41854 -18.71222,20.38101 -34.06497,23.7773 -15.8672,3.51009 -36.553226,4.55591 -52.465406,2.65249 z m 47.005276,-32.49642 c 0,-3.20886 -1.35037,-3.37438 -27.530119,-3.37438 -15.67181,0 -27.969436,0.71083 -28.550029,1.65025 -2.600459,4.20763 2.396221,5.09852 28.595696,5.09852 26.134412,0 27.484452,-0.16575 27.484452,-3.37439 z M 61.014082,122.46901 c 2.528736,-2.52874 3.448276,-5.74713 3.448276,-12.06897 0,-6.32184 -0.91954,-9.54023 -3.448276,-12.068962 -4.10145,-4.10145 -5.188884,-4.215029 -9.584258,-1.001053 -4.865095,3.557445 -4.865095,22.582595 0,26.140035 4.395374,3.21398 5.482808,3.1004 9.584258,-1.00105 z m 70.689658,0 c 2.52873,-2.52874 3.44827,-5.74713 3.44827,-12.06897 0,-6.32184 -0.91954,-9.54023 -3.44827,-12.068962 -4.10145,-4.10145 -5.18889,-4.215029 -9.58426,-1.001053 -4.8651,3.557445 -4.8651,22.582595 0,26.140035 4.39537,3.21398 5.48281,3.1004 9.58426,-1.00105 z"
       id="path2987"
       inkscape:connector-curvature="0"
       transform="translate(-604.79175,214.72075)" />
    <path
       style="fill:#f9f9f9"
       d="m 38.600289,272.71501 c -7.029967,-2.73162 -7.735471,-3.52576 -7.512129,-8.45586 0.13557,-2.99261 1.971035,-8.23148 4.078811,-11.64193 3.059282,-4.95002 4.748484,-6.09466 8.374198,-5.67452 3.547777,0.41111 4.452863,1.37044 4.135181,4.38299 -0.311875,2.95748 1.225422,4.68933 6.593401,7.42787 7.565402,3.85958 7.573393,3.72721 -0.801979,13.28441 -4.011321,4.57735 -4.743943,4.61072 -14.867483,0.67704 z"
       id="path2989"
       inkscape:connector-curvature="0"
       transform="translate(-604.79175,214.72075)" />
    <path
       style="fill:#f9f9f9"
       d="m 209.95911,194.91717 c -5.96573,-2.41043 -11.01504,-10.24715 -11.00309,-17.07723 0.009,-5.15007 0.93194,-6.75722 5.31214,-9.25024 7.91264,-4.50355 10.29924,-3.97347 9.1003,2.02123 -0.97505,4.87522 -0.74718,5.07753 7.03291,6.24423 4.42234,0.66317 11.87796,0.69672 16.56804,0.0746 l 8.52743,-1.1312 0,8.51141 c 0,7.99663 -0.32839,8.62589 -5.42969,10.40421 -6.33602,2.20875 -24.8352,2.33349 -30.10804,0.20303 l 0,0 z"
       id="path2991"
       inkscape:connector-curvature="0"
       transform="translate(-604.79175,214.72075)" />
    <path
       style="fill:#000000"
       d="m 55.841668,355.49485 c 0,-2.69786 1.4299,-6.19924 3.177554,-7.78084 2.756353,-2.49447 3.330826,-6.81507 4.333838,-32.59481 0.635955,-16.34554 1.6358,-33.01657 2.221876,-37.04674 1.035782,-7.12261 0.931184,-7.32759 -3.738988,-7.32759 -4.545392,0 -4.650648,-0.17 -1.951155,-3.153 4.242841,-4.68829 3.560039,-6.34948 -4.013593,-9.76472 -5.84975,-2.63786 -6.716002,-3.6983 -5.847573,-7.1584 0.694662,-2.76776 0.273283,-4.07022 -1.322634,-4.08821 -1.575476,-0.0178 -1.719797,-0.44101 -0.440919,-1.2931 2.3407,-1.55955 4.951477,-41.78395 2.712001,-41.78395 -3.256403,0 -10.87581,7.48116 -14.144027,13.8874 -5.649209,11.07336 -3.475952,24.80414 4.163631,26.30608 3.557552,0.69942 3.553791,0.72175 -0.160104,0.95104 -2.913563,0.17986 -5.158351,3.03638 -9.596493,12.2116 l -5.793296,11.97681 -2.737314,-4.64922 c -1.505522,-2.55707 -4.039259,-9.13902 -5.630526,-14.62655 -6.531373,-22.52364 5.288779,-44.95364 28.422895,-53.93552 13.45261,-5.223 13.384712,-5.76678 -1.632504,-13.07428 C 22.861936,172.33092 16.13052,161.61969 14.806855,136.3137 14.149218,123.74094 13.039668,118.25162 10.000729,112.53616 7.8276264,108.44912 4.7115433,99.119796 3.0760995,91.804334 0.53635641,80.443871 0.35935228,75.610966 1.862778,58.675906 3.8387547,36.417882 8.5255116,22.751697 16.010698,17.421775 28.321534,8.6556867 68.829715,1.7119725 108.09859,1.6365208 162.32535,1.5323286 171.324,7.4033763 179.23993,48.051713 c 4.79207,24.607315 2.66377,47.093641 -6.16599,65.146117 -4.25682,8.7031 -5.16331,12.70243 -5.16331,22.78015 0,23.76643 -11.0212,40.62091 -31.57606,48.28856 -12.87797,4.80392 -12.75491,5.5285 3.11737,18.35688 12.6911,10.25726 27.04331,17.12638 32.77685,15.68735 4.13929,-1.0389 16.33141,-16.55955 22.437,-28.56245 2.72395,-5.35497 3.18652,-5.63167 4.32338,-2.58621 2.56403,6.86855 7.98752,9.7404 20.96598,11.10193 9.4291,0.98919 10.70216,1.38204 5.04597,1.55707 -7.16819,0.22183 -8.28687,1.00597 -21.34171,14.9593 -14.21183,15.18993 -18.75448,18.46694 -28.51336,20.56922 -8.03448,1.73079 -21.73759,-5.34381 -33.89088,-17.4971 -5.30826,-5.30826 -9.86984,-9.35061 -10.13685,-8.98297 -0.267,0.36762 0.23087,12.19395 1.10638,26.28071 1.87623,30.18784 1.02048,33.30753 -9.6025,35.0062 -6.1908,0.98995 -6.66369,1.44726 -5.7648,5.5748 0.53858,2.473 1.49583,17.29808 2.12723,32.94464 1.2689,31.4442 2.26725,36.20689 7.58964,36.20689 7.65346,0 17.19843,7.59214 17.19843,13.67976 0,1.20633 -7.69894,1.83748 -22.41379,1.83748 -24.770523,0 -24.893873,-0.0677 -19.93947,-10.94632 2.41154,-5.29514 6.14637,-46.85776 6.14637,-68.39923 l 0,-10.30962 -16.562352,0 -16.562348,0 1.020857,15.08621 c 0.56147,8.29741 1.523665,24.39655 2.138208,35.77586 0.823861,15.25517 1.962414,22.268 4.334595,26.6986 5.979985,11.16902 5.104736,12.0945 -11.437929,12.0945 l -14.655173,0 0,-4.90519 z M 107.52937,187.90734 c 29.54495,-3.03188 45.21445,-11.44971 53.815,-28.91001 3.81519,-7.74533 3.98006,-9.75845 3.98006,-48.59729 0,-40.567365 -0.90858,-48.524731 -7.50775,-65.753377 l -1.74147,-4.546485 -18.65125,4.110081 C 83.375893,56.120556 40.70516,60.038687 27.073291,54.342928 23.639184,52.908068 20.376593,52.186959 19.823087,52.740465 19.269581,53.29397 18.524944,75.422658 18.168339,101.91532 l -0.648372,48.16849 4.589767,9.38114 c 7.864955,16.07539 25.072188,25.53204 51.504016,28.3053 7.768458,0.81507 14.62416,1.58504 15.234893,1.71104 0.610732,0.12603 9.017062,-0.58228 18.680727,-1.57395 z"
       id="path2990"
       inkscape:connector-curvature="0"
       transform="translate(-604.79175,214.72075)" />
    <path
       style="fill:#000000"
       d="m 122.31874,120.36124 c -6.97173,-9.95354 0.64325,-28.801462 8.47303,-20.971682 3.58113,3.581122 3.5317,18.489282 -0.0733,22.094232 -3.6318,3.63179 -5.2182,3.41979 -8.39978,-1.12255 z"
       id="path2992"
       inkscape:connector-curvature="0"
       transform="translate(-604.79175,214.72075)" />
    <path
       style="fill:#000000"
       d="m 51.629089,120.36124 c -3.445425,-4.91903 -3.445425,-15.00336 0,-19.92239 3.181576,-4.542338 4.767976,-4.754345 8.399772,-1.12255 3.651489,3.65149 3.651489,18.516 0,22.16749 -3.631796,3.63179 -5.218196,3.41979 -8.399772,-1.12255 z"
       id="path2994"
       inkscape:connector-curvature="0"
       transform="translate(-604.79175,214.72075)" />
    <path
       style="fill:#000000"
       d="m 79.117531,155.64992 c -6.637931,-0.32884 -12.806035,-1.33425 -13.706897,-2.23423 -1.033429,-1.03242 8.352251,-1.63634 25.431034,-1.63634 16.896552,0 27.068962,0.64793 27.068962,1.72414 0,0.97034 -4.83805,1.72414 -11.06588,1.72414 -6.08623,0 -12.099166,0.22954 -13.362069,0.51009 -1.262902,0.28055 -7.727219,0.24104 -14.36515,-0.0878 z"
       id="path2996"
       inkscape:connector-curvature="0"
       transform="translate(-604.79175,214.72075)" />
  </g>
</svg>
