<?xml version="1.0" encoding="UTF-8" standalone="no"?>
<!-- Created with Inkscape (http://www.inkscape.org/) -->

<svg
   xmlns:dc="http://purl.org/dc/elements/1.1/"
   xmlns:cc="http://creativecommons.org/ns#"
   xmlns:rdf="http://www.w3.org/1999/02/22-rdf-syntax-ns#"
   xmlns:svg="http://www.w3.org/2000/svg"
   xmlns="http://www.w3.org/2000/svg"
   xmlns:sodipodi="http://sodipodi.sourceforge.net/DTD/sodipodi-0.dtd"
   xmlns:inkscape="http://www.inkscape.org/namespaces/inkscape"
   width="250.00002"
   height="385.51297"
   id="svg2"
   version="1.1"
   inkscape:version="0.48.4 r9939"
   sodipodi:docname="drawing0.svg">
  <defs
     id="defs4" />
  <sodipodi:namedview
     id="base"
     pagecolor="#ffffff"
     bordercolor="#666666"
     borderopacity="1.0"
     inkscape:pageopacity="0.0"
     inkscape:pageshadow="2"
     inkscape:zoom="0.71"
     inkscape:cx="317.97338"
     inkscape:cy="249.87159"
     inkscape:document-units="px"
     inkscape:current-layer="layer1"
     showgrid="false"
     fit-margin-top="0"
     fit-margin-left="0"
     fit-margin-right="0"
     fit-margin-bottom="0"
     inkscape:window-width="1615"
     inkscape:window-height="1026"
     inkscape:window-x="1431"
     inkscape:window-y="24"
     inkscape:window-maximized="1" />
  <metadata
     id="metadata7">
    <rdf:RDF>
      <cc:Work
         rdf:about="">
        <dc:format>image/svg+xml</dc:format>
        <dc:type
           rdf:resource="http://purl.org/dc/dcmitype/StillImage" />
        <dc:title />
      </cc:Work>
    </rdf:RDF>
  </metadata>
  <g
     inkscape:label="Layer 1"
     inkscape:groupmode="layer"
     id="layer1"
     transform="translate(-57.026625,-282.4351)">
    <g
       transform="matrix(1.2141797,0,0,-1.2141797,-819.67129,1024.4249)"
       id="g3040">
      <path
         d="m 833.50057,310.55679 c -0.33,9.653 -0.791,19.289 -1.383,28.91 -0.412,6.676 -0.885,13.344 -1.425,20.007 -0.392,4.803 -0.829,9.588 -1.303,14.392 -3.013,-1.352 -6.611,-2.375 -10.762,-3.078 -0.121,-3.847 -0.263,-7.703 -0.433,-11.545 -0.295,-6.593 -0.656,-13.183 -1.077,-19.764 -0.691,-10.766 -1.552,-21.51 -2.575,-32.222 -0.443,-0.62 -0.831,-1.292 -1.167,-1.996 0.309,-0.276 0.606,-0.559 0.889,-0.851 0.334,-0.343 0.657,-0.694 0.955,-1.059 0.906,-1.108 1.569,-2.256 2.063,-3.383 0.962,-2.197 1.231,-4.304 1.077,-5.851 l 36.294,0 c 0.367,0 0.722,0.293 0.763,0.656 0.327,2.976 -1.084,13.694 -21.916,15.784"
         style="fill:#3d464c;fill-opacity:1;fill-rule:nonzero;stroke:none"
         id="path28"
         inkscape:connector-curvature="0" />
      <path
         d="m 816.39157,295.38179 c -0.003,0.078 -0.008,0.157 -0.014,0.237 -0.005,0.071 -0.012,0.143 -0.019,0.215 -0.009,0.095 -0.019,0.19 -0.031,0.289 -0.008,0.059 -0.018,0.121 -0.026,0.181 -0.017,0.116 -0.034,0.233 -0.056,0.356 -0.128,0.689 -0.326,1.415 -0.635,2.18 -0.094,0.231 -0.178,0.422 -0.269,0.615 -0.099,0.21 -0.198,0.405 -0.304,0.601 -0.286,0.528 -0.634,1.067 -1.041,1.608 -0.407,0.538 -0.874,1.078 -1.419,1.61 -3.15,3.077 -8.78,5.912 -18.721,6.815 -0.42,4.369 -0.786,8.745 -1.134,13.123 -0.083,1.052 -0.165,2.105 -0.245,3.157 -0.333,4.364 -0.647,8.731 -0.924,13.104 -0.418,6.582 -0.774,13.173 -1.067,19.768 -0.166,3.765 -0.307,7.543 -0.428,11.313 -0.022,0.682 -0.036,1.358 -0.055,2.04 0.644,-0.103 1.309,-0.198 1.993,-0.285 3.276,-0.42 7,-0.663 11.273,-0.665 6.126,-0.002 11.203,0.434 15.411,1.175 4.38,0.772 7.807,1.878 10.498,3.164 8.444,4.035 9.561,9.869 9.455,12.917 -0.373,10.694 -0.149,23.399 -0.818,34.091 -0.363,5.792 -0.986,10.995 -2.111,14.964 -0.151,0.533 -0.401,1.055 -0.713,1.562 -0.251,0.408 -0.543,0.804 -0.873,1.184 0.704,0.191 1.397,0.387 2.074,0.592 25.454,7.703 31.697,25.072 31.697,40.244 l 0,14.851 c 8.617,32.947 10.211,51.61 3.445,80.008 -2.51,10.539 9.807,15.123 9.807,15.123 -4.041,2.221 -11.279,0.074 -11.279,0.074 1.949,4.584 19.417,8.621 19.417,8.621 -60.778,29.722 -141.737,-10.817 -141.737,-10.817 l -2.101,6.728 -4.112,-7.584 -3.862,4.817 -3.498,-9.559 -5.93901,3.727 c 0,0 -1.279,-7.431 -3.735,-21.616 -1.078,-6.224 -2.244,-14.136 -2.246,-24.639 -0.007,-38.897 14.14901,-55.454 17.52601,-58.851 l 0,-0.883 c 0,-13.192 4.694,-23.668 13.951,-31.136 4.863,-3.923 10.99,-6.969 18.316,-9.142 0.682,-0.202 1.371,-0.399 2.073,-0.586 -0.184,-0.214 -0.359,-0.434 -0.52,-0.659 -0.487,-0.173 -0.945,-0.444 -1.329,-0.839 -0.743,-0.765 -1.397,-1.485 -2.029,-2.206 -0.452,-0.516 -0.894,-1.033 -1.341,-1.569 -1.051,-1.265 -2.059,-2.554 -3.035,-3.867 -1.954,-2.626 -3.776,-5.345 -5.491,-8.14 -3.427,-5.592 -6.406,-11.493 -8.932,-17.624 -4.806,-11.635 -7.923,-24.112 -9.388,-36.881 -1.907,-2.9 -5.971,-10.636 -4.551,-22.36 0.034,-0.28 0.181,-0.533 0.406,-0.702 0.316,-0.235 7.846,-5.8 17.688,-8.059 0.076,-0.018 0.154,-0.026 0.231,-0.026 0.204,0 0.406,0.06 0.578,0.177 0.237,0.162 0.396,0.414 0.439,0.696 0.011,0.072 0.871,5.645 2.196,10.922 l 0.309,-1.788 c 0.071,-0.408 0.38,-0.735 0.784,-0.828 0.039,-0.009 0.952,-0.215 2.147,-0.215 1.702,0 3.109,0.396 4.185,1.178 0.267,0.194 0.424,0.504 0.424,0.834 0,0.34 -0.035,8.19 -1.857,15.829 0.058,0.747 0.047,1.511 -0.044,2.283 -1.347,11.372 -1.143,23.07 0.893,34.647 0.563,3.214 1.28,6.413 2.125,9.589 0.653,2.451 1.381,4.887 2.207,7.299 -0.384,-9.604 -0.264,-20.276 -0.584,-29.464 -0.1,-2.915 0.936,-8.366 8.099,-12.365 0.598,-0.334 1.244,-0.655 1.93,-0.966 -0.07,-0.699 -0.14,-1.398 -0.208,-2.095 -0.453,-4.671 -0.876,-9.327 -1.259,-13.999 -0.541,-6.661 -1.019,-13.328 -1.435,-20.003 -0.186,-2.987 -0.356,-5.975 -0.517,-8.965 -0.092,-1.721 -0.174,-3.443 -0.257,-5.165 -0.055,-1.122 -0.111,-2.244 -0.162,-3.367 -0.102,-2.268 -0.196,-4.538 -0.283,-6.809 -0.017,-0.464 -0.035,-0.927 -0.052,-1.391 -0.094,-2.566 -0.181,-5.133 -0.256,-7.702 -1.542,-2.56 -2.283,-5.739 -2.575,-8.261 -0.03,-0.263 -0.054,-0.493 -0.073,-0.716 -10e-4,-0.018 -0.003,-0.034 -0.004,-0.052 -0.04,-0.46 -0.064,-0.892 -0.075,-1.283 0,-0.026 0,-0.049 -10e-4,-0.074 -0.004,-0.156 -0.005,-0.306 -0.005,-0.448 0,-0.047 10e-4,-0.093 10e-4,-0.139 10e-4,-0.119 0.004,-0.232 0.008,-0.34 0.002,-0.041 0.003,-0.083 0.005,-0.122 0.007,-0.138 0.015,-0.269 0.026,-0.383 0.033,-0.367 0.373,-0.66 0.74,-0.66 l 42.529,0 c 0.319,0 0.617,0.226 0.719,0.522 0.016,0.044 0.039,0.086 0.045,0.134 0.011,0.102 0.019,0.214 0.026,0.333 0.002,0.042 0.003,0.089 0.005,0.133 0.002,0.079 0.004,0.159 0.004,0.245 0,0.061 -10e-4,0.126 -0.002,0.191 -0.002,0.074 -0.004,0.151 -0.008,0.229 z m -54.314,53.382 c -0.392,0 -0.746,0.027 -1.028,0.059 l -0.949,5.486 c -0.081,0.465 -0.467,0.815 -0.936,0.851 -0.473,0.033 -0.904,-0.253 -1.054,-0.7 -1.655,-4.94 -2.881,-11.768 -3.325,-14.425 -7.75,2.012 -13.975,6.129 -15.494,7.188 -0.808,7.395 0.738,13.11 2.328,16.805 0.985,2.289 1.986,3.806 2.457,4.457 l 0.203,0 c 10.991,0 17.096,-3.264 18.475,-4.098 0.344,-1.399 0.622,-2.817 0.851,-4.201 0.811,-4.901 0.981,-9.363 1.014,-10.902 -0.826,-0.423 -1.81,-0.52 -2.542,-0.52 z m -19.502,134.125 c 0.885,0.461 1.99,1.05 3.229,1.736 -1.552,1.93 -2.723,4.619 -3.229,7.696 -0.058,0.354 -0.113,0.709 -0.153,1.072 -0.208,1.882 -0.137,3.694 0.153,5.355 0.799,4.577 3.312,7.983 6.634,8.348 4.523,0.499 8.823,-4.83 9.601,-11.898 0.08,-0.725 0.11,-1.436 0.112,-2.136 2.177,1.701 4.111,3.466 5.496,5.197 -9.584,24.677 -5.299,58.911 -5.299,58.911 0,0 11.076,-8.588 29.085,-8.825 35.048,-0.461 63.893,10.872 70.98,13.87 3.619,-6.008 5.705,-13.039 5.705,-20.549 l 0,-60.129 c 0,-19.528 -10.4,-32.189 -30.975,-37.855 -0.821,-0.225 -1.661,-0.438 -2.514,-0.641 -7.722,-1.844 -16.758,-2.781 -27.121,-2.791 l -0.173,0 c -10.408,0 -19.536,0.962 -27.367,2.844 -0.854,0.206 -1.696,0.42 -2.519,0.647 -20.813,5.75 -31.645,18.532 -31.645,37.796 l 0,1.352"
         style="fill:#3d464c;fill-opacity:1;fill-rule:nonzero;stroke:none"
         id="path30"
         inkscape:connector-curvature="0" />
      <path
         d="m 926.46457,452.01379 c -0.08,0.32 -0.308,0.582 -0.613,0.705 -0.309,0.125 -0.654,0.094 -0.933,-0.082 -0.079,-0.049 -8.01,-4.944 -17.308,-4.944 -1.652,0 -3.265,0.155 -4.81,0.462 l 1.104,5.235 c 0.117,0.556 -0.239,1.102 -0.794,1.219 l -5.852,1.237 c -0.352,0.076 -0.725,-0.043 -0.971,-0.311 -0.008,-0.007 -0.744,-0.807 -3.225,-3.357 -0.199,-0.203 -1.048,-0.631 -1.668,-0.944 -1.843,-0.93 -3.078,-1.614 -3.438,-2.609 -0.018,-0.049 -0.032,-0.1 -0.042,-0.152 -0.058,-0.291 -0.832,-4.43 -0.12,-9.438 -0.007,-0.025 -0.018,-0.048 -0.026,-0.074 -1.94,-6.571 -4.44,-12.904 -7.719,-17.676 -1.631,-2.369 -3.422,-4.255 -5.258,-5.444 -1.836,-1.189 -3.771,-1.806 -6.258,-1.707 -2.464,0.094 -5.347,0.999 -8.197,2.463 -2.861,1.46 -5.699,3.437 -8.412,5.673 -5.041,4.183 -9.786,9.292 -13.891,14.656 1.105,-4.671 1.658,-10.619 1.955,-17.092 1.304,-1.816 2.676,-3.602 4.149,-5.345 2.648,-3.12 5.586,-6.125 9.08,-8.814 3.49,-2.663 7.598,-5.086 12.615,-6.362 2.494,-0.63 5.207,-0.932 7.953,-0.776 2.744,0.147 5.496,0.758 8.03,1.72 5.105,1.938 9.22,5.089 12.588,8.395 3.375,3.338 6.101,6.918 8.505,10.546 1.723,2.611 3.269,5.257 4.702,7.921 5.891,0.657 12.957,2.541 19.53,7.151 0.22,0.154 0.37,0.387 0.42,0.65 0.057,0.293 1.343,7.287 -1.096,17.094 z m -0.863,-16.305 c -5.626,-3.848 -11.622,-5.624 -16.826,-6.367 -2.428,-0.346 -4.686,-0.469 -6.651,-0.469 -4.227,0 -7.357,0.557 -8.343,0.757 -3.244,4.026 -4.088,9.138 -4.19,12.963 -0.073,2.733 0.23,4.814 0.319,5.35 0.299,0.387 1.664,1.076 2.411,1.453 1.102,0.555 1.798,0.918 2.216,1.347 1.546,1.589 2.415,2.498 2.863,2.969 l 4.277,-0.904 -1.101,-5.224 c -0.03,-0.138 -0.029,-0.275 -0.004,-0.406 0.073,-0.384 0.363,-0.708 0.765,-0.807 1.073,-0.262 2.183,-0.45 3.314,-0.572 0.97,-0.105 1.959,-0.164 2.959,-0.164 7.786,0 14.488,3.115 17.166,4.553 1.621,-7.392 1.037,-12.974 0.825,-14.479"
         style="fill:#3d464c;fill-opacity:1;fill-rule:nonzero;stroke:none"
         id="path32"
         inkscape:connector-curvature="0" />
      <path
         d="m 848.10057,493.21779 c 5.269,0 6.469,5.176 6.469,11.841 0,6.664 -1.2,11.84 -6.469,11.84 -5.266,0 -6.467,-5.176 -6.467,-11.84 0,-6.665 1.201,-11.841 6.467,-11.841"
         style="fill:#3d464c;fill-opacity:1;fill-rule:nonzero;stroke:none"
         id="path34"
         inkscape:connector-curvature="0" />
      <path
         d="m 796.17257,493.21779 c 5.262,0 6.466,5.176 6.466,11.841 0,6.664 -1.204,11.84 -6.466,11.84 -5.27,0 -6.471,-5.176 -6.471,-11.84 0,-6.665 1.201,-11.841 6.471,-11.841"
         style="fill:#3d464c;fill-opacity:1;fill-rule:nonzero;stroke:none"
         id="path36"
         inkscape:connector-curvature="0" />
      <path
         d="m 799.01857,469.53679 c -0.097,-1.199 0.816,-2.25 2.035,-2.337 14.138,-1.007 28.326,-1.007 42.465,0 1.22,0.087 2.131,1.138 2.035,2.337 -0.096,1.2 -1.145,2.093 -2.344,2.008 -13.932,-0.992 -27.916,-0.992 -41.845,0 -1.2,0.085 -2.251,-0.808 -2.346,-2.008"
         style="fill:#3d464c;fill-opacity:1;fill-rule:nonzero;stroke:none"
         id="path38"
         inkscape:connector-curvature="0" />
    </g>
    <path
       style="fill:#ffffff"
       d="m 118.56477,482.60039 c -15.7298,-5.62313 -24.876971,-12.29855 -30.019661,-21.90775 -3.37212,-6.30086 -5.57151,-37.10898 -3.21574,-45.04474 2.32944,-7.84707 9.58425,-5.86148 13.61571,3.72653 3.075421,7.31428 4.222951,8.05933 7.090791,4.60379 2.51268,-3.02759 2.65835,-7.4328 0.54841,-16.58367 -1.58024,-6.85351 -2.90459,-22.35961 -2.943,-34.458 l -0.0698,-21.99707 10.71429,4.48255 c 13.11819,5.48827 56.52195,3.86519 80.71428,-3.01831 8.64286,-2.45917 18.51762,-5.27251 21.94392,-6.25187 10.08639,-2.88305 13.03928,13.15183 11.89558,64.59559 -0.90878,40.87694 -1.48183,44.88646 -7.65154,53.53658 -11.13729,15.61482 -26.30509,21.42846 -59.0451,22.6313 -22.6751,0.83306 -31.66838,-0.0574 -43.57809,-4.31493 z m 88.59148,-27.66677 c -0.392,-1.59796 -13.29863,-3.21599 -29.28571,-3.67138 -24.4159,-0.69549 -28.58482,-0.16004 -28.58482,3.67138 0,3.83727 4.23291,4.36793 29.28571,3.67138 17.68916,-0.49182 29.00817,-1.94561 28.58482,-3.67138 z m -55.54233,-29.61264 c 2.42769,-1.53946 3.4385,-6.83072 2.85714,-14.95624 -0.80616,-11.26758 -1.64175,-12.57398 -8.04249,-12.57398 -6.21556,0 -7.25952,1.41682 -8.0415,10.91368 -0.49425,6.00252 0.62746,12.75252 2.4927,15 3.88919,4.68619 5.50878,4.9301 10.73415,1.61654 l 0,0 z m 62.85714,0 c 2.42642,-1.53866 3.4382,-6.82624 2.85714,-14.9316 -0.68821,-9.6002 -2.16204,-12.78904 -6.27155,-13.56938 -2.95456,-0.56103 -6.47058,0.71359 -7.81339,2.8325 -3.59777,5.67715 -3.0486,20.76149 0.8996,24.70969 4.02685,4.02685 5.30313,4.14533 10.3282,0.95879 l 0,0 z"
       id="path3027"
       inkscape:connector-curvature="0" />
    <path
       style="fill:#ffffff"
       d="m 118.56477,482.60039 c -15.7298,-5.62313 -24.876971,-12.29855 -30.019661,-21.90775 -3.37212,-6.30086 -5.57151,-37.10898 -3.21574,-45.04474 2.17016,-7.31049 9.29017,-6.10389 13.08135,2.21685 4.014441,8.81073 9.731861,7.63122 8.685011,-1.79173 -0.41878,-3.76953 -1.55182,-20.03716 -2.51786,-36.1503 l -1.75644,-29.29661 11.08928,4.63923 c 13.49998,5.64775 56.5182,4.12965 81.08929,-2.86162 8.64286,-2.45917 18.51762,-5.27251 21.94392,-6.25187 10.08639,-2.88305 13.03928,13.15183 11.89558,64.59559 -0.90878,40.87694 -1.48183,44.88646 -7.65154,53.53658 -11.13729,15.61482 -26.30509,21.42846 -59.0451,22.6313 -22.6751,0.83306 -31.66838,-0.0574 -43.57809,-4.31493 z m 86.2502,-25.93881 c 2.65667,-4.29858 -6.32061,-6.01368 -31.47722,-6.01368 -22.07912,0 -27.25571,1.55824 -22.14727,6.66667 2.8794,2.8794 51.80959,2.28357 53.62449,-0.65299 l 0,0 z m -52.83759,-32.95714 c 5.36831,-6.46842 2.6713,-25.66178 -3.77787,-26.88532 -2.95456,-0.56055 -6.47059,0.71447 -7.81339,2.83338 -3.59777,5.67715 -3.0486,20.76149 0.8996,24.70969 4.45268,4.45269 6.55785,4.32318 10.69166,-0.65775 l 0,0 z m 62.49368,1.61654 c 2.42642,-1.53866 3.4382,-6.82624 2.85714,-14.9316 -0.68821,-9.6002 -2.16204,-12.78904 -6.27155,-13.56938 -9.39068,-1.78317 -13.80901,13.44038 -7.38469,25.44431 3.25279,6.0779 5.17619,6.62232 10.7991,3.05667 z"
       id="path3029"
       inkscape:connector-curvature="0" />
    <path
       style="fill:#ffffff"
       d="m 265.56364,499.93362 c -0.66119,-1.17857 -2.03437,-5.62714 -3.0515,-9.8857 -1.43236,-5.99701 -0.5551,-8.43549 3.89069,-10.81481 4.67087,-2.49978 5.74003,-2.19366 5.74003,1.64348 0,4.04892 2.22122,4.43792 15.71428,2.75208 14.72951,-1.84033 15.71429,-1.58325 15.71429,4.10229 0,4.22087 -3.01347,7.32478 -9.90823,10.20559 -10.58838,4.42411 -26.11874,5.52787 -28.09956,1.99707 z"
       id="path3031"
       inkscape:connector-curvature="0" />
    <path
       style="fill:#ffffff"
       d="m 85.714289,604.70476 c -5.30262,-3.08849 -6.65542,-15.59066 -2.41198,-22.29067 1.78381,-2.81648 5.45643,-3.39357 12.81339,-2.01339 8.842881,1.65893 10.306641,3.03621 10.269121,9.66238 -0.0333,5.8847 -0.67806,6.72467 -2.70344,3.52204 -2.71304,-4.29001 -3.19171,-3.60558 -7.437231,10.63421 -1.27294,4.26951 -3.83056,4.38742 -10.52986,0.48543 z"
       id="path3033"
       inkscape:connector-curvature="0" />
    <path
       style="fill:#000000"
       d="M 13.381891,140.06995 C 3.5061277,119.77029 -0.16646829,91.37206 3.3398629,62.420303 6.7784126,34.028217 7.5075609,31.884483 13.008083,33.995231 c 2.808017,1.077538 4.393868,0.06131 4.393868,-2.81564 0,-2.8277 1.593702,-3.890165 4.285715,-2.857142 2.357143,0.90452 4.285714,0.145428 4.285714,-1.686863 0,-1.832296 1.249917,-2.558955 2.777591,-1.614799 1.527678,0.944156 15.991963,-2.784503 32.142858,-8.285908 C 109.4718,0.18798717 162.75335,-2.6569246 190.16484,9.8325891 l 7.28386,3.3187479 -10.73766,5.013743 c -8.96587,4.186442 -9.64323,5.051905 -4.10501,5.245021 6.17523,0.215329 6.30612,0.557813 1.89797,4.965962 -3.96985,3.969854 -4.38654,8.0083 -2.57953,25 2.88667,27.144034 1.88433,51.225307 -2.92468,70.265317 l -3.96901,15.71429 -0.24299,-31.71651 c -0.27267,-35.592114 -3.91627,-51.141511 -11.29778,-48.21438 -33.60709,13.326866 -91.17889,18.209694 -108.669881,9.2166 -5.348575,-2.75 -10.335155,-5 -11.081289,-5 -1.98696,0 1.400186,60.18247 3.859286,68.57143 l 2.093823,7.14286 -7.411632,-7.82962 c -11.805586,-12.47137 -21.884798,-3.91912 -17.721406,15.03668 2.982935,13.58121 -3.142016,10.0232 -11.17702,-6.49278 z"
       id="path2993"
       inkscape:connector-curvature="0"
       transform="translate(57.026625,282.4351)" />
    <path
       style="fill:#000000"
       d="m 64.897026,367.21281 c 0.681403,-9.03572 2.392063,-31.16047 3.801468,-49.16612 2.401049,-30.67422 2.215852,-32.98039 -2.93842,-36.59058 -4.664094,-3.26686 -5.50098,-7.39268 -5.50098,-27.1196 0,-14.73814 -0.997585,-22.26897 -2.721531,-20.54503 -3.998706,3.99871 -9.553979,43.5239 -7.712346,54.87254 1.294652,7.97801 0.782352,9.45997 -2.795603,8.08698 -2.409404,-0.92458 -6.525579,-1.70074 -9.147055,-1.7248 -2.621477,-0.0241 -6.491952,-1.13746 -8.601054,-2.47421 -7.682461,-4.86915 9.366855,-53.05656 26.923512,-76.09539 l 6.563774,-8.61336 36.550932,0.13047 36.550927,0.13046 2.31306,13.7968 c 1.27218,7.58824 1.93815,22.84426 1.47993,33.90226 -0.75561,18.23492 -1.5776,20.66005 -8.83521,26.06646 -5.97896,4.4539 -13.35458,6.23129 -29.17264,7.03006 l -21.170544,1.06907 1.436508,23.26485 c 3.115692,50.45982 3.691169,53.07612 12.113992,55.07424 8.126124,1.92773 17.651924,8.8995 17.651924,12.91915 0,1.32787 -10.80666,2.41432 -24.014781,2.41432 l -24.014778,0 1.238915,-16.42857 0,0 z"
       id="path2995"
       inkscape:connector-curvature="0"
       transform="translate(57.026625,282.4351)" />
    <path
       style="fill:#000000"
       d="m 117.68642,382.19068 c -0.003,-1.35564 -1.16282,-4.3662 -2.57761,-6.69015 -2.16673,-3.55906 -2.40558,-5.78001 -1.51473,-14.0845 0.58169,-5.42254 1.85192,-23.20896 2.82273,-39.52538 l 1.7651,-29.66622 6.09292,-1.41362 c 6.0172,-1.39606 6.09292,-1.36687 6.09292,2.34901 0,2.06945 0.59602,11.61876 1.3245,21.22069 0.72848,9.60193 1.74474,25.14748 2.25835,34.54566 l 0.93384,17.08761 5.28854,0.70935 c 7.93737,1.06462 15.55848,5.20871 18.5248,10.07313 4.7584,7.80323 4.62183,7.8592 -19.1751,7.8592 -19.85045,0 -21.83147,-0.22361 -21.83626,-2.46478 z"
       id="path2997"
       inkscape:connector-curvature="0"
       transform="translate(57.026625,282.4351)" />
    <path
       style="fill:#000000"
       d="m 176.14239,256.61478 c -8.17487,-2.03602 -14.89473,-6.17432 -22.69942,-13.97901 -8.84805,-8.84805 -10.39917,-11.8993 -10.39917,-20.45653 l 0,-5.95481 8.80282,8.57573 c 14.32926,13.95959 27.23036,18.2711 35.41273,11.83485 4.35447,-3.42523 8.73368,-11.17152 13.06266,-23.10631 2.38816,-6.58402 3.08953,-7.57969 3.17521,-4.50752 0.0605,2.16875 1.07694,5.81312 2.25881,8.09859 2.08485,4.03166 2.47285,4.16028 13.02817,4.31879 5.98363,0.0899 9.82067,0.44351 8.52676,0.78589 -1.2939,0.34238 -5.00243,4.68969 -8.24117,9.66069 -12.20308,18.73001 -28.7479,28.26116 -42.9274,24.72964 z"
       id="path2999"
       inkscape:connector-curvature="0"
       transform="translate(57.026625,282.4351)" />
    <path
       style="fill:#000000"
       d="m 148.60675,140.20389 c -2.60433,-3.13802 -3.24744,-16.09049 -1.00977,-20.33716 2.11811,-4.01977 6.90232,-5.28044 9.25968,-2.43999 0.87699,1.05671 2.01576,5.50532 2.5306,9.8858 0.72996,6.21082 0.42211,8.74891 -1.39813,11.52696 -2.64348,4.03446 -6.67934,4.62135 -9.38238,1.36439 z"
       id="path2998"
       inkscape:connector-curvature="0"
       transform="translate(57.026625,282.4351)" />
    <path
       style="fill:#000000"
       d="m 87.146001,141.29537 c -2.370782,-1.50747 -4.669221,-8.14908 -4.644816,-13.42174 0.03103,-6.7049 2.968706,-11.52802 7.021491,-11.52802 4.524041,0 6.994828,5.00327 7.02149,14.21832 0.02622,9.06346 -4.282962,13.98397 -9.398165,10.73144 z"
       id="path3000"
       inkscape:connector-curvature="0"
       transform="translate(57.026625,282.4351)" />
    <path
       style="fill:#000000"
       d="m 96.917042,173.86352 c -0.96831,-0.39072 -1.760563,-1.29139 -1.760563,-2.00148 0,-1.46562 43.875151,-1.76068 49.220351,-0.331 3.19126,0.85356 3.24326,1.00084 0.70422,1.99445 -3.01524,1.17997 -45.341285,1.47702 -48.164008,0.33803 z"
       id="path3002"
       inkscape:connector-curvature="0"
       transform="translate(57.026625,282.4351)" />
  </g>
</svg>
