<?xml version="1.0" encoding="UTF-8" standalone="no"?>
<!-- Created with Inkscape (http://www.inkscape.org/) -->

<svg
   xmlns:dc="http://purl.org/dc/elements/1.1/"
   xmlns:cc="http://creativecommons.org/ns#"
   xmlns:rdf="http://www.w3.org/1999/02/22-rdf-syntax-ns#"
   xmlns:svg="http://www.w3.org/2000/svg"
   xmlns="http://www.w3.org/2000/svg"
   xmlns:sodipodi="http://sodipodi.sourceforge.net/DTD/sodipodi-0.dtd"
   xmlns:inkscape="http://www.inkscape.org/namespaces/inkscape"
   width="250"
   height="298.76001"
   id="svg2"
   version="1.1"
   inkscape:version="0.48.4 r9939"
   sodipodi:docname="drawing19.svg">
  <defs
     id="defs4" />
  <sodipodi:namedview
     id="base"
     pagecolor="#888888"
     bordercolor="#666666"
     borderopacity="1.0"
     inkscape:pageopacity="1"
     inkscape:pageshadow="2"
     inkscape:zoom="0.58"
     inkscape:cx="136.281"
     inkscape:cy="172.04898"
     inkscape:document-units="px"
     inkscape:current-layer="layer1"
     showgrid="false"
     fit-margin-top="0"
     fit-margin-left="0"
     fit-margin-right="0"
     fit-margin-bottom="0"
     inkscape:window-width="1615"
     inkscape:window-height="1026"
     inkscape:window-x="1431"
     inkscape:window-y="24"
     inkscape:window-maximized="1" />
  <metadata
     id="metadata7">
    <rdf:RDF>
      <cc:Work
         rdf:about="">
        <dc:format>image/svg+xml</dc:format>
        <dc:type
           rdf:resource="http://purl.org/dc/dcmitype/StillImage" />
        <dc:title />
      </cc:Work>
    </rdf:RDF>
  </metadata>
  <g
     inkscape:label="Layer 1"
     inkscape:groupmode="layer"
     id="layer1"
     transform="translate(783.16211,-405.6525)">
    <g
       id="g3780"
       transform="matrix(2.0307091,0,0,2.0307091,-957.96057,-235.28858)">
      <path
         inkscape:connector-curvature="0"
         d="m 151.31725,522.8472 c -1.88875,-4.42625 -3.72,-8.5725 -5.5125,-13.09125 -1.36125,1.16125 -2.805,2.26875 -4.33125,3.31625 -1.27375,0.87375 -2.61625,1.70875 -4.0125,2.5075 0.825,3.00875 1.685,5.67625 2.5675,8.69125 -3.01875,2.48375 -2.61625,6.50375 -2.455,7.9875 0.0275,0.23 0.25,0.4125 0.4825,0.4125 l 17.26625,0 c 0.23125,0 0.44625,-0.18375 0.465,-0.41375 0.1575,-1.63875 0.7525,-7.4675 -4.47,-9.41"
         style="fill:#3d464c;fill-opacity:1;fill-rule:nonzero;stroke:none"
         id="path3269" />
      <path
         inkscape:connector-curvature="0"
         d="m 162.3235,393.36845 c 3.715,-0.21375 4.35125,-3.91125 4.08125,-8.6125 -0.27,-4.7 -1.32625,-8.30125 -5.04125,-8.08625 -3.71375,0.2125 -4.3525,3.91125 -4.0825,8.61 0.27,4.70125 1.3275,8.3025 5.0425,8.08875"
         style="fill:#3d464c;fill-opacity:1;fill-rule:nonzero;stroke:none"
         id="path3271" />
      <path
         inkscape:connector-curvature="0"
         d="m 119.87474,379.0547 c -3.71375,0.21125 -4.3525,3.91125 -4.0825,8.61125 0.27,4.7 1.3275,8.3025 5.04251,8.0875 3.7125,-0.2125 4.3525,-3.91125 4.0825,-8.6125 -0.27,-4.7 -1.33,-8.3 -5.04251,-8.08625"
         style="fill:#3d464c;fill-opacity:1;fill-rule:nonzero;stroke:none"
         id="path3273" />
      <path
         inkscape:connector-curvature="0"
         d="m 158.53725,412.28595 c 0.86375,-0.34625 1.26375,-1.27875 0.91,-2.05125 -0.35375,-0.775 -1.27375,-1.11875 -2.0725,-0.7975 -9.3225,3.76125 -19.88,4.36875 -29.57,1.69875 -0.83125,-0.22625 -1.70625,0.22125 -1.9675,1.03 -0.26375,0.80875 0.24125,1.68875 1.1375,1.93625 10.34625,2.85125 21.61,2.20375 31.5625,-1.81625"
         style="fill:#3d464c;fill-opacity:1;fill-rule:nonzero;stroke:none"
         id="path3275" />
      <g
         id="g3777">
        <path
           id="path3277"
           style="fill:#3d464c;fill-opacity:1;fill-rule:nonzero;stroke:none"
           d="m 209.16975,486.71595 c -0.0525,-3.48125 -1.72625,-5.94125 -1.7975,-6.04625 -0.0937,-0.135 -0.22625,-0.23875 -0.37875,-0.2975 -3.6725,-1.4 -12.3325,-3.3475 -12.70125,-3.42875 -0.04,-0.01 -0.0838,-0.0163 -0.12625,-0.0188 -0.19875,-0.0113 -0.41,-0.0175 -0.62625,-0.0175 -2.655,-7.885 -5.9525,-15.5825 -10.17625,-22.78625 -2.36875,-4.0325 -5.03,-7.9025 -8.0625,-11.48125 -1.51875,-1.7875 -3.12625,-3.50125 -4.85875,-5.105 -0.86625,-0.8025 -1.76125,-1.57625 -2.69875,-2.31625 -0.47125,-0.36875 -0.94875,-0.73 -1.44875,-1.08 -0.1875,-0.1325 -0.36875,-0.25625 -0.555,-0.38125 -0.54625,-0.9825 -1.22,-1.9125 -2.0375,-2.775 20.24125,-6.14 24.405,-19.4675 23.75375,-30.7925 l -0.5475,-9.5375 c 13.455,-20.07625 2.83875,-51.3775 -0.5575,-58.1 -3.4425,-6.81125 -7.35375,-9.7025 -14.52625,-10.92125 -23.44125,-3.98125 -63.86126,3.83125 -75.685006,10.15375 -6.38125,3.41125 -10.785,11.07125 -9.96375,33.59 0.6275,17.21375 6.9375,26.33125 9.87625,29.67375 l 0.5975,10.3625 c 0.62875,10.94875 6.066246,23.63125 26.422506,27.655 -0.0213,0.0412 -0.0425,0.08 -0.065,0.12125 -1.09125,0.0538 -2.09375,0.15375 -3.14501,0.2925 -1.27,0.17 -2.53125,0.39625 -3.795,0.6825 -2.5175,0.58125 -5.02875,1.395 -7.47375,2.55375 -2.44,1.15875 -4.82875,2.66625 -6.9575,4.6425 -2.131246,1.96 -3.971246,4.405 -5.282496,7.135 -1.30375,2.72625 -2.17625,5.765 -2.4325,8.7825 -0.30125,3.14375 0.06375,6.37375 0.9275,9.36625 0.85875,3.00375 2.18625,5.77875 3.77375,8.31375 0.8,1.2675 1.666246,2.47875 2.604996,3.64375 0.395,0.48875 0.80125,0.96875 1.22,1.43625 0.4225,0.4725 0.6725,0.555 0.53375,1.1775 -0.0637,0.27625 0.02,0.565 0.2225,0.76375 0.2225,0.21625 5.555,5.34 14.8475,6.2875 0.03,0.005 0.0563,0.005 0.0838,0.005 0.1875,0 0.37125,-0.0638 0.5175,-0.185 0.17625,-0.1475 3.87876,-3.23125 6.84126,-8.04 0.92125,0.12625 1.9025,0.21 2.93125,0.27375 1.82375,7.4025 3.4325,14.1725 5.36125,21.555 0.38125,-0.1475 0.7675,-0.3225 1.125,-0.51375 2.27625,-1.215 4.35625,-2.595 6.225,-4.11625 -2.21125,-5.73875 -4.13125,-10.88875 -6.27875,-16.65375 l 16.39375,0.69625 c 0.5975,0.0238 1.18375,0.0513 1.76375,0.08 -0.4275,1.86625 -1.025,3.69 -1.7775,5.4325 -1.5425,3.5725 -3.74,6.7975 -6.42,9.5425 -2.67875,2.75 -5.835,5.02125 -9.265,6.8525 -2.6275,1.405 -5.41875,2.55 -8.30125,3.49 -3.1525,-1.925 -8.36001,-0.1575 -9.78251,0.635 -0.2025,0.11125 -0.285,0.38 -0.19375,0.5925 l 10.72501,24.46875 c 0.0937,0.21125 0.35,0.34125 0.57125,0.27125 1.7725,-0.555 7.47,-3.98875 3.6975,-16.145 2.9325,-1.38125 5.78875,-2.975 8.50125,-4.83625 3.9275,-2.6925 7.5475,-5.95375 10.51125,-9.76125 2.96625,-3.8 5.25,-8.13125 6.6425,-12.6925 0.69875,-2.28 1.18125,-4.61125 1.44125,-6.965 0.0275,-0.2425 0.0413,-0.4875 0.0637,-0.73125 5.13625,-0.17875 8.66875,-1.6025 8.9225,-7.58375 l -0.65125,-29.115 c 0.4275,0.72375 0.8475,1.45 1.2425,2.19375 1.9475,3.6725 3.525,7.545 4.82,11.50625 2.2975,7.0575 3.70875,14.3875 4.52375,21.7825 -0.30625,0.1025 -0.505,0.1725 -0.56125,0.1925 -4.00125,1.805 -5.435,3.17375 -5.495,3.23125 -0.2625,0.25625 -0.32125,0.65625 -0.14375,0.9775 l 1.42875,2.57375 c 0.1425,0.2575 0.41625,0.4175 0.71125,0.4175 l 34.1325,0 c 0.465,0 0.82875,-0.36375 0.82875,-0.8125 0,-0.0575 -0.005,-0.115 -0.0175,-0.1675 z M 99.082244,405.2697 l -1.8625,-32.3775 c 0.1275,-12.12 0.71,-18.62875 0.71,-18.62875 0,0 3.269996,3.14 13.004996,3.055 20.82626,-0.1825 65.57876,-14.1025 65.57876,-14.1025 2.88375,6.1125 4.92875,13.20875 6.3775,20.0475 l 2.1325,37.065 c 1.10375,19.18625 -12.66375,29.75375 -40.92125,31.405 -2.21375,0.13 -4.37875,0.195 -6.4375,0.195 -24.58251,0 -37.56376,-8.96875 -38.582506,-26.65875 z m 6.152496,50.21875 c 0.0712,-1.11625 0.18875,-2.20875 0.46625,-3.295 0.85125,-3.41125 3.21125,-6.57125 6.62,-9.01 1.6875,-1.22125 3.59625,-2.26875 5.62,-3.14125 1.0125,-0.43375 2.0525,-0.82625 3.11126,-1.17125 0.0475,-0.0163 0.0988,-0.03 0.14625,-0.045 -0.1,0.705 -0.16875,1.42125 -0.2,2.1475 l -2.89751,26.9825 c -0.7575,-0.38625 -2.96875,-1.27875 -7.19125,-1.2975 -0.21125,-0.18875 -0.4225,-0.37625 -0.62375,-0.57125 -1.29125,-1.26125 -2.405,-2.64375 -3.2425,-4.09875 -0.84125,-1.45875 -1.4175,-2.98875 -1.6675,-4.6175 -0.045,-0.2625 0.01,-1.71875 -0.14125,-1.8825 z m 12.63625,31.12375 c -7.2475,-0.8375 -11.94375,-4.43125 -13.19625,-5.49875 1.75875,-7.14125 5.2575,-11.72125 6.1775,-12.8325 3.55375,0.01 5.51,0.67125 6.2725,1.00875 l -0.1,2.6925 -0.43875,-0.009 c -0.34875,0.009 -0.68875,0.23 -0.79375,0.57875 -0.105,0.34875 0.0362,0.72625 0.34375,0.92125 2.88375,1.8175 6.99751,3.65625 8.73626,4.40375 -2.4925,4.5775 -6.03251,7.87875 -7.00126,8.735 z m 56.83251,-0.54125 -0.86625,-1.5575 c 0.6625,-0.4925 2.06125,-1.41125 4.49,-2.51 0.10125,-0.035 10.69125,-3.745 15.67375,-3.46125 0.78375,0.17875 8.62125,1.96375 12.16,3.25375 0.32375,0.55 1.1675,2.1575 1.35,4.275 l -32.8075,0"
           inkscape:connector-curvature="0" />
      </g>
    </g>
    <path
       style="fill:#000000"
       d="m 75.0104,414.92984 c -7.307612,-17.01788 -9.545276,-23.95466 -8.170702,-25.32922 1.04115,-1.04116 6.345678,-1.93507 11.787842,-1.9865 19.755238,-0.18664 43.49111,-16.98652 53.0708,-37.56269 7.04691,-15.13602 7.11658,-15.06454 -14.68432,-15.06454 l -18.922148,0 5.326318,14.22414 c 7.65621,20.44619 7.5987,19.32307 1.19709,23.37628 -3.15035,1.99465 -6.219877,3.07901 -6.821178,2.40967 -0.601302,-0.66935 -3.302443,-10.39573 -6.002538,-21.61421 l -4.909262,-20.39721 -4.805868,0.70535 c -3.86722,0.56759 -4.627455,0.14327 -3.892403,-2.17271 0.664497,-2.09364 -0.976786,-3.73045 -6.021945,-6.0055 -9.593189,-4.32591 -10.407331,-5.76702 -7.797146,-13.80167 2.195727,-6.75888 8.522501,-61.03724 7.261574,-62.29817 -0.352467,-0.35247 -5.484664,1.77964 -11.404881,4.73801 -17.125421,8.55768 -25.002655,22.61761 -20.884281,37.27599 2.242088,7.98019 8.599365,15.41886 14.061777,16.45374 4.062281,0.76962 4.063392,0.77615 0.171483,1.00943 -4.900729,0.29374 -13.828826,13.77219 -15.326453,23.13784 l -1.050426,6.569 -2.783954,-4.15932 c -1.531174,-2.28764 -4.839681,-7.22831 -7.352236,-10.9793 -14.337187,-21.40388 -13.21244,-46.11046 2.915774,-64.04891 8.60974,-9.5761 23.493462,-17.11002 36.950564,-18.70381 10.279062,-1.21741 11.162764,-3.14785 2.201945,-4.81012 C 58.980983,234.01348 43.23379,224.76477 35.8051,216.32532 27.55315,206.95062 22.143069,190.83987 22.143069,175.641 c 0,-9.36346 -0.985871,-12.59089 -7.857679,-25.72351 C 4.4998969,131.21656 1.5141221,117.45146 1.5102838,91.021375 1.5057467,59.779271 6.4348838,43.629907 18.445676,35.535835 38.180067,22.236831 113.40534,8.9865493 154.90169,11.500287 c 22.88303,1.386193 29.671,3.298241 37.80848,10.649965 12.44921,11.247116 22.22104,40.988276 23.76143,72.319398 1.05692,21.49734 -0.80517,33.25544 -7.50874,47.41379 -4.00848,8.46614 -4.45546,11.34003 -4.16936,26.80683 0.56379,30.47859 -9.13003,46.91129 -34.978,59.29379 l -14.05174,6.73152 10.8956,10.00007 c 18.40885,16.89583 35.26205,42.83553 46.04776,70.87469 3.10516,8.07234 5.78057,12.54297 7.55317,12.62131 1.50966,0.0667 -3.84998,1.576 -11.91032,3.35397 -8.06035,1.77794 -16.2069,3.6956 -18.10345,4.26143 -3.1345,0.93517 -3.48436,0.14034 -3.84476,-8.735 -0.50716,-12.48955 -7.75116,-39.85645 -14.22574,-53.74309 -2.7633,-5.92672 -5.49425,-10.77586 -6.06877,-10.77586 -0.57452,0 -0.8918,14.19627 -0.70507,31.54727 0.36957,34.34006 -0.47901,38.39623 -8.39509,40.12811 -2.58038,0.56453 -5.58569,1.29614 -6.67845,1.62577 -1.09277,0.32966 -2.84232,4.58831 -3.88791,9.46369 -4.69791,21.90562 -22.23828,44.58266 -43.78878,56.61224 -8.341072,4.65604 -9.822714,6.17166 -8.893959,9.0979 3.393499,10.69197 -0.630675,27.44952 -6.568462,27.35254 -1.163484,-0.019 -6.644091,-10.58087 -12.179129,-23.47078 l 0,0 z m 72.13267,-182.28793 c 18.23652,-4.32683 30.39657,-10.06259 40.25688,-18.98874 5.92293,-5.3618 12.37707,-19.07697 13.52048,-28.73126 1.49071,-12.58664 -2.81877,-85.468546 -5.75619,-97.348811 -3.2576,-13.175254 -9.29534,-30.010492 -11.18079,-31.175759 -0.79864,-0.493586 -12.5179,2.196854 -26.04278,5.978754 C 91.248547,81.024899 47.342017,87.354306 31.265536,80.637123 26.229757,78.53304 24.674645,78.447419 23.436643,80.206088 c -1.851809,2.630625 -0.292215,74.168402 2.152097,98.715572 3.261865,32.75751 16.664789,47.98299 48.666619,55.28439 13.354758,3.04696 57.440411,2.10091 72.887711,-1.56414 l 0,0 z"
       id="path2989"
       inkscape:connector-curvature="0"
       transform="translate(-783.16211,405.6525)" />
    <path
       style="fill:#000000"
       d="m 104.90169,436.54602 c 0,-1.98731 1.24841,-5.72669 2.77425,-8.30973 2.4572,-4.1597 2.50003,-5.66733 0.37478,-13.19197 l -2.39948,-8.49554 6.95281,-4.71509 c 3.82405,-2.59329 7.41136,-4.7292 7.9718,-4.74646 0.56044,-0.0172 3.23947,5.48444 5.95341,12.226 2.71394,6.74155 5.96943,12.65454 7.23444,13.13997 2.9566,1.13455 7.34489,9.6019 7.34489,14.17221 0,3.33806 -1.00322,3.5339 -18.10345,3.5339 -17.22961,0 -18.10345,-0.17441 -18.10345,-3.61329 z"
       id="path2991"
       inkscape:connector-curvature="0"
       transform="translate(-783.16211,405.6525)" />
    <path
       style="fill:#000000"
       d="m 149.72928,153.95241 c -6.41175,-6.41175 -3.87904,-29.31035 3.24189,-29.31035 0.6993,0 2.72045,1.05954 4.49145,2.35453 4.75997,3.48057 5.94135,22.32378 1.69386,27.01721 -3.84126,4.24453 -5.12967,4.23615 -9.4272,-0.0614 z"
       id="path2995"
       inkscape:connector-curvature="0"
       transform="translate(-783.16211,405.6525)" />
    <path
       style="fill:#000000"
       d="m 63.479706,156.42637 c -2.209216,-5.81067 -2.150371,-19.06588 0.103335,-23.27696 2.388578,-4.4631 7.742994,-4.22225 11.048469,0.49698 2.687847,3.83743 3.707633,19.08052 1.63744,24.47535 -0.623424,1.62462 -3.080386,2.72722 -6.077156,2.72722 -3.813609,0 -5.437406,-1.06992 -6.712088,-4.42259 z"
       id="path2997"
       inkscape:connector-curvature="0"
       transform="translate(-783.16211,405.6525)" />
    <path
       style="fill:#ffffff"
       d="m 89.72799,200.63277 c -5.927832,-1.51353 -8.366548,-3.02517 -7.032573,-4.35915 0.430229,-0.43022 7.873984,-0.21561 16.541678,0.47693 14.638145,1.16957 25.296535,0.18452 43.164595,-3.98924 9.38859,-2.19307 6.54914,2.14146 -3.44828,5.26391 -10.23476,3.19659 -40.615432,4.8059 -49.22542,2.60755 z"
       id="path2999"
       inkscape:connector-curvature="0"
       transform="translate(-783.16211,405.6525)" />
    <path
       style="fill:#ffffff"
       d="M 76.289202,232.54615 C 49.732555,226.46549 35.163097,214.59921 30.114497,194.93857 26.937125,182.56501 23.874292,138.04989 23.870076,104.18236 l -0.0029,-23.045922 3.87931,1.199481 c 8.205206,2.537044 31.766011,3.035356 45.961035,0.97208 23.156238,-3.365807 69.745378,-14.387083 107.169018,-25.352242 2.09063,-0.612556 3.97508,3.105319 8.36005,16.493769 6.10948,18.653862 7.68478,31.848314 9.81352,82.197014 0.99741,23.59068 0.73748,28.99902 -1.75423,36.50089 -5.88731,17.72503 -23.65817,31.23892 -49.38196,37.55265 -15.68994,3.85098 -58.095116,4.94395 -71.624748,1.84607 l 0,0 z M 140.23228,199.3441 c 14.73627,-5.56081 11.01325,-12.53918 -3.91362,-7.33564 -2.91747,1.01704 -9.04618,2.54189 -13.61935,3.38857 l -8.31486,1.53942 9.57376,-0.77747 c 5.26557,-0.4276 12.24833,-1.22824 15.51724,-1.7792 4.18984,-0.70618 5.18042,-0.50697 3.35727,0.67517 -7.27485,4.7171 -48.085604,7.32648 -56.034479,3.58277 -2.340762,-1.10244 1.449857,-1.39838 11.802214,-0.92143 19.432375,0.89528 17.249265,-1.58646 -2.750489,-3.12673 -14.308507,-1.10197 -15.086207,-0.9847 -15.086207,2.27489 0,2.61858 1.744453,3.85447 7.327586,5.19139 11.337788,2.7149 41.983945,1.12106 52.140935,-2.71174 z M 75.207714,161.61326 c 3.313443,-2.32082 3.831907,-4.25179 3.831907,-14.27154 0,-13.15979 -2.992537,-19.25138 -9.457371,-19.25138 -7.052864,0 -9.508147,4.28166 -9.508147,16.58083 0,9.55229 0.610347,11.77246 4.231975,15.39409 4.973708,4.97371 5.835953,5.09615 10.901636,1.548 l 0,0 z m 84.659996,-5.29655 c 3.70379,-2.59424 3.95962,-3.78906 3.3588,-15.687 -0.67784,-13.42326 -3.16095,-17.71178 -10.25534,-17.71178 -6.07459,0 -8.41431,4.82845 -8.41431,17.36453 0,9.64696 0.66359,12.6094 3.44828,15.39409 4.18223,4.18223 6.61789,4.31367 11.86257,0.64016 z"
       id="path3001"
       inkscape:connector-curvature="0"
       transform="translate(-783.16211,405.6525)" />
  </g>
</svg>
