<?xml version="1.0" encoding="UTF-8" standalone="no"?>
<!-- Created with Inkscape (http://www.inkscape.org/) -->

<svg
   xmlns:dc="http://purl.org/dc/elements/1.1/"
   xmlns:cc="http://creativecommons.org/ns#"
   xmlns:rdf="http://www.w3.org/1999/02/22-rdf-syntax-ns#"
   xmlns:svg="http://www.w3.org/2000/svg"
   xmlns="http://www.w3.org/2000/svg"
   xmlns:sodipodi="http://sodipodi.sourceforge.net/DTD/sodipodi-0.dtd"
   xmlns:inkscape="http://www.inkscape.org/namespaces/inkscape"
   width="250.00002"
   height="273.55484"
   id="svg2"
   version="1.1"
   inkscape:version="0.48.4 r9939"
   sodipodi:docname="drawing2.svg">
  <defs
     id="defs4" />
  <sodipodi:namedview
     id="base"
     pagecolor="#888888"
     bordercolor="#666666"
     borderopacity="1.0"
     inkscape:pageopacity="1"
     inkscape:pageshadow="2"
     inkscape:zoom="1.2432572"
     inkscape:cx="380.43712"
     inkscape:cy="64.935762"
     inkscape:document-units="px"
     inkscape:current-layer="layer1"
     showgrid="false"
     fit-margin-top="0"
     fit-margin-left="0"
     fit-margin-right="0"
     fit-margin-bottom="0"
     inkscape:window-width="1615"
     inkscape:window-height="1026"
     inkscape:window-x="1431"
     inkscape:window-y="24"
     inkscape:window-maximized="1" />
  <metadata
     id="metadata7">
    <rdf:RDF>
      <cc:Work
         rdf:about="">
        <dc:format>image/svg+xml</dc:format>
        <dc:type
           rdf:resource="http://purl.org/dc/dcmitype/StillImage" />
        <dc:title />
      </cc:Work>
    </rdf:RDF>
  </metadata>
  <g
     inkscape:label="Layer 1"
     inkscape:groupmode="layer"
     id="layer1"
     transform="translate(5.437121,-227.22244)">
    <g
       transform="matrix(1.0197425,0,0,1.0197425,343.55019,-18.584213)"
       id="g3309">
      <path
         inkscape:connector-curvature="0"
         d="m -254.19463,299.83152 c -23.17375,-5.32 -63.9775,0.15875 -76.1425,5.79375 -6.5675,3.03875 -11.40375,10.4325 -11.8775,32.96375 -0.36125,17.22 5.415,26.685 8.15875,30.19125 l 0,10.3775 c 0,11.215 4.8525,24.11125 25.0375,29.205 -0.3575,0.495 -0.68125,1.0025 -0.9675,1.52875 -0.735,0.18125 -1.44,0.47625 -2.10875,0.83 -0.6225,0.32875 -1.195,0.695 -1.73,1.0875 -1.07375,0.785 -2.01125,1.665 -2.865,2.59375 -1.70375,1.86 -3.07125,3.8975 -4.2575,5.9875 -2.3575,4.19625 -4.0025,8.6075 -5.345,13.045 -2.35,7.9125 -3.7275,15.945 -4.685,23.96875 -0.10875,0.08 -0.2025,0.18 -0.26125,0.3075 -0.14375,0.30875 -3.49125,7.71125 0.0125,16.9175 0.0775,0.2025 0.23125,0.36625 0.43125,0.45625 0.25375,0.11 6.2975,2.745 13.40125,2.745 0.46375,0 0.8275,-0.36375 0.8275,-0.8125 0,-0.0737 -0.009,-0.1475 -0.0288,-0.21875 -0.0488,-0.73875 -0.25125,-3.97125 -0.2075,-7.22125 l 0.3275,0.77875 c 0.125,0.3025 0.42,0.49875 0.74875,0.49875 0.1125,0 2.8,-0.0175 4.25,-1.68125 0.155,-0.1825 0.225,-0.41875 0.19,-0.65625 -0.0362,-0.24375 -0.93125,-6.05625 -3.82,-11.07375 -0.0688,-0.1225 -0.175,-0.2125 -0.295,-0.28375 -0.7075,-7.28875 -1.02625,-14.59 -0.5175,-21.73875 0.3075,-4.08875 0.89125,-8.13875 2.03125,-11.91375 0.51,-1.67375 1.145,-3.2875 1.92875,-4.7575 l -1.97,30.44625 c 0,6.675 4.305,7.86625 10.415,8.0525 -0.17875,2.3025 -0.345,4.60625 -0.50375,6.91375 -0.3,4.44625 -0.55375,8.89625 -0.7625,13.3525 -0.3475,7.43375 -0.56125,14.885 -0.59875,22.365 -4.8025,2.2075 -4.2925,7.3 -4.105,9.01375 0.0275,0.23 0.25,0.4125 0.48,0.4125 l 17.26875,0 c 0.23125,0 0.445,-0.18375 0.465,-0.415 0.1425,-1.48375 0.64625,-6.40625 -3.14,-8.7675 -0.78125,-7.51125 -1.38125,-15.07625 -1.84125,-22.66 -0.26125,-4.395 -0.48,-8.7975 -0.6575,-13.20125 -0.09,-2.33 -0.17,-4.665 -0.235,-7 l 17.14625,0 c 0.0875,0 0.16875,0.002 0.255,0.002 0.0175,2.35625 0.005,4.7225 -0.0225,7.07625 -0.06,4.39125 -0.19625,8.78125 -0.40375,13.16375 -0.36125,7.59625 -0.95,15.16875 -1.76125,22.6925 -2.465,2.38125 -2.86125,7.19375 -2.71625,8.69375 0.0187,0.23125 0.23375,0.415 0.465,0.415 l 26.715,0 c 0.23,0 0.4525,-0.1825 0.47875,-0.4125 0.20625,-1.8775 -0.6925,-8.665 -13.96,-9.9325 -0.035,-7.19 -0.26625,-14.36375 -0.69125,-21.5125 -0.26625,-4.4725 -0.60625,-8.93875 -1.02375,-13.39625 -0.215,-2.27875 -0.4475,-4.54375 -0.705,-6.8125 5.96625,-0.21375 10.1425,-1.46875 10.1425,-8.04375 l -1.98875,-30.71 c 0.85,1.5375 1.52625,3.2475 2.06625,5.02125 1.1425,3.775 1.72375,7.825 2.03125,11.91375 0.51,7.14875 0.19,14.45 -0.515,21.73875 -0.12,0.0712 -0.2275,0.16125 -0.29625,0.28375 -2.88875,5.0175 -3.78375,10.83 -3.82,11.07375 -0.035,0.2375 0.0337,0.47375 0.19,0.65625 1.45,1.66375 4.1375,1.68125 4.25,1.68125 0.3275,0 0.6225,-0.19625 0.75,-0.49875 l 0.325,-0.77875 c 0.05,3.675 -0.21375,7.33125 -0.2175,7.38 -0.0175,0.2275 0.0613,0.4475 0.215,0.6125 0.15375,0.16625 0.37,0.26 0.595,0.26 7.105,0 13.1475,-2.635 13.40125,-2.745 0.1975,-0.09 0.35375,-0.25375 0.4325,-0.45625 3.50375,-9.20625 0.155,-16.60875 0.0125,-16.9175 -0.0587,-0.1275 -0.15375,-0.2275 -0.26375,-0.3075 -0.9575,-8.02375 -2.335,-16.05625 -4.685,-23.96875 -1.34125,-4.4375 -2.98625,-8.84875 -5.345,-13.045 -1.185,-2.09 -2.55375,-4.1275 -4.255,-5.9875 -0.855,-0.92875 -1.795,-1.80875 -2.86625,-2.59375 -0.5375,-0.3925 -1.10625,-0.75875 -1.73,-1.0875 -0.49375,-0.2625 -1.0075,-0.48875 -1.5375,-0.665 -0.1975,-0.0638 -0.34875,-0.1125 -0.6525,-0.18375 -0.27,-0.50375 -0.57125,-0.9925 -0.90625,-1.465 20.1075,-5.0625 24.9375,-18.00375 24.9375,-29.25 l 0,-9.55625 c 14.58375,-19.27 5.7825,-51.125 2.77875,-58.03125 -3.04625,-7 -6.78375,-10.11 -13.87625,-11.73875 z m -58.7675,168.525 c -0.67375,0.5625 -1.64625,0.7625 -2.24125,0.83375 l -1.48375,-3.54375 c -0.14375,-0.34375 -0.50625,-0.54375 -0.87,-0.4875 -0.36875,0.0563 -0.6525,0.35375 -0.6875,0.7225 -0.35,3.58625 -0.1325,8.355 -0.0162,10.31 -5.51625,-0.1775 -10.32625,-1.965 -11.56875,-2.46625 -2.65625,-7.3125 -0.6575,-13.46875 -0.0775,-14.9775 2.675,-0.62 5.28,-0.93625 7.7425,-0.93625 3.09625,0 5.11375,0.5075 5.80375,0.71375 2.2025,3.9525 3.15125,8.48 3.39875,9.83125 z m 65.7575,5.36875 c -1.24125,0.50125 -6.04,2.29 -11.5675,2.46625 0.1175,-1.955 0.33375,-6.72375 -0.015,-10.31 -0.0362,-0.36875 -0.32,-0.66625 -0.6875,-0.7225 -0.0412,-0.007 -0.0825,-0.01 -0.1225,-0.01 -0.3225,0 -0.62,0.1925 -0.74875,0.4975 l -1.485,3.54375 c -0.59375,-0.0712 -1.56625,-0.27125 -2.24125,-0.83375 0.25,-1.35125 1.1975,-5.87875 3.4,-9.83375 0.68625,-0.205 2.68625,-0.71125 5.80375,-0.71125 2.4625,0 5.06625,0.31625 7.74375,0.93625 0.57875,1.50875 2.57625,7.665 -0.08,14.9775 z m 1.67,-94.5675 c 0,19.21875 -14.3525,28.9775 -42.65625,29.00375 l -0.12,0 c -28.3325,0 -43.30625,-10.02875 -43.30625,-29.00375 l 0,-32.44375 c 0.8225,-12.085 1.77625,-18.54375 1.77625,-18.54375 0,0 3.085,3.32125 12.80875,3.795 20.80375,1.01375 66.28,-10.31625 66.28,-10.31625 2.52625,6.27125 4.1625,13.47125 5.2175,20.3825 l 0,37.12625"
         style="fill:#3d464c;fill-opacity:1;fill-rule:nonzero;stroke:none"
         id="path2997" />
      <path
         inkscape:connector-curvature="0"
         d="m -267.79838,354.18027 c -3.71875,0 -4.5675,3.65375 -4.5675,8.3625 0,4.70625 0.84875,8.3625 4.5675,8.3625 3.7225,0 4.57,-3.65625 4.57,-8.3625 0,-4.70875 -0.8475,-8.3625 -4.57,-8.3625"
         style="fill:#3d464c;fill-opacity:1;fill-rule:nonzero;stroke:none"
         id="path2999" />
      <path
         inkscape:connector-curvature="0"
         d="m -309.35588,354.18027 c -3.72125,0 -4.57,3.65375 -4.57,8.3625 0,4.70625 0.84875,8.3625 4.57,8.3625 3.71875,0 4.5675,-3.65625 4.5675,-8.3625 0,-4.70875 -0.84875,-8.3625 -4.5675,-8.3625"
         style="fill:#3d464c;fill-opacity:1;fill-rule:nonzero;stroke:none"
         id="path3001" />
      <path
         inkscape:connector-curvature="0"
         d="m -273.67963,386.46277 -29.795,-0.005 c -0.8975,0 -1.62375,0.73125 -1.4525,1.61125 0.61875,3.19625 3.45375,10.02 16.35,10.0225 12.8925,10e-4 15.73,-6.8225 16.35,-10.015 0.17125,-0.88125 -0.55375,-1.61375 -1.4525,-1.61375"
         style="fill:#3d464c;fill-opacity:1;fill-rule:nonzero;stroke:none"
         id="path3003" />
      <path
         inkscape:connector-curvature="0"
         d="m -158.69213,241.04777 c -34.60375,0 -61.62125,12.4 -61.62125,45.395 0,16.13125 6.47,27.33 17.1175,34.5725 l -23.09125,59.15125 54.27875,-49.00875 c 4.2775,0.45625 8.72875,0.68125 13.31625,0.68125 34.60375,0 61.62125,-12.4025 61.62125,-45.39625 0,-32.995 -27.0175,-45.395 -61.62125,-45.395"
         style="fill:#3d464c;fill-opacity:1;fill-rule:nonzero;stroke:none"
         id="path3005" />
    </g>
    <path
       style="fill:#ffffff"
       d="m 42.856132,169.33474 c -17.48855,-3.57239 -25.302715,-8.18631 -29.468343,-17.39979 -1.855456,-4.10387 -1.90087,-4.75199 -1.90087,-27.12797 0,-12.60801 0.298483,-25.68757 0.663296,-29.065683 l 0.663297,-6.142025 2.381798,1.188198 c 7.937026,3.95951 31.851788,1.982111 65.822531,-5.442555 5.947806,-1.299955 11.076115,-2.363556 11.396249,-2.363556 0.717881,0 3.513296,8.555623 4.677721,14.316604 0.4901,2.424738 0.861527,13.941957 0.861527,26.714087 0,20.90858 -0.117248,22.76509 -1.705841,27.01099 -4.708294,12.58404 -18.81073,18.91163 -41.728453,18.72304 -5.529829,-0.0455 -10.77814,-0.23062 -11.662912,-0.41134 z m 23.174145,-11.45613 c 3.155339,-1.95011 5.379881,-5.30498 5.379881,-8.11351 0,-1.63715 -0.278326,-1.66131 -16.67954,-1.44753 -14.314465,0.18657 -16.713518,0.39422 -16.919167,1.46442 -0.415003,2.15966 3.305061,6.72209 7.062019,8.66112 3.162382,1.63217 4.519685,1.82911 10.881987,1.57899 5.863942,-0.23053 7.849955,-0.64484 10.27482,-2.14349 l 0,0 z M 35.697754,132.23479 c 2.720399,-1.81646 3.73924,-10.61231 1.698891,-14.66686 -1.41741,-2.81666 -5.563891,-3.19585 -7.332666,-0.67057 -1.986195,2.83569 -1.77304,12.24639 0.324901,14.34433 1.649216,1.64921 3.740402,2.0404 5.308874,0.9931 z m 43.06343,-0.92204 c 1.667538,-1.35029 1.898871,-2.22191 1.898871,-7.1546 0,-6.18879 -1.508638,-9.00324 -4.826033,-9.00324 -3.307381,0 -4.755062,2.73785 -4.755062,8.99276 0,4.97353 0.233183,5.87376 1.863385,7.19382 2.348219,1.90147 3.441804,1.89607 5.818839,-0.0287 l 0,-1e-5 z"
       id="path2988"
       inkscape:connector-curvature="0"
       transform="translate(-5.437121,227.22244)" />
    <path
       style="fill:#ffffff"
       d="m 85.87594,234.80031 c -0.0068,-2.32253 -0.37139,-4.76571 -0.810258,-5.42929 -0.676123,-1.02232 -1.034228,-0.90136 -2.345688,0.79232 -0.851262,1.09936 -1.790356,1.75622 -2.086878,1.4597 -0.971524,-0.97152 2.114406,-8.67114 3.846927,-9.59836 1.845099,-0.98746 10.792829,-0.4819 11.949928,0.6752 1.249216,1.24922 1.714525,7.80018 0.796261,11.21035 -0.813941,3.02275 -1.208507,3.39553 -4.460779,4.21446 -6.507805,1.63868 -6.875555,1.46123 -6.889513,-3.32438 z"
       id="path2990"
       inkscape:connector-curvature="0"
       transform="translate(-5.437121,227.22244)" />
    <path
       style="fill:#ffffff"
       d="m 15.985707,237.90993 c -1.617021,-0.58465 -3.045173,-1.79594 -3.484128,-2.95508 -0.744348,-1.96558 -0.518107,-11.5767 0.291569,-12.38638 0.828645,-0.82864 7.849648,-1.43751 10.608391,-0.91997 2.871302,0.53866 3.663814,1.65731 5.328587,7.52143 0.567546,1.99917 0.49358,2.6141 -0.314429,2.6141 -0.581102,0 -1.245855,-0.7239 -1.477228,-1.60867 -0.231373,-0.88478 -0.997494,-1.60868 -1.702488,-1.60868 -1.041388,0 -1.281811,0.98063 -1.281811,5.2282 l 0,5.2282 -2.614101,-0.0612 c -1.437756,-0.0337 -3.847218,-0.50704 -5.354362,-1.05196 z"
       id="path2992"
       inkscape:connector-curvature="0"
       transform="translate(-5.437121,227.22244)" />
  </g>
</svg>
