<?xml version="1.0" encoding="UTF-8" standalone="no"?>
<!-- Created with Inkscape (http://www.inkscape.org/) -->

<svg
   xmlns:dc="http://purl.org/dc/elements/1.1/"
   xmlns:cc="http://creativecommons.org/ns#"
   xmlns:rdf="http://www.w3.org/1999/02/22-rdf-syntax-ns#"
   xmlns:svg="http://www.w3.org/2000/svg"
   xmlns="http://www.w3.org/2000/svg"
   xmlns:sodipodi="http://sodipodi.sourceforge.net/DTD/sodipodi-0.dtd"
   xmlns:inkscape="http://www.inkscape.org/namespaces/inkscape"
   width="250"
   height="371.08133"
   id="svg2"
   version="1.1"
   inkscape:version="0.48.4 r9939"
   sodipodi:docname="drawing1.svg">
  <defs
     id="defs4" />
  <sodipodi:namedview
     id="base"
     pagecolor="#888888"
     bordercolor="#666666"
     borderopacity="1.0"
     inkscape:pageopacity="1"
     inkscape:pageshadow="2"
     inkscape:zoom="1.32"
     inkscape:cx="66.446383"
     inkscape:cy="120.12487"
     inkscape:document-units="px"
     inkscape:current-layer="layer1"
     showgrid="false"
     inkscape:window-width="1615"
     inkscape:window-height="1026"
     inkscape:window-x="1431"
     inkscape:window-y="24"
     inkscape:window-maximized="1"
     fit-margin-top="0"
     fit-margin-left="0"
     fit-margin-right="0"
     fit-margin-bottom="0"
     showguides="false">
    <inkscape:grid
       type="xygrid"
       id="grid2993"
       empspacing="5"
       visible="true"
       enabled="true"
       snapvisiblegridlinesonly="true" />
  </sodipodi:namedview>
  <metadata
     id="metadata7">
    <rdf:RDF>
      <cc:Work
         rdf:about="">
        <dc:format>image/svg+xml</dc:format>
        <dc:type
           rdf:resource="http://purl.org/dc/dcmitype/StillImage" />
        <dc:title />
      </cc:Work>
    </rdf:RDF>
  </metadata>
  <g
     inkscape:label="Layer 1"
     inkscape:groupmode="layer"
     id="layer1"
     transform="translate(357.15176,-627.31734)">
    <g
       id="g3265"
       transform="matrix(1.7497818,0,0,1.7497818,-401.21536,340.04222)">
      <path
         inkscape:connector-curvature="0"
         d="m 100.52754,237.17064 c 3.71975,-0.11 4.458,-3.79 4.31887,-8.49625 -0.13925,-4.705 -1.09375,-8.3325 -4.813,-8.2225 -3.718247,0.10875 -4.459497,3.78875 -4.320367,8.4925 0.13912,4.7075 1.09625,8.33625 4.814497,8.22625"
         style="fill:#3d464c;fill-opacity:1;fill-rule:nonzero;stroke:none"
         id="path3071" />
      <path
         inkscape:connector-curvature="0"
         d="m 58.493789,221.68064 c -3.720625,0.11 -4.459,3.78875 -4.32125,8.495 0.139125,4.70375 1.09625,8.335 4.816875,8.225 3.715875,-0.11 4.458,-3.79125 4.318875,-8.49625 -0.139125,-4.705 -1.098625,-8.33375 -4.8145,-8.22375"
         style="fill:#3d464c;fill-opacity:1;fill-rule:nonzero;stroke:none"
         id="path3073" />
      <path
         inkscape:connector-curvature="0"
         d="m 97.031413,253.98689 c -0.24025,-0.81375 -1.09612,-1.28125 -1.92387,-1.0675 -9.60688,2.52 -19.826629,2.8225 -29.565379,0.87625 -0.837375,-0.1675 -1.665,0.35 -1.8565,1.18 -0.192875,0.8275 0.362375,1.66 1.245125,1.835 10.20125,2.04 20.901874,1.72375 30.965374,-0.915 0.87163,-0.2275 1.377,-1.09125 1.13525,-1.90875"
         style="fill:#3d464c;fill-opacity:1;fill-rule:nonzero;stroke:none"
         id="path3075" />
      <path
         inkscape:connector-curvature="0"
         d="m 167.85029,215.30439 c -2.36375,-2.64125 -6.3075,-1.74625 -6.37875,-1.73 -0.29125,0.0675 -0.52125,0.29 -0.6,0.5775 l -1.27625,4.67625 0.6025,-6.4275 c 0.0238,-0.2525 -0.0712,-0.49875 -0.25625,-0.6725 -1.00375,-0.93 -2.3675,-1.4225 -3.945,-1.425 -1.40125,-0.002 -2.5125,0.38 -2.55875,0.39625 -0.27375,0.095 -0.47375,0.3275 -0.52875,0.61125 l -1.605,8.2475 -0.38875,-7.225 c -0.0112,-0.24375 -0.13625,-0.47125 -0.33375,-0.615 -0.8925,-0.64375 -1.96375,-0.975 -3.18125,-0.97625 -1.81625,-0.004 -3.34,0.735 -3.40375,0.76625 -0.25875,0.1275 -0.43,0.3825 -0.45125,0.66875 l -0.98875,13.575 c -0.0712,0.155 -0.20375,0.43375 -0.345,0.7375 -0.1,0.2075 -0.185,0.3875 -0.25625,0.54 l -5.29,-2.59625 c -0.235,-0.1175 -0.51,-0.11125 -0.74125,0.0125 -3.10988,1.665 -3.81788,5.8075 -3.84725,5.98375 -0.0478,0.2975 0.0733,0.5975 0.3135,0.77875 l 8.7625,6.58875 c 0.6675,2.11125 2.96625,3.81375 3.2,3.9825 -0.2975,4.96625 -1.1925,9.795 -2.97625,14.20125 -1.8725,4.68 -4.775,8.86875 -8.7065,12.21625 -3.91738,3.355 -8.82713,5.83375 -14.164,7.39125 -2.667,0.7825 -5.44188,1.345 -8.26175,1.69875 -1.40963,0.17625 -2.832,0.30125 -4.25775,0.36875 -0.82625,0.04 -1.67488,0.0587 -2.50488,0.0562 -0.48837,-1.09875 -1.11575,-2.135 -1.89462,-3.0975 19.794,-5.68375 24.20562,-18.72 23.8745,-29.9275 l -0.28313,-9.55 c 14.00813,-19.695 4.269,-51.275 1.061,-58.08875 -3.251,-6.90625 -7.0815,-9.905 -14.21775,-11.32375 -23.320367,-4.6325 -63.942871,2.05375 -75.937496,8.04375 -6.472125,3.235 -11.088875,10.7675 -10.896,33.3 0.148,17.22625 6.203625,26.51375 9.049375,29.93875 l 0.306125,10.37125 c 0.3295,11.14625 5.534625,24.04 26.1465,28.5075 -0.246625,0.3825 -0.476125,0.77375 -0.682625,1.175 -1.023,0.405 -1.97125,0.95125 -2.859875,1.59625 -1.07325,0.78375 -2.015625,1.66375 -2.870125,2.59 -1.706625,1.85625 -3.078625,3.8925 -4.267625,5.98 -2.36325,4.1925 -3.75975,8.43 -5.314875,12.7975 -2.725625,7.7925 -4.61675,16.17625 -5.588375,24.19875 -0.109875,0.0788 -0.205125,0.17875 -0.26375,0.305 -0.145,0.31 -3.503375,7.7075 -0.01563,16.92125 0.07675,0.2025 0.2305,0.36625 0.42825,0.455 0.253875,0.1125 6.294,2.75625 13.3985,2.7675 0.46625,0.001 0.83,-0.36125 0.83,-0.81 0,-0.0763 -0.0097,-0.14875 -0.02925,-0.2175 -0.04738,-0.7425 -0.244125,-3.97375 -0.195375,-7.2225 l 0.32475,0.78 c 0.126,0.30125 0.422375,0.49875 0.7495,0.49875 0.11375,0 2.799375,-0.015 4.252875,-1.67625 0.15625,-0.18 0.227125,-0.41875 0.1905,-0.65375 -0.03512,-0.24375 -0.920375,-6.0575 -3.798875,-11.08125 -0.07075,-0.1225 -0.98875,-0.215 -1.109375,-0.28625 -0.69475,-7.29 0.24275,-14.3825 1.09475,-21.49875 0.5005,-4.0675 0.954625,-8.37375 2.102125,-12.14625 0.2905,-0.94875 0.62,-1.88125 0.992625,-2.7775 l -1.892125,28.465 c -0.01125,6.57375 4.163625,7.83375 10.128,8.0575 -0.26125,2.27 -0.496625,4.535 -0.716375,6.815 -0.42375,4.455 -0.772875,8.92 -1.046375,13.3925 -0.4565,7.45625 -0.69825,14.9375 -0.7275,22.4375 -4.790125,2.20125 -4.289625,7.2875 -4.104,9 0.02587,0.23 0.249,0.41375 0.4785,0.41375 l 17.268,0.0287 c 0.232,0 0.445875,-0.1825 0.466375,-0.415 0.144,-1.4825 0.659125,-6.41625 -3.13725,-8.77875 -0.791,-7.5 -1.36475,-15.04625 -1.713875,-22.615 -0.19875,-4.3825 -0.328125,-8.7725 -0.380875,-13.165 -0.02438,-2.35375 -0.03175,-4.72 -0.0097,-7.07625 0.0855,0 0.1685,0 0.254,0 l 17.160624,0.0288 c 0.0854,0 0.16988,0 0.25388,0 0.0136,2.3575 0,4.72375 -0.0343,7.0775 -0.0683,4.3925 -0.21088,8.7825 -0.42713,13.1625 -0.37362,7.595 -0.97512,15.1675 -1.79787,22.6925 -2.46975,2.375 -2.87363,7.1875 -2.732,8.6875 0.0195,0.23125 0.233,0.41625 0.46487,0.41625 l 26.713882,0.045 c 0.23187,0 0.45412,-0.18125 0.48,-0.4125 0.21087,-1.87875 -0.67775,-8.66625 -13.944382,-9.955 -0.0205,-7.19125 -0.23775,-14.365 -0.65187,-21.515 -0.25975,-4.47375 -0.59325,-8.94 -1.00338,-13.39625 -0.211,-2.28125 -0.437,-4.54625 -0.69087,-6.8175 5.964252,-0.2025 10.144002,-1.45 10.153752,-8.02375 l -1.94925,-30.9325 c 10e-4,-0.7 -0.0307,-1.3925 -0.0942,-2.07625 0.31987,0.04 0.63975,0.08 0.96337,0.1175 1.565,0.17375 3.13575,0.285 4.713,0.33875 3.15575,0.1075 6.34275,-0.0188 9.5375,-0.42375 6.37063,-0.80625 12.85263,-2.76375 18.71963,-6.32875 5.87375,-3.52625 10.94375,-8.71625 14.5225,-14.6825 3.5925,-5.90875 5.81875,-12.42125 7.18875,-18.91375 4.87375,-5.925 5.39,-14.51125 5.43,-15.3875 l 2.1425,-11.84875 c 0.045,-0.2475 -0.0263,-0.5 -0.19375,-0.68875 z M 57.101289,335.20689 c -0.672875,0.56 -1.647,0.76 -2.24125,0.83 l -1.4785,-3.54625 c -0.144,-0.3425 -0.505375,-0.54625 -0.870125,-0.48875 -0.367625,0.0562 -0.650875,0.3525 -0.6875,0.7225 -0.357375,3.58625 -0.1465,8.3525 -0.03425,10.3075 -5.515125,-0.185 -10.32225,-1.9825 -11.563375,-2.485 -2.644125,-7.31875 -0.63625,-13.4725 -0.05525,-14.98 2.67975,-0.61625 5.28325,-0.92625 7.746625,-0.92125 3.09575,0.005 5.11225,0.515 5.80325,0.7225 2.19475,3.96 3.13475,8.48625 3.380375,9.83875 z m -20.121125,-87.9 -0.9595,-32.43125 c 0.463875,-12.10375 1.228,-18.58875 1.228,-18.58875 0,0 3.18125,3.23125 12.915125,3.4175 20.82275,0.395 65.943751,-12.27375 65.943751,-12.27375 2.71487,6.195 4.55912,13.34625 5.82037,20.22375 l 1.09713,37.105 c 0.56887,19.21 -13.48875,29.38875 -41.777251,30.255 -28.3555,0.85375 -43.706125,-8.7425 -44.267625,-27.7075 z m 127.312626,-19.7 c -0.006,0.0375 -0.0112,0.0763 -0.0125,0.115 -0.005,0.09 -0.39375,8.97 -5.2125,14.65625 -0.23125,0.008 -0.58125,0.0163 -1.035,0.0163 -2.36625,-0.004 -7.16375,-0.27125 -12.8175,-1.99625 -0.6925,-0.52 -2.2425,-1.915 -2.56375,-3.2725 -0.0437,-0.185 -0.15125,-0.34875 -0.3025,-0.46125 l -8.56463,-6.44125 c 0.23675,-0.93625 0.93213,-3.0475 2.56088,-4.1375 l 5.645,2.77 c 0.2025,0.0987 0.44125,0.10125 0.6525,0.0213 0.21125,-0.0825 0.3825,-0.25625 0.465,-0.46625 0.0562,-0.1375 0.33,-0.715 0.57125,-1.22875 0.21,-0.44125 0.3975,-0.8425 0.43125,-0.925 0.0325,-0.0775 0.0512,-0.16125 0.0575,-0.245 l 0.96125,-13.215 c 0.48625,-0.1775 1.34375,-0.43125 2.2675,-0.43 0.72625,0.001 1.37125,0.1575 1.9175,0.4675 l 0.57375,10.6025 c 0.0212,0.40625 0.34125,0.735 0.7475,0.76625 0.205,0.015 0.425,0.035 0.66375,0.0563 0.4125,0.0588 0.79375,-0.24125 0.87375,-0.65125 l 2.23625,-11.49375 c 0.36875,-0.0863 0.94,-0.18625 1.5825,-0.18625 1.0225,0.002 1.8775,0.25125 2.54875,0.7475 l -1.11375,11.89875 c -0.0387,0.39625 0.215,0.76 0.59875,0.86125 l 0.56125,0.1575 c 0.20875,0.0563 0.4325,0.0325 0.62125,-0.075 0.1875,-0.10625 0.32625,-0.28375 0.38375,-0.49375 l 2.71,-9.94125 c 0.865,-0.1 2.75375,-0.15375 4.06875,1.035 l -2.0775,11.48875"
         style="fill:#3d464c;fill-opacity:1;fill-rule:nonzero;stroke:none"
         id="path3077" />
    </g>
    <path
       style="fill:#ffffff"
       d="m 84.097898,193.42963 c -33.730606,-1.47464 -55.527769,-14.3471 -61.37772,-36.247 -2.907991,-10.88637 -3.930803,-94.257645 -1.210369,-98.659399 0.368063,-0.595539 2.003003,-0.246944 5.421179,1.155881 4.39998,1.805758 6.090404,2.041779 16.74057,2.337361 20.642335,0.572903 48.170011,-3.986924 95.610632,-15.837441 9.93469,-2.481654 18.41678,-4.586729 18.84911,-4.677943 1.10736,-0.23364 4.8232,10.132393 7.95164,22.182641 l 2.65517,10.227272 1.14174,35.227278 c 1.22135,37.68335 1.01743,42.71103 -2.06672,50.95413 -6.7906,18.14952 -25.32951,29.05087 -54.92735,32.29867 -7.57127,0.83081 -21.799132,1.34409 -28.787882,1.03855 z m 29.319052,-30.46477 c 11.15927,-1.90777 12.7264,-2.51332 12.7264,-4.91755 0,-3.2475 -2.07355,-3.62184 -10.35754,-1.86983 -10.07729,2.13127 -28.252316,2.69917 -38.506094,1.20316 -8.328126,-1.21506 -10.227272,-0.82169 -10.227272,2.11837 0,2.37189 0.535556,2.6459 7.443923,3.80855 9.29931,1.56503 28.764073,1.39364 38.920583,-0.3427 l 0,0 z M 64.020404,128.45803 c 2.051976,-1.85701 3.265246,-8.04809 2.880309,-14.69764 -0.593774,-10.2571 -4.338828,-14.877202 -10.5508,-13.01605 -3.817544,1.14376 -5.34441,4.10097 -5.808036,11.24892 -0.77725,11.98322 2.753608,18.97926 9.14599,18.12186 1.615197,-0.21664 3.564839,-0.96234 4.332537,-1.65709 l 0,0 z M 136.19158,126.568 c 2.63292,-2.07105 3.89617,-7.76109 3.38352,-15.2404 -0.52088,-7.59941 -2.27208,-11.35766 -5.82774,-12.506893 -3.05705,-0.988072 -6.74168,-0.192133 -8.18768,1.768673 -2.82288,3.82785 -3.19193,17.65286 -0.61612,23.08094 2.08974,4.40381 7.54625,5.8095 11.24802,2.89768 l 0,0 z"
       id="path2987"
       inkscape:connector-curvature="0"
       transform="translate(-357.15176,627.31734)" />
    <path
       style="fill:#ffffff"
       d="m 224.6282,135.9286 c -1.04167,-0.15183 -4.70992,-0.83142 -8.15168,-1.51019 -5.42261,-1.06942 -6.56003,-1.5784 -8.52273,-3.81379 -1.24574,-1.41882 -2.26498,-2.86718 -2.26498,-3.21858 0,-0.3514 -3.32387,-3.11882 -7.38637,-6.14982 -4.0625,-3.031 -7.50072,-5.60167 -7.64049,-5.7126 -0.50596,-0.40155 2.41057,-5.77605 3.32482,-6.12688 0.51595,-0.19799 3.00934,0.68559 5.54088,1.9635 2.53154,1.27792 5.07211,2.32349 5.64571,2.32349 2.01751,0 3.44491,-5.54737 4.28596,-16.656753 0.45698,-6.036215 1.11585,-11.259911 1.46415,-11.608214 0.3483,-0.348304 1.78458,-0.523219 3.19173,-0.388702 l 2.55846,0.244578 0.59665,9.090909 c 0.32817,5 0.7436,9.517042 0.9232,10.037882 0.17959,0.52083 1.16126,0.94697 2.18147,0.94697 2.03999,0 1.97691,0.18965 4.72452,-14.204549 l 1.33763,-7.007576 2.31523,0.0116 c 4.21975,0.02114 4.26322,0.176499 3.21508,11.492151 -0.52487,5.666413 -0.82841,10.680233 -0.67455,11.141833 0.15387,0.46159 1.09041,0.83926 2.08121,0.83926 1.94502,0 2.29066,-0.82239 5.33308,-12.68939 1.2449,-4.85578 1.61398,-5.492425 3.18407,-5.492425 2.96423,0 4.89234,1.42843 4.43002,3.281944 -0.2253,0.903264 -1.47223,7.949121 -2.77095,15.657451 -2.35761,13.99317 -4.31575,20.47668 -7.67359,25.40771 -1.65077,2.42418 -2.05153,2.60518 -5.56671,2.51425 -2.08333,-0.0539 -4.64015,-0.22222 -5.68182,-0.37406 z"
       id="path2989"
       inkscape:connector-curvature="0"
       transform="translate(-357.15176,627.31734)" />
    <path
       style="fill:#ffffff"
       d="m 34.195544,310.57717 c -2.862962,-0.81608 -5.81691,-1.81107 -6.56433,-2.21108 -2.692148,-1.44079 -3.851483,-12.93209 -2.156289,-21.37308 0.775952,-3.86376 1.045063,-4.25664 3.219697,-4.7006 4.540744,-0.927 13.758425,-1.27208 17.142153,-0.64175 2.913025,0.54265 3.645082,1.0697 5.061853,3.64434 0.910971,1.65547 2.335616,5.46675 3.165879,8.46952 l 1.509568,5.45958 -1.61367,0.51216 c -0.887519,0.28169 -1.731305,0.21124 -1.87508,-0.15655 -2.268026,-5.80182 -4.887534,-7.93216 -5.75792,-4.68267 -0.256517,0.95768 -0.471049,5.23555 -0.476738,9.50639 l -0.01035,7.76515 -3.219697,-0.0538 c -1.770833,-0.0296 -5.56212,-0.72151 -8.425081,-1.5376 z"
       id="path2991"
       inkscape:connector-curvature="0"
       transform="translate(-357.15176,627.31734)" />
    <path
       style="fill:#000000"
       d="m 60.911563,368.79737 c -0.28484,-6.04827 1.457275,-10.73064 4.680737,-12.58065 l 2.044528,-1.1734 0.500521,-14.80858 c 0.530936,-15.70844 2.304528,-43.13262 3.477979,-53.77828 0.387636,-3.51667 0.618891,-6.47984 0.5139,-6.58483 -0.10499,-0.10499 -2.342351,-0.53738 -4.971912,-0.96085 -9.257495,-1.49088 -12.222884,-4.92566 -12.224907,-14.15998 -0.0011,-5.03027 1.661004,-32.17114 2.679769,-43.7585 0.284391,-3.23464 0.182788,-5.02232 -0.269556,-4.74275 -2.877444,1.77836 -7.714421,36.07764 -7.714421,54.70341 0,7.88304 0.184664,9.39744 1.145917,9.39744 1.419928,0 4.558307,6.85235 6.418946,14.01515 1.242384,4.78274 1.263127,5.43165 0.211422,6.61397 -1.556241,1.74952 -5.951105,2.54098 -7.405801,1.33368 -0.985008,-0.81748 -1.12806,-0.0598 -1.12806,5.97474 l 0,6.91094 -3.977272,-0.005 c -4.43921,-0.006 -15.385415,-2.42146 -18.669968,-4.11997 -2.936425,-1.51849 -4.246699,-6.43984 -4.246699,-15.95048 0,-5.23422 0.412895,-8.80008 1.33587,-11.53691 0.734729,-2.17862 2.007661,-7.89069 2.828739,-12.69348 4.068446,-23.79786 13.612119,-50.72177 21.879345,-61.72442 3.079403,-4.09829 10.013129,-10.31122 12.33303,-11.05094 1.072861,-0.34209 2.597324,-2.60831 1.981758,-2.94601 -0.113975,-0.0625 -2.9345,-0.88612 -6.267833,-1.83018 -15.904526,-4.5045 -28.029914,-13.65308 -33.730929,-25.4499 -4.043014,-8.36601 -5.167735,-13.89191 -5.76828,-28.34033 l -0.515002,-12.39035 -3.167001,-4.72282 C 2.6946789,107.23929 -1.5864671,82.673762 1.1757411,55.241274 3.3921744,33.229072 9.4303383,21.516666 21.258804,16.285557 43.621419,6.3957474 97.156891,-1.0810619 131.66094,0.86670192 c 25.46403,1.43745238 35.52059,5.61249078 42.5946,17.68339408 5.01877,8.563868 10.64197,29.357915 12.45323,46.050747 2.34929,21.651495 -1.26905,41.953507 -9.94916,55.823267 -2.08344,3.32908 -2.08477,3.34036 -2.0154,17.04546 0.0941,18.59553 -1.65464,25.34678 -9.14927,35.32135 -5.76766,7.67615 -18.28348,15.96767 -28.65613,18.98418 -1.77084,0.51499 -3.2197,1.2038 -3.2197,1.5307 0,0.32689 0.72515,1.82339 1.61145,3.32556 l 1.61144,2.7312 5.39613,-0.46906 c 14.07029,-1.22306 24.8166,-4.09341 34.94159,-9.33296 5.36134,-2.77443 8.2888,-4.98516 13.70091,-10.3465 5.83299,-5.77829 7.42254,-7.91585 10.42207,-14.01516 3.75378,-7.63299 6.15538,-16.01349 7.01141,-24.46665 0.51142,-5.05026 0.47658,-5.19226 -1.82689,-7.44433 -1.29154,-1.26272 -2.54603,-2.86636 -2.78775,-3.56365 -0.24171,-0.69728 -4.03638,-3.93764 -8.43259,-7.2008 -7.3688,-5.46958 -7.95585,-6.0909 -7.51585,-7.95454 0.68757,-2.91222 4.40367,-8.0274 6.06409,-8.34717 0.77957,-0.15013 3.41038,0.67959 5.84624,1.84382 2.76019,1.31925 4.69654,1.84874 5.13937,1.40536 0.3908,-0.39129 1.11104,-6.16598 1.60054,-12.832642 0.48951,-6.666667 1.22302,-12.538326 1.63004,-13.048137 0.96166,-1.204492 5.37077,-2.019371 7.72682,-1.428045 3.52841,0.885575 4.22462,2.36875 4.22462,8.999992 0,3.527038 0.28083,5.850523 0.65731,5.438311 0.36151,-0.395834 1.20103,-3.759871 1.86557,-7.475644 0.66455,-3.715765 1.64717,-7.054712 2.1836,-7.419887 1.53027,-1.041704 8.03346,-0.199795 9.63215,1.246985 1.24102,1.123114 1.40136,2.12572 1.13837,7.118046 l -0.30612,5.810803 1.27518,-4.352144 c 0.82885,-2.828849 1.76471,-4.507508 2.67379,-4.796038 2.08299,-0.661121 6.77365,0.328212 8.78785,1.853492 l 1.77134,1.341372 -1.87338,10.552416 c -1.03036,5.80383 -2.29449,13.10924 -2.80916,16.23424 -1.14429,6.94784 -3.74419,14.09555 -6.68517,18.37906 -1.21286,1.76651 -2.44544,4.40503 -2.73905,5.86336 -0.29362,1.45833 -1.56143,5.89015 -2.81738,9.84848 -10.14184,31.96373 -33.78,52.24285 -66.26749,56.85067 -3.39025,0.48085 -10.97571,0.75549 -16.85656,0.61029 -10.28171,-0.25384 -10.69155,-0.20578 -10.66896,1.25117 0.013,0.83333 0.82811,14.04832 1.81153,29.36665 1.93725,30.17578 1.8231,32.72948 -1.62422,36.33553 -2.20964,2.31139 -4.76079,3.27244 -10.66975,4.01941 -3.85471,0.48728 -4.00399,0.591 -3.61929,2.51453 0.90609,4.53053 2.77476,32.07394 3.4388,50.68634 0.39033,10.94069 0.91877,20.23046 1.17432,20.64394 0.25554,0.41347 1.43685,0.75178 2.62514,0.75178 3.50036,0 10.8933,2.61823 14.60636,5.17288 2.13201,1.46687 4.05541,3.62647 5.03848,5.65722 3.0255,6.24984 4.61012,5.83656 -22.37909,5.83656 l -23.96916,0 0.46562,-3.93137 c 0.25608,-2.16225 1.37377,-5.78759 2.48375,-8.0563 1.33951,-2.73787 2.23435,-6.19238 2.66112,-10.27318 1.47933,-14.14566 2.93389,-41.11645 2.93389,-54.40085 l 0,-14.24739 -15.530302,0 -15.530303,0 0.0068,13.82576 c 0.0068,14.0711 0.761295,30.07638 2.34781,49.81061 0.783296,9.74325 1.080925,11.19891 2.633167,12.87878 2.501015,2.70665 4.103159,6.98635 4.103159,10.96052 l -4.5e-5,3.43342 -15.530303,0 -15.530303,0 -0.08028,-1.70454 z M 46.597898,304.65479 c 0,-11.44675 1.025686,-13.60522 3.449356,-7.25894 1.321757,3.46097 2.33957,4.01325 4.885318,2.6508 1.383808,-0.74059 1.383619,-0.87833 -0.0081,-5.90048 -2.404378,-8.6765 -4.191962,-12.15737 -6.584937,-12.82253 -2.808974,-0.78079 -17.419429,-0.54392 -20.302252,0.32915 -1.853131,0.56122 -2.436303,1.30876 -3.158729,4.04901 -1.982397,7.51948 -0.657913,22.00204 2.14958,23.50456 2.538851,1.35875 12.281716,3.58832 15.97127,3.65488 l 3.598485,0.0649 0,-8.27137 z m 73.863632,-112.4709 c 10.58096,-1.88326 17.55148,-4.02803 25.37879,-7.80886 9.11909,-4.40479 17.40307,-12.25561 21.03356,-19.93372 4.68991,-9.91871 4.93946,-13.07493 3.98317,-50.37879 -0.92364,-36.030197 -1.57499,-42.738105 -5.47477,-56.38181 -3.46435,-12.120361 -5.84106,-17.668693 -7.32476,-17.099345 -2.07291,0.79545 -43.11864,10.742966 -52.7475,12.783465 -42.992164,9.110676 -70.5772,10.544037 -81.289026,4.223904 -1.380337,-0.814417 -2.639781,-1.48076 -2.798768,-1.48076 -0.505593,0 -1.107295,6.068632 -1.909892,19.262758 -0.848837,13.954273 0.171452,62.802438 1.564665,74.911158 3.035821,26.38498 23.839579,41.49035 60.035384,43.59102 11.324674,0.65724 31.115587,-0.18797 39.549147,-1.68902 z m 114.94934,-56.34107 c 2.41389,-2.73757 5.2164,-9.26727 6.61761,-15.41872 1.22049,-5.35808 5.32699,-28.169065 5.32699,-29.590641 0,-0.832333 -4.38351,-2.276575 -6.13844,-2.022447 -1.53047,0.221622 -2.0129,1.28672 -4.06013,8.963629 -1.97319,7.399299 -2.54955,8.712119 -3.82483,8.712119 -1.68148,0 -1.67496,0.30487 -0.29845,-13.946892 0.86511,-8.956992 0.70356,-9.301719 -4.2074,-8.978037 l -2.99895,0.197659 -1.72299,8.712121 c -2.44439,12.359879 -2.36635,12.121209 -3.96306,12.121209 -1.27993,0 -1.47832,-0.84354 -1.91534,-8.143936 -0.26815,-4.479167 -0.55663,-8.996213 -0.64109,-10.037879 -0.13523,-1.667818 -0.55025,-1.922349 -3.47618,-2.131924 -1.82745,-0.130887 -3.59623,0.03954 -3.93063,0.378787 -0.3344,0.339228 -1.00279,5.73041 -1.48529,11.98041 -0.77069,9.982842 -2.0596,16.287882 -3.32967,16.287882 -0.22171,0 -2.58361,-1.07526 -5.24869,-2.38947 -5.16748,-2.54821 -6.56992,-2.50345 -8.31765,0.26542 -2.75806,4.36949 -2.61799,4.64382 5.51627,10.80396 4.18077,3.16613 8.12365,6.76653 8.76196,8.0009 1.60152,3.09699 3.62269,4.20044 10.21996,5.57959 11.15314,2.33152 17.44825,2.54763 19.116,0.65626 l 0,0 z"
       id="path2992"
       inkscape:connector-curvature="0"
       transform="translate(-357.15176,627.31734)" />
    <path
       style="fill:#000000"
       d="m 127.90138,126.19282 c -2.31843,-1.62389 -4.03141,-7.40581 -4.02653,-13.59101 0.005,-6.36266 0.97868,-10.32279 2.9843,-12.13784 2.05738,-1.861911 6.56237,-1.71786 8.68661,0.27776 3.03428,2.85056 4.50259,14.14087 2.68849,20.67269 -1.39336,5.01688 -6.57277,7.41208 -10.33287,4.7784 l 0,0 z"
       id="path2994"
       inkscape:connector-curvature="0"
       transform="translate(-357.15176,627.31734)" />
    <path
       style="fill:#000000"
       d="m 55.688807,128.62253 c -3.041726,-1.52246 -4.61074,-7.13651 -4.331319,-15.49778 0.186795,-5.58957 0.541195,-7.41001 1.760511,-9.04315 3.319445,-4.446034 8.965216,-3.88721 11.342576,1.12271 1.52376,3.21108 2.257828,11.34776 1.487315,16.48591 -0.937687,6.25295 -5.481743,9.32347 -10.259083,6.93231 z"
       id="path2996"
       inkscape:connector-curvature="0"
       transform="translate(-357.15176,627.31734)" />
    <path
       style="fill:#000000"
       d=""
       id="path2998"
       inkscape:connector-curvature="0"
       transform="translate(-357.15176,627.31734)" />
    <path
       style="fill:#000000"
       d="m 75.006989,162.63434 c -5.813415,-0.97145 -7.19697,-1.56148 -7.19697,-3.06922 0,-2.24184 1.845811,-2.51557 9.469697,-1.40434 9.928006,1.44706 29.763834,0.82751 39.390604,-1.23032 6.89052,-1.47294 8.71546,-1.23474 8.71546,1.13756 0,1.65663 -2.45643,2.51304 -11.77986,4.10696 -10.10331,1.72725 -29.621475,1.95953 -38.598931,0.45936 z"
       id="path3000"
       inkscape:connector-curvature="0"
       transform="translate(-357.15176,627.31734)" />
  </g>
</svg>
