<?xml version="1.0" encoding="UTF-8" standalone="no"?>
<!-- Created with Inkscape (http://www.inkscape.org/) -->

<svg
   xmlns:dc="http://purl.org/dc/elements/1.1/"
   xmlns:cc="http://creativecommons.org/ns#"
   xmlns:rdf="http://www.w3.org/1999/02/22-rdf-syntax-ns#"
   xmlns:svg="http://www.w3.org/2000/svg"
   xmlns="http://www.w3.org/2000/svg"
   xmlns:sodipodi="http://sodipodi.sourceforge.net/DTD/sodipodi-0.dtd"
   xmlns:inkscape="http://www.inkscape.org/namespaces/inkscape"
   width="250"
   height="189.47913"
   id="svg2"
   version="1.1"
   inkscape:version="0.48.4 r9939"
   sodipodi:docname="drawing10.svg">
  <defs
     id="defs4" />
  <sodipodi:namedview
     id="base"
     pagecolor="#ffffff"
     bordercolor="#666666"
     borderopacity="1.0"
     inkscape:pageopacity="0.0"
     inkscape:pageshadow="2"
     inkscape:zoom="1.0040916"
     inkscape:cx="488.70947"
     inkscape:cy="111.08685"
     inkscape:document-units="px"
     inkscape:current-layer="layer1"
     showgrid="false"
     fit-margin-top="0"
     fit-margin-left="0"
     fit-margin-right="0"
     fit-margin-bottom="0"
     inkscape:window-width="1615"
     inkscape:window-height="1026"
     inkscape:window-x="1431"
     inkscape:window-y="24"
     inkscape:window-maximized="1" />
  <metadata
     id="metadata7">
    <rdf:RDF>
      <cc:Work
         rdf:about="">
        <dc:format>image/svg+xml</dc:format>
        <dc:type
           rdf:resource="http://purl.org/dc/dcmitype/StillImage" />
        <dc:title></dc:title>
      </cc:Work>
    </rdf:RDF>
  </metadata>
  <g
     inkscape:label="Layer 1"
     inkscape:groupmode="layer"
     id="layer1"
     transform="translate(113.70946,-60.516413)">
    <g
       transform="matrix(0.97291066,0,0,-0.97291066,-1169.9651,725.34202)"
       id="g35684">
      <path
         d="m 1112.0946,488.58184 19.2113,0 0,19.2109 -19.2113,0 0,-19.2109 z"
         style="fill:#ffffff;fill-opacity:1;fill-rule:nonzero;stroke:none"
         id="path1850"
         inkscape:connector-curvature="0" />
      <path
         d="m 1150.5166,488.58184 19.2109,0 0,19.2109 -19.2109,0 0,-19.2109 z"
         style="fill:#ffffff;fill-opacity:1;fill-rule:nonzero;stroke:none"
         id="path1854"
         inkscape:connector-curvature="0" />
      <path
         d="m 1188.9386,488.58184 19.2109,0 0,19.2109 -19.2109,0 0,-19.2109 z"
         style="fill:#ffffff;fill-opacity:1;fill-rule:nonzero;stroke:none"
         id="path1858"
         inkscape:connector-curvature="0" />
      <path
         d="m 1227.3606,488.58184 19.2109,0 0,19.2109 -19.2109,0 0,-19.2109 z"
         style="fill:#ffffff;fill-opacity:1;fill-rule:nonzero;stroke:none"
         id="path1862"
         inkscape:connector-curvature="0" />
      <path
         d="m 1265.7826,488.58184 19.2109,0 0,19.2109 -19.2109,0 0,-19.2109 z"
         style="fill:#ffffff;fill-opacity:1;fill-rule:nonzero;stroke:none"
         id="path1866"
         inkscape:connector-curvature="0" />
      <path
         d="m 1092.8836,507.79284 19.2109,0 0,19.2102 -19.2109,0 0,-19.2102 z"
         style="fill:#ffffff;fill-opacity:1;fill-rule:nonzero;stroke:none"
         id="path1968"
         inkscape:connector-curvature="0" />
      <path
         d="m 1131.3056,507.79284 19.2109,0 0,19.2102 -19.2109,0 0,-19.2102 z"
         style="fill:#ffffff;fill-opacity:1;fill-rule:nonzero;stroke:none"
         id="path1972"
         inkscape:connector-curvature="0" />
      <path
         d="m 1169.7276,507.79284 19.2109,0 0,19.2102 -19.2109,0 0,-19.2102 z"
         style="fill:#ffffff;fill-opacity:1;fill-rule:nonzero;stroke:none"
         id="path1976"
         inkscape:connector-curvature="0" />
      <path
         d="m 1208.1496,507.79284 19.2109,0 0,19.2102 -19.2109,0 0,-19.2102 z"
         style="fill:#ffffff;fill-opacity:1;fill-rule:nonzero;stroke:none"
         id="path1980"
         inkscape:connector-curvature="0" />
      <path
         d="m 1246.5716,507.79284 19.2113,0 0,19.2102 -19.2113,0 0,-19.2102 z"
         style="fill:#ffffff;fill-opacity:1;fill-rule:nonzero;stroke:none"
         id="path1984"
         inkscape:connector-curvature="0" />
      <path
         d="m 1112.0946,527.00284 19.2113,0 0,19.2117 -19.2113,0 0,-19.2117 z"
         style="fill:#ffffff;fill-opacity:1;fill-rule:nonzero;stroke:none"
         id="path2086"
         inkscape:connector-curvature="0" />
      <path
         d="m 1150.5166,527.00284 19.2109,0 0,19.2117 -19.2109,0 0,-19.2117 z"
         style="fill:#ffffff;fill-opacity:1;fill-rule:nonzero;stroke:none"
         id="path2090"
         inkscape:connector-curvature="0" />
      <path
         d="m 1188.9386,527.00284 19.2109,0 0,19.2117 -19.2109,0 0,-19.2117 z"
         style="fill:#ffffff;fill-opacity:1;fill-rule:nonzero;stroke:none"
         id="path2094"
         inkscape:connector-curvature="0" />
      <path
         d="m 1227.3606,527.00284 19.2109,0 0,19.2117 -19.2109,0 0,-19.2117 z"
         style="fill:#ffffff;fill-opacity:1;fill-rule:nonzero;stroke:none"
         id="path2098"
         inkscape:connector-curvature="0" />
      <path
         d="m 1265.7826,527.00284 19.2109,0 0,19.2117 -19.2109,0 0,-19.2117 z"
         style="fill:#ffffff;fill-opacity:1;fill-rule:nonzero;stroke:none"
         id="path2102"
         inkscape:connector-curvature="0" />
      <path
         d="m 1092.8836,546.21484 19.2109,0 0,19.2102 -19.2109,0 0,-19.2102 z"
         style="fill:#ffffff;fill-opacity:1;fill-rule:nonzero;stroke:none"
         id="path2204"
         inkscape:connector-curvature="0" />
      <path
         d="m 1131.3056,546.21484 19.2109,0 0,19.2102 -19.2109,0 0,-19.2102 z"
         style="fill:#ffffff;fill-opacity:1;fill-rule:nonzero;stroke:none"
         id="path2208"
         inkscape:connector-curvature="0" />
      <path
         d="m 1169.7276,546.21484 19.2109,0 0,19.2102 -19.2109,0 0,-19.2102 z"
         style="fill:#ffffff;fill-opacity:1;fill-rule:nonzero;stroke:none"
         id="path2212"
         inkscape:connector-curvature="0" />
      <path
         d="m 1208.1496,546.21484 19.2109,0 0,19.2102 -19.2109,0 0,-19.2102 z"
         style="fill:#ffffff;fill-opacity:1;fill-rule:nonzero;stroke:none"
         id="path2216"
         inkscape:connector-curvature="0" />
      <path
         d="m 1246.5716,546.21484 19.2113,0 0,19.2102 -19.2113,0 0,-19.2102 z"
         style="fill:#ffffff;fill-opacity:1;fill-rule:nonzero;stroke:none"
         id="path2220"
         inkscape:connector-curvature="0" />
      <path
         d="m 1284.9936,546.21484 19.2109,0 0,19.2102 -19.2109,0 0,-19.2102 z"
         style="fill:#ffffff;fill-opacity:1;fill-rule:nonzero;stroke:none"
         id="path2224"
         inkscape:connector-curvature="0" />
      <path
         d="m 1323.4156,546.21484 19.2109,0 0,19.2102 -19.2109,0 0,-19.2102 z"
         style="fill:#ffffff;fill-opacity:1;fill-rule:nonzero;stroke:none"
         id="path2228"
         inkscape:connector-curvature="0" />
      <path
         d="m 1112.0946,565.42484 19.2113,0 0,19.2121 -19.2113,0 0,-19.2121 z"
         style="fill:#ffffff;fill-opacity:1;fill-rule:nonzero;stroke:none"
         id="path2322"
         inkscape:connector-curvature="0" />
      <path
         d="m 1150.5166,565.42484 19.2109,0 0,19.2121 -19.2109,0 0,-19.2121 z"
         style="fill:#ffffff;fill-opacity:1;fill-rule:nonzero;stroke:none"
         id="path2326"
         inkscape:connector-curvature="0" />
      <path
         d="m 1188.9386,565.42484 19.2109,0 0,19.2121 -19.2109,0 0,-19.2121 z"
         style="fill:#ffffff;fill-opacity:1;fill-rule:nonzero;stroke:none"
         id="path2330"
         inkscape:connector-curvature="0" />
      <path
         d="m 1227.3606,565.42484 19.2109,0 0,19.2121 -19.2109,0 0,-19.2121 z"
         style="fill:#ffffff;fill-opacity:1;fill-rule:nonzero;stroke:none"
         id="path2334"
         inkscape:connector-curvature="0" />
      <path
         d="m 1265.7826,565.42484 19.2109,0 0,19.2121 -19.2109,0 0,-19.2121 z"
         style="fill:#ffffff;fill-opacity:1;fill-rule:nonzero;stroke:none"
         id="path2338"
         inkscape:connector-curvature="0" />
      <path
         d="m 1304.2046,565.42484 19.2109,0 0,19.2121 -19.2109,0 0,-19.2121 z"
         style="fill:#ffffff;fill-opacity:1;fill-rule:nonzero;stroke:none"
         id="path2342"
         inkscape:connector-curvature="0" />
      <path
         d="m 1092.8836,584.63684 19.2109,0 0,19.2098 -19.2109,0 0,-19.2098 z"
         style="fill:#ffffff;fill-opacity:1;fill-rule:nonzero;stroke:none"
         id="path2440"
         inkscape:connector-curvature="0" />
      <path
         d="m 1131.3056,584.63684 19.2109,0 0,19.2098 -19.2109,0 0,-19.2098 z"
         style="fill:#ffffff;fill-opacity:1;fill-rule:nonzero;stroke:none"
         id="path2444"
         inkscape:connector-curvature="0" />
      <path
         d="m 1169.7276,584.63684 19.2109,0 0,19.2098 -19.2109,0 0,-19.2098 z"
         style="fill:#ffffff;fill-opacity:1;fill-rule:nonzero;stroke:none"
         id="path2448"
         inkscape:connector-curvature="0" />
      <path
         d="m 1208.1496,584.63684 19.2109,0 0,19.2098 -19.2109,0 0,-19.2098 z"
         style="fill:#ffffff;fill-opacity:1;fill-rule:nonzero;stroke:none"
         id="path2452"
         inkscape:connector-curvature="0" />
      <path
         d="m 1246.5716,584.63684 19.2113,0 0,19.2098 -19.2113,0 0,-19.2098 z"
         style="fill:#ffffff;fill-opacity:1;fill-rule:nonzero;stroke:none"
         id="path2456"
         inkscape:connector-curvature="0" />
      <path
         d="m 1284.9936,584.63684 19.2109,0 0,19.2098 -19.2109,0 0,-19.2098 z"
         style="fill:#ffffff;fill-opacity:1;fill-rule:nonzero;stroke:none"
         id="path2460"
         inkscape:connector-curvature="0" />
      <path
         d="m 1323.4156,584.63684 19.2109,0 0,19.2098 -19.2109,0 0,-19.2098 z"
         style="fill:#ffffff;fill-opacity:1;fill-rule:nonzero;stroke:none"
         id="path2464"
         inkscape:connector-curvature="0" />
      <path
         d="m 1112.0946,603.84684 19.2113,0 0,19.2109 -19.2113,0 0,-19.2109 z"
         style="fill:#ffffff;fill-opacity:1;fill-rule:nonzero;stroke:none"
         id="path2558"
         inkscape:connector-curvature="0" />
      <path
         d="m 1150.5166,603.84684 19.2109,0 0,19.2109 -19.2109,0 0,-19.2109 z"
         style="fill:#ffffff;fill-opacity:1;fill-rule:nonzero;stroke:none"
         id="path2562"
         inkscape:connector-curvature="0" />
      <path
         d="m 1188.9386,603.84684 19.2109,0 0,19.2109 -19.2109,0 0,-19.2109 z"
         style="fill:#ffffff;fill-opacity:1;fill-rule:nonzero;stroke:none"
         id="path2566"
         inkscape:connector-curvature="0" />
      <path
         d="m 1227.3606,603.84684 19.2109,0 0,19.2109 -19.2109,0 0,-19.2109 z"
         style="fill:#ffffff;fill-opacity:1;fill-rule:nonzero;stroke:none"
         id="path2570"
         inkscape:connector-curvature="0" />
      <path
         d="m 1265.7826,603.84684 19.2109,0 0,19.2109 -19.2109,0 0,-19.2109 z"
         style="fill:#ffffff;fill-opacity:1;fill-rule:nonzero;stroke:none"
         id="path2574"
         inkscape:connector-curvature="0" />
      <path
         d="m 1304.2046,603.84684 19.2109,0 0,19.2109 -19.2109,0 0,-19.2109 z"
         style="fill:#ffffff;fill-opacity:1;fill-rule:nonzero;stroke:none"
         id="path2578"
         inkscape:connector-curvature="0" />
      <path
         d="m 1208.1496,623.05784 19.2109,0 0,19.2102 -19.2109,0 0,-19.2102 z"
         style="fill:#ffffff;fill-opacity:1;fill-rule:nonzero;stroke:none"
         id="path2688"
         inkscape:connector-curvature="0" />
      <path
         d="m 1246.5716,643.36415 19.2113,0 0,19.2102 -19.2113,0 0,-19.2102 z"
         style="fill:#ffffff;fill-opacity:1;fill-rule:nonzero;stroke:none"
         id="path2692"
         inkscape:connector-curvature="0" />
      <path
         d="m 1284.9936,643.36415 19.2109,0 0,19.2102 -19.2109,0 0,-19.2102 z"
         style="fill:#ffffff;fill-opacity:1;fill-rule:nonzero;stroke:none"
         id="path2696"
         inkscape:connector-curvature="0" />
      <path
         d="m 1188.9386,642.26784 19.2109,0 0,19.2121 -19.2109,0 0,-19.2121 z"
         style="fill:#ffffff;fill-opacity:1;fill-rule:nonzero;stroke:none"
         id="path2802"
         inkscape:connector-curvature="0" />
      <path
         d="m 1227.3606,642.26784 19.2109,0 0,19.2121 -19.2109,0 0,-19.2121 z"
         style="fill:#ffffff;fill-opacity:1;fill-rule:nonzero;stroke:none"
         id="path2806"
         inkscape:connector-curvature="0" />
      <path
         d="m 1265.7826,662.57415 19.2109,0 0,19.2121 -19.2109,0 0,-19.2121 z"
         style="fill:#ffffff;fill-opacity:1;fill-rule:nonzero;stroke:none"
         id="path2810"
         inkscape:connector-curvature="0" />
      <path
         d="m 1208.1496,661.47984 19.2109,0 0,19.2109 -19.2109,0 0,-19.2109 z"
         style="fill:#ffffff;fill-opacity:1;fill-rule:nonzero;stroke:none"
         id="path2924"
         inkscape:connector-curvature="0" />
      <path
         d="m 1135.6726,504.85884 c -1.029,0.082 -1.219,0.715 -1.137,1.316 0.262,1.911 3.423,0.966 2.324,-0.852 -0.155,-0.255 -0.543,-0.516 -1.187,-0.464"
         style="fill:#050301;fill-opacity:1;fill-rule:evenodd;stroke:none"
         id="path9074"
         inkscape:connector-curvature="0" />
      <path
         d="m 1122.8216,507.36684 c -1.027,0.082 -1.218,0.717 -1.136,1.317 0.262,1.912 3.423,0.966 2.324,-0.852 -0.157,-0.256 -0.544,-0.516 -1.188,-0.465"
         style="fill:#050301;fill-opacity:1;fill-rule:evenodd;stroke:none"
         id="path9076"
         inkscape:connector-curvature="0" />
      <path
         d="m 1148.7336,502.40784 c -0.92,0.006 -1.236,0.594 -1.155,1.22 0.197,1.549 2.527,1.225 2.339,-0.257 -0.097,-0.745 -0.495,-0.967 -1.184,-0.963"
         style="fill:#050301;fill-opacity:1;fill-rule:evenodd;stroke:none"
         id="path9078"
         inkscape:connector-curvature="0" />
      <path
         d="m 1161.6006,499.99384 c -0.853,-0.014 -1.152,0.521 -1.077,1.108 0.179,1.383 2.427,1.21 2.129,-0.317 -0.097,-0.493 -0.419,-0.779 -1.052,-0.791"
         style="fill:#050301;fill-opacity:1;fill-rule:evenodd;stroke:none"
         id="path9080"
         inkscape:connector-curvature="0" />
      <path
         d="m 1109.2206,510.61984 c -0.085,0.385 0.058,1.03 0.34,1.228 0.393,0.242 1.248,0.006 1.419,-0.377 0.396,-1.262 -1.195,-1.755 -1.759,-0.851"
         style="fill:#050301;fill-opacity:1;fill-rule:evenodd;stroke:none"
         id="path9082"
         inkscape:connector-curvature="0" />
      <path
         d="m 1151.1136,514.08784 c -3.551,0.241 -2.298,5.327 0.631,4.756 2.819,-0.551 2.394,-4.961 -0.631,-4.756"
         style="fill:#050301;fill-opacity:1;fill-rule:evenodd;stroke:none"
         id="path9084"
         inkscape:connector-curvature="0" />
      <path
         d="m 1138.4556,516.55984 c -4.139,-0.083 -2.718,6.143 0.918,4.7 1.805,-0.719 1.975,-4.642 -0.918,-4.7"
         style="fill:#050301;fill-opacity:1;fill-rule:evenodd;stroke:none"
         id="path9086"
         inkscape:connector-curvature="0" />
      <path
         d="m 1125.3546,519.31784 c -3.248,0.198 -2.225,4.821 0.458,4.389 2.589,-0.416 2.409,-4.566 -0.458,-4.389"
         style="fill:#050301;fill-opacity:1;fill-rule:evenodd;stroke:none"
         id="path9088"
         inkscape:connector-curvature="0" />
      <path
         d="m 1164.3076,511.81084 c -3.654,-0.165 -2.495,5.505 0.806,4.125 1.406,-0.591 1.759,-4.008 -0.806,-4.125"
         style="fill:#050301;fill-opacity:1;fill-rule:evenodd;stroke:none"
         id="path9090"
         inkscape:connector-curvature="0" />
      <path
         d="m 1176.8116,509.56884 c -0.468,0.037 -0.901,0.157 -1.209,0.434 -1.325,1.204 -0.018,3.623 1.652,3.362 2.407,-0.375 2.037,-3.992 -0.443,-3.796"
         style="fill:#050301;fill-opacity:1;fill-rule:evenodd;stroke:none"
         id="path9092"
         inkscape:connector-curvature="0" />
      <path
         d="m 1112.8066,522.36384 c -3.746,-0.23 -0.861,5.407 1.216,2.65 0.774,-1.027 0.117,-2.569 -1.216,-2.65"
         style="fill:#050301;fill-opacity:1;fill-rule:evenodd;stroke:none"
         id="path9094"
         inkscape:connector-curvature="0" />
      <path
         d="m 1189.9286,507.40484 c -1.255,0.019 -1.689,0.833 -1.559,1.699 0.31,2.091 3.493,1.582 3.087,-0.502 -0.169,-0.865 -0.675,-1.207 -1.528,-1.197"
         style="fill:#050301;fill-opacity:1;fill-rule:evenodd;stroke:none"
         id="path9096"
         inkscape:connector-curvature="0" />
      <path
         d="m 1098.8016,526.09384 c -0.085,0.385 0.058,1.031 0.34,1.227 0.394,0.242 1.249,0.005 1.42,-0.376 0.395,-1.261 -1.196,-1.753 -1.76,-0.851"
         style="fill:#050301;fill-opacity:1;fill-rule:evenodd;stroke:none"
         id="path9100"
         inkscape:connector-curvature="0" />
      <path
         d="m 1153.8776,525.69484 c -4.58,0.007 -4.755,6.214 -1.086,7.18 1.866,0.492 4.074,-0.696 4.572,-2.585 0.079,-0.304 0.317,-1.985 -0.638,-3.261 -0.276,-0.369 -1.368,-1.337 -2.848,-1.334"
         style="fill:#050301;fill-opacity:1;fill-rule:evenodd;stroke:none"
         id="path9102"
         inkscape:connector-curvature="0" />
      <path
         d="m 1140.5476,528.29684 c -2.035,0.162 -3.647,1.948 -3.277,4.124 0.843,4.957 7.856,3.058 7.134,-1.193 -0.332,-1.949 -1.691,-3.104 -3.857,-2.931"
         style="fill:#050301;fill-opacity:1;fill-rule:evenodd;stroke:none"
         id="path9104"
         inkscape:connector-curvature="0" />
      <path
         d="m 1166.0746,523.41184 c -2.014,0.295 -3.867,2.67 -2.476,5.163 2.051,3.681 8.446,0.685 6.073,-3.575 -0.502,-0.899 -0.609,-0.841 -1.127,-1.174 -0.555,-0.358 -1.421,-0.566 -2.47,-0.414"
         style="fill:#050301;fill-opacity:1;fill-rule:evenodd;stroke:none"
         id="path9106"
         inkscape:connector-curvature="0" />
      <path
         d="m 1179.5766,521.17484 c -4.451,-0.035 -3.808,6.383 -0.164,6.304 4.186,-0.09 4.076,-6.274 0.164,-6.304"
         style="fill:#050301;fill-opacity:1;fill-rule:evenodd;stroke:none"
         id="path9108"
         inkscape:connector-curvature="0" />
      <path
         d="m 1127.8866,531.26784 c -4.306,0.146 -3.596,6.868 0.605,6.152 3.828,-0.652 3.117,-6.281 -0.605,-6.152"
         style="fill:#050301;fill-opacity:1;fill-rule:evenodd;stroke:none"
         id="path9110"
         inkscape:connector-curvature="0" />
      <path
         d="m 1192.4416,519.25984 c -2.875,0.033 -3.48,4.107 -0.826,4.94 3.55,1.115 4.808,-4.985 0.826,-4.94"
         style="fill:#050301;fill-opacity:1;fill-rule:evenodd;stroke:none"
         id="path9112"
         inkscape:connector-curvature="0" />
      <path
         d="m 1115.0136,534.67584 c -3.248,0.199 -2.225,4.822 0.459,4.391 2.587,-0.417 2.409,-4.567 -0.459,-4.391"
         style="fill:#050301;fill-opacity:1;fill-rule:evenodd;stroke:none"
         id="path9114"
         inkscape:connector-curvature="0" />
      <path
         d="m 1102.0626,538.19984 c -1.028,0.082 -1.219,0.717 -1.137,1.317 0.263,1.911 3.42,0.966 2.323,-0.851 -0.155,-0.257 -0.543,-0.517 -1.186,-0.466"
         style="fill:#050301;fill-opacity:1;fill-rule:evenodd;stroke:none"
         id="path9118"
         inkscape:connector-curvature="0" />
      <path
         d="m 1155.5286,537.71684 c -4.671,0.755 -4.852,7.222 -0.884,8.734 2.304,0.877 5.194,-0.664 5.951,-2.657 1.297,-3.399 -1.685,-6.624 -5.067,-6.077"
         style="fill:#050301;fill-opacity:1;fill-rule:evenodd;stroke:none"
         id="path9122"
         inkscape:connector-curvature="0" />
      <path
         d="m 1168.7796,535.22884 c -2.652,0.21 -4.582,2.531 -4.048,5.27 1.114,5.709 9.948,4.043 8.822,-1.722 -0.497,-2.545 -2.382,-3.736 -4.774,-3.548"
         style="fill:#050301;fill-opacity:1;fill-rule:evenodd;stroke:none"
         id="path9124"
         inkscape:connector-curvature="0" />
      <path
         d="m 1143.0216,540.45684 c -2.516,0.192 -4.363,2.371 -3.913,4.946 1.02,5.819 9.387,3.734 8.477,-1.457 -0.404,-2.296 -2.226,-3.668 -4.564,-3.489"
         style="fill:#050301;fill-opacity:1;fill-rule:evenodd;stroke:none"
         id="path9126"
         inkscape:connector-curvature="0" />
      <path
         d="m 1182.0896,533.02884 c -1.65,0.018 -2.872,0.715 -3.554,1.688 -0.53,0.757 -1.071,3.057 -0.078,4.695 1.726,2.852 7.099,2.078 7.672,-1.498 0.093,-0.591 0.059,-1.98 -0.6,-3.069 -0.345,-0.571 -1.484,-1.839 -3.44,-1.816"
         style="fill:#050301;fill-opacity:1;fill-rule:evenodd;stroke:none"
         id="path9128"
         inkscape:connector-curvature="0" />
      <path
         d="m 1194.3806,531.22584 c -2.023,0.296 -3.863,2.678 -2.476,5.163 2.055,3.684 8.451,0.693 6.071,-3.575 -0.504,-0.903 -0.6,-0.834 -1.125,-1.174 -0.543,-0.351 -1.424,-0.568 -2.47,-0.414"
         style="fill:#050301;fill-opacity:1;fill-rule:evenodd;stroke:none"
         id="path9130"
         inkscape:connector-curvature="0" />
      <path
         d="m 1130.6076,543.67684 c -2.189,0.004 -3.75,1.557 -3.712,3.413 0.038,2.087 1.559,3.733 3.508,3.695 4.851,-0.093 4.677,-7.116 0.204,-7.108"
         style="fill:#050301;fill-opacity:1;fill-rule:evenodd;stroke:none"
         id="path9132"
         inkscape:connector-curvature="0" />
      <path
         d="m 1207.9936,529.56484 c -4.595,-0.162 -2.655,6.914 1.223,4.737 1.612,-0.903 1.681,-4.637 -1.223,-4.737"
         style="fill:#050301;fill-opacity:1;fill-rule:evenodd;stroke:none"
         id="path9134"
         inkscape:connector-curvature="0" />
      <path
         d="m 1117.7726,547.27784 c -4.139,-0.083 -2.718,6.144 0.917,4.7 1.806,-0.718 1.976,-4.641 -0.917,-4.7"
         style="fill:#050301;fill-opacity:1;fill-rule:evenodd;stroke:none"
         id="path9136"
         inkscape:connector-curvature="0" />
      <path
         d="m 1220.8196,527.95484 c -3.747,-0.229 -0.861,5.408 1.214,2.65 0.775,-1.028 0.117,-2.568 -1.214,-2.65"
         style="fill:#050301;fill-opacity:1;fill-rule:evenodd;stroke:none"
         id="path9138"
         inkscape:connector-curvature="0" />
      <path
         d="m 1104.9546,550.97484 c -2.46,-0.334 -1.634,3.451 0.468,2.398 0.679,-0.341 0.947,-2.205 -0.468,-2.398"
         style="fill:#050301;fill-opacity:1;fill-rule:evenodd;stroke:none"
         id="path9140"
         inkscape:connector-curvature="0" />
      <path
         d="m 1232.7076,526.62984 c -0.086,0.385 0.055,1.03 0.339,1.228 0.393,0.243 1.249,0.006 1.42,-0.377 0.395,-1.26 -1.196,-1.753 -1.759,-0.851"
         style="fill:#050301;fill-opacity:1;fill-rule:evenodd;stroke:none"
         id="path9142"
         inkscape:connector-curvature="0" />
      <path
         d="m 1171.3096,547.67684 c -5.614,0.396 -6.104,8.353 -0.984,9.749 4.161,1.133 8.525,-3.713 5.325,-7.909 -0.702,-0.919 -2.131,-1.995 -4.341,-1.84"
         style="fill:#050301;fill-opacity:1;fill-rule:evenodd;stroke:none"
         id="path9144"
         inkscape:connector-curvature="0" />
      <path
         d="m 1158.7666,550.22584 c -3.415,0.081 -5.808,3.206 -4.572,6.666 0.9,2.523 3.846,3.748 6.424,2.828 2.518,-0.9 3.77,-3.788 2.828,-6.426 -0.699,-1.961 -2.652,-3.117 -4.68,-3.068"
         style="fill:#050301;fill-opacity:1;fill-rule:evenodd;stroke:none"
         id="path9146"
         inkscape:connector-curvature="0" />
      <path
         d="m 1184.0056,545.39784 c -2.691,0.261 -4.708,2.616 -4.203,5.498 1.064,6.04 10.625,4.45 9.416,-1.739 -0.48,-2.459 -2.565,-4.017 -5.213,-3.759"
         style="fill:#050301;fill-opacity:1;fill-rule:evenodd;stroke:none"
         id="path9148"
         inkscape:connector-curvature="0" />
      <path
         d="m 1145.2226,553.26784 c -3.118,0.429 -5.072,3.969 -3.02,6.961 1.152,1.676 4.073,2.578 6.28,1.063 3.532,-2.424 1.69,-8.707 -3.26,-8.024"
         style="fill:#050301;fill-opacity:1;fill-rule:evenodd;stroke:none"
         id="path9150"
         inkscape:connector-curvature="0" />
      <path
         d="m 1197.4476,543.36884 c -2.916,0.072 -4.938,2.556 -3.992,5.559 0.798,2.533 3.385,3.262 5.391,2.631 2.369,-0.745 3.314,-3.224 2.632,-5.392 -0.568,-1.806 -1.976,-2.847 -4.031,-2.798"
         style="fill:#050301;fill-opacity:1;fill-rule:evenodd;stroke:none"
         id="path9152"
         inkscape:connector-curvature="0" />
      <path
         d="m 1209.7576,541.66184 c -2.022,0.297 -3.861,2.679 -2.475,5.164 2.054,3.685 8.451,0.694 6.071,-3.574 -0.505,-0.904 -0.6,-0.836 -1.125,-1.175 -0.542,-0.349 -1.424,-0.567 -2.471,-0.415"
         style="fill:#050301;fill-opacity:1;fill-rule:evenodd;stroke:none"
         id="path9154"
         inkscape:connector-curvature="0" />
      <path
         d="m 1132.8486,556.67884 c -4.918,0.262 -3.806,7.811 0.85,6.902 1.954,-0.381 3.094,-2.271 2.797,-4.029 -0.325,-1.921 -1.637,-2.979 -3.647,-2.873"
         style="fill:#050301;fill-opacity:1;fill-rule:evenodd;stroke:none"
         id="path9156"
         inkscape:connector-curvature="0" />
      <path
         d="m 1223.0656,539.96084 c -3.856,0.201 -2.784,5.819 0.608,5.157 3.084,-0.601 2.579,-5.323 -0.608,-5.157"
         style="fill:#050301;fill-opacity:1;fill-rule:evenodd;stroke:none"
         id="path9158"
         inkscape:connector-curvature="0" />
      <path
         d="m 1120.3376,560.41584 c -3.702,-0.151 -2.73,5.478 0.65,4.353 2.094,-0.697 1.828,-4.252 -0.65,-4.353"
         style="fill:#050301;fill-opacity:1;fill-rule:evenodd;stroke:none"
         id="path9160"
         inkscape:connector-curvature="0" />
      <path
         d="m 1235.9496,538.14284 c -0.466,0.036 -0.901,0.156 -1.208,0.434 -1.325,1.203 -0.019,3.622 1.65,3.362 2.407,-0.375 2.039,-3.993 -0.442,-3.796"
         style="fill:#050301;fill-opacity:1;fill-rule:evenodd;stroke:none"
         id="path9162"
         inkscape:connector-curvature="0" />
      <path
         d="m 1249.2006,536.15384 c -2.46,-0.336 -1.636,3.451 0.469,2.396 0.678,-0.341 0.945,-2.204 -0.469,-2.396"
         style="fill:#050301;fill-opacity:1;fill-rule:evenodd;stroke:none"
         id="path9164"
         inkscape:connector-curvature="0" />
      <path
         d="m 1107.2146,564.07284 c -0.92,0.006 -1.237,0.595 -1.156,1.221 0.197,1.549 2.528,1.224 2.338,-0.257 -0.096,-0.744 -0.494,-0.967 -1.182,-0.964"
         style="fill:#050301;fill-opacity:1;fill-rule:evenodd;stroke:none"
         id="path9166"
         inkscape:connector-curvature="0" />
      <path
         d="m 1173.7046,560.44884 c -3.051,0.276 -5.086,3.013 -4.511,5.958 1.249,6.399 11.242,4.558 9.972,-1.947 -0.578,-2.962 -2.875,-4.243 -5.461,-4.011"
         style="fill:#050301;fill-opacity:1;fill-rule:evenodd;stroke:none"
         id="path9168"
         inkscape:connector-curvature="0" />
      <path
         d="m 1186.9566,557.96184 c -3.441,0.128 -6.277,3.327 -4.459,7.242 1.906,4.106 9.328,3.462 9.591,-1.872 0.153,-3.151 -2.198,-5.478 -5.132,-5.37"
         style="fill:#050301;fill-opacity:1;fill-rule:evenodd;stroke:none"
         id="path9170"
         inkscape:connector-curvature="0" />
      <path
         d="m 1160.8906,563.15084 c -2.939,0.264 -4.933,2.765 -4.357,5.727 1.216,6.227 10.738,4.461 9.609,-1.775 -0.5,-2.769 -2.653,-4.187 -5.252,-3.952"
         style="fill:#050301;fill-opacity:1;fill-rule:evenodd;stroke:none"
         id="path9172"
         inkscape:connector-curvature="0" />
      <path
         d="m 1199.4626,555.71884 c -2.693,0.263 -4.71,2.618 -4.205,5.5 1.065,6.04 10.625,4.45 9.417,-1.739 -0.479,-2.459 -2.565,-4.019 -5.212,-3.761"
         style="fill:#050301;fill-opacity:1;fill-rule:evenodd;stroke:none"
         id="path9174"
         inkscape:connector-curvature="0" />
      <path
         d="m 1212.6936,553.63384 c -1.555,0.051 -2.865,0.954 -3.438,1.767 -0.21,0.295 -0.789,2.38 -0.76,2.736 0.206,2.755 2.47,4.243 4.58,4.083 2.847,-0.215 4.652,-3.042 3.877,-5.635 -0.458,-1.53 -0.883,-1.79 -1.751,-2.346 -0.578,-0.369 -1.324,-0.644 -2.508,-0.605"
         style="fill:#050301;fill-opacity:1;fill-rule:evenodd;stroke:none"
         id="path9176"
         inkscape:connector-curvature="0" />
      <path
         d="m 1148.3646,566.29284 c -2.916,0.07 -4.936,2.554 -3.993,5.558 0.798,2.534 3.384,3.262 5.392,2.631 2.372,-0.745 3.313,-3.224 2.631,-5.392 -0.568,-1.806 -1.976,-2.846 -4.03,-2.797"
         style="fill:#050301;fill-opacity:1;fill-rule:evenodd;stroke:none"
         id="path9178"
         inkscape:connector-curvature="0" />
      <path
         d="m 1225.6556,551.69984 c -2.263,0.087 -3.821,1.876 -3.602,3.989 0.252,2.43 2.458,3.854 4.718,3.26 3.693,-0.97 3.251,-6.082 0.302,-7.127 -0.411,-0.145 -0.829,-0.144 -1.418,-0.122"
         style="fill:#050301;fill-opacity:1;fill-rule:evenodd;stroke:none"
         id="path9180"
         inkscape:connector-curvature="0" />
      <path
         d="m 1135.6246,569.87584 c -4.452,-0.035 -3.806,6.382 -0.163,6.304 4.186,-0.09 4.075,-6.275 0.163,-6.304"
         style="fill:#050301;fill-opacity:1;fill-rule:evenodd;stroke:none"
         id="path9182"
         inkscape:connector-curvature="0" />
      <path
         d="m 1238.8296,549.82484 c -1.824,-0.062 -3.315,1.372 -3.329,2.84 -0.025,2.241 2.074,4.013 4.471,3.01 2.503,-1.048 2.193,-5.735 -1.142,-5.85"
         style="fill:#050301;fill-opacity:1;fill-rule:evenodd;stroke:none"
         id="path9184"
         inkscape:connector-curvature="0" />
      <path
         d="m 1251.5996,547.92984 c -4.137,-0.083 -2.719,6.142 0.916,4.697 1.806,-0.716 1.978,-4.64 -0.916,-4.697"
         style="fill:#050301;fill-opacity:1;fill-rule:evenodd;stroke:none"
         id="path9186"
         inkscape:connector-curvature="0" />
      <path
         d="m 1122.5186,573.62884 c -0.468,0.037 -0.902,0.156 -1.209,0.435 -1.325,1.203 -0.018,3.621 1.653,3.362 2.407,-0.376 2.035,-3.992 -0.444,-3.797"
         style="fill:#050301;fill-opacity:1;fill-rule:evenodd;stroke:none"
         id="path9188"
         inkscape:connector-curvature="0" />
      <path
         d="m 1264.6766,546.07184 c -2.412,-0.605 -2.78,3.454 -0.495,3.582 2.324,0.131 2.69,-3.221 0.495,-3.582"
         style="fill:#050301;fill-opacity:1;fill-rule:evenodd;stroke:none"
         id="path9190"
         inkscape:connector-curvature="0" />
      <path
         d="m 1277.1396,544.13684 c -1.026,0.083 -1.218,0.717 -1.135,1.317 0.263,1.912 3.423,0.966 2.322,-0.851 -0.155,-0.256 -0.541,-0.517 -1.187,-0.466"
         style="fill:#050301;fill-opacity:1;fill-rule:evenodd;stroke:none"
         id="path9192"
         inkscape:connector-curvature="0" />
      <path
         d="m 1202.3156,568.30384 c -2.031,0.087 -3.404,1.243 -3.976,2.07 -1.461,2.113 -0.883,5.61 1.385,7.096 3.64,2.384 8.946,-1.039 7.538,-5.752 -0.475,-1.599 -1.048,-2.058 -2.018,-2.692 -0.672,-0.44 -1.595,-0.78 -2.929,-0.722"
         style="fill:#050301;fill-opacity:1;fill-rule:evenodd;stroke:none"
         id="path9194"
         inkscape:connector-curvature="0" />
      <path
         d="m 1189.3696,570.83084 c -2.031,0.087 -3.403,1.242 -3.976,2.071 -1.462,2.113 -0.885,5.609 1.386,7.096 3.639,2.384 8.944,-1.041 7.538,-5.753 -0.477,-1.598 -1.05,-2.056 -2.019,-2.691 -0.671,-0.44 -1.596,-0.78 -2.929,-0.723"
         style="fill:#050301;fill-opacity:1;fill-rule:evenodd;stroke:none"
         id="path9196"
         inkscape:connector-curvature="0" />
      <path
         d="m 1214.8966,565.94684 c -2.939,0.265 -4.933,2.767 -4.355,5.728 1.213,6.225 10.738,4.461 9.608,-1.776 -0.501,-2.769 -2.655,-4.186 -5.253,-3.952"
         style="fill:#050301;fill-opacity:1;fill-rule:evenodd;stroke:none"
         id="path9198"
         inkscape:connector-curvature="0" />
      <path
         d="m 1175.9636,573.54884 c -2.724,0.39 -4.631,2.799 -4.071,5.672 1.237,6.325 10.674,4.22 9.61,-1.777 -0.066,-0.368 -0.275,-1.182 -0.778,-1.939 -0.629,-0.947 -2.216,-2.321 -4.761,-1.956"
         style="fill:#050301;fill-opacity:1;fill-rule:evenodd;stroke:none"
         id="path9200"
         inkscape:connector-curvature="0" />
      <path
         d="m 1227.8986,563.70584 c -2.686,0.212 -4.66,2.644 -4.124,5.386 1.194,6.125 10.108,3.846 9.015,-1.761 -0.494,-2.532 -2.496,-3.813 -4.891,-3.625"
         style="fill:#050301;fill-opacity:1;fill-rule:evenodd;stroke:none"
         id="path9202"
         inkscape:connector-curvature="0" />
      <path
         d="m 1163.6686,576.34684 c -3.138,0.15 -5.02,2.763 -4.149,5.787 1.561,5.41 10.403,3.207 8.637,-2.682 -0.625,-2.078 -2.401,-3.205 -4.488,-3.105"
         style="fill:#050301;fill-opacity:1;fill-rule:evenodd;stroke:none"
         id="path9204"
         inkscape:connector-curvature="0" />
      <path
         d="m 1241.2276,561.60184 c -1.648,0.019 -2.871,0.716 -3.555,1.689 -0.529,0.756 -1.07,3.056 -0.079,4.695 1.728,2.851 7.102,2.078 7.673,-1.499 0.095,-0.589 0.06,-1.979 -0.598,-3.068 -0.346,-0.572 -1.486,-1.84 -3.441,-1.817"
         style="fill:#050301;fill-opacity:1;fill-rule:evenodd;stroke:none"
         id="path9206"
         inkscape:connector-curvature="0" />
      <path
         d="m 1150.3736,579.63884 c -2.03,0.26 -3.662,2.147 -3.221,4.412 0.965,4.941 8.281,3.177 7.499,-1.364 -0.371,-2.147 -2.089,-3.328 -4.278,-3.048"
         style="fill:#050301;fill-opacity:1;fill-rule:evenodd;stroke:none"
         id="path9208"
         inkscape:connector-curvature="0" />
      <path
         d="m 1253.8836,559.62884 c -2.856,0.127 -4.538,3.032 -2.997,5.563 2.152,3.528 8.987,0.595 6.192,-3.997 -0.561,-0.917 -1.482,-1.642 -3.195,-1.566"
         style="fill:#050301;fill-opacity:1;fill-rule:evenodd;stroke:none"
         id="path9210"
         inkscape:connector-curvature="0" />
      <path
         d="m 1266.7506,557.71484 c -4.375,0.287 -3.123,6.683 0.758,5.925 3.593,-0.702 2.932,-6.169 -0.758,-5.925"
         style="fill:#050301;fill-opacity:1;fill-rule:evenodd;stroke:none"
         id="path9212"
         inkscape:connector-curvature="0" />
      <path
         d="m 1138.1306,583.22484 c -4.598,-0.014 -2.579,7.109 1.357,4.911 1.782,-0.995 1.617,-4.903 -1.357,-4.911"
         style="fill:#050301;fill-opacity:1;fill-rule:evenodd;stroke:none"
         id="path9214"
         inkscape:connector-curvature="0" />
      <path
         d="m 1279.9236,555.83884 c -3.433,-0.089 -2.918,4.735 -0.271,4.732 2.881,-0.004 3.464,-4.649 0.271,-4.732"
         style="fill:#050301;fill-opacity:1;fill-rule:evenodd;stroke:none"
         id="path9216"
         inkscape:connector-curvature="0" />
      <path
         d="m 1292.5986,553.96084 c -2.777,0.088 -1.755,3.827 0.368,3.413 1.828,-0.357 1.852,-3.481 -0.368,-3.413"
         style="fill:#050301;fill-opacity:1;fill-rule:evenodd;stroke:none"
         id="path9218"
         inkscape:connector-curvature="0" />
      <path
         d="m 1125.3126,586.92084 c -1.252,-0.063 -1.65,0.667 -1.614,1.411 0.097,2.13 3.605,1.959 2.894,-0.466 -0.139,-0.474 -0.485,-0.905 -1.28,-0.945"
         style="fill:#050301;fill-opacity:1;fill-rule:evenodd;stroke:none"
         id="path9220"
         inkscape:connector-curvature="0" />
      <path
         d="m 1305.5616,552.02884 c -0.921,0.005 -1.237,0.594 -1.157,1.22 0.199,1.549 2.529,1.224 2.34,-0.258 -0.095,-0.744 -0.494,-0.967 -1.183,-0.962"
         style="fill:#050301;fill-opacity:1;fill-rule:evenodd;stroke:none"
         id="path9222"
         inkscape:connector-curvature="0" />
      <path
         d="m 1217.5806,578.66284 c -3.252,0.19 -5.1,2.788 -4.799,5.516 0.44,3.975 4.055,5.055 6.438,4.418 6.062,-1.618 4.041,-10.265 -1.639,-9.934"
         style="fill:#050301;fill-opacity:1;fill-rule:evenodd;stroke:none"
         id="path9224"
         inkscape:connector-curvature="0" />
      <path
         d="m 1230.7366,576.19484 c -3.443,0.126 -6.278,3.327 -4.461,7.242 1.907,4.107 9.328,3.462 9.59,-1.873 0.155,-3.151 -2.195,-5.479 -5.129,-5.369"
         style="fill:#050301;fill-opacity:1;fill-rule:evenodd;stroke:none"
         id="path9226"
         inkscape:connector-curvature="0" />
      <path
         d="m 1204.4616,581.32284 c -2.768,0.312 -4.894,2.789 -4.358,5.73 0.591,3.26 3.539,4.456 5.769,4.051 5.555,-1.01 4.744,-8.052 1.021,-9.558 -0.693,-0.28 -1.314,-0.349 -2.432,-0.223"
         style="fill:#050301;fill-opacity:1;fill-rule:evenodd;stroke:none"
         id="path9228"
         inkscape:connector-curvature="0" />
      <path
         d="m 1242.9346,573.91184 c -2.722,0.39 -4.631,2.8 -4.069,5.673 1.235,6.326 10.672,4.219 9.608,-1.777 -0.064,-0.363 -0.275,-1.184 -0.776,-1.939 -0.631,-0.946 -2.218,-2.322 -4.763,-1.957"
         style="fill:#050301;fill-opacity:1;fill-rule:evenodd;stroke:none"
         id="path9230"
         inkscape:connector-curvature="0" />
      <path
         d="m 1192.2596,584.10484 c -1.88,0.021 -3.3,0.944 -3.995,1.974 -0.502,0.747 -1.136,2.991 -0.253,4.828 2.153,4.457 8.58,2.097 8.824,-1.723 0.033,-0.522 0.148,-1.292 -0.524,-2.685 -0.663,-1.376 -2.148,-2.417 -4.052,-2.394"
         style="fill:#050301;fill-opacity:1;fill-rule:evenodd;stroke:none"
         id="path9232"
         inkscape:connector-curvature="0" />
      <path
         d="m 1256.4336,571.67384 c -3.091,0.094 -5.655,3.094 -3.996,6.555 2.339,4.879 10.946,1.667 8.143,-4.178 -0.61,-1.274 -2.24,-2.434 -4.147,-2.377"
         style="fill:#050301;fill-opacity:1;fill-rule:evenodd;stroke:none"
         id="path9234"
         inkscape:connector-curvature="0" />
      <path
         d="m 1269.0516,569.50984 c -2.4,0.206 -4.096,2.466 -3.643,4.792 1.013,5.185 8.924,3.521 8.075,-1.477 -0.385,-2.265 -2.067,-3.519 -4.432,-3.315"
         style="fill:#050301;fill-opacity:1;fill-rule:evenodd;stroke:none"
         id="path9236"
         inkscape:connector-curvature="0" />
      <path
         d="m 1179.1956,587.05284 c -2.915,0.07 -4.936,2.554 -3.991,5.558 0.797,2.534 3.385,3.262 5.392,2.63 2.368,-0.744 3.312,-3.222 2.63,-5.39 -0.567,-1.807 -1.974,-2.847 -4.031,-2.798"
         style="fill:#050301;fill-opacity:1;fill-rule:evenodd;stroke:none"
         id="path9238"
         inkscape:connector-curvature="0" />
      <path
         d="m 1165.8456,590.05884 c -2.029,0.259 -3.663,2.145 -3.22,4.411 0.964,4.939 8.283,3.176 7.5,-1.364 -0.371,-2.148 -2.088,-3.327 -4.28,-3.047"
         style="fill:#050301;fill-opacity:1;fill-rule:evenodd;stroke:none"
         id="path9240"
         inkscape:connector-curvature="0" />
      <path
         d="m 1281.7276,567.63184 c -2.021,0.296 -3.862,2.678 -2.477,5.163 2.055,3.683 8.453,0.694 6.073,-3.576 -0.505,-0.902 -0.601,-0.833 -1.126,-1.173 -0.543,-0.351 -1.418,-0.568 -2.47,-0.414"
         style="fill:#050301;fill-opacity:1;fill-rule:evenodd;stroke:none"
         id="path9242"
         inkscape:connector-curvature="0" />
      <path
         d="m 1153.6256,593.23984 c -1.824,-0.061 -3.313,1.373 -3.328,2.84 -0.025,2.241 2.074,4.013 4.469,3.01 2.506,-1.049 2.196,-5.736 -1.141,-5.85"
         style="fill:#050301;fill-opacity:1;fill-rule:evenodd;stroke:none"
         id="path9244"
         inkscape:connector-curvature="0" />
      <path
         d="m 1295.3026,565.77784 c -3.904,-0.083 -3.558,5.561 -0.312,5.537 2.141,-0.017 3.566,-1.804 2.701,-4.013 -0.211,-0.536 -0.262,-0.477 -0.304,-0.537 -0.084,-0.124 -0.809,-0.96 -2.085,-0.987"
         style="fill:#050301;fill-opacity:1;fill-rule:evenodd;stroke:none"
         id="path9246"
         inkscape:connector-curvature="0" />
      <path
         d="m 1307.9966,563.99584 c -3.07,0.135 -2.038,4.381 0.384,4.007 2.29,-0.352 2.212,-4.12 -0.384,-4.007"
         style="fill:#050301;fill-opacity:1;fill-rule:evenodd;stroke:none"
         id="path9248"
         inkscape:connector-curvature="0" />
      <path
         d="m 1140.7706,596.74584 c -3.363,-0.355 -2.632,5.086 0.575,3.969 0.908,-0.315 1.572,-1.206 1.125,-2.908 -0.463,-0.51 -0.887,-1.072 -1.7,-1.061"
         style="fill:#050301;fill-opacity:1;fill-rule:evenodd;stroke:none"
         id="path9250"
         inkscape:connector-curvature="0" />
      <path
         d="m 1320.8036,562.29184 c -1.025,0.082 -1.217,0.72 -1.135,1.318 0.262,1.911 3.421,0.965 2.322,-0.852 -0.153,-0.257 -0.541,-0.518 -1.187,-0.466"
         style="fill:#050301;fill-opacity:1;fill-rule:evenodd;stroke:none"
         id="path9252"
         inkscape:connector-curvature="0" />
      <path
         d="m 1127.7056,600.19284 c -0.92,0.004 -1.237,0.595 -1.157,1.221 0.199,1.549 2.53,1.223 2.34,-0.258 -0.094,-0.744 -0.493,-0.967 -1.183,-0.963"
         style="fill:#050301;fill-opacity:1;fill-rule:evenodd;stroke:none"
         id="path9254"
         inkscape:connector-curvature="0" />
      <path
         d="m 1246.0776,586.43884 c -4.024,0.141 -6.763,4.62 -3.968,8.242 1.182,1.53 4.564,2.941 7.239,0.876 1.583,-1.222 3.074,-4.395 0.878,-7.239 -0.503,-0.65 -2.041,-1.952 -4.149,-1.879"
         style="fill:#050301;fill-opacity:1;fill-rule:evenodd;stroke:none"
         id="path9256"
         inkscape:connector-curvature="0" />
      <path
         d="m 1233.3226,588.92884 c -3.119,0.075 -5.29,2.481 -5.178,5.094 0.138,3.235 2.643,5.268 5.19,5.159 3.182,-0.136 6.473,-3.504 4.65,-7.279 -0.9,-1.865 -2.415,-3.027 -4.662,-2.974"
         style="fill:#050301;fill-opacity:1;fill-rule:evenodd;stroke:none"
         id="path9258"
         inkscape:connector-curvature="0" />
      <path
         d="m 1258.4646,584.11984 c -2.765,0.311 -4.891,2.786 -4.356,5.73 0.592,3.259 3.539,4.456 5.769,4.05 5.553,-1.01 4.745,-8.051 1.021,-9.558 -0.693,-0.279 -1.313,-0.347 -2.434,-0.222"
         style="fill:#050301;fill-opacity:1;fill-rule:evenodd;stroke:none"
         id="path9260"
         inkscape:connector-curvature="0" />
      <path
         d="m 1220.0106,591.62784 c -5.614,0.395 -6.105,8.355 -0.982,9.749 4.157,1.133 8.523,-3.712 5.324,-7.908 -0.701,-0.92 -2.131,-1.997 -4.342,-1.841"
         style="fill:#050301;fill-opacity:1;fill-rule:evenodd;stroke:none"
         id="path9262"
         inkscape:connector-curvature="0" />
      <path
         d="m 1272.0626,581.86384 c -1.882,0.023 -3.303,0.946 -3.995,1.974 -0.503,0.748 -1.139,2.99 -0.252,4.828 2.149,4.457 8.578,2.098 8.823,-1.722 0.19,-2.976 -2.066,-5.109 -4.576,-5.08"
         style="fill:#050301;fill-opacity:1;fill-rule:evenodd;stroke:none"
         id="path9264"
         inkscape:connector-curvature="0" />
      <path
         d="m 1207.3306,594.50184 c -1.575,0.075 -2.722,0.749 -3.455,1.671 -0.474,0.596 -1.322,2.312 -0.766,4.231 1.575,5.466 10.656,3.389 8.825,-2.718 -0.691,-2.311 -2.534,-3.283 -4.604,-3.184"
         style="fill:#050301;fill-opacity:1;fill-rule:evenodd;stroke:none"
         id="path9266"
         inkscape:connector-curvature="0" />
      <path
         d="m 1284.4116,579.85084 c -2.46,0.224 -4.227,2.313 -3.722,4.908 1.058,5.412 9.287,3.709 8.248,-1.61 -0.478,-2.459 -2.307,-3.5 -4.526,-3.298"
         style="fill:#050301;fill-opacity:1;fill-rule:evenodd;stroke:none"
         id="path9268"
         inkscape:connector-curvature="0" />
      <path
         d="m 1194.1146,597.67984 c -2.123,0.282 -3.783,2.28 -3.394,4.545 0.904,5.262 8.744,3.553 7.901,-1.344 -0.371,-2.154 -2.158,-3.514 -4.507,-3.201"
         style="fill:#050301;fill-opacity:1;fill-rule:evenodd;stroke:none"
         id="path9270"
         inkscape:connector-curvature="0" />
      <path
         d="m 1297.1056,578.06884 c -2.022,0.295 -3.861,2.678 -2.476,5.164 2.054,3.682 8.451,0.694 6.072,-3.576 -0.504,-0.903 -0.601,-0.835 -1.126,-1.173 -0.543,-0.35 -1.421,-0.568 -2.47,-0.415"
         style="fill:#050301;fill-opacity:1;fill-rule:evenodd;stroke:none"
         id="path9272"
         inkscape:connector-curvature="0" />
      <path
         d="m 1181.2976,600.87784 c -4.417,0.546 -3.042,7.265 1.065,6.463 4.091,-0.799 3.114,-6.977 -1.065,-6.463"
         style="fill:#050301;fill-opacity:1;fill-rule:evenodd;stroke:none"
         id="path9274"
         inkscape:connector-curvature="0" />
      <path
         d="m 1168.9446,603.88784 c -2.113,-0.01 -3.756,2.251 -2.339,4.341 1.782,2.623 6.822,0.09 4.538,-3.276 -0.318,-0.47 -1.138,-1.06 -2.199,-1.065"
         style="fill:#050301;fill-opacity:1;fill-rule:evenodd;stroke:none"
         id="path9276"
         inkscape:connector-curvature="0" />
      <path
         d="m 1310.5086,576.34784 c -3.857,0.202 -2.784,5.821 0.608,5.158 3.085,-0.602 2.579,-5.323 -0.608,-5.158"
         style="fill:#050301;fill-opacity:1;fill-rule:evenodd;stroke:none"
         id="path9278"
         inkscape:connector-curvature="0" />
      <path
         d="m 1156.1106,606.99184 c -3.653,-0.168 -2.494,5.504 0.806,4.122 1.404,-0.587 1.762,-4.006 -0.806,-4.122"
         style="fill:#050301;fill-opacity:1;fill-rule:evenodd;stroke:none"
         id="path9280"
         inkscape:connector-curvature="0" />
      <path
         d="m 1323.6416,574.77984 c -3.748,-0.229 -0.862,5.408 1.213,2.651 0.775,-1.028 0.117,-2.569 -1.213,-2.651"
         style="fill:#050301;fill-opacity:1;fill-rule:evenodd;stroke:none"
         id="path9282"
         inkscape:connector-curvature="0" />
      <path
         d="m 1143.1996,610.20884 c -1.25,-0.063 -1.651,0.668 -1.616,1.41 0.099,2.13 3.608,1.959 2.897,-0.465 -0.141,-0.475 -0.486,-0.905 -1.281,-0.945"
         style="fill:#050301;fill-opacity:1;fill-rule:evenodd;stroke:none"
         id="path9284"
         inkscape:connector-curvature="0" />
      <path
         d="m 1335.4316,573.47484 c -0.083,0.383 0.056,1.029 0.341,1.226 0.393,0.243 1.246,0.006 1.418,-0.377 0.396,-1.26 -1.194,-1.754 -1.759,-0.849"
         style="fill:#050301;fill-opacity:1;fill-rule:evenodd;stroke:none"
         id="path9286"
         inkscape:connector-curvature="0" />
      <path
         d="m 1248.6806,599.27084 c -3.119,0.075 -5.29,2.482 -5.178,5.092 0.138,3.237 2.644,5.268 5.189,5.16 3.185,-0.136 6.475,-3.504 4.651,-7.28 -0.9,-1.865 -2.412,-3.025 -4.662,-2.972"
         style="fill:#050301;fill-opacity:1;fill-rule:evenodd;stroke:none"
         id="path9288"
         inkscape:connector-curvature="0" />
      <path
         d="m 1261.3586,596.89584 c -2.032,0.087 -3.404,1.244 -3.977,2.069 -1.461,2.114 -0.883,5.61 1.386,7.098 3.64,2.383 8.944,-1.041 7.537,-5.752 -0.475,-1.599 -1.049,-2.059 -2.017,-2.694 -0.671,-0.438 -1.595,-0.778 -2.929,-0.721"
         style="fill:#050301;fill-opacity:1;fill-rule:evenodd;stroke:none"
         id="path9290"
         inkscape:connector-curvature="0" />
      <path
         d="m 1235.7556,601.89484 c -3.444,0.128 -6.28,3.328 -4.462,7.242 1.906,4.106 9.329,3.462 9.59,-1.872 0.156,-3.152 -2.195,-5.479 -5.128,-5.37"
         style="fill:#050301;fill-opacity:1;fill-rule:evenodd;stroke:none"
         id="path9292"
         inkscape:connector-curvature="0" />
      <path
         d="m 1274.5726,594.71384 c -1.883,0.023 -3.303,0.945 -3.997,1.976 -0.502,0.747 -1.139,2.988 -0.252,4.827 2.15,4.459 8.579,2.096 8.823,-1.723 0.034,-0.522 0.148,-1.293 -0.524,-2.684 -0.663,-1.377 -2.148,-2.418 -4.05,-2.396"
         style="fill:#050301;fill-opacity:1;fill-rule:evenodd;stroke:none"
         id="path9294"
         inkscape:connector-curvature="0" />
      <path
         d="m 1222.9786,604.78684 c -1.881,0.022 -3.303,0.946 -3.995,1.975 -0.503,0.747 -1.139,2.99 -0.253,4.828 2.15,4.458 8.579,2.097 8.823,-1.723 0.035,-0.523 0.148,-1.294 -0.523,-2.685 -0.663,-1.377 -2.15,-2.417 -4.052,-2.395"
         style="fill:#050301;fill-opacity:1;fill-rule:evenodd;stroke:none"
         id="path9296"
         inkscape:connector-curvature="0" />
      <path
         d="m 1287.1316,592.75984 c -1.508,0.086 -2.649,0.842 -3.247,1.729 -0.198,0.296 -0.765,1.817 -0.663,2.717 0.317,2.789 2.624,3.946 4.601,3.682 2.808,-0.374 3.995,-3.146 3.474,-5.158 -0.321,-1.24 -1.144,-2.019 -1.657,-2.365 -0.477,-0.322 -1.403,-0.669 -2.508,-0.605"
         style="fill:#050301;fill-opacity:1;fill-rule:evenodd;stroke:none"
         id="path9298"
         inkscape:connector-curvature="0" />
      <path
         d="m 1209.4736,608.02184 c -2.124,0.282 -3.783,2.28 -3.393,4.545 0.904,5.262 8.741,3.552 7.899,-1.344 -0.369,-2.155 -2.158,-3.514 -4.506,-3.201"
         style="fill:#050301;fill-opacity:1;fill-rule:evenodd;stroke:none"
         id="path9300"
         inkscape:connector-curvature="0" />
      <path
         d="m 1300.2086,590.90384 c -2.925,0.048 -4.386,3.068 -2.938,5.351 1.76,2.771 5.899,1.135 6.33,-1.235 0.078,-0.433 0.17,-1.592 -0.523,-2.686 -0.443,-0.695 -1.312,-1.457 -2.869,-1.43"
         style="fill:#050301;fill-opacity:1;fill-rule:evenodd;stroke:none"
         id="path9302"
         inkscape:connector-curvature="0" />
      <path
         d="m 1197.1946,611.41384 c -4.685,0.092 -3.489,7.507 1.142,5.849 3.056,-1.092 2.119,-5.912 -1.142,-5.849"
         style="fill:#050301;fill-opacity:1;fill-rule:evenodd;stroke:none"
         id="path9304"
         inkscape:connector-curvature="0" />
      <path
         d="m 1313.3236,589.23784 c -4.594,-0.16 -2.653,6.915 1.223,4.74 1.612,-0.904 1.68,-4.638 -1.223,-4.74"
         style="fill:#050301;fill-opacity:1;fill-rule:evenodd;stroke:none"
         id="path9306"
         inkscape:connector-curvature="0" />
      <path
         d="m 1184.4166,614.80584 c -3.655,-0.167 -2.494,5.504 0.804,4.123 1.406,-0.588 1.765,-4.007 -0.804,-4.123"
         style="fill:#050301;fill-opacity:1;fill-rule:evenodd;stroke:none"
         id="path9308"
         inkscape:connector-curvature="0" />
      <path
         d="m 1325.9406,587.57184 c -2.778,0.087 -1.755,3.828 0.367,3.413 1.826,-0.358 1.853,-3.483 -0.367,-3.413"
         style="fill:#050301;fill-opacity:1;fill-rule:evenodd;stroke:none"
         id="path9310"
         inkscape:connector-curvature="0" />
      <path
         d="m 1171.5826,617.90784 c -2.272,-0.164 -2.281,3.113 -0.379,3.161 2.01,0.05 2.496,-3.009 0.379,-3.161"
         style="fill:#050301;fill-opacity:1;fill-rule:evenodd;stroke:none"
         id="path9312"
         inkscape:connector-curvature="0" />
      <path
         d="m 1158.4046,620.77884 c -1.026,0.083 -1.22,0.717 -1.136,1.318 0.261,1.911 3.421,0.966 2.322,-0.853 -0.155,-0.255 -0.542,-0.515 -1.186,-0.465"
         style="fill:#050301;fill-opacity:1;fill-rule:evenodd;stroke:none"
         id="path9314"
         inkscape:connector-curvature="0" />
      <path
         d="m 1337.9396,586.32284 c -0.083,0.385 0.058,1.031 0.342,1.229 0.392,0.242 1.247,0.005 1.419,-0.376 0.395,-1.263 -1.195,-1.754 -1.761,-0.853"
         style="fill:#050301;fill-opacity:1;fill-rule:evenodd;stroke:none"
         id="path9316"
         inkscape:connector-curvature="0" />
      <path
         d="m 1251.2466,612.40784 c -3.76,0.091 -6.634,3.944 -4.175,7.685 2.134,3.245 8.14,2.652 9.015,-1.76 0.172,-0.872 0.169,-2.574 -0.882,-4.009 -0.482,-0.658 -1.891,-1.964 -3.958,-1.916"
         style="fill:#050301;fill-opacity:1;fill-rule:evenodd;stroke:none"
         id="path9318"
         inkscape:connector-curvature="0" />
      <path
         d="m 1263.7306,610.06984 c -2.891,0.198 -4.943,2.719 -4.375,5.634 1.266,6.478 10.424,3.847 9.418,-1.739 -0.473,-2.616 -2.274,-4.082 -5.043,-3.895"
         style="fill:#050301;fill-opacity:1;fill-rule:evenodd;stroke:none"
         id="path9320"
         inkscape:connector-curvature="0" />
      <path
         d="m 1237.8576,615.22184 c -3.331,0.335 -5.657,4.346 -3.217,7.498 3.537,4.561 11.35,-0.768 7.426,-5.831 -0.707,-0.912 -2.243,-1.864 -4.209,-1.667"
         style="fill:#050301;fill-opacity:1;fill-rule:evenodd;stroke:none"
         id="path9322"
         inkscape:connector-curvature="0" />
      <path
         d="m 1276.7916,608.11884 c -4.605,0.265 -5.327,6.633 -1.303,8.118 3.029,1.12 6.059,-1.75 5.692,-4.496 -0.16,-1.216 -1.056,-2.375 -1.061,-2.38 -0.712,-0.78 -1.862,-1.328 -3.328,-1.242"
         style="fill:#050301;fill-opacity:1;fill-rule:evenodd;stroke:none"
         id="path9324"
         inkscape:connector-curvature="0" />
      <path
         d="m 1225.3316,618.36384 c -2.629,0.077 -4.636,2.343 -3.761,5.214 1.411,4.631 8.182,2.784 7.883,-1.437 -0.174,-2.448 -2.004,-3.837 -4.122,-3.777"
         style="fill:#050301;fill-opacity:1;fill-rule:evenodd;stroke:none"
         id="path9326"
         inkscape:connector-curvature="0" />
      <path
         d="m 1289.6936,606.39584 c -2.039,0.108 -3.574,1.801 -3.218,3.913 0.79,4.666 7.369,2.979 6.77,-1.023 -0.282,-1.879 -1.658,-2.99 -3.552,-2.89"
         style="fill:#050301;fill-opacity:1;fill-rule:evenodd;stroke:none"
         id="path9328"
         inkscape:connector-curvature="0" />
      <path
         d="m 1212.4586,621.77484 c -4.308,0.147 -3.596,6.869 0.602,6.153 3.828,-0.652 3.119,-6.281 -0.602,-6.153"
         style="fill:#050301;fill-opacity:1;fill-rule:evenodd;stroke:none"
         id="path9330"
         inkscape:connector-curvature="0" />
      <path
         d="m 1302.7716,604.53884 c -4.598,-0.013 -2.579,7.11 1.358,4.912 1.783,-0.996 1.617,-4.903 -1.358,-4.912"
         style="fill:#050301;fill-opacity:1;fill-rule:evenodd;stroke:none"
         id="path9332"
         inkscape:connector-curvature="0" />
      <path
         d="m 1199.6026,625.27884 c -3.181,0.155 -2.063,4.684 0.517,4.18 2.51,-0.49 2.097,-4.306 -0.517,-4.18"
         style="fill:#050301;fill-opacity:1;fill-rule:evenodd;stroke:none"
         id="path9334"
         inkscape:connector-curvature="0" />
      <path
         d="m 1315.7536,602.70184 c -2.656,-0.075 -2.659,3.956 -0.229,3.928 1.285,-0.017 2.857,-1.267 1.776,-3.136 -0.189,-0.326 -0.731,-0.769 -1.547,-0.792"
         style="fill:#050301;fill-opacity:1;fill-rule:evenodd;stroke:none"
         id="path9336"
         inkscape:connector-curvature="0" />
      <path
         d="m 1328.7346,600.86384 c -2.461,-0.335 -1.635,3.451 0.469,2.397 0.678,-0.34 0.945,-2.204 -0.469,-2.397"
         style="fill:#050301;fill-opacity:1;fill-rule:evenodd;stroke:none"
         id="path9338"
         inkscape:connector-curvature="0" />
      <path
         d="m 1253.3326,645.94715 c -2.688,0.213 -4.661,2.643 -4.127,5.386 1.196,6.124 10.11,3.845 9.014,-1.761 -0.494,-2.532 -2.496,-3.814 -4.887,-3.625"
         style="fill:#050301;fill-opacity:1;fill-rule:evenodd;stroke:none"
         id="path9342"
         inkscape:connector-curvature="0" />
      <path
         d="m 1266.2016,643.53415 c -2.654,0.209 -4.582,2.534 -4.049,5.269 1.116,5.709 9.949,4.043 8.822,-1.722 -0.496,-2.544 -2.382,-3.736 -4.773,-3.547"
         style="fill:#050301;fill-opacity:1;fill-rule:evenodd;stroke:none"
         id="path9344"
         inkscape:connector-curvature="0" />
      <path
         d="m 1240.6706,628.61084 c -1.509,0.086 -2.649,0.84 -3.246,1.728 -0.2,0.297 -0.767,1.817 -0.663,2.718 0.314,2.781 2.618,3.946 4.601,3.681 2.811,-0.374 3.993,-3.15 3.472,-5.157 -0.325,-1.257 -1.147,-2.022 -1.656,-2.366 -0.477,-0.321 -1.401,-0.668 -2.508,-0.604"
         style="fill:#050301;fill-opacity:1;fill-rule:evenodd;stroke:none"
         id="path9346"
         inkscape:connector-curvature="0" />
      <path
         d="m 1279.3936,641.75415 c -2.263,0.087 -3.823,1.877 -3.6,3.989 0.25,2.43 2.455,3.854 4.715,3.26 3.694,-0.97 3.251,-6.083 0.303,-7.127 -0.412,-0.145 -0.831,-0.144 -1.418,-0.122"
         style="fill:#050301;fill-opacity:1;fill-rule:evenodd;stroke:none"
         id="path9348"
         inkscape:connector-curvature="0" />
      <path
         d="m 1227.7976,632.01984 c -4.467,0.177 -3.644,7.075 0.641,6.346 3.953,-0.673 3.218,-6.5 -0.641,-6.346"
         style="fill:#050301;fill-opacity:1;fill-rule:evenodd;stroke:none"
         id="path9350"
         inkscape:connector-curvature="0" />
      <path
         d="m 1292.4496,640.30015 c -4.598,-0.012 -2.578,7.11 1.358,4.912 1.782,-0.996 1.615,-4.903 -1.358,-4.912"
         style="fill:#050301;fill-opacity:1;fill-rule:evenodd;stroke:none"
         id="path9352"
         inkscape:connector-curvature="0" />
      <path
         d="m 1215.2506,635.56584 c -3.656,-0.167 -2.496,5.504 0.803,4.123 1.405,-0.588 1.765,-4.007 -0.803,-4.123"
         style="fill:#050301;fill-opacity:1;fill-rule:evenodd;stroke:none"
         id="path9354"
         inkscape:connector-curvature="0" />
      <path
         d="m 1305.1806,618.40484 c -2.778,0.086 -1.755,3.827 0.367,3.413 1.828,-0.357 1.853,-3.483 -0.367,-3.413"
         style="fill:#050301;fill-opacity:1;fill-rule:evenodd;stroke:none"
         id="path9356"
         inkscape:connector-curvature="0" />
      <path
         d="m 1202.4706,638.95484 c -2.459,-0.336 -1.634,3.452 0.469,2.399 0.676,-0.339 0.947,-2.205 -0.469,-2.399"
         style="fill:#050301;fill-opacity:1;fill-rule:evenodd;stroke:none"
         id="path9358"
         inkscape:connector-curvature="0" />
      <path
         d="m 1318.1426,616.47084 c -0.92,0.005 -1.236,0.596 -1.155,1.222 0.197,1.548 2.529,1.222 2.339,-0.258 -0.095,-0.744 -0.494,-0.968 -1.184,-0.964"
         style="fill:#050301;fill-opacity:1;fill-rule:evenodd;stroke:none"
         id="path9360"
         inkscape:connector-curvature="0" />
      <path
         d="m 1268.6896,656.78715 c -2.404,0.208 -4.1,2.465 -3.645,4.793 1.013,5.183 8.925,3.52 8.077,-1.477 -0.387,-2.267 -2.07,-3.52 -4.432,-3.316"
         style="fill:#050301;fill-opacity:1;fill-rule:evenodd;stroke:none"
         id="path9362"
         inkscape:connector-curvature="0" />
      <path
         d="m 1255.9536,659.37215 c -2.346,0.166 -4.095,2.25 -3.682,4.602 0.963,5.486 8.733,3.396 7.902,-1.344 -0.376,-2.146 -1.852,-3.424 -4.22,-3.258"
         style="fill:#050301;fill-opacity:1;fill-rule:evenodd;stroke:none"
         id="path9364"
         inkscape:connector-curvature="0" />
      <path
         d="m 1281.5736,654.96715 c -4.357,0.538 -3.351,7.524 1.101,6.655 3.988,-0.78 3.33,-7.201 -1.101,-6.655"
         style="fill:#050301;fill-opacity:1;fill-rule:evenodd;stroke:none"
         id="path9366"
         inkscape:connector-curvature="0" />
      <path
         d="m 1242.9456,642.30284 c -4.419,0.546 -3.041,7.264 1.063,6.462 4.091,-0.798 3.115,-6.978 -1.063,-6.462"
         style="fill:#050301;fill-opacity:1;fill-rule:evenodd;stroke:none"
         id="path9368"
         inkscape:connector-curvature="0" />
      <path
         d="m 1294.7446,653.59015 c -3.247,0.199 -2.223,4.822 0.46,4.391 2.588,-0.417 2.41,-4.566 -0.46,-4.391"
         style="fill:#050301;fill-opacity:1;fill-rule:evenodd;stroke:none"
         id="path9370"
         inkscape:connector-curvature="0" />
      <path
         d="m 1230.5896,645.81084 c -3.7,-0.153 -2.729,5.475 0.651,4.352 2.094,-0.696 1.826,-4.252 -0.651,-4.352"
         style="fill:#050301;fill-opacity:1;fill-rule:evenodd;stroke:none"
         id="path9372"
         inkscape:connector-curvature="0" />
      <path
         d="m 1217.8116,649.19984 c -2.563,-0.303 -1.675,3.633 0.506,2.59 1.168,-0.558 0.717,-2.444 -0.506,-2.59"
         style="fill:#050301;fill-opacity:1;fill-rule:evenodd;stroke:none"
         id="path9374"
         inkscape:connector-curvature="0" />
      <path
         d="m 1307.7066,652.15615 c -0.92,0.005 -1.238,0.595 -1.156,1.22 0.197,1.549 2.528,1.223 2.34,-0.257 -0.097,-0.745 -0.495,-0.967 -1.184,-0.963"
         style="fill:#050301;fill-opacity:1;fill-rule:evenodd;stroke:none"
         id="path9376"
         inkscape:connector-curvature="0" />
      <path
         d="m 1284.3686,668.25915 c -4.375,0.288 -3.122,6.683 0.76,5.925 3.591,-0.701 2.932,-6.167 -0.76,-5.925"
         style="fill:#050301;fill-opacity:1;fill-rule:evenodd;stroke:none"
         id="path9382"
         inkscape:connector-curvature="0" />
      <path
         d="m 1297.3096,666.72915 c -3.071,0.135 -2.04,4.38 0.385,4.006 2.287,-0.353 2.211,-4.119 -0.385,-4.006"
         style="fill:#050301;fill-opacity:1;fill-rule:evenodd;stroke:none"
         id="path9386"
         inkscape:connector-curvature="0" />
      <path
         d="m 1233.0766,659.56084 c -1.253,-0.063 -1.653,0.669 -1.617,1.411 0.099,2.129 3.607,1.959 2.896,-0.466 -0.14,-0.475 -0.487,-0.904 -1.279,-0.945"
         style="fill:#050301;fill-opacity:1;fill-rule:evenodd;stroke:none"
         id="path9388"
         inkscape:connector-curvature="0" />
      <path
         d="m 1310.3476,665.17915 c -0.854,-0.016 -1.153,0.52 -1.078,1.106 0.177,1.384 2.427,1.211 2.13,-0.316 -0.097,-0.493 -0.421,-0.78 -1.052,-0.79"
         style="fill:#050301;fill-opacity:1;fill-rule:evenodd;stroke:none"
         id="path9390"
         inkscape:connector-curvature="0" />
      <path
         d="m 1300.0856,679.92415 c -3.748,-0.228 -0.862,5.409 1.214,2.651 0.774,-1.029 0.118,-2.569 -1.214,-2.651"
         style="fill:#050301;fill-opacity:1;fill-rule:evenodd;stroke:none"
         id="path9398"
         inkscape:connector-curvature="0" />
      <path
         d="m 1201.6746,668.00684 c 2.131,0.579 2.75,-2.538 0.948,-2.94 -1.905,-0.421 -2.937,2.401 -0.948,2.94"
         style="fill:#050301;fill-opacity:1;fill-rule:evenodd;stroke:none"
         id="path11638"
         inkscape:connector-curvature="0" />
      <path
         d="m 1214.7606,667.53284 c 0.809,0.172 1.194,-0.282 1.231,-0.853 0.088,-1.354 -2.088,-1.605 -2.088,-0.095 0,0.486 0.26,0.819 0.857,0.948"
         style="fill:#050301;fill-opacity:1;fill-rule:evenodd;stroke:none"
         id="path11642"
         inkscape:connector-curvature="0" />
      <path
         d="m 1201.9566,654.82584 c 0.814,0.174 1.198,-0.28 1.232,-0.855 0.09,-1.35 -2.084,-1.605 -2.084,-0.093 0,0.489 0.252,0.821 0.852,0.948"
         style="fill:#050301;fill-opacity:1;fill-rule:evenodd;stroke:none"
         id="path11690"
         inkscape:connector-curvature="0" />
      <path
         d="m 1087.1246,591.48284 c 1.181,0.294 1.696,-0.331 1.801,-1.044 0.302,-2.048 -3.072,-2.537 -2.846,-0.097 0.047,0.481 0.294,0.953 1.045,1.141"
         style="fill:#050301;fill-opacity:1;fill-rule:evenodd;stroke:none"
         id="path11832"
         inkscape:connector-curvature="0" />
      <path
         d="m 1107.5976,523.67484 71.7,98.127 8.688,-29.087 61.664,59.504 7.183,-35.221 49.847,46.837 18.983,-55.355 -88.074,-49.58 -3.661,27.201 -58.88,-42.178 -4.268,26.346 -63.182,-46.594"
         style="fill:#ffffff;fill-opacity:1;fill-rule:nonzero;stroke:none"
         id="path17540"
         inkscape:connector-curvature="0" />
      <path
         d="m 1178.4566,616.91084 -60.595,-82.927 54.518,40.203 4.275,-26.399 58.97,42.241 3.694,-27.456 83.693,46.854 -17.954,51.707 -49.594,-48.449 -7.171,35.159 -61.381,-59.232 -8.455,28.299 z m -82.07,-103.898 84.142,122.785 9.979,-34.168 61.374,65.658 7.765,-40.807 49.473,56.04 23.135,-77.125 -98.6,-53.639 -2.08,28.283 -58.134,-39.982 -4.285,23.496 -72.769,-50.541"
         style="fill:#050301;fill-opacity:1;fill-rule:nonzero;stroke:none"
         id="path17542"
         inkscape:connector-curvature="0" />
      <path
         d="m 1107.5976,523.67484 71.7,98.127 8.688,-29.087 61.664,59.504 7.183,-35.221 49.847,46.837 18.983,-55.355 -88.074,-49.58 -3.661,27.201 -58.88,-42.178 -4.268,26.346 -63.182,-46.594 z"
         style="fill:none;stroke:#231f20;stroke-width:0.25;stroke-linecap:butt;stroke-linejoin:miter;stroke-miterlimit:4;stroke-opacity:1;stroke-dasharray:none"
         id="path17544"
         inkscape:connector-curvature="0" />
      <path
         d="m 1178.4566,616.91084 -60.595,-82.927 54.518,40.203 4.275,-26.399 58.97,42.241 3.694,-27.456 83.693,46.854 -17.954,51.707 -49.594,-48.449 -7.171,35.159 -61.381,-59.232 -8.455,28.299 z m -82.07,-103.898 84.142,122.785 9.979,-34.168 61.374,65.658 7.765,-40.807 49.473,56.04 23.135,-77.125 -98.6,-53.639 -2.08,28.283 -58.134,-39.982 -4.285,23.496 -72.769,-50.541 z"
         style="fill:none;stroke:#231f20;stroke-width:0.25;stroke-linecap:butt;stroke-linejoin:miter;stroke-miterlimit:4;stroke-opacity:1;stroke-dasharray:none"
         id="path17546"
         inkscape:connector-curvature="0" />
      <path
         d="m 1128.3806,599.31684 -33.186,-67.719 26.08,70.76 c 0.739,2.004 2.964,3.031 4.969,2.292 2.005,-0.739 3.031,-2.964 2.293,-4.969 -0.046,-0.124 -0.1,-0.248 -0.156,-0.364"
         style="fill:#050301;fill-opacity:1;fill-rule:nonzero;stroke:none"
         id="path17636"
         inkscape:connector-curvature="0" />
      <path
         d="m 1097.7956,582.47884 -12.13,-55.412 8.194,56.128 c 0.16,1.094 1.176,1.852 2.27,1.692 1.093,-0.16 1.85,-1.176 1.691,-2.27 -0.01,-0.045 -0.017,-0.094 -0.025,-0.138"
         style="fill:#050301;fill-opacity:1;fill-rule:nonzero;stroke:none"
         id="path17652"
         inkscape:connector-curvature="0" />
      <path
         d="m 1147.5216,495.84184 -38.194,4.662 38.471,-0.672 c 1.107,-0.019 1.988,-0.931 1.968,-2.037 -0.019,-1.106 -0.931,-1.987 -2.037,-1.968 -0.07,0.002 -0.14,0.007 -0.208,0.015"
         style="fill:#050301;fill-opacity:1;fill-rule:nonzero;stroke:none"
         id="path17654"
         inkscape:connector-curvature="0" />
      <path
         d="m 1168.2346,515.65384 -56.617,-4.15 55.863,10.102 c 1.633,0.295 3.195,-0.789 3.491,-2.422 0.295,-1.633 -0.789,-3.196 -2.422,-3.49 -0.104,-0.02 -0.211,-0.033 -0.315,-0.04"
         style="fill:#050301;fill-opacity:1;fill-rule:nonzero;stroke:none"
         id="path17656"
         inkscape:connector-curvature="0" />
    </g>
  </g>
</svg>
