<?xml version="1.0" encoding="UTF-8" standalone="no"?>
<!-- Created with Inkscape (http://www.inkscape.org/) -->

<svg
   xmlns:dc="http://purl.org/dc/elements/1.1/"
   xmlns:cc="http://creativecommons.org/ns#"
   xmlns:rdf="http://www.w3.org/1999/02/22-rdf-syntax-ns#"
   xmlns:svg="http://www.w3.org/2000/svg"
   xmlns="http://www.w3.org/2000/svg"
   xmlns:sodipodi="http://sodipodi.sourceforge.net/DTD/sodipodi-0.dtd"
   xmlns:inkscape="http://www.inkscape.org/namespaces/inkscape"
   width="250"
   height="325.25867"
   id="svg2"
   version="1.1"
   inkscape:version="0.48.4 r9939"
   sodipodi:docname="New document 1">
  <defs
     id="defs4" />
  <sodipodi:namedview
     id="base"
     pagecolor="#888888"
     bordercolor="#666666"
     borderopacity="1.0"
     inkscape:pageopacity="1"
     inkscape:pageshadow="2"
     inkscape:zoom="0.71"
     inkscape:cx="449.86889"
     inkscape:cy="-91.076327"
     inkscape:document-units="px"
     inkscape:current-layer="layer1"
     showgrid="false"
     fit-margin-top="0"
     fit-margin-left="0"
     fit-margin-right="0"
     fit-margin-bottom="0"
     inkscape:window-width="1301"
     inkscape:window-height="744"
     inkscape:window-x="65"
     inkscape:window-y="24"
     inkscape:window-maximized="1" />
  <metadata
     id="metadata7">
    <rdf:RDF>
      <cc:Work
         rdf:about="">
        <dc:format>image/svg+xml</dc:format>
        <dc:type
           rdf:resource="http://purl.org/dc/dcmitype/StillImage" />
        <dc:title></dc:title>
      </cc:Work>
    </rdf:RDF>
  </metadata>
  <g
     inkscape:label="Layer 1"
     inkscape:groupmode="layer"
     id="layer1"
     transform="translate(527.23905,-116.02718)">
    <g
       id="g3576"
       transform="matrix(1.5332768,0,0,1.5332768,-1928.2757,-423.56498)">
      <path
         inkscape:connector-curvature="0"
         d="m 989.35216,424.86007 c 3.7175,-0.14125 4.42875,-3.825 4.25,-8.53125 -0.175,-4.70375 -1.15875,-8.325 -4.87875,-8.18375 -3.7175,0.13875 -4.4275,3.82375 -4.25125,8.5275 0.17625,4.70375 1.1625,8.32625 4.88,8.1875"
         style="fill:#3d464c;fill-opacity:1;fill-rule:nonzero;stroke:none"
         id="path3243" />
      <path
         inkscape:connector-curvature="0"
         d="m 947.19591,409.70507 c -3.7175,0.14 -4.42875,3.825 -4.2525,8.52875 0.17625,4.705 1.1625,8.32625 4.88,8.1875 3.71625,-0.14125 4.42875,-3.82625 4.25375,-8.53 -0.17875,-4.70375 -1.165,-8.325 -4.88125,-8.18625"
         style="fill:#3d464c;fill-opacity:1;fill-rule:nonzero;stroke:none"
         id="path3245" />
      <path
         inkscape:connector-curvature="0"
         d="m 985.74591,441.73444 c -0.0987,-0.84475 -0.8625,-1.44774 -1.70875,-1.35499 -9.8075,1.06937 -19.6775,1.44049 -29.53625,1.11087 -0.85,-0.0293 -1.5675,0.62987 -1.60375,1.4785 -0.035,0.84913 0.6375,1.566 1.49875,1.59625 10.0075,0.335 20.0225,-0.0415 29.97625,-1.1265 0.85875,-0.0953 1.47375,-0.86175 1.37375,-1.70413"
         style="fill:#3d464c;fill-opacity:1;fill-rule:nonzero;stroke:none"
         id="path3247" />
      <path
         inkscape:connector-curvature="0"
         d="m 1075.0972,451.15932 -34.6363,47.70012 c -2.4887,-1.67187 -5.7762,-3.07812 -9.8062,-3.07812 -0.7375,0 -1.4913,0.0499 -2.235,0.146 -0.1438,0.0171 -0.2813,0.0733 -0.3963,0.16025 -0.016,0.0131 -0.068,0.0526 -0.1362,0.10837 -0.4588,-0.188 -0.9375,-0.34037 -1.44,-0.44437 -0.8775,-0.18163 -1.9563,-0.46 -2.94,-0.71775 -1.0063,-0.26613 -2.01,-0.54538 -3.0075,-0.83988 -1.9913,-0.58687 -3.955,-1.2265 -5.8275,-1.92724 -1.86,-0.69576 -3.6725,-1.4805 -5.0913,-2.26801 -1.495,-0.856 -2.6575,-2.02012 -3.7887,-3.30475 -2.6488,-3.04437 -5.1688,-6.63324 -7.57754,-10.23775 -2.4075,-3.6245 -4.74375,-7.37699 -6.95625,-11.13874 -0.3075,-0.52388 -0.755,-0.88913 -1.2725,-1.08051 -0.2925,-0.50787 -0.61625,-1.00099 -0.97875,-1.47712 21.19504,-5.5825 25.77124,-19.06638 25.33754,-30.5835 l -0.3588,-9.55 c 13.8475,-19.80375 3.8575,-51.30375 0.5963,-58.09375 -3.3063,-6.8775 -7.1588,-9.84625 -14.3075,-11.20875 -23.35504,-4.44625 -63.92379,2.56375 -75.87004,8.64875 -6.44625,3.2875 -11.00375,10.85625 -10.63,33.3875 0.28625,17.22375 6.415,26.465 9.28875,29.865 l 0.3875,10.36875 c 0.405,10.7915 5.42,23.21825 24.5925,27.88237 -0.26625,0.39213 -0.5075,0.79488 -0.73,1.2075 -0.145,0.0341 -0.2875,0.0669 -0.435,0.1025 -1.1025,0.275 -2.19625,0.59188 -3.28125,0.96338 -2.16625,0.73687 -4.30125,1.671 -6.36125,2.85262 -4.1025,2.3315 -7.99,5.81438 -10.51375,10.455 -1.26875,2.28075 -2.14125,4.8745 -2.69,7.35988 -0.29,1.38525 -0.49625,2.78075 -0.56625,4.19537 -0.0687,1.38913 -0.02,2.77725 0.12625,4.1455 0.29625,2.73925 0.98,5.376 1.93125,7.876 0.47625,1.25 1.02,2.46825 1.63625,3.666 0.69375,1.34125 1.59125,3.32375 2.75125,4.36863 0.2325,0.2065 5.7525,5.08688 15.08625,6.0415 0.0288,0.003 0.055,0.005 0.085,0.005 0.1925,0 0.38125,-0.0674 0.53125,-0.19037 0.135,-0.11138 2.27125,-1.897 4.58875,-4.82675 1.19125,0.18562 2.50625,0.26862 3.91,0.30375 -0.25625,2.26462 -0.485,4.52437 -0.7,6.79837 -0.4175,4.45551 -0.7575,8.92088 -1.02375,13.3945 -0.43625,7.333 -0.66625,14.69138 -0.69,22.06934 -5.79125,1.94678 -5.235,7.55957 -5.035,9.37647 0.025,0.23047 0.25,0.41357 0.47875,0.41357 l 17.27,0 c 0.23,0 0.44375,-0.18555 0.465,-0.4165 0.12625,-1.33301 0.54375,-5.44288 -2.12,-7.97607 -0.85125,-7.76081 -1.46625,-15.57331 -1.8375,-23.40918 -0.2075,-4.38375 -0.345,-8.773 -0.405,-13.1655 -0.03,-2.3535 -0.04,-4.71925 -0.0225,-7.07763 l 16.83625,0 c 0.085,0 0.16875,0 0.25375,0.001 0.0162,2.357 0.007,4.72275 -0.0225,7.07625 -0.0613,4.3925 -0.19625,8.78175 -0.40375,13.1655 -0.36125,7.59525 -0.95,15.166 -1.76,22.69286 -2.465,2.38135 -2.86125,7.19336 -2.71875,8.69239 0.02,0.23095 0.235,0.4165 0.46625,0.4165 l 26.71375,0 c 0.23254,0 0.45374,-0.1831 0.47874,-0.41357 0.2075,-1.87793 -0.69124,-8.66504 -13.95874,-9.93213 -0.0325,-7.19092 -0.265,-14.3638 -0.69,-21.51368 -0.26875,-4.47362 -0.6075,-8.93899 -1.025,-13.3945 -0.215,-2.27937 -0.44625,-4.54499 -0.70375,-6.8165 5.965,-0.21237 10.1425,-1.46624 10.1425,-8.0395 l -1.3675,-21.11962 c 1.37375,3.2315 2.85125,6.45025 4.6875,9.71725 0.6075,1.05912 1.255,2.126 2.04875,3.232 2.32874,3.33738 5.70504,5.84225 9.03254,8.10937 2.0312,1.36713 4.0675,2.60838 6.1237,3.78763 1.0275,0.58837 2.06,1.15962 3.1025,1.71875 0.755,0.40175 1.47,0.78262 2.2488,1.17187 -0.071,0.28313 -0.1488,0.55175 -0.2163,0.84375 -0.041,0.17675 -0.024,0.36513 0.053,0.53076 0.091,0.2065 1.7425,3.72462 6.855,6.14012 -0.19,0.71925 0.07,1.50675 0.7213,1.96187 l 0.5137,0.35988 c 0.85,0.59475 2.0075,0.376 2.5813,-0.48925 l 0.2712,-0.39938 c 1.1475,0.28213 2.4075,0.50675 3.7863,0.64738 0.03,0.004 0.056,0.005 0.086,0.005 0.105,0 0.21,-0.0224 0.31,-0.0625 0.034,-0.0136 0.062,-0.039 0.095,-0.0585 0.053,-0.0294 0.1075,-0.0527 0.1537,-0.0929 8.5438,-7.67575 10.8563,-14.59713 10.9525,-14.88763 0.027,-0.12212 0.041,-0.2075 0.036,-0.29299 0,-0.105 -0.027,-0.18801 -0.059,-0.26513 -0.01,-0.0269 -0.023,-0.0498 -0.034,-0.0743 -0.014,-0.0259 -0.023,-0.0551 -0.037,-0.0791 -0.094,-0.14301 -1.0587,-1.60688 -2.835,-3.28513 l 33.1163,-49.04438 c 0.9637,-2.10699 0.4175,-2.49275 -1.23,-0.85937 z m -149.21004,-15.65675 -1.2175,-32.42625 c 0.36875,-12.105 1.07875,-18.5925 1.07875,-18.5925 0,0 3.2075,3.205 12.94125,3.3125 20.82625,0.23125 65.84504,-12.7975 65.84504,-12.7975 2.7612,6.16875 4.6662,13.305 5.98,20.1725 l 1.3937,37.09625 c 0.7225,19.20563 -13.25249,29.49625 -41.53499,30.5885 -28.345,1.10012 -43.7725,-8.39938 -44.48625,-27.3535 z m 9.7325,47.561 c 0.925,-3.082 2.97125,-6.01562 5.7875,-8.45213 1.22375,-1.0655 2.58625,-2.03612 4.03125,-2.91012 -0.025,0.4345 -0.0412,0.8715 -0.0412,1.3125 l -1.475,22.78313 c -1.1925,-0.40276 -3.2,-0.85201 -6.2375,-0.85201 -0.65,-0.92774 -1.19125,-1.8945 -1.61875,-2.88474 -0.59625,-1.38038 -0.8425,-2.75638 -1.10875,-4.22126 -0.0312,-1.69287 0.1975,-3.21387 0.6625,-4.77537 z m 9.19125,31.94487 c -7.24625,-0.8325 -12.0675,-4.2285 -13.405,-5.27587 1.77625,-7.17287 5.4125,-11.95175 6.36375,-13.11525 3.565,0.0108 5.50125,0.67475 6.245,1.00725 l 0,2.6695 -0.49875,-0.004 c -0.3775,0 -0.705,0.24412 -0.81,0.60049 -0.105,0.35938 0.04,0.74376 0.3575,0.94238 2.8875,1.82375 7.00375,3.66463 8.76375,4.42387 -2.5,4.57763 -6.0375,7.88238 -7.01625,8.7515 z m 82.73879,1.63326 c -3.9938,-1.83351 -5.6513,-4.36763 -6.0888,-5.15625 2.1675,-9.04438 6.52,-13.16651 7.4075,-13.92826 0.5975,-0.0684 1.1963,-0.10399 1.7863,-0.10399 3.575,0 6.5337,1.2745 8.8012,2.79099 l -2.0312,2.79738 c -0.091,-0.10587 -0.1775,-0.21725 -0.27,-0.32325 -0.5438,-0.63125 -1.1088,-1.24012 -1.6875,-1.8335 -0.5688,-0.602 -1.1613,-1.1855 -2.025,-1.52338 0.2225,0.897 0.6925,1.56588 1.1737,2.23001 l 1.3975,2.01074 c 0.4588,0.66888 0.9113,1.34026 1.3375,2.00776 0.2063,0.33737 0.4188,0.669 0.5975,0.99762 0.085,0.14987 0.1688,0.32462 0.2338,0.475 -0.2388,0.21687 -0.4875,0.43175 -0.74,0.63438 -0.3875,0.30762 -0.7875,0.59562 -1.1975,0.85349 -0.67,0.41988 -1.3925,0.75775 -2.0613,0.88863 -0.8475,-1.24613 -1.7162,-2.48775 -2.58,-3.728 -0.4737,-0.69338 -0.955,-1.38187 -1.4087,-2.086 -0.455,-0.708 -0.9263,-1.38325 -1.565,-2.04 -0.035,0.92875 0.2637,1.771 0.6125,2.55475 0.355,0.7875 0.7337,1.5615 1.1425,2.31687 0.6325,1.17425 1.3312,2.30126 2.075,3.40475 l -4.91,6.76026 z m 6.9362,1.68212 c -0.755,-0.40037 -2.2112,-1.2905 -2.8275,-2.478 0.089,-0.68263 0.5438,-3.01513 2.6863,-4.61575 0.051,-0.04 0.095,-0.085 0.1362,-0.13525 1.0138,-0.19037 1.87,-0.63138 2.6513,-1.10738 0.4737,-0.29637 0.9212,-0.62262 1.3512,-0.96287 0.4313,-0.34675 0.8325,-0.691 1.2475,-1.09863 0.1763,-0.17487 0.2675,-0.41412 0.2388,-0.66649 -0.098,-0.71925 -0.335,-1.05475 -0.5463,-1.46975 -0.1325,-0.23301 -0.2787,-0.43951 -0.4175,-0.65575 0.4875,-0.54063 1.1038,-1.10113 1.825,-1.51125 l 3.4488,1.60637 c -0.7825,1.86037 -3.4288,7.251 -9.7938,13.09475"
         style="fill:#3d464c;fill-opacity:1;fill-rule:nonzero;stroke:none"
         id="path3249" />
    </g>
    <path
       style="fill:#ffffff"
       d="M 51.29287,164.84714 C 24.041994,155.93681 19.381904,145.30664 19.381904,92.054777 l 0,-39.892322 8.406361,2.410913 c 10.699635,3.068614 41.506919,-0.783837 79.515575,-9.943424 16.32308,-3.933651 30.16847,-7.152093 30.76752,-7.152093 0.59904,0 3.06755,6.661931 5.48557,14.804289 2.9479,9.926644 4.3964,26.744131 4.3964,51.04326 0,41.30401 -2.12193,46.43128 -23.79067,57.48585 -15.2418,7.77578 -54.741247,9.96346 -72.86979,4.03589 z m 58.84927,-26.77027 c 0.94879,-2.86392 -4.36824,-3.50156 -23.824573,-2.85714 -17.31356,0.57344 -25.423017,1.96774 -26.267323,4.51625 -0.948797,2.86392 4.368234,3.50156 23.824569,2.85714 17.313557,-0.57345 25.423017,-1.96774 26.267327,-4.51625 z M 58.812087,102.94759 C 60.123073,87.308123 46.74749,80.597877 45.061633,96.04928 c -1.611315,14.76821 -0.1008,18.98809 6.463128,18.05586 5.100666,-0.72441 6.605957,-3.02915 7.287326,-11.15755 z m 63.996813,2.3874 c 1.89416,-12.588424 -0.88084,-19.647196 -7.36042,-18.722704 -6.20938,0.88594 -9.6956,12.43874 -6.36931,21.106914 2.5473,6.63817 12.63576,4.88628 13.72973,-2.38421 z"
       id="path3000"
       inkscape:connector-curvature="0"
       transform="translate(-527.23905,116.02718)" />
    <path
       style="fill:#ffffff"
       d="m 40.305776,247.70246 c -2.548443,-0.73492 -6.488104,-2.46405 -8.754802,-3.84251 l -4.121269,-2.5063 4.037284,-8.53683 c 4.591142,-9.70797 5.911782,-10.89685 10.754376,-9.68143 2.756865,0.69192 3.296776,1.51867 2.656852,4.06833 -0.678841,2.70472 0.192734,3.6973 5.631748,6.41368 6.825827,3.40898 6.825579,3.40637 1.052114,11.09788 -3.680448,4.90315 -4.165808,5.03195 -11.256303,2.98718 z"
       id="path3002"
       inkscape:connector-curvature="0"
       transform="translate(-527.23905,116.02718)" />
    <path
       style="fill:#ffffff"
       d="m 168.66611,247.74567 c -2.4935,-2.49349 -2.74087,-3.65491 -1.58241,-7.42951 2.4033,-7.83067 8.58205,-15.62764 12.77197,-16.11697 2.79719,-0.32668 3.81603,0.17934 3.81603,1.89525 0,1.28751 1.3493,4.23584 2.99845,6.55185 2.69569,3.78575 2.78015,4.42923 0.83644,6.37293 -1.94371,1.94371 -2.54978,1.57603 -6.00251,-3.64139 -2.11228,-3.19187 -4.3744,-5.8034 -5.02693,-5.8034 -1.19053,0 0.28077,4.83578 3.03983,9.99113 1.15577,2.15957 0.82856,3.6695 -1.50554,6.94744 -3.53277,4.96131 -5.37385,5.20415 -9.34533,1.23267 l 0,0 z"
       id="path3004"
       inkscape:connector-curvature="0"
       transform="translate(-527.23905,116.02718)" />
    <path
       style="fill:#ffffff"
       d="m 182.75246,251.35296 c -0.94564,-2.46429 2.8287,-7.21619 6.71019,-8.44812 1.43139,-0.45431 2.54686,-1.26274 2.47882,-1.79652 -0.3923,-3.07748 2.22659,-7.38857 4.23628,-6.97357 3.48625,0.71991 1.97991,5.13264 -4.32114,12.65856 -5.98082,7.14342 -7.769,8.039 -9.10415,4.55965 l 0,0 z"
       id="path3006"
       inkscape:connector-curvature="0"
       transform="translate(-527.23905,116.02718)" />
    <path
       style="fill:#ffffff"
       d=""
       id="path3008"
       inkscape:connector-curvature="0"
       transform="translate(-527.23905,116.02718)" />
    <path
       style="fill:#ffffff"
       d=""
       id="path3010"
       inkscape:connector-curvature="0"
       transform="translate(-527.23905,116.02718)" />
    <path
       style="fill:#ffffff"
       d="m 180.75522,233.64904 c -3.42078,-3.68985 -4.5694,-5.8845 -3.59155,-6.86235 2.66315,-2.66315 4.79953,-1.46762 7.85593,4.39622 4.097,7.86026 1.9093,9.12542 -4.26438,2.46613 z"
       id="path3012"
       inkscape:connector-curvature="0"
       transform="translate(-527.23905,116.02718)" />
    <path
       style="fill:#000000"
       d=""
       id="path3014"
       inkscape:connector-curvature="0"
       transform="translate(-527.23905,116.02718)" />
    <path
       style="fill:#000000"
       d="m 51.277337,320.35225 c 0,-2.07276 1.576735,-5.04965 3.73308,-7.04809 3.683049,-3.41332 3.747996,-3.80411 4.846003,-29.1581 0.612107,-14.13411 1.526905,-28.70895 2.032887,-32.38853 l 0.919968,-6.69014 -4.519504,0 c -4.479869,0 -4.499557,-0.0304 -2.244843,-3.47158 3.231112,-4.93129 2.989758,-5.47884 -3.887853,-8.82025 -5.351368,-2.59989 -6.071311,-3.47109 -5.46961,-6.61868 0.469934,-2.45829 0.07353,-3.63165 -1.231851,-3.64627 -1.376462,-0.0155 -1.456559,-0.31942 -0.281176,-1.06717 1.442752,-0.91783 4.978854,-36.62669 3.782016,-38.19218 -0.74814,-0.97859 -10.348924,6.97611 -12.640138,10.47296 -6.458765,9.85732 -4.784829,24.50014 2.990897,26.16299 4.217066,0.90183 4.217704,0.90349 0.409777,1.06988 -2.920204,0.12761 -4.630272,1.56926 -7.298015,6.15255 -1.916282,3.29226 -3.91462,7.73486 -4.440751,9.87247 -1.545197,6.27791 -3.121917,5.82824 -7.271577,-2.07386 -3.42923,-6.53019 -3.912012,-9.00631 -3.923383,-20.12255 -0.01155,-11.29718 0.407271,-13.39093 3.850345,-19.24795 5.141483,-8.74619 13.009022,-15.22563 23.508391,-19.3607 4.744459,-1.86855 8.436716,-3.96608 8.205017,-4.66118 -0.2317,-0.6951 -4.06563,-2.745 -8.519844,-4.55533 C 24.230113,158.9957 17.522671,148.85194 15.38079,123.94063 14.696155,115.97794 13.274613,110.94994 9.6068215,103.51809 2.4954301,89.108669 0.11645788,75.980698 1.0565822,56.334994 2.4662206,26.877894 7.4939965,18.499576 27.511623,12.250141 51.669296,4.7081991 75.312728,1.3957499 104.76151,1.4274179 c 27.46777,0.029538 35.50916,1.937459 43.02514,10.2082471 10.0659,11.076798 17.36177,40.161697 15.62902,62.304963 -0.95166,12.161565 -3.36983,21.60079 -7.45007,29.081022 -2.00257,3.67131 -2.58177,7.86127 -2.60335,18.8333 -0.0248,12.60336 -0.454,14.9827 -4.01603,22.26321 -4.82436,9.86064 -14.2419,17.81509 -26.29499,22.20986 -8.05439,2.93678 -9.82759,4.44744 -7.15742,6.09769 0.67991,0.42021 6.00551,7.90481 11.83467,16.63242 5.82917,8.72762 12.48686,17.65833 14.79486,19.84599 5.20719,4.93571 25.26319,12.09504 34.81033,12.42617 5.0931,0.17665 5.78477,0.40076 2.49898,0.80976 -5.15717,0.64192 -9.22496,5.43725 -12.96079,15.27894 l -2.35128,6.1942 -11.01937,-6.45048 c -14.16459,-8.29163 -21.57112,-15.81988 -27.21149,-27.6587 -2.49119,-5.22888 -4.93376,-9.50704 -5.42795,-9.50704 -0.49418,0 -0.49661,3.96126 -0.005,8.80281 1.63787,16.14355 1.43971,28.92258 -0.48443,31.24103 -1.00272,1.2082 -4.36461,2.95817 -7.47088,3.88883 l -5.64776,1.69211 0.88497,9.93409 c 0.48673,5.46375 1.29973,19.8767 1.80665,32.0288 l 0.92169,22.09472 6.75211,1.6198 c 7.13977,1.71282 13.94026,6.81626 13.94026,10.46154 0,1.86751 -2.93073,2.17993 -20.44937,2.17993 l -20.449371,0 0.925893,-3.87324 c 0.509242,-2.13028 1.4998,-4.99264 2.201239,-6.36078 1.370779,-2.67367 3.247527,-23.59091 4.610458,-51.3857 l 0.846035,-17.25352 -14.124134,0 -14.124133,0 -0.0092,11.61972 c -0.0151,19.27163 3.095194,55.00348 5.14307,59.08498 3.852059,7.67723 3.162048,8.16854 -11.471944,8.16854 l -13.380281,0 0,-3.58838 z m 52.910343,-151.413 c 22.91105,-4.05804 35.89957,-11.672 42.36195,-24.83286 l 4.02348,-8.19393 -0.40976,-30.98592 c -0.43701,-33.047382 -1.47662,-43.089292 -5.92877,-57.268319 -4.36902,-13.914223 -2.9546,-13.372473 -22.01145,-8.430833 -17.42373,4.518155 -52.767014,11.972044 -64.168197,13.533057 -12.502551,1.711808 -28.474958,1.145527 -34.111,-1.209362 -2.972736,-1.242089 -5.581948,-2.258342 -5.798251,-2.258342 -1.51819,0 -2.067503,36.580933 -0.898868,59.859159 1.596537,31.80167 3.069578,37.33433 12.336148,46.33391 10.325394,10.0279 26.107916,14.64532 50.661052,14.82172 8.572517,0.0615 19.347165,-0.55414 23.943666,-1.36828 z"
       id="path3016"
       inkscape:connector-curvature="0"
       transform="translate(-527.23905,116.02718)" />
    <path
       style="fill:#000000"
       d="m 111.88656,109.20713 c -2.93999,-3.54247 -3.3892,-12.557356 -0.8686,-17.431647 4.50072,-8.703431 10.68191,-3.62645 10.68191,8.773687 0,8.52113 -5.73073,13.57717 -9.81331,8.65796 z"
       id="path3018"
       inkscape:connector-curvature="0"
       transform="translate(-527.23905,116.02718)" />
    <path
       style="fill:#000000"
       d="m 47.146715,110.03313 c -1.917235,-3.58239 -1.943653,-13.623674 -0.04518,-17.171011 0.826063,-1.543512 2.938183,-2.724308 4.87304,-2.724308 4.53251,0 7.303628,8.38197 5.420076,16.394429 -1.042304,4.43386 -1.966587,5.51707 -5.011388,5.87308 -2.583988,0.30213 -4.196151,-0.42819 -5.236552,-2.37219 z"
       id="path3020"
       inkscape:connector-curvature="0"
       transform="translate(-527.23905,116.02718)" />
    <path
       style="fill:#000000"
       d="m 61.840717,139.72366 c 0.774648,-0.7363 11.842097,-1.74417 24.594331,-2.23971 18.665322,-0.72533 22.839842,-0.55445 21.411082,0.87643 -1.24111,1.24296 -8.636643,1.91644 -24.59433,2.23971 -14.453283,0.2928 -22.303158,-0.0285 -21.411083,-0.87643 z"
       id="path3022"
       inkscape:connector-curvature="0"
       transform="translate(-527.23905,116.02718)" />
    <path
       style="fill:#000000"
       d="m 190.36729,236.78954 c -0.52501,-1.97111 -0.0558,-4.62421 1.14081,-6.45046 1.11795,-1.7062 1.60788,-3.52695 1.08873,-4.04609 -0.51915,-0.51915 -0.046,-0.97577 1.0514,-1.01471 1.09742,-0.0389 9.51423,-10.53058 18.70403,-23.31475 9.18979,-12.78418 17.00942,-22.94325 17.37695,-22.57573 0.36752,0.36753 -6.67804,11.59931 -15.65681,24.95953 -14.78145,21.99447 -16.12486,24.51249 -14.20794,26.63066 2.958,3.26856 2.80537,6.52817 -0.16653,3.55627 -3.1112,-3.1112 -6.5709,-2.15902 -7.5933,2.08982 l -0.84552,3.51373 -0.89182,-3.34827 z"
       id="path3024"
       inkscape:connector-curvature="0"
       transform="translate(-527.23905,116.02718)" />
  </g>
</svg>
