<?xml version="1.0" encoding="UTF-8" standalone="no"?>
<!-- Created with Inkscape (http://www.inkscape.org/) -->

<svg
   xmlns:dc="http://purl.org/dc/elements/1.1/"
   xmlns:cc="http://creativecommons.org/ns#"
   xmlns:rdf="http://www.w3.org/1999/02/22-rdf-syntax-ns#"
   xmlns:svg="http://www.w3.org/2000/svg"
   xmlns="http://www.w3.org/2000/svg"
   xmlns:sodipodi="http://sodipodi.sourceforge.net/DTD/sodipodi-0.dtd"
   xmlns:inkscape="http://www.inkscape.org/namespaces/inkscape"
   width="250"
   height="257.01303"
   id="svg2"
   version="1.1"
   inkscape:version="0.48.4 r9939"
   sodipodi:docname="New document 1">
  <defs
     id="defs4" />
  <sodipodi:namedview
     id="base"
     pagecolor="#ffffff"
     bordercolor="#666666"
     borderopacity="1.0"
     inkscape:pageopacity="0.0"
     inkscape:pageshadow="2"
     inkscape:zoom="0.35"
     inkscape:cx="201.13462"
     inkscape:cy="-20.261044"
     inkscape:document-units="px"
     inkscape:current-layer="layer1"
     showgrid="false"
     fit-margin-top="0"
     fit-margin-left="0"
     fit-margin-right="0"
     fit-margin-bottom="0"
     inkscape:window-width="1615"
     inkscape:window-height="1026"
     inkscape:window-x="1431"
     inkscape:window-y="24"
     inkscape:window-maximized="1" />
  <metadata
     id="metadata7">
    <rdf:RDF>
      <cc:Work
         rdf:about="">
        <dc:format>image/svg+xml</dc:format>
        <dc:type
           rdf:resource="http://purl.org/dc/dcmitype/StillImage" />
        <dc:title></dc:title>
      </cc:Work>
    </rdf:RDF>
  </metadata>
  <g
     inkscape:label="Layer 1"
     inkscape:groupmode="layer"
     id="layer1"
     transform="translate(-173.86538,-255.08811)">
    <g
       id="g27729"
       transform="matrix(2.0144868,0,0,-2.0144868,-969.34141,2541.249)">
      <path
         d="m 576.329,1019.59 19.2109,0 0,19.2121 -19.2109,0 0,-19.2121 z"
         style="fill:#ffffff;fill-opacity:1;fill-rule:nonzero;stroke:none"
         id="path6326"
         inkscape:connector-curvature="0" />
      <path
         d="m 614.75,1019.59 19.2109,0 0,19.2121 -19.2109,0 0,-19.2121 z"
         style="fill:#ffffff;fill-opacity:1;fill-rule:nonzero;stroke:none"
         id="path6330"
         inkscape:connector-curvature="0" />
      <path
         d="m 653.172,1019.59 19.2113,0 0,19.2121 -19.2113,0 0,-19.2121 z"
         style="fill:#ffffff;fill-opacity:1;fill-rule:nonzero;stroke:none"
         id="path6334"
         inkscape:connector-curvature="0" />
      <path
         d="m 595.54,1038.81 19.2102,0 0,19.2109 -19.2102,0 0,-19.2109 z"
         style="fill:#ffffff;fill-opacity:1;fill-rule:nonzero;stroke:none"
         id="path6448"
         inkscape:connector-curvature="0" />
      <path
         d="m 633.961,1038.81 19.2109,0 0,19.2109 -19.2109,0 0,-19.2109 z"
         style="fill:#ffffff;fill-opacity:1;fill-rule:nonzero;stroke:none"
         id="path6452"
         inkscape:connector-curvature="0" />
      <path
         d="m 672.383,1038.81 19.2109,0 0,19.2109 -19.2109,0 0,-19.2109 z"
         style="fill:#ffffff;fill-opacity:1;fill-rule:nonzero;stroke:none"
         id="path6456"
         inkscape:connector-curvature="0" />
      <path
         d="m 576.329,1058.02 19.2109,0 0,19.2102 -19.2109,0 0,-19.2102 z"
         style="fill:#ffffff;fill-opacity:1;fill-rule:nonzero;stroke:none"
         id="path6562"
         inkscape:connector-curvature="0" />
      <path
         d="m 614.75,1058.02 19.2109,0 0,19.2102 -19.2109,0 0,-19.2102 z"
         style="fill:#ffffff;fill-opacity:1;fill-rule:nonzero;stroke:none"
         id="path6566"
         inkscape:connector-curvature="0" />
      <path
         d="m 653.172,1058.02 19.2113,0 0,19.2102 -19.2113,0 0,-19.2102 z"
         style="fill:#ffffff;fill-opacity:1;fill-rule:nonzero;stroke:none"
         id="path6570"
         inkscape:connector-curvature="0" />
      <path
         d="m 595.54,1077.23 19.2102,0 0,19.2117 -19.2102,0 0,-19.2117 z"
         style="fill:#ffffff;fill-opacity:1;fill-rule:nonzero;stroke:none"
         id="path6684"
         inkscape:connector-curvature="0" />
      <path
         d="m 633.961,1077.23 19.2109,0 0,19.2117 -19.2109,0 0,-19.2117 z"
         style="fill:#ffffff;fill-opacity:1;fill-rule:nonzero;stroke:none"
         id="path6688"
         inkscape:connector-curvature="0" />
      <path
         d="m 672.383,1077.23 19.2109,0 0,19.2117 -19.2109,0 0,-19.2117 z"
         style="fill:#ffffff;fill-opacity:1;fill-rule:nonzero;stroke:none"
         id="path6692"
         inkscape:connector-curvature="0" />
      <path
         d="m 576.329,1096.44 19.2109,0 0,19.2109 -19.2109,0 0,-19.2109 z"
         style="fill:#ffffff;fill-opacity:1;fill-rule:nonzero;stroke:none"
         id="path6798"
         inkscape:connector-curvature="0" />
      <path
         d="m 614.75,1096.44 19.2109,0 0,19.2109 -19.2109,0 0,-19.2109 z"
         style="fill:#ffffff;fill-opacity:1;fill-rule:nonzero;stroke:none"
         id="path6802"
         inkscape:connector-curvature="0" />
      <path
         d="m 653.172,1096.44 19.2113,0 0,19.2109 -19.2113,0 0,-19.2109 z"
         style="fill:#ffffff;fill-opacity:1;fill-rule:nonzero;stroke:none"
         id="path6806"
         inkscape:connector-curvature="0" />
      <path
         d="m 595.54,1115.65 19.2102,0 0,19.2102 -19.2102,0 0,-19.2102 z"
         style="fill:#ffffff;fill-opacity:1;fill-rule:nonzero;stroke:none"
         id="path6920"
         inkscape:connector-curvature="0" />
      <path
         d="m 633.961,1115.65 19.2109,0 0,19.2102 -19.2109,0 0,-19.2102 z"
         style="fill:#ffffff;fill-opacity:1;fill-rule:nonzero;stroke:none"
         id="path6924"
         inkscape:connector-curvature="0" />
      <path
         d="m 672.383,1115.65 19.2109,0 0,19.2102 -19.2109,0 0,-19.2102 z"
         style="fill:#ffffff;fill-opacity:1;fill-rule:nonzero;stroke:none"
         id="path6928"
         inkscape:connector-curvature="0" />
      <path
         d="m 651.849,1101.26 c 0.686,-0.17 0.809,-0.66 0.623,-1.11 -0.441,-1.07 -2.201,-0.45 -1.632,0.71 0.184,0.37 0.502,0.53 1.009,0.4"
         style="fill:#050301;fill-opacity:1;fill-rule:evenodd;stroke:none"
         id="path7162"
         inkscape:connector-curvature="0" />
      <path
         d="m 642.704,1105.39 c -0.014,-0.32 -0.266,-0.81 -0.536,-0.91 -0.367,-0.11 -0.998,0.27 -1.051,0.61 -0.043,1.09 1.33,1.14 1.587,0.3"
         style="fill:#050301;fill-opacity:1;fill-rule:evenodd;stroke:none"
         id="path7164"
         inkscape:connector-curvature="0" />
      <path
         d="m 662.16,1095.84 c -0.016,-0.32 -0.269,-0.81 -0.535,-0.91 -0.368,-0.1 -1,0.27 -1.054,0.61 -0.045,1.09 1.332,1.14 1.589,0.3"
         style="fill:#050301;fill-opacity:1;fill-rule:evenodd;stroke:none"
         id="path7166"
         inkscape:connector-curvature="0" />
      <path
         d="m 647.608,1092.8 c 2.833,-1.02 1.024,-5.45 -1.741,-4.1 -2.41,1.19 -0.942,5.07 1.741,4.1"
         style="fill:#050301;fill-opacity:1;fill-rule:evenodd;stroke:none"
         id="path7168"
         inkscape:connector-curvature="0" />
      <path
         d="m 637.592,1097.54 c 2.29,-0.65 1.896,-4.03 -0.403,-4.12 -3.079,-0.13 -2.772,5.01 0.403,4.12"
         style="fill:#050301;fill-opacity:1;fill-rule:evenodd;stroke:none"
         id="path7170"
         inkscape:connector-curvature="0" />
      <path
         d="m 656.974,1088.03 c 3.707,-0.86 0.629,-6.1 -2.001,-3.52 -1.092,1.07 -0.342,4.06 2.001,3.52"
         style="fill:#050301;fill-opacity:1;fill-rule:evenodd;stroke:none"
         id="path7172"
         inkscape:connector-curvature="0" />
      <path
         d="m 666.958,1082.86 c 2.55,-0.86 0.738,-4.33 -1.313,-3.41 -1.979,0.89 -0.941,4.17 1.313,3.41"
         style="fill:#050301;fill-opacity:1;fill-rule:evenodd;stroke:none"
         id="path7174"
         inkscape:connector-curvature="0" />
      <path
         d="m 627.866,1101.95 c 2.51,-0.81 0.639,-4.18 -1.314,-3.23 -1.898,0.94 -0.746,3.9 1.314,3.23"
         style="fill:#050301;fill-opacity:1;fill-rule:evenodd;stroke:none"
         id="path7176"
         inkscape:connector-curvature="0" />
      <path
         d="m 617.927,1106.29 c 0.998,-0.28 1.169,-1.03 0.881,-1.69 -0.7,-1.61 -3.135,-0.52 -2.359,1.06 0.321,0.66 0.799,0.82 1.478,0.63"
         style="fill:#050301;fill-opacity:1;fill-rule:evenodd;stroke:none"
         id="path7178"
         inkscape:connector-curvature="0" />
      <path
         d="m 676.29,1077.65 c 1.85,-0.36 1.153,-2.98 -0.38,-2.61 -1.616,0.39 -1.347,2.94 0.38,2.61"
         style="fill:#050301;fill-opacity:1;fill-rule:evenodd;stroke:none"
         id="path7180"
         inkscape:connector-curvature="0" />
      <path
         d="m 608.605,1110.05 c -0.017,-0.32 -0.268,-0.81 -0.536,-0.9 -0.367,-0.11 -1,0.26 -1.054,0.6 -0.044,1.1 1.333,1.15 1.59,0.3"
         style="fill:#050301;fill-opacity:1;fill-rule:evenodd;stroke:none"
         id="path7182"
         inkscape:connector-curvature="0" />
      <path
         d="m 643.512,1084.28 c 1.737,-0.74 2.809,-2.79 1.881,-4.8 -2.043,-4.41 -8.676,-1.16 -6.569,3.13 0.86,1.76 2.87,2.44 4.688,1.67"
         style="fill:#050301;fill-opacity:1;fill-rule:evenodd;stroke:none"
         id="path7184"
         inkscape:connector-curvature="0" />
      <path
         d="m 652.986,1079.54 c 1.969,-0.7 2.976,-2.84 2.06,-4.8 -2.068,-4.43 -8.304,-0.96 -6.458,2.99 0.817,1.75 2.569,2.45 4.398,1.81"
         style="fill:#050301;fill-opacity:1;fill-rule:evenodd;stroke:none"
         id="path7186"
         inkscape:connector-curvature="0" />
      <path
         d="m 633.206,1089.15 c 2.316,-0.68 3.394,-3.1 1.992,-5.3 -1.184,-1.85 -3.407,-1.88 -4.875,-0.94 -1.732,1.11 -1.951,3.29 -0.941,4.88 0.845,1.32 2.193,1.85 3.824,1.36"
         style="fill:#050301;fill-opacity:1;fill-rule:evenodd;stroke:none"
         id="path7188"
         inkscape:connector-curvature="0" />
      <path
         d="m 623.662,1093.57 c 1.731,-0.63 2.663,-2.54 1.839,-4.33 -1.862,-4.04 -7.51,-0.84 -5.878,2.71 0.746,1.61 2.198,2.29 4.039,1.62"
         style="fill:#050301;fill-opacity:1;fill-rule:evenodd;stroke:none"
         id="path7190"
         inkscape:connector-curvature="0" />
      <path
         d="m 662.571,1074.47 c 4.25,-1.35 1.762,-7.58 -2.088,-6.09 -1.914,0.74 -2.644,2.97 -1.661,4.69 0.825,1.46 2.262,1.87 3.749,1.4"
         style="fill:#050301;fill-opacity:1;fill-rule:evenodd;stroke:none"
         id="path7192"
         inkscape:connector-curvature="0" />
      <path
         d="m 613.468,1097.94 c 4.307,-1.17 0.796,-7.62 -2.57,-4.5 -1.714,1.58 -0.186,5.25 2.57,4.5"
         style="fill:#050301;fill-opacity:1;fill-rule:evenodd;stroke:none"
         id="path7194"
         inkscape:connector-curvature="0" />
      <path
         d="m 671.941,1069.15 c 3.561,-0.93 1.665,-5.92 -1.228,-5.07 -3.326,0.98 -1.904,5.89 1.228,5.07"
         style="fill:#050301;fill-opacity:1;fill-rule:evenodd;stroke:none"
         id="path7196"
         inkscape:connector-curvature="0" />
      <path
         d="m 603.638,1101.95 c 2.646,-0.9 0.765,-4.52 -1.386,-3.55 -2.076,0.93 -0.96,4.35 1.386,3.55"
         style="fill:#050301;fill-opacity:1;fill-rule:evenodd;stroke:none"
         id="path7198"
         inkscape:connector-curvature="0" />
      <path
         d="m 681.567,1063.44 c 2.424,-0.77 0.684,-3.94 -1.171,-3.12 -1.754,0.78 -0.879,3.77 1.171,3.12"
         style="fill:#050301;fill-opacity:1;fill-rule:evenodd;stroke:none"
         id="path7200"
         inkscape:connector-curvature="0" />
      <path
         d="m 593.665,1105.86 c 0.8,-0.29 0.818,-0.84 0.623,-1.3 -0.621,-1.47 -2.942,-0.03 -1.67,1.18 0.175,0.17 0.542,0.3 1.047,0.12"
         style="fill:#050301;fill-opacity:1;fill-rule:evenodd;stroke:none"
         id="path7202"
         inkscape:connector-curvature="0" />
      <path
         d="m 628.935,1079.9 c 2.379,-0.88 3.415,-3.5 2.321,-5.73 -2.377,-4.85 -9.965,-1.22 -7.548,3.7 1.099,2.24 3.21,2.77 5.227,2.03"
         style="fill:#050301;fill-opacity:1;fill-rule:evenodd;stroke:none"
         id="path7204"
         inkscape:connector-curvature="0" />
      <path
         d="m 638.444,1075.23 c 3.182,-0.98 4.409,-5.14 1.394,-7.44 -1.273,-0.96 -4.283,-1.36 -5.972,0.86 -1.002,1.32 -1.509,4.18 0.858,5.98 0.541,0.41 2.052,1.12 3.72,0.6"
         style="fill:#050301;fill-opacity:1;fill-rule:evenodd;stroke:none"
         id="path7206"
         inkscape:connector-curvature="0" />
      <path
         d="m 648.317,1070.39 c 2.564,-0.86 3.474,-3.32 2.644,-5.44 -1.199,-3.06 -4.318,-3.17 -6.096,-2.15 -4.505,2.61 -1.005,9.07 3.452,7.59"
         style="fill:#050301;fill-opacity:1;fill-rule:evenodd;stroke:none"
         id="path7208"
         inkscape:connector-curvature="0" />
      <path
         d="m 618.773,1084.71 c 2.987,-0.88 4.451,-4.58 1.68,-7.04 -2.404,-2.14 -7.076,-0.37 -6.824,3.35 0.05,0.73 0.42,2.09 1.57,3.01 0.534,0.43 1.934,1.16 3.574,0.68"
         style="fill:#050301;fill-opacity:1;fill-rule:evenodd;stroke:none"
         id="path7210"
         inkscape:connector-curvature="0" />
      <path
         d="m 657.754,1065.58 c 2.985,-0.89 4.452,-4.58 1.681,-7.04 -2.403,-2.14 -7.075,-0.37 -6.824,3.35 0.05,0.73 0.421,2.09 1.569,3.01 0.531,0.43 1.935,1.16 3.574,0.68"
         style="fill:#050301;fill-opacity:1;fill-rule:evenodd;stroke:none"
         id="path7212"
         inkscape:connector-curvature="0" />
      <path
         d="m 609.301,1089.08 c 2.104,-0.74 3.156,-3.11 2.136,-5.19 -2.273,-4.63 -8.904,-0.89 -6.822,3.35 0.941,1.92 2.818,2.51 4.686,1.84"
         style="fill:#050301;fill-opacity:1;fill-rule:evenodd;stroke:none"
         id="path7214"
         inkscape:connector-curvature="0" />
      <path
         d="m 667.741,1060.23 c 4.851,-1.73 1.509,-8.76 -2.808,-6.64 -3.931,1.93 -1.441,8.15 2.808,6.64"
         style="fill:#050301;fill-opacity:1;fill-rule:evenodd;stroke:none"
         id="path7216"
         inkscape:connector-curvature="0" />
      <path
         d="m 599,1093.42 c 3.731,-1.04 2.528,-6.17 -0.75,-6.12 -3.891,0.07 -3.74,5.13 -1.058,6.11 0.424,0.15 1.012,0.23 1.808,0.01"
         style="fill:#050301;fill-opacity:1;fill-rule:evenodd;stroke:none"
         id="path7218"
         inkscape:connector-curvature="0" />
      <path
         d="m 677.003,1054.51 c 3.412,-1.05 1.394,-6.27 -1.808,-4.79 -2.917,1.35 -1.137,5.69 1.808,4.79"
         style="fill:#050301;fill-opacity:1;fill-rule:evenodd;stroke:none"
         id="path7220"
         inkscape:connector-curvature="0" />
      <path
         d="m 589.173,1097.07 c 2.784,-0.96 0.687,-4.75 -1.529,-3.66 -2.136,1.05 -0.845,4.48 1.529,3.66"
         style="fill:#050301;fill-opacity:1;fill-rule:evenodd;stroke:none"
         id="path7222"
         inkscape:connector-curvature="0" />
      <path
         d="m 686.269,1048.43 c 1.017,-0.22 1.177,-0.89 0.987,-1.48 -0.536,-1.68 -3.303,-0.78 -2.211,1 0.214,0.35 0.582,0.62 1.224,0.48"
         style="fill:#050301;fill-opacity:1;fill-rule:evenodd;stroke:none"
         id="path7224"
         inkscape:connector-curvature="0" />
      <path
         d="m 579.019,1100.79 c 0.687,-0.17 0.81,-0.66 0.624,-1.11 -0.443,-1.07 -2.202,-0.45 -1.635,0.71 0.184,0.37 0.504,0.53 1.011,0.4"
         style="fill:#050301;fill-opacity:1;fill-rule:evenodd;stroke:none"
         id="path7226"
         inkscape:connector-curvature="0" />
      <path
         d="m 614.18,1075.16 c 1.551,-0.49 2.509,-1.6 2.874,-2.58 0.373,-1 0.317,-2.77 -0.547,-4.06 -0.544,-0.8 -1.419,-1.35 -2.229,-1.6 -3.416,-1.06 -7.478,2.76 -4.824,6.69 0.987,1.46 2.877,2.13 4.726,1.55"
         style="fill:#050301;fill-opacity:1;fill-rule:evenodd;stroke:none"
         id="path7228"
         inkscape:connector-curvature="0" />
      <path
         d="m 623.906,1070.39 c 1.552,-0.49 2.511,-1.61 2.878,-2.58 0.371,-1 0.316,-2.78 -0.55,-4.06 -0.543,-0.8 -1.416,-1.35 -2.23,-1.61 -3.414,-1.06 -7.475,2.76 -4.823,6.69 0.986,1.47 2.878,2.14 4.725,1.56"
         style="fill:#050301;fill-opacity:1;fill-rule:evenodd;stroke:none"
         id="path7230"
         inkscape:connector-curvature="0" />
      <path
         d="m 633.706,1065.58 c 1.55,-0.49 2.512,-1.61 2.878,-2.58 0.37,-1 0.314,-2.78 -0.551,-4.06 -0.542,-0.8 -1.414,-1.35 -2.23,-1.61 -3.414,-1.06 -7.474,2.76 -4.822,6.69 0.988,1.47 2.878,2.14 4.725,1.56"
         style="fill:#050301;fill-opacity:1;fill-rule:evenodd;stroke:none"
         id="path7232"
         inkscape:connector-curvature="0" />
      <path
         d="m 643.432,1060.81 c 1.552,-0.5 2.513,-1.61 2.878,-2.59 0.372,-0.99 0.315,-2.77 -0.549,-4.05 -0.543,-0.81 -1.418,-1.35 -2.23,-1.61 -3.415,-1.06 -7.477,2.76 -4.823,6.69 0.989,1.47 2.876,2.14 4.724,1.56"
         style="fill:#050301;fill-opacity:1;fill-rule:evenodd;stroke:none"
         id="path7234"
         inkscape:connector-curvature="0" />
      <path
         d="m 653.232,1056 c 2.543,-0.81 3.547,-3.4 2.825,-5.44 -1.968,-5.6 -9.984,-2.33 -8.191,2.76 0.849,2.41 3.189,3.36 5.366,2.68"
         style="fill:#050301;fill-opacity:1;fill-rule:evenodd;stroke:none"
         id="path7236"
         inkscape:connector-curvature="0" />
      <path
         d="m 604.416,1079.86 c 3.183,-0.98 4.409,-5.14 1.393,-7.44 -1.271,-0.96 -4.28,-1.36 -5.972,0.86 -1.004,1.32 -1.509,4.18 0.86,5.98 0.541,0.41 2.051,1.12 3.719,0.6"
         style="fill:#050301;fill-opacity:1;fill-rule:evenodd;stroke:none"
         id="path7238"
         inkscape:connector-curvature="0" />
      <path
         d="m 662.892,1050.9 c 2.334,-0.72 3.359,-3.01 2.676,-5.01 -1.799,-5.27 -9.205,-2.19 -7.612,2.47 0.174,0.52 0.888,1.6 1.43,2 0.618,0.47 1.959,1.01 3.506,0.54"
         style="fill:#050301;fill-opacity:1;fill-rule:evenodd;stroke:none"
         id="path7240"
         inkscape:connector-curvature="0" />
      <path
         d="m 594.51,1084.27 c 2.75,-0.85 4.046,-4.49 1.316,-6.68 -1.208,-0.97 -3.88,-1.24 -5.43,0.69 -1.1,1.37 -1.291,3.84 0.686,5.43 0.516,0.41 1.956,1.02 3.428,0.56"
         style="fill:#050301;fill-opacity:1;fill-rule:evenodd;stroke:none"
         id="path7242"
         inkscape:connector-curvature="0" />
      <path
         d="m 672.482,1045.11 c 1.588,-0.57 2.493,-2.34 1.726,-4 -1.739,-3.78 -6.935,-0.75 -5.44,2.49 0.683,1.48 2.021,2.11 3.714,1.51"
         style="fill:#050301;fill-opacity:1;fill-rule:evenodd;stroke:none"
         id="path7244"
         inkscape:connector-curvature="0" />
      <path
         d="m 584.394,1088.07 c 1.091,-0.3 1.754,-1.16 1.928,-1.58 0.815,-1.96 -1.528,-5.28 -4.315,-3.29 -2.308,1.65 -0.504,5.67 2.387,4.87"
         style="fill:#050301;fill-opacity:1;fill-rule:evenodd;stroke:none"
         id="path7246"
         inkscape:connector-curvature="0" />
      <path
         d="m 681.459,1038.99 c 2.057,-0.03 1.478,-3.36 -0.376,-2.97 -1.886,0.4 -1.456,3.16 0.376,2.97"
         style="fill:#050301;fill-opacity:1;fill-rule:evenodd;stroke:none"
         id="path7248"
         inkscape:connector-curvature="0" />
      <path
         d="m 574.171,1091.46 c 1.851,-0.36 1.152,-2.97 -0.379,-2.6 -1.616,0.39 -1.348,2.94 0.379,2.6"
         style="fill:#050301;fill-opacity:1;fill-rule:evenodd;stroke:none"
         id="path7250"
         inkscape:connector-curvature="0" />
      <path
         d="m 599.75,1070.17 c 2.542,-0.8 3.546,-3.39 2.826,-5.44 -1.97,-5.59 -9.987,-2.33 -8.193,2.76 0.85,2.42 3.19,3.37 5.367,2.68"
         style="fill:#050301;fill-opacity:1;fill-rule:evenodd;stroke:none"
         id="path7252"
         inkscape:connector-curvature="0" />
      <path
         d="m 609.406,1065.44 c 1.551,-0.5 2.511,-1.61 2.875,-2.59 0.374,-0.99 0.315,-2.77 -0.547,-4.05 -0.543,-0.81 -1.418,-1.36 -2.232,-1.61 -3.415,-1.06 -7.475,2.76 -4.823,6.69 0.988,1.46 2.877,2.14 4.727,1.56"
         style="fill:#050301;fill-opacity:1;fill-rule:evenodd;stroke:none"
         id="path7254"
         inkscape:connector-curvature="0" />
      <path
         d="m 619.134,1060.66 c 1.55,-0.49 2.509,-1.6 2.876,-2.58 0.37,-1 0.315,-2.78 -0.549,-4.05 -0.543,-0.81 -1.417,-1.36 -2.23,-1.61 -3.414,-1.06 -7.477,2.75 -4.824,6.69 0.988,1.46 2.88,2.13 4.727,1.55"
         style="fill:#050301;fill-opacity:1;fill-rule:evenodd;stroke:none"
         id="path7256"
         inkscape:connector-curvature="0" />
      <path
         d="m 628.933,1055.85 c 1.551,-0.49 2.511,-1.6 2.876,-2.58 0.372,-1 0.316,-2.77 -0.549,-4.06 -0.543,-0.8 -1.416,-1.35 -2.23,-1.6 -3.413,-1.06 -7.477,2.75 -4.822,6.69 0.987,1.46 2.876,2.14 4.725,1.55"
         style="fill:#050301;fill-opacity:1;fill-rule:evenodd;stroke:none"
         id="path7258"
         inkscape:connector-curvature="0" />
      <path
         d="m 638.662,1051.08 c 1.549,-0.49 2.508,-1.61 2.874,-2.58 0.373,-1 0.315,-2.78 -0.548,-4.06 -0.543,-0.8 -1.418,-1.35 -2.23,-1.61 -3.417,-1.06 -7.475,2.76 -4.824,6.69 0.989,1.47 2.878,2.14 4.728,1.56"
         style="fill:#050301;fill-opacity:1;fill-rule:evenodd;stroke:none"
         id="path7260"
         inkscape:connector-curvature="0" />
      <path
         d="m 648.352,1046.23 c 3.181,-0.98 4.408,-5.15 1.393,-7.44 -1.274,-0.96 -4.279,-1.36 -5.973,0.86 -1.002,1.32 -1.509,4.18 0.86,5.98 0.54,0.41 2.05,1.11 3.72,0.6"
         style="fill:#050301;fill-opacity:1;fill-rule:evenodd;stroke:none"
         id="path7262"
         inkscape:connector-curvature="0" />
      <path
         d="m 590.281,1074.55 c 2.091,-0.9 3.096,-3.23 2.029,-5.41 -2.351,-4.79 -9.439,-1.07 -7.296,3.49 0.131,0.28 0.473,0.89 1.037,1.38 0.708,0.62 2.274,1.38 4.23,0.54"
         style="fill:#050301;fill-opacity:1;fill-rule:evenodd;stroke:none"
         id="path7264"
         inkscape:connector-curvature="0" />
      <path
         d="m 658.047,1041.02 c 2.746,-0.85 4.043,-4.49 1.316,-6.68 -1.212,-0.97 -3.882,-1.24 -5.432,0.69 -1.098,1.37 -1.289,3.84 0.684,5.43 0.521,0.41 1.955,1.02 3.432,0.56"
         style="fill:#050301;fill-opacity:1;fill-rule:evenodd;stroke:none"
         id="path7266"
         inkscape:connector-curvature="0" />
      <path
         d="m 579.979,1078.52 c 3.963,-1.43 1.251,-7.37 -2.381,-5.58 -1.534,0.75 -2.093,2.62 -1.439,4.04 0.707,1.53 2.127,2.16 3.82,1.54"
         style="fill:#050301;fill-opacity:1;fill-rule:evenodd;stroke:none"
         id="path7268"
         inkscape:connector-curvature="0" />
      <path
         d="m 667.528,1035.2 c 3.108,-1.02 2.105,-5.63 -1.009,-5.36 -3.929,0.35 -2.816,6.61 1.009,5.36"
         style="fill:#050301;fill-opacity:1;fill-rule:evenodd;stroke:none"
         id="path7270"
         inkscape:connector-curvature="0" />
      <path
         d="m 569.757,1081.92 c 0.367,-0.13 0.688,-0.32 0.871,-0.61 0.8,-1.25 -0.765,-2.9 -2.043,-2.33 -1.842,0.82 -0.767,3.63 1.172,2.94"
         style="fill:#050301;fill-opacity:1;fill-rule:evenodd;stroke:none"
         id="path7272"
         inkscape:connector-curvature="0" />
      <path
         d="m 676.616,1029.12 c 1.848,-0.36 1.152,-2.98 -0.381,-2.61 -1.617,0.4 -1.348,2.94 0.381,2.61"
         style="fill:#050301;fill-opacity:1;fill-rule:evenodd;stroke:none"
         id="path7274"
         inkscape:connector-curvature="0" />
      <path
         d="m 604.958,1055.46 c 2.419,-0.96 3.36,-3.62 2.287,-5.81 -2.457,-5 -10.177,-1.28 -7.695,3.78 1.055,2.15 3.272,2.87 5.408,2.03"
         style="fill:#050301;fill-opacity:1;fill-rule:evenodd;stroke:none"
         id="path7276"
         inkscape:connector-curvature="0" />
      <path
         d="m 614.541,1050.75 c 2.46,-0.88 3.584,-3.44 2.466,-5.8 -0.986,-2.09 -3.548,-3.08 -5.698,-2.07 -2.271,1.07 -3.063,3.67 -2.032,5.77 1.071,2.19 3.284,2.81 5.264,2.1"
         style="fill:#050301;fill-opacity:1;fill-rule:evenodd;stroke:none"
         id="path7278"
         inkscape:connector-curvature="0" />
      <path
         d="m 595.269,1060.12 c 2.175,-0.88 3.262,-3.45 2.176,-5.66 -2.295,-4.68 -10.041,-1.37 -7.549,3.71 1.034,2.1 3.239,2.82 5.373,1.95"
         style="fill:#050301;fill-opacity:1;fill-rule:evenodd;stroke:none"
         id="path7280"
         inkscape:connector-curvature="0" />
      <path
         d="m 624.015,1046.01 c 2.475,-0.73 3.694,-3.12 3.041,-5.18 -0.809,-2.56 -3.25,-3.64 -5.258,-3 -2.514,0.79 -4.419,4.19 -2.148,6.81 1.123,1.3 2.582,1.9 4.365,1.37"
         style="fill:#050301;fill-opacity:1;fill-rule:evenodd;stroke:none"
         id="path7282"
         inkscape:connector-curvature="0" />
      <path
         d="m 633.853,1041.1 c 1.605,-0.51 2.451,-1.73 2.731,-2.51 0.712,-2.01 -0.502,-4.68 -2.635,-5.38 -3.424,-1.12 -6.924,2.76 -4.786,6.23 0.726,1.17 1.282,1.41 2.193,1.71 0.632,0.21 1.443,0.28 2.497,-0.05"
         style="fill:#050301;fill-opacity:1;fill-rule:evenodd;stroke:none"
         id="path7284"
         inkscape:connector-curvature="0" />
      <path
         d="m 585.436,1064.5 c 3.562,-1.61 2.326,-6.82 -1.176,-7.17 -2.03,-0.21 -4.007,1.65 -4.183,3.4 -0.304,3 2.775,4.93 5.359,3.77"
         style="fill:#050301;fill-opacity:1;fill-rule:evenodd;stroke:none"
         id="path7286"
         inkscape:connector-curvature="0" />
      <path
         d="m 643.437,1036.03 c 2.748,-0.85 4.046,-4.49 1.315,-6.68 -1.21,-0.97 -3.881,-1.24 -5.429,0.69 -1.098,1.37 -1.291,3.84 0.682,5.42 0.521,0.42 1.958,1.03 3.432,0.57"
         style="fill:#050301;fill-opacity:1;fill-rule:evenodd;stroke:none"
         id="path7288"
         inkscape:connector-curvature="0" />
      <path
         d="m 653.386,1030.43 c 1.567,-0.64 2.465,-2.5 1.624,-4.22 -1.838,-3.74 -7.302,-0.75 -5.698,2.71 0.759,1.63 2.385,2.21 4.074,1.51"
         style="fill:#050301;fill-opacity:1;fill-rule:evenodd;stroke:none"
         id="path7290"
         inkscape:connector-curvature="0" />
      <path
         d="m 574.956,1068.47 c 3.108,-1.02 2.103,-5.63 -1.009,-5.36 -3.928,0.35 -2.816,6.61 1.009,5.36"
         style="fill:#050301;fill-opacity:1;fill-rule:evenodd;stroke:none"
         id="path7292"
         inkscape:connector-curvature="0" />
      <path
         d="m 662.542,1024.68 c 2.786,-0.96 0.691,-4.76 -1.526,-3.67 -2.138,1.05 -0.847,4.48 1.526,3.67"
         style="fill:#050301;fill-opacity:1;fill-rule:evenodd;stroke:none"
         id="path7294"
         inkscape:connector-curvature="0" />
      <path
         d="m 671.845,1018.85 c 0.686,-0.17 0.809,-0.66 0.621,-1.12 -0.437,-1.06 -2.199,-0.44 -1.631,0.71 0.183,0.38 0.503,0.54 1.01,0.41"
         style="fill:#050301;fill-opacity:1;fill-rule:evenodd;stroke:none"
         id="path7298"
         inkscape:connector-curvature="0" />
      <path
         d="m 599.755,1045.4 c 1.242,-0.4 2.014,-1.18 2.401,-2.08 0.252,-0.58 0.557,-2.13 -0.3,-3.55 -2.437,-4.02 -9.245,-0.4 -6.467,4.08 1.053,1.69 2.733,2.08 4.366,1.55"
         style="fill:#050301;fill-opacity:1;fill-rule:evenodd;stroke:none"
         id="path7300"
         inkscape:connector-curvature="0" />
      <path
         d="m 609.409,1040.66 c 2.749,-0.85 4.045,-4.49 1.313,-6.68 -1.208,-0.97 -3.879,-1.24 -5.427,0.68 -1.1,1.38 -1.291,3.85 0.682,5.43 0.52,0.42 1.958,1.03 3.432,0.57"
         style="fill:#050301;fill-opacity:1;fill-rule:evenodd;stroke:none"
         id="path7302"
         inkscape:connector-curvature="0" />
      <path
         d="m 619.609,1035.57 c 2.398,-1.02 3.198,-4.27 0.914,-6.22 -1.281,-1.09 -3.81,-1.18 -5.246,0.51 -2.302,2.7 0.524,7.32 4.332,5.71"
         style="fill:#050301;fill-opacity:1;fill-rule:evenodd;stroke:none"
         id="path7304"
         inkscape:connector-curvature="0" />
      <path
         d="m 589.92,1049.96 c 1.23,-0.38 2.083,-1.38 2.368,-2.16 0.104,-0.28 0.115,-2.07 0.017,-2.35 -0.762,-2.15 -2.888,-2.85 -4.541,-2.27 -2.242,0.79 -3.05,3.45 -1.884,5.33 0.917,1.49 2.434,1.94 4.04,1.45"
         style="fill:#050301;fill-opacity:1;fill-rule:evenodd;stroke:none"
         id="path7306"
         inkscape:connector-curvature="0" />
      <path
         d="m 629.048,1030.57 c 1.876,-0.68 2.744,-2.85 1.879,-4.61 -1.926,-3.92 -7.888,-0.89 -6.132,2.92 0.793,1.73 2.408,2.37 4.253,1.69"
         style="fill:#050301;fill-opacity:1;fill-rule:evenodd;stroke:none"
         id="path7308"
         inkscape:connector-curvature="0" />
      <path
         d="m 579.762,1054.22 c 1.751,-0.47 2.662,-2.05 2.234,-3.53 -0.483,-1.66 -2.051,-2.64 -3.599,-2.19 -3.858,1.12 -2.206,6.69 1.365,5.72"
         style="fill:#050301;fill-opacity:1;fill-rule:evenodd;stroke:none"
         id="path7310"
         inkscape:connector-curvature="0" />
      <path
         d="m 638.454,1025.33 c 1.605,-0.53 2.469,-2.21 1.726,-3.82 -1.635,-3.56 -6.528,-0.79 -5.186,2.27 0.631,1.44 1.97,2.04 3.46,1.55"
         style="fill:#050301;fill-opacity:1;fill-rule:evenodd;stroke:none"
         id="path7312"
         inkscape:connector-curvature="0" />
      <path
         d="m 569.971,1057.94 c 2.646,-0.9 0.766,-4.51 -1.385,-3.55 -2.076,0.93 -0.961,4.35 1.385,3.55"
         style="fill:#050301;fill-opacity:1;fill-rule:evenodd;stroke:none"
         id="path7314"
         inkscape:connector-curvature="0" />
      <path
         d="m 647.79,1019.76 c 2.761,-0.67 1.312,-4.42 -0.803,-3.84 -2.301,0.62 -1.767,4.46 0.803,3.84"
         style="fill:#050301;fill-opacity:1;fill-rule:evenodd;stroke:none"
         id="path7316"
         inkscape:connector-curvature="0" />
      <path
         d="m 657.198,1014.15 c 2.037,-0.26 0.561,-3.11 -0.892,-1.82 -0.469,0.42 -0.282,1.97 0.892,1.82"
         style="fill:#050301;fill-opacity:1;fill-rule:evenodd;stroke:none"
         id="path7318"
         inkscape:connector-curvature="0" />
      <path
         d="m 604.173,1029.81 c 3.563,-0.93 1.666,-5.92 -1.227,-5.07 -3.326,0.97 -1.905,5.89 1.227,5.07"
         style="fill:#050301;fill-opacity:1;fill-rule:evenodd;stroke:none"
         id="path7322"
         inkscape:connector-curvature="0" />
      <path
         d="m 594.338,1034.55 c 1.469,-0.34 2.351,-1.81 2.047,-2.99 -0.462,-1.8 -2.522,-2.76 -4.219,-1.44 -1.776,1.38 -0.516,5.06 2.172,4.43"
         style="fill:#050301;fill-opacity:1;fill-rule:evenodd;stroke:none"
         id="path7324"
         inkscape:connector-curvature="0" />
      <path
         d="m 614.192,1024.71 c 2.962,-1.06 1.131,-5.76 -1.811,-4.42 -2.684,1.22 -1.08,5.47 1.811,4.42"
         style="fill:#050301;fill-opacity:1;fill-rule:evenodd;stroke:none"
         id="path7326"
         inkscape:connector-curvature="0" />
      <path
         d="m 584.868,1038.92 c 2.832,-1.01 1.025,-5.45 -1.743,-4.09 -2.41,1.18 -0.94,5.06 1.743,4.09"
         style="fill:#050301;fill-opacity:1;fill-rule:evenodd;stroke:none"
         id="path7328"
         inkscape:connector-curvature="0" />
      <path
         d="m 623.743,1019.58 c 2.783,-0.96 0.689,-4.75 -1.529,-3.67 -2.137,1.05 -0.845,4.48 1.529,3.67"
         style="fill:#050301;fill-opacity:1;fill-rule:evenodd;stroke:none"
         id="path7330"
         inkscape:connector-curvature="0" />
      <path
         d="m 574.819,1043.23 c 2.425,-0.77 0.685,-3.94 -1.17,-3.12 -1.755,0.77 -0.879,3.77 1.17,3.12"
         style="fill:#050301;fill-opacity:1;fill-rule:evenodd;stroke:none"
         id="path7332"
         inkscape:connector-curvature="0" />
      <path
         d="m 633.219,1014.3 c 2.202,-0.67 0.578,-3.44 -1.028,-2.65 -1.383,0.68 -0.73,3.18 1.028,2.65"
         style="fill:#050301;fill-opacity:1;fill-rule:evenodd;stroke:none"
         id="path7334"
         inkscape:connector-curvature="0" />
      <path
         d="m 642.843,1008.94 c 0.687,-0.17 0.808,-0.66 0.622,-1.11 -0.438,-1.07 -2.198,-0.45 -1.632,0.71 0.182,0.37 0.503,0.53 1.01,0.4"
         style="fill:#050301;fill-opacity:1;fill-rule:evenodd;stroke:none"
         id="path7338"
         inkscape:connector-curvature="0" />
      <path
         d="m 589.105,1023.33 c 2.039,-0.26 0.562,-3.11 -0.89,-1.81 -0.469,0.42 -0.282,1.97 0.89,1.81"
         style="fill:#050301;fill-opacity:1;fill-rule:evenodd;stroke:none"
         id="path7340"
         inkscape:connector-curvature="0" />
      <path
         d="m 598.833,1018.56 c 2.039,-0.26 0.562,-3.11 -0.891,-1.82 -0.47,0.42 -0.279,1.97 0.891,1.82"
         style="fill:#050301;fill-opacity:1;fill-rule:evenodd;stroke:none"
         id="path7342"
         inkscape:connector-curvature="0" />
      <path
         d="m 608.814,1013.57 c 0.734,-0.2 0.859,-0.74 0.661,-1.22 -0.492,-1.2 -2.285,-0.44 -1.814,0.71 0.237,0.57 0.604,0.66 1.153,0.51"
         style="fill:#050301;fill-opacity:1;fill-rule:evenodd;stroke:none"
         id="path7344"
         inkscape:connector-curvature="0" />
      <path
         d="m 579.524,1027.86 c 0.687,-0.18 0.81,-0.67 0.624,-1.12 -0.44,-1.07 -2.199,-0.45 -1.632,0.71 0.184,0.37 0.503,0.53 1.008,0.41"
         style="fill:#050301;fill-opacity:1;fill-rule:evenodd;stroke:none"
         id="path7346"
         inkscape:connector-curvature="0" />
      <path
         d="m 608.135,1073.21 c 0,0 3.783,11.64 11.233,26.35 4.16,-7.67 8.368,-16.08 11.964,-23.53 9.51,0.21 27.62,-1.02 27.62,-1.02 0,0 -11.545,-10.61 -19.486,-16.81 5.284,-10.34 14.1,-29.74 14.1,-29.74 0,0 -21.223,8.61 -33.867,14.9 -11.417,-7.81 -18.688,-12.32 -28.445,-17.68 2.441,10.49 5.057,17.85 8.097,26.18 -6.461,4.86 -20.74,17.74 -20.74,17.74 l 29.524,3.61"
         style="fill:#ffffff;fill-opacity:1;fill-rule:nonzero;stroke:none"
         id="path17626"
         inkscape:connector-curvature="0" />
      <path
         d="m 638.158,1059.87 -1.381,-1.08 0.797,-1.56 c 2.464,-4.85 4.817,-9.8 7.153,-14.74 1.561,-3.32 3.105,-6.65 4.639,-9.99 -4.012,1.67 -8.02,3.36 -12.001,5.09 -5.632,2.46 -11.251,4.97 -16.719,7.67 l -1.117,0.56 -1.029,-0.71 -10e-4,0 c -4.598,-3.14 -9.217,-6.23 -13.915,-9.17 -3.314,-2.08 -6.679,-4.07 -10.08,-6.01 0.729,2.8 1.518,5.58 2.389,8.33 1.357,4.31 2.89,8.58 4.456,12.87 l 10e-4,0 0.539,1.48 -1.259,0.95 c -1.754,1.33 -3.499,2.77 -5.228,4.21 -1.734,1.45 -3.454,2.92 -5.167,4.41 -2.234,1.93 -4.455,3.89 -6.669,5.85 l 26.303,3.06 0.46,1.4 c 0.712,2.18 1.534,4.43 2.373,6.63 0.841,2.21 1.724,4.4 2.643,6.58 1.299,3.09 2.671,6.14 4.107,9.17 3.445,-6.51 6.748,-13.12 9.965,-19.76 l 0,0 0.642,-1.26 1.319,0.05 c 4.503,0.19 9.111,0.13 13.694,0.04 3.319,-0.07 6.645,-0.18 9.97,-0.3 -2.283,-1.96 -4.577,-3.91 -6.888,-5.83 -3.291,-2.72 -6.613,-5.41 -9.996,-7.94 z m -15.159,-21.34 0,0 z m 39.559,37.83 c 0,0 -26.028,1.15 -30.26,1.21 -3.661,7.54 -12.997,26.58 -12.997,26.58 0,0 -11.922,-26.05 -12.564,-27.47 l -32.812,-6.22 c 0,0 18.773,-19.34 19.556,-20.13 -0.935,-3.35 -6.33,-30.29 -6.33,-30.29 l 33.342,18.01 37.225,-13.58 c 0,0 -6.802,14.85 -9.143,19.83 -2.106,4.46 -4.228,8.91 -6.453,13.35 2.879,2.42 20.436,18.71 20.436,18.71"
         style="fill:#050301;fill-opacity:1;fill-rule:nonzero;stroke:none"
         id="path17628"
         inkscape:connector-curvature="0" />
    </g>
  </g>
</svg>
