<?xml version="1.0" encoding="UTF-8" standalone="no"?>
<!-- Created with Inkscape (http://www.inkscape.org/) -->

<svg
   xmlns:dc="http://purl.org/dc/elements/1.1/"
   xmlns:cc="http://creativecommons.org/ns#"
   xmlns:rdf="http://www.w3.org/1999/02/22-rdf-syntax-ns#"
   xmlns:svg="http://www.w3.org/2000/svg"
   xmlns="http://www.w3.org/2000/svg"
   xmlns:sodipodi="http://sodipodi.sourceforge.net/DTD/sodipodi-0.dtd"
   xmlns:inkscape="http://www.inkscape.org/namespaces/inkscape"
   width="250"
   height="220.1727"
   id="svg2"
   version="1.1"
   inkscape:version="0.48.4 r9939"
   sodipodi:docname="drawing8.svg">
  <defs
     id="defs4" />
  <sodipodi:namedview
     id="base"
     pagecolor="#888888"
     bordercolor="#666666"
     borderopacity="1.0"
     inkscape:pageopacity="1"
     inkscape:pageshadow="2"
     inkscape:zoom="1.4897651"
     inkscape:cx="273.73774"
     inkscape:cy="75.830393"
     inkscape:document-units="px"
     inkscape:current-layer="layer1"
     showgrid="false"
     fit-margin-top="0"
     fit-margin-left="0"
     fit-margin-right="0"
     fit-margin-bottom="0"
     inkscape:window-width="1615"
     inkscape:window-height="1026"
     inkscape:window-x="1431"
     inkscape:window-y="24"
     inkscape:window-maximized="1" />
  <metadata
     id="metadata7">
    <rdf:RDF>
      <cc:Work
         rdf:about="">
        <dc:format>image/svg+xml</dc:format>
        <dc:type
           rdf:resource="http://purl.org/dc/dcmitype/StillImage" />
        <dc:title />
      </cc:Work>
    </rdf:RDF>
  </metadata>
  <g
     inkscape:label="Layer 1"
     inkscape:groupmode="layer"
     id="layer1"
     transform="translate(121.83668,168.2545)">
    <g
       id="g4157"
       transform="translate(-275.21117,-1.3424935)">
      <path
         d="m 377.16607,-63.557364 c 0.0124,-5.169991 -1.10304,-10.317055 -3.15418,-15.107183 -2.04494,-4.796324 -4.98223,-9.233238 -8.47722,-13.217778 -3.495,-3.99074 -7.53531,-7.54151 -11.88547,-10.677085 -4.35015,-3.14178 -9.01634,-5.88076 -13.86844,-8.26034 -9.71039,-4.76534 -20.13155,-8.124 -30.7758,-10.34246 -10.65973,-2.21226 -21.54875,-3.25952 -32.47,-3.27191 -10.88158,-0.006 -21.80158,1.03487 -32.45822,3.22853 -10.65046,2.20607 -21.08092,5.55234 -30.80556,10.30529 -4.85643,2.37957 -9.5313,5.11236 -13.89385,8.25414 -4.36007,3.135575 -8.40906,6.686335 -11.91954,10.677085 -3.50739,3.98454 -6.46265,8.433842 -8.52061,13.248757 -2.06353,4.808718 -3.18949,9.943388 -3.18639,15.187741 -0.052,5.142106 1.02619,10.369109 3.05254,15.196417 2.03751,4.835365 4.89671,9.371423 8.36878,13.439029 3.46216,4.078735 7.48698,7.718116 11.83094,10.94727 2.17383,1.614267 4.42699,3.131863 6.74707,4.549072 2.33124,1.397998 4.72383,2.699946 7.16351,3.91266 4.88618,2.410556 9.93657,4.528003 15.14002,6.2054782 5.19664,1.694205 10.49926,3.068036 15.86135,4.150617 10.731,2.159586 21.67827,3.153553 32.63669,3.1015 10.92868,-0.05949 21.87657,-1.164379 32.5549,-3.42931 10.67089,-2.269889 21.10631,-5.7010582 30.82289,-10.5289862 4.8521,-2.416133 9.51829,-5.187343 13.86845,-8.360725 4.35015,-3.170903 8.37807,-6.753274 11.86687,-10.771281 3.4826,-4.012454 6.40749,-8.479728 8.42765,-13.297122 2.02636,-4.822351 3.1108,-9.943388 3.07362,-15.166672 l 0,0.02727 z m 8.84283,0.06383 -0.031,1.088159 c -0.0124,0.430058 -0.031,0.856398 -0.0558,1.244937 -0.0434,0.798148 -0.11774,1.594437 -0.20449,2.388247 -0.18591,1.587621 -0.44617,3.165327 -0.787,4.719485 -0.68784,3.110174 -1.68553,6.131115 -2.94348,9.005812 -1.25795,2.875935 -2.76997,5.606866 -4.46789,8.177299 -1.69793,2.572937 -3.61894,4.953748 -5.65149,7.193892 -4.0775,4.473471 -8.65693,8.327882 -13.49044,11.677873 -4.87068,3.307233 -10.00164,6.10261 -15.26892,8.4964352 -10.53456,4.775255 -21.59771,7.966608 -32.7848,9.92417705 -11.2001,1.94765495 -22.51669,2.66710395 -33.79054,2.31450595 -22.45349,-0.630834 -44.8884,-5.274718 -65.18231,-15.0383982 -2.54378,-1.20156 -5.04667,-2.49979 -7.49565,-3.902746 -2.47066,-1.365775 -4.89795,-2.827601 -7.25459,-4.413982 -4.71205,-3.170903 -9.15454,-6.822059 -13.15333,-11.011717 -3.96906,-4.200192 -7.50185,-8.992823 -9.98119,-14.427418 -2.53511,-5.416005 -3.93063,-11.390961 -4.03164,-17.540667 0.001,-0.360034 -0.007,-0.659959 0.001,-1.069568 0.006,-0.398454 0.0142,-0.79505 0.0316,-1.167477 0.0266,-0.759109 0.0818,-1.516978 0.14811,-2.274227 0.14314,-1.512639 0.35569,-3.019701 0.65376,-4.507553 0.58994,-2.980662 1.48351,-5.893159 2.6355,-8.681719 2.30211,-5.589521 5.59819,-10.664701 9.4402,-15.157381 3.8476,-4.498875 8.23431,-8.440035 12.91228,-11.904055 4.6823,-3.4702 9.65895,-6.46946 14.8054,-9.08451 10.3028,-5.2177 21.26308,-8.89241 32.43903,-11.37113 11.19452,-2.47252 22.58672,-3.71808 34.06568,-3.8792 11.39034,-0.0867 22.89346,0.91093 34.17164,3.14798 5.64281,1.12162 11.23852,2.55308 16.74748,4.33156 5.50276,1.79088 10.93735,3.8792 16.17985,6.47566 5.24249,2.57787 10.33006,5.55234 15.14498,9.02254 4.80872,3.47021 9.34478,7.43617 13.3603,12.009405 4.00933,4.56704 7.49194,9.77855 9.97066,15.572562 2.47872,5.781616 3.8792,12.174237 3.8668,18.577392 l 0,0.06383"
         style="fill:#050301;fill-opacity:1;fill-rule:nonzero;stroke:none"
         id="path17468"
         inkscape:connector-curvature="0" />
      <path
         d="m 234.61793,-7.2922388 c -3.23907,2.776168 -6.63244,5.365811 -10.17887,7.71935605 -3.25394,2.13975595 -6.5903,4.15433605 -10.05245,5.93219845 -3.45968,1.7809608 -7.03089,3.3437942 -10.68887,4.6699103 -3.65859,1.326735 -7.40641,2.408696 -11.21249,3.246504 -1.10365,0.249731 -2.22217,0.438114 -3.33512,0.650044 0.38916,-0.394736 0.78266,-0.785754 1.16128,-1.189166 2.3616,-2.521478 4.51127,-5.2263824 6.42671,-8.0806293 3.83458,-5.70601445 6.70555,-12.0354285 8.4041,-18.6375007 1.70722,-6.602073 2.2389,-13.44644 1.74192,-20.159436 -0.48335,-6.658488 -1.94518,-13.182481 -4.06015,-19.44249 l -0.0211,-0.03594 c 1.73077,6.390761 2.77431,12.963089 2.8431,19.530485 0.0793,6.610748 -0.8595,13.202905 -2.88461,19.415819 -2.01706,6.2135332 -5.11299,12.0279922 -9.04733,17.1657602 -1.96563,2.569194 -4.13699,4.9760318 -6.47814,7.1839528 -1.1712,1.10365 -2.38515,2.158346 -3.63628,3.150453 -0.62588,0.496364 -1.26229,0.977856 -1.9049,1.436419 -0.63207,0.451127 -1.3162,0.915268 -1.90676,1.266007 l -7.90277,4.686641 9.41665,-0.122077 c 4.12955,-0.05329 8.26096,-0.480252 12.3589,-1.147648 4.08803,-0.725645 8.13826,-1.715894 12.10979,-2.975084 3.96224,-1.288935 7.82099,-2.88833 11.57501,-4.694697 3.74844,-1.816283 7.40332,-3.8401584 10.85741,-6.1614803 3.46774,-2.2996331 6.79728,-4.7950855 9.97625,-7.4634275 1.55416,-1.302568 3.05068,-2.678878 4.51747,-4.034738 -4.52739,-0.94997 -8.07879,-1.909235 -8.07879,-1.909235"
         style="fill:#050301;fill-opacity:1;fill-rule:nonzero;stroke:none"
         id="path17472"
         inkscape:connector-curvature="0" />
      <path
         inkscape:connector-curvature="0"
         id="path3754"
         d="m 196.18147,7.2560352 c 8.21998,-11.44162 10.75866,-19.6577302 10.82022,-35.0182802 0.0475,-11.85859 -2.30519,-26.54264 -3.98379,-24.86405 -0.3162,0.31621 0.14255,5.49747 1.01946,11.51393 1.1063,7.59027 1.17418,12.34907 0.22175,15.54515 l -1.37264,4.60614 -10.2652,-10.33769 c -15.65267,-15.76321 -19.40726,-28.844448 -13.12289,-45.720983 4.17684,-11.216797 18.58475,-25.451292 32.43465,-32.044272 38.30855,-18.23605 82.52826,-19.44288 121.9934,-3.3294 17.23932,7.03876 33.12857,20.646735 38.91383,33.32687 4.18622,9.175355 4.06082,23.279062 -0.28081,31.580895 -5.02973,9.61758 -10.57164,15.87931 -20.02288,22.62358 -16.30211,11.63294 -36.62949,18.4805502 -62.67885,21.1144002 -14.35977,1.45191 -18.87747,1.37363 -33.32577,-0.57751 -9.19275,-1.24142 -17.95612,-2.62087 -19.47415,-3.06546 -1.89857,-0.55603 -4.7135,0.68323 -9.01857,3.97039 -7.63923,5.83299 -20.42966,12.44339 -29.26117,15.1228698 -3.61264,1.09607 -6.72045,1.99949 -6.90623,2.0076 -0.18579,0.008 1.75355,-2.89629 4.30964,-6.4541798 l 0,0 z"
         style="fill:#f2f2f2" />
    </g>
  </g>
</svg>
