<?xml version="1.0" encoding="UTF-8" standalone="no"?>
<!-- Created with Inkscape (http://www.inkscape.org/) -->

<svg
   xmlns:dc="http://purl.org/dc/elements/1.1/"
   xmlns:cc="http://creativecommons.org/ns#"
   xmlns:rdf="http://www.w3.org/1999/02/22-rdf-syntax-ns#"
   xmlns:svg="http://www.w3.org/2000/svg"
   xmlns="http://www.w3.org/2000/svg"
   xmlns:sodipodi="http://sodipodi.sourceforge.net/DTD/sodipodi-0.dtd"
   xmlns:inkscape="http://www.inkscape.org/namespaces/inkscape"
   width="250"
   height="254.13"
   id="svg2"
   version="1.1"
   inkscape:version="0.48.4 r9939"
   sodipodi:docname="drawing18.svg">
  <defs
     id="defs4" />
  <sodipodi:namedview
     id="base"
     pagecolor="#888888"
     bordercolor="#666666"
     borderopacity="1.0"
     inkscape:pageopacity="1"
     inkscape:pageshadow="2"
     inkscape:zoom="0.94"
     inkscape:cx="105.76063"
     inkscape:cy="121.15979"
     inkscape:document-units="px"
     inkscape:current-layer="layer1"
     showgrid="false"
     fit-margin-top="0"
     fit-margin-left="0"
     fit-margin-right="0"
     fit-margin-bottom="0"
     inkscape:window-width="1615"
     inkscape:window-height="1026"
     inkscape:window-x="1431"
     inkscape:window-y="24"
     inkscape:window-maximized="1" />
  <metadata
     id="metadata7">
    <rdf:RDF>
      <cc:Work
         rdf:about="">
        <dc:format>image/svg+xml</dc:format>
        <dc:type
           rdf:resource="http://purl.org/dc/dcmitype/StillImage" />
        <dc:title />
      </cc:Work>
    </rdf:RDF>
  </metadata>
  <g
     inkscape:label="Layer 1"
     inkscape:groupmode="layer"
     id="layer1"
     transform="translate(752.64174,-399.39196)">
    <g
       transform="matrix(1.5742581,0,0,1.5742581,206.72048,-646.88999)"
       id="g3743">
      <path
         inkscape:connector-curvature="0"
         d="m -522.95092,869.58095 c -1.875,-4.395 -3.69375,-8.515 -5.47625,-13 -1.31125,1.105 -2.69125,2.1625 -4.15125,3.1625 -1.32875,0.9125 -2.7425,1.78375 -4.21375,2.62125 0.82125,2.9875 1.67625,5.64125 2.55125,8.64125 -3.015,2.48375 -2.61375,6.5025 -2.4525,7.9875 0.0263,0.22875 0.24875,0.4125 0.48,0.4125 l 17.2675,0 c 0.2325,0 0.44625,-0.18375 0.465,-0.41375 0.1575,-1.63875 0.75375,-7.4675 -4.47,-9.41125"
         style="fill:#3d464c;fill-opacity:1;fill-rule:nonzero;stroke:none"
         id="path3279" />
      <path
         inkscape:connector-curvature="0"
         d="m -509.21592,741.6697 c 3.72125,0 4.56875,-3.65875 4.56875,-8.36625 0,-4.7075 -0.8475,-8.3625 -4.56875,-8.3625 -3.71875,0 -4.56875,3.655 -4.56875,8.3625 0,4.7075 0.85,8.36625 4.56875,8.36625"
         style="fill:#3d464c;fill-opacity:1;fill-rule:nonzero;stroke:none"
         id="path3281" />
      <path
         inkscape:connector-curvature="0"
         d="m -550.77218,724.94095 c -3.7225,0 -4.57,3.655 -4.57,8.3625 0,4.7075 0.8475,8.36625 4.57,8.36625 3.71875,0 4.56751,-3.65875 4.56751,-8.36625 0,-4.7075 -0.84876,-8.3625 -4.56751,-8.3625"
         style="fill:#3d464c;fill-opacity:1;fill-rule:nonzero;stroke:none"
         id="path3283" />
      <path
         inkscape:connector-curvature="0"
         d="m -513.45217,758.3947 c -0.0687,-0.8475 -0.81,-1.4775 -1.6575,-1.4175 -9.84,0.7 -19.71875,0.7 -29.5575,0 -0.8475,-0.06 -1.58875,0.57 -1.65625,1.4175 -0.0688,0.8475 0.57375,1.58875 1.43625,1.65 9.98625,0.7125 20.01,0.7125 29.99625,0 0.8625,-0.0613 1.50625,-0.8025 1.43875,-1.65"
         style="fill:#3d464c;fill-opacity:1;fill-rule:nonzero;stroke:none"
         id="path3285" />
      <path
         inkscape:connector-curvature="0"
         d="m -450.61842,821.5722 c -0.0537,-4.03625 -1.9925,-6.89125 -2.07625,-7.01 -0.0962,-0.14125 -0.23375,-0.24625 -0.39,-0.3075 -4.26375,-1.62375 -13.3125,-3.8925 -13.6975,-3.9875 -0.0475,-0.0125 -0.0975,-0.02 -0.1475,-0.0238 -0.77,-0.0475 -1.64,-0.02 -2.57625,0.0625 -4.81125,-7.12 -10.73,-13.13875 -17.1525,-18.1275 -3.59375,-2.7925 -7.3525,-5.275 -11.23125,-7.4775 -1.94125,-1.1025 -3.9125,-2.13125 -5.9175,-3.0875 -1.74375,-0.82625 -3.4625,-1.5825 -5.305,-2.29125 -0.0487,-0.0662 -0.0975,-0.13375 -0.1475,-0.19875 19.94875,-5.095 24.74375,-17.99375 24.74375,-29.205 l 0,-9.55625 c 14.58375,-19.27 5.78375,-51.1225 2.78,-58.03 -3.04625,-6.99875 -6.785,-10.11125 -13.8775,-11.73875 -23.1725,-5.32125 -63.97501,0.15875 -76.14126,5.7925 -6.56625,3.04125 -11.40375,10.435 -11.87625,32.96375 -0.36125,17.22125 5.415,26.68625 8.1575,30.1925 l 0,10.37625 c 0,11.25625 4.89375,24.20375 25.2625,29.26 -0.15125,0.225 -0.29625,0.455 -0.4325,0.68875 -2.075,0.735 -3.9525,1.5325 -5.87375,2.4225 -1.975,0.92 -3.915,1.91625 -5.825,2.9875 -3.81625,2.14 -7.5075,4.5725 -11.0275,7.31125 -6.29125,4.89375 -12.05125,10.82 -16.75,17.76 -1.085,-0.115 -2.0975,-0.15875 -2.97375,-0.105 -0.05,0.004 -0.1,0.0113 -0.14875,0.0238 -0.38375,0.095 -9.4325,2.36375 -13.69625,3.9875 -0.1575,0.0613 -0.29375,0.16625 -0.39,0.3075 -0.085,0.12125 -2.0775,3.05375 -2.0775,7.18 0,0.46125 0.37375,0.83625 0.83625,0.83625 l 37.64,0 c 0.30375,0 0.58375,-0.165 0.73125,-0.43 l 1.66375,-2.99875 c 0.11375,-0.20375 0.13625,-0.44375 0.0638,-0.66625 -0.10125,-0.3125 -0.84625,-1.98 -5.57625,-4.1125 -0.065,-0.0212 -0.32875,-0.115 -0.74875,-0.25625 2.2575,-4.87125 5.2175,-9.565 8.7625,-13.925 2.47125,-3.045 5.21125,-5.935 8.17375,-8.62875 1.48125,-1.3475 3.0175,-2.6475 4.60375,-3.885 0.1375,-0.10625 0.28125,-0.21375 0.42,-0.32125 -0.0175,0.23875 -0.0337,0.48125 -0.045,0.7225 l -3.275,30.82 c -0.27875,6.78375 4.1275,8.08125 10.39626,8.49375 1.62375,6.5975 4.57625,18.7425 5.27375,21.6125 0.33625,-0.1675 0.67875,-0.3325 1.00375,-0.50875 2.3775,-1.27 4.53375,-2.72 6.45375,-4.32875 -2.09125,-5.43375 -4.22125,-11.04625 -6.255,-16.5 l 16.70125,0.68875 c 0.42125,0.0175 0.8375,0.0362 1.25125,0.055 -0.42125,1.75875 -0.98875,3.4775 -1.7,5.12375 -1.54125,3.5725 -3.74,6.7975 -6.42,9.54125 -2.67875,2.75125 -5.835,5.0225 -9.26375,6.85375 -2.62875,1.405 -5.4175,2.55125 -8.30126,3.49125 -3.15125,-1.92625 -8.36125,-0.15875 -9.78125,0.63375 -0.20375,0.11125 -0.28625,0.38125 -0.19375,0.59375 l 10.72376,24.46625 c 0.0937,0.2125 0.34875,0.34375 0.57125,0.2725 1.7725,-0.55375 7.46875,-3.98875 3.69625,-16.145 2.93375,-1.3825 5.79,-2.975 8.5025,-4.83625 3.9275,-2.6925 7.54625,-5.9525 10.51,-9.76125 2.9675,-3.79875 5.25125,-8.1325 6.6425,-12.6925 0.6975,-2.28 1.1825,-4.6125 1.44375,-6.965 0.0137,-0.13 0.0225,-0.26125 0.0337,-0.39125 5.385,-0.1175 9.12,-1.4475 9.375,-7.60875 l -0.7275,-30.985 c 0.0325,-0.78375 0.0225,-1.5575 -0.025,-2.32 1.31625,1.0625 2.6075,2.15625 3.85375,3.29 3.04,2.76625 5.865,5.71875 8.41875,8.8275 3.66375,4.45125 6.745,9.24125 9.08625,14.20625 -0.6475,0.215 -1.0625,0.35875 -1.1575,0.39375 -4.66375,2.105 -5.4075,3.7725 -5.51,4.085 -0.0712,0.2225 -0.0487,0.4625 0.0637,0.66625 l 1.665,2.99875 c 0.14625,0.265 0.4275,0.43 0.73125,0.43 l 37.64,0 c 0.4775,0 0.8525,-0.375 0.8525,-0.83625 0,-0.0575 -0.005,-0.115 -0.0175,-0.17 z m -124.04876,-5.64875 c 2.94,1.32625 4.055,2.38875 4.43375,2.84125 l -1.18875,2.14125 -36.28,0 c 0.19625,-2.59625 1.2475,-4.5625 1.61875,-5.1875 4.0725,-1.505 12.29875,-3.59 13.17125,-3.81 5.8075,-0.325 18.19375,4 18.245,4.015 z m 1.6325,-66.005 0,-32.44625 c 0.8225,-12.0825 1.77625,-18.54125 1.77625,-18.54125 0,0 3.085,3.3225 12.8075,3.795 20.80376,1.01625 66.28001,-10.315 66.28001,-10.315 2.52875,6.27125 4.16375,13.47375 5.2175,20.385 l 0,37.1225 c 0,19.21875 -14.35125,28.97875 -42.655,29.00625 l -0.11875,0 c -28.33376,0 -43.30751,-10.03 -43.30751,-29.00625 z m 84.43251,70.9875 -1.185,-2.13625 c 0.3925,-0.47625 1.5,-1.525 4.36375,-2.82 0.12,-0.0425 12.5,-4.36125 18.3125,-4.04125 0.87125,0.22 9.0975,2.305 13.17,3.81 0.37375,0.625 1.42375,2.59375 1.62,5.1875 l -36.28125,0"
         style="fill:#3d464c;fill-opacity:1;fill-rule:nonzero;stroke:none"
         id="path3287" />
    </g>
    <path
       style="fill:#000000"
       d="m 91.475179,318.17879 c -5.631049,-12.92537 -7.877011,-19.21642 -7.127939,-19.96568 0.601525,-0.60167 4.779978,-1.12569 9.285451,-1.16448 7.490609,-0.0645 8.930799,-0.45528 16.825959,-4.56573 13.65316,-7.10825 22.90087,-17.34971 27.28533,-30.21738 l 1.62349,-4.76469 -14.33731,-0.7598 c -7.88551,-0.41788 -14.54653,-0.55055 -14.80226,-0.29482 -0.25574,0.25574 1.71135,6.09597 4.37132,12.97829 3.26657,8.4519 4.50126,12.91699 3.8041,13.75703 -0.5677,0.68404 -2.93871,2.31523 -5.2689,3.62488 -3.94086,2.21488 -4.27466,2.24951 -4.77992,0.49589 -0.29875,-1.0369 -2.07631,-8.34804 -3.95011,-16.24698 -1.8738,-7.89893 -3.93892,-14.71341 -4.589165,-15.14329 -0.65024,-0.42987 -2.306714,-0.78891 -3.681054,-0.79787 -4.162176,-0.0271 -9.461987,-3.17125 -10.803082,-6.40895 -1.022855,-2.46938 -0.730249,-8.06607 1.533036,-29.32254 1.538444,-14.44886 2.594759,-26.47306 2.347368,-26.72046 -0.922432,-0.92243 -19.96036,18.19715 -24.398937,24.50359 -5.46553,7.76555 -10.328522,16.05947 -10.328522,17.61547 0,0.61217 1.390816,1.83225 3.090701,2.7113 5.337078,2.7599 6.571852,4.54591 5.209724,7.53545 l -1.195138,2.62305 -30.700571,0 -30.70057117,0 0.63865479,-2.92554 c 1.71644188,-7.86262 2.20991778,-8.3236 12.18671038,-11.38403 5.201224,-1.59551 11.416786,-3.16381 13.812358,-3.48513 3.764369,-0.5049 4.989479,-1.40798 9.025566,-6.65319 11.057018,-14.36942 31.100244,-29.86259 48.883991,-37.78674 5.010653,-2.23266 9.110277,-4.38661 9.110277,-4.78654 0,-0.39994 -2.034574,-1.33601 -4.521276,-2.08016 -13.864198,-4.14891 -26.288882,-13.94797 -31.002257,-24.45076 -3.066927,-6.83403 -4.817967,-17.51037 -4.869152,-29.68795 -0.02429,-5.77816 -0.538069,-8.55034 -1.971647,-10.63829 C 44.864593,104.13557 41.517721,89.736337 41.525963,70.941493 41.539851,39.269662 47.922747,23.395314 62.896385,17.792957 93.497713,6.3435332 164.93557,3.1761073 185.673,12.349263 c 8.8066,3.895577 14.79837,12.951832 18.78127,28.386909 7.10505,27.534506 4.98789,57.031583 -5.25216,73.175248 -3.05494,4.81618 -3.22871,5.67731 -3.22871,15.99989 0,17.59433 -4.02005,28.49064 -13.6434,36.98035 -5.11053,4.50851 -13.62417,9.26557 -20.66511,11.54678 -2.19415,0.71089 -3.98885,1.61445 -3.98821,2.00789 6.4e-4,0.39346 3.60458,2.33551 8.00874,4.31568 17.10439,7.69034 39.85945,25.71308 50.13034,39.70482 2.56024,3.48775 4.50476,5.09913 6.15333,5.09913 1.32561,0 3.79814,0.45287 5.4945,1.00637 1.69635,0.55351 6.59259,2.02114 10.88054,3.26141 7.01088,2.02786 7.9486,2.61962 9.30851,5.87435 0.83173,1.99062 1.51225,4.59215 1.51225,5.78115 0,2.12258 -0.54969,2.16183 -30.28173,2.16183 -28.84986,0 -30.33379,-0.0973 -31.38298,-2.05773 -2.00894,-3.75375 -1.95951,-3.81518 8.3044,-10.31785 0.91296,-0.57841 -1.44021,-5.14016 -6.86919,-13.3163 -5.49486,-8.27533 -24.18673,-28.56344 -26.3161,-28.56344 -0.5522,0 -0.62176,11.35655 -0.16628,27.14786 0.86005,29.81704 0.50826,32.35282 -4.8745,35.13635 -1.64385,0.85006 -4.38648,1.54557 -6.09472,1.54557 -2.96371,0 -3.16471,0.30441 -4.39014,6.64894 -0.70633,3.65692 -2.98584,10.23936 -5.06557,14.62766 -4.93309,10.4089 -18.61939,24.32902 -29.31664,29.81748 -6.99075,3.58675 -7.17465,3.7851 -6.38298,6.88465 1.63561,6.40374 0.95895,15.07973 -1.42526,18.27451 -1.23222,1.65115 -2.90775,3.13025 -3.7234,3.2869 -0.9962,0.19133 -4.181768,-5.90986 -9.704621,-18.58688 l 0,0 z M 61.28511,244.90448 c 0.355153,-0.92551 0.645733,-2.11258 0.645733,-2.63795 0,-2.8796 -23.947315,-10.56514 -32.935706,-10.57023 -2.609318,-0.001 -9.165072,1.25189 -14.568342,2.78527 -8.9563019,2.54168 -9.9233419,3.07256 -10.9472739,6.00982 -2.2347965,6.41074 -3.68211823,6.09585 28.0183549,6.09585 25.591865,0 29.220156,-0.20497 29.787234,-1.68276 z m 186.15714,-1.24278 c -1.30078,-5.44146 -2.38794,-6.27641 -11.88261,-9.12586 -13.27324,-3.98344 -18.13448,-3.7546 -35.33092,1.6632 -9.4057,2.96329 -13.11788,5.61519 -11.66373,8.33229 1.04651,1.95543 2.5292,2.05591 30.33845,2.05591 l 29.23815,0 -0.69934,-2.92554 z m -95.61779,-65.67202 c 20.72481,-3.97324 33.2061,-12.89257 38.74049,-27.68457 2.08658,-5.5769 2.21696,-8.04597 2.21696,-41.9861 0,-38.049919 -0.49151,-43.303297 -5.46165,-58.375339 -1.93549,-5.869399 -2.52242,-6.685415 -4.49913,-6.255256 -57.04304,12.413284 -73.50666,15.017399 -95.358372,15.083205 -14.940029,0.04499 -16.979605,-0.176457 -21.706956,-2.356862 -2.869675,-1.323586 -5.479242,-2.14487 -5.799037,-1.825075 -2.45165,2.45165 -4.479682,77.066987 -2.397386,88.204637 4.900545,26.2117 30.325845,38.96787 74.052311,37.15291 7.02128,-0.29143 16.11703,-1.17232 20.21277,-1.95755 z"
       id="path2988"
       inkscape:connector-curvature="0"
       transform="translate(-752.64174,399.39196)" />
    <path
       style="fill:#000000"
       d="m 154.33593,119.02165 c -2.26349,-1.83286 -2.51147,-2.88035 -2.51147,-10.60874 0,-7.36717 0.32354,-8.898621 2.29683,-10.871913 2.90791,-2.90791 6.94378,-2.104376 8.691,1.730363 0.68542,1.50433 1.24621,5.75975 1.24621,9.45651 0,5.18898 -0.50268,7.36043 -2.20487,9.52441 -2.62289,3.33446 -4.15616,3.49138 -7.5177,0.76937 z"
       id="path2990"
       inkscape:connector-curvature="0"
       transform="translate(-752.64174,399.39196)" />
    <path
       style="fill:#000000"
       d="m 88.609866,118.77197 c -5.638371,-6.05208 -3.049663,-23.248564 3.49977,-23.248564 3.516338,0 5.875374,3.111711 6.651426,8.773634 0.868389,6.33559 -0.246803,12.08976 -2.847003,14.68996 -2.673098,2.6731 -4.668214,2.61436 -7.304193,-0.21503 z"
       id="path2992"
       inkscape:connector-curvature="0"
       transform="translate(-752.64174,399.39196)" />
    <path
       style="fill:#000000"
       d="m 109.80318,149.88887 c -6.62202,-0.47019 -9.04255,-1.03114 -9.04255,-2.09556 0,-1.18801 4.44071,-1.44335 24.31135,-1.39787 13.37124,0.0306 24.58933,0.33361 24.92908,0.67336 1.71075,1.71075 -2.7187,2.51927 -16.26171,2.96831 -8.19149,0.27161 -18.96276,0.2049 -23.93617,-0.14824 z"
       id="path2994"
       inkscape:connector-curvature="0"
       transform="translate(-752.64174,399.39196)" />
    <path
       style="fill:#000000"
       d="m 115.12233,334.81171 c 0,-1.83065 0.78024,-4.97268 1.73386,-6.98228 1.5974,-3.36629 1.59918,-4.12723 0.0226,-9.66922 -0.94118,-3.30847 -1.57725,-6.14938 -1.41349,-6.31314 0.16376,-0.16376 2.89347,-2.16523 6.06602,-4.44772 l 5.76827,-4.14998 4.03553,9.63823 c 2.66992,6.37666 5.16329,10.57972 7.36815,12.42042 2.76917,2.3118 3.35072,3.58143 3.43966,7.50943 l 0.10703,4.72723 -13.56383,0.29774 -13.56383,0.29775 0,-3.32846 z"
       id="path2996"
       inkscape:connector-curvature="0"
       transform="translate(-752.64174,399.39196)" />
    <path
       style="fill:#ffffff"
       d="m 108.20744,178.30273 c -10.327592,-1.05347 -26.413712,-5.89541 -31.787287,-9.56802 -9.809312,-6.70424 -15.311401,-14.58195 -17.548482,-25.12537 -1.543473,-7.27442 -1.561464,-52.328668 -0.02874,-71.961932 0.642076,-8.224584 1.334215,-15.127311 1.538087,-15.339394 0.203872,-0.212083 2.670559,0.419139 5.481525,1.402717 14.874882,5.204827 46.900903,2.305877 98.727873,-8.936708 10.53191,-2.28464 19.46334,-3.830973 19.8476,-3.436296 0.88811,0.91217 4.60499,13.827018 6.15493,21.386185 1.62079,7.904678 1.60589,74.125718 -0.018,80.161988 -3.70604,13.77559 -14.84925,23.69254 -31.85033,28.34527 -14.52561,3.97528 -31.52484,5.00886 -50.5172,3.07156 z m 41.75532,-28.04314 c 1.57415,-0.49018 1.80939,-4.717 0.26596,-4.77874 -0.58511,-0.0234 -11.83511,-0.0426 -25,-0.0426 -13.1649,0 -24.44819,0.0191 -25.074,0.0426 -0.625796,0.0234 -0.984839,1.11968 -0.797868,2.43617 0.317982,2.23895 0.992978,2.43344 10.446328,3.0098 9.92429,0.60507 37.54757,0.14612 40.15958,-0.66723 l 0,0 z M 96.30107,119.96208 c 3.179106,-2.50068 4.56762,-9.01602 3.474684,-16.30426 -1.23351,-8.225643 -7.598913,-11.885477 -12.158937,-6.990868 -4.321117,4.638178 -3.694073,19.807818 0.975124,23.590498 2.960777,2.39863 4.352038,2.34532 7.709129,-0.29537 z m 65.77788,0.1234 c 2.30211,-1.86413 2.51147,-2.83034 2.51147,-11.59043 0,-7.90499 -0.35028,-9.943823 -2.02659,-11.796124 -2.57926,-2.850054 -7.17535,-2.874369 -9.73003,-0.05148 -2.48766,2.748829 -3.38221,14.042503 -1.55162,19.589223 1.86605,5.65419 6.51889,7.31283 10.79677,3.84881 l 0,0 z"
       id="path2993"
       inkscape:connector-curvature="0"
       transform="translate(-752.64174,399.39196)" />
    <path
       style="fill:#ffffff"
       d="m 4.0072928,244.54885 c -0.3312702,-0.53601 -0.1535998,-2.15475 0.3948234,-3.59722 0.7865455,-2.06877 2.6417068,-3.13383 8.7842068,-5.04306 12.021569,-3.73658 17.940012,-3.83689 30.197751,-0.5118 11.826965,3.20823 17.694642,6.20944 16.783306,8.58434 -0.495823,1.2921 -5.05021,1.5423 -28.074805,1.5423 -15.496091,0 -27.745674,-0.42506 -28.0852822,-0.97456 z"
       id="path2995"
       inkscape:connector-curvature="0"
       transform="translate(-752.64174,399.39196)" />
    <path
       style="fill:#ffffff"
       d="m 190.12233,244.45958 c -1.70098,-2.75225 3.28861,-5.45257 16.72817,-9.05315 12.00538,-3.21635 16.10683,-3.28707 26.37832,-0.45485 9.6299,2.65531 12.3094,4.2737 12.99255,7.84739 l 0.52081,2.72444 -27.98118,0 c -17.50658,0 -28.22731,-0.39824 -28.63867,-1.06383 z"
       id="path2997"
       inkscape:connector-curvature="0"
       transform="translate(-752.64174,399.39196)" />
  </g>
</svg>
