<?xml version="1.0" encoding="UTF-8" standalone="no"?>
<!-- Created with Inkscape (http://www.inkscape.org/) -->

<svg
   xmlns:dc="http://purl.org/dc/elements/1.1/"
   xmlns:cc="http://creativecommons.org/ns#"
   xmlns:rdf="http://www.w3.org/1999/02/22-rdf-syntax-ns#"
   xmlns:svg="http://www.w3.org/2000/svg"
   xmlns="http://www.w3.org/2000/svg"
   xmlns:sodipodi="http://sodipodi.sourceforge.net/DTD/sodipodi-0.dtd"
   xmlns:inkscape="http://www.inkscape.org/namespaces/inkscape"
   width="744.09448819"
   height="1052.3622047"
   id="svg3118"
   version="1.1"
   inkscape:version="0.48.1 r9760">
  <defs
     id="defs3120" />
  <sodipodi:namedview
     id="base"
     pagecolor="#ffffff"
     bordercolor="#666666"
     borderopacity="1.0"
     inkscape:pageopacity="0.0"
     inkscape:pageshadow="2"
     inkscape:zoom="0.35"
     inkscape:cx="375"
     inkscape:cy="520"
     inkscape:document-units="px"
     inkscape:current-layer="layer1"
     showgrid="false"
     inkscape:window-width="1600"
     inkscape:window-height="876"
     inkscape:window-x="0"
     inkscape:window-y="24"
     inkscape:window-maximized="1" />
  <metadata
     id="metadata3123">
    <rdf:RDF>
      <cc:Work
         rdf:about="">
        <dc:format>image/svg+xml</dc:format>
        <dc:type
           rdf:resource="http://purl.org/dc/dcmitype/StillImage" />
        <dc:title></dc:title>
      </cc:Work>
    </rdf:RDF>
  </metadata>
  <g
     inkscape:label="Layer 1"
     inkscape:groupmode="layer"
     id="layer1">
    <path
       inkscape:connector-curvature="0"
       d="m 384.91164,334.31921 c -0.18375,-2.9175 2.7325,-4.37625 4.7375,-6.0175 1.095,-0.91125 0.9125,-3.09875 1.46,-4.37375 2.73375,-6.92875 0.3625,-15.86125 -3.1,-21.695 -3.82875,1.09375 -8.56875,0.5475 -11.6675,2.37125 -4.375,1.8225 -9.115,1.8225 -13.85375,1.64 -7.11125,-0.18125 -13.12625,-1.64 -20.23625,-2.5525 -2.00375,3.465 -3.09875,9.115 -6.5625,11.30125 -3.645,9.48 -11.6675,14.03875 -17.13625,21.14875 -3.09875,4.01 -0.73,9.295 6.56125,13.30625 5.46875,2.91875 11.305,1.46 16.95625,2.91875 3.28,3.0975 -3.64625,5.8325 -6.2,6.56125 -10.93625,0.91125 -16.77125,3.83 -30.99,0.73125 -6.745,-1.64125 -10.2075,-3.28125 -15.86125,-6.5625 -5.10375,-2.91875 -10.755,-5.835 -14.5825,-9.665 -1.82375,0.185 -4.19375,-0.3625 -5.105,-1.27375 -6.01625,1.45875 -11.3025,0.36375 -18.23,0.54625 -3.09875,0 -6.015,0.9125 -9.2975,0.7275 -1.27625,0 -2.55125,-0.3625 -3.82762,-0.54375 -4.92188,-0.54875 -10.39012,0.54375 -14.94862,-0.36625 -8.022,-1.27625 -17.86575,-0.91125 -25.33938,-4.01 -9.11475,-0.5475 -18.59475,-3.82875 -25.88625,-7.29125 -5.47075,-4.92375 -14.22125,-6.92875 -18.04887,-12.94625 -2.00538,-3.46125 -5.28613,-2.915 -6.92675,-7.4725 -8.022,-5.46875 -8.38625,-17.32 -12.76175,-25.705 -1.09325,-1.82375 -3.28125,-12.3975 -2.00438,-18.4125 0.5455,-2.55125 0.5455,-3.8275 1.458,-6.56125 3.82713,-11.85125 13.125,-18.23125 19.87163,-27.52875 1.82225,-2.18625 5.104,-5.105 7.83887,-4.92 5.1025,-3.1 12.76075,-8.20625 16.042,-8.3875 2.9165,-0.365 5.65088,-1.64 8.38525,-2.55375 5.28613,-2.005 12.3965,-2.55 17.86525,-5.4675 4.55763,-2.36875 10.93888,-1.45875 15.67825,-1.82375 2.55175,-0.36375 5.65088,-1.63875 8.38663,-1.63875 2.55037,0.1825 4.73837,-0.54875 7.10799,-0.73125 4.74013,-0.545 8.5685,-0.545 12.3985,0 8.56625,1.46 15.3125,-0.545 23.3325,0.1825 4.37625,0.365 9.2975,2.00625 14.0375,2.1875 7.11,0.18375 13.49,3.6475 19.32375,7.11 2.73375,1.6425 5.6525,2.37 8.2025,3.83 1.2775,0.7275 2.1875,2.005 3.83,2.1875 1.4575,0.1825 3.4625,-3.465 5.28375,-6.0175 4.19625,-6.5625 13.12875,-10.93625 20.42,-14.76625 3.28125,-1.8225 7.29125,-3.645 11.11875,-4.92125 5.6525,-1.82375 11.67,-2.91625 17.68625,-4.01125 3.0975,-0.5475 6.19625,-1.64 9.29375,-2.00375 6.565,-0.54875 13.85625,-0.1825 20.6,-1.46 5.105,0 9.84625,0.5475 15.315,0.91125 1.8225,0 3.8275,-0.54625 5.6525,-0.36375 4.91875,0.36375 9.84125,1.82375 14.94625,2.73375 8.3875,1.45875 17.32,1.82375 24.975,4.37625 1.82375,0.54625 3.465,2.005 5.28625,2.73375 6.01625,2.37 11.12125,4.19375 16.4075,6.74625 4.5575,2.1875 11.85,6.5625 12.0325,8.385 0.54625,3.2825 3.82875,3.64625 5.46875,6.01625 2.5525,3.28 3.0975,7.83875 6.0175,10.9375 1.64,1.64 0,4.19375 0.91,10.39 0,0.9125 0.91125,2.005 1.095,2.91875 -0.18375,7.8375 0.36625,14.4025 -3.83,21.3275 -0.365,3.2825 -1.4575,5.10625 -2.55125,7.47625 -1.64125,2.7325 -2.5525,4.55625 -4.92125,7.29 -2.37125,2.9175 -4.195,5.835 -7.2925,7.2925 -3.6475,6.565 -10.39,9.115 -15.85875,13.49125 -2.9175,2.36875 -8.0225,4.01125 -13.67375,5.65 -1.45875,0.365 -4.9225,2.37125 -7.29125,1.82375 -3.83,1.64125 -8.0225,1.64125 -12.215,2.91625 -4.92375,0.365 -9.29875,-0.72875 -11.12125,2.9175 -3.8275,4.375 -9.295,6.745 -13.48875,10.57375 -2.55375,0.72875 -5.105,1.82125 -6.9275,3.46375 -6.5625,0.73 -11.485,3.645 -15.86125,7.47375 -2.18625,1.82375 -8.38375,0 -8.38375,-2.55125 l 0,0 z m 80.75625,-36.64375 c 0.72875,-0.1825 2.19,-0.72875 2.735,-1.0925 6.92875,-3.83 11.85125,-8.56875 17.6825,-13.67375 4.01125,-5.65 7.11,-10.9375 10.0275,-18.04625 0.72875,-1.46 2.00375,-1.27625 2.5525,-2.9175 2.9175,-8.93375 3.8275,-16.58875 0.72875,-26.25125 -0.72875,-2.5525 -2.1875,-4.92125 -2.91625,-7.2925 -1.82375,-6.015 -5.4675,-8.56875 -9.47875,-12.5775 -4.195,-4.37625 -9.11625,-5.835 -12.03125,-7.47625 -6.01625,-3.09875 -12.03375,-6.74375 -19.8725,-8.2025 -5.105,-0.91125 -6.1975,-2.18625 -8.02,-2.5525 -3.465,-0.54625 -29.1675,-2.73375 -44.29875,-2.5525 -12.94375,0.1825 -25.1575,1.82375 -35.915,4.37625 -4.1925,2.36875 -10.20875,4.1925 -14.40125,5.8325 -1.45875,0.73 -3.28,0.73 -4.5575,1.2775 -2.005,0.91 -4.01,2.55125 -5.8325,3.64625 -4.375,2.185 -9.11625,3.4625 -11.85,7.47375 -2.9175,0.73 -7.6575,6.56125 -7.84,8.75 -0.36375,2.91625 4.9225,4.5575 6.92875,6.745 3.645,4.375 6.38,8.2025 9.48,13.125 7.65625,12.21375 14.21875,37.00625 6.19625,50.31625 1.27625,0.5475 4.37625,0.91 7.11,2.00375 10.02625,4.74 20.23625,2.37 29.5325,0.365 2.735,-0.365 2.91625,-0.54625 5.83375,-2.55 3.82875,0.3625 4.5575,-2.005 9.115,-1.46125 2.37125,3.83 2.00625,3.465 2.735,7.84 0.72875,5.65 2.915,11.12125 0.72875,16.4075 0.9125,4.01 -2.55125,7.10875 -3.46375,9.84375 3.645,-0.73 6.92875,-2.735 9.66125,-4.74 4.74125,-3.28125 9.29875,-6.745 12.945,-10.93625 -0.5475,-2.18875 1.095,-2.00625 0.54625,-3.83 0.54875,-0.365 1.275,-0.54625 1.82375,-0.72875 -0.54875,-2.37 0.73,-4.01125 2.36875,-4.5575 16.95375,4.19125 29.16875,-2.37 41.74625,-6.56375 l 0,0 z m -116.30625,-95.89 -0.365,0.91125 c 4.375,-0.72875 7.83875,-2.18625 11.12,-4.37375 2.5525,-1.64125 -7.475,1.275 -10.755,3.4625 l 0,0 z m -8.5675,4.19375 c -0.18375,0.5475 1.0925,0.36375 1.8225,0.36375 2.005,-0.36375 2.73375,-1.8225 3.645,-3.4625 0.73,-1.095 -5.2875,1.09375 -5.4675,3.09875 l 0,0 z m -3.465,1.275 c -0.18125,0.1825 0.18375,1.09375 0.36625,0.9125 0.72875,-0.18125 1.27375,-0.9125 1.4575,-1.45875 0,-0.365 -1.2775,-0.18125 -1.82375,0.54625 l 0,0 z m -10.39,6.74625 c -0.365,1.0925 1.45875,0.36375 2.005,0 2.91625,-1.82375 5.10375,-2.735 5.65,-4.55875 0.18375,-1.09375 -6.38,1.82375 -7.655,4.55875 l 0,0 z m -50.31625,-0.72875 c 7.47375,0.72875 13.49125,3.8275 18.7775,3.28 -5.28625,-2.73375 -12.21375,-3.28 -20.59875,-4.55625 -1.45875,-0.365 -0.9125,1.09375 1.82125,1.27625 l 0,0 z m 32.45,121.95875 c 0.36625,-2.005 3.83,-2.91625 7.2925,-4.37375 1.8225,-0.91375 4.5575,-2.73625 5.46875,-4.56 1.275,-2.36875 5.2875,-6.01625 6.745,-8.0225 4.375,-5.8325 7.29125,-12.76 10.02625,-19.6875 1.095,-3.09875 4.55875,-7.47125 4.74,-11.8475 0.1825,-7.475 0.1825,-17.685 -2.735,-22.24125 0.73,-7.11 -9.8425,-21.33 -12.76125,-23.88125 -2.00625,-5.47 -9.8425,-10.57375 -14.2175,-14.0375 -1.46,-1.27625 -4.37625,-1.64 -8.385,-1.46 -1.82375,0 -3.83,-2.18625 -5.105,-2.7325 -16.40875,-5.46875 -31.175,-8.93375 -50.4975,-10.57375 -14.03775,-1.09375 -23.69974,1.095 -36.45962,1.8225 -4.01212,0.1825 -13.67275,2.91625 -18.96137,4.37625 -6.37988,1.82125 -13.48875,4.375 -18.59375,6.74375 -4.73925,2.1875 -9.84375,3.64625 -12.3955,7.65875 -10.75638,3.645 -15.49613,15.3125 -20.60163,25.3375 -1.63912,3.46375 -2.55175,6.5625 -3.46237,10.20875 -0.36525,2.00625 -0.36525,4.92375 -0.54688,7.11125 -0.18262,2.5525 0.728,5.1025 1.27538,7.8375 0.54787,4.01125 0.54787,7.11125 3.10012,8.93375 2.55125,1.82125 -0.18412,5.2875 2.36963,7.65625 7.47412,6.745 11.85012,16.22375 22.96775,20.05375 3.28325,2.7325 7.2935,4.92 12.3985,6.19875 1.09325,0.36375 0.7285,1.27375 2.36812,1.82125 12.94488,4.01125 24.7935,6.9275 39.378,8.20375 8.20363,0.72875 16.40675,0 24.42862,0.365 8.20375,0.18375 16.40625,0.72875 23.33375,-2.18875 0.9125,0 4.55875,-1.27625 4.9225,-1.27625 2.5525,1.6425 2.5525,1.6425 2.91625,4.37625 6.92875,6.01625 13.85625,12.21375 24.6125,15.13 4.74,2.73375 11.66625,3.28125 18.95875,4.195 1.64,-1.09375 2.55125,0.54375 4.00875,-0.72875 -2.18625,-3.46625 -8.02,-3.83125 -10.935,-6.92875 -3.10125,-3.46375 -6.7475,-4.74 -5.65375,-13.49 l 0,0 z m 186.31,-60.15875 c -0.36375,0.54625 -0.18125,1.27625 0.365,1.4575 0.54875,0.365 2.005,-1.82375 1.45875,-2.55125 -0.365,-0.54875 -1.64,0.54625 -1.82375,1.09375 l 0,0 z m -6.015,8.385 c 0,0.72875 1.4575,0 2.005,-0.365 1.095,-0.7275 2.00375,-2.37125 2.55375,-3.645 0.365,-0.73125 0,-1.6425 -0.1825,-2.37 -1.45875,2.5525 -4.01125,3.28125 -4.37625,6.38 l 0,0 z m -3.46375,3.8275 c 0.18125,0.91125 2.37,-0.545 2.5525,-1.095 0,-0.18 0.1825,-1.27375 0,-1.45625 -0.365,-0.365 -1.64125,0.54625 -1.64125,0.7275 -0.365,0.54875 -1.09375,1.095 -0.91125,1.82375 l 0,0 z m -2.91625,2.1875 c -0.365,0.365 -1.64,1.64375 -1.64,2.1875 0,0.36625 1.64,-0.36375 2.00375,-0.54375 1.27625,-0.185 2.005,-2.37125 1.45875,-2.73625 -0.1825,-0.365 -1.45875,0.5475 -1.8225,1.0925 l 0,0 z m -18.96,12.3975 c -0.18125,0.1825 -0.5475,1.0925 0.18375,0.91125 1.275,-0.1825 2.915,-0.72875 2.915,-1.82375 -0.18125,-0.72875 -2.36875,0.18375 -3.09875,0.9125 l 0,0 z m -5.28625,2.00625 c -0.18375,0.545 0.54625,0.91 1.275,0.72875 1.2775,-0.18375 2.5525,-1.2775 1.825,-1.6425 -0.9125,-0.545 -2.91875,-0.18125 -3.1,0.91375 l 0,0 z m -7.65625,3.0975 c 0.7275,0.18375 2.005,0.18375 2.91625,0 1.45875,-0.36375 4.19375,-1.8225 3.1,-2.5525 -0.9125,-0.72875 -8.385,1.6425 -6.01625,2.5525 l 0,0 z m -56.87875,6.1975 c 0.73,1.45875 2.005,6.0175 2.18875,4.37625 0.91125,-6.1975 -0.18375,-12.39625 -2.9175,-15.86 -0.72875,-0.73 -0.365,2.73375 -0.1825,3.46375 0.36625,1.8225 -0.54625,4.9225 0.91125,8.02 l 0,0 z m 43.3875,-4.01 0,0 c 0.365,-1.09375 -1.09375,-0.54625 -1.64,-0.73 -0.365,0.91375 1.09375,0.36625 1.64,0.73 l 0,0 z m -17.865,9.66375 0,0 c 2.37,-0.73125 3.09875,-3.465 4.9225,-4.74 -2.005,-0.5475 -5.10375,3.28125 -4.9225,4.74 l 0,0 z m -152.4025,19.32375 c -0.54625,0.54625 -0.54625,1.27375 0.36375,1.27375 2.00625,-0.18125 7.11125,-1.4575 5.105,-1.64 -2.5525,0 -4.01125,-0.72875 -5.46875,0.36625 l 0,0 z m -3.83,1.0925 c -0.36125,0.18125 0.36625,0.36625 0.73,0.18125 0.5475,0 1.46,-0.18125 1.6425,-0.7275 0.18125,-0.54625 -1.82375,0 -2.3725,0.54625"
       style="fill:#182442;fill-opacity:1;fill-rule:evenodd;stroke:none"
       id="path3048" />
  </g>
</svg>
