<?xml version="1.0" encoding="UTF-8" standalone="no"?>
<!-- Created with Inkscape (http://www.inkscape.org/) -->

<svg
   xmlns:dc="http://purl.org/dc/elements/1.1/"
   xmlns:cc="http://creativecommons.org/ns#"
   xmlns:rdf="http://www.w3.org/1999/02/22-rdf-syntax-ns#"
   xmlns:svg="http://www.w3.org/2000/svg"
   xmlns="http://www.w3.org/2000/svg"
   xmlns:sodipodi="http://sodipodi.sourceforge.net/DTD/sodipodi-0.dtd"
   xmlns:inkscape="http://www.inkscape.org/namespaces/inkscape"
   width="274.67676"
   height="172.26999"
   id="svg3669"
   version="1.1"
   inkscape:version="0.48.3.1 r9886"
   sodipodi:docname="New document 35">
  <defs
     id="defs3671" />
  <sodipodi:namedview
     id="base"
     pagecolor="#ffffff"
     bordercolor="#666666"
     borderopacity="1.0"
     inkscape:pageopacity="0.0"
     inkscape:pageshadow="2"
     inkscape:zoom="0.35"
     inkscape:cx="223.76696"
     inkscape:cy="-56.722146"
     inkscape:document-units="px"
     inkscape:current-layer="layer1"
     showgrid="false"
     fit-margin-top="0"
     fit-margin-left="0"
     fit-margin-right="0"
     fit-margin-bottom="0"
     inkscape:window-width="472"
     inkscape:window-height="415"
     inkscape:window-x="641"
     inkscape:window-y="184"
     inkscape:window-maximized="0" />
  <metadata
     id="metadata3674">
    <rdf:RDF>
      <cc:Work
         rdf:about="">
        <dc:format>image/svg+xml</dc:format>
        <dc:type
           rdf:resource="http://purl.org/dc/dcmitype/StillImage" />
        <dc:title></dc:title>
      </cc:Work>
    </rdf:RDF>
  </metadata>
  <g
     inkscape:label="Layer 1"
     inkscape:groupmode="layer"
     id="layer1"
     transform="translate(-151.23304,-303.37005)">
    <path
       inkscape:connector-curvature="0"
       id="path3048"
       style="fill:#182442;fill-opacity:1;fill-rule:evenodd;stroke:none"
       d="m 287.07062,303.70571 c 4.5575,5.2875 -1.09375,10.9375 -3.6475,16.045 -4.1925,8.93 -10.21,19.505 -15.67625,26.4325 3.8275,2.55125 9.11375,1.4575 13.67125,1.64 7.2925,0.18125 16.7725,2.00625 25.15875,3.82875 29.8975,6.92625 56.1475,18.41125 80.21125,37.37125 10.5725,8.5675 20.78125,17.31874 28.80375,28.61999 2.00625,2.91875 6.37875,6.92875 9.48,10.3925 1.82375,2.005 0.36375,3.28 -1.4575,1.8225 -3.28,-2.55375 -5.46875,-6.9275 -8.93375,-8.75 -2.55125,-1.46 -6.19875,-0.91 -7.83875,-3.09875 -6.74375,-8.93375 -15.8625,-16.22499 -24.9775,-23.15374 -7.83625,-6.01375 -16.9525,-11.84875 -25.70125,-16.5875 -8.205,-4.5575 -17.50375,-7.475 -27.345,-11.30375 -15.495,-6.01625 -32.27,-8.5675 -48.67625,-10.39125 -2.9175,-0.3625 -6.38,-0.9125 -8.75,-0.54625 -2.1875,0.18375 -5.105,2.9175 -7.8375,0.54625 -3.83125,3.2825 -13.67375,-0.72875 -5.28875,-5.8325 9.8475,-9.48 16.95375,-21.8775 23.1525,-35.185 -3.0975,0.91125 -4.92125,3.09875 -6.745,5.10375 -6.92625,4.92375 -14.765,9.1175 -21.32875,14.40375 -4.92125,2.36875 -10.02625,4.74 -14.58375,7.475 -18.595,6.015 -34.09,15.12875 -54.32625,19.505 -6.92625,1.09375 -3.82625,2.73375 -2.3675,3.1 19.86875,5.46625 34.4525,12.03125 46.66875,20.9625 10.57125,7.6575 25.51875,20.41749 35.36625,28.80249 0.36125,-5.1025 -1.46,-10.93625 -2.3725,-15.31249 -1.275,-6.745 -4.01125,-16.77125 -6.01375,-18.77625 -1.2775,-1.45875 -2.1875,-2.37 -2.9175,-4.1925 -1.275,-2.73375 4.01125,-6.19875 5.4675,-5.105 1.4575,0.91125 2.91625,1.8225 3.645,3.2825 12.58125,3.0975 22.42625,8.38375 33.36375,13.30625 8.0225,3.64625 17.135,11.85 24.61125,18.95999 11.30125,10.39125 20.78125,23.1525 30.98875,35.54875 -0.36375,4.5575 15.86125,22.42375 8.57,25.5225 0.1825,2.73375 4.19125,7.10875 1.4575,7.47375 -2.735,0.365 -3.4625,-3.4625 -4.55625,-5.65125 -2.73375,-6.01625 -5.28875,-18.0475 -9.66125,-22.605 -19.69125,-30.08 -46.305,-57.42374 -82.5825,-66.72249 -1.82625,5.46875 2.37,9.115 2.37,14.7675 -0.365,6.7425 2.0025,12.75999 3.09875,18.95749 0.36375,2.55125 2.55125,8.205 2.36625,11.48625 -0.18125,2.91625 -0.90875,5.10375 -3.28125,8.20375 -1.275,1.4575 -3.645,0.36375 -4.01125,-1.27625 -0.3625,-2.005 -0.90875,-9.48 -2.0025,-10.7575 -14.4025,-14.76625 -35.54875,-30.98874 -53.77875,-39.92374 -6.745,-4.92 -16.58875,-8.38375 -27.16,-10.93625 -7.1125,-1.82375 -19.51,-3.8275 -28.07625,-4.01 -3.2825,-0.18375 -2.9175,-3.09875 -0.54625,-3.64625 10.935,-2.37 24.975,-3.28125 35,-7.475 11.66875,-2.5525 23.5175,-7.6575 34.09,-12.57875 17.5025,-8.02125 35.36875,-16.955 50.13375,-29.71625 1.275,-2.1875 4.37375,-3.82625 6.92625,-6.015 2.005,-1.82375 3.6475,-5.4675 7.84,-4.01125 l 0,0 z m -7.2925,49.2225 c 1.4575,-0.1825 1.82375,-0.1825 3.28125,-0.1825 1.4575,-0.1825 -1.275,-0.91125 -2.7325,-1.09375 -0.73,0 -2.55375,-0.1825 -2.73625,0 -1.27625,0.1825 0.9125,1.27625 2.1875,1.27625 l 0,0 z m 71.46125,17.5 c -0.72875,-0.365 -4.01,-2.37 -4.555,-1.09375 1.63875,1.45875 4.19,2.005 4.555,1.09375 l 0,0 z m 9.29875,4.9225 -1.09375,-0.54625 c -0.5475,-0.36625 -1.2775,-1.2775 -2.37125,-0.91125 -0.36375,0.91125 3.28375,2.1875 3.465,1.4575 l 0,0 z m 2.55,2.1875 -1.09125,-0.91125 c -0.365,-0.365 -0.9125,-0.9125 -1.095,-0.365 0.1825,0.54625 1.8225,2.1875 2.18625,1.27625" />
  </g>
</svg>
