<?xml version="1.0" encoding="UTF-8" standalone="no"?>
<!-- Created with Inkscape (http://www.inkscape.org/) -->

<svg
   xmlns:dc="http://purl.org/dc/elements/1.1/"
   xmlns:cc="http://creativecommons.org/ns#"
   xmlns:rdf="http://www.w3.org/1999/02/22-rdf-syntax-ns#"
   xmlns:svg="http://www.w3.org/2000/svg"
   xmlns="http://www.w3.org/2000/svg"
   version="1.1"
   width="416.57089"
   height="365.77924"
   id="svg6009">
  <defs
     id="defs6011" />
  <metadata
     id="metadata6014">
    <rdf:RDF>
      <cc:Work
         rdf:about="">
        <dc:format>image/svg+xml</dc:format>
        <dc:type
           rdf:resource="http://purl.org/dc/dcmitype/StillImage" />
        <dc:title></dc:title>
      </cc:Work>
    </rdf:RDF>
  </metadata>
  <g
     transform="translate(-114.5717,-355.18686)"
     id="layer1">
    <path
       d="m 190.04727,417.58195 c -9.87937,7.48625 -19.83937,16.74625 -28.80412,27.31125 -9.01662,10.51874 -16.9375,22.39499 -23.17487,34.55499 l -2.40325,4.58 c -0.78613,1.53375 -1.4365,3.13 -2.16063,4.6925 l -2.11825,4.71 c -0.68262,1.57875 -1.46825,3.1175 -2.03462,4.7425 l -3.65775,9.6425 c -0.64888,1.59375 -1.1255,3.24375 -1.6435,4.88 l -1.5405,4.91375 -1.53763,4.9125 -0.0962,0.3075 -0.11325,0.43625 -0.15425,0.61125 -0.30762,1.22375 -0.61575,2.44625 -1.231,4.8925 c -0.36375,1.68375 -0.67038,3.43125 -1.00675,5.145 l -0.981,5.165 -0.665,5.1525 c -0.20463,1.72 -0.47713,3.43125 -0.62263,5.1575 l -0.34425,5.19125 c -0.79487,13.83125 0.15875,27.885 3.61475,41.3925 3.38288,13.50375 8.79538,26.51875 16.11813,38.34 7.358,11.8025 16.41125,22.47875 26.62212,31.83 l 3.93163,3.38875 c 1.31737,1.12125 2.59962,2.2875 3.98975,3.31625 2.74512,2.1025 5.42337,4.29875 8.30175,6.215 l 4.253,2.965 4.38425,2.76125 c 2.87737,1.92 5.89987,3.59 8.89499,5.315 12.03863,6.7925 24.83625,12.20375 38.02501,16.395 13.19,4.19625 26.78375,7.1725 40.56625,8.95875 0.88875,0.12 1.78125,0.24 2.67625,0.36 0.8425,0.075 1.6875,0.1525 2.535,0.2275 1.695,0.1475 3.4,0.29625 5.10625,0.445 l 2.56625,0.2125 2.6475,0.12125 c 1.76125,0.085 3.51625,0.17125 5.255,0.255 14.11,0.57125 28.13125,0.002 42.09125,-1.58 13.95125,-1.57375 27.785,-4.22625 41.37375,-7.93 11.72375,-3.1075 23.195,-7.20625 34.38375,-11.98375 l 4.18625,-1.82125 2.09375,-0.91125 2.0525,-1.005 8.2,-4.05125 c 5.335,-2.9625 10.74125,-5.81375 15.85125,-9.19 2.585,-1.63625 5.20375,-3.22125 7.6625,-5.055 2.48625,-1.79 5.0175,-3.5225 7.46625,-5.365 l 7.18125,-5.76875 c 0.5925,-0.4875 1.2075,-0.9475 1.78125,-1.45875 l 1.7075,-1.55 3.415,-3.10375 c 8.9775,-8.39 17.34125,-17.55875 24.3675,-27.7225 9.27375,-13.05625 16.67625,-27.4875 21.97125,-42.58 5.32,-15.09625 8.5475,-30.805 10.13875,-46.52 l 0.55,-9.04125 c 0.18,-3.0125 0.42,-6.02625 0.325,-9.035 -0.065,-6.015 0.0975,-12.05 -0.47125,-18.0225 l -0.6125,-8.97875 -0.0375,-0.56125 -0.02,-0.28 -0.0637,-0.535 -0.1475,-1.08375 -0.2925,-2.16875 -0.5875,-4.335 -0.58625,-4.335 -0.94875,-4.555 c -0.6725,-3.0275 -1.23875,-6.11875 -2.02125,-9.09 -3.1225,-11.80125 -7.62375,-23.23374 -13.2775,-34.09499 l -4.55875,-7.9775 c -1.585,-2.61875 -3.3975,-5.09875 -5.0925,-7.6525 -1.64625,-2.59 -3.61875,-4.9425 -5.525,-7.345 l -2.87125,-3.595 c -0.9375,-1.215 -2.055,-2.275 -3.07625,-3.41875 -1.46375,-1.56625 -3.00125,-3.21125 -4.55625,-4.87375 -1.57375,-1.645 -3.33875,-3.1275 -4.965,-4.6675 -1.67,-1.49125 -3.20625,-3.0475 -4.7925,-4.32125 -1.58,-1.28125 -3.0475,-2.4725 -4.34,-3.5225 -12.42375,-10.1275 -26.4475,-18.1325 -41.19125,-23.81125 -14.7475,-5.68875 -30.20875,-9.06125 -45.61875,-10.21 -30.86,-2.31 -61.3525,4.28625 -87.09875,17.2325 -22.8,11.5075 -36.5,23.23625 -54.64125,44.63875 2.5975,-2.85625 5.14875,-5.66375 7.6525,-8.41625 0.6025,-0.71875 1.3175,-1.3075 1.9425,-1.99 0.6825,-0.61875 1.36375,-1.235 2.03875,-1.8475 1.355,-1.225 2.695,-2.4375 4.01875,-3.635 0.6675,-0.59625 1.31625,-1.20375 1.98625,-1.77875 l 0.5075,-0.42375 c 0.0712,-0.0875 0.1975,-0.105 0.2225,-0.24875 l 0.245,-0.22125 c 0.31875,-0.305 0.67375,-0.56 1.01375,-0.83375 1.3725,-1.08 2.7275,-2.14625 4.065,-3.19875 2.67875,-2.09875 5.25875,-4.1925 8.02125,-5.845 2.70375,-1.7375 5.32125,-3.42125 7.84625,-5.04375 2.6275,-1.4525 5.1575,-2.85125 7.58375,-4.19125 1.2175,-0.6625 2.40875,-1.31125 3.57125,-1.94375 1.205,-0.5525 2.38125,-1.0925 3.5275,-1.61875 2.295,-1.05125 4.4725,-2.04875 6.5225,-2.98875 2.68375,-0.98875 5.2575,-1.68 7.64875,-2.45375 2.41125,-0.72125 4.65375,-1.515 6.95125,-1.97375 2.2675,-0.525 4.48625,-1.0375 6.7325,-1.5575 1.12625,-0.23625 2.2325,-0.56875 3.4,-0.73 1.16,-0.18625 2.33625,-0.375 3.53875,-0.5675 -10.9975,2.7 -24.155,7.02 -35.4625,12.93625 -0.66625,0.31875 -1.33,0.63625 -1.99,0.95125 -0.63625,0.35875 -1.27,0.7175 -1.9,1.07375 -1.25875,0.715 -2.505,1.42375 -3.7425,2.12625 -2.4575,1.43375 -4.94625,2.72625 -7.21625,4.345 -2.31,1.54625 -4.605,3.08 -6.90375,4.6175 -2.30875,1.51875 -4.4125,3.33875 -6.63875,5.02625 2.22,-1.58375 4.33125,-3.2625 6.61375,-4.6775 2.28375,-1.40875 4.5625,-2.815 6.8575,-4.23125 1.1625,-0.68375 2.26625,-1.4725 3.48875,-2.08 1.20375,-0.6375 2.415,-1.27875 3.63875,-1.925 1.22,-0.64875 2.4525,-1.30375 3.69875,-1.96625 1.25375,-0.64375 2.4775,-1.3825 3.8175,-1.93625 2.72,-1.2275 5.44875,-2.45875 8.1975,-3.69875 1.35625,-0.66125 2.7875,-1.1575 4.21,-1.6875 1.42375,-0.52875 2.8525,-1.06125 4.28875,-1.595 1.4375,-0.5275 2.8725,-1.08875 4.335,-1.5925 1.485,-0.43875 2.9775,-0.88125 4.48125,-1.325 3.01625,-0.84625 6.015,-1.91125 9.1875,-2.5175 1.5725,-0.35125 3.15875,-0.70625 4.7575,-1.0625 0.79875,-0.17875 1.60125,-0.35875 2.40625,-0.53875 l 1.2125,-0.27125 1.2325,-0.18875 c 3.29375,-0.5025 6.6475,-1.01375 10.07125,-1.53625 3.44875,-0.29125 6.96875,-0.58875 10.56875,-0.8925 3.60875,-0.125 7.30125,-0.13875 11.08,-0.215 -19,0.515 -35.22625,3.92 -49.24625,8.57375 -14.02625,4.70625 -25.94,10.555 -36.63875,17.09625 -7.215,4.74 -8.50125,5.85 -6.28625,4.64125 1.11125,-0.5975 3.11,-1.7575 5.705,-3.2975 2.66125,-1.425 6.01875,-3.0625 9.64625,-4.96375 11.3625,-5.40625 22.87,-9.50125 35.0475,-12.47 3.0675,-0.635 6.15875,-1.27625 9.28875,-1.92375 3.155,-0.4925 6.365,-0.88375 9.6075,-1.34375 6.5175,-0.67375 13.26125,-1.1175 20.3,-0.98125 -2.35625,0.10125 -4.62,0.19875 -6.81625,0.2925 -2.1925,0.12125 -4.3025,0.4475 -6.3725,0.65 -2.065,0.25625 -4.0975,0.39625 -6.0825,0.73 -1.98,0.3575 -3.9375,0.71125 -5.8975,1.06625 -7.8325,1.3925 -15.52375,3.56 -24.46875,6.58125 3.1675,-0.87625 5.94625,-1.64375 8.44625,-2.33625 1.24,-0.37875 2.4475,-0.5975 3.59125,-0.8275 1.1425,-0.23 2.22875,-0.45 3.27375,-0.6625 2.09125,-0.40625 3.9975,-0.86 5.87625,-1.17375 1.8875,-0.27625 3.72,-0.54375 5.61625,-0.82 4.34625,-0.80625 8.76125,-1.02875 13.14875,-1.42875 2.1925,-0.26 4.40125,-0.18875 6.60125,-0.2525 2.2025,-0.0213 4.405,-0.115 6.60375,-0.0825 l 6.59125,0.3325 3.29375,0.16125 3.275,0.3825 6.54375,0.76625 c 2.1725,0.3175 4.31875,0.7875 6.47875,1.16875 4.34375,0.66875 8.55,1.93125 12.8,2.985 l 1.59,0.4125 1.5575,0.51875 3.115,1.035 3.115,1.03 c 1.04,0.33625 2.0825,0.67 3.0825,1.115 4.02375,1.7025 8.15125,3.17125 12.005,5.23125 1.94625,0.9825 3.935,1.88625 5.85,2.92375 l 5.645,3.2925 c 0.9375,0.555 1.89625,1.075 2.815,1.65625 l 2.69375,1.8425 5.395,3.66875 5.1075,4.04875 2.55625,2.0175 c 0.83875,0.69 1.6075,1.45875 2.415,2.1825 l 4.79875,4.39875 c 1.56875,1.495 2.9875,3.14 4.49375,4.69875 3.085,3.0575 5.68,6.53875 8.4325,9.88375 l 1.025,1.26 c 0.3275,0.43125 0.61875,0.88875 0.93125,1.33125 l 1.84625,2.6725 c 1.2075,1.7975 2.52375,3.525 3.64875,5.37375 l 3.2825,5.60875 1.64625,2.80125 1.42125,2.92375 2.85875,5.84125 c 0.93375,1.95624 1.6325,4.01749 2.46625,6.01999 l 1.20875,3.02125 c 0.3975,1.01 0.84,2.00375 1.12625,3.05375 l 1.95,6.22 c 0.30625,0.9725 0.61875,1.96625 0.9375,2.9775 0.305,1.01125 0.4875,2.0425 0.745,3.0925 0.48375,2.10125 0.985,4.275 1.5,6.515 0.13,0.56 0.26125,1.125 0.39375,1.695 0.11125,0.59 0.19,1.2275 0.29,1.84625 0.18625,1.2475 0.375,2.5125 0.5675,3.795 0.19125,1.2825 0.385,2.58125 0.58,3.8975 0.0975,0.65625 0.19625,1.31875 0.295,1.985 l 0.11125,0.76 0.0775,0.99 c 0.20875,2.645 0.4225,5.35125 0.63875,8.1125 0.17875,2.7625 0.545,5.58125 0.495,8.44875 0.0163,5.735 0.34875,11.68875 -0.16875,17.74875 -0.38875,12.1675 -2.4375,24.81375 -5.60625,37.38125 -0.43125,1.5625 -0.865,3.12875 -1.29875,4.69875 l -0.65,2.3575 -0.32625,1.18 -0.4075,1.155 c -1.1,3.075 -2.20375,6.16 -3.31,9.25 -2.54875,6.04 -5.11875,12.11125 -8.37,17.81125 -6.26375,11.515 -13.92375,22.1475 -22.38125,31.49875 -8.555,9.27375 -17.81375,17.29 -27.025,24.06375 -9.16,6.86625 -18.52875,12.10625 -26.965,16.56375 -4.3125,2.07 -8.29,4.16875 -12.175,5.715 -1.91875,0.8175 -3.76375,1.60125 -5.5275,2.3525 -1.75875,0.75875 -3.50875,1.3225 -5.13,1.94125 -1.035,0.38875 -2.31,0.8675 -3.71625,1.395 -1.40125,0.54375 -2.93375,1.13875 -4.52875,1.64625 -3.16125,1.09125 -6.4175,2.215 -8.89375,3.06875 -15.565,5.125 -31.5075,8.7625 -47.66125,11.06875 -2.02125,0.27 -4.03875,0.605 -6.0675,0.82375 l -6.095,0.6125 c -4.0625,0.4875 -8.14875,0.60375 -12.2375,0.8825 -2.045,0.1625 -4.0925,0.13625 -6.1425,0.19125 l -6.155,0.10875 c -2.0275,-0.0462 -4.0575,-0.0912 -6.08875,-0.13875 -2.0275,-0.0362 -4.05875,-0.0712 -6.19125,-0.25 -10.9525,-0.53375 -23.43375,-2.2675 -34.265,-4.765 -7.36625,-1.81625 -14.71875,-3.73375 -21.84625,-6.30625 -3.61126,-1.1575 -7.09626,-2.635 -10.62926,-3.99375 -1.76512,-0.68375 -3.46587,-1.51125 -5.20262,-2.26 -1.72025,-0.7825 -3.4785,-1.48875 -5.15088,-2.36875 l -5.07125,-2.53 c -1.70025,-0.825 -3.30912,-1.815 -4.97025,-2.7125 -3.337,-1.77375 -6.50387,-3.82375 -9.6885,-5.84375 -6.22562,-4.23625 -12.34524,-8.66 -17.91012,-13.71 l -2.126,-1.84875 -2.02787,-1.95125 -4.03563,-3.92 c -2.51025,-2.78 -5.17875,-5.42625 -7.48187,-8.3775 -4.85888,-5.69875 -9.06738,-11.9075 -12.84288,-18.33875 l -2.73625,-4.88125 -2.43062,-5.0375 c -0.39463,-0.845 -0.83013,-1.67125 -1.19288,-2.53 l -1.046,-2.5925 c -0.67475,-1.73625 -1.45062,-3.43625 -2.04824,-5.2025 -1.15975,-3.5425 -2.42588,-7.05375 -3.26225,-10.695 -1.04538,-3.58375 -1.645,-7.27375 -2.36275,-10.9375 -2.26513,-13.0425 -2.45175,-27.67 -0.6075,-41.545 l -0.27925,-0.49625 -0.7095,5.45875 -0.17825,1.365 -0.0927,1.37 -0.18363,2.7425 c -0.1045,1.8275 -0.2905,3.655 -0.33,5.485 l -0.022,5.48875 c 0.001,0.91375 -0.022,1.83 -0.002,2.74375 l 0.166,2.73625 0.32675,5.47375 0.67863,5.43625 0.33937,2.71875 c 0.1445,0.9 0.335,1.7925 0.5005,2.69 l 1.022,5.38125 1.36325,5.3025 0.68513,2.65125 0.85537,2.6 1.72325,5.1975 2.05125,5.08125 c 0.3515,0.8425 0.65762,1.70375 1.04687,2.53125 l 1.1865,2.47 c 0.80813,1.63875 1.5395,3.31625 2.40813,4.925 l 2.67825,4.79 -0.289,0.0763 c -9.4575,-15.64 -15.08837,-33.77625 -16.88925,-51.53375 -0.53262,-7.32625 -0.84562,-14.69375 -0.22162,-22.0375 0.15387,-1.8325 0.16937,-3.6775 0.43362,-5.50125 l 0.70363,-5.48 c 0.1225,-0.9125 0.22212,-1.83125 0.36175,-2.73625 l 0.51225,-2.68625 1.01612,-5.37125 c 0.32175,-1.785 0.88138,-3.64875 1.31,-5.4675 l 1.35988,-5.37875 3.32374,-10.625 c 0.51125,-1.78625 1.189,-3.5125 1.84913,-5.24375 l 1.96725,-5.20125 0.983,-2.60125 0.49262,-1.29875 0.56838,-1.2675 2.2725,-5.06875 2.27087,-5.07 c 0.82913,-1.65375 1.7085,-3.2825 2.56013,-4.925 1.7285,-3.27125 3.354,-6.60125 5.3555,-9.715 3.6625,-6.43 7.80562,-12.56625 12.17325,-18.53125 8.82725,-11.86499 19.108,-22.67374 30.67924,-31.93249 1.97263,-1.48375 3.95213,-2.9725 5.94338,-4.47 1.00687,-0.7325 1.96825,-1.54 3.0215,-2.22125 1.05025,-0.68375 2.10537,-1.37125 3.1645,-2.0625 2.15962,-1.31375 4.14412,-2.96125 6.36375,-4.2875 2.21875,-1.33625 4.46287,-2.6875 6.73937,-4.0575 0.5725,-0.33875 1.13875,-0.69625 1.72375,-1.02125 0.5975,-0.3025 1.195,-0.60625 1.79625,-0.91125 1.205,-0.61125 2.41875,-1.2275 3.64125,-1.84875 0.61251,-0.31125 1.22751,-0.62375 1.84501,-0.93625 0.6275,-0.2925 1.25625,-0.585 1.89,-0.88 1.2775,-0.55 2.59625,-1.00375 3.91,-1.51875 1.3175,-0.5025 2.6475,-1.00875 3.99,-1.52125 1.34,-0.515 2.6825,-1.0525 4.14125,-1.44875 2.8675,-0.86375 5.79125,-1.745 8.78,-2.64625 -2.395,0.68 -4.855,1.38 -7.3275,2.08125 -1.2275,0.37 -2.5025,0.67125 -3.6925,1.095 -1.18625,0.4325 -2.36875,0.8625 -3.5425,1.29 -2.34,0.88375 -4.685,1.63125 -6.875,2.56875 -2.18625,0.955 -4.22876,2.005 -6.17126,2.90875 -0.9675,0.46 -1.9025,0.90375 -2.79875,1.32875 -0.86,0.495 -1.70125,0.93 -2.46537,1.405 -1.58688,0.83625 -2.96338,1.63875 -4.14013,2.27 -1.167,0.625 -2.11475,1.13125 -2.80862,1.50375 -0.66938,0.37875 -1.06338,0.615 -1.165,0.62875 -1.74075,0.28 2.81537,-3.785 12.64162,-9.13875 5.83501,-2.99875 8.21376,-4.2425 3.0625,-2.02875 -1.29625,0.55875 -3.05625,1.3175 -5.35125,2.30625 -2.29425,1.01 -4.98175,2.54375 -8.31675,4.255 -0.83012,0.435 -1.69675,0.88875 -2.601,1.3625 -0.86825,0.53375 -1.772,1.09125 -2.713,1.67 -1.88712,1.15 -3.88662,2.44625 -6.05662,3.8125 -2.13625,1.415 -4.29788,3.11125 -6.67775,4.825 -1.17238,0.88125 -2.42325,1.73875 -3.63963,2.71875 -1.19287,1.0075 -2.42375,2.04625 -3.69237,3.1175 2.187,-2.63875 17.4375,-14.36375 27.49312,-19.23625 2.4625,-1.29 4.42775,-2.4525 5.71775,-3.01875 1.27625,-0.59375 1.7525,-0.84125 1.085,-0.59875 -0.35,0.1375 -0.96625,0.37875 -1.90625,0.7475 -0.46625,0.2075 -1.0005,0.48375 -1.62637,0.78625 -0.15625,0.0763 -0.31838,0.15625 -0.48488,0.23875 -0.0904,0.0288 -0.15437,0.11 -0.26912,0.0975 l -0.25875,0.13625 c -0.352,0.1825 -0.71975,0.3875 -1.1235,0.58 -1.607,0.7925 -3.57525,1.765 -5.94638,2.935 -1.185,0.5925 -2.37637,1.39625 -3.76075,2.11625 -1.32412,0.8175 -2.7495,1.69875 -4.28025,2.64625 -2.24062,1.1175 -3.08537,1.485 -4.32412,2.16625 -1.24275,0.6775 -2.87163,1.68625 -6.55088,4.305 z m -21.40224,20.08625 c -1.21338,1.3675 -2.53625,2.86 -3.958,4.46375 -0.733,0.78375 -1.42875,1.6475 -2.12413,2.55875 -0.707,0.9 -1.436,1.82875 -2.1855,2.78375 -1.4805,1.9225 -3.12887,3.8875 -4.69825,6.05375 -1.52387,2.19874 -3.11325,4.49249 -4.75875,6.86749 -6.37412,9.61875 -12.9805,21.03 -18.209,33.54875 -1.46775,3.06 -2.61775,6.28 -3.84325,9.48 -1.19187,3.2125 -2.542,6.385 -3.49462,9.68125 -1.041,3.26875 -2.07963,6.5325 -3.11137,9.7725 -0.85551,3.27625 -1.70513,6.53 -2.54388,9.745 -3.09625,13.23375 -4.38925,25.94625 -4.3555,37.0275 l 0.019,-4.52125 c 0.0254,-1.50625 -0.0381,-3.01625 0.1065,-4.51625 0.2255,-3.00125 0.34963,-6.01375 0.6655,-9.005 l 1.17875,-8.95 1.71962,-8.9575 c 0.65138,-2.915 1.42238,-5.72 2.1285,-8.58875 l 0.2705,-1.07 0.13575,-0.535 0.0674,-0.2675 0.0679,-0.24125 0.042,-0.13375 0.67288,-2.14125 1.34712,-4.2875 1.34913,-4.29 0.67625,-2.14625 c 0.24612,-0.71 0.52737,-1.40625 0.789,-2.11125 1.06788,-2.8075 2.13625,-5.62 3.20663,-8.4375 4.61612,-11.11875 9.76712,-22.15125 16.37149,-32.46 l 2.40975,-3.90625 c 0.84663,-1.275 1.75825,-2.51125 2.63575,-3.77 1.79588,-2.49125 3.49463,-5.05874 5.38138,-7.49624 1.937,-2.39875 3.87787,-4.80375 5.82362,-7.21375 0.94288,-1.23 2.002,-2.365 3.05913,-3.50375 l 3.15875,-3.4325 z m 46.51599,264.55749 -0.78562,-0.1075 c -11.4565,-4.85 -22.45313,-10.8 -32.78025,-17.77125 -10.334,-6.95625 -19.96187,-15.01875 -28.49612,-24.155 -8.53213,-9.13 -15.959,-19.34375 -21.853,-30.415 -5.88813,-11.07375 -10.11125,-23.03125 -12.61763,-35.3125 l 0.70113,1.165 c 0.25588,1.5375 0.6685,3.04 1.06637,4.54625 l 1.18313,4.52 c 0.85162,2.995 1.92775,5.92375 2.88475,8.88875 1.16463,2.8875 2.2955,5.79375 3.546,8.645 l 2.03025,4.20875 c 0.68113,1.40125 1.32413,2.82125 2.1235,4.16 5.919,10.96375 13.34962,21.07875 21.8725,30.12125 17.07725,18.12625 38.36037,31.84375 61.12499,41.50625 z m 305.43251,-170.985 c -0.23875,15.88875 -2.61625,31.145 -6.7025,45.52625 -4.09375,14.38375 -10.0125,27.8875 -17.585,40.255 -7.5675,12.37125 -16.7725,23.59875 -27.31,33.58375 -10.51875,10.01125 -22.36,18.80125 -35.30875,26.38625 13.2175,-7.925 25.15875,-17.04625 35.66125,-27.295 10.52625,-10.22125 19.6025,-21.595 27.02375,-33.97625 7.4275,-12.38 13.19,-25.75875 17.23875,-39.905 4.01625,-14.14875 6.525,-29.055 6.9825,-44.575 z M 303.59478,371.8132 l -2.6525,0.655 c 27.62625,-12.8325 58.85125,-18.145 89.35875,-15.0225 l 1.12,0.7175 c -14.85625,-1.57875 -28.88125,-0.98 -43.14375,1.19125 -1.7775,0.31125 -3.56375,0.6225 -5.36125,0.9375 -1.7925,0.3375 -3.62,0.55625 -5.40875,1.04375 -1.79875,0.42875 -3.61375,0.86 -5.445,1.29625 -0.91625,0.215 -1.83625,0.43125 -2.76125,0.64875 -0.92625,0.2125 -1.85875,0.4225 -2.77125,0.725 -3.665,1.14125 -7.4575,2.1725 -11.285,3.435 -1.89,0.6975 -3.80625,1.405 -5.75125,2.12375 -0.97375,0.3575 -1.95375,0.71625 -2.9425,1.07875 -0.9925,0.35375 -1.99,0.71625 -2.95625,1.17 z m -179.15688,148.12999 0.1255,0.7325 c -3.70112,12.29 -6.16937,25.1275 -6.92825,38.04375 -0.76112,12.91375 0.15725,25.97625 3.04013,38.6375 5.87012,25.30625 19.43112,48.68625 38.06887,66.67625 l -0.43312,-0.17875 c -18.61525,-18.09625 -32.23637,-41.54625 -38.00588,-66.97875 -2.84087,-12.715 -3.73587,-25.82375 -2.93062,-38.7825 l 0.32462,-4.86 c 0.14113,-1.61625 0.39601,-3.22 0.58888,-4.83125 l 0.6235,-4.8275 c 0.25487,-1.60625 0.59625,-3.20625 0.89112,-4.80875 l 0.919,-4.8075 c 0.3315,-1.5875 0.76513,-3.1125 1.14213,-4.67125 l 1.17188,-4.655 c 0.10887,-0.41375 0.17087,-0.715 0.31737,-1.2225 l 0.36175,-1.155 0.72312,-2.31125 z m 317.04313,-146.56374 -1.055,-1.01625 c 13.5225,6.0825 26.2175,14.1075 37.485,23.85125 11.27125,9.7325 21.09625,21.1875 29.00125,33.85875 0.2225,0.86125 0.44625,1.73 0.66875,2.59375 -7.69875,-12.93375 -17.38875,-24.6725 -28.6,-34.6775 -11.20625,-10.015 -23.91125,-18.3 -37.5,-24.61 z m -188.97625,338.40999 -0.60375,-0.4875 6.42375,1.355 6.4725,1.1025 c 2.1525,0.40375 4.32625,0.6575 6.4975,0.93625 2.18125,0.25625 4.315,0.61 6.5375,0.785 4.34375,0.35 8.655,0.8275 13.0575,0.935 2.1925,0.0838 4.385,0.21 6.575,0.2575 l 6.5625,0.01 c 17.50375,-0.035 34.975,-1.94625 52.12875,-5.36875 l -0.62625,0.52875 c -16.95375,3.3475 -34.2175,5.18125 -51.50875,5.215 l -6.48375,-0.0138 c -2.16375,-0.04 -4.33375,-0.17125 -6.49875,-0.25375 -4.35875,-0.11 -8.6125,-0.56375 -12.89625,-0.91875 -8.64125,-0.94 -17.18875,-2.15875 -25.6375,-4.0825"
       id="path3018"
       style="fill:#231f20;fill-opacity:1;fill-rule:evenodd;stroke:none" />
  </g>
</svg>
