<?xml version="1.0" encoding="UTF-8" standalone="no"?>
<!-- Created with Inkscape (http://www.inkscape.org/) -->

<svg
   xmlns:dc="http://purl.org/dc/elements/1.1/"
   xmlns:cc="http://creativecommons.org/ns#"
   xmlns:rdf="http://www.w3.org/1999/02/22-rdf-syntax-ns#"
   xmlns:svg="http://www.w3.org/2000/svg"
   xmlns="http://www.w3.org/2000/svg"
   xmlns:sodipodi="http://sodipodi.sourceforge.net/DTD/sodipodi-0.dtd"
   xmlns:inkscape="http://www.inkscape.org/namespaces/inkscape"
   width="334.80884"
   height="134.9225"
   id="svg10955"
   version="1.1"
   inkscape:version="0.48.3.1 r9886"
   sodipodi:docname="New document 40">
  <defs
     id="defs10957" />
  <sodipodi:namedview
     id="base"
     pagecolor="#ffffff"
     bordercolor="#666666"
     borderopacity="1.0"
     inkscape:pageopacity="0.0"
     inkscape:pageshadow="2"
     inkscape:zoom="0.35"
     inkscape:cx="313.833"
     inkscape:cy="-15.395893"
     inkscape:document-units="px"
     inkscape:current-layer="layer1"
     showgrid="false"
     fit-margin-top="0"
     fit-margin-left="0"
     fit-margin-right="0"
     fit-margin-bottom="0"
     inkscape:window-width="472"
     inkscape:window-height="415"
     inkscape:window-x="1294"
     inkscape:window-y="24"
     inkscape:window-maximized="0" />
  <metadata
     id="metadata10960">
    <rdf:RDF>
      <cc:Work
         rdf:about="">
        <dc:format>image/svg+xml</dc:format>
        <dc:type
           rdf:resource="http://purl.org/dc/dcmitype/StillImage" />
        <dc:title></dc:title>
      </cc:Work>
    </rdf:RDF>
  </metadata>
  <g
     inkscape:label="Layer 1"
     inkscape:groupmode="layer"
     id="layer1"
     transform="translate(-61.167,-382.04379)">
    <g
       id="g11010"
       transform="translate(-682.04455,-252.46604)">
      <path
         inkscape:connector-curvature="0"
         d="m 759.9641,753.98625 c 6.25875,0.25 13.64875,0.5525 20.5425,0.66375 13.915,0.1825 27.75,0.35875 41.60625,0.3875 13.8575,0.03 27.735,0.0638 41.745,0.245 1.7275,0.0213 3.52625,-0.035 5.26375,-0.0138 l 21.27625,0.2725 c 6.11,0.055 12.22375,0.14625 18.33625,0.1625 l 18.34125,0.015 c 7.9275,-10e-4 15.88875,-0.11375 23.76375,-0.0762 12.065,0.0387 24.0675,0.26625 36.095,0.16375 2.10125,-0.007 4.62875,-0.0762 6.26,-0.0225 7.86,0.34875 15.625,-0.04 23.215,-0.16 3.7925,-0.12625 7.5425,-0.18 11.2413,-0.4525 3.605,-0.2425 7.2512,-0.4875 10.9162,-0.735 3.1725,-0.215 5.8438,-0.4425 8.6125,-0.675 2.7688,-0.25 5.6363,-0.41875 9.2075,-0.79625 -3.9212,0.245 -7.5775,0.19 -10.8237,0.2675 -3.2438,0.0425 -6.0775,0.0775 -8.3538,0.105 -2.8825,-0.2325 -4.9225,-0.42375 -7.3937,-0.67875 2.89,-0.0463 6.3975,-0.0775 9.6487,-0.155 l 8.6313,-0.2625 c -2.8038,-0.0488 -5.6038,-0.0975 -8.4188,-0.1475 -6.1875,-0.0688 -12.4412,-0.13875 -20.23,-0.225 9.7863,-0.465 16.9813,-0.6525 23.5288,-0.83 4.5037,-0.11375 1.7712,-0.2525 -2.5375,-0.45625 -3.3075,-0.1525 -6.5113,-0.3275 -9.8263,-0.5275 -3.3162,-0.21125 -6.74,-0.4325 -10.4875,-0.6075 5.025,-0.135 8.4813,-0.10375 13.5363,-0.0788 -3.5225,-0.2475 -5.3038,-0.43375 -7.3638,-0.535 -9.54,-0.27875 -19.0175,-0.555 -28.41875,-0.83 -9.44875,-0.0862 -18.86875,-0.18625 -28.24625,0.13125 -8.7975,0.28 -23.215,0.31 -37.27875,0.16375 -14.065,-0.13625 -27.77625,-0.505 -35.1625,-0.8125 -1.17,-0.0563 -3.44,-0.0638 -4.83,-0.015 -8.65625,0.2975 -17.26625,0.59375 -25.9275,0.89125 -2.86625,0.0888 -6.19875,0.15375 -9.12125,0.145 -16.02625,-0.0275 -31.95375,-0.1475 -47.99375,-0.0625 -3.5525,0.0275 -7.4275,0.18125 -11.1525,0.2725 l -0.12,0.2175 c 7.79625,-0.0125 15.5925,-0.07 23.39,-0.01 l -0.0213,0.1975 c -4.84875,0.0575 -9.78875,0.1975 -14.53,0.22625 -15.605,0.0875 -31.11875,0.11 -46.70875,0.4375 -5.22,0.11625 -10.52875,0.23375 -16.96375,0.3775 5.12875,0.14 11.4225,0.23875 11.61875,0.44875 0.4225,0.4475 -1.135,0.94125 -4.00875,1.35625 -3.37875,0.47875 -2.735,0.54 10.86125,0.61875 -1.7375,0.31125 -19.545,0.24625 -4.91375,0.74375 1.2625,0.2775 0.91625,0.55875 3.195,0.655 z m 7.43,-0.1175 c 7.39125,-0.1625 25.71125,-0.11125 36.7875,0.545 -12.09,-0.18 -24.185,-0.23875 -36.7875,-0.545 z m 81.06375,0.38 -0.195,0.13375 -37.7925,-0.26125 0.32125,-0.305 37.66625,0.4325 z m 105.2625,-4.27375 c -16.64,0.49 -30.905,0.26125 -46.6375,-0.1825 16.15875,0.0625 30.3775,0.11875 46.6375,0.1825 z m 83.55005,4.025 0.6712,0.1825 -11.3812,0.5275 c -3.7925,0.16375 -7.5863,0.22125 -11.3788,0.3425 l -0.2962,-0.27375 c 3.7062,-0.1125 7.17,-0.305 10.7712,-0.46625 3.6025,-0.20875 7.345,-0.33875 11.6138,-0.3125 z m -245.9138,-0.79625 0.17,-0.21125 39.535,0.32625 -0.11,0.11875 -39.595,-0.23375 z m 210.4563,1.30125 0.3437,0.225 c -7.37375,0.22625 -14.74875,0.35375 -22.12375,0.545 l -0.63625,-0.38375 c 7.4725,-0.13625 14.9425,-0.22125 22.4163,-0.38625 z m -143.53255,-1.6325 -0.1775,-0.23 26.93875,-0.035 -0.185,0.23625 -26.57625,0.0287"
         style="fill:#231f20;fill-opacity:1;fill-rule:evenodd;stroke:none"
         id="path4866" />
      <g
         id="g10902">
        <path
           id="path3260"
           style="fill:#ffffff;fill-opacity:1;fill-rule:evenodd;stroke:none"
           d="m 1077.1791,696.3825 c -40.5012,0.12 -81.00375,0.2375 -121.5125,0.3575 l -0.81375,-0.32875 c 41.0525,-0.11625 82.11005,-0.2325 123.16755,-0.35 l -0.8413,0.32125"
           inkscape:connector-curvature="0" />
        <path
           id="path4868"
           style="fill:#ffffff;fill-opacity:1;fill-rule:evenodd;stroke:none"
           d="m 804.1816,754.41375 c -12.09,-0.18 -24.185,-0.23875 -36.7875,-0.545 7.39125,-0.1625 25.71125,-0.11125 36.7875,0.545"
           inkscape:connector-curvature="0" />
        <path
           id="path4870"
           style="fill:#ffffff;fill-opacity:1;fill-rule:evenodd;stroke:none"
           d="m 810.7916,753.81625 37.66625,0.4325 -0.195,0.13375 -37.7925,-0.26125 0.32125,-0.305"
           inkscape:connector-curvature="0" />
        <path
           id="path4876"
           style="fill:#ffffff;fill-opacity:1;fill-rule:evenodd;stroke:none"
           d="m 830.9516,753.4375 -39.595,-0.23375 0.17,-0.21125 39.535,0.32625 -0.11,0.11875"
           inkscape:connector-curvature="0" />
        <path
           id="path4880"
           style="fill:#ffffff;fill-opacity:1;fill-rule:evenodd;stroke:none"
           d="m 884.8566,752.84375 -26.57625,0.0287 -0.1775,-0.23 26.93875,-0.035 -0.185,0.23625"
           inkscape:connector-curvature="0" />
        <path
           id="path4882"
           style="fill:#231f20;fill-opacity:1;fill-rule:evenodd;stroke:none"
           d="m 791.3016,738.65125 c 3.07625,0.16 6.30375,0.3275 9.5575,0.4975 3.32625,0.14625 6.72625,0.15625 10.00875,0.21375 13.24875,0.14625 26.42125,0.30875 39.61,0.28625 13.1925,-0.0187 26.40625,-0.0337 39.745,0.0863 1.64375,0.015 3.355,-0.0438 5.01,-0.0313 l 20.25625,0.1825 c 11.63625,0.0475 23.2825,0.0325 34.91875,0.0225 7.5475,-0.0113 15.12625,-0.1225 22.625,-0.0988 l 34.36375,0.24 c 2,0.0213 4.4075,-0.0263 5.96,0.0125 7.485,0.23375 14.8775,0.21125 22.1013,0.0538 3.6125,-0.0775 7.18,-0.19125 10.6975,-0.325 3.5162,-0.2525 6.9787,-0.59625 10.3825,-0.8825 6.035,-0.5825 10.1537,-1.3225 16.9412,-1.89375 -7.4612,0.34625 -13.9137,0.6775 -18.2475,0.72 -2.7475,-0.235 -4.69,-0.43375 -7.0475,-0.70125 2.7525,-0.0625 6.09,-0.11375 9.185,-0.21 2.8725,-0.095 5.485,-0.25375 8.2113,-0.3525 -2.6688,-0.0288 -5.3488,-0.06 -8.0125,-0.0888 -5.9,-0.06 -11.8488,-0.12 -19.2638,-0.195 9.31,-0.515 16.1575,-0.77875 22.3888,-0.91875 4.2875,-0.065 1.6837,-0.23625 -2.4225,-0.5 -6.2988,-0.34375 -12.2138,-0.855 -19.3513,-1.1325 4.7825,-0.15625 8.07,-0.31 12.8825,-0.205 -3.3537,-0.2675 -5.055,-0.5375 -7.015,-0.53875 -9.0412,-0.17125 -18.0637,-0.3425 -27.06,-0.41875 l -6.7437,-0.0388 c -2.2375,0.0288 -4.475,0.0588 -6.7263,0.0888 -4.48125,0.0775 -8.9525,0.18625 -13.4175,0.34125 -16.745,0.58 -54.8975,0.3125 -68.9675,-0.3875 -1.1175,-0.0525 -3.2775,-0.0812 -4.59875,-0.0287 -8.2375,0.28875 -16.43625,0.57375 -24.675,0.8625 -2.725,0.0875 -5.89875,0.1525 -8.6825,0.15 -15.25625,0.005 -30.4175,-0.1025 -45.6875,0.0238 -3.385,0.0362 -7.07,0.195 -10.61625,0.2925 l -0.1125,0.205 c 7.4225,-0.0337 14.845,-0.1275 22.26875,-0.0775 l -0.0187,0.1875 c -4.615,0.0588 -9.3175,0.205 -13.83,0.2475 l -22.23625,0.19375 -11.1075,0.10625 -11.1175,0.37875 c -4.96875,0.2025 -10.01625,0.40875 -16.13875,0.65875 4.88125,-0.025 10.8725,-0.0438 11.06,0.1275 0.40875,0.36125 -1.07125,0.79 -3.80375,1.115 -3.21125,0.36625 -2.59625,0.405 10.34875,0.52875 -1.65125,0.29125 -18.60625,0.0512 -4.67,0.6025 1.20375,0.24875 0.87625,0.4825 3.0475,0.6 z m 7.07375,-0.003 c 3.5175,-0.004 9.635,-0.12125 16.19375,-0.0525 6.56,0.0525 13.55625,0.2125 18.83375,0.50875 -5.755,-0.0612 -11.5125,-0.1225 -17.33125,-0.185 -2.90875,-0.03 -5.83,-0.0625 -8.78,-0.0925 -2.945,-0.0237 -5.91625,-0.0562 -8.91625,-0.17875 z m 77.17625,0.17625 -0.18625,0.125 c -11.99,-0.0463 -23.98625,-0.0438 -35.97875,-0.13125 l 0.3025,-0.2875 35.8625,0.29375 z m 100.16,-4.21375 C 959.87785,735.11 946.2941,734.94 931.31285,734.59 c 15.38375,0.007 28.92,0.0137 44.39875,0.0213 z m 79.5875,3.8375 0.6425,0.1925 c -3.6087,0.18875 -7.2187,0.505 -10.8287,0.61125 l -10.8313,0.26125 -0.2837,-0.28625 c 7.0562,-0.19875 13.1712,-0.69875 21.3012,-0.77875 z m -234.11875,-0.45375 0.16125,-0.1975 37.6375,0.21125 -0.1025,0.1125 c -12.5675,0.006 -25.13125,-0.0625 -37.69625,-0.12625 z m 200.36375,0.8325 0.3325,0.22375 -10.5275,0.26625 -10.5275,0.16375 -0.61,-0.365 10.6663,-0.0975 10.6662,-0.19125 z m -136.65875,-1.3125 -0.17,-0.215 25.645,-0.1025 -0.17375,0.21875 -25.30125,0.0987"
           inkscape:connector-curvature="0" />
        <path
           id="path4884"
           style="fill:#ffffff;fill-opacity:1;fill-rule:evenodd;stroke:none"
           d="m 833.40285,739.105 c -5.755,-0.0612 -11.5125,-0.1225 -17.33125,-0.185 -2.90875,-0.03 -5.83,-0.0625 -8.78,-0.0925 -2.945,-0.0237 -5.91625,-0.0562 -8.91625,-0.17875 3.5175,-0.004 9.635,-0.12125 16.19375,-0.0525 6.56,0.0525 13.55625,0.2125 18.83375,0.50875"
           inkscape:connector-curvature="0" />
        <path
           id="path4886"
           style="fill:#ffffff;fill-opacity:1;fill-rule:evenodd;stroke:none"
           d="m 839.6891,738.53125 35.8625,0.29375 -0.18625,0.125 c -11.99,-0.0463 -23.98625,-0.0438 -35.97875,-0.13125 l 0.3025,-0.2875"
           inkscape:connector-curvature="0" />
        <path
           id="path4888"
           style="fill:#ffffff;fill-opacity:1;fill-rule:evenodd;stroke:none"
           d="m 931.31285,734.59 c 15.38375,0.007 28.92,0.0137 44.39875,0.0213 -15.83375,0.4987 -29.4175,0.3287 -44.39875,-0.0213"
           inkscape:connector-curvature="0" />
        <path
           id="path4892"
           style="fill:#ffffff;fill-opacity:1;fill-rule:evenodd;stroke:none"
           d="m 858.8766,738.12125 c -12.5675,0.006 -25.13125,-0.0625 -37.69625,-0.12625 l 0.16125,-0.1975 37.6375,0.21125 -0.1025,0.1125"
           inkscape:connector-curvature="0" />
        <path
           id="path4896"
           style="fill:#ffffff;fill-opacity:1;fill-rule:evenodd;stroke:none"
           d="m 910.1866,737.41625 -25.30125,0.0987 -0.17,-0.215 25.645,-0.1025 -0.17375,0.21875"
           inkscape:connector-curvature="0" />
        <path
           id="path4898"
           style="fill:#231f20;fill-opacity:1;fill-rule:evenodd;stroke:none"
           d="m 805.6491,719.865 c 2.775,0.1325 5.66,0.2675 8.55875,0.405 2.9775,0.12 6.025,0.155 8.9675,0.21125 11.8775,0.19125 23.68625,0.31625 35.5125,0.44 11.8275,0.10625 23.6775,0.19625 35.6325,0.41125 1.45625,0.005 3.03,0.0113 4.49375,0.0163 6.05375,0.1075 12.11,0.21375 18.15625,0.3225 l 31.3075,0.45375 c 6.76625,0.0888 13.565,-0.0438 20.29125,0.0187 10.25875,0.1025 20.5375,0.205 30.80875,0.30875 1.79375,0.0325 3.95255,-0.0125 5.34505,-0.0325 6.7125,-0.0512 13.34,0.04 19.8262,-0.1275 6.4825,-0.185 12.8225,-0.60625 18.9375,-0.91625 5.4263,-0.29375 9.1363,-0.63875 15.2388,-0.95375 -6.6963,0.05 -12.4888,0.0937 -16.375,0.12125 -2.4575,-0.1875 -4.195,-0.3425 -6.3013,-0.54375 2.465,-0.0213 5.395,-0.0475 8.2413,-0.0725 2.425,-0.0512 4.915,-0.105 7.3725,-0.1575 -2.3938,-0.05 -4.825,-0.1 -7.1825,-0.14875 -5.3,-0.0813 -10.6225,-0.16 -17.265,-0.26125 8.36,-0.30625 14.5075,-0.4125 20.0987,-0.5175 3.8475,-0.065 1.5163,-0.18125 -2.1562,-0.3525 -5.64,-0.26125 -10.9338,-0.57875 -17.3213,-1.00875 4.2913,0.005 7.2413,0.0213 11.555,0.0662 -3.0012,-0.20125 -4.5187,-0.35125 -6.275,-0.43625 -8.0925,-0.49 -16.185,-0.54375 -24.2425,-0.8625 l -6.04,-0.2675 c -2.0125,-0.0175 -4.025,-0.009 -6.035,-0.004 -4.02,0.0138 -8.035,0.0588 -12.03875,0.1475 -7.5175,0.16375 -19.825,0.09 -31.8275,-0.13125 -12.00625,-0.1225 -23.70875,-0.3375 -30.005,-0.64625 -1.00125,-0.0487 -2.93875,-0.0637 -4.125,-0.0313 l -22.15125,0.6 c -2.44625,0.0588 -5.295,0.095 -7.79125,0.0762 -13.68,-0.0925 -27.27375,-0.2275 -40.97,-0.2275 -3.03375,-0.004 -6.34625,0.09 -9.52625,0.1375 l -0.10625,0.16875 19.9675,0.1125 -0.02,0.15375 c -4.14375,0.04 -8.3625,0.11875 -12.41,0.11 l -19.9425,-0.0475 -9.96375,-0.0175 -9.97625,0.14875 c -4.46625,0.095 -8.995,0.19125 -14.49125,0.30875 4.37625,0.095 9.7475,0.17625 9.91125,0.34125 0.35375,0.35 -0.9875,0.735 -3.45,1.0375 -2.89125,0.34875 -2.34375,0.3975 9.2625,0.54625 -1.48875,0.245 -16.69,0.0462 -4.21,0.5525 1.07125,0.23125 0.77125,0.45 2.71375,0.5475 z m 6.345,-0.0238 c 6.315,-0.10625 21.9525,-0.0412 31.39875,0.51625 -10.3225,-0.17625 -20.6425,-0.25375 -31.39875,-0.51625 z m 69.1975,0.605 -0.1675,0.10375 -32.2575,-0.4 0.28,-0.2325 32.145,0.52875 z m 89.945,-2.93125 c -14.2125,0.28875 -26.385,0.0462 -39.80875,-0.30875 6.8975,0.035 13.38,0.0675 19.875,0.1 6.49125,0.0675 12.99625,0.13625 19.93375,0.20875 z m 71.2525,3.52625 0.5713,0.14125 c -6.4825,0.195 -12.9713,0.5125 -19.4488,0.6575 l -0.2487,-0.215 c 3.1675,-0.05 6.1287,-0.2675 9.2075,-0.4025 3.08,-0.14 6.275,-0.22 9.9187,-0.18125 z m -209.92375,-1.6675 0.15125,-0.16625 33.7425,0.4275 -0.0963,0.0937 -33.7975,-0.355 z m 179.64255,1.93375 0.2887,0.17625 c -3.1487,0.055 -6.3012,0.22875 -9.45,0.345 l -9.44875,0.11625 -0.53625,-0.31875 9.5713,-0.0425 c 3.1912,-0.0913 6.3825,-0.23 9.575,-0.27625 z m -122.50255,-1.89 -0.14875,-0.1825 23.00125,0.0987 -0.1625,0.185 -22.69,-0.10125"
           inkscape:connector-curvature="0" />
        <path
           id="path4900"
           style="fill:#ffffff;fill-opacity:1;fill-rule:evenodd;stroke:none"
           d="m 843.39285,720.3575 c -10.3225,-0.17625 -20.6425,-0.25375 -31.39875,-0.51625 6.315,-0.10625 21.9525,-0.0412 31.39875,0.51625"
           inkscape:connector-curvature="0" />
        <path
           id="path4902"
           style="fill:#ffffff;fill-opacity:1;fill-rule:evenodd;stroke:none"
           d="m 849.0466,719.9175 32.145,0.52875 -0.1675,0.10375 -32.2575,-0.4 0.28,-0.2325"
           inkscape:connector-curvature="0" />
        <path
           id="path4904"
           style="fill:#ffffff;fill-opacity:1;fill-rule:evenodd;stroke:none"
           d="m 931.32785,717.20625 c 6.8975,0.035 13.38,0.0675 19.875,0.1 6.49125,0.0675 12.99625,0.13625 19.93375,0.20875 -14.2125,0.28875 -26.385,0.0462 -39.80875,-0.30875"
           inkscape:connector-curvature="0" />
        <path
           id="path4906"
           style="fill:#ffffff;fill-opacity:1;fill-rule:evenodd;stroke:none"
           d="m 1023.2629,721.625 c 3.1675,-0.05 6.1287,-0.2675 9.2075,-0.4025 3.08,-0.14 6.275,-0.22 9.9187,-0.18125 l 0.5713,0.14125 c -6.4825,0.195 -12.9713,0.5125 -19.4488,0.6575 l -0.2487,-0.215"
           inkscape:connector-curvature="0" />
        <path
           id="path4908"
           style="fill:#ffffff;fill-opacity:1;fill-rule:evenodd;stroke:none"
           d="m 866.26285,719.72875 -33.7975,-0.355 0.15125,-0.16625 33.7425,0.4275 -0.0963,0.0937"
           inkscape:connector-curvature="0" />
        <path
           id="path4910"
           style="fill:#ffffff;fill-opacity:1;fill-rule:evenodd;stroke:none"
           d="m 992.9616,721.62625 9.5713,-0.0425 c 3.1912,-0.0913 6.3825,-0.23 9.575,-0.27625 l 0.2887,0.17625 c -3.1487,0.055 -6.3012,0.22875 -9.45,0.345 l -9.44875,0.11625 -0.53625,-0.31875"
           inkscape:connector-curvature="0" />
        <path
           id="path4912"
           style="fill:#ffffff;fill-opacity:1;fill-rule:evenodd;stroke:none"
           d="m 912.29535,719.51875 -22.69,-0.10125 -0.14875,-0.1825 23.00125,0.0987 -0.1625,0.185"
           inkscape:connector-curvature="0" />
        <path
           id="path4916"
           style="fill:#ffffff;fill-opacity:1;fill-rule:evenodd;stroke:none"
           d="m 862.89574,769.43233 c 2.84125,-11.955 3.9375,-24.28125 3.4925,-36.55875 -0.5775,-12.27375 -2.72375,-24.515 -6.57875,-36.305 -1.8925,-5.90375 -4.15625,-11.71375 -6.83125,-17.36125 -2.64625,-5.6375 -5.6075,-11.245 -8.905,-16.52875 -0.78,-1.33375 -1.65,-2.6775 -2.54625,-4.025 l -1.325,-2.01875 -0.66125,-1.01125 c -0.13125,-0.20875 -0.42875,-0.5975 -0.63375,-0.8875 -0.90375,-1.2575 -1.80875,-2.51625 -2.8,-3.7175 -0.945,-1.235 -1.97875,-2.405 -3.00375,-3.585 -4.12,-4.705 -8.80875,-8.97625 -13.7875,-12.92375 2.98875,2.2325 6.3925,5.065 9.93125,8.5325 3.51625,3.44125 7.24625,7.625 10.535,12.3175 3.46125,5.09375 6.75375,10.39 9.935,16.27 3.11375,5.87125 5.98875,12.16375 8.43375,18.74 4.9175,13.13875 7.95,27.4725 8.51125,41.2525 0.60375,13.7775 -1.00375,26.90375 -3.76625,37.81"
           inkscape:connector-curvature="0" />
      </g>
    </g>
  </g>
</svg>
