<?xml version="1.0" encoding="UTF-8" standalone="no"?>
<!-- Created with Inkscape (http://www.inkscape.org/) -->

<svg
   xmlns:dc="http://purl.org/dc/elements/1.1/"
   xmlns:cc="http://creativecommons.org/ns#"
   xmlns:rdf="http://www.w3.org/1999/02/22-rdf-syntax-ns#"
   xmlns:svg="http://www.w3.org/2000/svg"
   xmlns="http://www.w3.org/2000/svg"
   xmlns:sodipodi="http://sodipodi.sourceforge.net/DTD/sodipodi-0.dtd"
   xmlns:inkscape="http://www.inkscape.org/namespaces/inkscape"
   width="246.55357"
   height="218.6833"
   id="svg9024"
   version="1.1"
   inkscape:version="0.48.3.1 r9886"
   sodipodi:docname="New document 13">
  <defs
     id="defs9026" />
  <sodipodi:namedview
     id="base"
     pagecolor="#ffffff"
     bordercolor="#666666"
     borderopacity="1.0"
     inkscape:pageopacity="0.0"
     inkscape:pageshadow="2"
     inkscape:zoom="0.35"
     inkscape:cx="381.13393"
     inkscape:cy="89.341693"
     inkscape:document-units="px"
     inkscape:current-layer="layer1"
     showgrid="false"
     fit-margin-top="0"
     fit-margin-left="0"
     fit-margin-right="0"
     fit-margin-bottom="0"
     inkscape:window-width="472"
     inkscape:window-height="415"
     inkscape:window-x="1294"
     inkscape:window-y="24"
     inkscape:window-maximized="0" />
  <metadata
     id="metadata9029">
    <rdf:RDF>
      <cc:Work
         rdf:about="">
        <dc:format>image/svg+xml</dc:format>
        <dc:type
           rdf:resource="http://purl.org/dc/dcmitype/StillImage" />
        <dc:title></dc:title>
      </cc:Work>
    </rdf:RDF>
  </metadata>
  <g
     inkscape:label="Layer 1"
     inkscape:groupmode="layer"
     id="layer1"
     transform="translate(6.13393,-403.02058)">
    <g
       transform="matrix(0.125,0,0,-0.125,-962.78143,1595.581)"
       id="g7031">
      <path
         inkscape:connector-curvature="0"
         d="m 9500.36,8896.98 c -30.15,72.78 -84.92,134.87 -151.21,174.11 -61.23,38.07 -129.96,58.27 -198.17,68.27 3.11,14.2 5.38,28.68 6.62,43.37 2.48,28.93 0.61,58.64 -5.78,87.43 -6.43,28.76 -17.19,56.65 -32.05,81.85 -14.78,25.25 -33.02,48.07 -53.44,68.19 -41.16,39.98 -90.35,69.39 -142.42,89.34 -52.22,19.72 -107.61,30.92 -164.11,30.94 -20.52,0.09 -43.26,-1.62 -64.77,-5.22 -21.51,-3.56 -41.71,-9.15 -57.4,-14.42 -30.97,-10.17 -61.07,-26 -87.24,-47.79 -13.14,-10.82 -24.87,-23.46 -35.53,-36.88 -10.36,-13.67 -19.29,-28.37 -26.56,-43.74 -14.41,-30.83 -21.74,-63.77 -24.28,-95.81 -0.57,-7.26 -0.81,-14.47 -0.9,-21.64 -19.93,6.25 -40.41,10.84 -61.21,13.31 -45,4.97 -91.19,1.34 -133.77,-13.16 -42.52,-14.27 -82.02,-37.35 -113.19,-69.08 -16.01,-15.36 -29.19,-33.47 -40.72,-52.24 -5.23,-9.77 -10.81,-19.27 -14.67,-29.67 -1.99,-5.15 -4.44,-10.08 -5.97,-15.39 l -4.7,-15.81 c -8.38,-31.93 -9.08,-62.89 -4.85,-91.37 1.79,-14.38 5.77,-27.89 9.62,-41.25 4.93,-12.95 9.59,-25.92 16.32,-37.86 5.8,-12.5 13.87,-23.57 21.31,-35.32 4.08,-5.59 8.52,-10.97 12.86,-16.53 2.19,-2.77 4.39,-5.55 6.61,-8.35 2.42,-2.6 4.86,-5.21 7.31,-7.85 4.93,-5.23 9.94,-10.54 15.05,-15.96 2.73,-2.48 5.49,-4.98 8.29,-7.51 3.35,-1.96 7.07,-3.57 10.59,-5.38 3.54,-1.77 7.1,-3.54 10.71,-5.34 3.72,-1.57 7.47,-3.15 11.25,-4.76 7.39,-3.19 14.93,-6.44 22.66,-9.79 -16.46,7.61 -33.5,14.84 -48.92,24.41 -4.32,1.92 -7.02,5.45 -10.22,8.44 -3.16,3.02 -5.82,6.58 -8.73,9.82 -5.57,6.72 -11.55,12.93 -16.56,19.9 -21.13,26.95 -36.62,56.8 -46.38,86.56 -9.7,29.83 -13.15,59.77 -11.46,87.02 1.35,27.4 8.9,51.65 17.31,72 12.5,25.17 27.2,44.09 43.07,59.79 7.53,8.29 16.38,14.8 24.64,21.93 9.07,6.18 17.75,12.98 27.97,18.31 -22.13,-14.96 -44.38,-35.2 -62.09,-60.12 -17.81,-24.78 -30.77,-54.18 -36.37,-83.89 -5.29,-27.58 -4.53,-54.78 0.5,-80.49 5.2,-25.78 15.39,-49.68 27.94,-72.49 -11.35,22.73 -20.64,46.05 -24.61,71 -4.12,24.81 -4.44,50.69 0.62,77.14 10.37,54.68 43.94,104.73 92.79,138.73 48.67,34.11 113.29,52.66 182.56,44.98 -43.59,3.65 -84.42,-4.22 -119.7,-17.75 -35.5,-13.52 -64.9,-34.81 -88,-58.72 -46.88,-48.15 -63.48,-110.81 -55.54,-165.13 6.49,-37.54 12.54,-43.56 9.33,-32.97 -1.61,10.8 -8.79,39.88 -3.68,74.97 7.39,53.7 38.79,100.65 82.76,131.78 43.98,31.27 100.88,47.56 161.26,42.02 -40.54,1 -74.71,-5.5 -105.66,-18.88 -30.67,-13.52 -59.73,-32.45 -84.24,-63.02 18.34,20.11 35.23,32.33 50.64,41.05 7.57,4.56 15.12,7.84 22.16,11.4 7.49,2.71 14.33,6.32 22.04,8.51 l 12.97,4.15 c 4.37,1.21 8.87,2.02 13.28,3.07 8.77,2.42 17.95,2.9 26.9,4.34 18.15,1.27 36.45,1.63 54.57,-1.09 36.29,-4.42 71.89,-16.33 104.67,-34.49 l 65.89,-36.53 -12.28,74.67 c -9.44,57.31 -5.44,115.5 21.45,159.67 13.03,22.23 31.88,40.42 54.06,54.69 22.49,13.93 48.35,23.78 75.74,29.4 54.88,11.28 114.51,7.36 170.22,-8.17 55.72,-15.57 108.62,-42.74 149.9,-81.13 26.56,-24.6 52.29,-59.1 65.24,-102.71 13.43,-43.37 11.48,-95.57 -6.07,-147.73 l -12.59,-37.43 39.96,-4.31 c 40.61,-4.38 82.52,-10.89 122.89,-24.2 40.16,-13.49 78.97,-32.51 112.63,-58.16 33.68,-25.54 61.95,-57.69 81.79,-93.94 20,-36.14 31.46,-76.29 33.68,-115.96 2.6,-39.63 -3.31,-78.61 -15.63,-113.32 -12.29,-34.78 -30.96,-65.21 -52.61,-89.69 -21.8,-24.33 -45.79,-43.72 -70.23,-56.83 -5.7,-3.9 -12.21,-6.15 -18.05,-9.11 -6.05,-2.57 -11.48,-5.98 -17.51,-7.7 -11.88,-3.77 -22.44,-8.62 -33.23,-10.51 -9.08,-2.06 -22.08,-6 -36.24,-7.67 -7.02,-0.99 -14.01,-2.66 -20.84,-3.21 -6.85,-0.56 -13.31,-1.08 -18.89,-1.54 -4.3,-0.4 -8.6,-0.8 -12.83,-1.19 l -61.88,-5.75 26.99,-52.82 c 16.33,-31.97 31.52,-64.29 43.6,-97.38 11.84,-33.1 21.21,-66.77 26.56,-100.7 11.01,-67.67 4.11,-136.96 -27.34,-196.14 -10.81,-19.92 -25.22,-40.11 -42.49,-58.17 -17.24,-18.09 -37.1,-34.15 -57.3,-47 -55.32,-35.4 -120.35,-57.15 -187.15,-67.6 -66.96,-10.43 -135.99,-9.01 -203.22,1.41 -67.23,10.62 -133.05,30.86 -193.05,61.54 -29.99,15.36 -58.45,33.36 -84.49,54.09 -26.23,20.47 -50.12,43.7 -70.49,69.57 -18.05,22.89 -34.34,48.77 -46.96,76.83 -12.69,28.03 -21.63,58.2 -26.46,88.66 l -2.19,1.71 c 8.77,-64.33 35.5,-125.15 76.53,-175.35 20.4,-25.18 44.16,-47.77 70.06,-67.81 25.79,-20.22 53.87,-37.79 83.38,-52.84 l -1.17,-1.5 c -73.79,36.72 -141.41,90.67 -183.18,158.6 -34.58,55.34 -52.41,120.03 -53.58,185.51 l -0.47,26.7 -25.79,-5.63 c -47.56,-10.4 -97.06,-7.69 -138.89,12.16 -20.91,10.01 -39.09,24.81 -55.11,41.75 -15.59,17.52 -27.98,37.97 -38.23,59.6 -9.25,22.16 -16.5,45.37 -20.48,69.44 -3.62,24.05 -5.78,48.59 -3.98,73.05 2.03,48.96 16.01,97.25 39.47,139.46 21.74,36.85 52.15,69.19 92.27,90.52 10.34,4.61 20.23,10.9 31.69,14.01 5.59,1.92 11.24,3.85 16.93,5.8 5.94,1.23 11.92,2.46 17.96,3.71 6.05,1.29 12.19,2.76 18.32,2.95 3.07,0.26 6.16,0.58 9.28,0.71 3.08,1.82 6.26,1.76 9.45,2.74 6.18,1.87 13.65,1.85 20.59,2.77 7.07,0.7 14.22,1.42 21.44,2.15 -11.53,-0.91 -23.35,-1.85 -35.21,-2.78 -2.97,-0.24 -5.62,-1.01 -8.41,-1.48 l -4.13,-0.8 -1.03,-0.19 -0.5,-0.1 -0.14,-0.03 -0.06,-0.01 c -0.03,0.73 -0.03,-1.02 -0.06,-0.84 l -0.25,0 -2.04,-0.06 c -5.46,-0.28 -10.9,-0.55 -16.29,-0.82 -10.82,-2.09 -21.62,-3.55 -31.77,-5.85 -9.86,-3.25 -19.66,-5.52 -28.3,-8.99 -34.87,-13.59 -56.25,-31.05 -58.24,-31.1 -8.2,-1.68 6.5,23.26 52.94,47.15 27.85,11.77 40.02,16.15 14.5,9.65 -3.22,-0.87 -6.97,-1.89 -11.33,-3.06 -4.42,-1.12 -9.05,-3.57 -14.52,-5.72 -5.37,-2.4 -11.61,-4.64 -18.09,-8.01 -6.29,-3.76 -13.19,-7.89 -20.76,-12.42 -7.36,-4.84 -14.64,-11.15 -22.91,-17.45 -7.83,-6.79 -15.61,-14.92 -24.02,-23.52 -15.48,-18.37 -31.72,-40.77 -44.81,-69 1.48,3.69 5.07,11.47 10.02,21.82 2.56,5.13 6.2,10.5 9.76,16.5 1.82,2.97 3.72,6.05 5.66,9.21 2.02,3.11 4.52,6.02 6.84,9.15 4.93,6.01 9.3,12.9 15.1,18.65 5.7,5.87 11.44,11.78 17.08,17.58 6.27,5.13 12.44,10.16 18.32,14.97 1.46,1.2 2.91,2.38 4.35,3.55 1.56,0.99 3.1,1.97 4.61,2.93 3.03,1.93 5.95,3.78 8.75,5.57 10.91,7.68 21.09,11.7 27.13,14.68 6.07,2.92 8.32,4.2 5.08,3.18 -1.62,-0.51 -4.62,-1.6 -9.21,-3.38 -2.32,-0.9 -5.01,-1.96 -8.12,-3.18 -1.47,-0.77 -3.36,-1.01 -4.98,-2.05 -1.66,-0.94 -3.42,-1.95 -5.28,-3.02 -3.74,-2.16 -7.89,-4.55 -12.48,-7.2 -2.3,-1.34 -4.71,-2.74 -7.23,-4.21 -2.39,-1.67 -4.78,-3.57 -7.33,-5.47 -5.09,-3.87 -10.6,-8.06 -16.55,-12.6 -5.4,-5.2 -11.21,-10.78 -17.46,-16.77 -4.89,-3.64 -7.84,-6.46 -10.51,-8.69 -2.69,-2.24 -5.13,-4.29 -7.53,-6.3 -2.58,-2.3 -5.54,-5.11 -9.53,-9.53 -3.55,-4.71 -8.04,-11.08 -14.11,-20.22 -15.45,-25.69 -28.69,-54.35 -37.21,-85.24 -8.45,-30.87 -13.31,-63.51 -14.04,-96.75 -0.5,-33.25 3.65,-67 12.3,-99.77 8.77,-32.68 22.14,-64.69 41.87,-92.68 27.29,-40.27 69.02,-72.29 116.03,-88.07 5.73,-2.48 11.82,-3.52 17.81,-4.96 l 18.03,-4.06 c 12.09,-1.44 24.28,-2.56 36.39,-3.27 11.99,0.47 24.09,0.61 35.99,1.56 l 4.16,0.6 c 3.19,-43.94 12.54,-87.8 29.89,-128.78 10.46,-25.24 23.29,-49.6 38.8,-72.05 15.25,-22.6 32.5,-43.86 51.7,-62.99 19.03,-19.31 39.46,-37.18 61.51,-52.62 10.76,-8.13 22.25,-15.06 33.49,-22.42 11.59,-6.67 23,-13.75 34.96,-19.69 47.28,-25.02 97.57,-43.24 148.9,-56.48 102.85,-26.02 210.73,-30.31 316.31,-11.8 26.42,4.57 52.61,11.14 78.39,19.47 25.83,8.16 51.19,18.51 75.65,31.09 49,24.85 94.09,60.29 129.46,104.92 21.07,26.84 37.97,58.78 49.67,91 24.6,66.16 25.75,137.43 15.33,203.71 -5.31,33.35 -14.24,65.55 -24.33,97.18 -7.79,22 -16.09,43.79 -25.34,65.06 39.76,5.64 79.13,16.85 115.93,34.69 l 19.62,9.75 18.63,11.63 c 12.74,7.28 23.83,17.05 35.52,25.91 5.85,4.42 10.82,9.91 16.26,14.84 5.16,5.21 10.95,9.84 15.56,15.58 9.55,11.17 19.57,21.99 27.58,34.35 17.54,23.65 30.52,50.27 41.53,77.4 4.6,13.92 9.99,27.63 12.87,42.04 1.58,7.16 3.64,14.22 4.76,21.47 l 3.08,21.77 c 7.27,58.26 -1.7,118.16 -23.16,172.76 z m -1229.35,367.34 c -33.63,-11.25 -66.02,-28.64 -95.21,-52.93 -29.28,-24.09 -54.95,-55.96 -72.38,-95.44 -2.72,-3.78 -5.17,-7.71 -7.26,-11.83 12,36.99 33.93,70 61.03,96.94 27.19,26.96 59.81,48.12 95.22,62.01 67.17,26.52 143.21,26.86 210.75,5.02 0,-1.16 0.07,-2.29 0.09,-3.44 -63.28,20.27 -130.05,20.44 -192.24,-0.33 z m 418.79,259.67 c -35.45,-6.58 -70.44,-19.42 -102.12,-39.09 -31.37,-20.03 -59.09,-47.67 -77.38,-80.82 -1.84,-1.63 -3.75,-3.26 -5.4,-5.01 17.33,33.37 43.42,62.56 74.36,83.34 30.76,21.28 65.53,34.58 100.58,42.66 70.54,15.4 142.72,9.99 210.34,-9.33 l 10.46,-7.11 c -67.4,21.42 -139.77,28.73 -210.84,15.36 z M 8157.34,8243.15 c 11.43,0.46 22.93,0.58 34.33,1.39 l 0,0 c 0.26,-0.62 0.63,-1.17 0.99,-1.73 l -2.37,-0.35 c -12.06,-0.39 -24.12,-1.19 -36.19,-1.03 1.08,0.57 2.17,0.99 3.24,1.72 z m -62.96,-1.7 c -44.18,12.67 -83.38,40.94 -111.37,76.3 -28.24,35.5 -46,77.5 -55.09,120.43 -9.22,42.99 -10.53,87.23 -4.59,130.46 -3.27,-26.23 -4.4,-60.32 1,-98.91 2.6,-19.28 7.13,-39.62 13.69,-60.45 3.19,-10.43 7.82,-20.71 11.84,-31.37 5.35,-10.13 9.9,-20.91 16.33,-30.94 6.44,-10.04 12.67,-20.41 20.96,-29.61 4.05,-4.63 7.52,-9.8 12.15,-14.03 4.51,-4.32 9.05,-8.66 13.61,-13.02 4.34,-4.6 9.8,-7.99 14.84,-11.87 5.26,-3.62 10.05,-7.96 15.75,-10.95 11.3,-6.1 22.33,-12.99 34.69,-16.95 6.09,-2.15 12.01,-4.95 18.26,-6.52 l 18.82,-4.38 c 3.14,-0.68 6.27,-1.54 9.43,-2.04 l 9.53,-0.94 19.04,-1.81 c 12.63,-0.38 25.17,0.48 37.65,0.76 2.13,0.3 4.22,0.59 6.35,0.88 0.04,-0.87 0.12,-1.73 0.18,-2.6 -34.02,-3.64 -69.13,-2.35 -103.07,7.56 z m 115.15,-65.3 c -3.65,17.78 -5.7,35.74 -6.92,53.74 l 2.04,0.3 c 1.24,-19.81 3.53,-39.2 6.98,-57.81 5.84,-27.65 13.64,-53.58 23.13,-76.86 -11.37,25.91 -19.4,53.11 -25.23,80.63 z m 34.53,-76.16 c -11.16,25.13 -19.02,51.58 -24.82,78.35 -3.39,16.17 -5.4,32.52 -6.7,48.92 0.19,-0.05 0.38,-0.15 0.58,-0.19 0.43,-0.08 0.84,-0.03 1.29,-0.08 1.28,-16.27 3.29,-32.49 6.64,-48.53 5.78,-26.74 13.68,-53.12 24.8,-78.23 11.23,-25.03 24.91,-48.94 40.73,-71.34 16.15,-22.18 34.38,-42.73 54.1,-61.67 39.73,-37.67 85.92,-67.86 134.81,-91.52 48.96,-23.7 100.84,-40.82 153.82,-52.3 l -2.2,-0.71 c -52.88,11.57 -104.67,28.7 -153.59,52.4 -48.81,23.74 -94.97,53.9 -134.69,91.64 -19.71,18.98 -37.88,39.61 -54.06,61.79 -15.82,22.43 -29.48,46.4 -40.71,71.47 z m 697.85,-284.53 c -114.04,-25.66 -232.58,-22.47 -344.79,6.31 -28.02,7.39 -55.64,16.32 -82.71,26.88 -26.98,10.75 -53.28,23.35 -78.71,37.64 -50.68,28.73 -97.74,65.39 -135.56,110.83 l 6.13,-2.67 c 37.92,-44.59 85,-80.23 135.33,-108.65 50.67,-28.02 104.86,-48.93 160.67,-63.07 111.58,-28.15 229.47,-31.14 342.85,-5.23 l -3.21,-2.04 z M 9215.33,8338 c 12.9,-37.87 22.08,-77.2 26.55,-117.25 4.24,-40 3.81,-81.03 -4.82,-120.83 -8.49,-39.72 -24.16,-78.2 -47.08,-111.94 -23.14,-33.53 -52.19,-62.93 -85.38,-86.17 l -3.98,0 c 33.7,23.06 63.17,52.45 86.57,86.12 23.39,33.74 39.1,72.53 47.7,112.49 8.66,40.08 9,81.43 4.56,121.76 -4.57,40.41 -14.27,79.99 -27.2,118.29 l 3.08,-2.47 z m 256.61,394.3 c -3.18,-31.15 -12.5,-61.56 -25.48,-90.18 -13.3,-28.46 -30.48,-55.6 -52.79,-78.55 42.66,46.41 69.58,106.91 76.24,169.77 6.14,62.75 -6.47,127.84 -39.18,182.14 -7.42,14 -17.43,26.39 -26.84,39.09 l -15.83,17.75 c -5.09,6.1 -11.52,10.94 -17.19,16.49 l -8.77,8.09 c -2.97,2.64 -6.32,4.85 -9.46,7.3 l -19.12,14.36 -20.48,12.53 c -3.45,2.04 -6.75,4.33 -10.31,6.17 l -10.82,5.3 c -57.45,28.9 -121.62,44.65 -186.72,50.33 l -21.12,1.84 6.14,20.78 c 2.36,7.97 5.35,15.8 7.22,23.87 -1.7,-8.26 -4.52,-16.26 -6.62,-24.07 l -5.49,-20.52 19.91,-1.46 c 69.42,-5.08 135.67,-21.55 193.79,-51.16 28.6,-15.38 55.91,-32.97 78.67,-55.25 23.12,-21.72 43.42,-46.36 58.28,-73.99 15.03,-27.4 26.69,-56.76 32.39,-87.48 5.77,-30.65 7.02,-62.08 3.58,-93.15"
         style="fill:#231f20;fill-opacity:1;fill-rule:evenodd;stroke:none"
         id="path3130" />
      <path
         inkscape:connector-curvature="0"
         d="m 8234.76,8095.52 c -11.37,25.91 -19.4,53.11 -25.23,80.63 -5.67,27.62 -7.74,55.67 -8.29,83.58 l 26.62,-21.35 c -43.14,-8.2 -89.31,-9.83 -133.48,3.07 -44.18,12.67 -83.38,40.94 -111.37,76.3 -28.24,35.5 -46,77.5 -55.09,120.43 -9.22,42.99 -10.53,87.23 -4.59,130.46 -3.27,-26.23 -4.4,-60.32 1,-98.91 2.6,-19.28 7.13,-39.62 13.69,-60.45 3.19,-10.43 7.82,-20.71 11.84,-31.37 5.35,-10.13 9.9,-20.91 16.33,-30.94 6.44,-10.04 12.67,-20.41 20.96,-29.61 4.05,-4.63 7.52,-9.8 12.15,-14.03 4.51,-4.32 9.05,-8.66 13.61,-13.02 4.34,-4.6 9.8,-7.99 14.84,-11.87 5.26,-3.62 10.05,-7.96 15.75,-10.95 11.3,-6.1 22.33,-12.99 34.69,-16.95 6.09,-2.15 12.01,-4.95 18.26,-6.52 l 18.82,-4.38 c 3.14,-0.68 6.27,-1.54 9.43,-2.04 l 9.53,-0.94 19.04,-1.81 c 12.63,-0.38 25.17,0.48 37.65,0.76 12.26,1.7 24.41,3.39 36.46,5.05 -7.97,6.39 -15.92,12.78 -23.81,19.1 0.11,-30.15 2.89,-59.58 8.06,-87.38 5.84,-27.65 13.64,-53.58 23.13,-76.86"
         style="fill:#ffffff;fill-opacity:1;fill-rule:evenodd;stroke:none"
         id="path3132" />
      <g
         id="g7007">
        <path
           id="path3134"
           style="fill:#ffffff;fill-opacity:1;fill-rule:evenodd;stroke:none"
           d="m 8306.27,7994.45 c 37.92,-44.59 85,-80.23 135.33,-108.65 50.67,-28.02 104.86,-48.93 160.67,-63.07 111.58,-28.15 229.47,-31.14 342.85,-5.23 l -3.21,-2.04 c -114.04,-25.66 -232.58,-22.47 -344.79,6.31 -28.02,7.39 -55.64,16.32 -82.71,26.88 -26.98,10.75 -53.28,23.35 -78.71,37.64 -50.68,28.73 -97.74,65.39 -135.56,110.83 l 6.13,-2.67"
           inkscape:connector-curvature="0" />
        <path
           id="path3136"
           style="fill:#ffffff;fill-opacity:1;fill-rule:evenodd;stroke:none"
           d="m 9393.67,8563.57 c 42.66,46.41 69.58,106.91 76.24,169.77 6.14,62.75 -6.47,127.84 -39.18,182.14 -7.42,14 -17.43,26.39 -26.84,39.09 l -15.83,17.75 c -5.09,6.1 -11.52,10.94 -17.19,16.49 l -8.77,8.09 c -2.97,2.64 -6.32,4.85 -9.46,7.3 l -19.12,14.36 -20.48,12.53 c -3.45,2.04 -6.75,4.33 -10.31,6.17 l -10.82,5.3 c -57.45,28.9 -121.62,44.65 -186.72,50.33 l -21.12,1.84 6.14,20.78 c 2.36,7.97 5.35,15.8 7.22,23.87 -1.7,-8.26 -4.52,-16.26 -6.62,-24.07 l -5.49,-20.52 19.91,-1.46 c 69.42,-5.08 135.67,-21.55 193.79,-51.16 28.6,-15.38 55.91,-32.97 78.67,-55.25 23.12,-21.72 43.42,-46.36 58.28,-73.99 15.03,-27.4 26.69,-56.76 32.39,-87.48 5.77,-30.65 7.02,-62.08 3.58,-93.15 -3.18,-31.15 -12.5,-61.56 -25.48,-90.18 -13.3,-28.46 -30.48,-55.6 -52.79,-78.55"
           inkscape:connector-curvature="0" />
        <path
           id="path3138"
           style="fill:#ffffff;fill-opacity:1;fill-rule:evenodd;stroke:none"
           d="m 8478.83,9259.28 c -67.81,25.52 -140.5,27.52 -207.82,5.04 -33.63,-11.25 -66.02,-28.64 -95.21,-52.93 -29.28,-24.09 -54.95,-55.96 -72.38,-95.44 -2.72,-3.78 -5.17,-7.71 -7.26,-11.83 12,36.99 33.93,70 61.03,96.94 27.19,26.96 59.81,48.12 95.22,62.01 70.95,28.02 151.8,26.85 222.07,1.16 l 4.35,-4.95"
           inkscape:connector-curvature="0" />
        <path
           id="path3140"
           style="fill:#ffffff;fill-opacity:1;fill-rule:evenodd;stroke:none"
           d="m 8627.11,7822.69 c -52.88,11.57 -104.67,28.7 -153.59,52.4 -48.81,23.74 -94.97,53.9 -134.69,91.64 -19.71,18.98 -37.88,39.61 -54.06,61.79 -15.82,22.43 -29.48,46.4 -40.71,71.47 -11.16,25.13 -19.02,51.58 -24.82,78.35 -5.63,26.86 -7.74,54.23 -8.41,81.5 l 15.05,-12.07 -35.59,-5.31 c -12.06,-0.39 -24.12,-1.19 -36.19,-1.03 1.08,0.57 2.17,0.99 3.24,1.72 11.43,0.46 22.93,0.58 34.33,1.39 11.27,1.67 22.55,3.35 33.82,5.06 l -12.81,10.26 c 0.64,-27.24 2.76,-54.57 8.37,-81.4 5.78,-26.74 13.68,-53.12 24.8,-78.23 11.23,-25.03 24.91,-48.94 40.73,-71.34 16.15,-22.18 34.38,-42.73 54.1,-61.67 39.73,-37.67 85.92,-67.86 134.81,-91.52 48.96,-23.7 100.84,-40.82 153.82,-52.3 l -2.2,-0.71"
           inkscape:connector-curvature="0" />
        <path
           id="path3142"
           style="fill:#ffffff;fill-opacity:1;fill-rule:evenodd;stroke:none"
           d="m 8900.64,9508.63 c -67.4,21.42 -139.77,28.73 -210.84,15.36 -35.45,-6.58 -70.44,-19.42 -102.12,-39.09 -31.37,-20.03 -59.09,-47.67 -77.38,-80.82 -1.84,-1.63 -3.75,-3.26 -5.4,-5.01 17.33,33.37 43.42,62.56 74.36,83.34 30.76,21.28 65.53,34.58 100.58,42.66 70.54,15.4 142.72,9.99 210.34,-9.33 l 10.46,-7.11"
           inkscape:connector-curvature="0" />
        <path
           id="path3144"
           style="fill:#ffffff;fill-opacity:1;fill-rule:evenodd;stroke:none"
           d="m 9215.33,8338 c 12.9,-37.87 22.08,-77.2 26.55,-117.25 4.24,-40 3.81,-81.03 -4.82,-120.83 -8.49,-39.72 -24.16,-78.2 -47.08,-111.94 -23.14,-33.53 -52.19,-62.93 -85.38,-86.17 l -3.98,0 c 33.7,23.06 63.17,52.45 86.57,86.12 23.39,33.74 39.1,72.53 47.7,112.49 8.66,40.08 9,81.43 4.56,121.76 -4.57,40.41 -14.27,79.99 -27.2,118.29 l 3.08,-2.47"
           inkscape:connector-curvature="0" />
        <path
           id="path3146"
           style="fill:#231f20;fill-opacity:1;fill-rule:evenodd;stroke:none"
           d="m 8686.59,9108.48 c -0.61,-3.15 -1.01,-6.43 -1.75,-9.82 -0.11,-3.45 -0.23,-6.86 -0.35,-10.24 -0.17,-6.94 -0.17,-14.01 0.02,-20.83 0.95,-27.51 1.72,-54.86 5.12,-82.05 2.78,-27.24 5.43,-54.53 6.89,-82.18 0.17,-3.41 1.04,-6.91 1.23,-10.33 0.75,-13.98 1.49,-28.04 2.23,-41.99 l 4.98,-72.29 c 1.18,-15.63 3.26,-31.23 4.13,-46.77 1.48,-23.79 1.6,-47.57 3.17,-71.29 0.23,-4.14 1.02,-9.09 0.71,-12.35 -2.88,-31.39 2.07,-61.39 9.89,-89.12 2.55,-6.08 5.32,-11.15 8.23,-16.41 2.89,-5.25 5.74,-10.7 13.73,-17.13 -1.38,1.83 -2.74,3.63 -4.07,5.39 -0.94,1.8 -1.17,3.62 -1.75,5.37 -0.8,3.52 -0.93,6.92 -1.38,10.1 -0.69,6.38 -1.38,11.94 -1.7,16.42 3.03,5.96 5.17,10.18 7.76,15.29 0.69,-5.68 0.96,-12.61 2.3,-18.94 1.21,-5.89 2.89,-11.2 4.25,-16.76 0.17,5.56 0.75,10.86 0.69,16.74 -0.14,12.5 -0.28,24.66 -0.46,40.06 5.77,-18.92 10.48,-32.81 13.81,-45.52 2.39,-8.73 3.55,-3.22 4.93,5.43 2,13.28 3.07,25.66 5.02,40.67 2.39,-9.76 4.04,-16.48 6.44,-26.3 0.86,7.05 1.81,10.65 1.73,14.73 -0.85,37.56 -1.46,75.02 -9.49,111.54 -7.56,34.27 -10.73,113.44 -6.62,143.05 0.33,2.35 0.17,6.83 -0.36,9.55 -3.34,16.74 -6.74,33.85 -10.07,50.57 -1.05,5.59 -1.97,12.12 -2.21,17.9 -1.26,31.54 -2.53,63.34 -3.78,94.81 -0.62,7 -2.63,14.51 -3.97,21.79 l -2.14,0.06 1.71,-23.04 0.69,-23.13 -1.83,-0.1 c -1.2,9.52 -2.6,19.19 -3.44,28.52 -1.42,15.27 -2.84,30.6 -4.27,45.96 l -2.18,22.95 -1.14,11.48 c -0.43,3.82 -1.47,7.59 -2.2,11.39 -2.34,10.12 -4.1,20.54 -9.71,32.84 0.67,-5.03 1.99,-10.58 1.63,-15.05 -0.21,-4.45 -0.69,-7.71 -1.75,-7.99 -4.57,-1.21 -10.05,1.44 -14.74,6.76 -5.41,6.25 -5.84,4.94 -4.89,-21.93 -3.64,3.15 -4.89,38.34 -8.45,9.05 -2.79,-2.72 -5.78,-2.28 -6.59,-6.86 z m 2.39,-14.53 c 4.32,-14.31 6.63,-50.43 2.45,-72.72 -0.81,23.9 -1.62,47.8 -2.45,72.72 z m 13.29,-159.6 -1.21,0.29 -5.55,74.46 3,-0.4 3.76,-74.35 z m 53.04,-204.33 c -6.7,32.43 -7.17,60.67 -6.26,91.92 2.17,-31.85 4.07,-59.87 6.26,-91.92 z m -27.19,-167.81 -2.24,-1.51 -6.49,44.59 2.6,0.8 c 2.26,-14.52 8.5,-26.77 6.13,-43.88 z m -27.22,485.2 2.1,-0.16 c 0.96,-26.04 2.51,-52.04 4.22,-78.02 l -1.11,0.13 c -2.11,25.99 -4.02,51.99 -5.21,78.05 z m 23.65,-415.21 -1.97,-0.84 -6.53,43.32 3.12,1.51 5.38,-43.99 z m -8.46,283.8 1.97,0.52 4.91,-53 -1.97,0.2 -4.91,52.28"
           inkscape:connector-curvature="0" />
        <path
           id="path3148"
           style="fill:#ffffff;fill-opacity:1;fill-rule:evenodd;stroke:none"
           d="m 8691.43,9021.23 c -0.81,23.9 -1.62,47.8 -2.45,72.72 4.32,-14.31 6.63,-50.43 2.45,-72.72"
           inkscape:connector-curvature="0" />
        <path
           id="path3150"
           style="fill:#ffffff;fill-opacity:1;fill-rule:evenodd;stroke:none"
           d="m 8698.51,9008.7 3.76,-74.35 -1.21,0.29 -5.55,74.46 3,-0.4"
           inkscape:connector-curvature="0" />
        <path
           id="path3152"
           style="fill:#ffffff;fill-opacity:1;fill-rule:evenodd;stroke:none"
           d="m 8749.05,8821.94 c 2.17,-31.85 4.07,-59.87 6.26,-91.92 -6.7,32.43 -7.17,60.67 -6.26,91.92"
           inkscape:connector-curvature="0" />
        <path
           id="path3154"
           style="fill:#ffffff;fill-opacity:1;fill-rule:evenodd;stroke:none"
           d="m 8721.99,8606.09 c 2.26,-14.52 8.5,-26.77 6.13,-43.88 l -2.24,-1.51 -6.49,44.59 2.6,0.8"
           inkscape:connector-curvature="0" />
        <path
           id="path3156"
           style="fill:#ffffff;fill-opacity:1;fill-rule:evenodd;stroke:none"
           d="m 8706.11,8969.36 c -2.11,25.99 -4.02,51.99 -5.21,78.05 l 2.1,-0.16 c 0.96,-26.04 2.51,-52.04 4.22,-78.02 l -1.11,0.13"
           inkscape:connector-curvature="0" />
        <path
           id="path3158"
           style="fill:#ffffff;fill-opacity:1;fill-rule:evenodd;stroke:none"
           d="m 8719.17,8676.19 5.38,-43.99 -1.97,-0.84 -6.53,43.32 3.12,1.51"
           inkscape:connector-curvature="0" />
        <path
           id="path3160"
           style="fill:#ffffff;fill-opacity:1;fill-rule:evenodd;stroke:none"
           d="m 8721,8863.72 -4.91,52.28 1.97,0.52 4.91,-53 -1.97,0.2"
           inkscape:connector-curvature="0" />
        <path
           id="path3162"
           style="fill:#231f20;fill-opacity:1;fill-rule:evenodd;stroke:none"
           d="m 8715.36,8271.84 c -2,-1.76 -2.61,-3.95 -4.03,-5.96 -1.12,-1.02 -0.83,-2.04 -0.97,-3.06 -0.03,-0.94 -0.05,-1.98 -0.07,-3.07 0.06,-1.95 0.14,-4.12 0.21,-6.17 0.16,-4.12 0.33,-8.33 -0.78,-12.66 -0.13,-0.54 0.42,-1.08 0.36,-1.62 -0.2,-2.23 -0.73,-4.42 -0.8,-6.7 -0.13,-3.9 -0.14,-7.87 0.24,-11.98 0.17,-2.57 1.53,-5.34 1.52,-8.1 0.15,-4.43 -0.38,-9.05 0.17,-14.66 0.08,-0.95 0.68,-1.91 0.25,-2.83 -1.29,-5.03 -1.99,-9.42 2.86,-14.08 1.53,-0.77 3.12,-1.42 4.72,-1.96 1.57,-0.5 3.91,-1.61 5.82,-2.13 4.21,-1.29 7.41,-1.62 12.44,-2.23 4.14,-0.27 7.29,0.35 10.54,1.65 3.3,1.33 6.27,3.15 8.8,5.17 -2.76,-0.45 -5.8,-0.41 -8.24,0.04 -2.23,0.64 -4.22,1.53 -5.73,2.35 -0.47,3.06 0.66,5.05 1.58,7.58 1.11,-0.69 2.4,-1.62 4.31,-1.88 1.71,-0.17 3.09,-0.08 4.58,0.5 -1.12,0.53 -1.51,1.99 -2.29,2.74 -0.85,0.81 -1.4,1.72 -1.78,2.79 -0.41,1.04 -0.91,2.02 -0.91,3.33 5.28,-0.03 7.5,0.81 8.43,2.28 0.21,0.34 0.24,0.4 0.14,0.15 -0.03,-0.1 -0.03,-0.08 0.01,0.02 0.07,0.21 0.27,0.75 0.64,1.25 0.28,0.39 0.59,0.69 0.92,0.93 0.5,0.59 1.28,1.58 2.01,2.22 0.75,0.7 1.58,1.33 2.46,1.86 l 1.44,0.81 2.13,1.53 c -0.93,-0.59 -1.99,-1.5 -2.59,-1.8 -0.59,-0.29 -1.12,-0.61 -1.66,-0.97 -1.05,-0.73 -2.06,-1.59 -3.11,-2.83 1.48,1.7 2.38,2.33 3.4,3.02 l 1.94,1.13 c 0.91,0.69 1.82,1.34 2.77,1.93 1.87,1.2 3.84,2.23 5.84,3.07 1.07,0.49 1.87,0.62 3.2,1.29 1.03,0.54 3.48,1.62 2.89,1.41 0.06,0.11 0.06,0.2 0,0.26 -0.11,-0.07 -0.54,0.65 -1.25,1.06 -0.74,0.43 -1.82,0.76 -3.26,1.47 -5.62,1.94 -3.39,12.49 3.29,16.59 0.53,0.33 0.7,0.89 0.36,1.21 -2.11,1.98 -4.54,4.26 -6.61,6.21 -0.78,0.7 -1.3,1.57 -1.19,2.35 0.62,4.26 1.53,8.56 1.91,12.92 0.09,0.97 -1.03,2.02 -1.58,3.03 l -2.13,0.01 -1.41,-6.42 -1.84,-0.03 c -0.52,1.31 -1.52,2.64 -1.44,3.96 0.15,1.96 0.31,4.2 0.48,6.47 l -0.8,1.62 0,1.63 c -0.03,1.13 -0.07,2.24 -0.08,3.28 -0.07,1.48 -0.7,3 -1.15,4.84 -3.07,-1.46 -5.15,-3.26 -7.67,-3.32 -5.4,-0.13 -11.1,0.31 -16.29,1.13 -6.07,0.96 -6.95,0.77 -6.84,-3.1 -3.4,0.49 -5.11,5.56 -9.1,1.39 -3.07,-0.36 -6.4,-0.27 -7.06,-0.92 z m 2.63,-2.12 c 1.7,-1.07 2.8,-2.93 1.47,-4.93 -0.2,-2 -1.53,-4.17 -4.21,-5.83 l 0.75,5.35 c -0.19,0.89 1.23,1.79 1.4,2.69 l 0.59,2.72 z m 0.53,-23.8 -1.22,0.02 1.18,11.23 2.91,-0.05 -2.87,-11.2 z m 39.91,-26.49 c -4.82,3.46 -3.39,7.64 -0.15,12.05 -0.07,-4.29 -0.02,-7.97 0.15,-12.05 z m -19.66,-40.64 -0.55,-1.79 c -7.46,1.63 -14.2,4.97 -19.3,7.49 l 2.39,1.51 c 0.96,-0.86 2.78,-1.12 4.22,-1.5 1.43,-0.26 3.03,-0.61 4.78,-1.2 3.57,-1.08 5.46,-1.88 8.46,-4.51 z m -12.46,84.03 2.12,-0.03 -1.84,-11.5 -1.1,0.01 0.82,11.52 z m -3.36,-68.31 -1.97,-0.94 c -2.21,3.17 -3.79,5.85 -5.36,8.57 l 3.21,1.08 c 1.19,-2.77 2.32,-5.46 4.12,-8.71 z m 8.19,48.99 2.08,0.13 c 0.2,-2.59 0.61,-5.19 0.96,-7.78 l -2.04,-0.07 c -0.37,2.56 -0.8,5.15 -1,7.72"
           inkscape:connector-curvature="0" />
        <path
           id="path3164"
           style="fill:#ffffff;fill-opacity:1;fill-rule:evenodd;stroke:none"
           d="m 8715.25,8258.96 0.75,5.35 c -0.19,0.89 1.23,1.79 1.4,2.69 l 0.59,2.72 c 1.7,-1.07 2.8,-2.93 1.47,-4.93 -0.2,-2 -1.53,-4.17 -4.21,-5.83"
           inkscape:connector-curvature="0" />
        <path
           id="path3166"
           style="fill:#ffffff;fill-opacity:1;fill-rule:evenodd;stroke:none"
           d="m 8721.39,8257.12 -2.87,-11.2 -1.22,0.02 1.18,11.23 2.91,-0.05"
           inkscape:connector-curvature="0" />
        <path
           id="path3168"
           style="fill:#ffffff;fill-opacity:1;fill-rule:evenodd;stroke:none"
           d="m 8758.28,8231.48 c -0.07,-4.29 -0.02,-7.97 0.15,-12.05 -4.82,3.46 -3.39,7.64 -0.15,12.05"
           inkscape:connector-curvature="0" />
        <path
           id="path3170"
           style="fill:#ffffff;fill-opacity:1;fill-rule:evenodd;stroke:none"
           d="m 8721.31,8186 c 0.96,-0.86 2.78,-1.12 4.22,-1.5 1.43,-0.26 3.03,-0.61 4.78,-1.2 3.57,-1.08 5.46,-1.88 8.46,-4.51 l -0.55,-1.79 c -7.46,1.63 -14.2,4.97 -19.3,7.49 l 2.39,1.51"
           inkscape:connector-curvature="0" />
        <path
           id="path3172"
           style="fill:#ffffff;fill-opacity:1;fill-rule:evenodd;stroke:none"
           d="m 8725.49,8251.3 0.82,11.52 2.12,-0.03 -1.84,-11.5 -1.1,0.01"
           inkscape:connector-curvature="0" />
        <path
           id="path3174"
           style="fill:#ffffff;fill-opacity:1;fill-rule:evenodd;stroke:none"
           d="m 8718.83,8203.22 c 1.19,-2.77 2.32,-5.46 4.12,-8.71 l -1.97,-0.94 c -2.21,3.17 -3.79,5.85 -5.36,8.57 l 3.21,1.08"
           inkscape:connector-curvature="0" />
        <path
           id="path3176"
           style="fill:#ffffff;fill-opacity:1;fill-rule:evenodd;stroke:none"
           d="m 9623.5686,8715.78 c -0.37,2.56 -0.8,5.15 -1,7.72 l 2.08,0.13 c 0.2,-2.59 0.61,-5.19 0.96,-7.78 l -2.04,-0.07"
           inkscape:connector-curvature="0" />
      </g>
      <path
         inkscape:connector-curvature="0"
         d="m 7727.08,8534.57 c -0.03,-0.02 0,0.01 -0.01,0.01 -0.1,-0.14 -0.52,-0.62 -2.01,-2.22 -2.45,-2.56 -8.05,-4.67 -12.33,-3.88 -2.12,0.28 -3.8,0.95 -5.06,1.6 -1.25,0.65 -3.24,1.73 -5.16,4.02 -1.95,2.21 -3.56,6.02 -3.57,9.47 -0.07,3.48 0.97,6.08 1.85,7.7 l 0.32,0.52 c -0.02,0.09 0.05,0.13 0,0.23 l 0.05,0.3 0.02,0.07 0,0.04 c -0.07,-0.12 0.24,0.4 -0.37,-0.58 -0.82,-1.39 -1.79,-3.45 -2.09,-6.37 -0.34,-2.87 0.36,-6.54 1.96,-9.23 1.55,-2.74 3.53,-4.41 5.05,-5.41 1.65,-1 2.43,-1.43 4.07,-2.02 2.99,-1.15 8.14,-1.19 11.89,0.81 1.87,0.93 3.32,2.11 4.37,3.21 0.22,0.22 0.36,0.42 0.54,0.64 l 0.34,0.78 0.14,0.31"
         style="fill:#231f20;fill-opacity:1;fill-rule:evenodd;stroke:none"
         id="path3544" />
      <path
         inkscape:connector-curvature="0"
         d="m 7701.31,8552.03 0.06,0.14 0.02,0.08 0.02,0.04 0.01,0.01 -0.31,-0.51 c 0.07,-0.46 -0.27,-0.72 -0.34,-1.11 0.16,0.47 0.88,0.67 0.54,1.35"
         style="fill:#231f20;fill-opacity:1;fill-rule:evenodd;stroke:none"
         id="path3546" />
      <path
         inkscape:connector-curvature="0"
         d="m 7727.07,8534.58 c 0.11,0.14 -0.03,-0.01 0,0 l 0,0"
         style="fill:#231f20;fill-opacity:1;fill-rule:evenodd;stroke:none"
         id="path3548" />
      <path
         inkscape:connector-curvature="0"
         d="m 7653.18,8380.48 c 7.65,13.35 13.77,26.53 19.94,40.38 6.27,13.78 14.65,26.8 26.07,40.37 1.42,0.15 2.78,0.33 3.83,0.72 -7.04,-14.21 -15.68,-27.3 -22.86,-41.41 -7,-14.24 -15.02,-27.77 -23.01,-41.32 l -3.97,1.26"
         style="fill:#ffffff;fill-opacity:1;fill-rule:evenodd;stroke:none"
         id="path3556" />
    </g>
  </g>
</svg>
