<?xml version="1.0" encoding="UTF-8" standalone="no"?>
<!-- Created with Inkscape (http://www.inkscape.org/) -->

<svg
   xmlns:dc="http://purl.org/dc/elements/1.1/"
   xmlns:cc="http://creativecommons.org/ns#"
   xmlns:rdf="http://www.w3.org/1999/02/22-rdf-syntax-ns#"
   xmlns:svg="http://www.w3.org/2000/svg"
   xmlns="http://www.w3.org/2000/svg"
   xmlns:sodipodi="http://sodipodi.sourceforge.net/DTD/sodipodi-0.dtd"
   xmlns:inkscape="http://www.inkscape.org/namespaces/inkscape"
   width="101.3625"
   height="157.14297"
   id="svg3809"
   version="1.1"
   inkscape:version="0.48.3.1 r9886"
   sodipodi:docname="New document 43">
  <defs
     id="defs3811" />
  <sodipodi:namedview
     id="base"
     pagecolor="#ffffff"
     bordercolor="#666666"
     borderopacity="1.0"
     inkscape:pageopacity="0.0"
     inkscape:pageshadow="2"
     inkscape:zoom="0.35"
     inkscape:cx="234.25267"
     inkscape:cy="-215.71422"
     inkscape:document-units="px"
     inkscape:current-layer="layer1"
     showgrid="false"
     fit-margin-top="0"
     fit-margin-left="0"
     fit-margin-right="0"
     fit-margin-bottom="0"
     inkscape:window-width="771"
     inkscape:window-height="768"
     inkscape:window-x="581"
     inkscape:window-y="24"
     inkscape:window-maximized="0" />
  <metadata
     id="metadata3814">
    <rdf:RDF>
      <cc:Work
         rdf:about="">
        <dc:format>image/svg+xml</dc:format>
        <dc:type
           rdf:resource="http://purl.org/dc/dcmitype/StillImage" />
        <dc:title></dc:title>
      </cc:Work>
    </rdf:RDF>
  </metadata>
  <g
     inkscape:label="Layer 1"
     inkscape:groupmode="layer"
     id="layer1"
     transform="translate(-140.74733,-159.50499)">
    <path
       inkscape:connector-curvature="0"
       id="path3030"
       style="fill:#182442;fill-opacity:1;fill-rule:evenodd;stroke:none"
       d="m 191.43483,159.50499 c 23.15,0 41.7375,18.7775 41.7375,41.92813 0,22.97125 -18.5875,41.748 -41.7375,41.748 -23.15,0 -41.9375,-18.77675 -41.9375,-41.748 0,-23.15063 18.7875,-41.92813 41.9375,-41.92813 l 0,0 z m -0.7375,6.01625 c -19.1375,0 -34.8125,15.495 -34.8125,34.81913 0,19.143 15.675,34.81837 34.8125,34.81837 19.15,0 34.825,-15.67537 34.825,-34.81837 0,-19.32413 -15.675,-34.81913 -34.825,-34.81913 l 0,0 z m 22.425,10.20875 c 7.1125,11.48375 4.0125,30.44188 0.3625,36.64313 -4.55,7.83787 -15.675,18.59225 -31.175,19.32225 5.1125,1.27587 10.7625,1.46137 16.2375,0 17.675,-4.55575 28.25,-22.42188 23.875,-40.10538 -1.6375,-6.19875 -4.925,-11.66625 -9.3,-15.86 l 0,0 z m -21.6875,74.3775 c 27.8875,0 50.675,18.77775 50.675,41.92963 0,3.82812 -0.725,7.65625 -1.825,11.30375 -12.2125,8.20309 -29.525,13.30709 -48.85,13.30709 -19.325,0 -36.65,-5.104 -48.8625,-13.30709 -1.275,-3.6475 -1.825,-7.47563 -1.825,-11.30375 0,-23.15188 22.6125,-41.92963 50.6875,-41.92963 l 0,0 z m 17.1375,7.291 c -2.0125,4.74025 -4.925,10.02825 -9.125,13.49263 2.5625,10.02537 4.7375,19.69 5.65,29.71437 10.2125,-12.94337 17.6875,-27.709 18.6,-35.54687 -4.5625,-3.10213 -9.6625,-5.835 -15.125,-7.66013 l 0,0 z m -29.725,43.02388 c 0.7375,-9.84125 3.1,-19.6865 5.6625,-29.53125 -4.3875,-3.46438 -7.3,-8.93463 -9.3,-13.855 -5.8375,1.82137 -11.125,4.73975 -15.5,8.0225 1.275,7.83787 8.9375,22.6035 19.1375,35.36375 l 0,0 z m 0.7375,-41.92775 c 0.3625,4.374 3.1,7.2925 5.825,10.02587 -1.0875,-3.46187 -2,-6.92625 -1.275,-11.30275 -1.45,0.54688 -2.9125,0.91213 -4.55,1.27688 l 0,0 z m 5.825,17.5015 c -1.825,8.021 -3.6375,14.585 -4.1875,24.0635 l 4.7375,4.55712 c -0.3625,-1.63962 -0.725,-3.10062 -0.9125,-4.74025 4.375,-2.00537 11.85,-4.19187 17.5,-4.19187 l -0.725,-4.74125 c -5.475,0 -12.7625,2.00587 -17.3125,4.01125 -0.1875,-2.55125 -0.1875,-5.106 0.175,-7.65725 3.825,-1.64063 11.3,-4.00875 15.8625,-4.00875 l -0.55,-3.83063 c -3.65,0 -11.4875,2.1875 -14.7625,3.46438 0.175,-1.82275 0.55,-3.645 1.0875,-5.47025 l -0.9125,-1.456 0,0 z m 6.025,34.63475 c 1.8125,-1.27539 8.2,-6.19725 9.6625,-8.02 -5.1125,0.54687 -9.3,2.73436 -13.4875,4.74022 1.0875,0.72852 2.55,2.36817 3.825,3.27978 l 0,0 z m -44.3,-9.65913 c 0.9125,0.725 4.375,2.73038 6.2,3.27975 -2.375,-7.291 -4.0125,-21.69287 -2.5625,-30.07912 -5.65,8.38625 -4.9125,21.33062 -3.6375,26.79937" />
  </g>
</svg>
