<?xml version="1.0" encoding="UTF-8" standalone="no"?>
<!-- Created with Inkscape (http://www.inkscape.org/) -->

<svg
   xmlns:dc="http://purl.org/dc/elements/1.1/"
   xmlns:cc="http://creativecommons.org/ns#"
   xmlns:rdf="http://www.w3.org/1999/02/22-rdf-syntax-ns#"
   xmlns:svg="http://www.w3.org/2000/svg"
   xmlns="http://www.w3.org/2000/svg"
   version="1.1"
   width="437.5553"
   height="318.60101"
   id="svg10077">
  <defs
     id="defs10079" />
  <metadata
     id="metadata10082">
    <rdf:RDF>
      <cc:Work
         rdf:about="">
        <dc:format>image/svg+xml</dc:format>
        <dc:type
           rdf:resource="http://purl.org/dc/dcmitype/StillImage" />
        <dc:title></dc:title>
      </cc:Work>
    </rdf:RDF>
  </metadata>
  <g
     transform="translate(95.920507,-533.06168)"
     id="layer1">
    <path
       d="m 341.51449,846.12064 c -1.095,-46.41 -2.1913,-92.85125 -3.2875,-139.26625 -0.9075,-36.2375 -1.8188,-72.62125 -2.7213,-108.62 -0.4287,-19.06875 -0.8575,-38.10625 -1.285,-57.1 l -7.0775,-4.0025 c 0.2363,-0.16 0.5075,-0.29376 0.7888,-0.38375 0.1412,-0.045 0.285,-0.08 0.4262,-0.105 l 0.2125,-0.0288 c 0.042,-0.004 -0.01,0 -0.01,0 l -0.2825,0.02 c -0.1612,0.015 -0.4175,0.0263 -0.6837,0.0362 l -1.59,0.0525 -3.3075,0.0562 -6.7063,0.0387 -13.4612,-0.0225 c -8.9875,-0.065 -17.97,-0.12875 -26.9538,-0.1925 l -26.9562,-0.2625 c -8.9863,-0.12875 -17.975,-0.25751 -26.9663,-0.38751 -9.6075,-0.14125 -21.1587,-0.24375 -28.6175,-0.4275 -71.8487,-1.78 -141.989997,-2.43875 -207.434997,-2.46375 -29.0287,0.0125 -48.85,0.40876 -81.5212,1.01251 35.8925,0.21749 66.8912,0.74874 87.7061999,1.0525 13.1738,0.6675 22.4863001,1.13874 33.7875001,1.71249 -13.22,-0.12625 -29.2500001,-0.27999 -44.1187,-0.42124 -13.805,-0.0763 -26.3613,-0.0325 -39.4625,-0.0113 12.7837,0.245 24.91,0.47501 38.4812,0.73375 28.0387999,0.46375 56.8513,0.94125 92.4838,1.53 -44.7413,0.06 -77.6475001,0.0913 -107.5788,0.2975 -20.5887,0.155 -8.1,0.47875 11.59,0.88251 30.2137999,0.72 58.5975,1.39499 92.85,2.21124 -22.9787,-0.0387 -38.7775,-0.0662 -61.8812001,-0.105 16.0850001,0.385 24.2312001,0.66125 33.6500001,0.8075 43.3962,0.66 86.722497,1.31875 129.913697,1.975 21.6,0.2425 43.165,0.485 64.6925,0.7275 21.5288,0.17875 43.0138,0.43875 64.4725,0.44625 4.2475,-0.002 8.78,-0.005 13.5913,-0.006 2.4125,-0.015 4.8975,-0.03 7.45,-0.0437 1.1725,-0.0175 2.3637,-0.035 3.565,-0.0538 2.3162,87.94375 5.05,233.2325 5.5287,294.66125 -4.6687,-0.0188 -9.8637,-0.0138 -13.6475,0.02 -39.7312,0.3775 -78.735,0.7475 -118.535,1.125 -13.095,0.12875 -28.3375,0.22625 -41.7112,0.21875 -36.6288,-0.0275 -73.148797,-0.055 -109.677497,-0.0825 -18.2663,-0.0375 -36.5325,-0.005 -54.8175001,0.0675 -18.2849999,0.0625 -36.5874999,0.125 -54.9199999,0.1875 -6.46,0.0512 -13.1563,0.105 -19.9488,0.15875 -0.088,-2.795 -0.175,-5.58875 -0.2625,-8.38625 -0.07,-2.19875 -0.1387,-4.395 -0.2062,-6.585 -0.14,-2.1875 -0.2788,-4.37 -0.4175,-6.54125 l -0.3363,-0.54125 0.3738,6.71125 0.1525,6.71625 c 0.066,2.87625 0.145,5.7525 0.2212,8.63 -0.23,10e-4 -0.46,0.004 -0.6887,0.005 l -0.1838,-7.705 -0.15,-6.25625 c -0.054,-1.0425 0.016,-2.0875 -0.1275,-3.12625 l -0.155,-3.12625 c -0.3975,-8.33375 -0.88,-16.66125 -1.2125,-24.98875 -0.3675,-16.6625 -0.7337,-33.315 -1.1012,-49.96375 -0.76,-33.3 -1.5213,-66.59375 -2.285,-99.9675 -0.1438,-5.9375 -0.2875,-11.91375 -0.435,-17.9975 -0.1788,-6.0825 -0.51,-12.26875 -0.7713,-18.635 -0.4937,-12.73125 -1.3162,-26.16625 -2.0912,-40.8675 0.5137,11.71625 1.1212,24.76 1.36,34.99375 0.2675,10.23375 0.395,17.65 0.2625,18.10375 -0.5675,1.94875 -1.49,-5.16 -2.29,-18.29125 -0.4638,-7.71 -0.6825,-10.83 -0.6513,-4.2525 0.036,6.5775 0.1488,22.85625 0.9088,53.93 -0.1438,-1.98375 -0.38,-8.55875 -0.6363,-16.26 -0.1275,-3.85125 -0.2637,-7.9825 -0.3925,-11.96375 -0.086,-3.98 -0.1712,-7.80875 -0.2412,-11.0575 -0.2813,-12.98375 -0.4838,-16.60875 -0.3238,16.84375 -0.245,5.7775 -0.68,4.19875 -0.5325,14.61625 0.4188,28.62125 0.9625,62.3975 1.6438,93.91875 0.385,17.88375 0.7687,35.7375 1.1525,53.5725 0.1625,4.45625 0.055,8.9175 0,13.37875 l -0.1725,13.37625 -0.089,6.68625 0.1325,6.67875 0.2663,13.3575 0.088,4.465 4.4887,0.002 c 22.77,0.008 45.5275,0.015 68.2925,0.0238 22.7662999,-0.025 45.5388,-0.0475 68.3438,-0.0725 45.6125,-0.065 91.346197,-0.13125 137.386197,-0.19625 7.8963,-0.035 16.1263,-0.0725 24.0675,-0.10875 32.45,-0.0225 64.8225,-0.045 97.2725,-0.0688 9.4588,-0.015 18.92,-0.0313 28.3888,-0.0475 l 5.0425,-0.008 -0.12,-5.04125 z M -8.4805071,533.97564 c -1.0238,-0.13125 -2.0474999,-0.2625 -3.0674999,-0.3925 l 104.07,0.95 1.3462,0.40125 c -33.9012,-0.31375 -63.3162,0.0462 -102.3487001,-0.95875 z m 162.1086971,2.46 c -0.525,-0.105 -1.05,-0.20875 -1.5725,-0.3125 33.7088,0.3025 67.4213,0.605 101.135,0.90625 0.9625,0.16 1.9338,0.32125 2.8988,0.4825 -34.1538,-0.35875 -68.3013,-0.7175 -102.4613,-1.07625 z m -160.7324971,306.1425 -0.097,0.29625 c -22.1686999,0.16125 -44.7586999,0.325 -66.4299999,0.48375 -2.935,0.01 -5.8562,0.02 -8.7825,0.03 -0.01,-0.2225 -0.015,-0.445 -0.021,-0.665 l 75.3311999,-0.145 z m -75.8111999,0.145 c 0,0.22125 0.01,0.44375 0.016,0.66625 -0.23,10e-4 -0.46,10e-4 -0.69,10e-4 l -0.015,-0.6675 0.6888,0 z m -6.8938,-52.28 c 0.26,9.4425 0.2213,18.89 0.3175,28.33625 0.01,2.36125 0.054,4.72125 0.027,7.085 l 0.1425,7.08125 0.2813,14.165 0.035,1.825 1.8412,10e-4 124.0763,0.095 -0.5038,0.18 -123.5712,0.0112 -2.12,0 -0.039,-2.105 c -0.1687,-9.57375 -0.4662,-19.145 -0.4525,-28.7225 -0.079,-9.57625 -0.024,-19.155 -0.3025,-28.725 l 0.2675,0.7725 z m -3.7962,-110.285 c 0.5725,16.765 1.3175,45.83 1.9987,77.04125 0.16,7.8025 0.3225,15.74 0.4863,23.65375 0.075,3.95625 0.1487,7.90625 0.2237,11.8325 0.035,1.96125 0.069,3.9175 0.105,5.86375 -0.015,1.94875 -0.031,3.88875 -0.046,5.81625 -0.059,6.15625 -0.1138,12.1875 -0.2,18.03 -0.3125,-47.425 -1.7263,-94.82625 -2.5675,-142.2375 z m 6.445,170.72 -3.825,-0.006 0.01,-3.7175 c 0,-0.94 -0.01,-1.87875 0,-2.8175 0.01,0.94125 0.014,1.89625 0.021,2.8175 l 0.026,3.6475 3.7713,0.0588 c 0.4237,0.008 0.8075,0.0137 1.1887,0.02 l -1.1887,-0.002 z m 202.724997,-0.52375 -86.397497,0.11125 -86.3963,-0.085 1.4775,-0.4525 86.1013,0.195 86.102497,0.035 -0.8875,0.19625 z m 167.3037,-2.6575 c -40.5012,0.12 -81.0037,0.2375 -121.5125,0.3575 l -0.8137,-0.32875 c 41.0525,-0.11625 82.11,-0.2325 123.1675,-0.35 l -0.8413,0.32125 z m 49.9813,-49.2875 c -1.605,-73.8575 -3.0163,-138.85375 -4.6313,-213.17 2.3413,76.03625 3.5588,141.2425 4.6313,213.17"
       id="path3246"
       style="fill:#231f20;fill-opacity:1;fill-rule:evenodd;stroke:none" />
  </g>
</svg>
