<?xml version="1.0" encoding="UTF-8" standalone="no"?>
<!-- Created with Inkscape (http://www.inkscape.org/) -->

<svg
   xmlns:dc="http://purl.org/dc/elements/1.1/"
   xmlns:cc="http://creativecommons.org/ns#"
   xmlns:rdf="http://www.w3.org/1999/02/22-rdf-syntax-ns#"
   xmlns:svg="http://www.w3.org/2000/svg"
   xmlns="http://www.w3.org/2000/svg"
   xmlns:sodipodi="http://sodipodi.sourceforge.net/DTD/sodipodi-0.dtd"
   xmlns:inkscape="http://www.inkscape.org/namespaces/inkscape"
   width="77.788597"
   height="101.56322"
   id="svg10351"
   version="1.1"
   inkscape:version="0.48.3.1 r9886"
   sodipodi:docname="New document 32">
  <defs
     id="defs10353" />
  <sodipodi:namedview
     id="base"
     pagecolor="#ffffff"
     bordercolor="#666666"
     borderopacity="1.0"
     inkscape:pageopacity="0.0"
     inkscape:pageshadow="2"
     inkscape:zoom="0.35"
     inkscape:cx="222.46573"
     inkscape:cy="119.35304"
     inkscape:document-units="px"
     inkscape:current-layer="layer1"
     showgrid="false"
     inkscape:window-width="472"
     inkscape:window-height="415"
     inkscape:window-x="1294"
     inkscape:window-y="24"
     inkscape:window-maximized="0"
     fit-margin-top="0"
     fit-margin-left="0"
     fit-margin-right="0"
     fit-margin-bottom="0" />
  <metadata
     id="metadata10356">
    <rdf:RDF>
      <cc:Work
         rdf:about="">
        <dc:format>image/svg+xml</dc:format>
        <dc:type
           rdf:resource="http://purl.org/dc/dcmitype/StillImage" />
        <dc:title></dc:title>
      </cc:Work>
    </rdf:RDF>
  </metadata>
  <g
     inkscape:label="Layer 1"
     inkscape:groupmode="layer"
     id="layer1"
     transform="translate(-152.53427,-550.152)">
    <g
       transform="translate(-452.44748,-32.594778)"
       id="g10290">
      <path
         inkscape:connector-curvature="0"
         d="m 674.90535,588.94625 c -0.78,0.45125 -1.54125,0.9325 -2.37,1.465 -0.81375,0.53375 -1.555,1.1875 -2.3075,1.8 -0.695,0.66625 -1.4,1.345 -2.0475,2.06875 -0.57,0.7725 -1.185,1.53125 -1.70125,2.34 -1.0475,1.615 -1.98125,3.3025 -2.74875,5.055 -1.5625,3.50125 -2.605,7.18375 -3.41375,10.95875 -0.10875,0.465 -0.0937,0.965 -0.165,1.43625 -0.2875,1.92625 -0.53875,3.86625 -0.6175,5.82375 -0.0562,1.68125 -0.0725,3.375 0.07,5.0575 0.19125,1.6775 0.42375,3.3525 0.77,5.01 0.195,1.08 0.53875,2.13125 0.81875,3.1925 0.3325,1.05625 0.66,2.09875 0.98625,3.14375 l 0.78375,2.4 0.8925,2.3775 c 0.31,0.79 0.6725,1.565 1.01125,2.35125 0.3625,0.77125 0.83125,1.5025 1.25125,2.25125 0.28875,0.52625 0.7625,1.08625 0.9575,1.5225 0.22875,0.53 0.48,1.0475 0.75,1.5525 0.28875,0.49375 0.615,0.965 0.94625,1.42875 0.6225,0.95625 1.48375,1.73125 2.33875,2.46375 0.82625,0.7625 1.85,1.32875 2.83125,1.8475 0.50375,0.25125 1.02875,0.4675 1.53375,0.685 0.11875,0.065 0.2675,0.0888 0.38375,0.155 l 0.45375,0.055 c 0.3,0.0375 0.605,0.055 0.85875,0.14375 0.9375,0.2575 1.75375,0.4 2.64875,0.40875 0.92375,-0.0513 1.72375,0.15125 2.95,-0.18875 -2.3225,-0.03 -3.79,-1.27125 -4.875,-1.8375 -0.47125,-0.6725 -0.6275,-1.35 -0.86375,-2.06875 0.30875,0.22 0.6475,0.46125 0.9975,0.71 0.37625,0.21625 0.76125,0.43 1.145,0.62 0.71125,0.34875 1.3825,0.61625 2.09125,0.85625 -0.5975,-0.3925 -1.07125,-0.9025 -1.66625,-1.35875 -1.22375,-0.955 -2.36625,-2.0825 -3.6375,-3.5625 1.14625,0.5825 2.05875,1.11875 2.95,1.50125 0.445,0.1875 0.81125,0.4325 1.1825,0.63625 0.38125,0.16375 0.755,0.32375 1.135,0.4875 0.9625,0.48625 0.56625,-0.1275 -0.0863,-0.92875 -0.88625,-1.39125 -1.61375,-2.705 -2.33625,-4.30625 0.47875,0.29625 0.81875,0.605 1.18625,0.88625 0.3575,0.2925 0.7575,0.5225 1.1925,0.84375 -0.37625,-0.73375 -0.51625,-1.1325 -0.74375,-1.53125 -1.11875,-1.7075 -2.21875,-3.38375 -3.2975,-5.02875 -1.10875,-1.6575 -2.0375,-3.41625 -3.4,-5.0275 -1.2,-1.5575 -2.46125,-4.57375 -3.02375,-7.68875 -0.61875,-3.11 -0.44375,-6.23125 -0.17125,-7.86125 0.06,-0.26125 0.0388,-0.75625 -0.0462,-1.0575 -0.53375,-1.88875 -0.9275,-3.80125 -1.13875,-5.78375 -0.0538,-0.65 -0.105,-1.415 -0.0213,-2.0675 0.465,-3.5725 1.38,-7.025 2.74125,-10.28375 0.3425,-0.6925 0.54375,-1.5575 0.88,-2.31375 l -0.1975,-0.15375 c -0.43625,0.7475 -0.8,1.545 -1.1975,2.31625 -0.32125,0.81625 -0.7225,1.58875 -0.99625,2.42875 l -0.21875,-0.0913 c 0.12,-0.5475 0.2975,-1.0725 0.465,-1.6025 0.17375,-0.52875 0.33125,-1.06875 0.58625,-1.54125 0.73625,-1.62 1.6925,-3.09625 2.6225,-4.6025 0.44875,-0.775 1.0325,-1.43375 1.5425,-2.17875 l 0.87625,-1.01375 c 0.29875,-0.3325 0.57125,-0.7175 0.92125,-0.955 0.4525,-0.36125 0.85875,-0.74625 1.37375,-1.15375 0.56875,-0.40125 1.17,-0.82375 1.82875,-1.28625 -1.2025,0.5025 -2.6,1.21125 -2.69375,1.0825 -0.31625,-0.29625 -0.3275,-0.96875 0.0837,-1.6925 0.2275,-0.4325 0.30125,-0.6375 -0.0475,-0.51875 -0.35375,0.09 -1.11125,0.595 -2.5275,1.67 0.0888,-0.24375 1.05625,-1.09625 1.60875,-1.63 0.275,-0.24375 0.44125,-0.395 0.33,-0.40625 -0.11,-0.0175 -0.4925,0.125 -1.34875,0.65375 -0.42875,-0.0113 -0.515,-0.2925 -1.07,0.035 z m -1.48625,1.37125 c -0.34375,0.36125 -0.86,0.805 -1.39375,1.38125 -0.545,0.5625 -1.22125,1.15875 -1.83375,1.855 -0.3225,0.335 -0.64875,0.6725 -0.98375,1.01875 -0.32625,0.34375 -0.60125,0.72375 -0.90875,1.06875 -0.535,0.6 -1.09875,1.23375 -1.7225,1.93625 1.73625,-2.8125 4.08375,-5.2575 6.8425,-7.26 z m -11.0075,18.4225 -0.15625,-0.0863 c 0.88125,-3.275 2.13,-6.4625 3.80375,-9.425 l 0.28,0.235 c -1.68625,2.905 -2.98,6.03875 -3.9275,9.27625 z m 7.52875,25.5725 c -2.01,-3.44875 -2.48625,-6.98 -2.30875,-10.71 0.35625,3.78625 1.075,7.0925 2.30875,10.71 z m 7.33875,20.455 c 0.0213,0.075 -0.0175,0.235 -0.0113,0.33375 -0.26625,-0.0913 -0.5625,-0.1425 -0.8475,-0.21625 -0.3,-0.0538 -0.5025,-0.2375 -0.7575,-0.355 -0.47625,-0.27125 -0.99125,-0.51625 -1.4425,-0.82625 -0.935,-0.5825 -1.87125,-1.2125 -2.685,-1.94625 l 0.2613,-0.3575 c 0.8025,0.69625 1.7525,1.1525 2.67375,1.645 0.4475,0.26125 0.91,0.515 1.3675,0.80875 0.22875,0.14625 0.44375,0.32125 0.67375,0.48375 0.225,0.1725 0.51375,0.2725 0.7675,0.43 z m -7.695,-59.3625 0.17125,0.1725 c -2.0875,2.73375 -3.72125,5.80875 -4.94125,9.03125 l -0.13125,-0.0725 c 1.19,-3.25125 2.80875,-6.36375 4.90125,-9.13125 z m 0.36,52.74875 -0.215,0.28375 c -1.42375,-1.5175 -2.69,-3.16 -3.90125,-4.855 l 0.40875,-0.425 c 0.57625,0.865 1.15125,1.72625 1.75875,2.56375 0.65375,0.815 1.2425,1.66125 1.94875,2.4325 z m -6.275,-36.57875 0.305,-0.001 c -0.2975,2.2725 -0.51375,4.56125 -0.47,6.85 l -0.31875,-0.0488 c -0.035,-2.2725 0.17875,-4.54375 0.48375,-6.8"
         style="fill:#231f20;fill-opacity:1;fill-rule:evenodd;stroke:none"
         id="path4222" />
      <path
         inkscape:connector-curvature="0"
         d="m 666.5766,597.5775 c 1.73625,-2.8125 4.08375,-5.2575 6.8425,-7.26 -0.34375,0.36125 -0.86,0.805 -1.39375,1.38125 -0.545,0.5625 -1.22125,1.15875 -1.83375,1.855 -0.3225,0.335 -0.64875,0.6725 -0.98375,1.01875 -0.32625,0.34375 -0.60125,0.72375 -0.90875,1.06875 -0.535,0.6 -1.09875,1.23375 -1.7225,1.93625"
         style="fill:#ffffff;fill-opacity:1;fill-rule:evenodd;stroke:none"
         id="path4224" />
      <path
         inkscape:connector-curvature="0"
         d="m 666.3391,599.46375 c -1.68625,2.905 -2.98,6.03875 -3.9275,9.27625 l -0.15625,-0.0863 c 0.88125,-3.275 2.13,-6.4625 3.80375,-9.425 l 0.28,0.235"
         style="fill:#ffffff;fill-opacity:1;fill-rule:evenodd;stroke:none"
         id="path4226" />
      <path
         inkscape:connector-curvature="0"
         d="m 667.6316,623.6025 c 0.35625,3.78625 1.075,7.0925 2.30875,10.71 -2.01,-3.44875 -2.48625,-6.98 -2.30875,-10.71"
         style="fill:#ffffff;fill-opacity:1;fill-rule:evenodd;stroke:none"
         id="path4228" />
      <path
         inkscape:connector-curvature="0"
         d="m 671.7966,651.4 c 0.8025,0.69625 1.7525,1.1525 2.67375,1.645 0.4475,0.26125 0.91,0.515 1.3675,0.80875 0.22875,0.14625 0.44375,0.32125 0.67375,0.48375 0.225,0.1725 0.51375,0.2725 0.7675,0.43 0.0213,0.075 -0.0175,0.235 -0.0113,0.33375 -0.26625,-0.0913 -0.5625,-0.1425 -0.8475,-0.21625 -0.3,-0.0538 -0.5025,-0.2375 -0.7575,-0.355 -0.47625,-0.27125 -0.99125,-0.51625 -1.4425,-0.82625 -0.935,-0.5825 -1.87125,-1.2125 -2.685,-1.94625 l 0.2613,-0.3575"
         style="fill:#ffffff;fill-opacity:1;fill-rule:evenodd;stroke:none"
         id="path4230" />
      <path
         inkscape:connector-curvature="0"
         d="m 664.68285,604.53625 c 1.19,-3.25125 2.80875,-6.36375 4.90125,-9.13125 l 0.17125,0.1725 c -2.0875,2.73375 -3.72125,5.80875 -4.94125,9.03125 l -0.13125,-0.0725"
         style="fill:#ffffff;fill-opacity:1;fill-rule:evenodd;stroke:none"
         id="path4232" />
      <path
         inkscape:connector-curvature="0"
         d="m 666.2366,643.1575 c 0.57625,0.865 1.15125,1.72625 1.75875,2.56375 0.65375,0.815 1.2425,1.66125 1.94875,2.4325 l -0.215,0.28375 c -1.42375,-1.5175 -2.69,-3.16 -3.90125,-4.855 l 0.40875,-0.425"
         style="fill:#ffffff;fill-opacity:1;fill-rule:evenodd;stroke:none"
         id="path4234" />
      <path
         inkscape:connector-curvature="0"
         d="m 663.18535,618.375 c -0.035,-2.2725 0.17875,-4.54375 0.48375,-6.8 l 0.305,-0.001 c -0.2975,2.2725 -0.51375,4.56125 -0.47,6.85 l -0.31875,-0.0488"
         style="fill:#ffffff;fill-opacity:1;fill-rule:evenodd;stroke:none"
         id="path4236" />
      <path
         inkscape:connector-curvature="0"
         d="m 650.3341,586.87375 c -0.92125,0.56375 -1.84625,1.15 -2.8425,1.805 -0.97375,0.66 -1.8675,1.46125 -2.77125,2.215 -0.82125,0.8275 -1.68875,1.65 -2.39,2.5875 -0.66625,0.95 -1.4125,1.87625 -1.99625,2.87875 -1.21625,1.985 -2.34625,4.045 -3.07125,6.23625 -1.57875,4.34375 -2.51375,8.8325 -3.15,13.375 -0.0725,0.56 -0.0812,1.15375 -0.11875,1.7175 -0.2675,2.305 -0.31875,4.62 -0.28,6.93125 0.0875,3.98125 0.555,7.9425 1.35125,11.83625 0.4975,2.53125 1.31125,4.995 2.0075,7.46 l 0.88875,2.8125 c 0.315,0.93125 0.705,1.83875 1.0525,2.76 0.33875,0.925 0.77,1.8175 1.1675,2.72375 0.38625,0.91 0.83625,1.795 1.3,2.67625 0.32625,0.61625 0.75125,1.33125 0.97875,1.83 2.06375,4.8275 5.8675,8.8625 10.47,10.935 2.04625,0.9175 3.88,0.875 6.095,1.5775 -1.12375,-0.52875 -2.2475,-0.97375 -3.15875,-1.49375 -0.48125,-0.2325 -0.875,-0.52375 -1.25,-0.77625 -0.37875,-0.25375 -0.71625,-0.4925 -0.9925,-0.73 -0.48,-0.845 -0.7175,-1.53 -1.01625,-2.31625 0.68,0.60125 1.4875,1.3475 2.33,1.925 0.7975,0.5225 1.56625,0.92875 2.34375,1.36375 -0.675,-0.5375 -1.2425,-1.135 -1.91875,-1.74625 -0.6825,-0.6475 -1.31875,-1.36125 -2.015,-2.0975 -0.6475,-0.78375 -1.33625,-1.61125 -2.04,-2.5675 2.40625,1.86625 4.14,3.13375 5.74875,4.21125 1.04875,0.81375 0.5975,0.0663 -0.155,-0.95875 -0.57375,-0.79375 -0.9875,-1.69875 -1.52625,-2.48 -0.49125,-0.83875 -0.89875,-1.77875 -1.4025,-2.72125 1.06,0.9375 1.65625,1.7075 2.7275,2.6 -0.50875,-0.8625 -0.66875,-1.3775 -0.96375,-1.8725 -0.3375,-0.5725 -0.69625,-1.10625 -1.0525,-1.655 -0.34625,-0.55375 -0.69125,-1.105 -1.03625,-1.655 -0.34125,-0.55 -0.63875,-1.14125 -0.96625,-1.7 -0.3325,-0.55625 -0.64,-1.13 -0.93,-1.7175 -1.31375,-2.24125 -2.51125,-4.56625 -3.8475,-6.85875 -1.225,-2.1625 -2.69625,-6.03125 -3.4425,-9.97125 -0.79,-3.935 -0.84625,-7.8625 -0.50875,-9.9475 0.06,-0.33375 0.0525,-0.965 -0.0188,-1.34875 -0.45875,-2.4025 -0.7175,-4.78875 -0.94625,-7.255 -0.0387,-0.80625 -0.0475,-1.75125 0.0475,-2.5675 0.3375,-2.215 0.72875,-4.415 1.35625,-6.5225 0.5125,-2.1575 1.455,-4.115 2.1375,-6.18125 0.37375,-0.87625 0.635,-1.92 1.01125,-2.8675 l -0.21875,-0.165 c -0.4875,0.945 -0.93375,1.91875 -1.36625,2.89375 l -0.5875,1.5 c -0.2325,0.4825 -0.4275,0.98625 -0.605,1.4975 l -0.24,-0.0925 c 0.15625,-0.66625 0.38375,-1.30625 0.58625,-1.955 0.21,-0.64625 0.36375,-1.325 0.66375,-1.91 0.86,-1.9975 1.9325,-3.8775 3.1025,-5.69375 0.26375,-0.48125 0.5625,-0.9325 0.89,-1.3625 l 0.95125,-1.33875 c 0.3375,-0.42875 0.705,-0.83125 1.05875,-1.25625 0.36375,-0.4075 0.69,-0.8925 1.125,-1.18 0.5625,-0.43875 1.07125,-0.91 1.705,-1.40125 0.7,-0.475 1.44125,-0.97875 2.25125,-1.52875 -1.4525,0.62875 -3.1475,1.5025 -3.2425,1.38 -0.34125,-0.295 -0.3075,-1.05125 0.23375,-1.8675 0.3025,-0.48875 0.40625,-0.7175 -0.0113,-0.56375 -0.205,0.0913 -0.55625,0.22 -1.04875,0.57 -0.49375,0.3475 -1.15375,0.83 -2.0125,1.475 0.12375,-0.2775 1.30375,-1.2975 1.9825,-1.9325 0.34,-0.29125 0.54875,-0.465 0.41875,-0.47 -0.0625,0 -0.2125,0.0462 -0.47,0.155 -0.26,0.1375 -0.63125,0.3575 -1.1425,0.6725 -0.49,0.0237 -0.57,-0.28 -1.23,0.12375 z m -1.81875,1.63875 c -0.425,0.42625 -1.05,0.96375 -1.6975,1.665 -0.66625,0.68125 -1.4725,1.42 -2.20125,2.27625 -0.8025,0.8075 -1.51125,1.73125 -2.205,2.60875 -0.345,0.41375 -0.69375,0.83125 -1.05125,1.25875 -0.3175,0.41375 -0.63375,0.80375 -0.9425,1.16 l 0.78,-1.2825 c 0.2775,-0.4175 0.58375,-0.82 0.87375,-1.23 0.58375,-0.81625 1.16,-1.64 1.8725,-2.3725 0.68875,-0.74625 1.38875,-1.48 2.1825,-2.13875 l 1.1525,-1.01625 c 0.3875,-0.33125 0.82625,-0.61875 1.23625,-0.92875 z m -12.44625,22.67 -0.16125,-0.09 c 0.82875,-3.98 2.00375,-7.94375 3.89875,-11.6125 l 0.3125,0.2575 c -1.9075,3.60375 -3.1525,7.50375 -4.05,11.445 z m 8.0925,31.33125 c -2.16875,-4.43 -2.8075,-8.725 -2.8375,-13.3475 0.51125,4.7 1.37625,8.81125 2.8375,13.3475 z m 8.8525,24.40875 -0.005,0.33375 c -1.14,-0.60625 -2.16875,-1.395 -3.13125,-2.21875 -0.4825,-0.415 -0.99625,-0.80875 -1.46,-1.25 l -1.31,-1.37875 0.2325,-0.30375 c 0.425,0.4475 0.86625,0.8525 1.30625,1.2475 0.46,0.38375 0.9625,0.72125 1.44125,1.0875 0.95625,0.72875 1.87375,1.55125 2.92625,2.4825 z m -9.14125,-72.24375 0.18625,0.18875 c -2.46375,3.37625 -4.33875,7.18375 -5.57125,11.16875 L 638.3491,605.96 c 1.1875,-4.01875 3.05,-7.86625 5.52375,-11.28125 z m 1.41,63.6325 -0.18375,0.25375 c -0.7425,-0.95125 -1.44625,-1.935 -2.12,-2.9375 -0.6275,-1.0225 -1.305,-2.03125 -1.89375,-3.08 l 0.34875,-0.39875 c 1.15375,2.12375 2.40375,4.2075 3.84875,6.1625 z m -7.89875,-43.79875 0.305,-0.02 c -0.2625,2.765 -0.4525,5.5425 -0.32,8.31375 l -0.3025,-0.0512 c -0.135,-2.74625 0.0588,-5.5 0.3175,-8.2425"
         style="fill:#231f20;fill-opacity:1;fill-rule:evenodd;stroke:none"
         id="path4238" />
      <path
         inkscape:connector-curvature="0"
         d="m 640.41785,597.48125 0.78,-1.2825 c 0.2775,-0.4175 0.58375,-0.82 0.87375,-1.23 0.58375,-0.81625 1.16,-1.64 1.8725,-2.3725 0.68875,-0.74625 1.38875,-1.48 2.1825,-2.13875 l 1.1525,-1.01625 c 0.3875,-0.33125 0.82625,-0.61875 1.23625,-0.92875 -0.425,0.42625 -1.05,0.96375 -1.6975,1.665 -0.66625,0.68125 -1.4725,1.42 -2.20125,2.27625 -0.8025,0.8075 -1.51125,1.73125 -2.205,2.60875 -0.345,0.41375 -0.69375,0.83125 -1.05125,1.25875 -0.3175,0.41375 -0.63375,0.80375 -0.9425,1.16"
         style="fill:#ffffff;fill-opacity:1;fill-rule:evenodd;stroke:none"
         id="path4240" />
      <path
         inkscape:connector-curvature="0"
         d="m 640.1191,599.7375 c -1.9075,3.60375 -3.1525,7.50375 -4.05,11.445 l -0.16125,-0.09 c 0.82875,-3.98 2.00375,-7.94375 3.89875,-11.6125 l 0.3125,0.2575"
         style="fill:#ffffff;fill-opacity:1;fill-rule:evenodd;stroke:none"
         id="path4242" />
      <path
         inkscape:connector-curvature="0"
         d="m 641.3241,629.16625 c 0.51125,4.7 1.37625,8.81125 2.8375,13.3475 -2.16875,-4.43 -2.8075,-8.725 -2.8375,-13.3475"
         style="fill:#ffffff;fill-opacity:1;fill-rule:evenodd;stroke:none"
         id="path4244" />
      <path
         inkscape:connector-curvature="0"
         d="m 647.34035,662.105 c 0.425,0.4475 0.86625,0.8525 1.30625,1.2475 0.46,0.38375 0.9625,0.72125 1.44125,1.0875 0.95625,0.72875 1.87375,1.55125 2.92625,2.4825 l -0.005,0.33375 c -1.14,-0.60625 -2.16875,-1.395 -3.13125,-2.21875 -0.4825,-0.415 -0.99625,-0.80875 -1.46,-1.25 l -1.31,-1.37875 0.2325,-0.30375"
         style="fill:#ffffff;fill-opacity:1;fill-rule:evenodd;stroke:none"
         id="path4246" />
      <path
         inkscape:connector-curvature="0"
         d="m 638.3491,605.96 c 1.1875,-4.01875 3.05,-7.86625 5.52375,-11.28125 l 0.18625,0.18875 c -2.46375,3.37625 -4.33875,7.18375 -5.57125,11.16875 L 638.3491,605.96"
         style="fill:#ffffff;fill-opacity:1;fill-rule:evenodd;stroke:none"
         id="path4248" />
      <path
         inkscape:connector-curvature="0"
         d="m 641.4341,652.14875 c 1.15375,2.12375 2.40375,4.2075 3.84875,6.1625 l -0.18375,0.25375 c -0.7425,-0.95125 -1.44625,-1.935 -2.12,-2.9375 -0.6275,-1.0225 -1.305,-2.03125 -1.89375,-3.08 l 0.34875,-0.39875"
         style="fill:#ffffff;fill-opacity:1;fill-rule:evenodd;stroke:none"
         id="path4250" />
      <path
         inkscape:connector-curvature="0"
         d="m 637.0666,622.755 c -0.135,-2.74625 0.0588,-5.5 0.3175,-8.2425 l 0.305,-0.02 c -0.2625,2.765 -0.4525,5.5425 -0.32,8.31375 l -0.3025,-0.0512"
         style="fill:#ffffff;fill-opacity:1;fill-rule:evenodd;stroke:none"
         id="path4252" />
      <path
         inkscape:connector-curvature="0"
         d="m 624.64285,584.23375 c -0.59625,0.28875 -1.05,0.70375 -1.5575,1.1225 -0.51,0.42875 -1.025,0.86125 -1.54125,1.295 -0.97625,0.9375 -1.96875,1.92625 -2.8675,2.93 -1.7325,2.075 -3.43875,4.21625 -4.735,6.58 -0.64875,1.17875 -1.33625,2.34625 -1.88,3.57 -0.58,1.21 -1.1625,2.42375 -1.6375,3.67375 -1.92125,5.00625 -3.15875,10.20375 -4.16625,15.47125 -0.12,0.6525 -0.15375,1.3425 -0.26,1.99875 l -0.5675,4.0325 c -0.12625,1.35 -0.30125,2.7 -0.35625,4.0575 -0.22125,4.67625 -0.0412,9.37 0.5,14.0275 0.32875,3.02625 1.01625,6.0125 1.6025,8.98375 0.91625,4.55625 2.2275,9.04375 4.05125,13.39 0.32625,0.7575 0.75,1.6475 0.97375,2.25375 0.95375,2.97625 2.495,5.70375 4.48875,8.035 0.8425,1.2675 2.35125,2.03375 3.345,3.105 1.09125,1.0025 2.30875,1.87625 3.57375,2.59625 1.17375,0.59875 2.12,1.1075 3.1225,1.5825 1.0575,0.4125 2.15,0.805 3.395,1.37125 -0.63,-0.395 -1.23875,-0.77625 -1.81875,-1.14 -0.59,-0.36125 -1.13875,-0.7275 -1.6075,-1.12625 -0.9325,-0.79625 -1.81375,-1.44375 -2.43375,-2.045 -0.55625,-0.9825 -0.84,-1.7575 -1.2,-2.65625 0.755,0.77125 1.6425,1.72875 2.58,2.4975 0.8975,0.68375 1.7125,1.29875 2.5725,1.91125 -0.74625,-0.71 -1.36875,-1.46625 -2.14125,-2.22875 -0.7725,-0.81375 -1.47625,-1.71125 -2.25625,-2.635 -0.715,-0.97625 -1.47875,-2.01125 -2.2475,-3.2 0.62875,0.64375 1.26375,1.2 1.81625,1.74875 0.55375,0.55375 1.08625,1.0525 1.6275,1.49125 1.055,0.89875 1.905,1.77 2.85375,2.45625 1.235,1.0125 0.6575,0.1925 -0.2425,-1.02875 -1.185,-2.0575 -2.40125,-3.84625 -3.25,-6.3725 1.00875,1.36 1.71125,2.31 2.89625,3.51625 -0.5925,-1.0475 -0.78625,-1.6525 -1.115,-2.26875 -0.37875,-0.7075 -0.71,-1.43375 -1,-2.18875 -0.3375,-0.72125 -0.72125,-1.40625 -1.08125,-2.1 -0.35625,-0.7 -0.6575,-1.43875 -0.9925,-2.14375 -0.15625,-0.36125 -0.33875,-0.705 -0.51875,-1.0525 l -0.49875,-1.0675 c -1.39375,-2.80875 -2.58375,-5.73375 -3.88375,-8.65 -1.265,-2.72125 -2.57625,-7.53625 -3.0725,-12.355 -0.54625,-4.81625 -0.28,-9.5625 0.25,-12.0625 0.0875,-0.39875 0.1325,-1.1675 0.09,-1.64125 -0.135,-1.48125 -0.18875,-2.94875 -0.315,-4.43375 -0.03,-1.47375 -0.11,-2.97 -0.0575,-4.4675 0.0412,-0.98375 0.10625,-2.13625 0.3025,-3.12 1.0275,-5.4125 2.8125,-10.5375 4.72625,-15.575 0.45125,-1.10375 0.86125,-2.35 1.3125,-3.535 l -0.22375,-0.1675 c -1.17,2.36625 -2.25625,4.7825 -3.13125,7.30125 l -0.2425,-0.0988 c 0.20375,-0.81375 0.44375,-1.62 0.7175,-2.41 0.27375,-0.78875 0.51,-1.5975 0.85625,-2.33125 0.575,-1.20125 1.09,-2.44625 1.74125,-3.6025 l 0.90375,-1.785 1.01125,-1.7175 c 0.64125,-1.17625 1.4425,-2.2275 2.185,-3.34125 0.76375,-1.08875 1.68125,-2.0725 2.44125,-3.16875 0.5275,-0.69875 1.19,-1.275 1.82625,-1.9775 0.765,-0.66375 1.57125,-1.36625 2.455,-2.13375 -0.86,0.55625 -1.655,1.07125 -2.34125,1.515 -0.7075,0.42875 -1.09625,0.76125 -1.2125,0.695 -0.395,-0.245 -0.365,-1.055 0.20875,-2.04125 0.33125,-0.57375 0.4475,-0.83125 -0.0212,-0.58625 -0.495,0.195 -1.465,1.1 -3.41125,2.74375 0.1375,-0.315 1.4725,-1.585 2.2,-2.395 0.36875,-0.405 0.6125,-0.6025 0.46375,-0.58875 -0.15,0.005 -0.665,0.3275 -1.7925,1.18625 -0.5625,0.0987 -0.615,-0.16625 -1.4125,0.3 z m -1.98,2.06625 c -0.26375,0.3075 -0.53125,0.6225 -0.80625,0.945 -0.3125,0.3925 -0.63375,0.79375 -0.96625,1.21 -0.37125,0.4425 -0.7525,0.89625 -1.14375,1.3625 -0.3825,0.4975 -0.77375,1.00625 -1.1725,1.52375 -0.4075,0.51625 -0.82,1.04 -1.23625,1.5675 -0.39125,0.53125 -0.78375,1.06125 -1.18,1.59625 -0.82125,1.025 -1.48875,2.065 -2.165,2.91625 1.095,-2.04625 2.4175,-3.98125 3.875,-5.82875 1.4425,-1.8575 3.03,-3.6375 4.795,-5.2925 z m -14.0575,27.05 -0.1575,-0.11 c 1.12375,-4.63625 2.6325,-9.2175 4.835,-13.49625 l 0.30875,0.27375 c -2.215,4.22 -3.78625,8.74 -4.98625,13.3325 z m 5.84,38.01375 c -1.9975,-5.5575 -2.3225,-10.73875 -2.00375,-16.2825 0.1675,5.6875 0.725,10.70375 2.00375,16.2825 z m 9.21125,29.24625 0.015,0.3475 c -0.61125,-0.43625 -1.23875,-0.86875 -1.7825,-1.38125 -0.58125,-0.48375 -1.11625,-1.00375 -1.63875,-1.54 -0.51,-0.5425 -1.1175,-1.0175 -1.68125,-1.53625 -0.57625,-0.50375 -1.0175,-1.1075 -1.4975,-1.6875 l 0.2475,-0.3025 c 0.4775,0.55375 0.91,1.10875 1.46625,1.56375 0.555,0.45875 1.13625,0.88375 1.6625,1.35875 1.025,0.9675 2.04375,2.005 3.20875,3.1775 z m -5.9225,-86.6875 0.19,0.19 c -2.7175,4.10375 -4.86375,8.58375 -6.4575,13.235 l -0.13875,-0.0862 c 1.55375,-4.68375 3.67875,-9.2025 6.40625,-13.33875 z m -2.62125,75.98625 -0.2025,0.2625 c -0.72375,-1.22875 -1.45375,-2.46375 -2.135,-3.72 -0.625,-1.2775 -1.33125,-2.53625 -1.89,-3.845 L 611.2616,662.2 c 0.51375,1.33625 1.20375,2.61 1.80125,3.91125 0.635,1.2875 1.36625,2.53625 2.05,3.7975 z M 609.6766,617.3 l 0.3125,-0.0137 c -0.49625,3.26375 -0.92,6.54125 -1.03875,9.83875 l -0.3025,-0.085 c 0.12125,-3.26375 0.5425,-6.50875 1.02875,-9.74"
         style="fill:#231f20;fill-opacity:1;fill-rule:evenodd;stroke:none"
         id="path4254" />
      <path
         inkscape:connector-curvature="0"
         d="m 613.99285,597.42125 c 1.095,-2.04625 2.4175,-3.98125 3.875,-5.82875 1.4425,-1.8575 3.03,-3.6375 4.795,-5.2925 -0.26375,0.3075 -0.53125,0.6225 -0.80625,0.945 -0.3125,0.3925 -0.63375,0.79375 -0.96625,1.21 -0.37125,0.4425 -0.7525,0.89625 -1.14375,1.3625 -0.3825,0.4975 -0.77375,1.00625 -1.1725,1.52375 -0.4075,0.51625 -0.82,1.04 -1.23625,1.5675 -0.39125,0.53125 -0.78375,1.06125 -1.18,1.59625 -0.82125,1.025 -1.48875,2.065 -2.165,2.91625"
         style="fill:#ffffff;fill-opacity:1;fill-rule:evenodd;stroke:none"
         id="path4256" />
      <path
         inkscape:connector-curvature="0"
         d="m 613.5916,600.0175 c -2.215,4.22 -3.78625,8.74 -4.98625,13.3325 l -0.1575,-0.11 c 1.12375,-4.63625 2.6325,-9.2175 4.835,-13.49625 l 0.30875,0.27375"
         style="fill:#ffffff;fill-opacity:1;fill-rule:evenodd;stroke:none"
         id="path4258" />
      <path
         inkscape:connector-curvature="0"
         d="m 612.4416,635.08125 c 0.1675,5.6875 0.725,10.70375 2.00375,16.2825 -1.9975,-5.5575 -2.3225,-10.73875 -2.00375,-16.2825"
         style="fill:#ffffff;fill-opacity:1;fill-rule:evenodd;stroke:none"
         id="path4260" />
      <path
         inkscape:connector-curvature="0"
         d="m 617.3191,674.51 c 0.4775,0.55375 0.91,1.10875 1.46625,1.56375 0.555,0.45875 1.13625,0.88375 1.6625,1.35875 1.025,0.9675 2.04375,2.005 3.20875,3.1775 l 0.015,0.3475 c -0.61125,-0.43625 -1.23875,-0.86875 -1.7825,-1.38125 -0.58125,-0.48375 -1.11625,-1.00375 -1.63875,-1.54 -0.51,-0.5425 -1.1175,-1.0175 -1.68125,-1.53625 -0.57625,-0.50375 -1.0175,-1.1075 -1.4975,-1.6875 l 0.2475,-0.3025"
         style="fill:#ffffff;fill-opacity:1;fill-rule:evenodd;stroke:none"
         id="path4262" />
      <path
         inkscape:connector-curvature="0"
         d="m 611.32785,607.26125 c 1.55375,-4.68375 3.67875,-9.2025 6.40625,-13.33875 l 0.19,0.19 c -2.7175,4.10375 -4.86375,8.58375 -6.4575,13.235 l -0.13875,-0.0862"
         style="fill:#ffffff;fill-opacity:1;fill-rule:evenodd;stroke:none"
         id="path4264" />
      <path
         inkscape:connector-curvature="0"
         d="m 611.2616,662.2 c 0.51375,1.33625 1.20375,2.61 1.80125,3.91125 0.635,1.2875 1.36625,2.53625 2.05,3.7975 l -0.2025,0.2625 c -0.72375,-1.22875 -1.45375,-2.46375 -2.135,-3.72 -0.625,-1.2775 -1.33125,-2.53625 -1.89,-3.845 L 611.2616,662.2"
         style="fill:#ffffff;fill-opacity:1;fill-rule:evenodd;stroke:none"
         id="path4266" />
      <path
         inkscape:connector-curvature="0"
         d="m 608.64785,627.04 c 0.12125,-3.26375 0.5425,-6.50875 1.02875,-9.74 l 0.3125,-0.0137 c -0.49625,3.26375 -0.92,6.54125 -1.03875,9.83875 l -0.3025,-0.085"
         style="fill:#ffffff;fill-opacity:1;fill-rule:evenodd;stroke:none"
         id="path4268" />
    </g>
  </g>
</svg>
