<?xml version="1.0" encoding="UTF-8" standalone="no"?>
<!-- Created with Inkscape (http://www.inkscape.org/) -->

<svg
   xmlns:dc="http://purl.org/dc/elements/1.1/"
   xmlns:cc="http://creativecommons.org/ns#"
   xmlns:rdf="http://www.w3.org/1999/02/22-rdf-syntax-ns#"
   xmlns:svg="http://www.w3.org/2000/svg"
   xmlns="http://www.w3.org/2000/svg"
   xmlns:sodipodi="http://sodipodi.sourceforge.net/DTD/sodipodi-0.dtd"
   xmlns:inkscape="http://www.inkscape.org/namespaces/inkscape"
   width="317.2334"
   height="207.25955"
   id="svg3428"
   version="1.1"
   inkscape:version="0.48.3.1 r9886"
   sodipodi:docname="New document 20">
  <defs
     id="defs3430" />
  <sodipodi:namedview
     id="base"
     pagecolor="#ffffff"
     bordercolor="#666666"
     borderopacity="1.0"
     inkscape:pageopacity="0.0"
     inkscape:pageshadow="2"
     inkscape:zoom="0.35"
     inkscape:cx="119.33098"
     inkscape:cy="60.772632"
     inkscape:document-units="px"
     inkscape:current-layer="layer1"
     showgrid="false"
     fit-margin-top="0"
     fit-margin-left="0"
     fit-margin-right="0"
     fit-margin-bottom="0"
     inkscape:window-width="669"
     inkscape:window-height="573"
     inkscape:window-x="65"
     inkscape:window-y="24"
     inkscape:window-maximized="0" />
  <metadata
     id="metadata3433">
    <rdf:RDF>
      <cc:Work
         rdf:about="">
        <dc:format>image/svg+xml</dc:format>
        <dc:type
           rdf:resource="http://purl.org/dc/dcmitype/StillImage" />
        <dc:title></dc:title>
      </cc:Work>
    </rdf:RDF>
  </metadata>
  <g
     inkscape:label="Layer 1"
     inkscape:groupmode="layer"
     id="layer1"
     transform="translate(-255.66902,-385.87526)">
    <path
       inkscape:connector-curvature="0"
       id="path3052"
       style="fill:#182442;fill-opacity:1;fill-rule:evenodd;stroke:none"
       d="m 470.97776,419.64599 c 10.3925,-4.5575 22.605,-9.66125 33.72625,-14.21875 0,-0.91125 0,-3.28125 1.275,-3.82875 1.6425,-0.36375 2.37,0.9125 2.91875,1.8225 2.3675,-0.54625 5.83375,-1.4575 6.92625,-4.01 0.91125,-2.005 4.92125,0.18375 4.01,1.82375 -7.2925,10.9375 -4.375,10.9375 -6.56375,17.3175 -0.54375,1.27625 -2.18625,3.465 -2.3675,4.375 -0.73,4.01125 0.545,8.20375 0,12.9425 7.10875,0.9125 16.59,-1.45625 26.4325,-1.45625 2.91625,-0.1825 6.74375,-0.1825 9.47875,-0.54875 2.37,-0.365 5.2875,-1.64 7.83875,-1.82125 6.0175,-0.54875 2.1875,3.82625 0.91125,5.8325 -1.275,2.37 -3.09875,4.1925 -4.92,6.38 -2.55375,3.6475 -5.105,7.475 -7.47625,11.30375 -2.37,3.64625 -7.10875,7.10875 -5.65125,12.0325 5.65125,4.375 14.585,3.28125 22.605,6.38 3.1,1.0925 8.57,0.91125 12.58,2.735 0.91125,3.28 -1.45875,4.1925 -3.46375,6.015 -7.2925,6.19875 -16.7725,13.67375 -24.61,20.23625 -1.27625,1.0925 -3.64625,3.09875 -4.56,4.375 0.91375,2.9175 9.11625,12.57875 11.30625,14.94875 2.36875,2.5525 5.285,6.92625 6.56,10.39 4.9225,2.1875 6.74625,5.83375 4.3775,8.38625 -1.64125,1.64125 -6.19875,-1.275 -10.39125,-0.9125 -4.56,0.36625 -8.7525,1.095 -14.585,0.73 -8.0225,-0.54625 -15.6775,-2.00625 -24.245,-1.27625 -1.6425,0.18375 -3.28125,0.54625 -4.55875,1.64125 -0.91,7.29125 -2.36875,14.0375 -4.19125,20.4175 0.7275,0.54625 1.4575,1.095 1.63875,2.18875 0.18375,1.82125 -1.82,4.37375 -3.09875,5.28625 -1.095,0.54625 -2.55125,0.36375 -3.4625,-0.36625 -0.73,-0.365 -0.5475,-1.8225 -1.45875,-2.00375 -10.755,-2.37125 -19.68875,-6.3825 -27.1625,-10.9375 -5.2875,3.28 -9.29875,8.02125 -13.67375,12.2125 -4.92125,4.92125 -13.125,11.48625 -13.49,12.395 -0.365,1.09625 -1.275,4.3775 -3.28125,3.64875 -2.3675,-1.27625 -4.1925,-2.37 -7.47375,-2.9175 -1.8225,-0.365 -4.01125,-2.18875 -6.5625,-3.09875 -4.92375,-2.00625 -8.935,-3.28125 -13.855,-5.46875 -2.00625,-1.09375 -4.9225,-3.1 -6.56375,-2.9175 -1.09375,0.18125 -4.19125,3.09875 -5.46875,4.01 -5.105,4.01125 -9.48,6.92875 -14.585,10.3925 -2.73375,1.4575 -3.64375,4.1925 -2.915,6.925 0.18125,2.1875 -0.9125,2.9175 -3.64625,1.095 -1.2775,-3.0975 -4.92125,-3.4625 -6.56125,-6.19875 -2.00625,-1.275 -4.37625,-2.5525 -4.74125,-4.92125 0.73,-0.54875 3.28125,0.73 4.19375,0.73 -3.28375,-4.9225 -6.745,-9.6625 -10.57625,-13.85625 -1.82125,-2.73375 -3.28,-7.29125 -6.925,-7.10875 -2.18875,0.18125 -5.28625,3.645 -7.47375,5.28625 -7.11125,4.92 -15.4975,10.75625 -21.1475,15.13125 -0.91125,0.72875 -2.37,-0.1825 -2.5525,-0.73125 -1.45875,-13.12375 -9.48,-21.3275 -15.67625,-30.625 -3.28375,0.72875 -6.92875,2.005 -10.575,3.09875 -5.47,1.64125 -9.115,3.64625 -15.13125,5.47 -2.91625,0.91125 -5.28625,2.73375 -7.2925,1.095 -0.545,-0.91375 -0.1825,-2.735 -0.1825,-4.01125 0.5475,-0.54875 1.09375,-1.09375 1.82375,-1.82375 2.735,-8.75 4.9225,-18.0475 8.20375,-26.25125 -4.74125,-2.37 -13.85625,-3.28125 -20.6,-5.28875 -1.45875,0.54875 -8.02125,1.095 -8.38625,-1.6375 -0.18125,-3.1 1.64125,-4.01125 3.46375,-5.10625 5.65125,-8.5675 12.76,-16.77125 18.595,-24.06375 -6.38,-5.10375 -12.76125,-10.02625 -17.86625,-16.225 -1.63875,-2.36875 -2.7325,-4.19125 -2.91625,-5.285 -0.18125,-1.09375 3.09875,-4.55875 5.2875,-3.64625 9.29625,-2.9175 21.32875,-2.37 28.4375,-7.2925 0.5475,-8.75 3.09875,-18.23 0.36625,-25.88625 -0.54875,-1.27625 1.63875,-2.00625 2.91625,-1.27625 4.01,3.09875 8.02,5.2875 14.94875,5.65125 4.5575,0.36375 7.65625,1.64 10.02625,-1.64125 2.36875,-3.46375 4.37375,-7.65625 6.5625,-11.30125 1.09375,-1.82375 4.55875,-5.835 4.9225,-7.84125 0.36375,-1.275 -0.36375,-3.64375 0.73,-4.37375 2.915,-0.5475 6.92625,-2.735 6.5625,2.37 5.46875,3.09875 13.85375,6.015 19.69,8.02125 1.09125,0.36375 2.18625,1.275 3.28,1.0925 1.0925,-0.365 5.83125,-6.745 6.92625,-7.83875 6.015,-6.745 12.58,-11.4825 18.95875,-17.3175 2.735,-2.37 6.01625,-4.375 7.84,-7.83875 3.28125,-0.54625 6.19625,-1.2775 7.2925,1.64 -0.36625,4.92375 2.73375,8.93375 4.73875,12.58 1.8225,2.91625 3.82875,5.46875 5.83375,7.47375 13.855,-7.6575 27.5275,-15.68 41.3825,-23.51625 0.545,-0.9125 1.64,-1.27625 2.18875,-2.00625 3.46125,0.9125 5.4675,-2.5525 7.29125,0 0.91,1.27625 1.4575,4.375 1.82125,5.8325 2.005,8.75125 4.74125,19.32625 6.01625,26.98125 l 0,0 z m -17.6825,-27.345 c -12.76,7.11 -25.88625,13.6725 -37.91875,21.87625 -1.27625,0.91125 0.1825,3.46375 1.2775,2.73375 12.395,-8.20375 25.33875,-15.13125 37.18875,-23.88125 0.72875,-0.365 0.91,-1.64 -0.5475,-0.72875 l 0,0 z m -59.06375,2.9175 c -0.915,0.73 0,1.8225 0,2.735 1.63875,0.91 3.09625,3.28125 4.3725,4.01 0.54875,0.365 2.005,0.1825 1.64125,-0.18375 -1.27375,-1.275 -2.005,-4.92125 -3.0975,-6.56125 -0.5475,-0.9125 -1.45875,-1.27625 -2.91625,0 l 0,0 z m 63.6225,-0.5475 c -1.09625,-0.1825 -2.18875,0.365 -3.10125,0.73 -5.8325,2.91625 -13.125,8.20375 -18.23,12.215 -4.01,3.28 -9.29625,3.82625 -12.03,8.385 -2.0075,3.46375 -6.56375,4.55625 -9.66375,6.92625 -1.46,0.91125 -6.19875,-0.91 -4.92125,-3.82625 -2.73375,-2.91875 -4.55875,-6.74625 -8.2025,-8.75125 -4.01125,-2.37 -6.56375,-5.105 -9.845,-7.83875 -2.37,0.91 -4.74,2.73375 -6.19875,4.73875 -4.37625,5.105 -8.20125,10.7575 -12.57875,15.86 -1.09375,1.09375 0.1825,2.1875 -0.1825,3.09875 -1.09375,2.005 -2.55125,2.005 -2.7325,4.19375 -0.18375,1.27625 -2.18875,2.5525 -2.91875,1.64125 -1.275,-1.64125 -2.735,-1.82375 -4.92125,-2.18875 -2.73375,-0.54625 -5.2875,-2.5525 -8.38625,-3.28 -6.74375,-1.64125 -13.67375,-3.465 -19.505,-6.0175 -2.3725,4.9225 -4.195,10.21 -6.2,15.3125 -1.0925,2.735 -0.7275,5.28875 -1.45875,8.205 -0.5475,2.735 -6.19625,1.09375 -8.02,0.91125 -7.11,-0.54625 -14.22,-1.82375 -20.41625,-2.735 -3.6475,6.92875 2.18625,20.4175 -6.19875,22.7875 -1.27625,0.365 -2.9175,-0.72875 -3.82875,-0.54625 -8.5675,2.55125 -15.86125,4.74 -22.97125,8.75125 3.83,6.56125 10.94,9.47875 15.4975,15.13 7.655,0.36625 3.64375,7.2925 2.1875,9.1175 -4.92375,6.56 -12.76125,14.765 -17.32,20.9625 8.20375,2.915 15.315,3.64375 24.61125,2.915 1.275,-0.18125 2.735,1.09625 2.55125,2.37125 -2.00375,9.115 -6.19625,17.68125 -7.83875,26.2525 7.2925,-3.2825 14.76625,-6.565 22.42375,-9.6625 1.8225,-0.73 3.09875,-0.91375 5.46875,0 3.09875,3.8275 4.01125,8.385 6.5625,12.94375 0.5475,1.09375 2.00375,2.7325 2.5525,3.8275 2.005,3.64625 2.9175,7.6575 5.285,10.9375 5.47,-3.28 12.2175,-6.56375 18.05,-10.39 1.09375,-0.73 2.55375,-2.5525 3.645,-3.46625 1.82375,-1.45625 2.73375,-2.915 6.015,-2.55125 5.28875,1.27625 7.475,6.0175 10.21,10.0275 2.91625,4.19375 4.375,7.10875 6.92875,11.48375 0.3625,0.91375 2.73375,2.00625 3.28125,3.6475 0.72875,2.37 1.4575,4.1925 2.735,6.38 8.02125,-4.9225 16.5875,-10.0275 22.42,-18.0475 1.27875,-1.64125 4.19375,-4.74125 6.19875,-4.9225 3.64625,-0.1825 4.19375,2.55375 7.475,4.01125 1.09375,0.365 2.37125,0.72875 3.46375,1.275 1.09375,0.5475 2.1875,1.2775 3.1,1.82375 5.83375,2.55125 11.48375,2.55125 17.68125,4.9225 1.2775,0.54625 1.82375,1.4575 2.735,1.275 1.46,-0.18125 3.46375,-3.64625 4.74,-4.92125 6.19875,-6.38125 12.21375,-12.3975 17.6825,-18.59375 2.73625,-2.91625 6.0175,-7.65625 8.57,-2.735 2.37,4.74 6.015,5.10375 10.5725,7.29125 4.92125,2.18875 9.48,6.01625 15.6775,6.92625 1.46,-9.295 6.745,-20.59875 5.105,-30.4425 -0.365,-1.6425 4.01125,-4.01125 4.92125,-2.73375 2.37125,3.0975 4.9225,2.73375 9.2975,3.28 11.6675,1.09375 22.7875,2.00625 33.36125,0.9125 -1.27625,-3.83 -4.73875,-7.11125 -7.83875,-10.57375 -3.1,-3.82875 -6.37875,-8.205 -9.48,-11.12125 -3.645,1.64125 -5.46875,-2.18875 -3.82875,-3.64625 2.18875,-2.0025 5.46875,-4.19125 7.2925,-6.01375 8.5675,-7.84 18.41125,-13.67375 25.52125,-22.60625 -11.3025,-2.37 -21.875,-5.6525 -32.63,-9.11625 -2.37125,-0.91 1.64,-6.5625 3.645,-8.9325 2.91625,-3.645 4.92125,-6.56125 6.745,-8.75 2.9175,-3.8275 6.74375,-8.9325 8.20375,-13.12625 -3.28125,-0.54625 -7.475,1.64125 -10.57375,2.00625 -10.20875,1.4575 -19.14,0.18125 -28.07375,2.005 -0.9125,2.37 -4.19375,3.09875 -5.8325,1.45875 -1.095,-1.27625 -1.64125,-2.91625 -1.82375,-4.19375 -1.4575,0.1825 -2.73625,0.91125 -3.82875,1.2775 -2.73375,0.54625 -3.4625,-2.55375 -1.09375,-3.2825 1.27625,-0.36375 3.09875,-0.72875 4.74,-1.27625 0.54625,-9.66125 2.91625,-17.135 2.73375,-26.43375 -10.5725,4.37625 -21.875,7.84125 -31.71875,13.125 0,0.9125 -0.365,2.5525 -1.27875,2.73625 -2.185,0.5475 -6.015,2.005 -7.10875,0.73 -1.27625,-1.64125 -1.63875,-3.46625 -0.7275,-4.74 0.7275,-0.9125 3.1,-1.64125 2.91625,-2.37125 -1.27625,-6.5625 -3.8275,-11.3025 -6.01625,-16.95375 -0.365,-2.00625 -1.095,-7.47375 -3.28,-8.02125 l 0,0 z m 3.64375,0 c 0,0.18375 0.36625,0.73 0.73,0.9125 0.1825,-0.365 0.365,-1.095 0,-1.64125 -0.36375,-0.5475 -0.91125,0.1825 -0.73,0.72875 l 0,0 z m 2.1875,4.375 c 0,-0.91 -0.3625,-2.37125 -1.4575,-2.91625 0.1825,1.27625 0.365,2.55125 1.4575,2.91625 l 0,0 z m 1.27625,5.28875 c 0.36625,-0.73 -0.1825,-2.37125 -0.7275,-2.91875 -0.54875,0.9125 0,2.37 0.7275,2.91875 l 0,0 z m 42.66,11.8475 c 0.18125,0.36375 0.54625,0.72875 0.7275,0.72875 0.54875,0.18375 0.36625,-2.915 0.36625,-3.09875 0.1825,-0.54625 -1.09375,-0.365 -1.27625,0.365 0,0.18375 0.1825,1.82375 0.1825,2.005 l 0,0 z m -1.6425,13.12625 0.5475,1.09375 c 1.27625,-3.46375 2.37125,-8.385 0.72875,-11.85 0,4.19375 -2.55125,7.11 -1.27625,10.75625 l 0,0 z m -135.08375,-10.2075 c 0,0.36375 -0.54625,1.82125 -0.18125,2.00375 0.73,0.1825 3.0975,-4.19375 2.18625,-3.8275 -0.545,0.18125 -1.8225,1.09375 -2.005,1.82375 l 0,0 z m -3.64625,5.8325 c 0,0.36375 0.91125,-0.18125 1.46,-0.18125 0.73,0 1.45875,-2.91875 0.73,-2.91875 -0.73,0 -1.825,1.64125 -2.19,3.1 l 0,0 z m -39.375,0.91 c -1.2775,1.82375 -2.735,4.01125 -4.19375,6.56375 -1.095,1.64125 -4.5575,6.74625 -0.54625,7.2925 3.64375,-4.37625 5.1025,-11.85 7.8375,-16.7725 0.18375,-0.36375 -0.36375,-1.45875 -1.0925,-0.36375 -0.54875,1.0925 -1.09625,2.005 -2.005,3.28 l 0,0 z m 207.82125,11.66875 -1.82375,-0.1825 c -1.09375,0 -2.37,0.1825 -3.46375,0.1825 0.36375,1.0925 4.01125,0.91125 5.2875,0 l 0,0 z m -233.5275,2.73375 c 0.73,0 1.6425,0.1825 1.8225,-0.365 0.18375,-1.27625 -3.0975,-2.36875 -4.01125,-1.27625 -0.91,0.73 0.91375,1.64125 2.18875,1.64125 l 0,0 z m 3.82875,0.365 c 0.365,0.5475 1.275,0.36375 2.37,0.36375 0,0.18375 0.1825,-0.91125 0,-1.09375 -0.545,-0.3625 -2.37,0.1825 -2.37,0.73 l 0,0 z m 3.82875,0.36375 c 0.36375,0.54875 1.4575,0.54875 2.37,0.54875 0.36375,0.18125 0.54625,0 0.72875,-0.9125 -0.365,-0.1825 -3.09875,-0.5475 -3.09875,0.36375 l 0,0 z m -46.8525,29.35125 c -0.36375,0.9125 1.82375,-0.54625 2.37,-0.365 2.37125,1.09375 4.375,-1.275 6.0175,-2.5525 1.63875,-1.275 -7.2925,0.9125 -8.3875,2.9175 l 0,0 z m 0.73125,43.57 -2.5525,3.8275 c 7.47375,-6.74375 13.67125,-14.58375 19.505,-23.1525 0.18375,-0.36375 -0.36375,-1.275 -1.09375,-0.545 -6.9275,7.11 -10.9375,11.84875 -15.85875,19.87 l 0,0 z m 280.55875,4.37625 -0.545,-1.27875 c -1.09625,-1.275 -1.64375,-3.0975 -3.46625,-3.46125 1.09375,1.275 1.09375,3.8275 4.01125,4.74 l 0,0 z m -263.24,31.72 0,0 c 3.46125,-5.835 4.9225,-13.6725 7.10875,-20.6025 0,-0.36375 -0.1825,-0.72875 -0.5475,-0.72875 -2.5525,6.56375 -5.65,13.855 -6.56125,21.33125 l 0,0 z m 228.9675,-14.22 0,0 c 4.19375,0.91 9.84375,1.82375 15.3125,0.18125 -4.5575,-0.54625 -10.57125,-2.005 -15.3125,-0.18125 l 0,0 z m 29.35,2.005 c 3.28125,0.3625 5.105,0 8.20375,0 -2.37125,-2.5525 -7.11,-1.4575 -8.20375,0 l 0,0 z m -254.125,15.86 0,0 c 5.65125,-0.36375 10.9375,-3.28125 16.04125,-5.105 2.37125,-0.36375 4.3775,-1.275 4.9225,-3.4625 -7.6575,1.0925 -14.76625,5.10375 -20.96375,8.5675 l 0,0 z m 31.1725,2.73375 0.1825,-1.8225 c -0.91125,-2.9175 -2.00625,-4.55625 -4.375,-6.01625 0,2.9175 2.005,6.01625 4.1925,7.83875 l 0,0 z m 186.4925,-2.18875 c 1.27875,-0.90875 1.64,-3.09625 1.095,-4.19 -0.73,1.63875 -1.45875,2.55125 -1.095,4.19 l 0,0 z m -37.1875,-2.0025 c -2.0075,2.36875 -4.195,4.19125 -6.01875,6.01375 -0.7275,0.72875 -1.27375,2.1875 -2.00375,2.9175 -2.37,2.1875 -5.6525,4.19375 -7.29,6.745 -0.54875,0.91125 -0.73125,2.005 -1.27875,2.9175 -1.45875,1.82375 -4.01,2.36875 -4.73875,4.92125 7.11125,-4.74125 14.58375,-13.3075 18.7775,-17.3175 2.005,-1.82375 5.46875,-3.465 4.55625,-6.74625 -0.18125,-0.91 -1.8225,0.36625 -2.00375,0.54875 l 0,0 z m 20.78125,8.20125 c -2.00625,-2.55 -6.1975,-4.01 -9.6625,-5.1025 0.365,0.36375 2.73375,2.37 5.2875,3.64375 2.1875,1.095 4.5575,1.6425 4.375,1.45875 l 0,0 z m -166.25875,2.3725 c 0.36625,0.36375 0.9125,0.7275 1.64125,0.90875 0,-1.63875 -1.09375,-3.825 -2.005,-3.645 0,0.73 -0.54875,2.1875 0.36375,2.73625 l 0,0 z m 23.335,1.4575 c -0.36375,0.365 1.09625,0.72875 1.82375,0.5475 1.4575,-0.5475 2.73375,-3.1 2.005,-3.6475 -0.18125,0.9125 -3.2825,1.6425 -3.82875,3.1 l 0,0 z m -3.2825,1.64125 c -2.36875,2.36875 -8.5675,5.28625 -12.2125,7.29 -0.91125,0.5475 -2.37,1.8225 -1.825,2.735 5.105,-1.0925 9.11625,-5.10375 13.12625,-8.02125 1.27875,-0.91125 2.55375,-0.91125 2.91625,-2.73375 0.185,-0.54625 -1.0925,-0.36375 -2.005,0.73 l 0,0 z m 86.0475,7.655 c 0.365,0 1.82125,-0.5475 1.64,-0.72875 -1.095,-0.91125 -2.5525,-0.72875 -3.4625,-1.09375 -1.095,-0.18125 0.91,1.8225 1.8225,1.8225 l 0,0 z m 3.64625,1.64125 c 0.18,0 1.27625,0 1.45875,-0.18375 0.54625,-0.545 -2.18875,-1.8225 -2.735,-1.4575 -0.9125,0.54875 0.72875,1.2775 1.27625,1.64125 l 0,0 z m 4.19125,1.45875 c 0.1825,-0.1825 -0.18,-1.09375 -0.18,-1.2775 -0.365,-0.18125 -1.2775,-0.18125 -1.46,0.18375 -0.54625,0.36375 1.27625,1.4575 1.64,1.09375 l 0,0 z m 2.55375,1.275 c 0.1825,-0.36375 -0.73,-1.275 -1.2775,-0.91125 -0.54625,0.1825 0.5475,1.64125 1.2775,0.91125" />
  </g>
</svg>
