<?xml version="1.0" encoding="UTF-8" standalone="no"?>
<!-- Created with Inkscape (http://www.inkscape.org/) -->

<svg
   xmlns:dc="http://purl.org/dc/elements/1.1/"
   xmlns:cc="http://creativecommons.org/ns#"
   xmlns:rdf="http://www.w3.org/1999/02/22-rdf-syntax-ns#"
   xmlns:svg="http://www.w3.org/2000/svg"
   xmlns="http://www.w3.org/2000/svg"
   xmlns:sodipodi="http://sodipodi.sourceforge.net/DTD/sodipodi-0.dtd"
   xmlns:inkscape="http://www.inkscape.org/namespaces/inkscape"
   width="370.24747"
   height="181.80235"
   id="svg3353"
   version="1.1"
   inkscape:version="0.48.3.1 r9886"
   sodipodi:docname="New document 15">
  <defs
     id="defs3355" />
  <sodipodi:namedview
     id="base"
     pagecolor="#ffffff"
     bordercolor="#666666"
     borderopacity="1.0"
     inkscape:pageopacity="0.0"
     inkscape:pageshadow="2"
     inkscape:zoom="0.35"
     inkscape:cx="214.40945"
     inkscape:cy="-154.81311"
     inkscape:document-units="px"
     inkscape:current-layer="layer1"
     showgrid="false"
     inkscape:window-width="584"
     inkscape:window-height="617"
     inkscape:window-x="65"
     inkscape:window-y="24"
     inkscape:window-maximized="0"
     fit-margin-top="0"
     fit-margin-left="0"
     fit-margin-right="0"
     fit-margin-bottom="0" />
  <metadata
     id="metadata3358">
    <rdf:RDF>
      <cc:Work
         rdf:about="">
        <dc:format>image/svg+xml</dc:format>
        <dc:type
           rdf:resource="http://purl.org/dc/dcmitype/StillImage" />
        <dc:title></dc:title>
      </cc:Work>
    </rdf:RDF>
  </metadata>
  <g
     inkscape:label="Layer 1"
     inkscape:groupmode="layer"
     id="layer1"
     transform="translate(-160.59055,-195.74672)">
    <path
       inkscape:connector-curvature="0"
       id="path3026"
       style="fill:#182442;fill-opacity:1;fill-rule:evenodd;stroke:none"
       d="m 530.83803,200.30422 c -0.9125,1.27625 -0.9125,2.1875 -1.8125,3.645 -1.1,-0.18125 -2.2,-0.18125 -2.925,0 -1.825,1.6425 -4.1875,2.5525 -6.2,4.195 -1.8125,1.275 -3.6375,4.1925 -5.65,6.5625 -1.0875,1.275 -2.725,2.00375 -3.825,3.09875 -3.825,4.5575 -8.75,8.385 -13.675,12.21375 -2.55,2.00625 -4.7375,4.74 -7.1125,6.74625 -1.275,1.27625 -3.1,1.63875 -4.375,2.91625 -1.275,1.0925 -1.8125,2.73375 -2.9125,4.01 -2.9125,3.1 -7.1125,5.2875 -9.85,8.38625 -1.0875,0.91125 -1.6375,2.55125 -2.725,3.4625 -0.7375,0.72875 -1.825,0.9125 -2.55,1.64125 -1.4625,1.27625 -2.375,3.46375 -3.8375,4.9225 -1.8125,1.4575 -3.825,2.73375 -5.4625,4.37625 -8.025,7.8375 -16.9625,15.6775 -24.975,24.06125 -4.75,4.74125 -10.4,8.0225 -14.775,13.30875 -4.375,2.55375 -7.8375,6.1975 -11.475,9.48 -0.7375,0 -1.2875,0.36375 -1.825,0.5475 -1.1,0.91 -1.825,3.09875 -3.8375,4.5575 -0.3625,0.18125 -1.0875,0 -1.275,0.18125 -0.9,0.73 -1.45,2.37 -2.3625,3.09875 -0.1875,0.1825 -0.9125,-0.18125 -1.1,-0.18125 -2.1875,0.91125 -3.6375,5.46875 -6.925,2.55125 -1.0875,-3.09875 2.1875,-5.8325 0.9125,-8.385 1.6375,-2.00625 2,-4.5575 3.2875,-6.38125 1.45,-7.10875 3.4625,-16.22375 5.1,-23.33375 2,-3.46375 2.55,-7.83875 3.825,-11.485 -3.6375,-0.36375 -6.375,3.09875 -10.2125,3.4625 -4.9125,3.10125 -10.5625,5.10375 -16.2125,7.11 -13.8625,7.47375 -28.9875,13.12625 -42.1125,21.1475 -2.2,0.365 -4.2,1.0925 -5.2875,2.735 -3.1,1.0925 -6.025,2.36875 -8.025,4.73875 -3.1,0.18375 -5.4625,1.45875 -7.1125,3.46375 -4.1875,1.095 -7.65,3.2825 -11.85,4.74 -0.9125,1.09375 -2.7375,1.2775 -3.6375,2.37 -8.025,1.64125 -15.3125,6.01625 -21.875,10.02625 -9.125,2.005 -15.5,7.475 -24.43751,9.84375 -14.5875,6.19875 -28.075,13.85625 -42.83622,20.0525 -1.46,1.2775 -4.1925,1.2775 -5.28875,2.9175 -2.915,0.18375 -4.3725,2.37 -6.92625,2.9175 -0.73,0 -0.54625,1.09375 -1.09375,1.4575 -4.01125,1.2775 -7.83875,2.91875 -10.57375,6.01625 -1.82375,0.1825 -2.55125,-0.18125 -4.5575,-0.365 -0.18375,-3.0975 2.00625,-3.28125 2.73375,-5.285 -1.82375,-1.45875 -3.82875,-4.37625 -1.09375,-6.01625 0.9125,0 1.4575,-0.365 2.55125,0 3.10125,-2.00625 6.565,-3.46375 9.30125,-5.65125 4.00875,-0.54625 6.74375,-2.5525 9.8425,-4.1925 3.28125,-0.365 5.4675,-2.37125 8.0225,-4.01 3.64375,-1.095 7.10622,-3.1 10.75622,-4.925 14.7625,-6.925 29.525,-14.21625 45.02501,-20.78125 -0.55,-2.55125 1.6375,-3.8275 1.6375,-6.745 0.1875,-1.0925 -1.275,-0.91125 -1.45,-1.8225 0,-8.38625 2.3625,-17.13625 2.725,-25.88625 -1.0875,0.1825 -1.0875,1.82375 -1.275,3.09875 -3.4625,8.02125 -6.7375,16.225 -9.65001,24.97375 -0.55,1.27875 0.725,1.27875 0.35,2.37 -1.6375,1.2775 -4.725,2.18875 -5.825,-0.18125 2,-9.11375 2.9125,-17.6825 3.825,-27.34625 -3.2875,5.65375 -5.475,11.12125 -8.025,18.04875 -1.275,3.82875 -4,7.10875 -5.2875,10.75625 -0.3625,1.09375 -0.9,2.37 -1.275,3.46375 -0.9125,3.1 -1.45,7.29125 -2.9125,9.66125 -1.6375,-0.1825 -2.1875,1.82375 -3.825,0.9125 -0.7375,-2.1875 0.175,-4.5575 0.3625,-7.6575 0.3625,-1.275 -0.9125,-1.0925 -0.725,-2.18625 2.725,-13.855 5.4625,-28.9875 7.8375,-42.4775 -2.0125,0.73 -1.65,4.5575 -3.2875,5.6525 -2.1875,8.38625 -6.925,15.6775 -10.025,23.15125 -2,4.74 -3.4625,9.48 -5.4625,13.855 -0.375,1.09375 -1.275,1.8225 -1.65,2.9175 -0.725,2.1875 0.375,5.10375 -2.3625,6.5625 -0.9125,4.01 -3.4625,16.405 -7.29497,9.845 -0.36625,-0.91375 0.73125,-1.82375 0,-2.92 1.8225,-2.915 2.36872,-7.655 3.28122,-12.395 0.36375,-0.91125 0.55125,-2.37125 0.72625,-3.4625 1.4625,-11.485 4.7375,-22.60625 7.8375,-34.81875 -6.2,8.02 -9.1075,19.6875 -14.39872,28.61875 -0.91,4.9225 -3.46375,8.93375 -5.2875,13.1275 -1.09125,6.015 -5.285,12.215 -6.19625,19.6875 -0.7275,0.5475 -1.09375,1.64 -1.82375,2.18875 -1.09375,0 -2.00375,0.36375 -3.27875,0 -2.3725,-5.835 2.55125,-13.1275 3.46125,-19.68875 2.005,-12.39625 4.74,-28.07625 8.93125,-40.28875 -1.275,-0.1825 -0.725,1.64125 -1.82125,1.64125 -0.91,4.5575 -3.82875,7.65625 -5.8325,11.84875 -4.01125,8.02125 -6.01875,17.13625 -9.84375,24.61125 -0.18375,3.28 -1.46,5.10375 -2.735,7.11 0.545,3.09875 -2.3725,6.1975 -2.00625,9.295 -0.91125,2.73625 -5.105,2.5525 -5.46875,-0.545 -0.18375,-1.825 1.09375,-2.735 1.4575,-4.37625 0.9125,-3.28 1.27625,-10.755 1.27625,-13.30875 3.09875,-9.11375 5.28625,-23.3325 6.01625,-33.90625 -5.105,7.47375 -10.39,16.0425 -13.48875,24.61 -1.09625,3.465 -7.8425,3.28 -5.65125,-1.8225 1.27625,-2.9175 5.83125,-8.02125 6.1975,-9.47875 0.36375,-3.46625 1.0925,-6.2 3.09875,-9.6625 1.09375,-2.005 3.28125,-3.465 4.01125,-5.28625 0.18125,-0.54875 0,-1.2775 0.18125,-1.82375 0.54625,-0.91125 1.82375,-1.46 2.37,-2.37 0.36375,-0.72875 0.1825,-1.64125 0.36375,-2.37 0.73,-1.64125 2.55375,-2.1875 3.28125,-3.465 0.9125,-1.275 0.5475,-2.73375 1.6425,-3.645 1.275,-1.2775 4.1925,-1.45875 5.65,-1.8225 3.1,2.37 2.55375,6.5625 -0.54625,8.75125 -1.0925,10.39 -6.19875,20.05125 -6.19875,30.625 2.91875,-2.73375 3.6475,-8.38625 6.92875,-10.9375 0.36375,-2.735 2.18625,-5.105 3.645,-7.84 0.54625,-1.27625 1.09375,-2.91625 1.8225,-4.19125 0.5475,-1.2775 1.8225,-2.18875 2.36875,-3.465 1.27875,-3.1 1.64375,-6.745 4.195,-8.93125 -0.545,-1.64125 1.0925,-3.46625 0.9125,-5.835 2.005,-0.91125 4.01125,-3.645 7.28997,-2.18625 -0.36372,5.8325 -4.19247,12.21375 -3.46122,17.865 -0.55,-0.1825 -0.73125,0.18125 -0.91375,0.54625 -1.09375,8.02125 -4.74125,17.31875 -5.46625,24.61125 1.455,-1.09375 2.1875,-3.46375 3.09875,-5.46875 1.09375,-2.1875 2.3675,-4.19375 2.73125,-6.565 4.74372,-6.01375 7.28747,-14.5825 11.84997,-20.9625 1.6375,-7.47375 5.8375,-12.57875 7.8375,-18.59625 -3.1,-0.36375 -6.7375,1.46 -9.6625,2.5525 -0.55,0 -1.0875,0 -1.825,-0.1825 -15.12622,5.105 -31.16872,10.21 -46.30122,15.315 -2.55,0.91125 -5.2875,2.18625 -7.655,4.01125 -2.36875,0.18125 -4.74125,0.36375 -6.01625,-1.46125 0.18125,-1.4575 0.54875,-1.63875 0.36625,-2.915 1.275,-0.5475 2.7325,-1.09375 3.645,-2.00625 4.01125,0.5475 6.37875,-2.73375 9.4775,-4.19125 1.27875,-0.5475 2.9175,-0.36625 4.19375,-0.73125 0.91375,-0.365 1.82375,-1.4575 2.735,-1.82125 2.915,-1.27625 6.38125,-1.64 9.29875,-2.735 8.75,-2.735 17.68125,-6.38 25.3375,-10.0275 4.38122,-0.36375 6.56872,-3.09875 11.11872,-3.09875 13.4875,-6.38125 29.5375,-9.115 44.48751,-14.0375 5.65,-1.82125 12.575,-2.91625 19.1375,-4.01 1.08749,0.1825 0.72499,-1.09375 1.63749,-1.09375 2.73751,-0.1825 6.2,-0.1825 9.1125,-0.91125 0.7375,-0.1825 0.9125,-0.91 1.65,-1.095 0.725,-0.18 2,0.185 2.9125,0 3.4625,-0.91125 6.75,-1.0925 9.85,-1.82125 1.0875,-0.1825 2.3625,-1.2775 3.6375,-1.64 2.925,-0.9125 6.3875,-0.365 8.38751,-2.18875 4.5625,-0.1825 8.3875,-0.91125 11.67499,-2.5525 4.7375,0 9.2875,-0.72875 14.025,-1.64 5.1125,-1.09375 12.03751,-1.64125 18.05001,-2.73625 -5.82501,-3.64625 -13.125,-5.8325 -18.775,-9.11375 -2.36251,-1.275 -4.1875,-2.005 -6.375,-3.465 -1.1,-0.54625 -2.0125,-2.005 -3.1,-2.37 -2.55,-1.0925 -5.2875,0.1825 -7.475,-1.82 -0.725,-2.73625 -4.0125,-3.2825 -5.65,-5.28875 0.3625,-1.275 1.08749,-2.00375 1.6375,-2.9175 9.83749,0.91375 18.775,-0.545 28.4375,-1.4575 9.47499,-0.73 19.13749,-0.365 28.81249,-1.09375 8.73751,-0.73 17.48751,-1.45875 26.0625,-1.82125 5.8375,-0.3675 11.6625,0.18125 17.5,-0.18375 13.3125,-0.73 26.6125,-0.18375 39.925,-1.095 10.21251,-0.72625 19.6875,0.91125 29.90001,0 1.08749,-0.18125 2.54999,-1.09375 3.82499,-1.09375 4.56251,-0.36375 9.85001,1.09375 13.67501,-1.4575 3.27499,1.825 5.46249,-0.72875 9.11249,0.72875 0.55001,1.2775 1.46251,2.37125 2,3.82875 l 0,0 z m -71.6375,2.55375 0,0 c -2.925,0 -6.025,-0.18375 -9.1125,-0.18375 -2.0125,0.18375 -4.5625,-0.365 -5.65,1.275 2.55,-0.545 4.55,0 6.55,-0.91 10.5875,1.45625 18.6,0.365 27.9,-0.18125 -5.475,-1.6425 -12.95,0.18125 -19.6875,0 l 0,0 z m 14.0375,4.1925 0,0 c 0.9125,2.0025 -2.0125,4.92 0,6.01375 0.9125,-2.36875 4.0125,-2.55 6.0125,-0.90875 0.1875,0.545 -0.725,1.82 0.3625,1.63875 1.1,0.73 2.375,-1.09375 1.825,-2.735 1.6375,-0.36375 2.0125,-2.37 4.5625,-1.82375 2.1875,2.005 5.65,2.92 6.375,6.01625 3.1,-3.645 7.1125,-6.19875 10.025,-9.84125 -8.75,-0.5475 -20.05,0.54375 -29.1625,1.64 l 0,0 z m -40.2875,-2.9175 0,0 c 3.1,-0.18375 8.3875,0.91125 10.9375,-0.72875 -3.65,0.18125 -7.8375,-0.18375 -10.9375,0.72875 l 0,0 z m -1.825,0.18125 0,0 c 0.55,0 1.4625,0.365 1.275,-0.54625 -0.725,-0.1825 -1.1,0 -1.275,0.54625 l 0,0 z m -3.1,-0.365 0,0 c 0.175,1.46125 2.55,1.095 2.9125,0 -1.0875,0 -2.3625,-0.36375 -2.9125,0 l 0,0 z m 34.825,3.465 0,0 c -0.1875,1.45875 -0.1875,2.55125 0.3625,3.46375 -4.2,6.9275 -5.8375,17.135 -8.2125,25.52125 1.275,-1.09375 2.375,-2.73375 3.1,-4.1925 2.375,-4.92125 5.1125,-9.6625 7.6625,-14.58375 0.3625,-0.72875 0.3625,-1.09375 0.55,-2.37125 0.175,-0.545 1.0875,-0.3625 1.0875,-1.27625 0.1875,-1.0925 0.1875,-1.0925 0.1875,-2.36875 0.3625,-0.91125 0.9125,-1.64125 1.275,-2.55375 -0.3625,-2.18625 -3.65,-2.18625 -6.0125,-1.63875 l 0,0 z m -43.9375,-3.465 0,0 c -2.0125,0 -4.5625,-0.36375 -5.1125,1.095 4.0125,0 8.575,0.1825 12.95,-0.91125 -1.825,0 -4.925,-0.18375 -7.8375,-0.18375 l 0,0 z m 80.575,10.7575 0,0 c -1.825,2.00375 -3.4625,2.36875 -3.65,5.28625 3.8375,-1.82375 6.0125,-5.6525 9.3,-8.20375 -2.9125,-2.18625 -3.65,1.09375 -5.65,2.9175 l 0,0 z m -60.525,-6.5625 0,0 c -0.3625,0.36375 -0.1875,1.45875 -0.9125,1.45875 0.725,2.5525 -1.825,3.8275 -2.55,5.8325 -1.825,4.375 -2.7375,10.93875 -4.375,16.4075 -1.275,4.1925 -2.925,8.5675 -3.2875,12.9425 1.1,-0.365 1.1,-2.1875 2.1875,-2.37 0.1875,-2.73375 2.0125,-3.4625 2.0125,-6.01625 2.3625,-2.36875 3.275,-7.475 6.2,-9.84375 0.3625,-2.5525 2.9125,-4.01125 2.725,-6.1975 1.1,-0.9125 2.375,-1.8225 2.375,-4.19375 1.825,-0.365 1.825,-2.73375 2.9125,-3.8275 0,-0.73 -0.3625,-1.09625 0,-2.00625 1.4625,-0.545 2.55,-1.64125 4.2,-2.005 1.275,0.91 2.1875,2.005 2.3625,3.83 -5.825,7.8375 -7.65,18.95625 -10.025,28.61875 2.0125,-1.82125 2.0125,-6.015 4.0125,-7.83875 1.4625,-3.82875 2.55,-8.20375 4.5625,-11.84875 1.45,-2.55125 3.6375,-4.5575 4.55,-6.92875 0.9125,-2.9175 0.7375,-5.46875 3.1,-6.74375 -6.925,0 -13.85,-0.185 -20.05,0.73 l 0,0 z m -34.8125,-3.1 0,0 c 0,-0.365 0,-0.73 -0.55,-0.54875 -5.2875,0.915 -12.0375,0.915 -17.5,1.2775 -6.2,0.54625 -12.4,0.365 -17.325,2.37125 11.125,-1.2775 24.0625,-1.2775 35.375,-3.1 l 0,0 z m 9.2875,4.375 0,0 c -1.0875,0.54625 0.1875,1.64 0,2.37 -5.8375,9.47875 -8.3875,20.4175 -10.575,33.17875 3.1,-3.645 4.0125,-7.83875 6.75,-12.39625 3.1,-5.28625 9.1125,-10.755 9.6625,-16.95375 0.9125,-2.55375 5.65,-2.005 6.375,0.54625 -0.175,0.91125 -0.725,1.64125 -1.0875,2.5525 1.275,0.9125 -0.55,1.8225 0,3.1 -3.1,3.09875 -4.7375,10.39 -5.1125,14.5825 -2,4.375 -1.6375,10.21 -3.6375,14.94875 1.6375,-2.005 2.7375,-4.9225 3.6375,-7.29125 4.0125,-11.85 8.025,-24.61125 13.3125,-35.18375 -5.2875,-0.5475 -13.125,-1.09375 -19.325,0.54625 l 0,0 z m 92.975,6.92625 0,0 c 0.7375,-0.18125 1.4625,-0.18125 1.275,-1.09375 -0.725,0 -1.0875,0.36625 -1.275,1.09375 l 0,0 z m -28.625,1.2775 0,0 c 0.7375,-0.72875 2.7375,-2.37125 1.4625,-3.09875 -0.725,0.54625 -1.0875,1.64 -1.4625,3.09875 l 0,0 z m 26.9875,0.9125 0,0 c 0.175,-0.36625 0.55,-0.73 0.175,-0.9125 -0.175,0.36375 -0.725,0.54625 -0.175,0.9125 l 0,0 z m -123.05,-7.295 0,0 c -9.4875,-0.72625 -19.6875,2.19 -28.8125,1.82375 3.65,4.37625 11.3,5.47125 15.8625,9.11625 0.725,0 1.275,0.1825 2.0125,0.1825 5.1,2.915 10.2,6.56125 16.5875,5.65 1.825,1.46 3.825,2.9175 6.375,4.0125 3.825,-7.29375 8.9375,-14.95 11.4875,-22.79 -8.3875,0 -16.775,0.18375 -23.5125,2.005 l 0,0 z m 90.05,6.3825 0,0 c 0.9125,0.1825 1.1,-1.09375 0.3625,-1.2775 -0.175,0.54875 -0.5375,0.54875 -0.3625,1.2775 l 0,0 z m -109.7375,-9.2975 0,0 c 1.45,0.5475 5.4625,1.09375 6.375,-0.91125 -2,0.54625 -5.1,-0.36375 -6.375,0.91125 l 0,0 z m 139.6375,12.76125 0,0 c 0.725,0.18125 0.9125,-0.36375 1.275,-0.72875 -0.9125,-0.1825 -1.275,0 -1.275,0.72875 l 0,0 z m -10.575,1.82375 0,0 c -1.4625,-0.91375 -2.1875,-1.6425 -4.375,-2.1875 -1.825,2.91625 -4.375,7.65625 -8.025,4.00875 -2.1875,4.01125 -4.1875,15.49625 -10.2,8.38625 0.9125,-1.64125 1.45,-3.82875 2,-6.015 -3.275,3.28125 -3.4625,8.75 -4.925,13.67125 0,0.91375 1.1,0.91375 0.9125,1.82375 -0.725,2.005 -2.55,2.5525 -3.275,4.5575 -5.2875,-0.36375 -2.7375,-6.38125 -3.2875,-9.11375 -2.55,4.1925 -3.4625,9.11375 -5.65,13.85375 0.1875,3.09875 -1.4625,4.01 -0.725,7.29125 1.275,0.36375 2.725,-1.45875 3.275,-2.9175 4.5625,-3.28 7.6625,-8.02125 12.0375,-11.30125 6.375,-7.475 14.5875,-12.57875 21.15,-19.50625 1.8125,-0.18375 2.55,-1.64125 3.275,-3.09875 -0.9125,0 -1.275,0.5475 -2.1875,0.5475 l 0,0 z m 8.3875,0 0,0 c 0.1875,1.0925 0.725,-0.91375 0,0 l 0,0 z m -1.6375,1.45875 0,0 c 0.175,0 0.3625,0 0.5375,0 0,-0.1825 0,-0.36625 0,-0.54875 -0.175,0 -0.3625,0 -0.5375,0 0,0.1825 0,0.36625 0,0.54875 l 0,0 z m -52.5125,21.6925 0,0 c -0.5375,1.275 -1.8125,2.55125 -2.3625,3.8275 -1.1,2.5525 -1.275,5.83375 -2.1875,8.38625 -1.825,4.5575 -1.6375,10.57375 -4.5625,14.95 -2,0 -3.275,-0.54875 -5.2875,-0.91375 0,-2.915 0,-5.28625 1.4625,-6.92625 2.55,-12.57875 7.1125,-24.79375 9.8375,-38.1 -3.275,3.645 -5.65,8.385 -7.2875,14.0375 -2.7375,3.28 -3.825,7.65625 -5.2875,12.2125 -0.3625,1.45875 -1.6375,2.73375 -2.1875,4.1925 -0.9125,3.09875 -1.45,6.3825 -2.55,9.66375 -1.275,4.375 -3.4625,8.5675 -4.0125,12.57625 -0.175,1.27875 0.1875,2.55375 -0.175,3.83 -0.375,2.37 -2.925,4.37375 -2.5625,7.11 -6.375,2.735 -4.375,-8.0225 -2.725,-9.84375 0.3625,-1.2775 0,-2.00625 0,-3.10125 1.8125,-2.00375 1.275,-7.1075 2.9125,-10.02625 0.9125,-7.11 4.375,-15.495 4.7375,-22.4225 1.275,-2.1875 3.1,-6.56125 2.1875,-9.115 -0.9125,2.1875 -2.55,5.10375 -2.1875,8.02125 -2.7375,2.37125 -2.55,8.75 -4.7375,11.84875 -0.3625,0.9125 0.725,0.54875 0.3625,1.45875 -3.1,6.0175 -5.4625,13.49125 -6.0125,20.965 -2.375,2.55375 -2.1875,6.19875 -2.925,10.02625 -1.275,0.5475 -2,1.4575 -3.6375,1.4575 -0.9125,-0.36375 -0.1875,-2.1875 -1.825,-2.005 -2.375,6.19875 -4.925,14.94875 -5.1,21.32875 1.6375,0 3.825,-2.1875 4.7375,-4.375 6.7375,-1.82125 9.8375,-7.8375 15.3125,-11.1175 0.175,-1.095 1.275,-1.095 1.0875,-2.37 3.1,-0.9125 4.0125,-4.37625 6.9375,-5.47 0.175,-0.73 0.5375,-1.095 0.725,-1.64 9.1125,-7.2925 17.5,-15.67875 25.15,-24.6125 -3.08751,2.55375 -7.46251,-0.365 -5.1,-4.74 -1.45,-2.36875 -0.3625,-5.10375 0.3625,-7.29125 2.01249,-6.19625 2.7375,-14.03625 4.925,-19.87125 0,-0.18125 -0.1875,-0.3625 -0.55,-0.3625 -3.1,5.65 -4.91251,12.21375 -7.475,18.41125 l 0,0 z m 37.7375,-8.75 0,0 c 0.7375,-1.45875 4.5625,-2.735 3.4625,-4.37625 -0.725,1.82375 -4,2.1875 -3.4625,4.37625 l 0,0 z m -80.575,-10.575 0,0 c -9.3,12.7625 -15.3125,29.5325 -22.6,44.665 0.3625,0.72875 0.55,1.45875 0.3625,2.55125 -1.1,1.45875 -2.1875,2.73375 -4.375,2.5525 -2.375,-1.64 -1.4625,-3.82875 -2.0125,-6.38 3.475,-2.5525 3.1,-10.575 4.2,-13.6725 -0.9125,1.4575 -2.375,2.005 -1.6375,4.01 -2.7375,3.09875 -4.2,8.0225 -5.2875,13.30875 -2.1875,2.005 -4.0125,5.83375 -3.4625,9.48 10.025,-5.105 21.15,-8.56875 30.075,-14.76625 -1.1,-2.555 -3.4625,-4.19375 -4.0125,-7.2925 0.1875,-0.9125 0.9125,-1.09375 1.275,-1.6425 1.825,-11.66625 5.2875,-22.0575 8.2,-32.81375 -0.175,0 -0.5375,0 -0.725,0 l 0,0 z m -0.9125,35.0025 0,0 c -0.3625,1.275 0.3625,1.64125 0.3625,2.5525 -0.5375,0.365 -1.45,1.275 -0.725,2.18875 3.65,0 5.1,-2.55375 8.75,-2.735 2.1875,-12.0325 4.0125,-20.96625 6.75,-32.26875 0,-0.18125 -0.1875,-0.365 -0.55,-0.365 -5.8375,10.39125 -10.025,19.1425 -14.5875,30.6275 l 0,0 z m 72.7375,-16.95375 0,0 c -2.55,2.735 -6.0125,4.9225 -8.3875,7.47375 -0.5375,0.5475 -0.5375,1.46 -1.0875,2.00625 -2,2.00375 -5.475,3.09875 -6.3875,6.1975 2.2,-0.9125 5.2875,-3.645 6.75,-6.38 4.925,-2.37 7.1125,-8.02125 11.85,-10.57375 1.1,-2.37 3.65,-2.9175 4.7375,-5.28625 -3.275,1.27625 -5.4625,4.1925 -7.475,6.5625 l 0,0 z m -48.675,-8.75 0,0 c 0.9125,0.5475 0.9125,-1.27625 0.1875,-0.9125 -0.1875,0.365 -0.1875,0.73 -0.1875,0.9125 l 0,0 z m -49.95,-2.735 0,0 c 0.375,0 0.55,0.1825 0.9125,0.1825 0,-0.1825 0,-0.365 0,-0.5475 -0.3625,-0.18125 -0.5375,-0.18125 -0.9125,-0.18125 0,0.18125 0,0.36375 0,0.54625 l 0,0 z m -3.275,0.73 0,0 c 0.725,-0.365 1.825,-0.1825 2.1875,-1.095 -0.9125,0.1825 -2.1875,0 -2.1875,1.095 l 0,0 z m -4.375,-0.73 0,0 c -4.0125,2.005 -8.75,1.27625 -13.125,2.005 -1.825,0.365 -3.4625,1.2775 -5.475,1.64125 -0.3625,0 -0.9125,-0.5475 -1.275,-0.5475 -3.1,0.18375 -5.65,2.005 -8.5625,2.55375 -1.1,0.18 -2.375,-0.185 -3.4625,0 -3.2875,0.18 -6.2,1.63875 -9.6625,2.37 -2.375,0.54625 -5.1125,0.54625 -7.6625,1.0925 -4.1875,0.91125 -10.025,2.735 -13.675,3.64625 -7.8375,2.18625 -16.4,3.09875 -24.975,4.375 -2.175,1.45875 -4,1.64125 -7.475,1.8225 -11.8375,4.74125 -26.25001,6.38 -37.55001,11.6675 10.2125,-2.00625 20.425,-4.5575 30.62501,-6.5625 7.475,-1.45875 14.5875,-3.46375 22.2375,-5.105 4.0125,-0.91125 8.2125,-1.8225 12.225,-2.73375 12.9375,-2.73375 24.7875,-4.1925 37.3625,-7.29125 7.475,-1.6425 15.1375,-3.6475 22.975,-4.9225 0.9125,0 0.55,-1.27625 1.6375,-1.095 3.2875,-0.54625 8.575,-0.72875 9.6625,-2.91625 -0.175,0 -0.3625,0 -0.55,0 -1.0875,0.73 -1.6375,0 -3.275,0 l 0,0 z m 18.05,12.21375 0,0 c 1.6375,-2.37 5.2875,-6.56125 4,-9.47875 -1.8125,2.36875 -4,6.015 -4,9.47875 l 0,0 z m -26.8,-3.09875 0,0 c 0.9125,1.27625 -0.1875,3.09875 0.175,4.5575 -3.275,6.1975 -5.2875,15.86 -6.7375,23.33375 -0.1875,0.9125 -1.275,2.005 -0.55,2.91875 5.2875,-10.575 10.9375,-21.33 15.1375,-31.5375 2.175,-0.365 3.4625,0 4.55,1.63875 -0.55,6.38125 -2.375,14.21875 -3.2875,20.235 4.0125,-3.28125 4.925,-10.39125 8.575,-14.21875 0.9125,-5.28625 4.1875,-8.20375 3.825,-12.03125 -6.7375,2.37 -14.575,3.28 -21.6875,5.10375 l 0,0 z m -21.875,4.92125 0,0 c 0.725,0.36625 0.725,1.27625 1.0875,2.00625 -3.825,9.29625 -6.2,19.32375 -8.3875,29.5325 4.2,-3.46375 5.475,-9.47875 8.2125,-14.58375 1.45,-2.735 4,-6.56375 5.4625,-9.11625 0.55,-1.0925 0.9125,-2.55125 1.4625,-3.4625 0.55,-0.91125 1.825,-1.09375 2.1875,-2.005 0.9125,-1.82375 2,-4.5575 4.5625,-4.9225 1.2625,-0.1825 0.9,1.0925 2,1.0925 0.3625,-1.275 2.55,-1.63875 1.825,-3.09875 -6.2,1.2775 -12.95,2.18875 -18.4125,4.5575 l 0,0 z m 77.8375,6.56375 0,0 c 0.3625,0 0.55,0 0.9125,0.1825 0,-0.36375 0,-0.73 0,-0.9125 -0.1875,0 -0.3625,0 -0.55,0 0,0.365 -0.3625,0.365 -0.3625,0.73 l 0,0 z m -118.675,0.9125 0,0 c -0.3625,1.64 2,1.0925 2.3625,2.1875 -2.55,14.40125 -6.7375,28.8025 -8.0125,43.75125 3.4625,-6.74375 4.925,-13.30875 8.2,-19.6875 3.4625,-6.74625 8.9375,-12.76375 10.3875,-21.33 1.275,-1.27625 2.925,-1.095 2.5625,-3.82875 1.275,-0.73 2.3625,-1.8225 4.55,-1.64 1.6375,0.72875 1.825,4.37375 0,5.285 0.1875,4.74125 -2,10.575 -2.9125,16.22625 -0.55,3.46375 -1.1,8.02125 0.9125,10.57375 4.9125,-10.39125 10.3875,-19.87 14.2125,-31.5375 2.7375,-0.5475 4.2,-4.01125 3.825,-7.11 -11.8375,2.73375 -24.0625,4.92125 -36.0875,7.11 l 0,0 z m 159.875,7.4725 0,0 c 0.1875,0 0.3625,0 0.725,0.18375 0,-0.365 0,-0.54875 0,-0.73 -0.175,0 -0.3625,0 -0.5375,0 0,0.18125 -0.1875,0.365 -0.1875,0.54625 l 0,0 z m -103.725,26.6175 0,0 c 3.275,-0.365 7.1,-2.5525 10.3875,-3.83 0.3625,-1.64 -2,-1.275 -2,-2.73375 0,0.1825 1.0875,-1.4575 1.275,-2.37125 1.275,-4.00875 0.9125,-5.65 -0.3625,-8.38375 0.3625,-0.9125 1.6375,-0.5475 1.8125,-1.45875 0.55,-4.74 2.375,-9.29875 1.4625,-13.3075 -4.925,9.84375 -9.6625,19.86875 -12.575,32.085 l 0,0 z m -58.3375,-33.18 0,0 c 0.3625,0 0.725,0.1825 1.0875,0.1825 0,-0.1825 0.1875,-0.365 0.1875,-0.5475 -0.3625,-0.1825 -0.9125,-0.1825 -1.275,-0.1825 0,0.1825 0,0.365 0,0.5475 l 0,0 z m -6.75,10.57375 0,0 c 1.825,-3.2825 6.5625,-5.83375 5.2875,-10.75625 -3.825,1.095 -8.75,1.095 -11.6625,3.09875 1.1,0.5475 2.9125,0.5475 3.65,1.46 -0.7375,1.27625 0.3625,2.005 0.175,3.28125 -0.55,1.27625 -1.4625,2.36875 -2.55,3.1 -2.9125,9.47875 -6.0125,20.41625 -7.1125,30.98875 4.5625,-8.56625 10.4,-21.3275 12.2125,-31.1725 l 0,0 z m 59.975,-4.37625 0,0 c -7.65,9.66375 -12.9375,22.05875 -18.4125,34.27375 1.2875,1.4575 -0.9,1.82375 -0.175,3.1 5.4625,-2.37125 11.6625,-4.37625 17.3125,-6.93 0,-1.275 -1.275,-1.275 -1.6375,-2.1875 -0.9125,-3.64375 2.1875,-7.47375 1.275,-10.755 0.55,-0.18125 0.9125,-0.36375 1.1,-1.0925 0.3625,-6.5625 1.275,-10.57375 1.45,-16.225 -0.3625,0 -0.725,-0.18375 -0.9125,-0.18375 l 0,0 z m -95.52501,3.28125 0,0 c 2.2,3.28375 0.1875,8.38875 -0.5375,12.58 -1.2875,7.29125 -3.8375,14.9475 -3.2875,21.32875 -1.275,0.9125 -0.725,2.00625 -0.9125,3.82875 3.8375,-5.10625 6.5625,-11.485 9.4875,-17.86625 1.45,-1.82125 2.7375,-4.19125 3.275,-7.11 0.3625,-0.7275 1.10001,-1.09125 1.27501,-2.00375 0,-1.45875 0.1875,-1.8225 0,-3.465 1.275,-0.91 2.55,-2.36875 1.6375,-4.19375 2.0125,-2.915 6.025,-1.63875 6.3875,1.2775 0.1875,3.2825 -3.4625,6.745 -1.46251,9.2975 -3.82499,2.735 -3.4625,10.5725 -3.82499,16.22375 0.55,-1.82125 1.825,-3.46125 2.54999,-5.4675 1.10001,-2.55375 1.6375,-5.6525 2.73751,-8.20375 1.08749,-2.37 3.1,-4.1925 4.18749,-6.38125 0.55,-1.275 0.55,-2.91625 1.275,-4.375 1.10001,-2.37125 3.1125,-4.74125 2.7375,-7.29125 0.7375,-0.73 1.10001,-1.27625 0.7375,-2.55375 0.9125,-0.54625 2.1875,-1.64 2,-2.55125 -9.85,1.82375 -19.325,4.01 -28.2625,6.92625 l 0,0 z m 73.83751,6.565 0,0 c -0.1875,0.36375 0,0.7275 0.175,0.91 0.7375,0.18375 0.9125,-0.365 0.9125,-1.0925 -0.5375,0 -0.9125,0 -1.0875,0.1825 l 0,0 z m -12.575,27.70875 0,0 c -0.55,1.64125 -1.1,4.73875 0,6.38 4.375,-0.91125 8.375,-2.55125 11.6625,-4.73875 -3.1,-2.5525 -2.0125,-4.37625 -1.1,-8.57 1.65,-6.56125 2.375,-12.57875 2.925,-18.41 -0.55,-0.365 -0.55,-1.46 -1.6375,-1.46 -4.0125,8.205 -8.9375,17.13625 -11.85,26.79875 l 0,0 z m -76.75001,-30.62625 0,0 c 0,0.91125 1.6375,0.91125 1.45,2.1875 -0.175,1.275 -1.6375,1.82375 -0.5375,3.1 -2.55,1.275 -1.825,5.10375 -2.375,7.65625 -0.9125,3.645 -1.275,8.2025 -2.7375,10.93625 0,6.01625 -2.55,9.66375 -2.725,13.85625 3.4625,-6.74625 6.7375,-13.85625 9.475,-21.33 3.1,-3.645 3.275,-10.755 6.0125,-14.765 -0.9125,-0.54875 -2.1875,-0.73 -2.1875,-2.005 0,-1.27875 1.4625,-0.36625 1.275,-1.64125 -2,-0.1825 -6.2,0.18125 -7.65,2.005 l 0,0 z m 54.86251,46.48625 0,0 c 4.3875,-1.4575 8.575,-3.1 12.4,-5.2875 2.1875,-12.215 6.925,-25.52 5.1125,-37.73625 -7.475,11.6675 -12.95,28.07625 -17.5125,43.02375 l 0,0 z m 113.575,-30.08 0,0 c 1.65,0 1.4625,-2.18875 1.825,-3.645 -0.175,0 -0.55,0 -0.9125,0 0,1.45625 -0.725,2.36875 -0.9125,3.645 l 0,0 z m -129.0625,24.61125 0,0 c 0.3625,0.73 0,2.005 0.3625,2.73375 -1.4625,0.36625 -0.9125,3.28125 -2.1875,4.19375 1.1,2.37 -0.9125,4.01 -1.0875,6.01625 4.0125,0.5475 6.7375,-3.46375 10.75,-4.01125 0.725,-11.85 4.7375,-23.15125 5.1,-37.18875 -0.3625,0 -0.725,0 -0.9125,0 -3.6375,9.84375 -8.0125,18.7775 -12.025,28.25625 l 0,0 z m -32.08751,-25.705 0,0 c 0.1875,0 0.55,0 0.725,0 0,-0.1825 0,-0.36375 0,-0.545 -0.175,0 -0.3625,0 -0.5375,0 0,0.18125 0,0.3625 -0.1875,0.545 l 0,0 z m 26.80001,6.56375 0,0 c 0.3625,0.9125 0.9125,-1.09375 0,0 l 0,0 z m -40.10001,-1.64125 0,0 c 0.3625,-0.365 0.5375,-1.27625 -0.1875,-1.4575 0.1875,0.3625 -0.3625,1.4575 0.1875,1.4575 l 0,0 z m -2.1875,7.47375 0,0 c 1.0875,-0.36375 2.55,-4.375 1.0875,-4.55625 0,1.64125 -1.275,3.4625 -1.0875,4.55625 l 0,0 z m -1.65,6.92875 0,0 c 1.275,0.1825 2.0125,-3.46375 1.1,-3.82875 -0.7375,0.91125 -1.1,2.18625 -1.1,3.82875 l 0,0 z m 84.58751,8.74875 0,0 c 2.0125,-0.18125 3.4625,-0.91125 4.5625,-2.1875 -1.825,0.18375 -3.1,1.27625 -4.5625,2.1875 l 0,0 z m -67.45001,-7.29125 0,0 c 0.3625,1.09375 0.725,-1.09375 0,0 l 0,0 z m -17.675,4.55625 0,0 c 0.5375,-1.63875 0.9,-3.645 0.3625,-5.1025 -0.55,1.09375 -2.0125,4.1925 -0.3625,5.1025 l 0,0 z m 82.38751,3.1 0,0 c -5.825,3.82875 -14.0375,4.9225 -19.5,9.115 -8.025,1.27625 -12.575,6.56375 -20.425,7.8375 -15.67501,8.3875 -33.35001,14.22125 -48.48751,23.15375 -11.66372,6.565 -25.15497,10.75625 -35.36122,18.96 2.55,0.1825 4.92125,-2.91625 7.83625,-3.465 4.195,-4.01125 11.485,-4.375 16.045,-8.2025 1.27375,0 1.82125,-0.9125 2.9175,-0.9125 0.725,-0.72875 1.4575,-1.4575 2.3675,-1.82125 5.64497,-1.82375 10.56997,-4.92375 15.85747,-7.475 2.1875,-0.91125 4.5625,-1.46 6.75,-2.55125 0.9125,-0.54875 1.45,-1.45875 2.55,-1.82375 3.4625,-1.64125 7.8375,-1.8225 10.575,-4.9225 0.725,0 1.275,0 1.825,0.18125 6.925,-4.73875 17.12501,-5.65 22.96251,-11.48375 1.4625,0.18125 1.65,-1.27625 3.2875,-0.54625 1.4625,-1.64125 3.6375,-2.37125 5.825,-2.735 0.55,-0.54625 0.55,-1.82375 1.4625,-2.00625 6.5625,-1.4575 11.3,-5.28625 17.8625,-6.92625 1.825,-2.00625 4.925,-2.18875 6.9375,-4.01 -0.375,-0.18375 -0.55,-0.5475 -1.2875,-0.36625 l 0,0 z m -65.80001,-3.1 0,0 c 1.0875,0.36625 1.275,-0.91 0.5375,-1.09125 -0.175,0.36375 -0.5375,0.54625 -0.5375,1.09125 l 0,0 z m -18.05,2.91875 0,0 c 0.55,0.18125 1.4625,-2.005 0.3625,-1.8225 0,0.7275 -0.55,0.91 -0.3625,1.8225 l 0,0 z m -0.1875,2.36875 0,0 c 0.1875,-0.1825 0.9125,-1.82125 -0.175,-1.64 0,0.54625 -0.55,1.4575 0.175,1.64 l 0,0 z m -2.55,7.84 0,0 c 0.1875,0.1825 0.3625,0.1825 0.55,0.1825 0,-0.1825 0,-0.365 0,-0.54875 -0.1875,-0.18125 -0.3625,-0.18125 -0.55,-0.18125 0,0.18125 0,0.365 0,0.5475" />
  </g>
</svg>
