<?xml version="1.0" encoding="UTF-8" standalone="no"?>
<!-- Created with Inkscape (http://www.inkscape.org/) -->

<svg
   xmlns:dc="http://purl.org/dc/elements/1.1/"
   xmlns:cc="http://creativecommons.org/ns#"
   xmlns:rdf="http://www.w3.org/1999/02/22-rdf-syntax-ns#"
   xmlns:svg="http://www.w3.org/2000/svg"
   xmlns="http://www.w3.org/2000/svg"
   xmlns:sodipodi="http://sodipodi.sourceforge.net/DTD/sodipodi-0.dtd"
   xmlns:inkscape="http://www.inkscape.org/namespaces/inkscape"
   width="207.87747"
   height="280.62094"
   id="svg3739"
   version="1.1"
   inkscape:version="0.48.3.1 r9886"
   sodipodi:docname="New document 39">
  <defs
     id="defs3741" />
  <sodipodi:namedview
     id="base"
     pagecolor="#ffffff"
     bordercolor="#666666"
     borderopacity="1.0"
     inkscape:pageopacity="0.0"
     inkscape:pageshadow="2"
     inkscape:zoom="0.35"
     inkscape:cx="178.93874"
     inkscape:cy="35.527597"
     inkscape:document-units="px"
     inkscape:current-layer="layer1"
     showgrid="false"
     fit-margin-top="0"
     fit-margin-left="0"
     fit-margin-right="0"
     fit-margin-bottom="0"
     inkscape:window-width="472"
     inkscape:window-height="415"
     inkscape:window-x="470"
     inkscape:window-y="66"
     inkscape:window-maximized="0" />
  <metadata
     id="metadata3744">
    <rdf:RDF>
      <cc:Work
         rdf:about="">
        <dc:format>image/svg+xml</dc:format>
        <dc:type
           rdf:resource="http://purl.org/dc/dcmitype/StillImage" />
        <dc:title></dc:title>
      </cc:Work>
    </rdf:RDF>
  </metadata>
  <g
     inkscape:label="Layer 1"
     inkscape:groupmode="layer"
     id="layer1"
     transform="translate(-196.06126,-277.766)">
    <path
       inkscape:connector-curvature="0"
       id="path3016"
       style="fill:#182442;fill-opacity:1;fill-rule:evenodd;stroke:none"
       d="m 317.24376,397.41569 c -3.09962,6.745 -2.918,12.9425 -3.82912,18.59375 -3.46388,-0.18125 -2.55175,-8.02 -1.64013,-12.03125 0.54588,-2.7325 2.1875,-5.105 2.73588,-6.5625 0.54487,-0.36625 2.00437,0.1825 2.73337,0 l 0,0 z m 1.27538,30.6275 c -2.73438,3.0975 -5.833,4.375 -10.39163,3.28125 -6.37887,-4.92375 -9.66012,1.09375 -10.938,-2.37125 0.54838,-1.27625 2.73438,-3.2825 3.10063,-4.92125 7.47462,5.46625 16.40675,-2.55375 18.229,4.01125 l 0,0 z m -91.87887,71.82325 c -5.1045,3.28363 -7.10988,6.92875 -14.21975,6.56588 -2.55125,-0.18313 -3.09713,-3.8305 -0.91113,-4.37738 1.09375,-0.36375 1.27488,1.459 2.36963,1.27825 5.28662,-1.27825 6.92775,-4.92325 11.48587,-6.56387 2.55225,-1.09475 2.36813,2.3705 1.27538,3.09712 l 0,0 z m 20.23487,-36.459 c 4.376,4.01125 2.37013,11.12063 0.91213,16.7715 -0.54738,1.82613 -1.45763,4.74125 -3.09963,4.55913 -1.27587,-0.18413 -1.4585,-1.64313 -1.09425,-2.9175 0.7305,-3.28375 2.37013,-5.65288 2.73625,-9.4785 0.18125,-3.649 -2.18887,-6.92875 0.5455,-8.93463 l 0,0 z m 8.56838,6.74463 c -0.54638,-1.82125 -0.729,-4.00875 -2.918,-4.19188 -1.09275,3.09813 0.54787,8.20313 -0.90963,12.21288 -1.09475,3.6475 -5.46925,7.10937 -4.55812,10.39212 4.55812,-1.09525 6.5625,-5.8325 7.10987,-8.56687 0.91163,-3.09825 0.91163,-5.28813 1.09325,-7.65625 3.8295,6.19475 -0.73,11.11662 -3.4625,16.77 -1.09512,2.1875 2.7325,1.27775 3.82775,-0.73 1.27675,-2.55275 4.00975,-8.20313 4.37538,-12.76025 0.18175,-2.55475 -1.09325,-6.74413 -4.558,-5.46975 l 0,0 z m 4.01112,20.96537 c 0,-1.27687 4.00988,-10.2085 4.55625,-12.94437 0.36563,-2.1875 -0.7295,-4.55663 -2.73387,-5.46875 2.36912,-4.01125 6.19862,1.64212 5.8335,5.65187 -0.36525,4.3765 -4.55813,8.56938 -4.9215,12.76125 -0.183,1.09513 -2.55313,1.27588 -2.73438,0 l 0,0 z m 12.21388,-16.22312 c -0.91213,-1.64163 -3.46338,-0.36625 -2.91738,1.09125 1.27538,5.28812 1.641,8.02387 -1.64062,13.49025 -0.54788,0.914 -1.64025,1.82375 -2.91613,3.6475 -1.09425,1.456 1.27588,2.91737 3.09825,1.27537 1.09463,-1.09375 3.46375,-4.19187 4.19325,-5.8335 2.37013,-4.73875 1.64063,-9.11525 0.18263,-13.67087 l 0,0 z m 68.72636,0 c 0.18375,2.184 -0.36375,4.92087 -0.1825,7.83837 0,4.01113 1.45875,8.02 2.9175,10.39063 1.275,2.36912 -2.9175,4.73725 -4.19375,2.1875 -1.8225,-5.47025 -4.37375,-15.3125 -2.005,-20.60063 1.27625,-2.73337 3.28125,-3.28025 3.46375,0.18413 l 0,0 z m 6.015,-3.833 c 0.18375,-3.09575 -2.915,-1.2745 -3.0975,1.09612 -0.1825,4.19575 -0.9125,13.125 2.91625,21.1475 0.54625,1.459 4.01125,1.459 3.1,-1.4585 -1.45875,-5.28712 -2.55375,-8.20212 -2.735,-11.12062 -0.365,-2.732 -0.365,-6.19775 -0.18375,-9.6645 l 0,0 z m 7.11,-0.36238 c -0.72875,3.6475 -1.09375,12.57813 1.64125,17.86625 1.27625,2.36913 -0.91125,5.105 -2.915,3.28125 -1.6425,-4.55575 -5.2875,-16.58937 -2.00625,-21.1475 0.72875,-1.09125 3.645,-2.1875 3.28,0 l 0,0 z m -83.85811,-122.1395 c -2.18613,3.28 -7.65575,6.9275 -5.65088,3.46375 2.00588,-3.82875 3.82863,-6.38125 5.46925,-9.11625 5.287,-9.11375 8.933,-19.6875 7.11025,-30.07875 -0.36525,-2.37125 2.733,-2.735 3.10063,-1.8225 4.00975,17.5 -4.37738,29.16875 -10.02925,37.55375 l 0,0 z m 25.34075,52.50125 c -2.00438,-0.7275 -6.19775,-1.82125 -8.7505,-3.28125 -0.18263,1.46 -1.09463,4.55625 -2.00538,6.745 -1.64012,2.91625 -3.46387,4.55625 -8.0215,4.74 -6.01412,0.1825 -11.11912,-6.19875 -11.11912,-12.215 -2.00588,-0.5475 -5.1045,-0.5475 -7.292,-0.18125 -2.91688,0.73 -4.92225,3.1025 -7.4755,3.1025 -1.63963,-4.37875 3.46525,-6.02 6.74612,-6.93 9.478,-1.82375 18.59513,-2.55125 28.07275,-0.18125 2.1875,0.36375 6.19963,2.36875 10.02675,2.7325 2.918,-0.36375 2.918,5.835 -0.18162,5.46875 l 0,0 z m -12.21438,-3.82625 c 0,-0.9125 -5.65087,-2.00625 -6.0165,-0.9125 -2.0045,4.19125 -0.5465,6.5625 1.6415,6.92875 4.01025,0.54375 4.375,-2.9175 4.375,-6.01625 l 0,0 z m -8.56737,9.65875 c 0.91112,0 0.7295,-0.54625 -0.1835,-0.90875 -0.36338,-0.365 -1.82088,-1.6425 -2.18713,-2.19 -0.36425,-0.3625 -1.27537,-1.64 -1.82362,-3.82375 0,-0.73125 -1.27538,-0.91625 -1.27538,-0.1875 -0.36387,3.4675 2.3705,7.11 5.46963,7.11 l 0,0 z m 3.46437,25.525 c -5.46875,-3.1 -6.19925,3.09763 -1.82375,4.73975 8.38525,2.9145 10.75638,6.74263 12.94338,12.03125 1.458,2.917 4.92187,8.93163 9.84374,10.39063 5.1055,1.4585 7.10988,2.00537 12.3955,0.91012 3.6475,-0.73 10.21087,-3.09912 12.39712,-7.29 0.9125,-1.64062 3.82875,-7.65725 1.4575,-10.9385 3.09875,-1.09525 7.84,-2.73587 10.75625,-5.47025 2.9175,-1.27537 0.1825,-6.74425 -1.8225,-3.82675 -2.55125,3.82675 -7.83875,4.00988 -12.03125,4.1935 -3.09937,0.18013 -6.19899,-1.82525 -8.93287,-1.82525 -2.36912,0 -2.9175,2.37213 -6.19875,2.37213 -2.36912,0 -4.375,-2.919 -8.56737,-1.64063 -4.3755,2.73288 -17.13625,-0.91212 -20.417,-3.646 l 0,0 z m 34.63525,6.92575 c 1.82375,-2.00587 2.55325,0.91163 7.2925,0.91163 -4.55763,2.73587 -6.38138,4.00887 -12.57913,4.19437 -6.561,0 -9.11475,-2.37162 -11.66549,-2.73687 1.27437,-2.00288 3.28024,-2.00288 5.28562,-1.4575 2.00437,0.54687 4.19187,1.27587 6.37987,1.27587 1.82325,0 3.647,-0.54537 5.28663,-2.1875 l 0,0 z m 9.11574,4.01125 c 1.4575,5.105 -4.55712,11.30375 -9.11574,12.3975 -4.19288,0.90913 -8.38525,1.27438 -12.3965,-0.54687 -4.73975,-2.37213 -8.75,-5.105 -9.11375,-10.75588 3.28075,0.7275 7.292,2.55275 10.75487,3.09863 6.5625,1.09375 12.76075,-0.36525 19.87112,-4.19338 l 0,0 z m 75.65375,46.85163 c 0.91125,-2.37163 1.82375,-4.74225 -1.275,-3.463 -6.74625,2.55137 -12.39625,2.1875 -17.32,0.18175 -16.77,-7.11038 -14.4,-31.71975 -2.91625,-44.481 6.745,-11.85013 18.4125,-18.41263 20.4175,-33.18013 8.38625,-14.76625 9.6625,-45.75875 6.01625,-57.425 1.45875,-13.12625 -0.18125,-26.06875 -3.28125,-34.45375 -9.6625,-26.0675 -38.465,-39.195 -64.71625,-39.195 -7.65625,0 -14.21887,1.275 -21.32874,4.1925 -4.74075,1.82375 -6.74513,-0.36625 -10.39163,-1.8225 -9.47999,-4.19375 -24.06349,-3.8275 -42.65862,2.1875 -32.44925,10.39125 -46.30225,42.11125 -52.86722,72.555 -1.82277,9.115 -1.45655,19.32375 -0.91065,28.44 0.72948,11.485 5.65137,24.7925 9.48,35.73 2.00537,5.83375 5.46875,9.295 7.65725,14.03675 -1.64163,2.73588 1.63962,5.834 3.28025,5.834 3.28125,5.47025 6.37987,11.12063 6.19725,18.77688 -0.18163,2.00587 -0.36325,3.83062 -0.54538,5.46725 -1.09475,6.74812 -4.19437,13.312 -8.38675,18.59625 -5.46975,6.56487 -18.77637,8.0225 -22.96876,-1.27538 0,-1.27587 0.72804,-3.09962 0.54687,-4.00887 -0.36522,-5.10638 -4.01171,-4.19575 -4.37597,-0.9145 -3.46435,26.06937 6.74561,39.92575 20.05274,42.294 -2.55075,4.55562 -2.73538,8.7485 -2.73538,13.48975 0.18463,10.57362 3.82913,16.22797 16.59088,16.59077 4.375,0.18067 7.47512,-0.72901 7.65625,-4.01127 -0.91113,-0.54825 -2.187,0.54687 -3.6465,0.36475 -7.10988,-1.09375 -11.6655,-12.03125 -11.48438,-18.04788 0,-10.935 8.38575,-21.51025 19.50588,-20.96337 5.105,-0.36613 14.583,0.36287 20.96387,1.09287 0.36475,19.50675 5.65088,47.03218 33.90762,50.13179 1.82475,0.18311 4.55713,1.45996 6.5625,1.45996 15.13338,0 25.15987,-10.20898 31.35737,-22.6065 4.19125,-8.56787 7.11,-20.78125 5.83375,-32.44725 11.84875,0.18075 22.96875,3.64363 26.97875,12.57813 1.46,4.9205 0.1825,9.84237 -1.4575,14.21637 -2.5525,6.56588 -4.9225,11.1215 -8.93375,14.58588 -4.1925,3.64652 3.1,4.37406 6.01625,1.45902 7.6575,-8.02252 11.3025,-14.22027 10.5725,-26.43552 -0.3625,-7.47313 -8.93125,-18.959 -32.8125,-19.50438 -1.64,-1.27587 -2.735,-1.27587 -5.46875,-1.09287 0.1825,-0.72988 0.1825,-1.6415 -0.1825,-2.73525 -2.55125,-6.19775 -3.645,-13.67188 -2.005,-20.23688 0.72875,-3.10062 -2.55125,-2.915 -3.46375,-0.18212 -1.64125,5.47025 -2.37,18.96 2.735,22.97125 -2.3725,-0.18175 -3.82875,0 -6.745,0 -4.01125,-5.46975 -4.9225,-16.40875 -2.00625,-23.51813 17.32,-9.29537 29.8975,-17.86475 40.6525,-37.1885 -2.91625,7.65625 -5.4675,20.96688 -4.1925,31.3575 1.64125,13.48725 4.01125,18.59375 17.1375,22.60488 4.19125,1.2745 9.8425,0.91075 13.67125,0 -3.09875,5.46737 -10.20875,10.38925 -18.77625,12.75887 -2.9175,0.73088 1.09375,2.55363 4.1925,2.00538 5.46875,-0.91163 8.20375,-2.54988 12.57875,-6.56113 3.645,-3.0995 5.835,-6.56387 7.29125,-10.20887 l 0,0 z m 0.91125,-159.51363 c -2.18625,-25.885 -27.5275,-44.48 -51.59125,-47.3975 -10.2075,-1.27875 -21.51125,-2.1875 -31.35462,2.1875 -2.917,1.27375 -4.92237,4.37625 -9.4785,1.64125 -13.30862,-7.84 -26.98099,-6.1975 -41.56587,-2.005 -14.94725,4.37375 -32.44875,17.3175 -41.92875,35.5475 -5.65037,11.12125 -9.479,22.4225 -11.6665,34.63625 -2.18702,11.48375 -2.55225,24.61 0.18263,35.91375 -0.18263,-6.015 0.54637,-10.75375 0.54637,-14.94875 -0.18312,-13.125 2.55225,-25.33875 6.74463,-35.91375 2.73587,-6.56125 8.0225,-18.775 13.30862,-24.42875 2.55125,-2.73125 4.00975,-2.005 1.82375,1.46 -5.28862,8.5675 -10.2105,18.0475 -13.67237,27.34375 -2.00588,5.47 -5.1045,16.0425 -5.8345,25.3425 2.36962,-9.11625 5.46825,-14.4025 9.11475,-22.06 1.82225,-3.82625 4.376,-6.92875 6.38087,-9.6625 1.458,-1.82125 4.19288,-2.18625 2.37013,1.095 -8.20413,13.49 -14.94875,24.61 -17.32038,40.65 2.73538,-6.74125 5.47025,-13.67 8.751,-19.50375 2.37013,-4.55875 6.38088,-11.66625 9.66163,-15.3125 5.105,-5.83375 5.47025,-1.64 2.188,2.18875 -2.73338,3.27875 -6.74363,10.7525 -8.38525,14.0325 -3.82963,6.74875 -7.2925,12.58125 -8.93213,20.9675 5.1025,-10.93875 14.76613,-20.78125 21.50975,-28.62125 4.74025,-6.01625 14.22025,-12.7625 18.77788,-18.59625 4.92137,-6.74375 5.8335,-12.21375 6.56337,-18.23 0.5465,-4.00875 4.3745,-5.10125 4.55675,0.36625 0,4.00875 -2.00587,12.76 -3.28087,17.31875 -5.83438,21.14625 -16.40663,25.33875 -26.25138,35.3675 -2.9165,2.73125 -6.38037,7.29 -7.65675,11.11875 -1.09375,3.28125 -5.105,4.19375 -4.01125,0.3625 1.4595,-4.19125 4.92188,-9.29625 8.0215,-12.575 5.104,-5.835 11.6675,-9.665 16.58988,-16.04375 3.82812,-4.74 7.65712,-11.6675 9.29687,-17.1375 -4.73925,6.56375 -12.21387,12.0325 -19.32275,19.8725 -7.11037,8.0225 -12.57962,13.6725 -15.314,17.49875 -2.9165,3.82875 -6.74562,8.9325 -8.38525,13.125 -2.00537,4.92375 -1.46,25.8875 2.55125,33.91 0.18263,-7.2925 0.54738,-14.40375 2.00688,-19.1425 0.91062,-6.5625 8.7485,-17.6825 13.30712,-22.7875 2.1875,-2.55125 3.46238,-2.37 2.55075,0.185 -0.36325,0.90875 -3.09862,4.19 -1.27537,3.27875 5.1045,-2.9175 8.93312,-8.38375 12.94337,-11.85125 5.28713,-4.555 9.29825,-7.4725 11.84963,-10.75375 7.291,-3.4625 20.23575,-17.5 22.24112,-25.52125 4.92138,-2.00375 5.1045,-7.11 7.83788,-9.845 1.82425,-2.73625 2.36912,4.92125 0,9.11625 0.36475,4.55625 -0.54638,7.83625 -1.27588,12.2125 -2.00537,15.49625 -6.19675,20.96625 -15.13125,28.98625 5.65275,-1.45875 9.11475,-4.55875 12.03263,-8.38375 1.82225,-2.55375 3.09862,-5.29 4.3745,-8.0225 1.27687,-2.735 2.55275,-6.92875 3.46487,-10.39125 1.82325,-7.2925 5.65037,-16.7725 6.37987,-21.14875 0.7295,-6.56125 6.92675,-15.12875 12.21588,-18.40875 5.83199,-3.2825 7.10824,2.3675 1.82125,4.555 -3.82713,5.83375 -7.65625,17.68375 -8.0215,29.16875 -0.36475,10.02875 1.82275,17.50125 9.11525,24.7925 0.36475,-5.65125 -1.4575,-11.12125 -1.4575,-17.3175 0,-4.92375 2.00437,-9.66375 2.187,-14.22 0.18162,-4.3775 2.73437,-13.4925 4.55624,-17.865 0.1825,-2.37125 3.83,-3.645 4.1925,0 -0.72625,5.4675 -2.18625,9.845 -3.4625,15.6775 -2.37,11.66875 2.9175,30.445 12.94375,37.36875 0,-4.0075 -2.91625,-6.7425 -4.1925,-10.02375 -5.65125,-14.7675 -1.82375,-22.06 2.7325,-33.54625 0.73,-1.6375 5.835,-3.4625 3.1,2.19 -2.1875,4.37625 -2.55125,10.2075 -2.1875,15.1325 0.365,6.19625 4.375,10.755 7.475,15.3125 3.0975,4.74125 6.19875,8.20375 9.47875,11.30125 10.0275,8.93375 21.1475,12.57875 28.80375,24.79125 2.735,-8.93125 -13.49,-23.69625 -18.77625,-29.7125 -8.56875,-9.84375 -15.1325,-18.7775 -11.1225,-33.36125 2.18875,-7.47375 4.3775,-3.82875 3.28375,1.09375 -2.73375,11.85 2.1875,19.50625 9.6625,27.70875 9.29625,10.21 16.77,14.76625 20.965,30.08125 1.45625,-2.37 2.915,-5.105 3.64375,-7.29375 1.82375,-7.47375 -3.0975,-13.4875 -5.46875,-17.3175 -1.8225,-3.09875 -3.82875,-4.9225 -6.01375,-7.8375 -5.6525,-7.2925 -12.945,-13.675 -11.30625,-27.16375 0.73125,-4.925 6.38375,-11.84875 4.01125,-2.18875 -1.0925,4.55875 -0.545,9.66125 1.095,14.22 1.82375,4.74 10.20875,15.67875 16.7725,20.965 2.915,-18.41375 -2.73375,-34.6375 -8.2025,-49.40375 -0.36625,-1.095 2.185,-2.005 2.915,-0.9125 4.74,8.38625 6.38,18.23125 8.2025,27.1625 2.00625,9.6625 -0.18125,18.23 -0.3625,27.34625 0.72875,0.9125 2.18625,2.9175 2.735,4.1925 6.015,-14.4025 5.4675,-26.79875 4.3725,-41.92875 l 0,0 z m -98.25837,16.77375 c -0.7295,4.3725 -4.01074,12.75875 -6.56299,16.95125 -4.92188,8.20375 -13.30713,12.76125 -19.1425,13.31 -1.09288,0.73 -11.11875,0.91 -6.19775,-2.37 8.93212,-5.4725 16.2245,-11.66625 17.683,-23.88 -5.64988,7.10875 -7.47413,13.305 -14.40088,19.32125 -2.9165,2.73375 -4.01112,2.00375 -1.6415,-1.2775 4.19375,-6.1975 8.933,-13.8525 13.308,-19.50375 2.9185,-4.01125 3.28125,-6.74625 3.64513,-11.12 -1.63975,3.28125 -5.83163,7.47375 -7.65625,9.8425 -10.57188,14.4025 -22.24025,18.41375 -34.08938,31.7225 12.94338,-0.55 23.5175,0.7275 33.90813,4.19125 1.82187,0.91 5.28712,1.09375 5.833,3.82875 -0.728,2.00625 -4.19238,2.1875 -6.38038,-0.18375 -9.4795,-2.00625 -20.78312,-5.2875 -28.25575,0 -0.91125,0.18375 -2.36962,0 -3.09912,0.18375 0.18162,6.92625 -0.73,12.7625 -2.1875,18.77625 -4.19338,16.40875 1.4575,45.02638 19.14012,54.14263 13.85638,6.92875 25.52238,11.12062 37.73775,14.03662 3.82612,0.9145 12.76025,0.729 14.94775,-0.18162 8.93324,-3.644 14.21949,-5.28563 21.32824,-10.39063 13.49,-9.84525 26.07,-22.05812 26.9825,-40.2895 0.18125,-5.4675 -1.095,-8.5675 -1.095,-12.9425 1.27625,-2.915 1.45875,-8.02 1.64,-11.30125 -3.4625,-0.3625 -6.5625,-1.46 -10.9375,-1.46 1.4575,4.55875 -1.09375,11.6675 -5.28625,12.94375 -7.475,2.1875 -13.6725,-1.27625 -13.6725,-10.20875 -3.09875,0.91 -7.11,4.5575 -10.3925,10.5725 -0.91,1.46 -3.28,-0.1825 -3.28,-1.64 0,-2.005 1.8225,-5.46875 3.8275,-7.65625 1.82375,-2.005 6.5625,-4.5575 8.9325,-5.46875 8.205,-2.55375 10.93875,-2.1875 19.14125,-2.3725 3.28125,0.185 8.93375,0.36625 12.76125,1.825 0.5475,-3.8275 2.1875,-4.92375 3.28125,-8.385 -12.76125,-2.5525 -30.26,3.46125 -42.475,8.2025 -3.465,1.46 -5.8325,2.36875 -6.92662,-1.09375 0.7285,-2.1875 2.00537,-1.64125 4.19287,-2.005 4.01,-0.7275 9.29625,-4.01125 13.125,-4.73875 10.02625,-2.37 21.14625,-5.47 30.8075,-4.19375 -7.11,-4.375 -14.58375,-8.38625 -20.41625,-13.6725 -3.64625,-5.285 -7.475,-10.39125 -10.93875,-15.67875 0.9125,7.84 2.9175,14.5825 5.835,20.41875 1.0925,2.00625 -2.55375,4.01125 -4.3775,2.37 -2.915,-2.37 -6.19625,-6.2 -8.20125,-8.75 -4.01,-5.46875 -8.75125,-14.94875 -10.02662,-20.23625 -1.27637,6.56375 0.7285,15.3125 2.73287,21.51 0.5475,1.825 2.18875,4.375 2.735,6.56375 0.365,1.8225 0.1825,3.28375 -1.64,4.19375 -0.5475,-0.5475 -1.64125,-0.73 -2.1875,-1.46 -1.45875,-2.91625 -2.37037,-4.555 -3.28199,-6.38 -3.28225,-4.74 -4.73875,-7.10875 -7.292,-10.39 -3.46238,-5.83375 -6.01713,-12.57875 -5.8325,-20.60125 0,-3.82875 0.54637,-11.30125 -0.54888,-12.9425 -1.456,6.38 -3.82762,10.755 -5.103,17.8675 l 0,0 z m 34.27212,2.7325 c -2.00625,-0.18125 -1.64,-3.46375 -1.27625,-4.92125 0.91125,0.72875 2.37,4.01 1.27625,4.92125 l 0,0 z m -0.72875,7.11 c -0.91125,-2.00625 -0.36625,-4.195 -0.36625,-5.65125 1.6425,1.0925 1.2775,3.82875 1.82375,5.83375 0,2.37 -0.91125,0.54625 -1.4575,-0.1825 l 0,0 z m 60.52375,24.4275 c 1.0925,-4.375 3.645,-9.48 4.92125,-14.22 2.005,9.6625 -3.0975,13.67375 -3.82875,20.0525 -1.0925,-1.82125 -2.5525,-2.55125 -1.0925,-5.8325 l 0,0 z m -152.58661,0.73 c -6.38038,8.0225 -9.84275,8.0225 -9.11375,15.86 2.73337,0 3.28075,-2.9175 5.46825,-3.09875 1.82375,0 3.6455,0.54625 5.65137,1.64 1.27688,-2.37 0.91163,-6.37875 0.7295,-10.02625 1.82275,-0.54875 4.55663,-0.91125 6.01613,-3.645 -3.09963,0.18125 -5.834,0 -8.7515,-0.73 l 0,0 z m 155.68536,10.75625 c -1.64125,-2.73375 0.18125,-6.56375 1.4575,-8.56875 0.91125,2.1875 0.365,6.01625 -1.4575,8.56875 l 0,0 z m -16.955,12.57625 c -0.365,-5.28625 -4.01,-10.2075 -9.84375,-8.38375 0.5475,-3.28125 1.64125,-5.6525 3.46375,-7.65875 3.64625,3.1025 9.29875,7.11125 6.38,16.0425 l 0,0 z m 8.3875,-8.565 c 0.18125,-2.3725 2.00375,-6.38125 3.09875,-7.4775 0.36375,2.00625 0.54625,5.105 -0.91125,8.0225 -1.095,1.275 -1.82375,1.09375 -2.1875,-0.545 l 0,0 z m 4.375,3.4625 c 0.54625,-2.00625 1.09375,-5.105 1.8225,-7.47375 1.4575,0.7275 1.095,3.09875 1.095,4.55625 -0.73125,3.6475 -3.1,4.73875 -2.9175,2.9175 l 0,0 z M 206.40392,507.70819 c 2.18897,2.00538 6.0166,5.648 8.75097,6.56013 5.1035,2.1885 6.92725,-2.1865 10.02638,-4.73788 4.92287,-4.01112 10.57325,-7.29237 17.501,-8.934 10.2095,-2.1865 23.88037,1.27538 31.17375,2.73675 6.19737,-4.55812 11.30137,-18.23237 7.29112,-30.8105 -5.28575,-1.82375 -13.125,-5.104 -18.77637,-7.65625 -6.5625,-3.10062 -10.02688,-7.65525 -14.03813,-13.125 -6.5625,-9.29687 -8.56787,-24.0645 -7.83737,-34.8195 0.36325,-3.46375 2.36862,-16.95125 -1.82425,-17.8675 -2.36863,-0.5475 -4.19238,2.19125 -4.92188,4.56 -2.36862,6.37875 0.54738,11.30125 2.37113,16.58875 2.55075,1.0925 2.36962,5.4675 0,5.4675 -1.4595,0.36625 -0.91263,-1.09375 -2.00488,-1.09375 1.82175,8.2025 6.37988,15.31388 7.65475,23.69863 1.82325,10.9415 -1.4575,22.97275 -5.46775,29.35212 -2.36962,4.01125 -3.647,6.74563 -7.11037,10.9375 -5.65138,7.10938 -12.3965,10.20988 -16.58888,10.02538 -2.36962,-0.18063 -4.5586,-1.09225 -5.83447,-3.09813 -1.27589,-1.82225 0.18163,-4.19287 2.00535,-2.55225 1.27637,1.09475 3.28225,2.37063 4.55962,2.55225 3.09813,0 5.64938,-1.09375 7.65475,-2.55225 5.834,-4.55812 7.65675,-8.02 10.939,-13.30712 4.73925,-8.02 7.2915,-16.95563 6.5625,-28.80475 -0.54687,-0.36375 -2.55275,-1.82375 -3.46387,-3.27975 1.09425,13.48975 0.91112,21.69387 -6.563,32.63037 -4.19338,6.38038 -8.56838,10.75538 -16.0425,10.9385 -4.01074,0 -8.93213,-1.27687 -11.84864,-4.37362 -0.36523,6.74325 0.72804,15.858 5.83204,20.96437 l 0,0 z m 138.73096,-108.2875 c 4.01,-2.5525 6.38,1.45875 4.74125,3.83 -0.73125,0.91 -2.5525,1.6375 -4.195,1.27375 -2.73375,-0.73 -1.64,-4.37375 -0.54625,-5.10375 l 0,0 z m -120.86524,27.345 c -0.91062,-8.75125 -0.54637,-20.96625 3.10013,-27.1625 1.64062,-3.46375 2.187,-0.54875 1.4575,2.55125 -0.729,3.28375 -0.91013,7.2925 -0.729,11.30375 0,4.19375 1.4585,8.75 2.37012,13.3075 2.37013,5.83375 6.74513,11.84825 7.2915,18.59538 -2.00537,-2.55275 -4.55662,-4.375 -6.19775,-6.01713 -1.82375,-1.82375 -5.28662,-4.92037 -4.73975,-9.11325 -0.54687,-1.4625 -1.64112,-2.1875 -2.55275,-3.465 l 0,0 z m 148.93899,-13.855 c -1.0925,3.82875 -2.1875,7.84 -4.9225,10.02875 -0.18125,-6.0175 -1.82375,-12.035 0.36625,-17.68375 0.545,-1.64125 2.73375,-4.55875 4.01,-4.37625 5.47,0.36625 3.8275,10.2075 0.54625,12.03125 l 0,0 z m 10.21,-4.5575 c -0.54625,-3.6475 2.005,-6.19875 2.91625,-8.2025 1.27625,3.46375 -0.5475,6.19625 -2.91625,8.2025 l 0,0 z m -42.47625,-1.2775 c -1.2775,-0.72875 -1.45875,-1.6375 -1.2775,-3.64375 0.91375,0.72875 2.55375,2.3675 2.37125,3.64375 -0.18125,0.5475 -0.9125,0.18375 -1.09375,0 l 0,0 z m 37.0075,18.05125 c 3.28,-4.37625 9.11375,-14.76875 11.30125,-18.5975 0.9125,-2.005 2.91625,-1.4575 2.18875,0.73 -2.735,13.49125 -12.3975,18.59375 -17.6825,30.99075 -3.82875,3.46288 -5.28875,6.92725 -7.84,13.67338 0.36375,-5.28713 1.64,-10.57425 3.46375,-14.21875 2.735,-5.28663 5.1025,-7.84038 8.56875,-12.57788 l 0,0 z m -32.085,-17.8675 c -0.18375,1.46 -2.18875,1.46 -2.37,-0.36625 0.91,0.1825 2.005,0 2.37,0.36625 l 0,0 z m 31.355,6.38125 c 1.4575,-1.82375 2.36875,-3.2825 3.82875,-4.92125 1.09375,-0.91375 2.1875,0.545 1.275,2.005 -2.37,4.19125 -4.555,6.745 -7.11,9.84375 0.18375,-2.19 0.73,-4.37625 2.00625,-6.9275 l 0,0 z m -11.3025,22.05825 c 1.09375,-6.5645 3.46375,-8.752 6.92875,-14.22075 -0.18375,1.46125 0.7275,2.00625 2.3675,1.09375 -1.64,3.82875 -3.645,8.2025 -9.29625,13.127 l 0,0 z m -88.96174,71.64313 c 9.66213,-11.11825 10.9365,-18.04688 8.0215,-32.814 10.9375,6.01462 23.333,7.83937 35.00049,3.645 -2.18749,10.209 1.8235,20.4175 6.5635,27.16312 1.8225,10.02588 6.015,17.68313 -4.74,32.084 -4.55737,6.19963 -10.57399,13.85592 -18.95974,13.49214 -4.92238,-0.18164 -8.20362,-2.55224 -11.6675,-4.73974 0.36425,-3.28127 -0.36375,-4.9234 -3.646,-5.6519 -7.4745,-6.01562 -11.30275,-23.15325 -10.57225,-33.17862 l 0,0 z m 54.32549,-2.55275 c -0.5475,-1.82375 3.28125,-3.462 3.4625,-0.36238 0.18125,2.00538 -0.18125,3.82575 0.18125,5.83113 0.36625,1.27825 2.3725,2.00587 2.91875,2.9175 0.91125,1.82362 -0.18375,4.92325 -0.9125,7.65625 -2.1875,-0.72763 -2.00625,-2.91513 -2.1875,-5.10113 0,-1.82525 -2.36875,0 -2.55125,-0.91312 -0.5475,-3.64738 0,-6.56488 -0.91125,-10.02825 l 0,0 z m -63.62374,2.55275 c 1.63963,0 3.6455,-0.18313 5.10488,0.183 -0.54588,2.1885 -3.82813,4.375 -5.10488,5.28662 -0.54687,-0.54775 -0.72862,-2.91737 0,-5.46962 l 0,0 z m 0.36475,12.21287 c -2.18712,-2.732 0.54675,-5.83012 5.46913,-8.01862 0,2.55125 0.36475,4.00887 0.546,5.28662 -2.36875,0.72663 -2.91563,2.732 -6.01513,2.732 l 0,0 z m 6.56388,0.54925 c 1.45662,2.731 -3.46438,7.83838 -4.74075,5.6495 -0.1835,-1.45762 -0.91113,-2.1875 -0.91113,-4.01125 2.1875,1.09275 3.82813,-1.63825 5.65188,-1.63825 l 0,0 z m 59.61136,10.39063 c -2.18875,-1.643 -2.5525,-6.7465 -2.005,-9.663 0.91,1.45887 2.005,2.55262 3.8275,2.73437 -0.1825,2.73575 -0.91125,4.92325 -1.8225,6.92863 l 0,0 z m 35.18375,1.82137 c 0,-3.28225 0.91,-5.10362 1.8225,-7.107 1.27625,4.55475 -3.4625,11.665 -6.9275,14.76563 0.5475,-3.46538 2.37125,-6.38038 5.105,-7.65863 l 0,0 z m -94.06749,-5.10362 c 1.27675,1.27687 1.82363,2.55137 1.82363,4.192 -0.7295,0.7285 -3.1,1.27775 -3.646,2.18987 -2.18838,-1.09525 -2.36963,-2.9175 -2.18838,-4.92337 1.82363,0 2.00538,-1.27538 4.01075,-1.4585 l 0,0 z m 54.87374,10.9375 c -1.2775,-2.00575 -1.64125,-5.287 -0.73,-6.5615 0.91125,0.72762 1.27625,2.36962 2.9175,2.55037 0.18125,3.28125 -0.91125,4.37738 -2.1875,4.01113 l 0,0 z m -50.31474,-1.27588 c -0.36425,1.27588 -2.37012,2.73438 -3.101,1.64213 -0.91025,-1.09613 -2.0045,-1.64213 -2.73437,-3.10063 2.73437,1.27788 6.19912,-2.9165 5.83537,1.4585 l 0,0 z m -57.97212,3.83063 c -2.00588,-0.9155 -1.64213,-3.09913 -1.459,-5.46975 1.459,2.73437 3.09912,5.28562 5.65187,7.28862 -2.00537,-0.543 -3.46387,-0.90925 -4.19287,-1.81887 l 0,0 z m 104.09311,3.09575 c -1.64,-0.90925 -0.72875,-4.9205 0.5475,-7.65625 0.54625,0.36512 1.64,3.645 2.005,4.19425 0.1825,1.27587 -2.1875,2.55275 -2.5525,3.462 l 0,0 z m -46.12099,-1.81988 c 0,-1.09525 2.00488,-2.919 2.55075,-2.00587 0.7295,1.27437 0.54788,3.645 0.18313,4.92087 -1.45938,-0.18212 -2.73388,-1.64062 -2.73388,-2.915 l 0,0 z m 41.74599,5.83105 c -0.72937,-1.63915 -0.9115,-4.7388 0.5475,-5.83105 1.45625,0.543 2.55125,4.1919 -0.5475,5.83105 l 0,0 z m -36.64149,-1.63915 c 0,-0.91215 2.1855,-1.2769 2.1855,-0.36627 0,0.54694 0,0.91315 0,1.46002 -0.72937,0.5454 -2.55075,0.18164 -2.1855,-1.09375 l 0,0 z m 31.71975,5.64942 c -1.64163,-2.1875 -0.36525,-4.55567 1.82225,-5.64942 0.54737,1.63915 1.82324,4.92285 -1.82225,5.64942 l 0,0 z m -6.564,3.28466 c -0.18213,-2.18848 1.64162,-5.47216 4.19287,-4.92285 0.36575,2.18604 -1.4575,4.1919 -4.19287,4.92285 l 0,0 z m -15.85887,-3.4668 c -1.27588,0.72999 -3.28125,-0.36376 -3.10013,-1.82373 1.458,0 2.73488,0.54834 3.10013,1.82373" />
  </g>
</svg>
