<?xml version="1.0" encoding="UTF-8" standalone="no"?>
<!-- Created with Inkscape (http://www.inkscape.org/) -->

<svg
   xmlns:dc="http://purl.org/dc/elements/1.1/"
   xmlns:cc="http://creativecommons.org/ns#"
   xmlns:rdf="http://www.w3.org/1999/02/22-rdf-syntax-ns#"
   xmlns:svg="http://www.w3.org/2000/svg"
   xmlns="http://www.w3.org/2000/svg"
   xmlns:sodipodi="http://sodipodi.sourceforge.net/DTD/sodipodi-0.dtd"
   xmlns:inkscape="http://www.inkscape.org/namespaces/inkscape"
   width="297.36493"
   height="233.513"
   id="svg3274"
   version="1.1"
   inkscape:version="0.48.3.1 r9886"
   sodipodi:docname="New document 10">
  <defs
     id="defs3276" />
  <sodipodi:namedview
     id="base"
     pagecolor="#ffffff"
     bordercolor="#666666"
     borderopacity="1.0"
     inkscape:pageopacity="0.0"
     inkscape:pageshadow="2"
     inkscape:zoom="0.35"
     inkscape:cx="329.39674"
     inkscape:cy="-251.81493"
     inkscape:document-units="px"
     inkscape:current-layer="layer1"
     showgrid="false"
     fit-margin-top="0"
     fit-margin-left="0"
     fit-margin-right="0"
     fit-margin-bottom="0"
     inkscape:window-width="806"
     inkscape:window-height="704"
     inkscape:window-x="65"
     inkscape:window-y="24"
     inkscape:window-maximized="0" />
  <metadata
     id="metadata3279">
    <rdf:RDF>
      <cc:Work
         rdf:about="">
        <dc:format>image/svg+xml</dc:format>
        <dc:type
           rdf:resource="http://purl.org/dc/dcmitype/StillImage" />
        <dc:title></dc:title>
      </cc:Work>
    </rdf:RDF>
  </metadata>
  <g
     inkscape:label="Layer 1"
     inkscape:groupmode="layer"
     id="layer1"
     transform="translate(-45.603259,-47.034244)">
    <path
       inkscape:connector-curvature="0"
       id="path3018"
       style="fill:#182442;fill-opacity:1;fill-rule:evenodd;stroke:none"
       d="m 331.51454,58.251744 c 1.835,0.81625 3.05875,6.3225 4.28125,9.38125 1.6325,3.265 -0.2025,7.75 2.4475,10.81 1.225,1.42875 0.8175,8.3625 1.02,13.055 0,10.401246 3.46875,21.006246 3.26625,31.612496 0,1.02 -0.41,1.83375 -0.41,2.65125 0.20375,5.50625 1.02,11.21625 0.81625,16.52125 -0.20375,7.95375 -1.22375,15.295 -1.42875,23.86125 -0.2025,4.28375 -1.2225,9.3825 -1.835,13.46 -1.42875,7.14 -3.06,13.25875 -6.3225,19.1725 -1.42625,2.44875 0,4.07875 -3.26375,5.71 -13.665,6.7325 -25.9025,8.36375 -42.01375,11.015 -6.3225,1.02125 -13.0525,0.815 -19.3775,1.835 -3.05875,0.40875 -6.72875,1.2225 -10.80875,1.8375 -15.2975,2.2425 -29.7775,5.09625 -46.09375,5.91375 -8.1575,0.4075 -17.53875,1.42625 -24.8825,2.855 -7.3425,1.2225 -17.1325,-1.63125 -24.06625,1.2225 -3.875,1.63375 -7.1375,0 -9.38125,0.81625 -15.09375,5.5075 -25.0875,9.585 -35.08074,18.9675 -4.07963,3.875 -7.95563,8.975 -12.03325,12.85 -6.11863,6.11875 -12.646504,9.99375 -18.764134,15.9075 -1.836,1.83625 -4.48687,3.87625 -7.13912,2.24375 -1.22275,-0.61125 -0.61138,-4.2825 -1.22275,-5.91375 -0.81638,-2.03875 -2.65138,-6.11875 -2.0395,-8.36125 3.8745,-15.705 10.40137,-28.75875 9.58637,-43.85 -0.205,-4.48875 -8.16012,-2.24375 -12.23925,-3.46875 -5.09762,-1.42625 -10.19725,-3.4675 -13.46137,-6.3225 -2.853,-2.24375 -4.689,-5.71 -5.711,-8.97375 -4.8945,-16.11125 -5.09663,-32.8375 -4.8945,-44.05375 1.83737,-11.01375 1.22462,-22.02875 2.65087,-33.245 0,-1.02125 -1.42625,-1.63125 -2.44575,-1.835 -1.021,-0.20375 -1.63187,-2.65125 -1.22412,-3.4675 2.0395,-3.47 0.40762,-6.12 -0.8155,-9.18 -1.42775,-3.87375 -2.44825,-6.73 -2.8545,-10.60375 -0.204,-1.633746 -0.204,-4.894996 1.01812,-6.121246 -3.06012,-7.34 0.61175,-16.11125 1.83638,-23.86 0.40775,-2.65125 6.32137,-11.01375 15.09275,-11.4225 1.01862,-1.02 4.89512,-4.08 6.52637,-4.4875 8.76963,-1.83625 25.90088,-2.65125 42.421504,-4.4875 3.46875,-0.4075 7.34325,-1.63125 10.40325,-1.83375 4.07862,-0.205 8.76862,0.4075 13.05362,0 16.11125,-1.6325 37.935,-0.81625 56.69875,-0.6125 3.2625,0 6.52625,-0.81625 9.99375,-0.81625 9.585,0 19.57875,2.04 27.7375,0.81625 8.975,1.835 20.6,0.815 32.02125,1.4275 7.75,0.4075 15.705,1.42625 23.25125,2.24375 6.93375,0.61125 13.665,-0.61125 20.19125,0.205 2.855,0.2025 6.52625,1.63125 11.2175,2.44625 5.71125,1.01875 9.99375,1.83625 14.2775,4.07875 l 0,0 z m -168.875,-6.11875 -4.4875,0 c -7.3425,0.40875 -10.605,0.40875 -16.92875,1.8375 26.92125,0.81375 45.28,0.81375 72.6075,-1.0225 -17.5375,-1.42625 -33.6525,-1.63 -51.19125,-0.815 l 0,0 z m -34.06125,1.225 c -0.81625,1.01875 1.22375,1.01875 3.06,1.01875 1.22375,-0.20375 5.09875,0 4.4875,-1.835 -0.6125,-1.63125 -5.5075,-1.63125 -7.5475,0.81625 l 0,0 z m 86.885,-0.61375 c -0.4075,0.20375 -0.61125,1.22625 0.20375,1.42875 0.61125,0 2.4475,-0.6125 3.87625,-0.4075 0.61125,-2.03875 -2.85625,-1.6325 -4.08,-1.02125 l 0,0 z m 5.5075,0.41 c -0.61375,0.20375 0.20375,1.2225 0.81625,0.81625 1.01875,0 3.8725,-0.6125 2.65,-1.22625 -0.6125,-0.61125 -2.4475,-1.0175 -3.46625,0.41 l 0,0 z m 9.79,0.81625 c 0.40625,-0.205 1.2225,-0.205 1.2225,-0.6125 0,-0.41 -1.02,-0.61375 -1.4275,-0.81625 -0.61125,-0.40875 -1.835,-0.6125 -2.65125,0 -0.81625,0.81625 0.81625,1.63125 2.85625,1.42875 l 0,0 z m -115.03137,0.40625 c 1.22263,0.4075 2.44775,0.4075 4.0805,0.205 0.8135,-0.205 3.67,0 4.48688,-0.40875 2.24174,-0.6125 1.22312,-2.04 -0.61275,-1.835 -1.01963,0 -3.46825,0.40625 -4.691,0.40625 -1.22313,0 -4.28463,1.02125 -3.26363,1.6325 l 0,0 z m 125.43262,-1.42875 c -1.02125,-0.20375 -2.04,-0.40625 -2.855,-0.40625 -0.6125,0 -2.4475,-0.40875 -3.06,-0.20375 -0.4075,0.61 0.8175,1.6325 2.24375,1.835 1.2225,0 4.895,0.20375 3.67125,-1.225 l 0,0 z M 118.17717,241.40299 c 7.54638,-3.6725 15.29612,-13.46 21.00612,-19.17 1.63375,-1.6325 5.5075,-5.71 7.3425,-6.11875 8.565,-1.6325 18.355,0.40875 26.9225,0.40875 5.71125,0 11.42125,0.81375 17.1325,0.81375 10.1975,0 20.80375,-1.02 30.59375,-1.63125 11.82875,-0.4075 23.6575,-2.2425 35.08,-3.2625 11.015,-0.81625 21.21125,-1.835 31.00125,-4.07875 2.24375,-0.40875 4.285,-1.8375 6.73,-2.65125 7.95375,-2.45 15.705,-4.08125 21.61875,-7.14 8.77,-4.2825 10.60625,-13.0525 11.62625,-24.68 1.02,-10.195 1.42625,-21.41375 1.42625,-32.01875 0.20625,-4.4875 0.8175,-8.97375 0.40875,-13.0525 -0.2025,-2.04 -1.22375,-3.06 -1.22375,-4.895 0,-0.81625 0.815,-2.44875 0.815,-3.26375 0.20625,-1.42875 -0.61,-2.4475 -0.61,-3.87625 -0.205,-2.2425 0.4075,-4.69 0.4075,-6.935 -0.6125,-12.643746 -1.6325,-26.309996 -6.11875,-35.283746 -3.67125,-7.13625 -8.975,-7.75 -13.05375,-13.46125 -12.23625,-3.87375 -24.47375,-2.65 -37.3225,-3.26375 -8.77125,-0.40625 -18.56,0.20375 -28.35,0.40875 -38.5475,0.61125 -78.93125,-0.40875 -115.43875,0.40875 -5.91499,-1.4275 -11.21874,-0.40875 -17.94824,0.4075 -14.480004,1.6325 -29.165504,0.6125 -40.587884,5.0975 -2.24362,1.0225 -5.09862,3.4675 -6.7295,6.7325 -5.915,11.625 -4.896,28.3475 -0.81487,41.198746 2.0385,7.1375 0.40625,15.70375 0.20362,22.84125 -1.02062,23.0475 -6.7315,45.4825 2.8535,65.26625 4.8965,10.40375 24.68013,13.25875 38.344254,10.81125 4.28463,-0.8175 -0.61287,8.36125 -0.816,8.76875 -2.24262,7.955 -2.44625,14.48125 -4.689874,22.23125 -1.22413,4.07875 -7.95413,12.44125 -3.06013,12.64625 10.197754,0.20375 13.869134,-8.7725 23.251504,-13.25875 l 0,0 z M 323.55954,66.615494 c 4.4875,5.0975 3.05875,8.9725 4.4875,13.46125 1.01875,3.05875 3.87625,5.50625 4.48625,8.56375 0.81625,3.875 -0.61,8.3625 -0.4075,12.443746 0.20375,10.195 1.22375,20.59875 0.81625,29.16375 -0.40875,7.955 1.01875,16.72375 0.61,23.8625 -0.4075,12.2375 -0.4075,34.8775 -6.93375,42.62875 -0.4075,0.40625 -1.63125,1.62875 -2.4475,2.24375 -2.03875,2.0375 -3.46625,2.445 -5.71,4.0775 -1.63125,2.855 5.71,-0.4075 7.75,-2.44875 6.11875,-6.52375 7.75,-17.33375 8.97375,-26.92125 0.8175,-7.54625 1.02,-15.50125 1.83625,-23.25 0.4075,-3.6725 -0.2025,-6.325 0,-9.79 0.205,-17.54 0.205,-36.7125 -3.67125,-53.436246 1.835,-8.77125 -3.05875,-17.3375 -6.11875,-24.47375 -3.67125,-2.04 -6.3225,-3.06 -11.62625,-3.46875 1.02,3.46875 5.91625,4.89375 7.955,7.34375 l 0,0 z m -270.240744,7.75 c -0.61238,1.2225 -0.40725,3.67 -0.816,5.71125 -0.40763,1.42625 -1.83488,3.05875 -2.24213,4.68875 -1.42775,6.32375 1.8345,5.30375 0.40725,12.03375 -0.61137,3.06 1.63225,4.691246 1.63225,7.343746 0,2.24375 1.836,5.91375 3.46638,8.76875 2.24262,4.0775 2.65137,2.44875 1.83687,-1.01875 -2.44975,-9.3825 -2.65375,-21.212496 -1.42912,-30.389996 0.81587,-5.915 2.85537,-11.4225 5.71087,-15.90875 -3.46725,-1.63125 -6.52787,4.08 -8.56637,8.77125 l 0,0 z M 310.09829,205.50674 c -0.4075,0.40875 -0.4075,1.225 0,1.4275 1.4275,0.205 3.46875,-0.61 4.4875,-1.4275 0.61,-0.40625 1.42625,-1.835 0.61,-1.835 -2.03875,0.815 -4.28,0.61125 -5.0975,1.835 l 0,0 z m -5.915,3.06125 c 0.6125,-0.20375 1.83625,-0.6125 2.4475,-0.8175 1.01875,-0.61125 1.6325,-2.24375 0.40875,-1.835 -1.02,0.205 -3.4675,1.01875 -4.4875,1.63125 -0.81625,0.40875 0.8175,1.22375 1.63125,1.02125 l 0,0 z m -239.035874,0.40625 c 0.2055,0.20375 1.0195,0.6125 1.42963,0.6125 0.40625,0 0.814,-0.6125 0.61037,-0.81625 -0.815,-0.61 -1.63087,-1.02 -2.855,-2.24375 -0.61137,-0.61125 -0.40812,1.63375 0.815,2.4475 l 0,0 z m 9.17863,3.87625 c -1.22413,-0.6125 -3.67138,-1.63125 -4.28213,-2.2425 -0.61187,-0.61375 -2.24375,-1.63375 -2.03862,0 0.20362,0.61125 2.44525,2.2425 4.28075,2.65125 1.42775,0.40625 3.061,-0.205 2.04,-0.40875 l 0,0 z m 90.759744,8.1575 c -6.93375,1.4275 -1.63125,2.6525 2.44875,2.44625 4.69125,-0.2025 9.99375,-0.815 15.70375,-0.815 4.69125,0 12.44125,0.6125 18.15125,-1.83625 -10.605,1.225 -24.47375,-2.44625 -36.30375,0.205 l 0,0 z m -68.324124,2.6525 c 0.81488,-2.24375 1.22413,-5.10125 -0.61337,-4.07875 -1.0185,0.40875 -1.63025,1.63 -2.038,3.0575 -2.03963,6.935 0,8.97375 2.65137,1.02125 l 0,0 z m 57.719124,0.4075 c 1.01875,-0.4075 3.875,-0.81625 4.4875,-1.6325 0.815,-1.22375 -2.855,-1.22375 -4.4875,-0.61 -1.2225,0.4075 -1.2225,2.65 0,2.2425 l 0,0 z m -14.2775,5.0975 c -3.46625,2.85625 0.20375,2.245 3.05875,0 1.42875,-0.815 8.7725,-2.44625 5.09875,-3.87375 -0.81375,-0.4075 -5.91375,2.4475 -8.1575,3.87375 l 0,0 z m -54.658994,24.27125 c -1.22413,2.4475 -3.67138,7.13875 -2.44725,10.60625 0.815,2.04 3.67187,-2.24375 4.89362,-7.5475 1.63225,-7.34125 4.08,-16.11125 5.9145,-21.00625 1.0205,-2.65125 -2.44725,-1.83625 -3.67087,1.63125 -2.855,8.1575 -1.62988,9.99375 -4.69,16.31625 l 0,0 z m 6.73,7.34375 c -2.85538,2.44625 -3.66988,5.0975 -5.09863,7.34 -1.02,2.04125 2.856,1.225 4.28225,-0.61 1.22513,-1.6325 3.877,-2.8575 4.895,-5.10125 1.22363,-2.03625 -2.44775,-3.0575 -4.07862,-1.62875 l 0,0 z m 115.642744,-40.5875 c -2.24375,0 -3.87375,0.815 -3.06125,1.22375 0.8175,0.20375 2.04125,0.40875 4.285,0.40875 2.03875,0 3.875,-0.61375 3.4675,-0.8175 -0.6125,-0.4075 -2.6525,-0.815 -4.69125,-0.815" />
  </g>
</svg>
