<?xml version="1.0" encoding="UTF-8" standalone="no"?>
<!-- Created with Inkscape (http://www.inkscape.org/) -->

<svg
   xmlns:dc="http://purl.org/dc/elements/1.1/"
   xmlns:cc="http://creativecommons.org/ns#"
   xmlns:rdf="http://www.w3.org/1999/02/22-rdf-syntax-ns#"
   xmlns:svg="http://www.w3.org/2000/svg"
   xmlns="http://www.w3.org/2000/svg"
   xmlns:sodipodi="http://sodipodi.sourceforge.net/DTD/sodipodi-0.dtd"
   xmlns:inkscape="http://www.inkscape.org/namespaces/inkscape"
   width="267.29974"
   height="118.17464"
   id="svg9964"
   version="1.1"
   inkscape:version="0.48.3.1 r9886"
   sodipodi:docname="New document 22">
  <defs
     id="defs9966" />
  <sodipodi:namedview
     id="base"
     pagecolor="#ffffff"
     bordercolor="#666666"
     borderopacity="1.0"
     inkscape:pageopacity="0.0"
     inkscape:pageshadow="2"
     inkscape:zoom="0.35"
     inkscape:cx="14.36416"
     inkscape:cy="-52.341248"
     inkscape:document-units="px"
     inkscape:current-layer="layer1"
     showgrid="false"
     fit-margin-top="0"
     fit-margin-left="0"
     fit-margin-right="0"
     fit-margin-bottom="0"
     inkscape:window-width="472"
     inkscape:window-height="415"
     inkscape:window-x="1294"
     inkscape:window-y="24"
     inkscape:window-maximized="0" />
  <metadata
     id="metadata9969">
    <rdf:RDF>
      <cc:Work
         rdf:about="">
        <dc:format>image/svg+xml</dc:format>
        <dc:type
           rdf:resource="http://purl.org/dc/dcmitype/StillImage" />
        <dc:title></dc:title>
      </cc:Work>
    </rdf:RDF>
  </metadata>
  <g
     inkscape:label="Layer 1"
     inkscape:groupmode="layer"
     id="layer1"
     transform="translate(-360.63584,-361.84629)">
    <g
       id="g9883"
       transform="translate(-111.62451,89.077047)">
      <path
         inkscape:connector-curvature="0"
         d="m 686.25035,368.81125 c 1.85875,-4.5675 2.01125,-9.47 1.3925,-13.86 l -0.705,-4.99875 -5.225,0.72625 c -7.6,1.055 -15.7125,1.32625 -23.76625,1.48125 -5.21375,0.1 -10.525,0.20375 -17.0625,0.2175 5.22125,0.85125 11.515,1.32 11.74,1.90625 0.4475,1.2725 -1.1,2.6325 -4.00875,3.91125 -3.41875,1.44375 -2.775,1.80125 11.08,1.35875 -1.7375,0.885 -19.925,1.71875 -4.96375,2.295 1.3075,0.67625 0.97,1.47 3.315,1.525 5.56125,0.1075 11.985,0.0138 18.34,-0.5825 -0.0738,0.37875 -0.14125,0.76375 -0.245,1.1275 -0.6375,2.11 -1.82625,3.97875 -3.6125,5.67625 -3.60875,3.40375 -9.3175,5.73125 -15.2675,7.19125 -6,1.48625 -12.405,2.23375 -18.87375,2.5675 -6.48,0.325 -13.06125,0.22875 -19.66625,-0.19625 -1.70625,-0.105 -3.49625,-0.115 -5.215,-0.2525 -7.01875,-0.595 -14.01625,-1.5075 -20.94,-2.65 -1.48875,-0.245 -2.9725,-0.5075 -4.4425,-0.7875 l -2.19125,-0.43375 -2.295,-0.48375 -4.55875,-0.9225 c -1.51375,-0.31 -3.17875,-0.555 -4.7625,-0.8325 -3.17125,-0.52875 -6.15375,-0.96375 -9.015,-1.52375 -2.86375,-0.58 -5.61875,-1.2375 -8.38875,-2.14625 -1.795,-0.49625 -3.59625,-1.19125 -5.39875,-1.8525 l -2.70625,-0.98375 -2.7025,-1.1325 c -1.82125,-0.77 -3.64,-1.54 -5.455,-2.3075 l -0.69,-0.3 c -0.26875,-0.11125 -0.68125,-0.255 -1.0175,-0.375 l -1.06375,-0.3625 -0.91,-0.24375 c -0.61125,-0.1725 -1.20875,-0.31 -1.7925,-0.41875 -0.5925,-0.125 -1.18125,-0.23875 -1.75,-0.315 -3.535,-0.54875 -6.87125,-0.64625 -10.1375,-0.60125 -3.265,0.0487 -6.45625,0.2575 -9.60875,0.5475 -6.30125,0.58875 -12.4575,1.49625 -18.545,2.4925 -2.12875,0.34875 -4.6525,0.87375 -6.3025,1.06125 -1.22125,0.13625 -2.43625,0.28625 -3.645,0.43875 -0.0425,-9.2525 -0.59375,-18.4175 -2.04125,-27.23125 -0.56,-3.3075 -1.245,-6.055 -2.13875,-8.87375 -0.785,-2.82625 -1.935,-5.68875 -3.1575,-9.235 1.83625,8.03625 2.51125,15.07375 2.88375,19.77125 -0.45,3.02875 -0.69375,5.15 -1.15375,7.70625 -0.06,-1.475 -0.22125,-3.1075 -0.355,-4.785 -0.1375,-1.6775 -0.28125,-3.40125 -0.54875,-5.04875 -0.22375,-1.53375 -0.47625,-2.99 -0.73375,-4.42375 -0.3225,-1.4225 -0.6425,-2.83125 -0.96625,-4.26125 0.14375,1.41875 0.28625,2.81125 0.43,4.21875 0.0925,1.4125 0.1725,2.845 0.3025,4.35375 0.47125,6.22875 0.7325,12.635 0.64375,20.5475 -1.01875,-9.91125 -2.0575,-17.13875 -3.55375,-23.54625 -0.4975,-2.2075 -0.79875,-2.60125 -0.835,-1.935 -0.0225,0.665 0.0363,2.42625 0.13875,4.5725 0.35125,6.58125 0.20125,12.78125 -0.20125,20.31 -0.2225,-2.51125 -0.37625,-4.63875 -0.62875,-6.73625 -0.23875,-2.10125 -0.42875,-4.2175 -0.81,-6.68 0.0487,3.46625 -0.1925,5.26625 -0.11,7.29875 0.13375,7.14 0.0188,14.35875 -0.0375,21.62625 l -0.055,7.01 6.9925,-0.99375 c 6.225,-0.88375 11.97625,-2.0575 17.78,-3.14875 5.77375,-1.10125 11.4825,-2.19 17.12875,-3.09 4.22875,-0.6425 9.97375,-1.31625 15.7825,-0.84375 1.44875,0.11 2.8525,0.34625 4.1425,0.675 0.30375,0.0838 0.6875,0.16875 0.865,0.24875 l 0.3375,0.10875 0.17125,0.0487 0.28375,0.12375 c 0.79125,0.35 1.59,0.7025 2.39375,1.05625 3.31,1.4425 6.625,3 10.13875,4.3 0.86625,0.34 1.73125,0.68 2.5925,1.02 0.86625,0.3325 1.77875,0.5975 2.66,0.89875 1.7775,0.58125 3.5225,1.20375 5.3125,1.6275 1.775,0.47875 3.5225,0.945 5.205,1.27 0.84375,0.18125 1.67875,0.36125 2.5025,0.5375 0.79125,0.155 1.57375,0.3075 2.34375,0.4575 0.76625,0.15125 1.52,0.30125 2.26125,0.4475 0.69625,0.1475 1.37875,0.29375 2.045,0.43625 1.34375,0.2975 2.56625,0.5325 3.84625,0.88 1.245,0.32875 2.42125,0.6375 3.515,0.92625 0.2725,0.0737 0.53875,0.1475 0.80125,0.21875 0.22625,0.0675 0.44875,0.1325 0.66625,0.1975 0.52375,0.1525 1.02625,0.2975 1.505,0.43625 1.2075,0.35375 3.5525,0.8375 4.99875,1.0275 9.0275,1.19125 17.84,1.81375 26.88,2.09875 2.99125,0.105 6.43625,0.225 9.47375,0.33 8.33125,0.36125 16.7125,0.33875 25.2175,-0.57625 4.2525,-0.46375 8.53625,-1.1575 12.8525,-2.27 4.305,-1.145 8.67625,-2.645 12.925,-5.14625 3.73875,-2.18 7.6375,-5.7425 10.09875,-10.275 l -0.3025,-0.36 c -2.66375,4.59125 -6.67625,7.8725 -10.695,10.12625 -4.0575,2.2875 -8.24375,3.71125 -12.3925,4.775 l -0.0738,-0.3575 c 5.0825,-1.48375 10.26,-3.62875 14.89,-6.94625 3.6575,-2.575 7.0275,-6.31 8.845,-10.885 z M 482.59285,338.2575 c 0.9125,7.89875 1.27125,15.76125 1.495,23.5275 l -0.4925,0.3075 c -0.27875,-7.6025 -1.305,-14.1675 -1.3925,-23.09125 l 0.39,-0.74375 z m 2.70625,28.54625 c -0.0362,-0.0487 -0.065,-0.0975 -0.10875,-0.14625 0,-0.09 0,-0.18 0,-0.27 5.615,-1.13375 11.33,-2.35125 17.0975,-3.385 l 0.73875,0.4825 c -5.97875,0.99875 -11.8975,2.19875 -17.7275,3.31875 z M 568.53785,380.84 c -1.96125,-0.2975 -3.99125,-0.7325 -5.955,-1.08875 -1.96625,-0.4925 -3.95125,-0.9025 -5.865,-1.48625 -1.89625,-0.62375 -3.84125,-1.14125 -5.68375,-1.85375 -1.84375,-0.705 -3.69,-1.40875 -5.54375,-2.11875 -1.8,-0.78875 -3.61125,-1.5825 -5.43625,-2.3825 -1.8275,-0.76625 -3.71,-1.7375 -5.1225,-2.08125 -1.685,-0.4725 -3.545,-0.75375 -5.47375,-0.92 1.9825,0.0663 3.90125,0.27 5.6525,0.69625 0.4725,0.0925 0.79625,0.22625 1.19125,0.33125 0.175,0.04 0.40375,0.12875 0.645,0.23375 l 0.69875,0.29 c 0.9375,0.38375 1.86625,0.76625 2.79,1.145 1.85875,0.78 3.69625,1.54875 5.51875,2.3125 1.86,0.70625 3.70625,1.4075 5.54625,2.1075 1.85,0.68375 3.75875,1.2375 5.63125,1.875 1.8975,0.56375 3.835,1.0475 5.7625,1.545 1.92625,0.39875 3.89875,0.87 5.81375,1.22125 0.96375,0.19 1.93375,0.38125 2.9075,0.57375 0.9425,0.1975 1.89,0.39625 2.8425,0.59625 -2,-0.33625 -3.97125,-0.66875 -5.92,-0.99625 z m 28.645,0.71625 0.23625,-0.34375 c 8.85625,1.1625 17.775,1.91625 26.69125,2.1525 l 0.1675,0.39375 c -9.0525,-0.24 -18.10625,-1.01 -27.095,-2.2025 z m 81.3075,-20.83125 c -0.001,0.025 10e-4,0.0537 0,0.0787 -0.0175,0.2025 -0.0638,0.39 -0.0888,0.58875 -0.22875,0.025 -0.45375,0.0437 -0.6825,0.0688 0.0225,-0.21375 0.0537,-0.425 0.0688,-0.6425 0.23125,-0.03 0.46875,-0.0625 0.7025,-0.0937 z m 3.71,0.17125 c -0.26875,-0.195 -0.5375,-0.3875 -0.805,-0.58125 0.385,-0.0575 0.7725,-0.11625 1.16375,-0.1775 l 0.83,0.5975 c -0.39875,0.0625 -0.79125,0.10375 -1.18875,0.16125 z m -3.855,-3.795 c 0.0437,0.36625 0.0837,0.73125 0.10875,1.09625 -0.25125,-0.18125 -0.50125,-0.3625 -0.75125,-0.5425 -0.0388,-0.36875 -0.0825,-0.73875 -0.13125,-1.11125 l 0.77375,0.5575 z m -12.6775,5.27625 c 2.5925,-0.4775 6.465,-0.8525 10.96,-1.4125 -0.015,0.20625 -0.0375,0.40875 -0.06,0.61125 -3.66125,0.365 -7.2825,0.605 -10.9,0.80125 z m 11.54,1.85 c 0.15,-0.50375 0.26,-1.0275 0.355,-1.5575 0.21875,-0.0225 0.43875,-0.0475 0.65625,-0.0713 -0.15375,0.74875 -0.35,1.475 -0.61375,2.15125 -0.91,2.42375 -2.60625,4.27 -4.37375,5.57125 1.92,-1.76625 3.2525,-3.79625 3.97625,-6.09375 z m -43.26375,16.8075 0.18875,-0.23375 c 6.22875,-0.1175 12.43125,-0.56375 18.445,-1.565 5.98875,-1.0075 11.8775,-2.595 16.77375,-5.29625 l 0.0313,0.6525 c -5.03625,2.6575 -10.975,4.15125 -16.985,5.08875 -6.035,0.9325 -12.235,1.30125 -18.45375,1.35375 z m 35.615,-5.13625 c -5.53875,2.85625 -11.93,4.35 -18.3475,5.29125 l 0.0763,-0.22875 c 6.40375,-0.9875 12.77375,-2.525 18.2325,-5.41625 2.71875,-1.4325 5.14,-3.25625 6.96875,-5.46 1.82,-2.20875 2.95625,-4.82625 3.36,-7.665 l 0.41375,0.21125 c -0.4325,2.9075 -1.6875,5.56625 -3.5575,7.80875 -1.9125,2.21875 -4.3825,4.04375 -7.14625,5.45875"
         style="fill:#231f20;fill-opacity:1;fill-rule:evenodd;stroke:none"
         id="path3178" />
      <path
         inkscape:connector-curvature="0"
         d="m 673.2316,370.32125 c 1.92,-1.76625 3.2525,-3.79625 3.97625,-6.09375 0.34375,-1.15875 0.54,-2.38875 0.6075,-3.67375 0.065,-1.2875 -0.0625,-2.6425 -0.24375,-4.01 l 5.8175,4.19125 c -6.035,0.9375 -11.87625,1.32625 -17.72125,1.6425 3.80375,-0.7 10.33,-1.17125 17.6025,-2.34875 -1.65625,-1.195 -3.31375,-2.38875 -4.99125,-3.5975 0.21125,1.475 0.30375,2.95625 0.21125,4.3725 -0.115,1.41125 -0.41625,2.74375 -0.885,3.94625 -0.91,2.42375 -2.60625,4.27 -4.37375,5.57125"
         style="fill:#ffffff;fill-opacity:1;fill-rule:evenodd;stroke:none"
         id="path3180" />
      <path
         inkscape:connector-curvature="0"
         d="m 669.38285,374.5925 c -5.03625,2.6575 -10.975,4.15125 -16.985,5.08875 -6.035,0.9325 -12.235,1.30125 -18.45375,1.35375 l 0.18875,-0.23375 c 6.22875,-0.1175 12.43125,-0.56375 18.445,-1.565 5.98875,-1.0075 11.8775,-2.595 16.77375,-5.29625 l 0.0313,0.6525"
         style="fill:#ffffff;fill-opacity:1;fill-rule:evenodd;stroke:none"
         id="path3182" />
      <path
         inkscape:connector-curvature="0"
         d="m 574.45785,381.83625 c -2,-0.33625 -3.97125,-0.66875 -5.92,-0.99625 -1.96125,-0.2975 -3.99125,-0.7325 -5.955,-1.08875 -1.96625,-0.4925 -3.95125,-0.9025 -5.865,-1.48625 -1.89625,-0.62375 -3.84125,-1.14125 -5.68375,-1.85375 -1.84375,-0.705 -3.69,-1.40875 -5.54375,-2.11875 -1.8,-0.78875 -3.61125,-1.5825 -5.43625,-2.3825 -1.8275,-0.76625 -3.71,-1.7375 -5.1225,-2.08125 -1.685,-0.4725 -3.545,-0.75375 -5.47375,-0.92 1.9825,0.0663 3.90125,0.27 5.6525,0.69625 0.4725,0.0925 0.79625,0.22625 1.19125,0.33125 0.175,0.04 0.40375,0.12875 0.645,0.23375 l 0.69875,0.29 c 0.9375,0.38375 1.86625,0.76625 2.79,1.145 1.85875,0.78 3.69625,1.54875 5.51875,2.3125 1.86,0.70625 3.70625,1.4075 5.54625,2.1075 1.85,0.68375 3.75875,1.2375 5.63125,1.875 1.8975,0.56375 3.835,1.0475 5.7625,1.545 1.92625,0.39875 3.89875,0.87 5.81375,1.22125 0.96375,0.19 1.93375,0.38125 2.9075,0.57375 0.9425,0.1975 1.89,0.39625 2.8425,0.59625"
         style="fill:#ffffff;fill-opacity:1;fill-rule:evenodd;stroke:none"
         id="path3184" />
      <path
         inkscape:connector-curvature="0"
         d="m 483.59535,362.0925 c -0.27875,-7.6025 -1.305,-14.1675 -1.3925,-23.09125 l 0.39,-0.74375 c 0.9125,7.89875 1.27125,15.76125 1.495,23.5275 l -0.4925,0.3075"
         style="fill:#ffffff;fill-opacity:1;fill-rule:evenodd;stroke:none"
         id="path3186" />
      <path
         inkscape:connector-curvature="0"
         d="m 651.28785,380.96125 c 6.40375,-0.9875 12.77375,-2.525 18.2325,-5.41625 2.71875,-1.4325 5.14,-3.25625 6.96875,-5.46 1.82,-2.20875 2.95625,-4.82625 3.36,-7.665 l 0.41375,0.21125 c -0.4325,2.9075 -1.6875,5.56625 -3.5575,7.80875 -1.9125,2.21875 -4.3825,4.04375 -7.14625,5.45875 -5.53875,2.85625 -11.93,4.35 -18.3475,5.29125 l 0.0763,-0.22875"
         style="fill:#ffffff;fill-opacity:1;fill-rule:evenodd;stroke:none"
         id="path3188" />
      <path
         inkscape:connector-curvature="0"
         d="m 503.0266,363.485 c -7.58,1.26625 -15.06875,2.86375 -22.395,4.19875 l -0.3975,-0.3175 c 7.19,-1.37125 14.58,-3.02375 22.05375,-4.36375 l 0.73875,0.4825"
         style="fill:#ffffff;fill-opacity:1;fill-rule:evenodd;stroke:none"
         id="path3190" />
      <path
         inkscape:connector-curvature="0"
         d="m 597.4191,381.2125 c 8.85625,1.1625 17.775,1.91625 26.69125,2.1525 l 0.1675,0.39375 c -9.0525,-0.24 -18.10625,-1.01 -27.095,-2.2025 l 0.23625,-0.34375"
         style="fill:#ffffff;fill-opacity:1;fill-rule:evenodd;stroke:none"
         id="path3192" />
      <path
         inkscape:connector-curvature="0"
         d="m 692.4841,342.76 c -0.37875,-3.5825 -1.4125,-6.525 -2.5,-9.365 l -1.98,-5.17375 -4.27375,1.22 -0.2775,0.0787 c -0.87875,0.25 -1.91125,0.4825 -2.83625,0.58 -5.045,0.50625 -10.03375,0.91625 -14.95,1.0525 -1.095,0.0663 -2.25375,0.29625 -3.3825,0.42625 L 662.27285,332 c 2.37875,0.0775 4.80625,-0.05 7.2275,-0.0987 l 0.0325,0.35 c -1.49375,0.205 -3.0075,0.4925 -4.48,0.58125 -1.21125,0.0663 -2.4075,0.0513 -3.60625,0.0763 l -1.79625,0.02 -1.775,-0.0687 c -1.1675,-0.0613 -2.39375,-0.0613 -3.50875,-0.16875 l -3.315,-0.315 c -1.6475,-0.19125 -3.30875,-0.38375 -5.3325,-0.61875 1.53125,1.0075 3.46625,1.8 3.4575,2.37875 -0.02,1.245 -0.6775,2.45875 -1.74125,3.54 -0.6275,0.635 -0.895,1.01125 -0.465,1.28375 0.215,0.13625 0.60625,0.24625 1.21375,0.34875 0.60875,0.10125 1.41625,0.225 2.57,0.23375 -0.1625,0.1775 -0.66625,0.33125 -1.25125,0.46625 -0.55875,0.10375 -1.19375,0.19375 -1.6675,0.30375 -0.945,0.22 -1.24,0.52 1.04125,1.1875 0.32375,0.72625 0.08,1.48125 0.8925,1.635 2.18875,0.41875 4.94625,0.79125 7.23375,0.69625 4.76875,0.005 9.3625,-0.6075 13.92125,-1.21875 3.13,-0.475 6.24125,-0.9725 9.3475,-1.4525 0.0387,0.43 0.07,0.85375 0.09,1.265 0.015,1.42875 -0.165,2.66875 -0.50875,3.54375 -0.35125,0.8775 -0.79125,1.44375 -1.6,2.05875 -1.0425,0.77375 -2.7375,1.63375 -4.8,2.00375 -3.1675,0.5725 -6.79375,0.565 -10.505,0.50875 -0.6575,-0.015 -1.445,0.06 -1.95625,-0.0413 -4.94625,-0.99125 -10.0625,-0.58625 -14.97125,0.71 -2.185,0.61 -3.63,1.58375 -5.95125,2.925 2.795,-0.40375 5.09375,-0.415 6.63125,-0.43875 1.0175,0.57625 1.71875,0.97875 2.55375,1.5025 -0.9375,0.0663 -2.08625,0.145 -3.14,0.33125 -0.98,0.1925 -1.85375,0.4875 -2.76125,0.79 0.9325,0.0162 1.815,0.14875 2.78125,0.14375 1.99375,0.015 4.025,0.03 6.53,0.16 -3.11375,0.895 -5.365,1.58375 -7.30625,2.44375 -1.32875,0.5875 -0.44875,0.7625 0.87875,0.8825 2.0525,0.20125 3.9825,0.57 6.33375,1.025 -1.5525,0.36 -2.60875,0.6175 -4.105,1.03125 1.07,0.17625 1.62875,0.38 2.2475,0.38125 5.79875,0.095 11.94,0.57375 18.3425,-0.77375 1.5,-0.32375 3.4975,-0.61625 5.83,-1.105 2.32125,-0.49 5.01,-1.135 7.775,-2.51625 1.375,-0.66125 2.74875,-1.59875 3.98375,-2.6875 0.62125,-0.53375 1.1575,-1.1875 1.70625,-1.78125 0.50125,-0.63375 0.9375,-1.3025 1.37,-1.94375 1.57875,-2.6675 2.14125,-5.08625 2.6175,-6.715 0.17375,-0.54 0.185,-1.49375 0.14625,-2.10375 z m -45.92625,9.4875 -0.2675,-0.43625 c 2.6025,-0.3725 5.14,-0.59 7.63125,-0.78125 l 0.10625,0.4825 c -2.4375,0.2175 -4.515,1.21875 -7.47,0.735 z m 11.71625,0.0975 -0.11375,-0.3675 c 2.36,-0.18 4.685,-0.36125 6.94125,-0.6025 l 0.2175,0.56625 c -2.2975,0.17875 -4.65375,0.29125 -7.045,0.40375 z m 25.25125,-16.72 0.1975,0.7425 c 0.2525,-0.0425 0.50375,-0.0875 0.75625,-0.12875 0.14375,0.09 0.28625,0.185 0.42875,0.275 l -1.0925,0.19875 0.0638,0.24125 c -0.0375,-0.02 -0.0738,-0.0387 -0.11,-0.0588 -0.0325,-0.0512 -0.065,-0.10375 -0.095,-0.15625 l 0.14125,-0.0263 -0.0925,-0.345 c -0.0838,0.015 -0.16625,0.03 -0.25,0.0437 -0.0512,-0.0875 -0.10875,-0.175 -0.16,-0.26375 -0.0663,-0.26375 -0.14125,-0.52375 -0.20125,-0.78875 0.13875,0.09 0.275,0.1775 0.41375,0.26625 z m -22.92,4.46625 c 4.30875,-0.1325 8.60875,-0.4125 12.85625,-0.9125 l -0.01,0.21 c -4.24625,0.5775 -8.5575,0.92375 -12.88625,1.13125 l 0.04,-0.42875 z m -8.1325,2.5 c 2.7425,-0.62625 8.6625,-0.90125 12.45375,-0.19125 -4.05875,0.24 -7.99625,0.43875 -12.45375,0.19125 z m 26.7575,-2.545 c -2.02875,0.2975 -4.055,0.60125 -6.11125,0.83625 -2.04125,0.27375 -4.10625,0.47625 -6.17625,0.65875 l 0.055,-0.57375 c 2.0625,-0.12 4.11875,-0.27125 6.15625,-0.48625 2.05125,-0.1775 4.075,-0.42625 6.105,-0.66375 l -0.0287,0.22875 z m 2.99,15.55875 c -2.58125,1.47625 -5.26875,2.19625 -8.02875,2.67 2.7525,-0.88625 5.35375,-1.7325 7.85875,-3.16875 2.4775,-1.43625 4.80625,-3.735 6.10125,-6.7075 -1.04875,3.1375 -3.3725,5.72125 -5.93125,7.20625"
         style="fill:#231f20;fill-opacity:1;fill-rule:evenodd;stroke:none"
         id="path3194" />
      <path
         inkscape:connector-curvature="0"
         d="m 664.9266,342.4 c -4.05875,0.24 -7.99625,0.43875 -12.45375,0.19125 2.7425,-0.62625 8.6625,-0.90125 12.45375,-0.19125"
         style="fill:#ffffff;fill-opacity:1;fill-rule:evenodd;stroke:none"
         id="path3196" />
      <path
         inkscape:connector-curvature="0"
         d="m 666.99785,340.9675 c 2.0625,-0.12 4.11875,-0.27125 6.15625,-0.48625 2.05125,-0.1775 4.075,-0.42625 6.105,-0.66375 l -0.0287,0.22875 c -2.02875,0.2975 -4.055,0.60125 -6.11125,0.83625 -2.04125,0.27375 -4.10625,0.47625 -6.17625,0.65875 l 0.055,-0.57375"
         style="fill:#ffffff;fill-opacity:1;fill-rule:evenodd;stroke:none"
         id="path3198" />
      <path
         inkscape:connector-curvature="0"
         d="m 688.1516,348.39875 c -1.04875,3.1375 -3.3725,5.72125 -5.93125,7.20625 -2.58125,1.47625 -5.26875,2.19625 -8.02875,2.67 2.7525,-0.88625 5.35375,-1.7325 7.85875,-3.16875 2.4775,-1.43625 4.80625,-3.735 6.10125,-6.7075"
         style="fill:#ffffff;fill-opacity:1;fill-rule:evenodd;stroke:none"
         id="path3200" />
      <path
         inkscape:connector-curvature="0"
         d="m 654.02785,351.5125 c -2.4375,0.2175 -4.515,1.21875 -7.47,0.735 l -0.2675,-0.43625 c 2.6025,-0.3725 5.14,-0.59 7.63125,-0.78125 l 0.10625,0.4825"
         style="fill:#ffffff;fill-opacity:1;fill-rule:evenodd;stroke:none"
         id="path3202" />
      <path
         inkscape:connector-curvature="0"
         d="m 673.4516,339.38875 c -4.24625,0.5775 -8.5575,0.92375 -12.88625,1.13125 l 0.04,-0.42875 c 4.30875,-0.1325 8.60875,-0.4125 12.85625,-0.9125 l -0.01,0.21"
         style="fill:#ffffff;fill-opacity:1;fill-rule:evenodd;stroke:none"
         id="path3204" />
      <path
         inkscape:connector-curvature="0"
         d="m 665.3191,351.94125 c -2.2975,0.17875 -4.65375,0.29125 -7.045,0.40375 l -0.11375,-0.3675 c 2.36,-0.18 4.685,-0.36125 6.94125,-0.6025 l 0.2175,0.56625"
         style="fill:#ffffff;fill-opacity:1;fill-rule:evenodd;stroke:none"
         id="path3206" />
      <path
         inkscape:connector-curvature="0"
         d="m 684.2541,340.59625 c -0.0937,-0.87125 -0.32375,-1.7475 -0.475,-2.62 -0.23375,-0.87 -0.465,-1.73875 -0.6675,-2.6175 0.6,0.38875 1.19875,0.7775 1.79625,1.155 l -2.8675,0.52375 -0.11625,-0.36 c 0.975,-0.1725 1.95,-0.345 2.9275,-0.5025 -0.4725,-0.30375 -0.94375,-0.60625 -1.42125,-0.90625 l 0.70875,2.66 c 0.1525,0.8925 0.3925,1.78625 0.47875,2.6825 l -0.36375,-0.015"
         style="fill:#ffffff;fill-opacity:1;fill-rule:evenodd;stroke:none"
         id="path3208" />
      <path
         inkscape:connector-curvature="0"
         d="m 681.1291,317.7375 0.35125,-0.007 c -0.01,-0.1075 -0.0163,-0.21875 -0.025,-0.3275 -0.11625,0 -0.2325,0.002 -0.3475,0.004 0.009,0.11 0.0113,0.22375 0.0213,0.33125"
         style="fill:#231f20;fill-opacity:1;fill-rule:evenodd;stroke:none"
         id="path3210" />
      <path
         inkscape:connector-curvature="0"
         d="m 689.2966,319.62375 c -0.2725,-1.1475 -0.54875,-2.29875 -0.82375,-3.4525 l -1.54625,-6.46625 -4.3675,0.5525 c -1.26875,0.16 -2.54125,0.32125 -3.80625,0.48125 -0.88625,0.105 -1.9175,0.17 -2.82375,0.12125 -2.475,-0.1425 -4.95625,-0.28 -7.46875,-0.36125 -2.51125,-0.09 -4.99875,-0.21625 -7.5475,-0.24875 -1.1475,0 -2.38125,0.28 -3.5725,0.435 l -0.01,0.4175 c 1.2525,-0.009 2.5025,-0.0288 3.7525,-0.009 1.2425,0.025 2.45,0.1075 3.675,0.15875 l 0.004,0.3475 c -1.51875,0.1 -3.0325,0.23375 -4.555,0.295 -2.48,0.0775 -4.96375,0.155 -7.45,0.2325 l -1.86125,0.0587 -1.7925,0.14625 -3.58875,0.30625 c -1.595,0.1425 -3.2175,0.40625 -5.185,0.66125 1.65375,0.55875 3.6375,0.83875 3.76,1.37625 0.2625,1.15625 -0.0763,2.43125 -0.82625,3.66625 -0.88375,1.44875 -0.66375,1.62375 3.49125,1.075 -0.45125,0.7775 -5.84625,1.89625 -1.28,2.1475 0.46,0.61 0.43625,1.34 1.14625,1.375 1.94,0.12 4.2675,-0.0113 6.32125,-0.1375 2.05,-0.0975 4.09,-0.235 6.13,-0.3925 1.0225,-0.0675 2.0325,-0.1775 3.06125,-0.27 l 3.145,-0.18875 c 2.09875,-0.12375 4.2,-0.24 6.30875,-0.32375 1.96125,-0.055 3.9425,-0.055 5.925,-0.0225 0.15375,1.45375 0.29875,2.84 0.3775,4.13 0.0425,0.5975 0.055,1.1675 0.0525,1.71125 -0.26875,0.001 -0.53875,0.0112 -0.80875,0.01 -3.77625,-0.0238 -7.5675,-0.17375 -11.45375,-0.03 -0.6775,0.0188 -1.48375,0.13125 -2.01625,0.06 -5.1675,-0.575 -10.255,0.61375 -14.6675,2.57 -1.95875,0.8525 -3.13875,2.01125 -5.1175,3.40375 2.52625,-0.46625 4.66875,-0.95625 6.1275,-1.13125 1.0325,0.415 1.7625,0.70875 2.6475,1.065 -0.8825,0.22125 -1.96375,0.44375 -2.93875,0.7525 -0.9025,0.305 -1.6725,0.76375 -2.49375,1.1475 0.88875,-0.0813 1.73,-0.12875 2.6475,-0.26375 0.96,-0.12625 1.915,-0.25125 2.92875,-0.385 0.51,-0.0725 1.03375,-0.14625 1.57875,-0.225 0.55125,-0.0425 1.12375,-0.0888 1.72625,-0.13875 -1.4325,0.59 -2.6325,1.20875 -3.7075,1.7575 -1.0675,0.57375 -2.03875,0.98875 -2.89,1.60125 -1.18,0.79625 -0.3175,0.8175 0.96,0.68875 1.005,-0.0238 1.97875,-0.02 2.9775,-0.007 0.995,0.002 2.02125,0.0313 3.15625,0.13375 -1.41375,0.49125 -2.33875,0.95 -3.69625,1.5475 1.0425,0.02 1.58,0.12 2.1625,0.03 5.42125,-0.67625 10.89375,-0.83 16.4825,-1.83 2.54625,-0.48375 6.79375,-0.535 11.0125,-0.3375 l 2.9875,0.14 1.50875,-2.91875 c 0.95125,-1.8375 1.27125,-3.43375 1.5275,-4.85375 0.245,-1.435 0.32625,-2.67125 0.41,-3.8175 0.14,-2.2625 0.2025,-4.06 0.385,-5.2925 0.055,-0.38375 0.0188,-1.095 -0.0812,-1.49875 z m -33.40375,-0.55375 5.98375,-0.22125 6.05,-0.025 -0.0288,0.20625 -6.05125,0.13375 -5.97125,0.325 0.0175,-0.41875 z m -1.44375,2.5575 c -0.91375,0.05 -1.81125,0.0625 -2.7525,0.14125 -0.94875,0.0937 -1.90625,0.18875 -2.8725,0.285 2.2125,-1.1725 7.68375,-1.4625 11.03375,-0.67 -1.7975,0.0812 -3.5925,0.1625 -5.40875,0.24375 z m 18.75875,-1.265 c -3.85375,0.0425 -7.68,0.15125 -11.51125,0.24 l 0.0738,-0.56625 c 3.835,0.0325 7.65,0.03 11.495,0.105 l -0.0575,0.22125 z m -19.81625,9.91625 c -1.12125,0.41125 -2.29125,0.7275 -3.7325,0.6925 l -0.31875,-0.3775 3.615,-1.01375 c 1.2075,-0.325 2.425,-0.54625 3.6425,-0.8225 l 0.165,0.44875 c -1.1825,0.27625 -2.25125,0.70125 -3.37125,1.0725 z m 7.6675,-0.76 -0.14875,-0.3425 c 2.34875,-0.445 4.6825,-0.71125 7.03,-1.02 l 0.22875,0.54625 c -2.3725,0.2475 -4.7325,0.43625 -7.11,0.81625 z m 20.33375,-12.985 c 0.0138,0.295 0.04,0.58125 0.0625,0.86875 0.26375,-0.002 0.52625,-0.01 0.78875,-0.0112 0.105,0.105 0.21,0.21125 0.315,0.31625 l -1.07875,0.0225 c 0.0137,0.15875 0.0175,0.3275 0.035,0.48375 l -0.35875,-0.0263 c -0.015,-0.145 -0.015,-0.3025 -0.0275,-0.45 l -0.92875,0.02 c -0.1475,-0.1125 -0.2975,-0.22375 -0.4475,-0.3325 0.45125,-0.006 0.90375,-0.0138 1.355,-0.0188 -0.03,-0.4075 -0.0725,-0.8075 -0.0762,-1.235 0.12,0.12125 0.24,0.2425 0.36125,0.3625 z m 4.8925,12.55375 c -0.13625,1.545 -0.36875,3.2075 -1.25,4.98875 l -0.78125,1.57875 -1.695,-0.0313 -6.245,-0.1125 c 2.1675,-0.3325 4.2375,-0.42 6.245,-0.4075 l 1.41125,0.007 0.615,-1.26 c 0.81875,-1.68 1.09625,-3.25125 1.3225,-4.7575 0.2125,-1.51 0.3025,-2.97 0.3775,-4.44625 0.0788,1.425 0.12375,2.88625 0,4.44"
         style="fill:#231f20;fill-opacity:1;fill-rule:evenodd;stroke:none"
         id="path3212" />
      <path
         inkscape:connector-curvature="0"
         d="m 659.85785,321.38375 c -1.7975,0.0812 -3.5925,0.1625 -5.40875,0.24375 -0.91375,0.05 -1.81125,0.0625 -2.7525,0.14125 -0.94875,0.0937 -1.90625,0.18875 -2.8725,0.285 2.2125,-1.1725 7.68375,-1.4625 11.03375,-0.67"
         style="fill:#ffffff;fill-opacity:1;fill-rule:evenodd;stroke:none"
         id="path3214" />
      <path
         inkscape:connector-curvature="0"
         d="m 661.77035,320.03625 c 3.835,0.0325 7.65,0.03 11.495,0.105 l -0.0575,0.22125 c -3.85375,0.0425 -7.68,0.15125 -11.51125,0.24 l 0.0738,-0.56625"
         style="fill:#ffffff;fill-opacity:1;fill-rule:evenodd;stroke:none"
         id="path3216" />
      <path
         inkscape:connector-curvature="0"
         d="m 686.28535,324.6475 c 0.0788,1.425 0.12375,2.88625 0,4.44 -0.13625,1.545 -0.36875,3.2075 -1.25,4.98875 l -0.78125,1.57875 -1.695,-0.0313 -6.245,-0.1125 c 2.1675,-0.3325 4.2375,-0.42 6.245,-0.4075 l 1.41125,0.007 0.615,-1.26 c 0.81875,-1.68 1.09625,-3.25125 1.3225,-4.7575 0.2125,-1.51 0.3025,-2.97 0.3775,-4.44625"
         style="fill:#ffffff;fill-opacity:1;fill-rule:evenodd;stroke:none"
         id="path3218" />
      <path
         inkscape:connector-curvature="0"
         d="m 656.76285,329.20625 c -1.1825,0.27625 -2.25125,0.70125 -3.37125,1.0725 -1.12125,0.41125 -2.29125,0.7275 -3.7325,0.6925 l -0.31875,-0.3775 3.615,-1.01375 c 1.2075,-0.325 2.425,-0.54625 3.6425,-0.8225 l 0.165,0.44875"
         style="fill:#ffffff;fill-opacity:1;fill-rule:evenodd;stroke:none"
         id="path3220" />
      <path
         inkscape:connector-curvature="0"
         d="m 667.89785,319.03 -6.05125,0.13375 -5.97125,0.325 0.0175,-0.41875 5.98375,-0.22125 6.05,-0.025 -0.0288,0.20625"
         style="fill:#ffffff;fill-opacity:1;fill-rule:evenodd;stroke:none"
         id="path3222" />
      <path
         inkscape:connector-curvature="0"
         d="m 668.1691,328.7025 c -2.3725,0.2475 -4.7325,0.43625 -7.11,0.81625 l -0.14875,-0.3425 c 2.34875,-0.445 4.6825,-0.71125 7.03,-1.02 l 0.22875,0.54625"
         style="fill:#ffffff;fill-opacity:1;fill-rule:evenodd;stroke:none"
         id="path3224" />
      <path
         inkscape:connector-curvature="0"
         d="m 681.1566,318.1875 c -0.0675,-0.65 -0.1175,-1.31875 -0.125,-2.01625 0.50875,0.51375 1.0175,1.02625 1.5275,1.53625 l -6.29,0.135 -0.0575,-0.37 c 2.115,-0.04 4.2325,-0.0788 6.3475,-0.085 -0.39375,-0.40625 -0.78875,-0.81125 -1.19375,-1.21625 0.025,0.7025 0.0762,1.3825 0.15,2.0425 l -0.35875,-0.0263"
         style="fill:#ffffff;fill-opacity:1;fill-rule:evenodd;stroke:none"
         id="path3226" />
      <path
         inkscape:connector-curvature="0"
         d="m 729.89535,296.78 c 0.004,0.0188 0.0113,0.0475 0.02,0.0775 0.005,-0.002 0.009,-0.006 0.0137,-0.009 l -0.0112,-0.0512 c -0.006,-0.006 -0.0163,-0.0138 -0.0225,-0.02 0,10e-4 0,10e-4 0,0.002"
         style="fill:#231f20;fill-opacity:1;fill-rule:evenodd;stroke:none"
         id="path3228" />
      <path
         inkscape:connector-curvature="0"
         d="m 739.45285,295.00875 -0.0175,-0.11875 -0.009,-0.0325 -0.0163,-0.065 -0.0325,-0.13125 -0.065,-0.26125 -0.0175,-0.0662 -0.085,-0.32375 -0.0225,-0.0687 -0.0987,-0.275 c -0.13625,-0.36375 -0.2825,-0.72875 -0.445,-1.0775 -0.71,-1.365 -1.6775,-2.4125 -2.63375,-3.18375 -1.92625,-1.49 -3.73375,-2.12125 -5.42125,-2.63625 -3.17625,-0.91625 -6.5475,-1.295 -10.185,-1.5175 -3.63375,-0.215 -7.51,-0.22 -11.56,-0.11375 -8.0975,0.21875 -16.8825,0.89375 -25.52125,1.65375 -17.25375,1.4925 -33.99125,3.50125 -42.76,3.61375 -0.88625,0.0263 -2.2675,0.0663 -3.56125,0.10375 -0.19625,-1.2625 -0.4625,-2.5475 -0.8825,-3.81375 -1.0125,-2.9925 -2.84625,-5.945 -5.33125,-8.01125 -0.615,-0.5175 -1.23375,-1.03125 -1.9,-1.43625 l -0.98875,-0.63625 c -0.355,-0.2 -0.7325,-0.3875 -1.1025,-0.57625 l -1.1175,-0.55 -0.86875,-0.33625 -0.85875,-0.32625 -0.415,-0.15625 -0.27125,-0.0788 -0.545,-0.15625 c -2.8875,-0.79625 -5.46,-1.065 -8.08,-1.30125 -3.7,-0.29875 -7.92375,-0.375 -11.62375,-0.35875 -10.11875,0.0937 -20.1825,1.09375 -30.14375,3.825 -4.96375,1.4025 -9.94125,3.205 -14.625,6.2825 -1.185,0.71 -2.29375,1.6725 -3.41,2.5725 l -1.585,1.55875 c -0.54,0.5 -0.97875,1.16875 -1.4625,1.7525 -1.845,2.4425 -3.27625,5.5 -3.65375,8.735 -0.17,1.4375 -0.13875,2.88 0.0263,4.3 -0.19,0.009 -0.385,0.0175 -0.57625,0.0263 l -0.14625,0.2775 c 0.25125,-0.005 0.505,-0.0125 0.7575,-0.0175 0.025,0.195 0.0512,0.39 0.0812,0.585 -2.6675,0.0525 -5.3375,0.10625 -8.0025,0.16 -4.37125,0.0213 -8.7475,0.11625 -13.12375,0.2025 -8.755,0.25875 -17.52,0.555 -26.31375,1.39375 -3.19,0.22375 -6.46375,0.735 -9.915,1.2175 -0.8625,0.1225 -1.7375,0.24625 -2.62625,0.3725 -0.87625,0.11375 -1.71875,0.47625 -2.6025,0.71375 -1.75625,0.535 -3.57625,1.08875 -5.47875,1.6675 1.55375,-0.3925 3.15875,-0.7975 4.71,-1.18875 1.5775,-0.37 3.06625,-0.79625 4.485,-0.8225 2.7875,-0.22625 4.805,-0.35125 4.94375,-0.22125 0.595,0.555 -1.24875,1.45875 -4.64875,2.44 -3.96375,1.33875 -3.21375,0.8875 13.2925,-0.52125 -0.5225,0.13875 -2.265,0.3725 -4.30875,0.6075 -2.045,0.225 -4.3475,0.61625 -6.0525,0.86 -3.4025,0.525 -4.31,0.7625 4.49,0.0737 1.55125,0.20625 1.18,0.695 3.93875,0.545 1.9025,-0.095 3.8825,-0.1925 5.915,-0.29375 2.04625,-0.055 4.14375,-0.11375 6.26375,-0.17125 4.23625,-0.165 8.5975,-0.1375 12.79125,-0.2425 4.565,-0.0138 9.11375,-0.0713 13.6775,-0.0375 4.55375,0.0125 9.11875,0.21625 13.67875,0.3025 l 5.59375,0.10625 -1.85375,-5.41375 c -0.83125,-2.42625 -1.1175,-4.79375 -0.62375,-6.91375 0.47,-2.12 1.7375,-4.095 3.61125,-5.82125 1.865,-1.7275 4.24125,-3.1725 6.7875,-4.3875 2.54375,-1.23125 5.30375,-2.20375 8.13625,-3.01 2.825,-0.82875 5.74375,-1.47125 8.6975,-1.985 2.94875,-0.5375 5.94625,-0.905 8.955,-1.1925 6.01625,-0.54625 12.13375,-0.6925 18.12,-0.26 2.02,0.13375 4.105,0.28375 6.03,0.60625 0.48125,0.0913 0.97875,0.16875 1.4475,0.27 l 1.36875,0.32625 0.60375,0.19625 0.3025,0.095 0.15125,0.0463 0.025,0.006 1.46375,0.61875 c 1.385,0.68 2.72625,1.61625 3.6975,2.76625 1.97125,2.2925 2.60125,5.44875 2.46625,9.5475 l 0,0.01 -0.0362,3.65625 3.63,0.4875 c 2.43625,0.3275 4.35125,0.27375 6.35,0.2475 1.96875,-0.0475 3.88625,-0.15375 5.7925,-0.28 3.80875,-0.25625 7.57,-0.5925 11.31625,-0.945 7.4925,-0.6975 14.93,-1.49125 22.34625,-2.26125 9.61625,-0.96875 19.25625,-1.97125 28.70875,-2.23875 3.61375,-0.0925 7.205,-0.0913 10.715,0.0913 3.4775,0.19625 6.98125,0.56375 9.85375,1.3875 0.67125,0.195 1.28875,0.41875 1.78875,0.6575 -0.41875,0.25375 -0.91875,0.51125 -1.41125,0.76375 -1.37,0.66125 -2.93,1.26375 -4.5375,1.81375 -2.25125,0.7725 -5.08375,1.64875 -6.9725,2.0475 -9.11,1.91875 -18.39,3.4425 -27.45,5.00125 -9.05375,1.5475 -17.94,3.06625 -26.595,4.545 -3.82,0.6625 -7.0275,1.32625 -10.355,2.05875 -3.36,0.70375 -6.69375,1.62875 -11.2225,2.2875 1.29,-0.10125 2.47875,-0.1575 3.655,-0.21625 1.16875,-0.0925 2.2975,-0.24375 3.405,-0.355 2.20875,-0.235 4.3125,-0.46 6.29125,-0.67 3.94875,-0.43 7.395,-0.80375 10.16375,-1.105 3.5725,0.0937 6.09625,0.16 9.16,0.2425 -3.5025,0.5 -7.74125,1.105 -11.69125,1.66875 -3.65625,0.555 -6.97,1.1575 -10.43625,1.735 3.4175,-0.285 6.66375,-0.5 10.285,-0.885 7.47,-0.80375 15.13875,-1.7225 24.6,-3.03875 -11.7375,2.56 -20.43625,4.16625 -28.325,5.7575 -5.4275,1.08375 -2.075,0.90875 3.19625,0.44875 8.0925,-0.715 15.70625,-1.335 24.89875,-2.33125 -6.0775,1.235 -10.2625,2.03625 -16.3825,3.17125 4.31875,-0.38125 6.52,-0.51 9.0375,-0.85 11.6,-1.59375 23.175,-3.36875 34.71625,-6.0675 5.785,-1.41125 11.5125,-2.9 17.4075,-5.54625 1.48375,-0.69625 2.98125,-1.465 4.56,-2.58 0.7825,-0.555 1.60875,-1.2325 2.44375,-2.1575 0.8025,-0.89 1.7625,-2.26375 2.14375,-4.17875 0.0462,-0.24 0.0862,-0.47375 0.1175,-0.72 0.0213,-0.325 0.0263,-0.65625 0.0113,-0.98875 -0.015,-0.33125 -0.0475,-0.66125 -0.0987,-0.9825 z m -190.8775,5.31 c 0.055,-1.1925 -0.0175,-2.38125 0.2875,-3.5675 0.11875,-0.5925 0.235,-1.185 0.3725,-1.77125 l 0.63375,-1.69125 0.33125,-0.84 c 0.125,-0.27 0.28375,-0.52 0.42625,-0.77875 l 0.8925,-1.53375 c 0.67625,-0.93 1.37875,-1.8675 2.15,-2.6825 0.8025,-0.76625 1.56875,-1.62 2.44125,-2.24625 0.8475,-0.6825 1.705,-1.3475 2.60625,-1.88625 l 0.11,0.2175 c -2.71875,1.84375 -5.3575,4.20125 -7.23125,7.31875 -1.9025,3.09 -2.7125,6.92625 -2.4075,10.395 0.0225,0.1625 0.0425,0.32875 0.0625,0.49375 -0.18875,0.009 -0.38,0.0175 -0.56875,0.0263 -0.0562,-0.47875 -0.10375,-0.96125 -0.10625,-1.45375 z m -9.10625,6.8925 c 4.6375,-0.002 9.28125,0.10625 13.92375,0.165 l 2.24375,0.0287 -0.72125,-2.19375 c -0.8325,-2.5325 -1.2175,-5.16 -0.75125,-7.64125 0.445,-2.4825 1.74875,-4.75 3.56,-6.64125 1.79875,-1.90875 4.0725,-3.45 6.51,-4.7075 2.4325,-1.26875 5.01,-2.33625 7.68125,-3.17 l -0.0775,0.17875 c -2.64875,0.84625 -5.2075,1.91125 -7.60625,3.18875 -2.4025,1.26625 -4.65375,2.795 -6.40625,4.69 -1.77,1.875 -3.02375,4.1025 -3.445,6.53 -0.44,2.42625 -0.0538,4.9975 0.77125,7.4875 l 0.8375,2.52625 -2.59625,-0.0288 c -4.7125,-0.0525 -9.42375,-0.16625 -14.13,-0.1525 l 0.20625,-0.26 z m 3.06,1.57625 c -3.61625,-0.04 -7.23625,-0.055 -10.84625,-0.0238 -3.61375,0.01 -7.225,0.045 -10.8275,0.14 -3.61125,0.0475 -7.20875,0.19625 -10.80625,0.3575 8.6175,-0.91125 29.69375,-1.3875 43.34375,-0.2725 l 1.23875,0.10125 -1.23875,-0.0313 -10.86375,-0.27125 z m 13.975,-4.14375 1.24875,4.52375 -0.32625,-0.007 -0.9875,-4.4925 c -0.10125,-0.4525 -0.195,-0.88 -0.28625,-1.2975 l 0.35125,1.27375 z m 35.77875,-24.39125 c -7.4825,0.73625 -14.95875,2.0525 -21.88125,4.5275 -3.435,1.24875 -6.7375,2.8225 -9.46875,4.8975 -0.665,0.53 -1.36125,1.0375 -1.91125,1.645 -0.2875,0.295 -0.60625,0.57 -0.87125,0.87625 l -0.73625,0.94625 -0.3725,0.47 -0.2825,0.5075 -0.585,1.00625 -0.40125,1.06625 -0.2075,0.53125 c -0.0612,0.18 -0.0738,0.3725 -0.115,0.5575 l -0.3175,-0.40625 c 0.82,-3.02375 3.0625,-5.61375 5.8475,-7.6625 2.805,-2.06 6.16125,-3.57 9.61125,-4.79875 6.95875,-2.41375 14.435,-3.65875 21.9075,-4.3425 l -0.21625,0.17875 z M 630.7516,288.9 c -0.6575,-2.435 -1.9725,-4.6375 -3.88375,-6.24125 -0.91875,-0.84125 -2.0325,-1.48125 -3.10125,-2.04 -0.5525,-0.2875 -1.23375,-0.5225 -1.84625,-0.7875 -0.52,-0.18625 -1.1775,-0.38625 -1.785,-0.5425 -5.08625,-1.1925 -10.53875,-1.40125 -15.88875,-1.42875 l -0.21625,-0.2725 c 5.43625,0.0238 10.96875,0.22125 16.17375,1.44125 0.6275,0.16375 1.29125,0.36 1.84875,0.56625 0.61875,0.27125 1.31125,0.50125 1.87,0.805 1.1125,0.5825 2.26,1.24625 3.2025,2.12625 0.515,0.39375 0.90875,0.90625 1.36,1.36375 0.37375,0.52 0.8,1.005 1.1,1.57625 0.67375,1.09375 1.16125,2.305 1.48,3.57 L 630.7516,288.9 z m 49.99375,0.47 c -9.30875,0.86625 -18.47,1.77375 -28.04875,2.57875 9.81375,-1.05375 19.07,-2.145 28.37625,-3.03125 9.30875,-0.88 18.655,-1.7 28.74375,-1.86125 -10.31375,0.5025 -19.75625,1.46 -29.07125,2.31375 z m -17.17875,21.68 -0.8675,-0.2925 c 9.17125,-1.31625 18.31625,-2.71625 27.38625,-4.33625 l 0.42375,0.3575 c -8.86125,1.605 -16.51625,3.5425 -26.9425,4.27125 z m 66.39125,-14.2225 c -0.0275,-0.0475 -0.06,-0.115 -0.0825,-0.23 l 0.0425,0.2 c 0.009,0.009 0.025,0.0225 0.0325,0.03 0.003,0.001 0.001,0.001 0.004,0.004 -0.009,0.006 -0.0163,0.0125 -0.025,0.0175 l 0.0175,0.0875 c 0.0238,0.0925 -0.009,0.003 -0.0313,-0.0787 -1.16375,0.82875 -2.84625,1.64125 -4.515,2.3225 -1.955,0.8025 -4.03125,1.505 -6.14625,2.14625 -4.2325,1.28125 -8.61,2.34625 -13.02,3.3125 l -0.4725,-0.22375 c 4.34125,-0.9775 8.65125,-2.04625 12.82125,-3.31625 2.08,-0.63625 4.12625,-1.325 6.065,-2.09875 1.825,-0.7425 3.63125,-1.6 4.8925,-2.49125 0.16125,0.10625 0.27625,0.1975 0.355,0.26875 -0.0238,-0.0975 -0.0412,-0.1975 -0.05,-0.29875 -0.003,-0.0188 -0.003,-0.0437 -0.004,-0.065 l 0.56625,0.0663 c -0.13875,0.11625 -0.29,0.2325 -0.45,0.3475"
         style="fill:#231f20;fill-opacity:1;fill-rule:evenodd;stroke:none"
         id="path3230" />
      <path
         inkscape:connector-curvature="0"
         d="m 556.15285,303.37 0.35125,1.27375 1.24875,4.52375 -4.36,-0.10875 -10.86375,-0.27125 c -3.61625,-0.04 -7.23625,-0.055 -10.84625,-0.0238 -3.61375,0.01 -7.225,0.045 -10.8275,0.14 -3.61125,0.0475 -7.20875,0.19625 -10.80625,0.3575 8.6175,-0.91125 29.69375,-1.3875 43.34375,-0.2725 l 4.07,0.3325 -1.02375,-4.65375 c -0.10125,-0.4525 -0.195,-0.88 -0.28625,-1.2975"
         style="fill:#ffffff;fill-opacity:1;fill-rule:evenodd;stroke:none"
         id="path3232" />
      <path
         inkscape:connector-curvature="0"
         d="m 555.13285,296.8775 c 0.82,-3.02375 3.0625,-5.61375 5.8475,-7.6625 2.805,-2.06 6.16125,-3.57 9.61125,-4.79875 6.95875,-2.41375 14.435,-3.65875 21.9075,-4.3425 l -0.21625,0.17875 c -7.4825,0.73625 -14.95875,2.0525 -21.88125,4.5275 -3.435,1.24875 -6.7375,2.8225 -9.46875,4.8975 -0.665,0.53 -1.36125,1.0375 -1.91125,1.645 -0.2875,0.295 -0.60625,0.57 -0.87125,0.87625 l -0.73625,0.94625 -0.3725,0.47 -0.2825,0.5075 -0.585,1.00625 -0.40125,1.06625 -0.2075,0.53125 c -0.0612,0.18 -0.0738,0.3725 -0.115,0.5575 l -0.3175,-0.40625"
         style="fill:#ffffff;fill-opacity:1;fill-rule:evenodd;stroke:none"
         id="path3234" />
      <path
         inkscape:connector-curvature="0"
         d="m 652.6966,291.94875 c 9.81375,-1.05375 19.07,-2.145 28.37625,-3.03125 9.30875,-0.88 18.655,-1.7 28.74375,-1.86125 -10.31375,0.5025 -19.75625,1.46 -29.07125,2.31375 -9.30875,0.86625 -18.47,1.77375 -28.04875,2.57875"
         style="fill:#ffffff;fill-opacity:1;fill-rule:evenodd;stroke:none"
         id="path3236" />
      <path
         inkscape:connector-curvature="0"
         d="m 690.5091,306.77875 c -8.86125,1.605 -16.51625,3.5425 -26.9425,4.27125 l -0.8675,-0.2925 c 9.17125,-1.31625 18.31625,-2.71625 27.38625,-4.33625 l 0.42375,0.3575"
         style="fill:#ffffff;fill-opacity:1;fill-rule:evenodd;stroke:none"
         id="path3238" />
      <path
         inkscape:connector-curvature="0"
         d="m 571.83785,283.23 c -2.64875,0.84625 -5.2075,1.91125 -7.60625,3.18875 -2.4025,1.26625 -4.65375,2.795 -6.40625,4.69 -1.77,1.875 -3.02375,4.1025 -3.445,6.53 -0.44,2.42625 -0.0538,4.9975 0.77125,7.4875 l 0.8375,2.52625 -2.59625,-0.0288 c -4.7125,-0.0525 -9.42375,-0.16625 -14.13,-0.1525 l 0.20625,-0.26 c 4.6375,-0.002 9.28125,0.10625 13.92375,0.165 l 2.24375,0.0287 -0.72125,-2.19375 c -0.8325,-2.5325 -1.2175,-5.16 -0.75125,-7.64125 0.445,-2.4825 1.74875,-4.75 3.56,-6.64125 1.79875,-1.90875 4.0725,-3.45 6.51,-4.7075 2.4325,-1.26875 5.01,-2.33625 7.68125,-3.17 l -0.0775,0.17875"
         style="fill:#ffffff;fill-opacity:1;fill-rule:evenodd;stroke:none"
         id="path3240" />
      <path
         inkscape:connector-curvature="0"
         d="m 730.40785,296.48 c -1.145,0.9575 -3.085,1.915 -5.0075,2.7 -1.955,0.8025 -4.03125,1.505 -6.14625,2.14625 -4.2325,1.28125 -8.61,2.34625 -13.02,3.3125 l -0.4725,-0.22375 c 4.34125,-0.9775 8.65125,-2.04625 12.82125,-3.31625 2.08,-0.63625 4.12625,-1.325 6.065,-2.09875 1.90125,-0.77375 3.79875,-1.67125 5.0625,-2.6025 l 0.6975,0.0825"
         style="fill:#ffffff;fill-opacity:1;fill-rule:evenodd;stroke:none"
         id="path3242" />
      <path
         inkscape:connector-curvature="0"
         d="m 630.7516,288.9 c -0.6575,-2.435 -1.9725,-4.6375 -3.88375,-6.24125 -0.91875,-0.84125 -2.0325,-1.48125 -3.10125,-2.04 -0.5525,-0.2875 -1.23375,-0.5225 -1.84625,-0.7875 -0.52,-0.18625 -1.1775,-0.38625 -1.785,-0.5425 -5.08625,-1.1925 -10.53875,-1.40125 -15.88875,-1.42875 l -0.21625,-0.2725 c 5.43625,0.0238 10.96875,0.22125 16.17375,1.44125 0.6275,0.16375 1.29125,0.36 1.84875,0.56625 0.61875,0.27125 1.31125,0.50125 1.87,0.805 1.1125,0.5825 2.26,1.24625 3.2025,2.12625 0.515,0.39375 0.90875,0.90625 1.36,1.36375 0.37375,0.52 0.8,1.005 1.1,1.57625 0.67375,1.09375 1.16125,2.305 1.48,3.57 L 630.7516,288.9"
         style="fill:#ffffff;fill-opacity:1;fill-rule:evenodd;stroke:none"
         id="path3244" />
    </g>
  </g>
</svg>
