<?xml version="1.0" encoding="UTF-8" standalone="no"?>
<!-- Created with Inkscape (http://www.inkscape.org/) -->

<svg
   xmlns:dc="http://purl.org/dc/elements/1.1/"
   xmlns:cc="http://creativecommons.org/ns#"
   xmlns:rdf="http://www.w3.org/1999/02/22-rdf-syntax-ns#"
   xmlns:svg="http://www.w3.org/2000/svg"
   xmlns="http://www.w3.org/2000/svg"
   xmlns:sodipodi="http://sodipodi.sourceforge.net/DTD/sodipodi-0.dtd"
   xmlns:inkscape="http://www.inkscape.org/namespaces/inkscape"
   width="135.55147"
   height="329.91858"
   id="svg9629"
   version="1.1"
   inkscape:version="0.48.3.1 r9886"
   sodipodi:docname="New document 19">
  <defs
     id="defs9631" />
  <sodipodi:namedview
     id="base"
     pagecolor="#ffffff"
     bordercolor="#666666"
     borderopacity="1.0"
     inkscape:pageopacity="0.0"
     inkscape:pageshadow="2"
     inkscape:zoom="0.35"
     inkscape:cx="177.06145"
     inkscape:cy="224.95929"
     inkscape:document-units="px"
     inkscape:current-layer="layer1"
     showgrid="false"
     fit-margin-top="0"
     fit-margin-left="0"
     fit-margin-right="0"
     fit-margin-bottom="0"
     inkscape:window-width="472"
     inkscape:window-height="415"
     inkscape:window-x="1294"
     inkscape:window-y="24"
     inkscape:window-maximized="0" />
  <metadata
     id="metadata9634">
    <rdf:RDF>
      <cc:Work
         rdf:about="">
        <dc:format>image/svg+xml</dc:format>
        <dc:type
           rdf:resource="http://purl.org/dc/dcmitype/StillImage" />
        <dc:title></dc:title>
      </cc:Work>
    </rdf:RDF>
  </metadata>
  <g
     inkscape:label="Layer 1"
     inkscape:groupmode="layer"
     id="layer1"
     transform="translate(-197.93855,-427.40289)">
    <g
       id="g8480"
       transform="translate(114.957,69.334643)">
      <path
         inkscape:connector-curvature="0"
         d="m 122.74785,521.39375 c 0.26,0.13125 0.5325,0.23125 0.8125,0.39625 0.2975,0.0675 0.58125,0.135 0.85625,0.1975 0.57875,0.13125 1.1725,0.2525 1.74375,0.345 0.575,0.0888 1.15,0.17625 1.72875,0.265 0.57625,0.0975 1.15,0.15625 1.72375,0.15 1.15,0.02 2.28375,0.0625 3.45,0.03 2.3625,-0.0288 4.64375,-0.0562 6.995,-0.085 0.29,0.003 0.5875,-0.0912 0.87875,-0.0912 1.18625,0.002 2.39125,0.007 3.57125,0.0112 2.055,0.003 4.09375,-0.17625 6.13875,-0.29125 1.3275,-0.0637 2.64,-0.3725 3.95625,-0.46125 2.01625,-0.17 4.02125,-0.18 6.045,-0.36125 0.355,-0.0375 0.77375,-0.1475 1.05625,-0.1125 0.68,0.0725 1.35375,0.1175 2.0075,0.0362 0.6525,-0.0875 1.2925,-0.23 1.91875,-0.4075 0.62625,-0.18 1.2375,-0.395 1.83625,-0.63125 0.59,-0.29375 1.16,-0.645 1.71875,-0.9675 0.24875,-0.1475 0.47375,-0.2975 0.68875,-0.4525 0.21875,-0.135 0.39,-0.505 0.5875,-0.735 0.385,-0.50875 0.775,-1.06625 1.315,-1.4275 -0.62125,0.2325 -1.16875,0.65 -1.67875,0.89625 -0.24625,0.17125 -0.5025,0.1775 -0.7325,0.22125 -0.23125,0.0375 -0.44125,0.0737 -0.63,0.10375 -0.52875,-0.26 -0.90375,-0.4675 -1.36,-0.7375 0.47,-0.1075 1.045,-0.21 1.56625,-0.365 0.24375,-0.0712 0.4725,-0.1575 0.6975,-0.24375 0.22,-0.115 0.4375,-0.2275 0.6625,-0.325 -0.46,0.0637 -0.91125,0.025 -1.40875,0.0362 -1.0775,0.0475 -2.075,0.0912 -3.365,0.14875 1.52875,-0.76125 2.65875,-1.1925 3.6825,-1.60125 0.35375,-0.12875 0.4225,-0.15625 0.29375,-0.27125 -0.12875,-0.12625 -0.4325,-0.19125 -0.79875,-0.25 -1.1275,-0.19 -2.2025,-0.5225 -3.465,-0.75375 0.78875,-0.255 1.3275,-0.45 2.13875,-0.565 -0.605,-0.1775 -0.92375,-0.37 -1.26,-0.3625 -1.55625,-0.0213 -3.115,-0.15375 -4.6275,0.015 -0.7575,0.0775 -1.51125,0.18375 -2.25875,0.32875 -0.75625,0.12 -1.5175,0.255 -2.26625,0.45875 -1.40875,0.38 -3.76625,0.53 -6.07375,0.5175 -2.30375,0.0438 -4.5575,-0.0788 -5.785,-0.44625 -0.195,-0.0613 -0.565,-0.07 -0.78875,-0.0163 -1.37125,0.3375 -2.81375,0.69125 -4.17875,1.02625 -0.46375,0.1075 -1.005,0.18625 -1.4825,0.17875 -2.62875,-0.10875 -5.1975,0.17 -7.845,0.23875 -0.5875,0.0225 -1.225,0.1975 -1.84,0.29875 l -0.015,0.2625 c 1.28375,-0.0275 2.58875,0.005 3.8575,-0.0425 l 0.001,0.23375 c -0.7875,0.13625 -1.60625,0.28875 -2.38875,0.315 -0.64625,0.0313 -1.29,0.0237 -1.93375,0.08 l -1.92625,0.2275 -1.9275,0.24625 -0.96375,0.13375 c -0.32125,0.0512 -0.64125,0.1975 -0.96125,0.295 -0.85625,0.29625 -1.73125,0.6475 -2.79125,1.04125 0.84625,-0.15 1.88625,-0.25 1.92125,-0.055 0.0775,0.40625 -0.1725,0.9125 -0.64375,1.26125 -0.5525,0.385 -0.445,0.41625 1.80875,0.64875 -0.1425,0.14375 -0.95,0.15875 -1.42,0.1775 -0.47,0.0287 -0.6,0.055 0.6175,0.48875 0.2125,0.30375 0.15875,0.5725 0.54,0.7475 z m 1.23,0.04 c 0.60875,-0.12 1.6725,-0.12375 2.81375,-10e-4 1.14125,0.13125 2.36125,0.39625 3.2825,0.7125 -1,-0.0175 -2.0025,-0.14875 -3.01625,-0.29625 -1.0125,-0.1375 -2.03625,-0.275 -3.08,-0.415 z m 13.46375,0.245 -0.0275,0.1625 c -2.1025,-0.01 -4.21875,-0.0112 -6.305,-0.0837 l 0.0475,-0.3625 c 2.08125,0.12625 4.18625,0.19875 6.285,0.28375 z m 17.1,-6.0125 c -2.685,0.7025 -5.05125,0.65875 -7.6575,0.4025 2.65,-0.17 4.9825,-0.31375 7.6575,-0.4025 z m 14.33625,3.1975 0.15125,0.23 c -0.61,0.22875 -1.21375,0.5225 -1.8325,0.715 l -1.865,0.55375 -0.0925,-0.315 c 1.2125,-0.38875 2.19375,-1.14875 3.63875,-1.18375 z m -40.9475,1.8625 0.025,-0.25 c 2.1825,0.1425 4.35875,0.195 6.55625,0.21 l -0.015,0.1425 c -2.20125,0.0287 -4.38,0.0237 -6.56625,-0.1025 z m 35.06375,-0.85125 0.0888,0.25125 c -1.215,0.2875 -2.4375,0.62625 -3.655,0.88 l -0.1475,-0.405 c 1.23625,-0.1925 2.47875,-0.49 3.71375,-0.72625 z m -23.97875,0.0612 -0.04,-0.27125 4.46125,-0.285 -0.0162,0.26875 -4.405,0.2875"
         style="fill:#231f20;fill-opacity:1;fill-rule:evenodd;stroke:none"
         id="path3596" />
      <path
         inkscape:connector-curvature="0"
         d="m 130.0741,522.145 c -1,-0.0175 -2.0025,-0.14875 -3.01625,-0.29625 -1.0125,-0.1375 -2.03625,-0.275 -3.08,-0.415 0.60875,-0.12 1.6725,-0.12375 2.81375,-10e-4 1.14125,0.13125 2.36125,0.39625 3.2825,0.7125"
         style="fill:#ffffff;fill-opacity:1;fill-rule:evenodd;stroke:none"
         id="path3598" />
      <path
         inkscape:connector-curvature="0"
         d="m 131.1566,521.395 c 2.08125,0.12625 4.18625,0.19875 6.285,0.28375 l -0.0275,0.1625 c -2.1025,-0.01 -4.21875,-0.0112 -6.305,-0.0837 l 0.0475,-0.3625"
         style="fill:#ffffff;fill-opacity:1;fill-rule:evenodd;stroke:none"
         id="path3600" />
      <path
         inkscape:connector-curvature="0"
         d="m 146.8841,516.06875 c 2.65,-0.17 4.9825,-0.31375 7.6575,-0.4025 -2.685,0.7025 -5.05125,0.65875 -7.6575,0.4025"
         style="fill:#ffffff;fill-opacity:1;fill-rule:evenodd;stroke:none"
         id="path3602" />
      <path
         inkscape:connector-curvature="0"
         d="m 165.2391,520.0475 c 1.2125,-0.38875 2.19375,-1.14875 3.63875,-1.18375 l 0.15125,0.23 c -0.61,0.22875 -1.21375,0.5225 -1.8325,0.715 l -1.865,0.55375 -0.0925,-0.315"
         style="fill:#ffffff;fill-opacity:1;fill-rule:evenodd;stroke:none"
         id="path3604" />
      <path
         inkscape:connector-curvature="0"
         d="m 134.4966,520.82875 c -2.20125,0.0287 -4.38,0.0237 -6.56625,-0.1025 l 0.025,-0.25 c 2.1825,0.1425 4.35875,0.195 6.55625,0.21 l -0.015,0.1425"
         style="fill:#ffffff;fill-opacity:1;fill-rule:evenodd;stroke:none"
         id="path3606" />
      <path
         inkscape:connector-curvature="0"
         d="m 159.28035,520.60125 c 1.23625,-0.1925 2.47875,-0.49 3.71375,-0.72625 l 0.0888,0.25125 c -1.215,0.2875 -2.4375,0.62625 -3.655,0.88 l -0.1475,-0.405"
         style="fill:#ffffff;fill-opacity:1;fill-rule:evenodd;stroke:none"
         id="path3608" />
      <path
         inkscape:connector-curvature="0"
         d="m 143.42035,519.64875 -4.405,0.2875 -0.04,-0.27125 4.46125,-0.285 -0.0162,0.26875"
         style="fill:#ffffff;fill-opacity:1;fill-rule:evenodd;stroke:none"
         id="path3610" />
      <path
         inkscape:connector-curvature="0"
         d="m 128.2141,377.7525 c -0.6225,0.41125 -1.17,0.92375 -1.7875,1.42625 -0.505,0.57625 -1.05625,1.1625 -1.5125,1.8025 -0.95875,1.26375 -1.7725,2.64375 -2.40625,4.02 -2.595,5.56625 -3.41125,11.555 -2.91,17.595 0.1475,1.51 0.3625,3.0325 0.61125,4.6 0.28,1.5575 0.89625,3.07375 1.58625,4.60125 0.71375,1.5175 1.60125,3.035 2.815,4.445 l 0.2175,0.2675 0.26875,0.29 0.3425,0.37 0.685,0.74375 c 0.60375,0.57625 1.21125,1.215 1.83125,1.73625 0.60125,0.5325 1.32125,0.9825 2.01375,1.46625 1.40125,0.98625 2.95125,1.91625 4.785,2.555 1.81875,0.64 3.9025,0.98375 6,0.80875 3.65,-0.2825 6.91,-2.06125 9.195,-4.13875 2.345,-2.09375 4.02125,-4.4825 5.37,-6.92125 1.7275,-3.18125 2.7675,-6.53625 3.61,-9.86875 1.225,-5.12375 1.88625,-10.41 0.845,-16.1625 -0.18375,-1.00375 -0.595,-2.20125 -0.77,-3.02375 -0.44375,-1.98 -1.30375,-4.02125 -2.7075,-5.8975 -1.38875,-1.8725 -3.39375,-3.53 -5.65125,-4.51375 -2.25625,-1.0025 -4.63875,-1.31875 -6.71875,-1.205 -2.09625,0.11375 -3.95,0.59375 -5.59625,1.20875 -0.715,0.2875 -1.34875,0.59625 -1.935,0.9225 -0.56625,0.345 -1.0675,0.79125 -1.55,1.24625 -0.86375,1.12125 -1.63625,2.42 -2.16125,4.48625 0.195,-0.46875 0.39875,-0.92875 0.61,-1.3775 0.24125,-0.38875 0.5225,-0.67875 0.8025,-0.98375 0.28,-0.30125 0.60375,-0.49125 0.90375,-0.7175 0.29125,-0.2425 0.6275,-0.37625 0.955,-0.49875 0.6425,-0.2775 1.27625,-0.4475 1.8825,-0.57875 0.595,-0.1475 1.14375,-0.26625 1.655,-0.33625 0.6875,0.14875 1.26625,0.31 1.8175,0.49875 0.54,0.16375 1.05125,0.3625 1.5925,0.6075 -1.2375,0.0487 -2.6875,0.3125 -3.95875,0.73 -1.17375,0.4075 -2.165,0.94375 -3.12625,1.59125 1.04875,-0.37 2.12,-0.5 3.26875,-0.7275 1.19125,-0.2225 2.4125,-0.39125 3.72125,-0.37 1.29875,0.007 2.7,0.16875 4.11,0.72375 -1.92375,-0.20375 -3.50625,0.14875 -4.85125,0.575 -1.3475,0.425 -2.47125,1.05125 -3.49375,1.65875 -1.4125,0.8775 -0.3475,0.79125 1.11,0.6175 1.12625,-0.13625 2.1925,-0.10875 3.18625,0.05 0.99625,0.14625 1.9075,0.47125 2.6475,0.9525 -1.17875,-0.009 -2.035,0.155 -3.35625,0.6075 0.9825,0.1 1.375,0.3475 1.82,0.4025 1.0375,0.14125 1.67125,0.5275 2.23625,0.97125 0.53625,0.49875 1.0825,1.1625 1.55125,2.18125 0.9825,1.98375 1.65125,4.89125 1.99625,7.93625 0.395,2.84375 -0.30875,7.9275 -2.39625,12.07125 -1.0025,2.0725 -2.335,3.8325 -3.59875,4.935 -0.63625,0.54125 -1.245,0.90625 -1.765,1.14375 -0.52625,0.195 -0.95875,0.31 -1.28875,0.2725 -0.105,0.006 -0.24125,0.03 -0.37125,0.0437 -0.13,0.04 -0.25625,0.0788 -0.35,0.11125 -0.5725,0.28125 -1.25875,0.4525 -2.19625,0.3175 -0.925,-0.12 -2.03,-0.52625 -3.15375,-1.17 -0.355,-0.235 -0.78875,-0.4875 -1.12625,-0.7725 -0.36375,-0.31375 -0.64125,-0.49375 -1.06125,-0.97125 l -0.78125,-0.85 -0.0488,-0.055 -0.006,-0.005 -0.004,-0.005 c 0.04,0.0438 -0.095,-0.1 0.0913,0.0975 l -0.008,-0.01 -0.0125,-0.0187 -0.055,-0.0738 -0.10875,-0.14625 -0.2225,-0.2875 c -0.2825,-0.41625 -0.55375,-0.8625 -0.7975,-1.355 -0.49875,-0.9825 -0.8475,-2.12125 -1.1875,-3.3025 -0.22125,-0.575 -0.4175,-1.18375 -0.5825,-1.80125 -0.10625,-0.63625 -0.2175,-1.2725 -0.28375,-1.92625 -0.14,-1.30375 -0.2175,-2.63625 -0.185,-3.97875 0.0337,-1.185 -0.065,-2.505 0.0425,-3.765 l -0.2825,-0.0888 c -0.4125,2.62375 -0.515,5.32625 -0.25625,7.935 l -0.26625,0.02 c -0.28,-1.62375 -0.4775,-3.345 -0.39375,-4.99375 0.0587,-1.35875 0.22375,-2.71125 0.4625,-4.03875 0.225,-1.33125 0.52875,-2.6475 0.94375,-3.90875 0.41125,-1.26 0.9,-2.48625 1.5025,-3.61625 0.62,-1.12 1.3175,-2.1475 2.0425,-3.125 0.24375,-0.335 0.51625,-0.62375 0.79875,-0.92625 0.26625,-0.33125 0.53875,-0.67 0.82,-1.0175 0.62875,-0.78375 1.22125,-0.98 2.215,-2.66625 -0.185,0.26625 -0.37875,0.52875 -0.5775,0.78125 -0.0925,0.15 -0.2125,0.1975 -0.285,0.425 -0.11875,0.02 -0.185,0.10625 -0.2775,0.1525 -0.3425,0.2125 -0.67125,0.40375 -0.98375,0.63125 -0.60125,0.415 -1.05875,0.69375 -1.15875,0.60875 -0.4275,-0.3425 -0.44875,-1.2825 0.35125,-2.19375 0.465,-0.53625 0.705,-0.7375 0.11625,-0.6 -0.54625,0.16 -2.07875,0.58375 -4.08125,2.575 0.12625,-0.3475 1.46,-1.9675 2.60125,-2.49125 0.50875,-0.33 0.8825,-0.47 0.6925,-0.49125 -0.17375,0.002 -0.9425,0.0775 -2.39,0.875 -0.665,0.0725 -0.8275,-0.33875 -1.6875,0.28125 z m -2.11,2.6225 c -0.83,1.43125 -2.165,3.85625 -3.1825,6.57125 -1.08,2.69875 -1.86625,5.66625 -2.50875,7.95875 0.7,-5.0475 2.31,-10.05625 5.69125,-14.53 z m -1.9625,33.145 -0.20875,0.0238 c -0.775,-1.28 -1.42125,-2.59875 -1.8925,-3.9325 -0.2475,-0.66625 -0.4475,-1.3375 -0.64,-2.0075 -0.13,-0.68125 -0.26625,-1.3625 -0.34125,-2.03875 -0.42125,-2.6975 -0.5725,-5.3575 -0.405,-7.995 l 0.40375,0.145 c -0.1925,2.6 -0.0575,5.2275 0.3225,7.895 0.0687,0.67 0.1975,1.345 0.32625,2.0175 0.1925,0.66125 0.3625,1.32875 0.61,1.9875 0.44,1.32375 1.07375,2.63125 1.825,3.905 z m 27.53125,-12.68 c -0.2325,3.0025 -1.06125,5.74625 -2.29625,8.1675 -1.23125,2.41125 -2.96,4.5375 -5.0325,5.9175 1.9575,-1.61875 3.47625,-3.835 4.66,-6.2175 1.1725,-2.4025 2.08125,-5.0075 2.66875,-7.8675 z m -12.5,-26.04125 -0.4075,-0.34375 c 1.73,-0.50625 3.6625,-0.81125 5.7325,-0.78125 2.065,0.0325 4.3225,0.48125 6.4,1.5025 l -0.06,0.4825 c -1.97375,-0.97125 -4.01625,-1.21 -5.91125,-1.20875 -1.9175,0.002 -3.715,0.24125 -5.75375,0.34875 z m -16.26625,15.1375 0.2575,0.135 c -1.425,5.1325 -1.665,10.535 -0.715,15.92 l -0.17,-0.008 c -0.995,-5.41375 -0.7975,-10.85875 0.6275,-16.0475 z m 32.59875,-8.78125 0.19125,-0.34 c 2.2725,3.1575 3.2275,6.61375 3.735,9.90875 l -0.51375,0.3425 c -0.41125,-3.28375 -1.255,-6.73 -3.4125,-9.91125 z m -27.13625,34.4125 0.1825,-0.27 c 1.3075,1.26625 2.70875,2.4275 4.28875,3.37125 1.575,0.94 3.35625,1.65 5.25625,1.8775 l -0.1175,0.30375 c -1.9275,-0.2425 -3.7225,-0.965 -5.305,-1.91 -1.5875,-0.9475 -2.98375,-2.1 -4.305,-3.3725"
         style="fill:#231f20;fill-opacity:1;fill-rule:evenodd;stroke:none"
         id="path3612" />
      <path
         inkscape:connector-curvature="0"
         d="m 120.41285,394.905 c 0.7,-5.0475 2.31,-10.05625 5.69125,-14.53 -0.83,1.43125 -2.165,3.85625 -3.1825,6.57125 -1.08,2.69875 -1.86625,5.66625 -2.50875,7.95875"
         style="fill:#ffffff;fill-opacity:1;fill-rule:evenodd;stroke:none"
         id="path3614" />
      <path
         inkscape:connector-curvature="0"
         d="m 121.05785,397.715 c -0.1925,2.6 -0.0575,5.2275 0.3225,7.895 0.0687,0.67 0.1975,1.345 0.32625,2.0175 0.1925,0.66125 0.3625,1.32875 0.61,1.9875 0.44,1.32375 1.07375,2.63125 1.825,3.905 l -0.20875,0.0238 c -0.775,-1.28 -1.42125,-2.59875 -1.8925,-3.9325 -0.2475,-0.66625 -0.4475,-1.3375 -0.64,-2.0075 -0.13,-0.68125 -0.26625,-1.3625 -0.34125,-2.03875 -0.42125,-2.6975 -0.5725,-5.3575 -0.405,-7.995 l 0.40375,0.145"
         style="fill:#ffffff;fill-opacity:1;fill-rule:evenodd;stroke:none"
         id="path3616" />
      <path
         inkscape:connector-curvature="0"
         d="m 144.3441,414.925 c 1.9575,-1.61875 3.47625,-3.835 4.66,-6.2175 1.1725,-2.4025 2.08125,-5.0075 2.66875,-7.8675 -0.2325,3.0025 -1.06125,5.74625 -2.29625,8.1675 -1.23125,2.41125 -2.96,4.5375 -5.0325,5.9175"
         style="fill:#ffffff;fill-opacity:1;fill-rule:evenodd;stroke:none"
         id="path3618" />
      <path
         inkscape:connector-curvature="0"
         d="m 150.83785,375.65875 c -1.97375,-0.97125 -4.01625,-1.21 -5.91125,-1.20875 -1.9175,0.002 -3.715,0.24125 -5.75375,0.34875 l -0.4075,-0.34375 c 1.73,-0.50625 3.6625,-0.81125 5.7325,-0.78125 2.065,0.0325 4.3225,0.48125 6.4,1.5025 l -0.06,0.4825"
         style="fill:#ffffff;fill-opacity:1;fill-rule:evenodd;stroke:none"
         id="path3620" />
      <path
         inkscape:connector-curvature="0"
         d="m 122.2791,405.98375 c -0.995,-5.41375 -0.7975,-10.85875 0.6275,-16.0475 l 0.2575,0.135 c -1.425,5.1325 -1.665,10.535 -0.715,15.92 l -0.17,-0.008"
         style="fill:#ffffff;fill-opacity:1;fill-rule:evenodd;stroke:none"
         id="path3622" />
      <path
         inkscape:connector-curvature="0"
         d="m 158.91785,391.06625 c -0.41125,-3.28375 -1.255,-6.73 -3.4125,-9.91125 l 0.19125,-0.34 c 2.2725,3.1575 3.2275,6.61375 3.735,9.90875 l -0.51375,0.3425"
         style="fill:#ffffff;fill-opacity:1;fill-rule:evenodd;stroke:none"
         id="path3624" />
      <path
         inkscape:connector-curvature="0"
         d="m 137.9791,420.85 c -1.9275,-0.2425 -3.7225,-0.965 -5.305,-1.91 -1.5875,-0.9475 -2.98375,-2.1 -4.305,-3.3725 l 0.1825,-0.27 c 1.3075,1.26625 2.70875,2.4275 4.28875,3.37125 1.575,0.94 3.35625,1.65 5.25625,1.8775 l -0.1175,0.30375"
         style="fill:#ffffff;fill-opacity:1;fill-rule:evenodd;stroke:none"
         id="path3626" />
      <path
         inkscape:connector-curvature="0"
         d="m 141.33785,544.8375 c -0.1925,0.57375 -0.36125,1.1725 -0.58,1.77875 -0.16125,0.6175 -0.325,1.24125 -0.4875,1.86625 -0.145,0.62375 -0.34125,1.27 -0.52125,1.93125 -0.16,0.6575 -0.31875,1.30875 -0.47375,1.9525 -0.3075,1.2975 -0.56375,2.5875 -0.9225,3.88625 l -0.49625,1.945 -0.385,1.9625 c -0.54875,2.63 -1.09375,5.25125 -1.695,7.9 -0.6025,2.6425 -1.2125,5.29375 -1.86875,7.97125 -0.68125,2.7275 -1.36125,5.455 -2.04875,8.205 -0.15125,0.665 -0.20625,1.37875 -0.34875,2.0475 -0.6025,2.71 -1.205,5.42 -1.8075,8.1275 -1.015,4.7175 -2.025,9.4525 -2.95375,14.2125 -0.55625,3.09375 -1.11625,6.21125 -1.66875,9.29 -0.93125,4.7025 -1.9675,9.3825 -2.66,14.15375 -0.13875,0.8275 -0.2075,1.84375 -0.3675,2.485 -0.39125,1.54125 -0.71625,3.08125 -0.94375,4.63125 -0.21125,1.55875 -0.35625,3.1125 -0.4525,4.65125 -0.0838,1.555 0.0725,3.1225 0.14875,4.64375 0.11625,1.535 0.34875,3.08875 0.54,4.57125 0.0438,0.3275 0.0863,0.6475 0.185,0.97125 0.11875,0.30375 0.24,0.61125 0.3625,0.92375 0.2475,0.5975 0.46875,1.16625 0.7325,1.73375 0.315,0.5475 0.6675,1.14875 1.135,1.74875 0.43375,0.60125 0.86,1.215 1.275,1.87 -0.7525,-1.4625 -1.605,-3.025 -1.7,-4.3425 -0.09,-0.6725 -0.17625,-1.3025 -0.25375,-1.8825 -0.06,-0.58875 0.005,-1.0975 0.01,-1.56375 0.44875,-1.165 0.78375,-1.975 1.20375,-2.94625 0.005,1.16 -0.025,2.565 0.0237,3.86625 0.13,1.21875 0.38875,2.32 0.58875,3.45125 -0.0313,-1.11875 0.0412,-2.185 0.0488,-3.365 0.0925,-1.225 0.18625,-2.45 0.285,-3.755 0.1175,-1.30625 0.31625,-2.6875 0.50375,-4.215 0.28,3.89625 0.55,6.735 0.89875,9.23 0.1875,1.71875 0.3975,0.64375 0.6925,-0.9725 0.195,-1.25875 0.4575,-2.48625 0.71625,-3.73375 0.27125,-1.25 0.66875,-2.5575 1.0475,-3.9625 -0.004,1.92875 -0.0812,3.27125 -0.004,5.1575 0.2975,-1.30625 0.5375,-1.9575 0.6975,-2.73875 0.72375,-3.555 1.1825,-7.15875 1.84,-10.76375 0.56,-3.60625 1.185,-7.2175 1.4325,-10.8875 0.22875,-3.4425 1.2375,-9.0025 2.5,-14.37625 1.2725,-5.375 2.78125,-10.5625 3.92125,-13.29875 0.18125,-0.435 0.40375,-1.30125 0.4725,-1.845 l 0.6175,-5.1075 c 0.195,-1.72625 0.42375,-3.455 0.585,-5.16125 0.03,-0.28375 0.0625,-0.5775 0.095,-0.87375 l 0.015,-0.1125 0.006,-0.0562 0.004,-0.0275 0.001,-0.015 0.001,-0.008 0,-0.002 0,-10e-4 c -0.0112,0.0538 0.0263,-0.1225 -0.025,0.12125 l 0.001,-0.001 0.0363,-0.22375 0.0775,-0.4475 c 0.10875,-0.5975 0.235,-1.195 0.3775,-1.7475 1.53125,-6.05125 3.28375,-12.10625 4.75375,-18.38125 0.33625,-1.38375 0.50875,-2.93625 0.7075,-4.4375 l -0.32625,-0.115 c -0.68125,3.07625 -1.49125,6.0825 -2.27375,9.08875 l -0.28375,-0.075 c 0.38,-1.8825 0.64375,-3.85875 1.08125,-5.69625 0.73375,-3.035 1.305,-6.115 1.6825,-9.2425 0.17875,-1.57 0.42875,-3.11625 0.535,-4.705 0.08,-1.62625 0.14375,-3.24875 0.135,-4.86625 0.001,-0.53875 0.0125,-1.08875 -0.0438,-1.605 -0.0725,-0.52875 -0.02,-1.06125 -0.2025,-1.6175 -0.51,-1.11875 -1.09125,-2.3025 -1.58875,-3.59125 0.32375,1.025 0.67375,2.16375 0.8525,3.05625 0.0575,0.2225 0.0513,0.4275 0.1325,0.61625 -0.035,0.17 -0.0687,0.32875 -0.0987,0.4825 -0.065,0.2725 -0.13625,0.44 -0.21375,0.4575 -0.66625,0.1425 -1.425,-0.5025 -1.9475,-1.65625 -0.27125,-0.67625 -0.32625,-0.94875 -0.53875,-0.38875 -0.0513,0.14 -0.11125,0.3325 -0.18,0.5825 -0.04,0.12625 -0.0625,0.26625 -0.1225,0.4225 -0.0162,0.15875 -0.035,0.33 -0.055,0.5175 -0.0662,0.7575 -0.14875,1.77875 -0.35625,3.07375 -0.0888,-0.17375 -0.11,-0.73 -0.10375,-1.37875 -0.0238,-0.66875 -0.0475,-1.3825 -0.07,-1.98625 0.006,-0.56125 0.1175,-0.915 -0.0325,-0.77875 -0.0625,0.07 -0.1925,0.26125 -0.36,0.615 -0.0913,0.355 -0.2075,0.8725 -0.35375,1.58875 -0.4525,0.48375 -0.8775,0.32875 -1.14375,1.1675 z m -0.185,2.76875 c 0.0488,1.37 -0.3375,3.83375 -0.8625,6.43875 -0.24625,1.30125 -0.65625,2.6375 -1.05875,3.89625 -0.415,1.25875 -0.7525,2.45625 -1.2025,3.4625 0.27625,-1.14375 0.46375,-2.29125 0.7575,-3.42875 0.28375,-1.13625 0.61375,-2.27875 0.8625,-3.425 0.2525,-1.1475 0.50625,-2.3025 0.76125,-3.465 0.1175,-0.5825 0.2675,-1.17125 0.4025,-1.75 0.11375,-0.57375 0.22625,-1.15 0.34,-1.72875 z m -6.53875,30.84 -0.1675,-0.11875 c 1.205,-4.83375 2.46375,-9.64 3.565,-14.42 l 0.42625,0.22375 c -1.1875,4.75375 -2.52875,9.52 -3.82375,14.315 z m -2.7175,41.88875 c 0.5875,-6.5425 1.98625,-11.9975 3.80625,-17.94625 -1.38,6.2125 -2.56,11.68 -3.80625,17.94625 z m -9.81875,32.18625 -0.31,0.27375 c -0.2075,-3.1625 -0.3575,-6.285 -0.2475,-9.3725 l 0.39375,-0.0813 c -0.1,1.49125 0.15,2.945 0.2225,4.40875 0.0588,1.46 0.16375,3.01875 -0.0587,4.77125 z m 18.7025,-95.65 0.31375,0.1275 c -1.11,5.0225 -2.32625,10.04625 -3.6375,15.06625 l -0.16,-0.0825 c 1.26125,-5.04 2.40625,-10.0825 3.48375,-15.11125 z m -17.64875,81.3175 -0.31375,0.0975 c 0.21125,-2.95125 0.4375,-5.90375 0.72375,-8.83625 l 0.52125,-0.17375 c -0.35625,2.9575 -0.65875,5.93125 -0.93125,8.9125 z m 12.53125,-55.49625 0.33375,0.003 c -0.18875,0.88125 -0.39625,1.70375 -0.57125,2.63 l -0.48875,2.61125 -1.0175,5.20125 -0.295,-0.135 0.995,-5.13 0.48,-2.575 c 0.17375,-0.9325 0.3775,-1.7325 0.56375,-2.605"
         style="fill:#231f20;fill-opacity:1;fill-rule:evenodd;stroke:none"
         id="path3628" />
      <path
         inkscape:connector-curvature="0"
         d="m 138.0291,561.40375 c 0.27625,-1.14375 0.46375,-2.29125 0.7575,-3.42875 0.28375,-1.13625 0.61375,-2.27875 0.8625,-3.425 0.2525,-1.1475 0.50625,-2.3025 0.76125,-3.465 0.1175,-0.5825 0.2675,-1.17125 0.4025,-1.75 0.11375,-0.57375 0.22625,-1.15 0.34,-1.72875 0.0488,1.37 -0.3375,3.83375 -0.8625,6.43875 -0.24625,1.30125 -0.65625,2.6375 -1.05875,3.89625 -0.415,1.25875 -0.7525,2.45625 -1.2025,3.4625"
         style="fill:#ffffff;fill-opacity:1;fill-rule:evenodd;stroke:none"
         id="path3630" />
      <path
         inkscape:connector-curvature="0"
         d="m 138.43785,564.13125 c -1.1875,4.75375 -2.52875,9.52 -3.82375,14.315 l -0.1675,-0.11875 c 1.205,-4.83375 2.46375,-9.64 3.565,-14.42 l 0.42625,0.22375"
         style="fill:#ffffff;fill-opacity:1;fill-rule:evenodd;stroke:none"
         id="path3632" />
      <path
         inkscape:connector-curvature="0"
         d="m 135.70285,602.38875 c -1.38,6.2125 -2.56,11.68 -3.80625,17.94625 0.5875,-6.5425 1.98625,-11.9975 3.80625,-17.94625"
         style="fill:#ffffff;fill-opacity:1;fill-rule:evenodd;stroke:none"
         id="path3634" />
      <path
         inkscape:connector-curvature="0"
         d="m 121.9141,643.34125 c -0.1,1.49125 0.15,2.945 0.2225,4.40875 0.0588,1.46 0.16375,3.01875 -0.0587,4.77125 l -0.31,0.27375 c -0.2075,-3.1625 -0.3575,-6.285 -0.2475,-9.3725 l 0.39375,-0.0813"
         style="fill:#ffffff;fill-opacity:1;fill-rule:evenodd;stroke:none"
         id="path3636" />
      <path
         inkscape:connector-curvature="0"
         d="m 137.2966,571.9825 c 1.26125,-5.04 2.40625,-10.0825 3.48375,-15.11125 l 0.31375,0.1275 c -1.11,5.0225 -2.32625,10.04625 -3.6375,15.06625 l -0.16,-0.0825"
         style="fill:#ffffff;fill-opacity:1;fill-rule:evenodd;stroke:none"
         id="path3638" />
      <path
         inkscape:connector-curvature="0"
         d="m 124.06285,629.27625 c -0.35625,2.9575 -0.65875,5.93125 -0.93125,8.9125 l -0.31375,0.0975 c 0.21125,-2.95125 0.4375,-5.90375 0.72375,-8.83625 l 0.52125,-0.17375"
         style="fill:#ffffff;fill-opacity:1;fill-rule:evenodd;stroke:none"
         id="path3640" />
      <path
         inkscape:connector-curvature="0"
         d="m 133.6241,593.0025 0.995,-5.13 0.48,-2.575 c 0.17375,-0.9325 0.3775,-1.7325 0.56375,-2.605 l 0.33375,0.003 c -0.18875,0.88125 -0.39625,1.70375 -0.57125,2.63 l -0.48875,2.61125 -1.0175,5.20125 -0.295,-0.135"
         style="fill:#ffffff;fill-opacity:1;fill-rule:evenodd;stroke:none"
         id="path3642" />
      <path
         inkscape:connector-curvature="0"
         d="m 169.06285,677.17 c -0.475,-1.18 -1.06125,-1.8775 -1.53875,-2.385 -0.515,-0.54625 -0.92625,-0.87125 -1.45375,-1.27125 l -0.25125,-0.1875 -0.16,-0.10375 -0.3075,-0.20125 -0.18,-0.12375 -0.09,-0.0563 -0.18375,-0.1125 -0.36625,-0.23 c -0.4775,-0.32 -0.945,-0.6325 -1.3975,-0.93375 -2.35625,-1.6425 -4.69875,-3.045 -7.10125,-4.3775 -1.19375,-0.68 -2.415,-1.2925 -3.63375,-1.92625 -1.2525,-0.55875 -2.48625,-1.15625 -3.7725,-1.66375 -1.12625,-0.475 -2.44125,-0.7725 -3.69,-1.105 l -0.1575,0.3325 c 2.52125,0.9425 4.935,2.0525 7.3325,3.18875 l -0.13125,0.28125 c -1.5425,-0.57375 -3.13875,-1.0825 -4.63875,-1.665 -2.4575,-0.9825 -4.96,-1.8775 -7.55875,-2.6275 -1.28125,-0.4275 -2.65125,-0.6 -4.0125,-0.83625 -0.66875,-0.13 -1.3875,-0.1825 -2.0875,-0.2575 -0.70125,-0.0625 -1.395,-0.18125 -2.1475,-0.0913 -0.49125,0.0362 -0.98125,0.0712 -1.48,0.1075 -0.48,0.0338 -1.14625,0.16875 -1.71875,0.27 -0.295,0.0562 -0.59375,0.115 -0.89875,0.175 l -0.225,0.0475 -0.11625,0.0113 c -0.0187,0.0987 -0.0737,0.0562 -0.0925,0.095 l -0.31875,0.245 c -0.4425,0.2575 -0.84,0.85375 -1.275,1.36375 0.17875,-0.1725 0.365,-0.3425 0.5525,-0.50625 0.0913,-0.10125 0.1975,-0.12 0.27625,-0.28375 0.11125,0.006 0.205,-0.0738 0.3075,-0.105 0.205,-0.085 0.395,-0.1675 0.59875,-0.23375 0.24625,-0.0662 0.50375,-0.009 0.73375,-0.0125 0.92875,0.0462 1.58375,0.16125 1.62125,0.35375 0.1675,0.8325 -0.45125,1.8075 -1.255,2.60625 -0.47375,0.465 -0.6025,0.7075 -0.16125,0.8475 0.45875,0.165 1.4075,0.12875 3.52,0.4025 -0.145,0.12625 -0.59125,0.2025 -1.1025,0.255 -0.26125,0.02 -0.52875,0.0425 -0.79125,0.0625 -0.2225,0.045 -0.43875,0.0888 -0.64125,0.12875 -0.7375,0.18 -0.895,0.295 0.9925,0.85125 0.3425,0.56375 0.2225,1.08875 0.82875,1.33625 0.80375,0.32625 1.78375,0.64125 2.71375,0.92875 0.97375,0.38625 1.94875,0.6425 2.9175,1.03375 3.975,1.05875 8.0225,2.4325 11.96,4.08 1.98125,0.79375 3.96375,1.6275 5.855,2.59 0.3575,0.18125 0.715,0.37 1.07375,0.5575 -0.4325,0.05 -0.86875,0.0963 -1.305,0.13875 -1.85125,0.15625 -3.75125,0.24625 -5.665,0.305 -2.48,0.075 -5,0.22125 -7.49625,0.1375 -3.82125,-0.135 -7.64125,-0.47625 -11.39125,-0.89375 -0.1775,-0.02 -0.36375,-0.035 -0.5525,-0.0512 0.13375,-1.58 0.42,-3.645 0.595,-5.70125 0.0675,-0.53625 0.04,-1.06375 -0.0362,-1.59125 -0.0838,-0.52875 -0.09,-1.03375 -0.28375,-1.5875 -1.06625,-1.22375 -1.43875,-2.375 -2.345,-3.705 0.17875,0.355 0.35,0.725 0.4875,1.08125 0.13125,0.3625 0.2,0.7025 0.2875,1.04875 0.13625,0.66875 0.67375,1.40625 0.40125,1.93 -0.115,0.54375 -0.22375,1.05375 -0.32375,1.525 -0.12375,0.455 -0.2625,0.86 -0.375,1.2175 -0.7625,0.77 -1.30125,1.315 -1.95625,1.97625 0.1975,-0.905 0.49875,-2.00375 0.675,-3.06375 0.0875,-0.48875 0.11,-0.97375 0.13625,-1.4525 -0.002,-0.48375 0.0937,-0.94375 -0.015,-1.45125 -0.14875,0.925 -0.59125,1.72 -0.87,2.64875 -0.625,1.90625 -1.32375,3.82625 -1.9225,6.28625 -0.10625,-3.25625 0.1525,-5.69 0.13875,-7.80125 0.0225,-1.43375 -0.405,-0.65625 -1.015,0.58 -0.8225,1.96625 -1.8025,3.7425 -2.75125,6.3725 0.0787,-1.875 0.21375,-3.05875 0.3725,-4.73625 -0.5,1.0625 -0.83375,1.61875 -1.03375,2.315 -0.44375,1.63375 -0.9425,3.3025 -1.00625,5.7375 -0.0112,0.6075 0.0362,1.32 0.18,2.1075 0.1725,0.8175 0.42875,1.7325 1.055,2.7425 0.5725,0.98125 1.56625,1.95375 2.6,2.53375 0.25625,0.14375 0.52,0.28 0.78625,0.4025 0.295,0.125 0.62,0.235 0.93875,0.32875 0.845,0.23375 0.795,0.185 1.02875,0.23625 l 0.48875,0.0738 0.1525,0.0175 0.30625,0.0313 0.60625,0.06 1.2025,0.0812 c 0.79875,0.045 1.59125,0.0713 2.38125,0.0788 1.57875,0.0163 3.14875,-0.0337 4.71125,-0.165 2.9375,-0.23875 7.6925,-0.16875 12.3925,-0.1125 4.6975,0.07 9.3625,0.0713 12.175,0.16 0.44125,0.0187 1.29625,-0.0925 1.82875,-0.25375 0.8275,-0.24625 1.6725,-0.52625 2.6025,-0.915 0.9475,-0.42875 1.92375,-0.815 3.3075,-1.9375 0.64625,-0.5525 1.54875,-1.40875 2.16625,-2.94375 0.29625,-0.75 0.465,-1.645 0.43625,-2.48625 -0.0225,-0.81875 -0.21375,-1.5975 -0.44375,-2.16 z m -41.43125,-1.4625 c 0.0937,-1.08875 0.34,-2.24875 0.975,-3.5475 l 0.4275,-0.1225 c -0.24125,1.24375 -0.48625,2.43875 -0.67625,3.56 -0.1175,0.695 -0.21125,1.36875 -0.26625,1.975 -0.17375,-0.025 -0.33625,-0.0525 -0.47125,-0.0925 -0.0112,-0.003 -0.0225,-0.006 -0.0325,-0.009 -0.0112,-0.55 -0.0112,-1.1425 0.0437,-1.76375 z m -1.0525,3.2 c 0.0275,-0.0238 0.0525,-0.0512 0.0812,-0.075 -0.16,-0.12875 -0.28,-0.2275 -0.59625,-0.3125 l -0.10125,-0.015 0.11125,0.0125 0.22375,0.0237 0.1125,0.0125 0.0563,0.006 0.001,0 c -0.075,-0.0112 -0.475,-0.0675 -0.26375,-0.0375 l 0.002,0 0.0125,0 0.0275,0.002 0.2125,0.006 1.15625,0.0375 c -0.007,-0.3275 -0.02,-0.69125 -0.0275,-1.075 0.16875,0.0987 0.33125,0.2225 0.4775,0.36 -0.0187,0.25875 -0.03,0.505 -0.0288,0.725 l -0.0263,0.002 0.16875,0.004 0.48125,0.009 c 0.11,0.1875 0.18625,0.34125 0.2225,0.43875 l -0.58375,-0.025 -1.72,-0.1 z m 2.35875,0.12625 c -0.004,-0.10625 -0.004,-0.255 0.002,-0.43625 l 2.73,0.0462 0.1725,0.51 -2.905,-0.12 z m 11.66625,-10.3125 c 3.95125,1.30875 7.80625,2.98875 11.56375,4.815 l -0.11,0.15 c -3.785,-1.76125 -7.65875,-3.38375 -11.6125,-4.63125 l 0.15875,-0.33375 z m -7.5925,0.0625 c 2.17,-0.18875 7.71625,1.24375 10.6175,3.32 -3.485,-1.345 -7.05875,-2.39 -10.6175,-3.32 z m 12.64375,3.48625 0.275,-0.4225 c 3.595,1.6 7.18375,3.30125 10.52125,5.27625 l -0.1475,0.14125 c -3.38875,-1.88875 -7.0275,-3.48375 -10.64875,-4.995 z m -5.74,13.38625 c 5.48,-0.55125 10.11,-0.33125 15.4225,-0.28875 -5.41,0.435 -10.07875,0.42625 -15.4225,0.28875"
         style="fill:#231f20;fill-opacity:1;fill-rule:evenodd;stroke:none"
         id="path3644" />
      <path
         inkscape:connector-curvature="0"
         d="m 126.47285,678.56 -0.005,0 c 0.0125,0.001 0.0163,0.003 0.009,0.001 l -0.004,-0.001"
         style="fill:#231f20;fill-opacity:1;fill-rule:evenodd;stroke:none"
         id="path3646" />
      <path
         inkscape:connector-curvature="0"
         d="m 128.01035,678.58125 -0.395,-0.0125 c 0,0.0125 10e-4,0.0275 10e-4,0.0412 l 0.39375,-0.0288"
         style="fill:#231f20;fill-opacity:1;fill-rule:evenodd;stroke:none"
         id="path3648" />
      <path
         inkscape:connector-curvature="0"
         d="m 143.6291,672.10375 c -3.485,-1.345 -7.05875,-2.39 -10.6175,-3.32 2.17,-0.18875 7.71625,1.24375 10.6175,3.32"
         style="fill:#ffffff;fill-opacity:1;fill-rule:evenodd;stroke:none"
         id="path3650" />
      <path
         inkscape:connector-curvature="0"
         d="m 145.93035,671.8475 c 3.595,1.6 7.18375,3.30125 10.52125,5.27625 l -0.1475,0.14125 c -3.38875,-1.88875 -7.0275,-3.48375 -10.64875,-4.995 l 0.275,-0.4225"
         style="fill:#ffffff;fill-opacity:1;fill-rule:evenodd;stroke:none"
         id="path3652" />
      <path
         inkscape:connector-curvature="0"
         d="m 155.33785,685.3675 c -5.41,0.435 -10.07875,0.42625 -15.4225,0.28875 5.48,-0.55125 10.11,-0.33125 15.4225,-0.28875"
         style="fill:#ffffff;fill-opacity:1;fill-rule:evenodd;stroke:none"
         id="path3654" />
      <path
         inkscape:connector-curvature="0"
         d="m 127.6166,678.61 c -0.015,-0.805 -0.0813,-1.81875 0.015,-2.9025 0.0937,-1.08875 0.34,-2.24875 0.975,-3.5475 l 0.4275,-0.1225 c -0.24125,1.24375 -0.48625,2.43875 -0.67625,3.56 -0.18875,1.11125 -0.3275,2.1875 -0.32125,2.98125 l -0.42,0.0313"
         style="fill:#ffffff;fill-opacity:1;fill-rule:evenodd;stroke:none"
         id="path3656" />
      <path
         inkscape:connector-curvature="0"
         d="m 152.05785,673.68625 c -3.785,-1.76125 -7.65875,-3.38375 -11.6125,-4.63125 l 0.15875,-0.33375 c 3.95125,1.30875 7.80625,2.98875 11.56375,4.815 l -0.11,0.15"
         style="fill:#ffffff;fill-opacity:1;fill-rule:evenodd;stroke:none"
         id="path3658" />
      <path
         inkscape:connector-curvature="0"
         d="m 131.84285,679.15375 -3.54375,-0.14625 -1.74875,-0.10125 -0.21625,-0.0125 -0.1075,-0.007 -0.0537,-0.004 -0.008,0 c 0.4975,0.0687 0.1375,0.0175 0.2475,0.0337 l -0.005,0 -0.0137,-0.002 -0.0288,-0.004 -0.45125,-0.0612 c 0.0713,-10e-4 0.2225,0.035 0.3125,0.0913 0.08,0.0325 0.1375,0.0625 0.19,0.11875 0.0763,-0.0788 0.15875,-0.155 0.24375,-0.22625 -0.16,-0.12875 -0.28,-0.2275 -0.59625,-0.3125 l -0.10125,-0.015 0.11125,0.0125 0.22375,0.0237 0.1125,0.0125 0.0563,0.006 0.006,0 0.004,10e-4 c 0.06,0.009 -0.51625,-0.0738 -0.2725,-0.0387 l 0.002,0 0.0125,0 0.0275,0.002 0.2125,0.006 1.72,0.0538 3.49125,0.0587 0.1725,0.51"
         style="fill:#ffffff;fill-opacity:1;fill-rule:evenodd;stroke:none"
         id="path3660" />
      <path
         inkscape:connector-curvature="0"
         d="m 161.6916,680.26125 c 0.56875,-0.225 1.13625,-0.535 1.34375,-0.7825 0.11125,-0.12375 0.0863,-0.1475 0.0775,-0.11375 -0.008,0.03 -0.005,-0.0425 -0.10875,-0.20125 -0.4475,-0.70625 -1.74375,-1.50125 -2.885,-2.2325 l 0.12625,-0.30375 c 1.165,0.755 2.49125,1.53875 3.03125,2.3725 0.125,0.19625 0.15,0.3325 0.15,0.3925 0.002,0.0575 -0.0263,0.1575 -0.1775,0.31625 -0.29625,0.31375 -0.8925,0.6275 -1.5,0.86125 l -0.0575,-0.30875"
         style="fill:#ffffff;fill-opacity:1;fill-rule:evenodd;stroke:none"
         id="path3662" />
      <path
         inkscape:connector-curvature="0"
         d="m 171.53285,363.51 c -0.23,-0.1675 -0.4675,-0.3075 -0.7,-0.46375 -0.0625,-0.025 -0.12,-0.05 -0.1825,-0.075 0.29875,0.17 0.59125,0.35375 0.8825,0.53875"
         style="fill:#231f20;fill-opacity:1;fill-rule:evenodd;stroke:none"
         id="path3664" />
      <path
         inkscape:connector-curvature="0"
         d="m 217.76035,396.74625 c -0.835,-2.34 -2.00375,-4.34125 -3.29,-6.0925 -1.80125,-2.4675 -4.2975,-4.80625 -5.86375,-6.31375 -5.705,-5.37625 -11.9875,-9.4175 -18.3125,-12.9975 -6.2775,-3.48875 -12.52625,-6.4575 -19.055,-8.95625 -2.20375,-1.415 -4.51875,-2.37 -6.7825,-3.00625 -2.535,-0.70625 -5.02375,-1.06 -7.44375,-1.22375 -2.535,-0.18375 -4.79375,-0.0562 -6.94625,0.16625 -2.15375,0.22625 -4.205,0.55625 -6.31625,1.03125 l -2.58,0.5825 -0.24,2.00375 c -0.06,0.495 -0.12,0.9975 -0.1825,1.5125 -0.01,0.2675 -0.045,0.54625 -0.13375,0.83125 -0.0625,0.28125 -0.14375,0.58625 -0.29,0.9175 -0.47875,1.25 -1.61125,3.17625 -1.79125,5.3575 l 0.11,-0.3325 0.0288,-0.0825 c -0.0963,-0.0612 -0.0163,-0.0662 -0.0338,-0.1025 l 0.0363,-0.17375 0.155,-0.7 c 0.15125,-0.44125 0.3225,-0.89 0.50125,-1.3275 l 0.59875,-1.185 c 0.0913,-0.18 0.19375,-0.35375 0.32125,-0.50875 0.0488,-0.21875 0.18125,-0.36 0.24375,-0.52125 0.70375,-1.2825 0.91,-2.33 1.225,-3.5275 l 0.46125,-1.765 1.6575,-0.19375 c 4.8325,-0.56625 9.77375,-0.705 14.7275,0.0962 1.825,0.5275 3.3575,1.05125 4.775,1.71 1.41875,0.6275 2.7325,1.35625 4.06,2.295 -3.345,-1.7775 -7.78,-2.7975 -11.85375,-3.02125 -3.7925,-0.21375 -7.21875,0.0775 -10.7375,0.55625 3.45875,-0.255 6.755,-0.215 10.41875,0.105 2.25125,0.21875 4.5175,0.57375 6.8675,1.25625 2.33375,0.68625 4.78,1.695 7.115,3.42875 2.3825,1.04875 5.6075,2.5425 9.04625,4.28 -3.485,-1.47125 -6.7225,-2.72875 -9.33375,-3.65 l -0.0313,-0.0113 -0.0775,-0.05 c -3.04125,-1.99 -6.25,-2.8275 -9.20875,-3.2625 -2.9775,-0.42375 -5.7675,-0.4425 -8.45,-0.3125 -2.695,0.15375 -3.21375,0.34875 -2.42375,0.4175 0.78875,0.0962 2.89375,0.1325 5.41,0.405 4.9125,0.49625 9.70125,1.73375 13.25625,4.64125 l 0.16375,0.13375 0.4675,0.225 c 2.4575,1.17875 5.185,2.6075 8.03625,4.1175 -2.76625,-1.175 -5.585,-2.3775 -8.325,-3.41125 l -0.1125,-0.0437 -0.665,-0.44125 c -1.60375,-1.06875 -3.51875,-1.83375 -5.5825,-2.34375 2.74125,0.99375 4.06625,1.9725 5.18,2.88 l 0.27625,0.22625 0.66375,0.3075 c 0.47,0.21875 0.92875,0.43125 1.39875,0.64875 10.29625,4.77625 20.5575,10.09625 29.41875,16.5875 2.1925,1.63125 4.285,3.34 6.135,5.15 1.835,1.7975 3.4475,3.7475 4.34875,5.60125 0.4025,0.9125 0.77,1.80125 0.79,2.55125 0.1,0.39625 0.0137,0.74375 0.004,1.1025 0.02,0.22 -0.0537,0.27375 -0.0688,0.38125 -0.0262,0.1075 -0.004,0.195 -0.0125,0.3475 -0.94875,2.14 -2.625,4.11 -4.2925,6.02875 -1.7925,1.8975 -4.18,3.9625 -7.075,6.035 -2.93,2.0425 -6.34625,4.09375 -10.075,6.12 -7.45125,4.1125 -16.17875,7.8825 -24.4575,13.00875 l -1.9625,1.215 0.15625,2.4275 c 1.00875,15.78875 1.66,30.75875 1.76125,39.1225 0.0163,1.43875 0.17375,4.215 0.3075,5.91 0.44625,5.3 0.88875,10.555 1.33125,15.8125 0.405,5.25125 0.80875,10.50375 1.21625,15.805 0.19625,3.42625 0.3825,7.42625 0.46875,10.9325 0.0537,1.19 0.0288,2.41625 -0.009,3.6475 l -0.085,3.6825 -0.0425,1.83875 -0.0225,0.92 -0.003,0.0962 -0.0212,0.165 -0.06,0.4375 -0.47,3.505 c -0.43625,4.685 -1.705,9.3 -2.66875,13.93875 -0.585,2.2925 -1.345,4.53 -2.0025,6.79625 l -1.02,3.3925 -0.51,1.695 -0.6525,1.72125 -2.6075,6.8875 -1.3025,3.4475 -0.32625,0.8625 -0.02,0.0538 -0.005,0.0137 c 0.04,-0.1 -0.0812,0.2 0.0625,-0.1525 l -0.0213,0.0525 -0.0887,0.2225 -0.17875,0.44125 -0.71,1.76875 c -0.84,2.09125 -1.67875,4.29375 -2.51375,6.5225 -0.69625,2.245 -1.40125,4.5175 -2.09125,6.7425 l 0.22625,0.23 c 0.78375,-2.30625 1.5325,-4.61625 2.3475,-6.915 l 2.7725,-6.84625 0.695,-1.71 0.5625,-1.46625 1.28,-3.3525 2.56125,-6.7025 0.22125,0.11125 c -1.0025,2.79875 -2.015,5.6275 -3.0225,8.43875 l -0.75625,2.105 -0.19,0.525 -0.0937,0.26125 -0.0238,0.065 -0.0125,0.0325 -0.005,0.0138 c 0.0288,-0.07 0.085,-0.2075 0.0737,-0.18 l -10e-4,0.004 -0.004,0.009 -0.0513,0.1325 -0.4125,1.0625 c -0.555,1.41125 -1.1075,2.81125 -1.65375,4.1975 l -1.36375,3.4175 c -0.42875,1.14375 -0.77625,2.3 -1.17,3.44875 l -2.29125,6.90375 c -1.32125,4.62125 -2.76625,9.2375 -3.98125,13.85875 -2.54,9.24875 -4.91875,18.4575 -7.52875,27.58875 -0.88125,3.0175 -1.615,6.065 -2.46875,9.32 -0.96125,3.22 -1.83125,6.79625 -2.655,10.68625 0.835,-3.04625 1.76625,-6.4375 2.825,-8.97375 0.88125,-2.55625 1.54875,-4.39375 1.74875,-4.455 0.83875,-0.2625 1.08875,1.805 0.6425,5.405 -0.3525,2.0775 -0.44375,2.9375 0.28875,1.32625 0.39625,-0.79125 0.91125,-2.2425 1.655,-4.4975 0.37,-1.12875 0.805,-2.45125 1.3125,-3.99375 0.245,-0.77375 0.5325,-1.595 0.7975,-2.48625 0.24625,-0.89 0.5075,-1.8375 0.78625,-2.84375 0.16125,2.2175 -6.8925,23.2725 -0.515,6.19125 0.46,-0.68125 0.77125,-0.88625 1.095,-1.25375 0.32,-0.36375 0.70625,-0.90125 1.10375,-2.2525 1.12875,-3.69125 2.38625,-7.73625 3.54875,-11.86625 1.1425,-4.135 2.3075,-8.35375 3.43375,-12.42875 l 1.6675,-6.15 1.75,-6.085 c 0.6025,-2.01375 1.13125,-4.06875 1.79,-6.04875 l 1.9525,-5.95 c 0.3325,-0.98625 0.63,-1.995 0.99125,-2.9625 l 1.13625,-2.87125 2.35625,-5.9875 4.4325,-11.9525 c 1.34625,-4.1175 2.52125,-8.4075 3.78375,-12.61125 0.50375,-2.13375 0.93,-4.285 1.3975,-6.43 0.4225,-2.155 1.0175,-4.26625 1.21875,-6.485 l 0.84625,-6.5925 0.105,-0.82375 0.007,-0.0525 0.002,-0.0263 0.0125,-0.21 0.002,-0.1 0.004,-0.2 0.007,-0.4 0.0337,-1.6025 0.0675,-3.2075 0.0713,-3.21 -0.0725,-3.28375 c -0.0462,-2.1925 -0.0937,-4.38625 -0.14,-6.58125 -0.0387,-2.17625 -0.185,-4.42625 -0.2875,-6.54625 -0.17,-4.365 -0.34125,-8.72625 -0.5125,-13.0875 -0.23125,-4.35125 -0.46375,-8.7025 -0.695,-13.05875 -0.87125,-14.97125 -1.85125,-29.93125 -2.95875,-44.885 6.52375,-3.93625 13.825,-7.35125 20.94125,-11.15125 3.33375,-1.75625 6.66625,-3.62 9.925,-5.72625 3.26,-2.0875 6.47125,-4.40625 9.41375,-7.23875 0.3675,-0.35125 0.75,-0.68 1.105,-1.0525 l 1.04875,-1.14875 c 0.6975,-0.7675 1.4075,-1.5175 2.01625,-2.3975 l 0.945,-1.27875 0.47,-0.64125 0.0288,-0.04 0.015,-0.0213 0.18875,-0.3175 0.12625,-0.22625 0.16875,-0.3025 0.33625,-0.60375 0.16875,-0.30125 c 0.0575,-0.11 0.10375,-0.16625 0.18625,-0.38625 0.29875,-0.73375 0.565,-1.495 0.7925,-2.26125 0.695,-2.84625 0.3875,-5.6125 -0.3875,-8.02625 z M 170.6566,363.66 c -3.5625,-2.3625 -7.63,-3.65625 -12.01125,-4.5025 l -0.84875,-0.45125 c 4.31375,0.49125 8.89125,1.555 13.03625,4.34 4.8625,1.92625 9.4625,4.02125 14.07,6.335 l 0.15875,0.50125 c -4.83625,-2.4175 -9.385,-4.2675 -14.405,-6.2225 z m -24.285,268.95375 c 1.92,-8.89125 7.23875,-30.79875 12.56625,-43.04625 -5.0025,13.66875 -8.44125,28.10125 -12.56625,43.04625 z m 6.4225,-28.68 -0.2175,-0.28 c 2.2225,-7.745 4.89375,-15.31 7.98125,-22.65375 l 4.34,-11.435 c 0.77,-1.85625 1.29875,-3.85875 1.90375,-5.81625 l 1.77875,-5.8975 0.1025,0.17125 -1.765,5.92 c -0.59375,1.96875 -1.13875,3.96875 -1.9025,5.8325 l -4.31875,11.47 c -3.06375,7.35125 -5.70375,14.92875 -7.9025,22.68875 z m 20.81375,-67.275 0.13125,0.2575 -0.7675,5.9175 c -0.1375,0.98375 -0.2375,1.97625 -0.40625,2.9525 l -0.6275,2.89875 c -0.85125,3.86125 -1.575,7.74875 -2.8375,11.52125 -1.175,3.7675 -2.1625,7.68875 -3.6275,11.22125 l -2.04375,5.425 -1.0225,2.71 -0.51125,1.3575 -0.5925,1.48875 -0.21375,-0.51625 4.195,-10.91625 1.03125,-2.69875 c 0.3275,-0.91 0.5875,-1.87375 0.88375,-2.80875 l 1.725,-5.6525 c 2.295,-7.54375 3.7675,-15.27125 4.68375,-23.1575 z m -2.16125,-28.64 c 0.31875,5.41875 0.45125,10.9025 0.62875,16.37125 l -0.27,0.215 c -0.18,-5.535 -0.31125,-11.0825 -0.63375,-16.575 -0.27875,-5.50625 -0.54,-11.01375 -0.90375,-16.5125 l 0.2875,0.21 c 0.36125,5.425 0.615,10.86 0.89125,16.29125 z m -6.64625,-71.9475 -0.8875,0.55375 0.0738,1.08625 c 0.6075,8.92875 1.03875,17.7675 1.43875,27.01875 l -1.825,-26.98875 -0.09,-1.33375 1.07375,-0.6725 c 8.7775,-5.49375 18.05,-9.405 26.7125,-14.25875 -9.01125,5.39 -18.06625,9.32625 -26.49625,14.595 z m 52.695,-34.10375 c 0.0788,-3.22375 -1.08625,-6.045 -2.45875,-8.32375 -1.4025,-2.2975 -3.055,-4.26 -4.8125,-5.99875 -3.52375,-3.47625 -7.37625,-6.3075 -11.31875,-8.905 l -0.20875,-0.47625 c 3.9325,2.51125 7.75875,5.3025 11.32375,8.65875 1.75625,1.72625 3.46375,3.5775 4.94375,5.7975 1.43375,2.23875 2.72125,4.9375 2.93625,8.16 -0.13375,0.37375 -0.2175,0.73 -0.405,1.0875"
         style="fill:#231f20;fill-opacity:1;fill-rule:evenodd;stroke:none"
         id="path3666" />
      <path
         inkscape:connector-curvature="0"
         d="m 169.23035,366.57875 c -0.006,-0.005 -0.0137,-0.009 -0.02,-0.0137 -0.009,-0.004 -0.0175,-0.006 -0.025,-0.0113 0.0175,0.01 0.035,0.02 0.045,0.025"
         style="fill:#231f20;fill-opacity:1;fill-rule:evenodd;stroke:none"
         id="path3668" />
      <path
         inkscape:connector-curvature="0"
         d="m 156.0866,578.95125 0,-0.002 c -0.0163,0.0425 -0.0263,0.065 0,0.002"
         style="fill:#231f20;fill-opacity:1;fill-rule:evenodd;stroke:none"
         id="path3670" />
      <path
         inkscape:connector-curvature="0"
         d="m 158.93785,589.5675 c -5.0025,13.66875 -8.44125,28.10125 -12.56625,43.04625 1.92,-8.89125 7.23875,-30.79875 12.56625,-43.04625"
         style="fill:#ffffff;fill-opacity:1;fill-rule:evenodd;stroke:none"
         id="path3672" />
      <path
         inkscape:connector-curvature="0"
         d="m 161.0891,581.8925 4.195,-10.91625 1.03125,-2.69875 c 0.3275,-0.91 0.5875,-1.87375 0.88375,-2.80875 l 1.725,-5.6525 c 2.295,-7.54375 3.7675,-15.27125 4.68375,-23.1575 l 0.13125,0.2575 -0.7675,5.9175 c -0.1375,0.98375 -0.2375,1.97625 -0.40625,2.9525 l -0.6275,2.89875 c -0.85125,3.86125 -1.575,7.74875 -2.8375,11.52125 -1.175,3.7675 -2.1625,7.68875 -3.6275,11.22125 l -2.04375,5.425 -1.0225,2.71 -0.51125,1.3575 -0.5925,1.48875 -0.21375,-0.51625"
         style="fill:#ffffff;fill-opacity:1;fill-rule:evenodd;stroke:none"
         id="path3674" />
      <path
         inkscape:connector-curvature="0"
         d="m 165.42535,464.73 -1.825,-26.98875 -0.09,-1.33375 1.07375,-0.6725 c 8.7775,-5.49375 18.05,-9.405 26.7125,-14.25875 -9.01125,5.39 -18.06625,9.32625 -26.49625,14.595 l -0.8875,0.55375 0.0738,1.08625 c 0.6075,8.92875 1.03875,17.7675 1.43875,27.01875"
         style="fill:#ffffff;fill-opacity:1;fill-rule:evenodd;stroke:none"
         id="path3676" />
      <path
         inkscape:connector-curvature="0"
         d="m 185.0616,369.8825 c -4.91625,-2.4575 -9.5325,-4.32875 -14.65125,-6.32 l 0.76,0.43125 c -3.68125,-2.58625 -7.935,-3.95 -12.525,-4.83625 l -0.84875,-0.45125 c 4.55625,0.51875 9.4125,1.6525 13.73625,4.80375 -0.29125,-0.185 -0.58375,-0.36875 -0.8825,-0.53875 4.93125,1.94625 9.58625,4.0675 14.2525,6.41 l 0.15875,0.50125"
         style="fill:#ffffff;fill-opacity:1;fill-rule:evenodd;stroke:none"
         id="path3678" />
      <path
         inkscape:connector-curvature="0"
         d="m 168.68285,558.0225 -1.765,5.92 c -0.59375,1.96875 -1.13875,3.96875 -1.9025,5.8325 l -4.31875,11.47 c -3.06375,7.35125 -5.70375,14.92875 -7.9025,22.68875 l -0.2175,-0.28 c 2.2225,-7.745 4.89375,-15.31 7.98125,-22.65375 l 4.34,-11.435 c 0.77,-1.85625 1.29875,-3.85875 1.90375,-5.81625 l 1.77875,-5.8975 0.1025,0.17125"
         style="fill:#ffffff;fill-opacity:1;fill-rule:evenodd;stroke:none"
         id="path3680" />
      <path
         inkscape:connector-curvature="0"
         d="m 217.49535,401.9675 c 0.0788,-3.22375 -1.08625,-6.045 -2.45875,-8.32375 -1.4025,-2.2975 -3.055,-4.26 -4.8125,-5.99875 -3.52375,-3.47625 -7.37625,-6.3075 -11.31875,-8.905 l -0.20875,-0.47625 c 3.9325,2.51125 7.75875,5.3025 11.32375,8.65875 1.75625,1.72625 3.46375,3.5775 4.94375,5.7975 1.43375,2.23875 2.72125,4.9375 2.93625,8.16 -0.13375,0.37375 -0.2175,0.73 -0.405,1.0875"
         style="fill:#ffffff;fill-opacity:1;fill-rule:evenodd;stroke:none"
         id="path3682" />
      <path
         inkscape:connector-curvature="0"
         d="m 170.55535,491.7275 c 0.36125,5.425 0.615,10.86 0.89125,16.29125 0.31875,5.41875 0.45125,10.9025 0.62875,16.37125 l -0.27,0.215 c -0.18,-5.535 -0.31125,-11.0825 -0.63375,-16.575 -0.27875,-5.50625 -0.54,-11.01375 -0.90375,-16.5125 l 0.2875,0.21"
         style="fill:#ffffff;fill-opacity:1;fill-rule:evenodd;stroke:none"
         id="path3684" />
      <path
         inkscape:connector-curvature="0"
         d="m 107.1416,512.06 c -0.0913,3.1525 -0.15125,6.90625 -0.11,10.39 0.21,7.03 0.73875,14 1.17,20.9925 0.48125,6.98875 1.1825,13.975 1.61625,21.04875 0.06,0.87125 0.21625,1.7725 0.28,2.64875 l 0.7525,10.74125 c 0.50375,6.16625 0.99,12.34 1.62625,18.5025 0.41125,3.995 0.9925,7.99125 1.425,11.9625 0.61375,6.08375 1.29,12.1475 1.98375,18.22125 0.14,1.0625 0.37375,2.32875 0.4175,3.1625 0.23375,4.01125 0.76,7.94 1.71625,11.7325 0.4725,1.89625 0.93875,3.75625 1.4875,5.5875 0.49125,1.855 1.42625,3.58125 2.08875,5.3175 0.28,0.7725 0.5525,1.48 0.8225,2.15875 0.31375,0.68125 0.62875,1.33625 0.96125,1.9925 0.73,1.29625 1.46875,2.625 2.28,4.28375 -0.69375,-1.88875 -1.38875,-3.65375 -1.88875,-5.255 -0.54625,-1.6 -0.74875,-3.01875 -1.05875,-4.14625 -0.0675,-1.4925 -0.1025,-2.54625 -0.0325,-3.8425 0.3325,1.4325 0.8175,3.15125 1.23,4.74875 0.36125,1.485 0.85875,2.805 1.3725,4.175 -0.35875,-1.3775 -0.635,-2.69375 -0.87875,-4.17875 -0.56375,-3.05375 -1.2525,-6.16875 -1.72625,-10.0825 0.335,1.19875 0.64625,2.31125 0.93875,3.36 0.32,1.04125 0.62,2.0175 0.90625,2.94875 0.52125,1.8325 0.99,3.48375 1.45125,5.10875 0.37125,1.065 0.5125,1.255 0.505,0.91875 -0.02,-0.3325 -0.15375,-1.1975 -0.2525,-2.285 -0.22,-1.64875 -0.235,-3.285 -0.345,-4.9475 -0.18125,-1.645 -0.2475,-3.38 -0.32375,-5.27 0.265,1.2275 0.4875,2.265 0.71125,3.30375 0.24375,1.02625 0.56875,2.035 0.71875,3.2825 0.004,-0.43875 0.009,-0.8325 0.0112,-1.18875 -0.02,-0.345 -0.04,-0.655 -0.0575,-0.93875 -0.0337,-0.57 -0.0812,-1.04125 -0.13625,-1.5525 -0.23625,-2.365 -0.4725,-4.72625 -0.7075,-7.0775 -0.3275,-2.3325 -0.5425,-4.70375 -0.8275,-7.05125 -0.29375,-2.3475 -0.68375,-4.6725 -1.02875,-7.01 -0.345,-2.34 -0.72875,-4.66875 -1.165,-6.98875 -1.645,-8.7075 -3.12625,-28.855 -2.89875,-36.34625 0.0175,-0.59625 -0.06,-1.73625 -0.1675,-2.4275 -0.6525,-4.325 -1.3,-8.62 -1.95375,-12.94875 -0.21,-1.43 -0.4,-3.10125 -0.48625,-4.575 -0.4875,-8.06875 -0.84875,-16.0975 -1.58375,-24.16125 -0.1475,-1.7875 -0.465,-3.72625 -0.7025,-5.59375 l -0.28,-0.04 0.83125,11.7775 -0.25,0.009 c -0.2825,-2.43125 -0.6225,-4.90875 -0.81375,-7.29375 -0.3125,-3.9225 -0.625,-7.84 -0.93625,-11.76 -0.4275,-3.90875 -0.875,-7.81 -1.35875,-11.74375 -0.42875,-2.63625 -1.0875,-5.305 -1.82875,-8.48375 0.3825,2.555 0.71625,5.73875 0.465,5.86625 -0.50625,0.265 -1.2025,-0.46625 -1.7675,-1.86375 -0.34,-0.82125 -0.49625,-1.1525 -0.53625,-0.4175 -0.0225,0.73375 -0.0437,2.53375 0.1775,5.945 -0.24,-0.42 -0.48625,-2.86 -0.61875,-4.28 -0.1575,-1.42 -0.235,-1.8025 -0.465,1.8975 -0.1625,0.3325 -0.33625,0.4625 -0.48125,0.6525 -0.0763,0.0975 -0.125,0.205 -0.205,0.36625 -0.0325,0.15625 -0.0687,0.3625 -0.0737,0.6475 z m 0.43125,3.71375 c 0.275,1.85 0.50625,5.08375 0.62375,8.565 0.1925,3.4725 0.25625,7.19 0.0775,10.01125 -0.155,-3.0525 -0.31,-6.1025 -0.4675,-9.18625 -0.12375,-3.08625 -0.1475,-6.2075 -0.23375,-9.39 z m 2.75625,40.8625 -0.17,-0.0863 -0.70875,-9.52625 -0.54875,-9.53625 0.39625,0.135 0.4475,9.51 0.58375,9.50375 z m 9.87375,52.47 c -1.455,-8.275 -1.875,-15.47375 -2.17,-23.41375 0.74,8.115 1.34,15.26125 2.17,23.41375 z m 1.7575,42.495 c -0.02,0.1225 -0.0975,0.25875 -0.13375,0.38375 -0.3225,-0.925 -0.6825,-1.84625 -1.02625,-2.77125 -0.345,-0.92625 -0.55875,-1.8825 -0.84,-2.8225 l -1.3825,-5.66125 0.29375,-0.20375 c 0.99,3.55125 1.79375,6.43375 3.08875,11.075 z M 109.2941,527.7775 l 0.2775,0.0662 1.13375,19.9425 -0.15375,-0.045 -1.2575,-19.96375 z m 8.99,106.09625 -0.2325,0.2125 c -0.36625,-1.84125 -0.7075,-3.68625 -1.0325,-5.535 -0.345,-1.8475 -0.655,-3.69625 -0.9425,-5.54375 l 0.37875,-0.375 c 0.52875,3.75 1.1625,7.50375 1.82875,11.24125 z m -5.87125,-72.42625 0.2675,-0.1125 1.22625,13.55875 -0.2775,-0.07 -1.21625,-13.37625"
         style="fill:#231f20;fill-opacity:1;fill-rule:evenodd;stroke:none"
         id="path3686" />
      <path
         inkscape:connector-curvature="0"
         d="m 108.2741,534.35 c -0.155,-3.0525 -0.31,-6.1025 -0.4675,-9.18625 -0.12375,-3.08625 -0.1475,-6.2075 -0.23375,-9.39 0.275,1.85 0.50625,5.08375 0.62375,8.565 0.1925,3.4725 0.25625,7.19 0.0775,10.01125"
         style="fill:#ffffff;fill-opacity:1;fill-rule:evenodd;stroke:none"
         id="path3688" />
      <path
         inkscape:connector-curvature="0"
         d="m 109.29785,537.6225 0.4475,9.51 0.58375,9.50375 -0.17,-0.0863 -0.70875,-9.52625 -0.54875,-9.53625 0.39625,0.135"
         style="fill:#ffffff;fill-opacity:1;fill-rule:evenodd;stroke:none"
         id="path3690" />
      <path
         inkscape:connector-curvature="0"
         d="m 118.03285,585.6925 c 0.74,8.115 1.34,15.26125 2.17,23.41375 -1.455,-8.275 -1.875,-15.47375 -2.17,-23.41375"
         style="fill:#ffffff;fill-opacity:1;fill-rule:evenodd;stroke:none"
         id="path3692" />
      <path
         inkscape:connector-curvature="0"
         d="m 118.8716,640.52625 c 0.99,3.55125 1.79375,6.43375 3.08875,11.075 -0.02,0.1225 -0.0975,0.25875 -0.13375,0.38375 -0.3225,-0.925 -0.6825,-1.84625 -1.02625,-2.77125 -0.345,-0.92625 -0.55875,-1.8825 -0.84,-2.8225 l -1.3825,-5.66125 0.29375,-0.20375"
         style="fill:#ffffff;fill-opacity:1;fill-rule:evenodd;stroke:none"
         id="path3694" />
      <path
         inkscape:connector-curvature="0"
         d="m 110.5516,547.74125 -1.2575,-19.96375 0.2775,0.0662 1.13375,19.9425 -0.15375,-0.045"
         style="fill:#ffffff;fill-opacity:1;fill-rule:evenodd;stroke:none"
         id="path3696" />
      <path
         inkscape:connector-curvature="0"
         d="m 116.45535,622.6325 c 0.52875,3.75 1.1625,7.50375 1.82875,11.24125 l -0.2325,0.2125 c -0.36625,-1.84125 -0.7075,-3.68625 -1.0325,-5.535 -0.345,-1.8475 -0.655,-3.69625 -0.9425,-5.54375 l 0.37875,-0.375"
         style="fill:#ffffff;fill-opacity:1;fill-rule:evenodd;stroke:none"
         id="path3698" />
      <path
         inkscape:connector-curvature="0"
         d="m 113.6291,574.82375 -1.21625,-13.37625 0.2675,-0.1125 1.22625,13.55875 -0.2775,-0.07"
         style="fill:#ffffff;fill-opacity:1;fill-rule:evenodd;stroke:none"
         id="path3700" />
      <path
         inkscape:connector-curvature="0"
         d="m 125.4116,497.97125 0,0 c -0.001,0 -0.001,-10e-4 -0.001,-10e-4 l 0,0 c 0,10e-4 0,10e-4 0.001,10e-4"
         style="fill:#231f20;fill-opacity:1;fill-rule:evenodd;stroke:none"
         id="path3702" />
      <path
         inkscape:connector-curvature="0"
         d="m 112.18535,456.59375 c 0.002,-0.0412 0.006,-0.0862 0.009,-0.1275 -0.0112,-0.004 -0.0225,-0.007 -0.0325,-0.01 -0.0212,0.035 -0.0437,0.0713 -0.0662,0.10625 0.03,0.01 0.0613,0.0213 0.09,0.0313"
         style="fill:#231f20;fill-opacity:1;fill-rule:evenodd;stroke:none"
         id="path3704" />
      <path
         inkscape:connector-curvature="0"
         d="m 112.87285,456.82625 c 0.0238,-0.035 0.0475,-0.0712 0.07,-0.105 -0.03,-0.0113 -0.06,-0.02 -0.09,-0.03 -0.005,0.0412 -0.007,0.0825 -0.0112,0.12375 0.0112,0.005 0.0213,0.007 0.0313,0.0112"
         style="fill:#231f20;fill-opacity:1;fill-rule:evenodd;stroke:none"
         id="path3706" />
      <path
         inkscape:connector-curvature="0"
         d="m 124.99785,498.585 0.002,0.001 c -0.002,-0.002 -0.002,-0.002 -0.005,-0.004 l 0.002,0.003"
         style="fill:#231f20;fill-opacity:1;fill-rule:evenodd;stroke:none"
         id="path3708" />
      <path
         inkscape:connector-curvature="0"
         d="m 113.16785,456.3825 c -0.0937,-0.03 -0.1875,-0.0625 -0.28,-0.0913 -0.009,0.0975 -0.0175,0.1925 -0.0262,0.28875 0.0487,0.0163 0.0962,0.0325 0.1425,0.0487 0.0538,-0.0812 0.11,-0.16625 0.16375,-0.24625"
         style="fill:#231f20;fill-opacity:1;fill-rule:evenodd;stroke:none"
         id="path3710" />
      <path
         inkscape:connector-curvature="0"
         d="m 158.16035,372.47375 c -0.0187,-0.0337 -0.0375,-0.0675 -0.0563,-0.1 -0.1025,-0.0587 -0.20625,-0.12 -0.3125,-0.18125 -0.0337,-10e-4 -0.0675,-10e-4 -0.10125,-10e-4 0.03,0.05 0.065,0.1125 0.095,0.16375 0.07,0.0412 0.14,0.0812 0.20875,0.1225 0.0563,-0.001 0.10625,-0.002 0.16625,-0.004"
         style="fill:#231f20;fill-opacity:1;fill-rule:evenodd;stroke:none"
         id="path3712" />
      <path
         inkscape:connector-curvature="0"
         d="m 125.0941,498.6525 -0.0125,-0.009 -0.0238,-0.0162 -0.0538,-0.04 -0.004,-0.001 c 0.195,0.13875 0.0488,0.035 0.0937,0.0663"
         style="fill:#231f20;fill-opacity:1;fill-rule:evenodd;stroke:none"
         id="path3714" />
      <path
         inkscape:connector-curvature="0"
         d="m 115.9841,457.22625 c 0.0475,-0.36875 0.0925,-0.72375 0.12625,-0.98875 l 1.54,-12.005 -1.47125,2.13125 -0.1775,9.86625 -0.0175,0.99625"
         style="fill:#231f20;fill-opacity:1;fill-rule:evenodd;stroke:none"
         id="path3716" />
      <path
         inkscape:connector-curvature="0"
         d="m 115.6191,457.7575 c 0.0225,-0.0362 0.0412,-0.0725 0.0637,-0.1075 -0.145,-0.0487 -0.29,-0.0987 -0.435,-0.1475 -0.0225,0.0362 -0.0437,0.0712 -0.0662,0.105 0.14625,0.05 0.29125,0.0987 0.4375,0.15"
         style="fill:#231f20;fill-opacity:1;fill-rule:evenodd;stroke:none"
         id="path3718" />
      <path
         inkscape:connector-curvature="0"
         d="m 110.5616,455.91375 c -0.14125,-0.0488 -0.2825,-0.0963 -0.42375,-0.145 -0.002,0.0438 -0.005,0.0863 -0.007,0.12875 0.14,0.0462 0.28125,0.095 0.42125,0.14125 0.002,-0.0413 0.006,-0.0838 0.01,-0.125"
         style="fill:#231f20;fill-opacity:1;fill-rule:evenodd;stroke:none"
         id="path3720" />
      <path
         inkscape:connector-curvature="0"
         d="m 116.20535,444.91375 -5.13125,8.85 5.105,-7.4 0.0263,-1.45"
         style="fill:#231f20;fill-opacity:1;fill-rule:evenodd;stroke:none"
         id="path3722" />
      <path
         inkscape:connector-curvature="0"
         d="m 113.55785,457.05875 c 0.045,0.0137 0.09,0.03 0.13625,0.045 0.002,-0.0412 0.004,-0.0838 0.005,-0.12625 -0.0237,-0.009 -0.0487,-0.0175 -0.0737,-0.025 -0.0238,0.0362 -0.0437,0.0688 -0.0675,0.10625"
         style="fill:#231f20;fill-opacity:1;fill-rule:evenodd;stroke:none"
         id="path3724" />
      <path
         inkscape:connector-curvature="0"
         d="m 113.33535,456.13 c -0.16375,-0.0562 -0.32875,-0.11125 -0.42,-0.1425 -0.005,0.0588 -0.01,0.11375 -0.0162,0.1725 0.1125,0.0375 0.22875,0.0775 0.34,0.115 0.0313,-0.0475 0.065,-0.0975 0.0962,-0.145"
         style="fill:#231f20;fill-opacity:1;fill-rule:evenodd;stroke:none"
         id="path3726" />
      <path
         inkscape:connector-curvature="0"
         d="m 113.70535,456.865 c 0,-0.0137 0.001,-0.0275 0.001,-0.0412 -0.008,0.0113 -0.0138,0.0237 -0.0213,0.0337 0.006,0.003 0.0125,0.005 0.02,0.008"
         style="fill:#231f20;fill-opacity:1;fill-rule:evenodd;stroke:none"
         id="path3728" />
      <path
         inkscape:connector-curvature="0"
         d="m 113.68535,456.8575 c -0.22625,-0.075 -0.455,-0.15375 -0.68125,-0.22875 -0.02,0.03 -0.0412,0.0613 -0.0613,0.0925 0.2275,0.0775 0.455,0.15375 0.6825,0.23125 0.02,-0.0325 0.0387,-0.0612 0.06,-0.095"
         style="fill:#231f20;fill-opacity:1;fill-rule:evenodd;stroke:none"
         id="path3730" />
      <path
         inkscape:connector-curvature="0"
         d="m 197.0241,395.85875 c -4.80125,-3.49375 -9.515,-7.41625 -14.56,-10.94375 -2.50375,-1.79875 -5.16875,-3.4125 -7.95375,-4.85625 -2.78875,-1.43125 -5.72875,-2.68125 -8.8875,-3.4025 -0.63875,-0.11875 -1.25375,-0.305 -1.91625,-0.365 -0.39875,-0.04 -0.80625,-0.0825 -1.21125,-0.12375 -0.995,-1.625 -2.01625,-3.295 -3.1,-5.06625 l -0.41375,-0.67625 -0.7075,0.0263 c -0.93375,0.0338 -1.90125,0.0563 -2.98,0.175 -0.51875,0.0187 -1.10625,0.21 -1.66625,0.3025 -0.56,0.15875 -1.11875,0.43625 -1.6775,0.665 l -0.63375,0.25875 0.0263,0.72375 c 0.0375,1.00875 0.0725,2.11125 0.1925,3.29625 0.06,0.59 0.14375,1.20375 0.29375,1.835 0.055,0.3025 0.17125,0.6575 0.28375,0.9975 0.11,0.35875 0.24625,0.5725 0.37,0.86875 -0.1075,-0.26375 -0.225,-0.48125 -0.32625,-0.79 -0.0913,-0.31 -0.21875,-0.66 -0.26625,-0.95 -0.13375,-0.60375 -0.215,-1.20625 -0.26875,-1.8 -0.1075,-1.19125 -0.11875,-2.3525 -0.13125,-3.4575 l -0.007,-0.65625 0.5325,-0.195 c 0.59625,-0.2175 1.17875,-0.5225 1.76375,-0.63125 0.585,-0.10125 1.1675,-0.245 1.68875,-0.2475 1.07625,-0.0888 1.99125,-0.065 2.80625,-0.0725 l 0.56375,-0.005 0.2775,0.49375 c 0.89625,1.58875 1.4625,2.64125 1.465,2.7525 0.0125,0.5075 -0.815,-0.36625 -2.21,-2.3275 l -0.0437,-0.0638 -0.0525,0.008 c -0.6625,0.0888 -1.4625,0.115 -2.3425,0.24625 -0.7925,0.0725 -1.3925,0.24625 -1.77125,0.355 -0.385,0.0987 -0.53375,0.19 -0.425,0.1825 0.10875,-0.005 0.49625,-0.0462 1.20875,-0.1575 0.5925,-0.0513 1.44,-0.0763 2.5525,-0.0688 0.0462,0.0862 0.105,0.19875 0.15375,0.29375 -0.78375,0.0113 -1.30625,0.0275 -1.37625,0.0638 -0.0875,0.02 0.3225,0.0313 1.44875,0.0725 0.57375,1.09125 1.36625,2.6 2.45625,4.67 0.16,0.3975 0.25625,0.67625 0.33125,0.915 l 0.0913,0.28875 0.91625,0.345 c 0.34,0.1275 0.57625,0.235 0.99125,0.35875 0.415,0.12125 1.01,0.22375 2.055,0.56125 3.83375,1.06625 7.74625,3.365 11.545,5.97125 3.80125,2.64875 7.6,5.5625 11.245,8.5125 1.48375,1.1825 2.97625,2.37375 4.49,3.55875 -3.70375,3.57 -7.625,6.9375 -11.78875,10.04625 -4.945,3.67375 -10.0375,7.16875 -15.28625,10.5125 -2.5975,1.69625 -5.2575,3.345 -7.88875,5.02 l -3.97375,2.51375 -0.99375,0.62875 -0.24875,0.1575 -0.34875,0.23875 -0.4925,0.355 c -0.68125,0.49875 -1.35625,0.99875 -1.98375,1.50625 -2.56625,2.02125 -5.025,4.17125 -7.3,6.61 -1.22625,1.22375 -2.35625,2.59 -3.41,4.0525 -3.5,-4.87125 -7,-9.74625 -10.51625,-14.64125 l -1.3275,-1.84875 -2.07125,0.57125 c -1.24625,0.3425 -2.5225,0.625 -3.7475,1.03375 -1.20125,0.45875 -2.4625,0.80875 -3.615,1.36875 -1.155,0.5275 -2.35625,1.0425 -3.4625,1.70875 l -1.68875,0.9475 c -0.555,0.32375 -1.0775,0.6875 -1.61625,1.02125 -4.36375,2.77125 -8.28125,6.125 -11.755,9.87 -3.46,3.755 -6.52625,7.88625 -8.97,12.4125 -2.1275,3.87875 -3.8475,8.0175 -4.99,12.385 -1.13375,4.36 -1.70125,8.98375 -1.21125,13.6775 0.4675,4.6725 2.08375,9.415 4.92375,13.365 2.815,3.97375 6.72625,7 10.87125,9.0475 1.4775,0.84 3.05375,1.32375 4.5925,1.94875 1.00625,0.35625 2.0225,0.63875 3.04125,0.9175 1.67625,3.1225 3.44625,6.08 5.55875,9.01875 4.98875,6.94375 12.3575,11.98 20.9975,12.78875 2.9,0.27125 5.81375,0.3575 8.73625,0.20625 2.8425,-0.1475 7.7125,1.765 6.895,-2.8025 -0.44625,-2.4875 -2.295,-5.21875 -4.40375,-6.6275 -2.49375,-1.66625 -5.89125,-3.1275 -7.9425,-5.34875 l 0.575,-0.0862 c 0.6175,-0.1575 1.2325,-0.33 1.84125,-0.5225 0.64875,-0.2925 1.2925,-0.61875 1.91375,-0.96625 0,0 2.06625,-0.69875 2.33375,-1.3125 0.3075,-0.7025 -0.7125,-2.98125 -0.7125,-2.98125 -0.35875,-1.5025 -1.54375,-2.955 -2.63625,-3.63375 -1.10125,-0.72375 -2.045,-1.00375 -2.86125,-1.2175 -1.625,-0.38625 -2.9375,-0.4725 -4.1725,-0.57 -1.8575,-0.12625 -3.79125,-0.1425 -5.61125,-0.57125 -2.33125,-0.54625 -4.51625,-2.6375 -6.31875,-4.13375 -0.81,-0.73875 -1.6175,-1.47375 -2.4225,-2.2075 -0.80625,-0.73 -1.62,-1.43125 -2.42625,-2.245 -1.615,-1.5675 -3.245,-3.105 -4.78875,-4.74375 -0.475,-0.48625 -0.945,-0.9825 -1.41875,-1.47625 0.1825,-3.8375 0.39,-7.445 0.56125,-10.74 0.12875,-1.8525 0.15125,-3.58875 0.18,-5.2375 0.36875,-0.60625 0.73625,-1.21125 1.1025,-1.815 -0.0825,1.6275 -0.12,3.22 -0.18,4.78 -0.0937,1.93625 -0.18875,3.85125 -0.28375,5.8 0.33375,-3.79875 0.65375,-7.42625 1.005,-11.43125 l 0.005,-0.0462 c 0.295,-0.485 0.5925,-0.97625 0.8875,-1.46 0.1425,-0.27125 0.28,-0.54375 0.42,-0.815 -0.006,0.1125 -0.0113,0.2325 -0.0163,0.34625 -0.0937,2.26625 -0.21375,4.43875 -0.41375,6.55375 -0.42375,6.12375 -0.0263,2.41875 0.9125,-3.39625 0.2225,-1.92125 0.44125,-3.82 0.66125,-5.72 0.4825,-0.92 0.98,-1.82625 1.52875,-2.69625 -0.1575,-0.0538 -0.31375,-0.10625 -0.47375,-0.15875 -0.3175,0.495 -0.60625,1.01 -0.90125,1.52 0.045,-0.38375 0.09,-0.76875 0.13375,-1.155 0.11,-0.17125 0.21625,-0.34375 0.33,-0.515 -0.0875,-0.0287 -0.17375,-0.0575 -0.26,-0.0875 0.005,-0.0412 0.009,-0.0825 0.0137,-0.12375 0.105,0.035 0.20875,0.0712 0.3125,0.10625 0.0213,-0.03 0.04,-0.0625 0.06,-0.0937 -0.11875,-0.04 -0.24,-0.0825 -0.36,-0.1225 0.045,-0.3775 0.0875,-0.75 0.13125,-1.13 l 0.925,-8.00625 -4.49125,6.79875 c -0.21125,0.32125 -0.44375,0.6325 -0.6675,0.9475 -0.0925,-0.03 -0.1825,-0.0612 -0.275,-0.0925 -0.002,0.035 -0.006,0.0738 -0.009,0.11 0.0725,0.0237 0.14625,0.0487 0.22,0.0737 -0.0263,0.035 -0.05,0.07 -0.075,0.105 -0.0513,-0.0175 -0.10375,-0.035 -0.155,-0.0537 -0.009,0.10125 -0.0175,0.2075 -0.025,0.30875 -0.15125,0.20625 -0.3025,0.415 -0.4575,0.62 0.0225,-0.355 0.04,-0.71375 0.0613,-1.07 -0.10125,-0.0338 -0.205,-0.07 -0.30625,-0.105 0.2975,-0.45125 0.5975,-0.90375 0.87,-1.37375 l 0.38,-0.655 -0.42875,0.6225 c -0.33875,0.49125 -0.6625,0.93375 -1.0075,1.34375 0,0.0175 -10e-4,0.0337 -10e-4,0.05 -0.78,1.03625 -1.4925,1.895 -2.12375,2.675 -0.92375,1.085 -1.5825,2.10625 -2.3175,3.1725 -3.26375,4.8 -6.46375,9.6375 -9.67125,14.4625 l -1.54,2.31875 c 0,0 1.77375,2.2075 1.77625,2.21125 2.66375,3.3175 6.8625,4.85625 9.83,7.85125 3.28,3.31 6.37375,6.78875 10.5775,8.96375 1.5275,0.78875 2.13625,2.59625 3.27,3.7925 0.85125,0.89625 1.9775,1.6275 2.9675,2.36375 2.24875,1.67125 5.19,-0.2175 7.4825,1.3325 0.43125,0.29125 1.44875,1.05 1.15625,1.7025 -0.35,0.78 -1.50375,0.1475 -2.0775,0.26875 -0.27,0.0575 -0.54125,0.10625 -0.82875,0.15125 -0.73375,0.115 -2.8525,-0.45 -2.88875,0.695 -0.0387,1.18875 3.28125,2.37625 4.12125,2.95125 1.4875,1.01625 3.31625,1.95625 4.58,3.255 0.37375,0.38375 0.68125,0.91875 0.7725,1.4175 0.1625,0.22875 0.0987,0.51875 -0.0812,0.72125 -0.14875,0.2975 -0.45375,0.52625 -1.02375,0.595 -1.43875,0.17375 -3.62875,-0.21 -5.645,-1.0275 -0.565,0.005 -1.11375,-0.0337 -1.6575,-0.0737 l -0.82875,-0.0588 -0.75125,-0.1075 -0.7525,-0.10125 -0.85,-0.21375 -0.42375,-0.1075 -0.21125,-0.0538 c 0,0 -0.0737,-0.0175 -0.095,-0.0287 -0.185,-0.09 -0.37125,-0.175 -0.56125,-0.25375 -0.3825,-0.19 -0.7875,-0.4875 -1.18,-0.77125 -0.38,-0.3525 -0.79,-0.63125 -1.1525,-1.035 -0.7525,-0.7375 -1.46375,-1.55625 -2.13875,-2.4075 -2.68875,-3.4225 -4.93875,-7.255 -6.89125,-11.045 l -0.33,-0.64 -0.68875,-0.16875 c -5.665,-1.385 -11.05625,-3.85 -14.9375,-7.8975 -1.98875,-1.97375 -3.39375,-4.44125 -4.40875,-7.04125 -0.54,-1.29625 -0.81875,-2.6925 -1.13125,-4.07625 -0.085,-0.71 -0.17125,-1.42125 -0.2575,-2.135 -0.1,-0.71 -0.05,-1.445 -0.085,-2.16875 0.025,2.835 0.54875,5.63125 1.56375,8.21 1.01875,2.565 2.43375,5.0025 4.4275,6.9525 1.965,1.95125 4.21375,3.69375 6.8075,4.8975 1.2275,0.71625 2.62125,1.1375 3.9425,1.69 1.3525,0.4875 2.77375,0.8175 4.1575,1.23875 l 0.89,0.2725 0.36375,0.71 c 2.00625,3.91 4.29125,7.8425 6.94625,11.2625 0.66875,0.84875 1.3675,1.65125 2.09375,2.3875 0.3675,0.35 0.74375,0.6775 1.115,0.99625 2.22,1.3375 4.3425,1.8025 6.955,1.7525 -0.79875,0.0163 -2.3275,-0.99375 -3.0925,-1.32875 -3.67,-1.61125 -5.97125,-4.57 -8.1275,-7.85875 -0.96,-1.46375 -1.97,-3.265 -2.8725,-4.90125 -0.78375,-1.41875 -1.54,-3.49375 -2.98,-4.38875 -1.225,-0.7625 -2.9575,-0.9125 -4.31875,-1.37375 -3.04375,-1.03375 -6.01625,-2.445 -8.52375,-4.48125 -3.23,-2.58625 -5.4075,-5.91625 -6.505,-9.41125 -1.12375,-3.5 -1.1275,-7.12 -0.7575,-10.29125 0.3975,-3.195 1.295,-5.9675 2.09,-8.1875 0.2725,-0.6925 0.66375,-1.68375 1.06875,-2.70875 0.45,-1.02125 0.91125,-2.06625 1.265,-2.86625 2.335,-4.94125 5.28125,-9.655 8.92625,-13.775 1.7725,-2.1125 3.7925,-3.98375 5.855,-5.8025 2.13625,-1.71375 4.33,-3.4075 6.7375,-4.71875 2.09125,-1.2025 4.53,-2.29375 6.97375,-3.0625 3.99875,5.5175 7.99,11.025 11.97625,16.525 l 3.05,4.2075 2.54375,-4.67 c 1.51875,-2.7875 3.68875,-5.4625 6.10875,-7.96875 1.25875,-1.2225 2.5225,-2.44375 3.88125,-3.58375 1.3275,-1.135 2.7875,-2.3 4.04875,-3.1825 6.18875,-4.035 12.4825,-8.0475 18.66375,-12.33375 1.00125,-0.705 2.025,-1.42375 3.06375,-2.155 1.01625,-0.7675 2.0475,-1.545 3.08625,-2.32875 1.02875,-0.795 2.085,-1.55875 3.09625,-2.38875 1.0125,-0.83375 2.02125,-1.66375 3.02,-2.485 l 0.008,-0.2575 c -8.4175,6.805 -17.43,12.6525 -26.3625,18.405 l -0.0762,-0.17125 c 5.51625,-3.65125 11.12875,-7.43625 16.45625,-11.19375 7.48625,-5.31875 14.7775,-11.055 21.1225,-17.87625 l 1.63375,-1.75625 -1.9375,-1.41 z m -83.53875,65.59875 c -0.26375,0.4875 -0.52875,0.97375 -0.79375,1.46125 -0.1475,0.24875 -0.3025,0.49375 -0.4525,0.74125 0.0362,-0.40875 0.0725,-0.8225 0.11,-1.24 0.39,-0.70375 0.78375,-1.41375 1.1925,-2.12875 -0.0187,0.39375 -0.0375,0.77875 -0.0562,1.16625 z m -2.04,-3.82625 c 0.22,-0.36125 0.435,-0.715 0.65,-1.06875 -0.17125,-0.0588 -0.34375,-0.1175 -0.51625,-0.17375 0.004,-0.0425 0.01,-0.085 0.0137,-0.12625 0.19,0.065 0.37875,0.12875 0.56875,0.19375 0.0125,-0.02 0.025,-0.0412 0.0375,-0.0625 -0.001,0.025 -0.004,0.0488 -0.005,0.0725 0.21875,0.075 0.43875,0.14875 0.65875,0.225 0.002,-0.0362 0.006,-0.075 0.009,-0.11125 -0.2125,-0.0725 -0.42875,-0.145 -0.6425,-0.2175 0.0488,-0.0812 0.0975,-0.16125 0.14625,-0.24 0.17375,0.0563 0.34625,0.11 0.5225,0.16875 0.004,-0.045 0.008,-0.0875 0.0113,-0.13125 -0.15,-0.0512 -0.305,-0.10375 -0.46125,-0.15625 0.0662,-0.1075 0.13375,-0.21875 0.19875,-0.32625 l 1.22,-1.99 -0.1125,2.365 c -0.006,0.13375 -0.0125,0.255 -0.0188,0.3875 -0.16,-0.0538 -0.32375,-0.10875 -0.48625,-0.165 -0.0238,0.035 -0.0488,0.0713 -0.0713,0.1075 0.18,0.06 0.3675,0.12125 0.55125,0.18375 -0.004,0.0875 -0.007,0.17 -0.0125,0.2575 0.0475,-0.0738 0.09,-0.14125 0.1375,-0.21625 0.15625,0.0513 0.3075,0.1 0.46625,0.15375 -0.0662,0.0812 -0.12875,0.16375 -0.19375,0.24375 -0.13625,-0.0475 -0.275,-0.0937 -0.41125,-0.14 -0.002,0.0387 -0.004,0.075 -0.006,0.1125 0.11625,0.0388 0.23125,0.0788 0.34625,0.1175 -0.0275,0.0325 -0.0538,0.0675 -0.08,0.10125 -0.0913,-0.0313 -0.18125,-0.0612 -0.27125,-0.0925 -0.007,0.155 -0.015,0.30625 -0.0225,0.46125 -0.3375,0.42125 -0.6725,0.84375 -1.0075,1.2675 0.0125,-0.1425 0.025,-0.28375 0.0388,-0.42875 0.27,-0.4325 0.5625,-0.88875 0.855,-1.345 -0.22875,-0.0788 -0.45625,-0.155 -0.685,-0.2325 -0.0125,0.0188 -0.025,0.0388 -0.0375,0.0563 0.002,-0.0225 0.004,-0.045 0.006,-0.0675 -0.21875,-0.0738 -0.4375,-0.14875 -0.65625,-0.22125 -0.0313,0.46875 -0.0637,0.93625 -0.0962,1.41625 -0.2775,0.4175 -0.56,0.8425 -0.8475,1.27625 0.0812,-0.55125 0.13875,-1.10375 0.20375,-1.655 z m -0.85875,7.735 c 0.375,-0.61875 0.7475,-1.23 1.1275,-1.85625 -0.0263,0.38125 -0.0525,0.7625 -0.0775,1.14 -0.37625,0.60875 -0.7475,1.2225 -1.12625,1.82875 0.0225,-0.38375 0.05,-0.74375 0.0763,-1.1125 z m -6.5325,10.76875 c 1.655,-2.68625 3.255,-5.32625 4.845,-7.9875 0.1425,-0.23625 0.29,-0.47875 0.4325,-0.71375 0.02,0.2825 0.0375,0.565 0.0575,0.845 l -5.29625,8.4475 c -0.009,-0.19875 -0.0213,-0.39625 -0.0387,-0.59125 z m -0.875,-4.69 c 2.26375,-3.82625 4.33625,-7.30625 6.2675,-10.51375 -0.0137,0.37375 -0.0275,0.75125 -0.0412,1.125 -1.90125,2.86875 -3.9775,6 -6.22625,9.38875 z m 6.4,12.19875 c -1.83125,-1.91875 -3.6325,-3.88125 -5.34125,-5.84125 1.7725,-2.7925 3.52875,-5.57625 5.23,-8.35 0.001,0.0213 0.002,0.045 0.005,0.0662 0.1475,1.94 0.065,3.79375 0.10625,5.68875 0.02,2.65125 0.0175,5.37375 0,8.43625 z m -0.01,-26.0175 c -1.02625,1.33625 -2.0875,2.67375 -3.05875,4.1175 -1.66625,2.36 -3.3925,4.80375 -5.21375,7.3825 l 4.5825,-7.42875 c 1.10125,-1.95875 2.49375,-3.72875 3.745,-5.59 -0.0188,0.51 -0.0375,1.01125 -0.055,1.51875 z m 22.48,42.47875 c -1.29375,-0.0688 -2.50875,-0.12375 -3.63625,-0.25125 -1.12125,-0.12375 -2.16,-0.3275 -2.91375,-0.64 -0.19375,-0.0725 -0.355,-0.15875 -0.50625,-0.24 l -0.10625,-0.065 -0.0537,-0.03 -0.0113,-0.006 -0.355,-0.25875 -1.54125,-1.12625 c -1.01125,-0.75625 -2.0925,-1.4925 -3.04625,-2.265 l -2.785,-2.3375 c -0.93625,-0.7525 -1.855,-1.59625 -2.76875,-2.44375 -0.9125,-0.8475 -1.84625,-1.67 -2.7425,-2.5375 l -0.1525,-0.504 c 0.865,0.87875 1.805,1.66375 2.70375,2.5 0.9125,0.80375 1.80375,1.69625 2.7325,2.41875 1.845,1.51625 3.585,3.06125 5.71,4.5125 l 1.5275,1.105 0.7625,0.5525 0.1375,0.0987 0.0188,0.01 0.0462,0.0275 c 0.0675,0.0338 0.11625,0.0762 0.1975,0.11 0.5625,0.3025 1.50125,0.535 2.53375,0.68125 2.13375,0.31 4.55375,0.21125 7.50125,0.57125 0.3275,0.18125 0.65375,0.36125 1,0.57375 -1.6025,-0.32375 -2.95625,-0.3775 -4.2525,-0.45625 z m -6.0475,-73.23875 -0.42625,-0.585 -0.31125,-0.42625 -0.495,0.12375 c -2.975,0.74375 -5.88,1.75375 -8.615,3.1175 -2.7125,1.39375 -5.34875,2.95375 -7.7475,4.83 -4.88875,3.63625 -9.055,8.15 -12.615,13.06 l -0.0375,-0.33875 c 3.55875,-4.8875 7.73625,-9.3625 12.6175,-12.98125 4.825,-3.67375 10.37375,-6.48 16.34875,-7.9075 l 0.61625,-0.14875 0.41375,0.54375 0.29125,0.38375 -0.04,0.32875 z m 11.59125,13.3625 -2.595,-3.65 0.26125,0.1375 2.4275,3.375 c -0.0313,0.045 -0.0625,0.0913 -0.0937,0.1375 z m 23.965,-61.95125 -0.3725,-0.0313 -0.18625,-0.3225 c -1.06625,-1.8475 -2.1925,-3.79875 -3.0575,-5.29625 0.10125,0.004 0.19875,0.007 0.31,0.0112 0.7675,1.38375 1.7125,3.0875 2.88875,5.205 l 0.12875,0.23125 0.30125,0.04 c 1.62625,0.205 3.4675,0.50125 5.44375,1.2375 -0.63125,-0.16375 -2.89375,-0.8725 -5.45625,-1.075 z m 22.50125,12.76375 c -3.4725,-2.67625 -6.98375,-5.26375 -10.65125,-7.5025 0.6025,0.32125 1.25,0.71125 1.94625,1.15125 0.7,0.4275 1.45375,0.895 2.22,1.44875 1.59125,1.00875 3.3125,2.24875 5.14875,3.59625 3.0075,2.22 6.2425,4.8525 9.68,7.5225 -0.0713,0.0687 -0.14375,0.14 -0.215,0.21 -2.7575,-2.14875 -5.42,-4.33125 -8.12875,-6.42625 z M 138.71785,440.26 c -0.0387,-0.0538 -0.0775,-0.10875 -0.1175,-0.16375 1.36625,-1.8775 2.8575,-3.615 4.44375,-5.22125 2.67625,-2.62 5.45375,-4.98375 8.5075,-7.195 l 0.275,-0.1925 0.21875,-0.15125 0.1425,-0.09 0.56875,-0.35875 1.13875,-0.71625 2.275,-1.43625 4.54125,-2.86375 c 3.03,-1.90375 6.02,-3.835 8.99375,-5.795 l -0.205,0.4775 c -2.95875,1.925 -5.9225,3.835 -8.92875,5.71 l -4.5025,2.82375 -2.25625,1.415 -1.12875,0.70625 -0.635,0.405 L 151.50035,428 c -3.00625,2.18 -5.75375,4.51375 -8.3925,7.09875 -1.5775,1.58125 -3.05,3.30125 -4.39,5.16125 z m 51.865,-38.97375 c -6.54875,6.02375 -13.85125,11.2125 -21.31375,16.14125 -3.74875,2.44625 -7.52375,4.86125 -11.325,7.25 -1.91625,1.2225 -3.76,2.355 -5.7375,3.64875 -1.89125,1.34625 -3.65125,2.78625 -5.39,4.28625 l 0.0413,-0.185 c 1.73375,-1.50875 3.5175,-2.95125 5.40625,-4.29625 l 5.75,-3.6625 c 3.80125,-2.39875 7.57875,-4.82125 11.32375,-7.28 7.45875,-4.94875 14.75375,-10.15875 21.28,-16.20125 l -0.035,0.29875 z m -14.06625,9.7125 c 5.55375,-3.9575 10.92125,-8.16125 15.75,-12.8725 0.0788,0.0612 0.1575,0.1225 0.23625,0.18375 -5.22,5.09 -11.12875,9.4625 -15.98625,12.68875"
         style="fill:#231f20;fill-opacity:1;fill-rule:evenodd;stroke:none"
         id="path3732" />
      <path
         inkscape:connector-curvature="0"
         d="m 176.5166,410.99875 c 6.3225,-4.505 12.40375,-9.32875 17.7225,-14.855 l 0.3,3.13 c -3.6175,-2.715 -7.0075,-5.5475 -10.48,-8.2325 -3.4725,-2.67625 -6.98375,-5.26375 -10.65125,-7.5025 0.6025,0.32125 1.25,0.71125 1.94625,1.15125 0.7,0.4275 1.45375,0.895 2.22,1.44875 1.59125,1.00875 3.3125,2.24875 5.14875,3.59625 3.67625,2.71125 7.67125,6.04125 11.99,9.3 -0.085,-0.895 -0.17125,-1.79125 -0.2575,-2.69125 -5.65375,5.935 -12.465,11.02 -17.93875,14.655"
         style="fill:#ffffff;fill-opacity:1;fill-rule:evenodd;stroke:none"
         id="path3734" />
      <path
         inkscape:connector-curvature="0"
         d="m 169.50035,416.55375 c -2.95875,1.925 -5.9225,3.835 -8.92875,5.71 l -4.5025,2.82375 -2.25625,1.415 -1.12875,0.70625 -0.635,0.405 L 151.50035,428 c -3.00625,2.18 -5.75375,4.51375 -8.3925,7.09875 -2.60375,2.60875 -4.97125,5.5425 -6.815,8.98625 1.2725,-0.115 2.54625,-0.23125 3.805,-0.335 l -5.1,-7.17125 0.26125,0.1375 4.985,6.9275 -4.14625,0.34375 c 1.90875,-3.48875 4.31875,-6.45625 6.94625,-9.1125 2.67625,-2.62 5.45375,-4.98375 8.5075,-7.195 l 0.275,-0.1925 0.21875,-0.15125 0.1425,-0.09 0.56875,-0.35875 1.13875,-0.71625 2.275,-1.43625 4.54125,-2.86375 c 3.03,-1.90375 6.02,-3.835 8.99375,-5.795 l -0.205,0.4775"
         style="fill:#ffffff;fill-opacity:1;fill-rule:evenodd;stroke:none"
         id="path3736" />
      <path
         inkscape:connector-curvature="0"
         d="m 88.64035,475.26875 c 0.025,2.835 0.54875,5.63125 1.56375,8.21 1.01875,2.565 2.43375,5.0025 4.4275,6.9525 1.965,1.95125 4.21375,3.69375 6.8075,4.8975 1.2275,0.71625 2.62125,1.1375 3.9425,1.69 1.3525,0.4875 2.77375,0.8175 4.1575,1.23875 l 0.89,0.2725 0.36375,0.71 c 2.00625,3.91 4.29125,7.8425 6.94625,11.2625 0.66875,0.84875 1.3675,1.65125 2.09375,2.3875 0.3675,0.35 0.74375,0.6775 1.115,0.99625 0.375,0.22625 0.76375,0.5975 1.10875,0.7025 0.15375,0.0638 0.3975,0.21 0.47125,0.22375 l 0.8225,0.22375 c 0.575,0.1825 1.045,0.2425 1.51875,0.3175 0.45875,0.0925 0.98125,0.14875 1.5225,0.19125 0.52875,0.055 1.06125,0.10125 1.60875,0.11 -0.575,0.006 -1.13125,-0.0337 -1.685,-0.075 l -0.82875,-0.0588 -0.75125,-0.1075 -0.7525,-0.10125 -0.85,-0.21375 -0.42375,-0.1075 -0.21125,-0.0538 -0.10625,-0.0263 -0.0275,-0.008 -0.0125,-0.004 c 0.1875,0.0588 0.0488,0.0163 0.09,0.0288 l -0.004,-0.003 -0.035,-0.0175 c -0.185,-0.09 -0.37125,-0.175 -0.56125,-0.25375 -0.3825,-0.19 -0.7875,-0.4875 -1.18,-0.77125 -0.38,-0.3525 -0.79,-0.63125 -1.1525,-1.035 -0.7525,-0.7375 -1.46375,-1.55625 -2.13875,-2.4075 -2.68875,-3.4225 -4.93875,-7.255 -6.89125,-11.045 l -0.33,-0.64 -0.68875,-0.16875 c -5.665,-1.385 -11.05625,-3.85 -14.9375,-7.8975 -1.98875,-1.97375 -3.39375,-4.44125 -4.40875,-7.04125 -0.54,-1.29625 -0.81875,-2.6925 -1.13125,-4.07625 -0.085,-0.71 -0.17125,-1.42125 -0.2575,-2.135 -0.1,-0.71 -0.05,-1.445 -0.085,-2.16875"
         style="fill:#ffffff;fill-opacity:1;fill-rule:evenodd;stroke:none"
         id="path3738" />
      <path
         inkscape:connector-curvature="0"
         d="m 102.60785,478.48375 c 2.205,-3.52875 4.2375,-6.89875 6.29125,-10.33625 1.0425,-1.71625 2.08875,-3.4425 3.16,-5.20625 1.0125,-1.81125 2.01625,-3.69375 3.24875,-5.5325 -1.57125,-0.53375 -3.14375,-1.06625 -4.7375,-1.605 -0.1425,1.88875 -0.31125,3.84875 -0.5125,5.895 l -0.30875,0.89375 c 0.12375,-2.275 0.24625,-4.55 0.38875,-6.82375 1.85,0.62875 3.7,1.25625 5.545,1.88125 -1.0925,1.695 -2.025,3.49375 -2.99125,5.26875 -1.025,1.73875 -2.1175,3.4325 -3.17125,5.15125 l -6.42625,10.25 -0.48625,0.16375"
         style="fill:#ffffff;fill-opacity:1;fill-rule:evenodd;stroke:none"
         id="path3740" />
      <path
         inkscape:connector-curvature="0"
         d="m 146.85785,432.4275 c 1.73375,-1.50875 3.5175,-2.95125 5.40625,-4.29625 l 5.75,-3.6625 c 3.80125,-2.39875 7.57875,-4.82125 11.32375,-7.28 7.45875,-4.94875 14.75375,-10.15875 21.28,-16.20125 l -0.035,0.29875 c -6.54875,6.02375 -13.85125,11.2125 -21.31375,16.14125 -3.74875,2.44625 -7.52375,4.86125 -11.325,7.25 -1.91625,1.2225 -3.76,2.355 -5.7375,3.64875 -1.89125,1.34625 -3.65125,2.78625 -5.39,4.28625 l 0.0413,-0.185"
         style="fill:#ffffff;fill-opacity:1;fill-rule:evenodd;stroke:none"
         id="path3742" />
      <path
         inkscape:connector-curvature="0"
         d="m 136.3016,500.56125 c -1.6025,-0.32375 -2.95625,-0.3775 -4.2525,-0.45625 -1.29375,-0.0688 -2.50875,-0.12375 -3.63625,-0.25125 -1.12125,-0.12375 -2.16,-0.3275 -2.91375,-0.64 -0.19375,-0.0725 -0.355,-0.15875 -0.50625,-0.24 l -0.10625,-0.065 -0.0537,-0.03 -0.0263,-0.015 c -0.0213,-0.015 0.1725,0.1225 0.0888,0.0625 l -0.008,-0.005 -0.0112,-0.009 -0.0238,-0.0188 -0.38625,-0.28 -1.54125,-1.12625 c -1.01125,-0.75625 -2.0925,-1.4925 -3.04625,-2.265 l -2.785,-2.3375 c -0.93625,-0.7525 -1.855,-1.59625 -2.76875,-2.44375 -0.9125,-0.8475 -1.84625,-1.67 -2.7425,-2.5375 L 111.43035,487.4 c 0.865,0.87875 1.805,1.66375 2.70375,2.5 0.9125,0.80375 1.80375,1.69625 2.7325,2.41875 1.845,1.51625 3.585,3.06125 5.71,4.5125 l 1.5275,1.105 0.7625,0.5525 0.19125,0.13875 0.0238,0.0162 0.0125,0.009 c -0.045,-0.0313 0.1075,0.0775 -0.0987,-0.07 l 0.002,0.003 0.025,0.0125 0.0462,0.0275 c 0.0675,0.0338 0.11625,0.0762 0.1975,0.11 0.5625,0.3025 1.50125,0.535 2.53375,0.68125 2.13375,0.31 4.55375,0.21125 7.50125,0.57125 0.3275,0.18125 0.65375,0.36125 1,0.57375"
         style="fill:#ffffff;fill-opacity:1;fill-rule:evenodd;stroke:none"
         id="path3744" />
      <path
         inkscape:connector-curvature="0"
         d="m 95.7541,446.6475 c 3.55875,-4.8875 7.73625,-9.3625 12.6175,-12.98125 4.825,-3.67375 10.37375,-6.48 16.34875,-7.9075 l 0.61625,-0.14875 0.41375,0.54375 0.29125,0.38375 -0.04,0.32875 -0.42625,-0.585 -0.31125,-0.42625 -0.495,0.12375 c -2.975,0.74375 -5.88,1.75375 -8.615,3.1175 -2.7125,1.39375 -5.34875,2.95375 -7.7475,4.83 -4.88875,3.63625 -9.055,8.15 -12.615,13.06 l -0.0375,-0.33875"
         style="fill:#ffffff;fill-opacity:1;fill-rule:evenodd;stroke:none"
         id="path3746" />
    </g>
  </g>
</svg>
