<?xml version="1.0" encoding="UTF-8" standalone="no"?>
<!-- Created with Inkscape (http://www.inkscape.org/) -->

<svg
   xmlns:dc="http://purl.org/dc/elements/1.1/"
   xmlns:cc="http://creativecommons.org/ns#"
   xmlns:rdf="http://www.w3.org/1999/02/22-rdf-syntax-ns#"
   xmlns:svg="http://www.w3.org/2000/svg"
   xmlns="http://www.w3.org/2000/svg"
   xmlns:sodipodi="http://sodipodi.sourceforge.net/DTD/sodipodi-0.dtd"
   xmlns:inkscape="http://www.inkscape.org/namespaces/inkscape"
   width="431.44379"
   height="227.52592"
   id="svg3518"
   version="1.1"
   inkscape:version="0.48.3.1 r9886"
   sodipodi:docname="New document 26">
  <defs
     id="defs3520" />
  <sodipodi:namedview
     id="base"
     pagecolor="#ffffff"
     bordercolor="#666666"
     borderopacity="1.0"
     inkscape:pageopacity="0.0"
     inkscape:pageshadow="2"
     inkscape:zoom="0.35"
     inkscape:cx="219.29334"
     inkscape:cy="-169.09418"
     inkscape:document-units="px"
     inkscape:current-layer="layer1"
     showgrid="false"
     fit-margin-top="0"
     fit-margin-left="0"
     fit-margin-right="0"
     fit-margin-bottom="0"
     inkscape:window-width="819"
     inkscape:window-height="634"
     inkscape:window-x="352"
     inkscape:window-y="90"
     inkscape:window-maximized="0" />
  <metadata
     id="metadata3523">
    <rdf:RDF>
      <cc:Work
         rdf:about="">
        <dc:format>image/svg+xml</dc:format>
        <dc:type
           rdf:resource="http://purl.org/dc/dcmitype/StillImage" />
        <dc:title></dc:title>
      </cc:Work>
    </rdf:RDF>
  </metadata>
  <g
     inkscape:label="Layer 1"
     inkscape:groupmode="layer"
     id="layer1"
     transform="translate(-155.70666,-135.74208)">
    <path
       inkscape:connector-curvature="0"
       id="path3070"
       style="fill:#182442;fill-opacity:1;fill-rule:evenodd;stroke:none"
       d="m 456.05937,156.80171 c 4.75,-3.645 13.125,-6.745 18.4125,-8.385 8.9375,-2.735 19.325,-4.55875 29.7125,-1.82375 6.75,1.82375 18.9625,6.56375 22.975,10.9375 5.475,6.38125 11.4875,14.40375 12.575,27.16375 0.55,7.10875 -1.6375,9.6625 -1.45,14.4 0,1.6425 4,1.095 5.825,1.095 5.1125,0 10.2125,0 14.225,1.64 8.925,3.645 12.7625,7.475 18.225,14.585 5.1125,6.5625 10.93747,15.13125 10.57497,27.1625 -0.55,13.30875 -15.67497,23.33375 -19.49997,26.98 4.7375,3.82875 10.025,15.6775 9.475,22.05875 -0.3625,4.55625 -2.0125,9.6625 -3.4625,14.03625 -3.825,11.30375 -10.025,17.86625 -18.775,24.97625 -21.875,17.86625 -51.5875,21.87625 -78.9375,19.6875 -18.6,-1.4575 -22.975,-8.2025 -36.1,-11.12125 -1.275,-0.18 -3.275,-1.275 -5.4625,-1.0925 -2.375,0 -5.475,2.005 -8.3875,4.375 -6.3875,5.105 -13.675,8.75125 -20.7875,11.6675 -10.3875,4.375 -24.975,7.83875 -36.4625,8.02125 -14.3875,0.365 -25.7,0.1825 -38.275,-8.02125 -4.375,-2.91625 -6.5625,-6.5625 -12.575,-6.745 -3.2875,0 -7.475,2.37 -11.3125,3.46375 -9.475,2.55125 -18.775,4.92375 -28.8,3.46375 -14.7625,-2.18875 -29.16498,-6.9275 -41.37998,-13.67375 -8.75,-6.74375 -17.50125,-14.03625 -21.5125,-26.25125 -27.34375,-0.90875 -56.695,-19.14 -58.88375,-39.92125 -3.28125,-31.72 21.695,-65.81125 58.88375,-62.53125 1.64,-4.55625 3.6475,-9.115 5.28625,-14.035 9.48125,-21.8775 40.46873,-25.8875 59.61873,-25.705 13.4875,0.36375 26.975,4.1925 37.725,12.76125 2.1875,-7.6575 8.025,-18.7775 16.4125,-26.25125 5.8375,-5.65125 14.4,-10.02625 21.5125,-14.0375 6.2,-3.465 20.2375,-8.9325 27.7125,-8.9325 5.825,-2.00625 15.125,-0.5475 21.5125,0.36375 8.0125,1.095 13.3,1.6425 21.1375,4.5575 6.3875,2.37 14.4125,5.105 19.325,8.0225 2.7375,1.45875 8.2125,4.55625 10.9375,7.10875 l 0,0 z m -70.9125,-18.23 c -1.6375,0.18375 -4.55,0.91125 -5.1,1.09375 -1.825,0.365 -5.65,1.095 -7.1125,2.9175 8.575,-1.64125 18.05,-2.5525 26.6125,-2.37 -5.65,-1.095 -8.2,-2.005 -14.4,-1.64125 l 0,0 z m -18.05,5.83375 c 0.9125,-0.18375 5.1125,-1.275 3.65,-1.8225 -1.275,-0.1825 -6.75,1.4575 -3.65,1.8225 l 0,0 z m 34.275,-3.82875 c 0.1875,0.18375 0.9125,0.18375 1.1,-0.18 -0.55,-0.73125 -1.825,-0.55 -2.1875,-0.18375 0.175,0.36375 0.5375,0.5475 1.0875,0.36375 l 0,0 z m 1.825,0.365 c 0.3625,0 1.275,-0.18125 1.275,-0.365 -0.1875,-0.36375 -0.55,-0.36375 -0.725,-0.54625 -0.1875,0 -0.55,0 -0.7375,0.1825 -0.5375,0.18375 -0.175,0.5475 0.1875,0.72875 l 0,0 z m 2.9125,0 c 0,0 0.7375,0 0.55,-0.365 -0.55,-0.36375 -1.4625,-0.36375 -1.6375,-0.18 -0.1875,0.545 0.5375,0.7275 1.0875,0.545 l 0,0 z m 2.0125,0.1825 c 0,0.1825 0.175,0.1825 0.725,0.1825 0.1875,0 1.0875,0.36375 1.275,0.18125 0,-0.18125 -0.9125,-0.91125 -1.0875,-0.91125 -0.55,0 -1.1,0 -0.9125,0.5475 l 0,0 z m 5.825,3.46375 c -16.4,-2.005 -32.9875,-1.4575 -48.85,4.375 -11.4875,4.375 -20.2375,12.9425 -29.7125,20.05375 -5.2875,5.285 -8.025,14.4 -12.4,20.235 4.375,4.73875 -0.9125,8.75 -6.0125,5.28625 -9.1125,-7.8375 -16.9625,-9.84375 -28.9875,-11.84875 -13.8625,-2.55375 -30.45,0.7275 -43.38873,5.8325 -2.9175,1.27625 -10.57625,5.835 -14.94875,9.48 -4.9225,4.375 -8.56875,9.66125 -10.5725,16.0425 2.36875,1.27625 2.55125,6.745 -2.37125,5.28625 -13.30875,-4.01 -31.71875,4.37625 -39.0125,15.495 -8.56875,13.1275 -11.30125,21.33 -9.115,37.3725 1.275,9.6625 17.1375,24.4275 29.89625,23.15125 2.19,-0.18125 2.37,3.465 -0.36375,3.465 -10.5725,-0.18375 -18.04875,-3.465 -24.4275,-10.0275 3.09875,9.48 13.30625,11.85125 24.06375,14.03875 9.66125,2.00375 19.87125,0.90875 29.35,1.8225 3.28,0.18125 2.5525,2.5525 -1.095,2.18625 -9.845,-0.7275 -19.3225,0.91125 -28.255,-0.54625 3.645,1.8225 7.475,2.37 12.0325,2.37 2.36875,0.18125 6.3775,-1.2775 8.56375,2.55125 3.285,-1.09375 7.47625,-0.1825 6.20125,3.6475 9.2975,22.4225 27.16498,32.63125 50.49248,35.73 11.675,1.45875 26.625,0.1825 34.275,-7.29125 0.1875,-2.9175 3.4625,-9.1175 8.2,-4.19375 9.3,9.66375 22.6125,11.6675 35.1875,12.21375 9.6625,0.365 20.7875,0.9125 29.5375,0.365 16.225,-0.91125 27.3375,-3.46375 37.7375,-9.115 4.9125,-2.73375 11.1125,-7.10875 13.4875,-10.2075 2.7375,-4.9225 7.65,-2.73625 5.825,0 -0.725,0.91125 -0.725,2.91625 0.7375,3.645 2.1875,1.27625 11.3,3.645 15.3125,4.375 23.7,4.74 54.1375,1.46 77.6625,-4.375 7.65,-1.825 16.225,-5.65125 21.6875,-9.845 6.5625,-5.1025 14.775,-13.67125 14.775,-23.51625 0.175,-18.23 -5.1125,-23.51625 -11.3125,-32.265 10.4,-9.29875 20.2375,-29.17 14.0375,-50.8625 -1.275,-4.01125 -7.8375,-9.48125 -14.0375,-12.76125 -3.825,-2.005 -9.8375,-3.2825 -15.8625,-3.1 -2.725,0 -4.55,1.82125 -7.1,1.46 -2.375,-0.365 -4.925,-1.825 -3.65,-3.28375 1.1,-1.4575 2.375,-2.55 2.375,-4.55625 0.3625,-5.285 -1.4625,-13.49 -4.0125,-20.7825 -3.1,-8.75 -10.025,-18.595 -18.4125,-21.8775 -5.475,-2.36875 -14.225,-4.19125 -19.1375,-4.37375 -9.4875,-0.36375 -22.25,2.37 -30.8125,7.11 -1.275,0.72875 -3.2875,3.28125 -4.5625,3.645 -3.4625,1.2775 -5.65,-1.4575 -8.0125,-2.91625 -5.475,-6.1975 -27.175,-12.57875 -35.0125,-13.49 l 0,0 z m -87.3125,30.26125 c 1.6375,-2.005 4.9125,-4.00875 5.825,-6.38125 0.55,-1.4575 1.2875,-4.1925 0,-2.915 -2.725,2.73375 -4.9125,5.65125 -5.825,9.29625 l 0,0 z m -65.45,2.1875 c -4.5625,0.365 -6.7375,1.09375 -11.48373,2.37125 -1.46125,0.1825 -2.735,0.7275 -4.01125,1.4575 -1.09375,0.54625 -1.45875,1.82375 0.18125,1.27625 3.6475,-1.45875 8.93873,-2.37 11.85123,-2.9175 8.025,-1.64 37,-2.37 53.4125,6.3825 -17.8625,-12.03375 -33.9125,-9.3 -49.95,-8.57 l 0,0 z m 246.1,-26.06875 c 0.9125,0.18375 0.7375,-0.54625 -0.3625,-0.91125 -1.6375,-0.73 -3.825,-1.27625 -5.65,-0.91 1.825,0.3625 3.65,1.82125 6.0125,1.82125 l 0,0 z m -266.33373,32.9975 c 1.4575,0 2.73375,-1.64125 2.55,-2.37 -0.72875,0 -3.645,1.82125 -2.55,2.37 l 0,0 z m 2.18375,0.54625 c -2.55,1.45875 -6.3775,3.28125 -8.92875,6.015 -1.46125,1.825 -2.5525,3.28125 0.18,1.6425 3.10125,-1.82375 4.92375,-4.1925 10.02875,-6.3825 2.55125,-1.0925 4.92,-2.00375 7.83248,-2.915 2.2,-0.73 2.2,-1.09375 0.375,-0.9125 -3.10373,0.54875 -6.75123,1.82375 -9.48748,2.5525 l 0,0 z m -5.6475,0.72875 c 1.0925,0.1825 2.7325,-1.09375 2.18625,-1.64 -0.72875,-0.18375 -2.73375,0.91125 -2.18625,1.64 l 0,0 z m -9.1175,7.65625 c 1.095,-0.90875 2.19,-2.37 3.28375,-3.28125 1.45625,-1.275 2.5525,-1.8225 3.645,-3.09875 0.9125,-0.91 2.005,-2.005 0,-0.91 -3.09875,1.64 -6.0175,3.645 -7.47625,6.015 -1.0925,1.4575 -1.45875,2.91625 0.5475,1.275 l 0,0 z m 281.28998,-41.56375 c -0.55,0 -0.9125,0.36375 -0.3625,0.5475 0.55,0.18125 1.45,0.72875 2.1875,0.72875 -0.1875,-0.9125 -1.1,-1.4575 -1.825,-1.27625 l 0,0 z m 4.1875,2.18625 c 0.1875,0 0.1875,-0.545 -0.3625,-0.545 -0.55,-0.1825 -1.275,-0.73 -1.275,-0.1825 0,0.54625 1.275,0.91 1.6375,0.7275 l 0,0 z m -284.74623,42.84125 c 0.91,-0.7275 2.1875,-2.37 2.1875,-3.28125 0,-0.91 -1.64125,1.2775 -2.7375,2.55375 -0.90875,1.275 -0.545,1.4575 0.55,0.7275 l 0,0 z m 307.72123,-12.03125 c -0.3625,-5.46875 -2.0125,-10.20875 -4.5625,-14.94875 -2.3625,-4.55625 -5.275,-8.02 -7.8375,-10.9375 -1.275,-1.27625 -5.4625,-1.82375 -2.725,0.36375 7.8375,6.19875 12.575,20.235 14.2125,28.98625 0.1875,2.37 1.1,-1.0925 0.9125,-3.46375 l 0,0 z m -367.15498,52.13875 c -6.015,7.10875 -9.295,16.22375 -8.93,25.7025 0.1825,3.6475 4.01,2.735 3.8275,-0.36375 -0.5475,-10.9375 5.83375,-24.245 13.12625,-31.72 2.005,-2.1875 6.1975,-6.38 11.12,-9.11625 2.37,-1.45625 5.105,-2.735 0.1825,-1.275 -8.74875,2.37 -15.13125,11.85 -19.32625,16.7725 l 0,0 z m -8.7475,43.2025 c 1.45875,5.6525 4.01125,6.56375 6.01625,8.20625 -1.64125,-4.195 -2.5525,-15.86125 -7.6575,-20.05375 0.365,3.46375 0,8.75 1.64125,11.8475 l 0,0 z m 405.61498,-12.94125 c 6.0125,-2.9175 9.6625,-7.65625 11.85,-13.30875 1.825,-5.10375 2.9125,-12.21375 2.1875,-18.0475 -0.55,-4.1925 -1.275,-8.5675 -4.0125,-11.12 2.375,13.49 1.275,28.07375 -10.025,42.47625 l 0,0 z m 16.58747,-17.86625 c 1.275,-1.09375 2.925,-8.20375 0.7375,-9.84375 -0.9125,2.9175 -1.09997,8.02 -0.7375,9.84375 l 0,0 z m -8.74997,41.93 c -0.725,-5.2875 -4.55,-13.85625 -8.925,-17.13625 4.925,7.47375 6.7375,14.765 7.2875,24.42875 0.3625,6.37875 2.1875,-3.6475 1.6375,-7.2925 l 0,0 z m -232.8,65.81 c 7.1125,3.64625 18.6,3.46375 26.4375,3.46375 7.475,0 17.6875,-1.8225 24.425,-3.8275 -9.475,0.36375 -18.225,2.36875 -26.425,1.82125 -7.1125,-0.54625 -12.5875,0.365 -19.5125,-2.005 -2,-0.72875 -5.1,-3.09875 -10.025,-1.82125 1.275,0.91 3.1,1.27375 5.1,2.36875 l 0,0 z m 22.0625,-1.27625 c 0.9125,-0.9125 -7.1,-0.72875 -5.2875,0.365 1.1,0.91125 4.0125,0.91125 5.2875,-0.365 l 0,0 z m 3.1,0.365 c 0.1875,0.18125 1.6375,0 1.6375,-0.5475 0.1875,-0.36375 -0.3625,-0.73 -0.5375,-0.73 -0.1875,-0.18 -2.375,0.18375 -2.5625,0.73 -0.725,0.5475 1.1,0.36375 1.4625,0.5475 l 0,0 z m 2.925,-0.73 c -0.375,0.91125 1.8125,1.64125 2.725,-0.5475 -0.725,-0.18 -2.55,0 -2.725,0.5475 l 0,0 z m 8.75,0.1825 c 0,-0.73 -4.0125,-0.36375 -5.475,1.095 1.275,0.36375 4.2,-0.36625 5.475,-1.095 l 0,0 z m 117.2125,-7.29125 c 14.4,-0.9125 39.7375,-6.015 51.225,-14.58375 -4.375,2.005 -14.4,5.46875 -19.5125,6.745 -24.05,5.64875 -39.7375,6.5625 -67.625,4.01125 10.575,3.28125 25.525,4.37375 35.9125,3.8275" />
  </g>
</svg>
