<?xml version="1.0" encoding="UTF-8" standalone="no"?>
<!-- Created with Inkscape (http://www.inkscape.org/) -->

<svg
   xmlns:dc="http://purl.org/dc/elements/1.1/"
   xmlns:cc="http://creativecommons.org/ns#"
   xmlns:rdf="http://www.w3.org/1999/02/22-rdf-syntax-ns#"
   xmlns:svg="http://www.w3.org/2000/svg"
   xmlns="http://www.w3.org/2000/svg"
   xmlns:sodipodi="http://sodipodi.sourceforge.net/DTD/sodipodi-0.dtd"
   xmlns:inkscape="http://www.inkscape.org/namespaces/inkscape"
   width="227.09601"
   height="102.50585"
   id="svg3319"
   version="1.1"
   inkscape:version="0.48.3.1 r9886"
   sodipodi:docname="New document 13">
  <defs
     id="defs3321" />
  <sodipodi:namedview
     id="base"
     pagecolor="#ffffff"
     bordercolor="#666666"
     borderopacity="1.0"
     inkscape:pageopacity="0.0"
     inkscape:pageshadow="2"
     inkscape:zoom="0.35"
     inkscape:cx="165.69086"
     inkscape:cy="-240.17564"
     inkscape:document-units="px"
     inkscape:current-layer="layer1"
     showgrid="false"
     fit-margin-top="0"
     fit-margin-left="0"
     fit-margin-right="0"
     fit-margin-bottom="0"
     inkscape:window-width="713"
     inkscape:window-height="612"
     inkscape:window-x="65"
     inkscape:window-y="24"
     inkscape:window-maximized="0" />
  <metadata
     id="metadata3324">
    <rdf:RDF>
      <cc:Work
         rdf:about="">
        <dc:format>image/svg+xml</dc:format>
        <dc:type
           rdf:resource="http://purl.org/dc/dcmitype/StillImage" />
        <dc:title></dc:title>
      </cc:Work>
    </rdf:RDF>
  </metadata>
  <g
     inkscape:label="Layer 1"
     inkscape:groupmode="layer"
     id="layer1"
     transform="translate(-209.30914,-189.68069)">
    <path
       inkscape:connector-curvature="0"
       id="path3042"
       style="fill:#182442;fill-opacity:1;fill-rule:evenodd;stroke:none"
       d="m 435.60006,235.63481 c 2.7725,1.70625 -2.135,4.47875 -6.8275,6.6125 -10.455,4.48 -19.63,12.16125 -29.44375,18.77625 -2.13625,1.49375 -4.9075,2.9875 -7.04125,4.90625 -0.85375,0.64125 -2.135,2.77375 -3.2025,3.62875 -1.065,0.64 -2.5575,1.06625 -3.62625,1.705 -4.26625,2.98875 -9.17375,6.82875 -13.2275,10.2425 -1.4925,2.34625 -4.48,4.6925 -5.975,5.5475 -1.705,1.705 -4.905,6.18625 -9.1725,4.90625 -2.98875,-1.0675 -2.135,-4.90625 -1.495,-8.1075 0.85375,-4.69375 0.64125,-11.09375 1.495,-16.00125 0.42625,-4.26625 1.49375,-9.175 -1.06625,-13.65625 -11.735,-0.8525 -24.7525,0.855 -37.765,0.855 -7.89375,0 -16.21625,-1.7075 -23.89625,-0.215 -1.495,0.215 -2.77375,1.49375 -4.2675,1.49375 -1.49375,0 -4.26875,-0.85375 -5.76125,-1.06625 -6.40125,-0.85375 -13.44125,-0.6375 -20.26875,0 -1.70625,0 -4.26625,1.7075 -6.61375,1.92 -5.12,0 -12.80125,-1.7075 -19.20125,-0.42625 -4.695,0.85125 -10.24125,0 -16.21625,1.70875 -1.70625,0.425 -3.84125,1.9175 -5.33375,1.9175 -3.84125,0.855 -7.25375,-0.63875 -7.25375,-5.97375 -0.855,-5.3325 2.77375,-10.6675 2.34625,-15.7875 -0.2125,-2.98625 -2.1325,-5.5475 0.21375,-7.89375 4.2675,-3.415 6.40125,-0.4275 9.6,-0.64125 8.53375,-0.425 18.775,-0.85375 26.24375,-3.41375 8.96,0.4275 22.40125,0.2125 31.15,-3.41125 3.6275,1.2775 6.61375,1.2775 10.2425,0.85 11.52,-1.705 27.94875,-1.06625 41.605,-2.13375 3.41375,-0.21375 7.2525,-1.06375 10.45375,-1.27875 4.90625,-0.2125 11.94625,1.49375 14.29375,-1.49375 0.42875,-10.0275 -1.06625,-19.62875 -0.64,-28.165 2.135,-1.705 2.9875,-1.91625 6.18625,0 3.8425,2.34875 5.76375,5.1225 10.03,7.68375 2.985,1.92 8.96,1.49125 9.60125,5.9725 3.415,2.3475 7.04,4.48125 10.45375,6.4025 1.495,0.85125 2.56125,0.42625 4.26875,1.27875 1.28,0.64 3.4125,2.5625 4.6925,3.20125 11.94625,6.39875 23.25625,12.80125 35.41875,20.05625 l 0,0 z m -74.465,-17.06875 0,0 c 4.27,-4.055 7.25625,-9.175 10.67125,-14.08375 -3.84125,-1.92 -6.18875,-5.3325 -10.67125,-6.4 -0.42375,6.61375 -1.49125,12.8 0,20.48375 l 0,0 z m 13.23,-10.02875 0,0 c -9.81375,12.58875 -18.56125,26.03125 -27.5225,39.2575 -0.85375,0.4275 -3.20125,0.855 -4.05375,0 0.8525,-1.7075 -0.4275,-1.92 -0.2125,-4.05375 4.6925,-5.54625 10.24,-10.0275 12.8,-17.92375 -3.4125,-0.85125 -9.175,-1.06375 -12.8,0 -2.3475,0.6425 -7.04125,6.19 -8.11,8.10875 -2.3475,3.415 -5.76,7.68125 -6.61375,11.30875 -0.63875,1.28 -2.34625,2.13375 -5.12,1.4925 -1.705,-1.91875 -0.855,-3.84 0.64,-5.75875 4.90625,-3.8425 8.74625,-10.24125 11.735,-14.7225 -5.12,1.06625 -9.815,-0.21125 -13.23,1.28125 -3.19875,1.4925 -8.5325,10.24125 -11.30625,13.015 -2.13375,3.4125 -3.2,8.3175 -8.535,8.7475 -1.28,0.21375 -2.77375,-3.6275 0,-5.76125 5.335,-4.2675 9.17625,-10.02875 12.5875,-16.21625 -9.59875,-0.2125 -13.8675,0.215 -17.92,5.12125 -4.90875,5.975 -8.10875,12.375 -12.37625,17.9225 4.90875,-0.21375 10.24125,0 15.15,0 5.11875,0.2125 10.66625,-0.64 15.78625,-0.64 2.5625,0 4.90875,0.8525 7.46875,0.64 1.28125,0 3.20125,-1.06625 4.48125,-1.28 11.52125,-0.85375 20.9075,1.91875 31.15,-2.13375 1.49375,-0.64 3.84125,0.8525 5.12,1.9175 0.4275,-1.065 6.615,-11.73375 7.89375,-12.3725 4.27,-8.7475 13.01625,-11.94875 16.6425,-21.33625 -4.26625,-2.34625 -7.68,-7.04125 -13.655,-6.61375 l 0,0 z m 16.855,10.24125 c -1.70625,2.985 -3.41375,4.90875 -5.12125,7.03875 -0.64,1.0675 -1.27875,2.135 -2.1325,3.415 -2.3475,2.98875 -5.9725,5.33625 -8.10625,8.32125 -0.85375,1.28 -0.6425,2.98875 -1.495,4.05375 -2.77375,4.055 -5.97375,7.89625 -9.175,11.735 -1.70625,2.56 -2.13125,6.18875 -2.34625,8.1075 0,5.5475 -1.4925,8.32125 -1.28125,14.935 4.055,-1.065 4.2675,-5.33375 6.18875,-8.96125 0.64,-1.28125 2.55875,-1.49375 4.48,-2.985 11.735,-13.6575 21.33625,-24.96375 32.2175,-39.26 -3.84125,-1.705 -8.7475,-6.4 -13.22875,-6.4 l 0,0 z m 17.7075,8.53375 0,0 c -12.37375,12.1625 -20.05375,25.1775 -32.00125,37.765 -1.27875,1.065 -0.21375,3.62625 -1.495,4.48125 -4.26625,1.705 -6.39875,6.4 -8.96,9.81375 3.6275,0.2125 11.73625,-8.32125 14.50875,-10.24 4.26625,-2.99 8.7475,-5.5475 12.5875,-9.17625 10.24125,-6.61375 17.06875,-12.16125 26.8825,-19.41375 2.3475,-1.495 3.8425,-2.3475 6.19,-3.41625 -5.335,-4.47875 -11.09625,-7.04 -17.7125,-9.81375 l 0,0 z m -129.505,2.135 c -4.695,5.54625 -8.3225,10.88 -13.23,16.215 1.0675,1.49375 0,3.41375 -1.06625,5.11875 5.97375,-0.2125 9.81375,-0.2125 17.06875,-0.2125 -1.4925,-1.27875 -1.92125,-2.13375 -1.0675,-4.05375 3.415,-8.32 9.60125,-10.66625 13.22875,-18.135 -5.12,0.425 -9.81375,0.8525 -14.93375,1.0675 l 0,0 z m -19.4175,1.4925 c -4.055,3.2 -6.8275,7.46875 -9.3875,12.1625 -3.415,1.91875 -5.76,4.48 -6.8275,8.53125 4.9075,-0.425 9.3875,-0.63875 14.93625,-0.8525 -0.42875,-0.63875 -1.495,-2.77125 0.21125,-4.05375 5.335,-4.90625 9.60125,-10.02875 13.4425,-16.4275 -4.055,0 -8.32125,0.21375 -12.375,0.64 l 0,0 z m -19.63,2.34625 c -0.85375,3.4125 -8.3175,8.7475 -11.3075,13.65625 -1.4925,3.2 -3.62625,4.69125 -5.12,6.4 2.98625,-0.4275 8.53375,0.21375 11.73375,-1.49125 4.90875,-6.83 13.22875,-12.1625 16.2175,-19.84375 -4.2675,0.21375 -7.255,1.06625 -11.52375,1.27875 l 0,0 z m -23.68125,5.1225 0,0 c -1.49375,5.97375 1.4925,10.24125 1.0675,15.36 1.7075,0.21375 2.56,0.42625 3.83875,-0.42625 -0.63875,-0.8525 -1.065,-1.70875 -0.85375,-3.41375 2.56375,-7.04125 8.75,-9.1725 10.66875,-14.935 -5.76125,0.4275 -10.88,0.64125 -14.72125,3.415" />
  </g>
</svg>
