<?xml version="1.0" encoding="UTF-8" standalone="no"?>
<!-- Created with Inkscape (http://www.inkscape.org/) -->

<svg
   xmlns:dc="http://purl.org/dc/elements/1.1/"
   xmlns:cc="http://creativecommons.org/ns#"
   xmlns:rdf="http://www.w3.org/1999/02/22-rdf-syntax-ns#"
   xmlns:svg="http://www.w3.org/2000/svg"
   xmlns="http://www.w3.org/2000/svg"
   xmlns:sodipodi="http://sodipodi.sourceforge.net/DTD/sodipodi-0.dtd"
   xmlns:inkscape="http://www.inkscape.org/namespaces/inkscape"
   width="198.87119"
   height="278.99304"
   id="svg10672"
   version="1.1"
   inkscape:version="0.48.3.1 r9886"
   sodipodi:docname="New document 37">
  <defs
     id="defs10674" />
  <sodipodi:namedview
     id="base"
     pagecolor="#ffffff"
     bordercolor="#666666"
     borderopacity="1.0"
     inkscape:pageopacity="0.0"
     inkscape:pageshadow="2"
     inkscape:zoom="0.35"
     inkscape:cx="277.29274"
     inkscape:cy="-3.3606226"
     inkscape:document-units="px"
     inkscape:current-layer="layer1"
     showgrid="false"
     fit-margin-top="0"
     fit-margin-left="0"
     fit-margin-right="0"
     fit-margin-bottom="0"
     inkscape:window-width="472"
     inkscape:window-height="415"
     inkscape:window-x="1294"
     inkscape:window-y="24"
     inkscape:window-maximized="0" />
  <metadata
     id="metadata10677">
    <rdf:RDF>
      <cc:Work
         rdf:about="">
        <dc:format>image/svg+xml</dc:format>
        <dc:type
           rdf:resource="http://purl.org/dc/dcmitype/StillImage" />
        <dc:title></dc:title>
      </cc:Work>
    </rdf:RDF>
  </metadata>
  <g
     inkscape:label="Layer 1"
     inkscape:groupmode="layer"
     id="layer1"
     transform="translate(-97.70726,-250.00851)">
    <g
       id="g10463"
       transform="translate(-860.74684,-488.44024)">
      <path
         inkscape:connector-curvature="0"
         d="m 971.88285,844.80375 c -4.6825,10.4025 -8.85625,19.535 -13.42875,30.065 4.12875,-11.02 8.50375,-20.0975 13.42875,-30.065"
         style="fill:#ffffff;fill-opacity:1;fill-rule:evenodd;stroke:none"
         id="path3570" />
      <path
         inkscape:connector-curvature="0"
         d="m 1038.0041,812.7475 c -0.6737,1.12375 -1.2987,2.41625 -1.83,3.7875 -0.2237,0.69 -0.5487,1.3875 -0.6762,2.10875 -0.1113,0.72 -0.255,1.44375 -0.3138,2.155 -0.6112,5.755 0.3888,11.49 2.7338,16.81625 1.1975,2.65875 2.7625,5.25125 5.0087,7.55 1.1063,1.15375 2.4538,2.1975 3.9938,3.04625 1.5525,0.85 3.3637,1.4 5.24,1.59625 0.46,0.045 0.9337,-10e-4 1.405,-0.0213 0.4737,-0.0263 0.9437,-0.0575 1.3825,-0.15 3.7262,-0.52625 6.7375,-2.36 9.0775,-4.37625 0.5412,-0.4275 1.0062,-0.88875 1.46,-1.355 l 0.6912,-0.69875 0.3438,-0.35 0.085,-0.0875 0.3025,-0.375 0.1275,-0.16625 c 0.35,-0.46375 0.6762,-0.8625 1.045,-1.37875 0.4312,-0.69875 0.8487,-1.41375 1.2425,-2.13875 1.315,-2.67375 1.9312,-5.52 2.065,-8.2875 0.1725,-3.605 -0.5413,-7.0375 -1.5088,-10.2425 -0.755,-2.46 -1.7425,-4.815 -2.9437,-7.07875 -1.1838,-2.2775 -2.6825,-4.3975 -4.4888,-6.35875 -0.6187,-0.6925 -1.5062,-1.42 -1.9912,-1.98375 -1.26,-1.31375 -2.64,-2.56375 -4.4313,-3.50875 -1.77,-0.90625 -3.9462,-1.285 -6.1825,-1.19 -1.0962,0 -2.24,0.2925 -3.2975,0.57875 -0.52,0.225 -1.0325,0.44875 -1.5087,0.72625 -0.515,0.17875 -0.9475,0.49125 -1.3825,0.78125 -0.8925,0.58625 -1.5113,1.385 -2.1013,2.1175 l -0.2187,0.27625 c -0.028,0.055 -0.09,0.0713 -0.089,0.1575 -0.032,0.0438 -0.076,0.0762 -0.1012,0.13 l -0.255,0.6575 -0.4563,1.26 c -0.1137,0.3625 -0.1512,0.735 -0.2437,1.05625 -0.115,0.28 -0.2325,0.56625 -0.3525,0.8575 -0.245,0.5475 -0.3238,1.115 -0.4888,1.65375 -0.3387,1.0775 -0.4537,2.21875 -0.7637,3.54625 0.215,-0.71875 0.4212,-1.41375 0.62,-2.07625 0.2037,-0.6675 0.515,-1.26875 0.7537,-1.85875 0.225,-0.59625 0.5738,-1.10125 0.855,-1.5875 0.035,-0.0587 0.071,-0.11875 0.115,-0.1725 -0.01,-0.0913 0.044,-0.1375 0.064,-0.20625 0.056,-0.1275 0.11,-0.25125 0.1637,-0.37375 0.1188,-0.2375 0.2663,-0.4475 0.39,-0.655 0.7913,-0.915 1.7075,-1.22875 2.6613,-1.59875 -0.4525,0.38625 -0.9663,0.7975 -1.4313,1.26375 -0.385,0.54125 -0.8175,1.05625 -1.1237,1.6125 -0.245,0.5425 -0.565,0.9875 -0.8225,1.46625 -0.2138,0.49125 -0.4325,0.9875 -0.6463,1.47375 0.2525,-0.445 0.51,-0.9 0.765,-1.35125 0.3088,-0.42 0.64,-0.83125 0.95,-1.29375 0.32,-0.48 0.7713,-0.86375 1.1663,-1.305 0.4062,-0.43375 0.955,-0.73125 1.4462,-1.11125 1.0975,-0.57875 2.3613,-1.1325 3.83,-1.085 -1.7975,0.4025 -3.0912,1.25375 -4.0337,2.19875 -0.9325,0.93125 -1.8238,1.76625 -2.3925,2.78875 -0.785,1.4 -0.2238,0.55875 0.835,-0.4925 2.0475,-1.23125 3.8587,-2.02125 5.625,-1.37 -0.2813,0.0213 -0.5375,0.0388 -0.7675,0.115 -0.235,0.06 -0.4775,0.0625 -0.6788,0.21875 -0.2012,0.14 -0.4387,0.19125 -0.6925,0.285 -0.2362,0.14125 -0.4925,0.28 -0.79,0.425 0.5013,-0.09 0.835,-0.185 1.1325,-0.16875 0.3075,0.0488 0.5038,0.0237 0.705,-0.0287 0.98,0.009 1.7538,0.32625 2.6163,0.86625 0.205,0.1 0.425,0.2775 0.6412,0.45375 0.215,0.15875 0.415,0.3275 0.675,0.47 0.4938,0.2475 0.9988,0.6175 1.515,0.965 1.015,0.7875 2.0463,1.68625 3.0288,2.72 0.97,1.0425 1.9387,2.13875 2.8862,3.3 1.8275,2.10125 3.8988,6.56 4.04,10.81875 0.094,2.1125 -0.2962,4.0725 -0.9762,5.51625 -0.1825,0.32625 -0.3288,0.7775 -0.51,0.94125 -0.175,0.225 -0.2925,0.41375 -0.45,0.64375 -0.3113,0.34125 -0.61,0.67 -0.8938,0.98375 l -0.2075,0.22125 -0.1012,0.1075 -0.05,0.0512 -0.013,0.0125 -0.01,0.007 c 0.5225,-0.6525 0.1425,-0.17875 0.2588,-0.32375 l 0,0.001 -0.023,0.0175 c -0.125,0.0912 -0.2462,0.18 -0.3637,0.265 -0.2963,0.21 -0.7738,0.69125 -1.0263,1.0325 -1.6225,1.9475 -3.3887,3.3925 -5.1162,3.72375 -0.1488,0.03 -0.3013,0.06 -0.455,0.0912 l -0.4713,-0.025 c -0.3237,0.0275 -0.6412,-0.115 -0.94,-0.195 -1.6225,-0.61375 -3.2737,-2.175 -4.5312,-4.20875 -1.29,-2.00625 -2.2338,-4.415 -2.8588,-6.91 -0.1512,-0.555 -0.305,-1.12 -0.4675,-1.715 -0.1725,-0.585 -0.3262,-1.18375 -0.43,-1.78125 l -0.28,-0.003 c 0.28,2.5425 0.88,5.06625 1.8,7.41375 l -0.2212,0.0888 c -0.6688,-1.43375 -1.3038,-2.96125 -1.66,-4.51 -0.5738,-2.54375 -0.835,-5.16625 -0.7925,-7.74875 -0.01,-1.29875 0.2187,-2.565 0.2687,-3.85 0.023,-0.65 0.09,-1.28875 0.1913,-1.925 0.064,-0.65125 0.2112,-1.27125 0.345,-1.9075 0.1362,-0.40625 0.043,-0.9025 0.048,-1.39125 0.011,-0.48 0.1137,-0.96 0.2237,-1.40125 0.1225,-0.45625 0.205,-0.935 0.385,-1.46 0.2313,-0.50875 0.3563,-1.11875 0.5263,-1.72625 -0.2538,0.97375 -0.8088,1.92125 -1.0588,2.60875 -0.3175,0.6775 -0.5425,1.18875 -0.6362,1.18875 -0.4175,-0.035 -0.7225,-0.7775 -0.4288,-1.855 0.1563,-0.64125 0.2475,-0.90625 -0.11,-0.48375 -0.3175,0.445 -1.2775,1.49 -2.3075,3.8925 0,-0.175 0.058,-0.74625 0.34,-1.33625 0.3388,-0.56875 0.675,-1.22625 0.9375,-1.715 0.6038,-0.945 0.7113,-1.2675 -1.1825,1.035 -0.2962,0.14375 -0.505,0.15625 -0.7287,0.22 -0.1225,0.0287 -0.2013,0.0875 -0.395,0.14625 -0.08,0.10375 -0.1963,0.23625 -0.3088,0.44375 z m -0.9087,2.9 c -1.005,2.925 -1.1425,10.24125 -0.7963,14.7475 -0.4687,-2.40625 -0.67,-4.8575 -0.5625,-7.33375 0.058,-1.2375 0.1363,-2.48 0.3413,-3.72875 l 0.135,-0.93625 0.2762,-0.92 c 0.1888,-0.6125 0.355,-1.2275 0.6063,-1.82875 z m 8.3987,30.415 -0.1625,0.0712 c -2.2687,-1.77875 -3.9062,-3.97125 -5.1862,-6.245 -1.275,-2.2825 -2.19,-4.6825 -2.8475,-7.12625 l 0.3962,0.0237 c 0.625,2.4175 1.5038,4.79375 2.7388,7.06 1.24,2.2575 2.835,4.43875 5.0612,6.21625 z m 17.5325,-24.62375 c 1.2988,2.55 1.9538,5.2025 1.9775,7.765 0.05,2.54 -0.66,5.085 -1.9437,7.03 0.2975,-0.45 0.4875,-1.0925 0.7225,-1.64875 0.2287,-0.57125 0.325,-1.19125 0.5025,-1.77375 0.088,-0.61375 0.1937,-1.21875 0.2537,-1.8325 0.01,-0.62375 0.086,-1.2375 0.048,-1.86625 -0.066,-2.5075 -0.6025,-5.0675 -1.56,-7.67375 z m -21.9912,-14.93625 -0.2838,0.14625 c 0.3563,-0.80875 0.6738,-1.72125 1.4,-2.3575 0.3325,-0.34 0.6263,-0.7275 1.0213,-1.0325 0.3887,-0.315 0.8162,-0.59 1.2512,-0.85625 0.4275,-0.275 0.9313,-0.42875 1.4025,-0.67125 0.4825,-0.22875 0.9788,-0.43125 1.4975,-0.52 0.5138,-0.10875 1.0488,-0.24625 1.5688,-0.3 0.515,-0.0362 1.04,-0.0625 1.57,-0.0775 l 0.1125,0.36875 c -1.995,-0.0225 -3.8913,0.55125 -5.535,1.47 -0.7863,0.4725 -1.6238,0.9575 -2.2463,1.6425 -0.325,0.33125 -0.6812,0.6325 -0.9937,0.99125 -0.2975,0.34625 -0.5075,0.79625 -0.765,1.19625 z m -3.9525,18.65625 0.2775,0.0487 c 0.205,5.0825 1.4812,10.15 4.0987,14.70125 l -0.1437,0.0362 c -2.665,-4.56375 -4.0013,-9.65625 -4.2325,-14.78625 z m 19.2937,-21.455 0.03,-0.35125 c 2.965,1.63875 5.355,3.79125 7.4188,6.15 l -0.2238,0.515 c -1.99,-2.405 -4.3175,-4.60875 -7.225,-6.31375 z m -6.325,42.8725 0.01,-0.27875 c 1.7362,0.53375 3.6587,0.6125 5.4037,0.12375 1.7313,-0.4925 3.3588,-1.2825 4.7325,-2.35125 l 0.1,0.26125 c -1.3737,1.07125 -3.0225,1.85375 -4.7675,2.35375 -1.765,0.49125 -3.7137,0.41875 -5.4775,-0.10875"
         style="fill:#231f20;fill-opacity:1;fill-rule:evenodd;stroke:none"
         id="path3748" />
      <path
         inkscape:connector-curvature="0"
         d="m 1036.2991,830.395 c -0.4687,-2.40625 -0.67,-4.8575 -0.5625,-7.33375 0.058,-1.2375 0.1363,-2.48 0.3413,-3.72875 l 0.135,-0.93625 0.2762,-0.92 c 0.1888,-0.6125 0.355,-1.2275 0.6063,-1.82875 -1.005,2.925 -1.1425,10.24125 -0.7963,14.7475"
         style="fill:#ffffff;fill-opacity:1;fill-rule:evenodd;stroke:none"
         id="path3750" />
      <path
         inkscape:connector-curvature="0"
         d="m 1037.6941,832.78625 c 0.625,2.4175 1.5038,4.79375 2.7388,7.06 1.24,2.2575 2.835,4.43875 5.0612,6.21625 l -0.1625,0.0712 c -2.2687,-1.77875 -3.9062,-3.97125 -5.1862,-6.245 -1.275,-2.2825 -2.19,-4.6825 -2.8475,-7.12625 l 0.3962,0.0237"
         style="fill:#ffffff;fill-opacity:1;fill-rule:evenodd;stroke:none"
         id="path3752" />
      <path
         inkscape:connector-curvature="0"
         d="m 1063.0604,836.23375 c 0.2975,-0.45 0.4875,-1.0925 0.7225,-1.64875 0.2287,-0.57125 0.325,-1.19125 0.5025,-1.77375 0.088,-0.61375 0.1937,-1.21875 0.2537,-1.8325 0.01,-0.62375 0.086,-1.2375 0.048,-1.86625 -0.066,-2.5075 -0.6025,-5.0675 -1.56,-7.67375 1.2988,2.55 1.9538,5.2025 1.9775,7.765 0.05,2.54 -0.66,5.085 -1.9437,7.03"
         style="fill:#ffffff;fill-opacity:1;fill-rule:evenodd;stroke:none"
         id="path3754" />
      <path
         inkscape:connector-curvature="0"
         d="m 1050.5754,801.2025 c -1.995,-0.0225 -3.8913,0.55125 -5.535,1.47 -0.7863,0.4725 -1.6238,0.9575 -2.2463,1.6425 -0.325,0.33125 -0.6812,0.6325 -0.9937,0.99125 -0.2975,0.34625 -0.5075,0.79625 -0.765,1.19625 l -0.2838,0.14625 c 0.3563,-0.80875 0.6738,-1.72125 1.4,-2.3575 0.3325,-0.34 0.6263,-0.7275 1.0213,-1.0325 0.3887,-0.315 0.8162,-0.59 1.2512,-0.85625 0.4275,-0.275 0.9313,-0.42875 1.4025,-0.67125 0.4825,-0.22875 0.9788,-0.43125 1.4975,-0.52 0.5138,-0.10875 1.0488,-0.24625 1.5688,-0.3 0.515,-0.0362 1.04,-0.0625 1.57,-0.0775 l 0.1125,0.36875"
         style="fill:#ffffff;fill-opacity:1;fill-rule:evenodd;stroke:none"
         id="path3756" />
      <path
         inkscape:connector-curvature="0"
         d="m 1041.3154,839.945 c -2.665,-4.56375 -4.0013,-9.65625 -4.2325,-14.78625 l 0.2775,0.0487 c 0.205,5.0825 1.4812,10.15 4.0987,14.70125 l -0.1437,0.0362"
         style="fill:#ffffff;fill-opacity:1;fill-rule:evenodd;stroke:none"
         id="path3758" />
      <path
         inkscape:connector-curvature="0"
         d="m 1063.6016,810.0175 c -1.99,-2.405 -4.3175,-4.60875 -7.225,-6.31375 l 0.03,-0.35125 c 2.965,1.63875 5.355,3.79125 7.4188,6.15 l -0.2238,0.515"
         style="fill:#ffffff;fill-opacity:1;fill-rule:evenodd;stroke:none"
         id="path3760" />
      <path
         inkscape:connector-curvature="0"
         d="m 1060.2966,844.33125 c -1.3737,1.07125 -3.0225,1.85375 -4.7675,2.35375 -1.765,0.49125 -3.7137,0.41875 -5.4775,-0.10875 l 0.01,-0.27875 c 1.7362,0.53375 3.6587,0.6125 5.4037,0.12375 1.7313,-0.4925 3.3588,-1.2825 4.7325,-2.35125 l 0.1,0.26125"
         style="fill:#ffffff;fill-opacity:1;fill-rule:evenodd;stroke:none"
         id="path3762" />
      <path
         inkscape:connector-curvature="0"
         d="m 1037.5054,847.89625 c -0.2988,-2.1575 -0.9888,-4.54 -1.3025,-6.88125 -1.2763,-4.4875 -3.0363,-8.71 -4.795,-12.92375 -1.855,-4.17375 -3.8325,-8.285 -5.6375,-12.51625 -0.2238,-0.52125 -0.55,-1.02125 -0.7775,-1.545 -0.9325,-2.13125 -1.8663,-4.2675 -2.7963,-6.39625 -1.6525,-3.6525 -3.3337,-7.29375 -5.055,-10.9125 -1.1175,-2.34625 -2.36,-4.6425 -3.44,-6.98625 -1.6162,-3.60875 -3.3162,-7.15375 -5.0212,-10.71125 -0.3,-0.62 -0.725,-1.335 -0.8975,-1.84625 -0.1663,-0.49375 -0.3425,-0.9775 -0.5313,-1.4625 0.1013,1.1625 0.2025,2.32375 0.3025,3.47625 0.8538,-2.1475 1.4813,-4.33 1.94,-6.51 0.1825,-1.105 0.3188,-2.21 0.4463,-3.30375 0.055,-0.53625 0.1137,-1.08125 0.1725,-1.6325 0.05,-0.5425 0.016,-1.105 0.028,-1.65125 0,-0.27 0.011,-0.52625 -0.02,-0.7875 -0.072,-0.26125 -0.1475,-0.5275 -0.2225,-0.8025 -0.1625,-0.52875 -0.115,-0.9775 -0.1788,-1.46875 -0.084,-0.9675 -0.11,-1.9525 -0.1612,-3.18375 -0.1188,1.3 -0.3813,2.46875 -0.56,3.5225 -0.1263,0.515 -0.1163,1.035 -0.1463,1.5025 -0.07,0.45625 -0.1912,0.855 -0.2712,1.22 -0.555,0.81875 -1.045,1.3675 -1.6075,2.04375 0.2412,-0.91375 0.5337,-2.0225 0.7237,-3.07375 0.1025,-0.485 0.115,-0.97125 0.1638,-1.44125 0.072,-0.46125 0.1462,-0.93 0.2162,-1.3875 -0.3037,0.86375 -0.5975,1.67875 -0.8975,2.60375 -0.67,1.9275 -1.3362,3.84625 -2.17,6.25125 0.3838,-3.22125 0.6238,-5.60125 1.1713,-7.67 0.35,-1.43125 -0.026,-0.61125 -0.895,0.59875 -1.0938,1.93 -1.9875,3.7825 -3.2025,5.9775 0.35,-1.61125 0.6012,-2.7125 0.985,-4.32125 -0.5625,1.0325 -0.9163,1.535 -1.1838,2.1575 l -0.9225,2.1525 c -0.2712,0.73 -0.54,1.4575 -0.8087,2.1825 -0.53005,1.4575 -1.0188,2.92375 -1.49505,4.3925 l -0.50875,1.5725 0.795,1.7075 c 1.2938,2.77625 2.6825,5.5225 4.2688,8.14875 3.0187,4.91 8.2587,16.8925 9.37,21.675 0.09,0.37875 0.3725,1.0625 0.6037,1.45375 1.4263,2.4325 2.86,4.88 4.2863,7.31125 0.4612,0.8125 0.9612,1.7775 1.3175,2.66125 1.985,4.82 3.7075,9.70875 5.8275,14.435 0.4562,1.055 1.1012,2.1375 1.6475,3.21125 l 0.3012,-0.0812 -2.84,-7.0125 0.255,-0.1025 c 0.7138,1.40625 1.4875,2.81625 2.09,4.23 0.9613,2.335 1.97,4.63875 2.9638,6.93125 l 0.735,1.725 0.5425,0.7925 c 0.1512,0.275 0.25,0.57 0.3775,0.855 0.4737,1.14625 0.945,2.29875 1.3662,3.43625 0.2963,0.765 0.5763,1.52125 0.8475,2.31125 0.165,0.44 0.2213,0.69125 0.35,1.05375 0.1388,0.27625 0.1863,0.89875 0.2813,1.385 0.016,-0.4 0.055,-0.915 0.039,-1.25125 -0.021,-0.325 -0.035,-0.6475 -0.035,-0.94 -0.066,-0.67875 -0.089,-1.20125 0.044,-1.2675 0.5575,-0.29 1.3312,0 2.125,0.7875 0.4387,0.48 0.6675,0.71125 0.6825,0.185 0.01,-0.535 -0.2138,-1.7 -0.8663,-3.8675 0.2663,0.22 0.8813,1.72625 1.2275,2.64875 0.365,0.9 0.5763,1.15 0.2363,-1.3725 0.235,-0.5125 0.6362,-0.50875 0.5175,-1.28875 z m -0.9725,-2.32875 c -0.2663,-0.56875 -0.6138,-1.33875 -0.9363,-2.25875 -0.096,-1.00875 -0.59,-1.99875 -0.92,-3.0975 -0.7087,-2.17125 -1.3625,-4.5225 -1.695,-6.365 1.4175,3.73375 2.6788,7.545 3.5513,11.72125 z m -9.7763,-24.8925 0.1875,-0.0125 c 1.68,3.77625 3.3638,7.55875 4.8225,11.44625 l -0.4337,0.0675 c -1.3925,-3.89625 -2.985,-7.7 -4.5763,-11.50125 z m -19.3987,-28.925 c 2.8737,4.6425 4.6387,8.96375 6.3612,13.82375 -2.205,-4.79 -4.145,-9.00375 -6.3612,-13.82375 z m 2.0937,-25.4175 0.3,-0.14 c -0.07,1.27125 -0.3637,2.4775 -0.56,3.7125 -0.2225,1.22625 -0.395,2.46875 -0.6862,3.675 l -0.3638,-0.008 c 0.2725,-1.18375 0.3025,-2.3525 0.4563,-3.535 0.125,-1.19125 0.4512,-2.36875 0.8537,-3.705 z m 23.565,72.0675 -0.2987,0.0588 c -1.4675,-4.08 -3.0313,-8.11375 -4.6913,-12.105 l 0.1638,-0.0313 c 1.715,3.975 3.3275,7.9975 4.8262,12.0775 z m -26.6287,-60.89125 0.2937,-0.03 c -0.1025,0.45375 -0.2037,0.90875 -0.3287,1.3575 -0.067,-0.85875 -0.135,-1.71625 -0.21,-2.57125 l 2.95,5.0775 -0.3075,0.38125 c -0.9725,-1.775 -1.9425,-3.54875 -2.8638,-5.3475 0.051,0.7925 0.1025,1.58625 0.1725,2.3825 l 0.2938,-1.25 z m 17.3775,40.98375 -0.2463,0.17625 -3.7612,-7.97 0.285,-0.0662 3.7225,7.86"
         style="fill:#231f20;fill-opacity:1;fill-rule:evenodd;stroke:none"
         id="path3764" />
      <path
         inkscape:connector-curvature="0"
         d="m 1032.9816,833.84625 c 1.4175,3.73375 2.6788,7.545 3.5513,11.72125 -0.2663,-0.56875 -0.6138,-1.33875 -0.9363,-2.25875 -0.096,-1.00875 -0.59,-1.99875 -0.92,-3.0975 -0.7087,-2.17125 -1.3625,-4.5225 -1.695,-6.365"
         style="fill:#ffffff;fill-opacity:1;fill-rule:evenodd;stroke:none"
         id="path3766" />
      <path
         inkscape:connector-curvature="0"
         d="m 1031.3329,832.17625 c -1.3925,-3.89625 -2.985,-7.7 -4.5763,-11.50125 l 0.1875,-0.0125 c 1.68,3.77625 3.3638,7.55875 4.8225,11.44625 l -0.4337,0.0675"
         style="fill:#ffffff;fill-opacity:1;fill-rule:evenodd;stroke:none"
         id="path3768" />
      <path
         inkscape:connector-curvature="0"
         d="m 1013.7191,805.57375 c -2.205,-4.79 -4.145,-9.00375 -6.3612,-13.82375 2.8737,4.6425 4.6387,8.96375 6.3612,13.82375"
         style="fill:#ffffff;fill-opacity:1;fill-rule:evenodd;stroke:none"
         id="path3770" />
      <path
         inkscape:connector-curvature="0"
         d="m 1008.1416,773.5725 c 0.2725,-1.18375 0.3025,-2.3525 0.4563,-3.535 0.125,-1.19125 0.4512,-2.36875 0.8537,-3.705 l 0.3,-0.14 c -0.07,1.27125 -0.3637,2.4775 -0.56,3.7125 -0.2225,1.22625 -0.395,2.46875 -0.6862,3.675 l -0.3638,-0.008"
         style="fill:#ffffff;fill-opacity:1;fill-rule:evenodd;stroke:none"
         id="path3772" />
      <path
         inkscape:connector-curvature="0"
         d="m 1028.1904,826.3225 c 1.715,3.975 3.3275,7.9975 4.8262,12.0775 l -0.2987,0.0588 c -1.4675,-4.08 -3.0313,-8.11375 -4.6913,-12.105 l 0.1638,-0.0313"
         style="fill:#ffffff;fill-opacity:1;fill-rule:evenodd;stroke:none"
         id="path3774" />
      <path
         inkscape:connector-curvature="0"
         d="m 1008.7854,781.72375 c -0.9725,-1.775 -1.9425,-3.54875 -2.8638,-5.3475 0.051,0.7925 0.1025,1.58625 0.1725,2.3825 l 0.2938,-1.25 0.2937,-0.03 c -0.1025,0.45375 -0.2037,0.90875 -0.3287,1.3575 -0.067,-0.85875 -0.135,-1.71625 -0.21,-2.57125 l 2.95,5.0775 -0.3075,0.38125"
         style="fill:#ffffff;fill-opacity:1;fill-rule:evenodd;stroke:none"
         id="path3776" />
      <path
         inkscape:connector-curvature="0"
         d="m 1020.0429,810.6325 3.7225,7.86 -0.2463,0.17625 -3.7612,-7.97 0.285,-0.0662"
         style="fill:#ffffff;fill-opacity:1;fill-rule:evenodd;stroke:none"
         id="path3778" />
      <path
         inkscape:connector-curvature="0"
         d="m 998.22535,771.98 c 0.2775,-0.4525 0.58375,-0.9825 0.8525,-1.4725 0.08,-0.9 0.10125,-1.7825 0.0987,-2.6625 -0.02,-0.87625 -0.205,-1.7225 -0.16,-2.6225 0.002,-0.11 -0.0725,-0.21 -0.07,-0.32 0.04,-0.45875 -0.0612,-0.89 -0.11,-1.33 -0.1225,-0.7525 -0.25375,-1.505 -0.41,-2.25125 -0.10125,-0.485 -0.3025,-0.95125 -0.36625,-1.4375 -0.115,-0.745 -0.0688,-1.51625 -0.29875,-2.23625 -0.03,-0.1275 -0.12125,-0.27 -0.0937,-0.38 0.30875,-1.05875 -0.46375,-1.8825 -1.53625,-2.58125 -0.23375,-0.15625 -0.46875,-0.28 -0.7275,-0.40625 -0.31625,-0.11375 -0.63,-0.235 -0.935,-0.40125 0.165,0.21625 0.35125,0.4125 0.42875,0.6025 0.07,0.19375 0.13,0.36125 0.1775,0.4975 -0.20125,0.2225 -0.3575,0.38125 -0.585,0.58375 -0.0638,-0.17125 -0.14,-0.37875 -0.2475,-0.56375 -0.10375,-0.1725 -0.235,-0.32125 -0.355,-0.48 0,0.1775 -0.0525,0.35625 -0.0462,0.54375 0.01,0.3875 0.0288,0.785 0.0213,1.28125 -0.54375,-0.515 -0.83875,-0.915 -1.095,-1.28125 -0.17375,-0.25125 -0.27375,-0.0588 -0.40875,0.24125 -0.22,0.46375 -0.475,0.9075 -0.76125,1.44125 -0.1275,-0.295 -0.2525,-0.49125 -0.31,-0.8 -0.195,0.26125 -0.28375,0.3925 -0.3325,0.5325 -0.085,0.31875 -0.1825,0.63875 -0.2525,0.95375 -0.025,0.30625 -0.04,0.60875 -0.0325,0.9075 0.0375,0.59375 0.0688,1.18625 0.4575,1.70625 0.70125,0.98125 0.76875,3.51375 0.17,4.57 -0.0475,0.0838 -0.0488,0.2275 0,0.3075 0.315,0.49125 0.60125,0.97625 1.01625,1.4475 0.12375,0.15875 0.23,0.34875 0.26125,0.53 0.16625,0.985 0.2775,1.975 0.7225,2.9075 0.0862,0.20875 0.2925,0.415 0.43875,0.6225 l 0.19375,-0.0287 c -0.1575,-0.465 -0.30125,-0.9325 -0.4325,-1.4025 l 0.185,-0.0362 c 0.16125,0.2775 0.36625,0.55125 0.46625,0.8325 0.15625,0.43875 0.325,0.91125 0.49625,1.38875 0.22375,0.45 0.69125,0.8525 1.0625,1.275 0.19125,0.29375 0.28625,0.61375 0.46625,0.98625 0.0163,-0.32875 -0.002,-0.725 0.11625,-0.76 0.25625,-0.0775 0.5625,-0.0375 0.8375,0.09 0.33,0.15 0.31625,0.1125 0.25875,-0.74125 0.145,0.0837 0.35625,1.17375 0.46125,0.2225 0.15875,-0.11125 0.2875,-0.115 0.3775,-0.27625 z m 0.0375,-0.48 c -0.0562,-0.22375 0.095,-0.66125 0.09,-1.0975 0.006,-0.44 0.10625,-0.92625 0.35375,-1.3275 -0.0575,0.78 0.015,1.535 -0.44375,2.425 z m -0.0725,-5.1375 0.13125,-0.0112 0.0925,1.18125 c 0.01,0.39875 -0.0137,0.8025 -0.0187,1.205 l -0.2775,0.0338 c 0.0213,-0.40375 0.0662,-0.81125 0.0788,-1.2125 l -0.006,-1.19625 z m -5.235,-5.66375 c 0.6325,0.9325 0.5975,1.84625 0.38125,2.88875 -0.13125,-1.00125 -0.24875,-1.88125 -0.38125,-2.88875 z m 2.75875,-5.85 0.17375,-0.0762 c 0.43,0.3975 0.6725,0.8325 1.02,1.2475 l -0.25375,0.0675 c -0.36125,-0.4 -0.91,-0.70125 -0.94,-1.23875 z m 2.03625,15.22875 -0.18375,0.0263 -0.07,-2.5 0.11625,-0.015 c 0.0675,0.825 0.09,1.66 0.1375,2.48875 z m -1.3025,-13.11875 0.20125,-0.0612 0.72125,1.265 -0.33625,0.10625 -0.58625,-1.31 z m 0.31125,9.06 -0.22,0.055 c -0.11375,-0.54875 -0.22625,-1.0975 -0.3675,-1.64 l 0.22375,-0.0325 c 0.1475,0.535 0.25375,1.07625 0.36375,1.6175"
         style="fill:#231f20;fill-opacity:1;fill-rule:evenodd;stroke:none"
         id="path3780" />
      <path
         inkscape:connector-curvature="0"
         d="m 998.7066,769.075 c -0.0575,0.78 0.015,1.535 -0.44375,2.425 -0.0562,-0.22375 0.095,-0.66125 0.09,-1.0975 0.006,-0.44 0.10625,-0.92625 0.35375,-1.3275"
         style="fill:#ffffff;fill-opacity:1;fill-rule:evenodd;stroke:none"
         id="path3782" />
      <path
         inkscape:connector-curvature="0"
         d="m 998.11785,768.77125 c 0.0213,-0.40375 0.0662,-0.81125 0.0788,-1.2125 l -0.006,-1.19625 0.13125,-0.0112 0.0925,1.18125 c 0.01,0.39875 -0.0137,0.8025 -0.0187,1.205 l -0.2775,0.0338"
         style="fill:#ffffff;fill-opacity:1;fill-rule:evenodd;stroke:none"
         id="path3784" />
      <path
         inkscape:connector-curvature="0"
         d="m 993.3366,763.5875 c -0.13125,-1.00125 -0.24875,-1.88125 -0.38125,-2.88875 0.6325,0.9325 0.5975,1.84625 0.38125,2.88875"
         style="fill:#ffffff;fill-opacity:1;fill-rule:evenodd;stroke:none"
         id="path3786" />
      <path
         inkscape:connector-curvature="0"
         d="m 996.6541,756.0875 c -0.36125,-0.4 -0.91,-0.70125 -0.94,-1.23875 l 0.17375,-0.0762 c 0.43,0.3975 0.6725,0.8325 1.02,1.2475 l -0.25375,0.0675"
         style="fill:#ffffff;fill-opacity:1;fill-rule:evenodd;stroke:none"
         id="path3788" />
      <path
         inkscape:connector-curvature="0"
         d="m 997.61285,767.58875 c 0.0675,0.825 0.09,1.66 0.1375,2.48875 l -0.18375,0.0263 -0.07,-2.5 0.11625,-0.015"
         style="fill:#ffffff;fill-opacity:1;fill-rule:evenodd;stroke:none"
         id="path3790" />
      <path
         inkscape:connector-curvature="0"
         d="m 997.0341,758.26875 -0.58625,-1.31 0.20125,-0.0612 0.72125,1.265 -0.33625,0.10625"
         style="fill:#ffffff;fill-opacity:1;fill-rule:evenodd;stroke:none"
         id="path3792" />
      <path
         inkscape:connector-curvature="0"
         d="m 996.39535,764.40125 c 0.1475,0.535 0.25375,1.07625 0.36375,1.6175 l -0.22,0.055 c -0.11375,-0.54875 -0.22625,-1.0975 -0.3675,-1.64 l 0.22375,-0.0325"
         style="fill:#ffffff;fill-opacity:1;fill-rule:evenodd;stroke:none"
         id="path3794" />
      <path
         inkscape:connector-curvature="0"
         d="m 992.7141,774.67875 c -0.004,-0.49875 -0.14125,-1.0075 -0.16,-1.54875 -0.002,-0.27 -0.005,-0.5425 -0.009,-0.8275 -0.004,-0.13375 -0.007,-0.26875 -0.0125,-0.4075 -0.0313,-0.12125 -0.0875,-0.22625 -0.13125,-0.33875 -0.18875,-0.43125 -0.38625,-0.88375 -0.58,-1.325 -0.4175,-0.9625 -0.7625,-1.7625 -1.155,-2.66625 -0.0438,-0.1125 -0.1625,-0.18625 -0.21125,-0.2975 -0.1925,-0.455 -0.355,-0.9275 -0.55625,-1.37875 -0.31875,-0.79 -0.77,-1.50625 -1.2075,-2.23125 -0.28625,-0.4675 -0.66875,-0.88125 -0.92,-1.36625 -0.385,-0.73875 -0.69625,-1.51875 -1.04,-2.28 -0.0612,-0.1325 -0.185,-0.2625 -0.18,-0.395 -0.0488,-0.60125 -0.34625,-1.04875 -0.7475,-1.4225 -0.20125,-0.18625 -0.4325,-0.3525 -0.68,-0.505 -0.115,-0.0663 -0.2425,-0.13875 -0.38125,-0.22 -0.0688,-0.105 -0.46125,-0.0213 -0.57125,-0.10125 -0.27125,-0.0962 -0.53125,-0.16 -0.8525,-0.195 -0.48,0.0562 -0.97125,0.11125 -1.4,0.0725 0.28875,0.14625 0.7375,0.18 0.86375,0.3675 0.12125,0.18875 0.20625,0.36375 0.30375,0.49 -0.0825,0.2775 -0.285,0.5575 -0.46,0.85625 -0.0625,-0.0863 -0.12375,-0.17 -0.19125,-0.26375 -0.0912,-0.0788 -0.1925,-0.15625 -0.27,-0.24 -0.16875,-0.14375 -0.34625,-0.26125 -0.55375,-0.37 0.0713,0.1825 0.05,0.40625 0.1225,0.6025 0.15375,0.4 0.29125,0.82375 0.46375,1.3475 -0.3825,-0.17 -0.695,-0.32875 -0.97875,-0.47125 -0.2775,-0.14625 -0.465,-0.3125 -0.7125,-0.43125 -0.3125,-0.17875 -0.3525,0.0625 -0.36875,0.415 -0.12375,0.6 -0.16,1.1175 -0.23625,1.75875 -0.2875,-0.23375 -0.485,-0.39625 -0.77375,-0.63375 -0.0362,0.30375 -0.10625,0.485 -0.0762,0.6325 0.1375,0.67875 0.27125,1.35875 0.48875,1.98625 0.23,0.6225 0.69,1.10875 1.23375,1.54375 1.07375,0.78375 1.99375,3.45375 1.81125,4.73875 -0.0125,0.1 0.0513,0.245 0.13625,0.30625 0.535,0.385 1.08625,0.7475 1.60375,1.14375 0.17125,0.12875 0.335,0.30125 0.41875,0.48625 0.465,1.01125 1.1075,1.9125 1.72375,2.83625 0.14125,0.20125 0.4075,0.3575 0.6125,0.5375 l 0.195,-0.10375 c -0.28375,-0.4575 -0.56,-0.9225 -0.82875,-1.39 l 0.1775,-0.1 c 0.2425,0.24625 0.5325,0.47375 0.71625,0.74625 0.16125,0.21875 0.2775,0.4625 0.47375,0.66 0.22125,0.17875 0.4475,0.36 0.67375,0.5425 l 0.345,0.2675 0.265,0.3125 c 0.18375,0.21 0.36375,0.4175 0.54125,0.62 0.245,0.27375 0.5325,0.5325 0.85875,0.8575 -0.0738,-0.3675 -0.2175,-0.78625 -0.0712,-0.88625 0.3125,-0.215 0.7275,-0.33 1.13,-0.3325 0.46625,0 0.49125,-0.065 0.0762,-0.91125 0.2875,-0.0275 0.85875,1.065 0.71375,-0.0213 0.16,-0.1925 0.3775,-0.29 0.3675,-0.46625 z m -0.34375,-0.395 c -0.19625,-0.18125 -0.4625,-0.54 -0.5,-1.06875 -0.035,-0.255 -0.0512,-0.53125 -0.03,-0.81375 0.0188,-0.28125 -0.0225,-0.515 0.0338,-0.76875 0.405,0.73125 0.0987,1.875 0.49625,2.65125 z m -2.07625,-5.27375 0.12875,-0.0588 0.975,2.455 -0.27875,0.135 -0.825,-2.53125 z m -7.43125,-4.1125 c 0.98125,0.7625 1.27625,1.73125 1.425,2.9025 -0.49375,-1.00625 -0.92875,-1.89 -1.425,-2.9025 z m 0.89375,-7.1875 c 0.0313,-0.035 0.115,-0.1025 0.16375,-0.14875 0.43625,0.0512 0.53125,0.30125 0.76375,0.46875 l 0.6225,0.54875 -0.245,0.165 c -0.20875,-0.175 -0.50625,-0.27875 -0.74875,-0.4275 -0.12125,-0.0738 -0.2275,-0.15875 -0.30625,-0.26625 -0.04,-0.0537 -0.0663,-0.11625 -0.095,-0.18125 -0.0325,-0.06 -0.11125,-0.0987 -0.155,-0.15875 z m 7.45125,15.33125 -0.18125,0.0913 c -0.27,-0.895 -0.6875,-1.70625 -1.015,-2.57 l 0.11125,-0.055 c 0.355,0.8475 0.81375,1.6375 1.085,2.53375 z m -6.0625,-13.30125 0.1925,-0.13875 c 0.43,0.33875 0.77,0.7325 1.12,1.12 l -0.31,0.22875 c -0.31625,-0.41375 -0.61125,-0.84 -1.0025,-1.21 z m 3.54,9.415 -0.20375,0.1325 -0.98125,-1.58375 0.21625,-0.11 0.96875,1.56125"
         style="fill:#231f20;fill-opacity:1;fill-rule:evenodd;stroke:none"
         id="path3796" />
      <path
         inkscape:connector-curvature="0"
         d="m 991.8741,771.6325 c 0.405,0.73125 0.0987,1.875 0.49625,2.65125 -0.19625,-0.18125 -0.4625,-0.54 -0.5,-1.06875 -0.035,-0.255 -0.0512,-0.53125 -0.03,-0.81375 0.0188,-0.28125 -0.0225,-0.515 0.0338,-0.76875"
         style="fill:#ffffff;fill-opacity:1;fill-rule:evenodd;stroke:none"
         id="path3798" />
      <path
         inkscape:connector-curvature="0"
         d="m 991.1191,771.54125 -0.825,-2.53125 0.12875,-0.0588 0.975,2.455 -0.27875,0.135"
         style="fill:#ffffff;fill-opacity:1;fill-rule:evenodd;stroke:none"
         id="path3800" />
      <path
         inkscape:connector-curvature="0"
         d="m 984.28785,767.8 c -0.49375,-1.00625 -0.92875,-1.89 -1.425,-2.9025 0.98125,0.7625 1.27625,1.73125 1.425,2.9025"
         style="fill:#ffffff;fill-opacity:1;fill-rule:evenodd;stroke:none"
         id="path3802" />
      <path
         inkscape:connector-curvature="0"
         d="m 985.0616,758.74375 c -0.20875,-0.175 -0.50625,-0.27875 -0.74875,-0.4275 -0.12125,-0.0738 -0.2275,-0.15875 -0.30625,-0.26625 -0.04,-0.0537 -0.0663,-0.11625 -0.095,-0.18125 -0.0325,-0.06 -0.11125,-0.0987 -0.155,-0.15875 0.0313,-0.035 0.115,-0.1025 0.16375,-0.14875 0.43625,0.0512 0.53125,0.30125 0.76375,0.46875 l 0.6225,0.54875 -0.245,0.165"
         style="fill:#ffffff;fill-opacity:1;fill-rule:evenodd;stroke:none"
         id="path3804" />
      <path
         inkscape:connector-curvature="0"
         d="m 990.12285,770.5075 c 0.355,0.8475 0.81375,1.6375 1.085,2.53375 l -0.18125,0.0913 c -0.27,-0.895 -0.6875,-1.70625 -1.015,-2.57 l 0.11125,-0.055"
         style="fill:#ffffff;fill-opacity:1;fill-rule:evenodd;stroke:none"
         id="path3806" />
      <path
         inkscape:connector-curvature="0"
         d="m 986.14785,760.95 c -0.31625,-0.41375 -0.61125,-0.84 -1.0025,-1.21 l 0.1925,-0.13875 c 0.43,0.33875 0.77,0.7325 1.12,1.12 l -0.31,0.22875"
         style="fill:#ffffff;fill-opacity:1;fill-rule:evenodd;stroke:none"
         id="path3808" />
      <path
         inkscape:connector-curvature="0"
         d="m 987.7166,767.59375 0.96875,1.56125 -0.20375,0.1325 -0.98125,-1.58375 0.21625,-0.11"
         style="fill:#ffffff;fill-opacity:1;fill-rule:evenodd;stroke:none"
         id="path3810" />
      <path
         inkscape:connector-curvature="0"
         d="m 987.43285,773.93875 c -0.0488,-0.67125 -0.50375,-0.715 -0.62875,-1.3225 -0.595,-0.5775 -1.165,-1.19125 -1.83625,-1.61375 -0.66125,-0.44625 -1.2775,-0.97625 -1.97625,-1.36625 -0.0837,-0.055 -0.20375,-0.0462 -0.28875,-0.1 -0.34125,-0.22125 -0.66875,-0.46875 -1.015,-0.68 -0.5975,-0.365 -1.19875,-0.72375 -1.81,-1.06 -0.3975,-0.2175 -0.8425,-0.34875 -1.22125,-0.5975 -0.58125,-0.37375 -1.10875,-0.845 -1.69625,-1.2025 -0.10125,-0.065 -0.25,-0.095 -0.3025,-0.195 -0.50875,-0.95875 -1.43625,-1.08 -2.41625,-0.97375 -0.21,0.01 -0.4725,0.18125 -0.735,0.33875 -0.33625,0.29875 -0.7175,0.67125 -1.105,0.97 0.3175,-0.1225 0.6525,-0.3075 0.8125,-0.21625 0.165,0.0838 0.3,0.17625 0.395,0.2775 -0.035,0.4175 -0.06,0.715 -0.0888,1.07375 -0.15625,-0.0612 -0.32875,-0.16125 -0.52,-0.195 -0.18375,-0.0237 -0.37875,0.01 -0.5825,0.0475 0.1175,0.11875 0.185,0.31375 0.31375,0.43625 0.255,0.26625 0.53875,0.5025 0.87625,0.8175 -0.7125,0.16375 -1.18625,0.27375 -1.73125,0.4 -0.3275,0.0712 -0.27375,0.30375 -0.1475,0.595 0.22,0.3925 0.39625,0.82 0.62125,1.31 -0.3375,0.0225 -0.56875,0.0388 -0.90625,0.06 0.105,0.235 0.13125,0.4025 0.22125,0.4825 0.845,0.725 1.685,1.45 2.8825,1.47625 1.135,0.003 2.9925,1.38875 3.4025,2.4225 0.0313,0.0825 0.13625,0.16375 0.22125,0.17 0.51875,0.0337 1.1075,0.0725 1.61875,0.10625 0.17625,0.0163 0.36375,0.0675 0.50125,0.17 0.3525,0.3125 0.78875,0.46125 1.1975,0.66625 0.41875,0.185 0.82625,0.39 1.27125,0.5275 0.20125,0.0538 0.47375,0.01 0.7125,0.0163 l 0.0975,-0.17 c -0.42875,-0.145 -0.85,-0.30125 -1.2375,-0.51875 l 0.0875,-0.165 c 0.28375,0.055 0.59,0.0788 0.855,0.15625 0.405,0.13125 0.84375,0.27375 1.29,0.4175 0.5525,-0.0975 0.85125,0.28875 1.445,0.11875 0.33125,0.006 0.68875,-0.0163 1.10875,-0.0263 -0.26875,-0.1175 -0.5925,-0.27625 -0.53625,-0.4075 0.12,-0.2775 0.36375,-0.55 0.63125,-0.70625 0.3075,-0.16875 0.29,-0.215 -0.3325,-0.7 0.19875,-0.16625 0.98125,0.5325 0.47625,-0.3025 0.0338,-0.22 0.14125,-0.3825 0.075,-0.5375 z m -0.34375,-0.255 c -0.1125,-0.015 -0.24625,-0.07 -0.39,-0.155 -0.16625,-0.0437 -0.23625,-0.32125 -0.41375,-0.405 -0.305,-0.26625 -0.585,-0.63375 -0.715,-1.0675 l 0.78125,0.7475 0.1975,0.18875 c 0.0663,0.0625 0.0763,0.23375 0.14875,0.28625 l 0.39125,0.405 z m -3.7525,-2.81625 0.0713,-0.11 1.7325,1.34375 -0.14625,0.23875 -1.6575,-1.4725 z m -7.2025,0.77375 c 1.05,0.0437 1.6775,0.6025 2.295,1.36 -0.795,-0.47125 -1.495,-0.88625 -2.295,-1.36 z m -2.125,-6.21375 0.0913,-0.2575 1.295,0.335 -0.1225,0.2675 c -0.43,-0.0925 -1.025,0.25 -1.26375,-0.345 z m 11.67875,7.9775 -0.095,0.16 c -0.6,-0.4775 -1.2025,-0.9475 -1.81875,-1.39375 l 0.0588,-0.0975 c 0.63375,0.41625 1.25,0.86375 1.855,1.33125 z m -9.99375,-6.83 0.0875,-0.2075 1.27375,0.29375 -0.135,0.33375 -1.22625,-0.42 z m 6.5125,5.23625 -0.095,0.2025 -1.395,-0.6575 0.11125,-0.1875 1.37875,0.6425"
         style="fill:#231f20;fill-opacity:1;fill-rule:evenodd;stroke:none"
         id="path3812" />
      <path
         inkscape:connector-curvature="0"
         d="m 985.57035,772.05625 0.78125,0.7475 0.1975,0.18875 c 0.0663,0.0625 0.0763,0.23375 0.14875,0.28625 l 0.39125,0.405 c -0.1125,-0.015 -0.24625,-0.07 -0.39,-0.155 -0.16625,-0.0437 -0.23625,-0.32125 -0.41375,-0.405 -0.305,-0.26625 -0.585,-0.63375 -0.715,-1.0675"
         style="fill:#ffffff;fill-opacity:1;fill-rule:evenodd;stroke:none"
         id="path3814" />
      <path
         inkscape:connector-curvature="0"
         d="m 984.9941,772.34 -1.6575,-1.4725 0.0713,-0.11 1.7325,1.34375 -0.14625,0.23875"
         style="fill:#ffffff;fill-opacity:1;fill-rule:evenodd;stroke:none"
         id="path3816" />
      <path
         inkscape:connector-curvature="0"
         d="m 978.4291,773.00125 c -0.795,-0.47125 -1.495,-0.88625 -2.295,-1.36 1.05,0.0437 1.6775,0.6025 2.295,1.36"
         style="fill:#ffffff;fill-opacity:1;fill-rule:evenodd;stroke:none"
         id="path3818" />
      <path
         inkscape:connector-curvature="0"
         d="m 975.27285,765.7725 c -0.43,-0.0925 -1.025,0.25 -1.26375,-0.345 l 0.0913,-0.2575 1.295,0.335 -0.1225,0.2675"
         style="fill:#ffffff;fill-opacity:1;fill-rule:evenodd;stroke:none"
         id="path3820" />
      <path
         inkscape:connector-curvature="0"
         d="m 983.83285,772.07375 c 0.63375,0.41625 1.25,0.86375 1.855,1.33125 l -0.095,0.16 c -0.6,-0.4775 -1.2025,-0.9475 -1.81875,-1.39375 l 0.0588,-0.0975"
         style="fill:#ffffff;fill-opacity:1;fill-rule:evenodd;stroke:none"
         id="path3822" />
      <path
         inkscape:connector-curvature="0"
         d="m 976.92035,766.995 -1.22625,-0.42 0.0875,-0.2075 1.27375,0.29375 -0.135,0.33375"
         style="fill:#ffffff;fill-opacity:1;fill-rule:evenodd;stroke:none"
         id="path3824" />
      <path
         inkscape:connector-curvature="0"
         d="m 980.82785,771.16875 1.37875,0.6425 -0.095,0.2025 -1.395,-0.6575 0.11125,-0.1875"
         style="fill:#ffffff;fill-opacity:1;fill-rule:evenodd;stroke:none"
         id="path3826" />
      <path
         inkscape:connector-curvature="0"
         d="m 1026.9916,870.41125 0.011,-0.09 -0.06,-0.4525 c -0.01,-0.0213 -0.019,-0.0425 -0.027,-0.065 l -0.044,0.33375 0.12,0.27375"
         style="fill:#231f20;fill-opacity:1;fill-rule:evenodd;stroke:none"
         id="path3828" />
      <path
         inkscape:connector-curvature="0"
         d="m 1026.2904,870.635 -0.11,-0.84625 c -0.011,-0.025 -0.023,-0.0513 -0.034,-0.075 l -0.069,0.53375 0.2037,0.4675 0.01,-0.08"
         style="fill:#231f20;fill-opacity:1;fill-rule:evenodd;stroke:none"
         id="path3830" />
      <path
         inkscape:connector-curvature="0"
         d="m 1104.5116,964.1775 c -0.5487,2.655 -0.9987,5.22 -1.4312,7.635 -0.845,4.83875 -1.65,9.07875 -2.4575,12.46 -1.2563,4.2275 -2.2738,7.18875 -3.7425,10.68375 1.4525,-4.18125 2.7525,-9.36875 3.7175,-14.2075 0.895,-4.49625 1.5112,-8.61125 2.2787,-12.875 -0.8562,4.14 -1.635,8.08 -2.6025,12.47625 -1.0137,4.53125 -2.12,9.12375 -3.7875,13.87125 -0.8337,2.37125 -1.7837,4.7925 -3.0375,7.19255 -1.2537,2.39 -2.775,4.795 -4.82,6.9312 2.4538,-2.7912 4.0713,-5.88 5.3438,-8.85375 1.2912,-2.975 2.1987,-5.89 2.9662,-8.6775 1.515,-5.58625 2.435,-10.6925 3.3263,-15.55625 1.1962,-6.71 0.3012,-2.65875 -1.1963,3.66375 -1.1462,4.845 -2.3887,9.50375 -4.0887,14.1175 -0.425,1.1525 -0.885,2.2975 -1.3813,3.43625 -0.57,1.10625 -1.1175,2.23875 -1.7825,3.30625 -1.2287,2.18375 -2.56,4.37505 -4.305,6.24625 2.2175,-2.6337 3.4075,-5.4525 4.8513,-8.1425 0.7125,-1.36125 1.2587,-2.8175 1.7675,-4.36875 0.535,-1.54 1.0225,-3.18625 1.5187,-4.99 -1.6325,4.9425 -2.605,7.3625 -4.1075,9.91 -0.8962,1.44 -1.62,2.93625 -2.5275,4.27875 -0.8687,1.3775 -1.8837,2.5838 -2.945,3.6825 -1.1075,1.0238 -2.245,1.9963 -3.5337,2.5938 -0.6063,0.3875 -1.3038,0.5342 -1.945,0.8247 -0.305,0.065 -0.5988,0.1309 -0.895,0.21 l -0.4413,0.126 -0.6662,0.071 -1.22,0.1303 0,0 -0.015,0 -0.057,-0.015 -0.1125,-0.019 c -0.078,-0.015 -0.15,0.012 -0.235,-0.01 -0.1812,-0.1035 -0.3462,-0.093 -0.5575,-0.2075 -0.215,-0.1514 -0.4262,-0.2003 -0.6625,-0.3898 -0.945,-0.6311 -1.9562,-1.7786 -2.8475,-3.0423 -1.8325,-2.5338 -3.3025,-5.6488 -4.67,-8.7663 -2.6962,-6.3125 -4.775,-13.0375 -6.5712,-19.79375 -0.8938,-3.38375 -1.705,-6.7925 -2.4188,-10.205 -0.6412,-3.08375 -1.2225,-6.20125 -1.6075,-9.22125 0,-1.01375 -0.015,-2.02875 -0.039,-3.055 l -6.6925,0.1325 c 0.029,1.66625 0.1637,3.17 0.34,4.635 0.051,5.8925 -0.2425,12.8875 -1.2263,20.2375 -0.63,4.665 -1.57,9.49125 -3.085,14.11625 -0.7825,2.29125 -1.6725,4.55625 -2.815,6.60005 -1.1475,2.0262 -2.5187,3.8537 -4.1137,5.1612 -1.5738,1.3125 -3.4288,2.0563 -5.255,2.2013 -0.4463,-0.014 -0.7763,0.064 -1.3125,0.042 -0.6275,-0.081 -1.2525,-0.1613 -1.8763,-0.2425 -0.3212,-0.1325 -0.76,-0.2413 -1.1487,-0.7588 -0.8625,-1.0375 -1.5063,-3.145 -1.83,-5.1925 -0.3325,-2.0925 -0.4788,-4.265 -0.49,-6.39625 -0.019,-8.56 1.0975,-16.17125 1.8762,-21.475 0.2588,-1.73625 0.73,-5.11 0.98,-7.19 0.3688,-2.9975 0.735,-5.98375 1.0988,-8.965 0.1775,-1.50625 0.3562,-3.00875 0.505,-4.55 0.1437,-1.56 0.3012,-3.05 0.2987,-4.89125 l -0.01,-3.94875 -3.8688,0.36125 c -2.2375,0.20875 -4.4775,0.41875 -6.7162,0.62875 0.2162,-2.04125 0.4312,-4.07125 0.65,-6.12875 0.46,-4.305 1.03,-9.31375 1.5912,-13.7 2.39,-18.67875 4.77,-37.275 7.1588,-55.95 l 0.1162,-0.905 -0.3362,-0.77375 c -2.1475,-4.94625 -4.3413,-9.9025 -6.5563,-14.85875 -2.1925,-4.935 -4.6837,-10.27375 -7.1562,-15.34125 l -0.265,-0.08 c 2.36,5.0125 4.6025,10.09875 6.8387,15.19 l 6.6925,15.27375 0.3163,0.72625 -0.1013,0.71 -0.3037,2.14125 -0.185,-0.0562 c 0.082,-0.70375 0.165,-1.40875 0.2475,-2.11875 l 0.086,-0.7425 -0.2587,-0.57625 c -2.7413,-6.08125 -5.515,-12.23375 -8.1875,-18.16125 -9.775,-21.555 -19.6975,-42.82875 -30.00005,-64.075 -1.13875,-2.16125 -2.17125,-4.39125 -3.34,-6.745 l -0.44875,-0.90125 -0.93375,-0.1375 c -5.44625,-0.8025 -11.30875,-1.66875 -17.96,-2.64875 7.64,1.375 17.0275,2.99375 17.28875,3.24 0.56625,0.525 -1.84125,0.61 -6.19875,0.30125 -4.0375,-0.29125 -4.2675,-0.22375 5.78,1.48875 -0.0225,-0.0462 -0.0462,-0.0925 -0.0675,-0.1375 0.0725,0.055 0.14375,0.10875 0.215,0.1625 0.0638,0.0112 0.12,0.0213 0.18375,0.0313 0.0237,0.0525 0.0512,0.11 0.075,0.1625 0.0775,0.0588 0.15625,0.11625 0.2325,0.175 -0.055,-0.009 -0.1075,-0.0163 -0.1625,-0.0238 1.04,2.24625 2.2975,4.9675 3.82625,8.27 -0.4825,-0.81375 -2.2425,-4.46375 -3.92375,-7.87375 0.0662,0.0125 0.12625,0.0238 0.1925,0.0362 -0.09,-0.0687 -0.1875,-0.14125 -0.2775,-0.21 -0.0462,-0.09 -0.09,-0.18 -0.13375,-0.27 -0.0937,-0.0125 -0.18625,-0.0262 -0.27875,-0.04 -0.10875,-0.0825 -0.2075,-0.15625 -0.3225,-0.2425 0.0288,0.065 0.0612,0.14125 0.0925,0.20875 -5.23625,-0.7675 -8.65,-1.25375 0.18375,0.415 0.2125,0.48125 0.43625,0.9875 0.6825,1.54 0.565,1.84625 0.13375,1.46875 1.4625,4.65375 3.695,8.7275 8.36125,18.885 12.66255,28.39 4.1,9.1075 8.1887,18.19 12.2725,27.26375 3.96,8.83625 7.6587,17.73875 11.5837,26.565 -2.7,21.5975 -5.4075,43.225 -8.2837,65.04875 -0.3175,2.59375 -0.6475,5.305 -0.9675,7.915 -0.2738,2.08125 -0.5475,4.1625 -0.8213,6.23875 l -0.5037,3.8375 3.9487,-0.28875 7.055,-0.51375 c -0.1287,1.16375 -0.2875,2.36375 -0.44,3.5325 l -1.0337,7.4325 c -1.27,9.185 -2.53,18.44625 -2.8175,27.97125 -0.079,2.37875 -0.041,4.7925 0.1012,7.23625 0.15,2.44375 0.4413,4.93255 1.15,7.52875 0.1525,0.6425 0.4313,1.3188 0.6513,1.9713 0.2575,0.665 0.6125,1.3491 0.9537,2.0171 l 0.6838,1.0166 0.3562,0.4995 0.4638,0.4868 c 0.3225,0.3188 0.625,0.6421 0.9837,0.9306 0.395,0.273 0.805,0.5342 1.22,0.7799 0.3975,0.2733 0.8838,0.392 1.3438,0.5566 l 0.7012,0.2124 0.2413,0.067 0.2625,0.041 0.054,0.01 0.2163,0.025 1.7225,0.2051 c 0.2425,0.048 0.6587,0.043 1.0575,0.036 l 1.1837,-0.031 c 0.3913,-0.022 0.8,-0.022 1.1725,-0.076 l 1.0825,-0.2172 c 3.7888,-0.7359 7.0963,-3.0541 9.3513,-5.7166 2.3012,-2.6788 3.8412,-5.6575 5.075,-8.6363 2.3125,-5.70375 3.5512,-11.51875 4.445,-17.28875 0.125,0.46125 0.2312,0.925 0.3587,1.385 0.8638,3.12625 2.085,6.84125 2.88,9.255 1.9425,5.80875 4.0563,11.55625 7.89,16.99185 0.9375,1.3574 2.1388,2.688 3.5613,3.9347 1.4612,1.207 3.4862,2.417 6.0325,2.623 0.3175,0.02 0.635,0.035 0.95,0.042 l 0.1187,0 0.06,8e-4 0.029,0 0.26,-0.022 0.1362,-0.017 0.27,-0.033 1.0775,-0.1343 0.5388,-0.067 c 0.2075,-0.038 0.4712,-0.1035 0.7037,-0.1563 l 1.4325,-0.3584 c 0.4975,-0.1138 0.9075,-0.2847 1.3213,-0.4531 l 1.2462,-0.5094 c 0.81,-0.3745 1.5663,-0.8471 2.3388,-1.2802 2.9637,-1.935 5.2087,-4.5068 6.9587,-7.1474 0.8775,-1.3287 1.6325,-2.6862 2.3188,-4.055 0.6212,-1.4 1.0775,-2.84 1.5325,-4.24875 1.9375,-5.57375 3.2612,-11.065 4.2387,-16.4675 0.92,-4.7825 1.31,-8.83375 1.8925,-12.97625 0.28,-2.0725 0.5725,-4.1725 0.965,-6.38875 0.4225,-2.195 0.83,-4.5925 1.7925,-6.88875 -1.1237,2.49 -1.685,5.31875 -2.2675,7.945 z m -76.0037,-14.90625 c -0.01,0.19625 -0.019,0.395 -0.028,0.59125 0.205,-0.0162 0.4075,-0.0313 0.6125,-0.0475 l 0.2037,0.18875 -0.8237,0.065 c -0.021,0.42125 -0.046,0.8425 -0.081,1.26625 l -0.195,-0.18125 c 0.027,-0.35875 0.049,-0.71375 0.066,-1.0675 l -1.1238,0.0888 -0.2062,-0.19 c 0.4462,-0.0362 0.8937,-0.0712 1.34,-0.105 0.013,-0.265 0.031,-0.53125 0.038,-0.7925 l 0.1975,0.18375 z M 993.6091,798.2925 c 2.47625,5.015 6.6763,13.79 10.9688,23.285 4.2712,9.5025 8.8075,19.66 11.9425,27.4225 -7.4225,-16.7 -14.9388,-33.38125 -22.9113,-50.7075 z m 20.3825,42.45625 -4.48,-9.86625 0.29,0.15125 4.4425,9.8125 c 1.49,3.26625 2.9625,6.5425 4.3638,9.84125 2.7612,6.37625 5.5225,12.75 8.3075,19.11625 l 0.01,-0.0763 0.019,0.14125 c 0.03,0.0713 0.061,0.14 0.091,0.21 l -0.031,0.2425 0.021,0.16625 -0.033,-0.0762 -2.0625,15.935 -0.094,-0.17875 2.0362,-16.03 -8.4762,-19.49625 c -1.4138,-3.31625 -2.9025,-6.6075 -4.4038,-9.8925 z m 12.0863,29.49875 -5.49,-12.67125 0.4625,0.3325 c 1.695,3.935 3.3912,7.87125 5.0962,11.805 l 0.011,-0.0888 0.023,0.16375 c 0.056,0.1325 0.1125,0.26375 0.17,0.39625 l -0.06,0.45 0.02,0.14875 -0.029,-0.0688 -5.4712,41.67 -0.089,-0.30875 5.3563,-41.82875 z m -7.6125,80.6125 -1.145,0.09 0.1387,-1.12875 2.7913,-22.52875 0.2487,-0.2425 -2.8275,22.79375 -0.1087,0.875 0.8862,-0.07 c 2.4863,-0.19625 4.975,-0.39125 7.4638,-0.585 -0.01,0.0712 -0.01,0.1375 -0.013,0.20875 l -7.435,0.5875 z m 9.8337,1.56375 c -0.115,1.16125 -0.2612,2.3275 -0.4037,3.4875 l -0.1763,-0.3025 c 0.1288,-1.05375 0.2575,-2.11625 0.365,-3.16875 l 0.215,-0.0163 z m 20.1688,42.62 c -0.8813,2.75375 -1.9575,5.40625 -3.36,7.80125 -1.3975,2.3825 -3.1625,4.5163 -5.3525,5.8938 -0.5588,0.3175 -1.0888,0.6962 -1.7038,0.8785 l -0.8862,0.3482 c -0.2963,0.1181 -0.6213,0.1361 -0.9288,0.2119 l -0.9325,0.1929 c -0.3087,0.036 -0.6087,0.021 -0.9125,0.038 l -0.9087,0.041 c -0.3225,-0.01 -0.7025,-0.081 -1.0513,-0.1173 l -1.0675,-0.1357 -0.2087,-0.027 c 0,0 -0.01,-10e-4 0,0 l -0.011,0 -0.044,-0.017 -0.089,-0.034 -0.3562,-0.1245 c -0.2538,-0.044 -0.4588,-0.2026 -0.6688,-0.3443 l -0.3237,-0.1991 -0.28,-0.2975 c -0.7713,-0.7512 -1.3563,-1.8887 -1.7475,-3.135 -0.8225,-2.4887 -1.12,-5.3075 -1.2338,-8.13375 -0.1087,-2.8375 -0.014,-5.735 0.1713,-8.66375 -0.1475,3.01125 -0.1988,5.97375 -0.044,8.85875 0.1625,2.87005 0.5213,5.71875 1.4025,8.16755 0.4625,1.1762 1.0338,2.3212 1.8175,2.94 0.8038,0.6703 1.4875,0.751 3.1425,0.934 2.4813,0.1968 4.9475,-0.3945 7.0413,-1.834 2.0975,-1.42 3.7825,-3.5588 5.1275,-5.9263 1.35,-2.3775 2.395,-4.9925 3.2662,-7.7 1.7475,-5.42625 2.7338,-11.25375 3.44,-17.2825 -0.5987,6.185 -1.5525,12.13875 -3.3012,17.66875 z m 10.2737,-4.51 c -0.9712,-2.8925 -1.8475,-5.80625 -2.6562,-8.73625 0.036,-0.26625 0.069,-0.5325 0.105,-0.79875 0.7875,2.9275 1.6412,5.83875 2.5762,8.7325 1.8088,5.45625 3.81,10.88255 6.6588,16.08505 l 0.087,0.5812 c -2.9063,-5.125 -4.9525,-10.475 -6.7713,-15.86375 z m 40.9,1.3675 c -0.3912,1.42125 -0.8325,2.83625 -1.2975,4.2475 l -0.7612,2.10875 c -0.1725,0.735 -0.4738,1.4325 -0.7075,2.1538 -0.2325,0.72 -0.5513,1.4225 -0.83,2.1362 -0.305,0.7 -0.7,1.3738 -1.0688,2.055 -0.755,1.355 -1.6037,2.6888 -2.59,3.9588 -1.9387,2.538 -4.4475,4.8963 -7.5612,6.4417 -0.1963,0 -0.4038,-0.022 -0.6038,-0.034 3.0513,-1.3833 5.465,-3.5464 7.325,-5.8751 1.8513,-2.3563 3.3138,-4.8563 4.4213,-7.5113 0.5362,-1.3362 1.0012,-2.70125 1.45,-4.0775 0.5087,-1.3575 0.9525,-2.75 1.4025,-4.17125 0.8837,-2.84375 1.6675,-5.82875 2.4437,-9.0075 l 0.41,-0.9625 c -0.5887,2.84875 -1.245,5.6975 -2.0325,8.5375"
         style="fill:#231f20;fill-opacity:1;fill-rule:evenodd;stroke:none"
         id="path3832" />
      <path
         inkscape:connector-curvature="0"
         d="m 1028.2629,950.08625 0.21,-0.0175 c 0,-0.0688 0.01,-0.13625 0.01,-0.20625 -0.067,0.006 -0.1375,0.0113 -0.2075,0.0175 0,0.0675 0,0.13625 -0.01,0.20625"
         style="fill:#231f20;fill-opacity:1;fill-rule:evenodd;stroke:none"
         id="path3834" />
      <path
         inkscape:connector-curvature="0"
         d="m 987.1741,781.51875 c -0.085,-0.065 -0.17125,-0.12875 -0.25875,-0.19375 -0.0512,-0.009 -0.0975,-0.0175 -0.1475,-0.025 0.0525,0.10625 0.10625,0.215 0.16,0.3225 0.105,0.0163 0.21,0.0325 0.31625,0.0475 -0.0237,-0.05 -0.0475,-0.1025 -0.07,-0.15125"
         style="fill:#231f20;fill-opacity:1;fill-rule:evenodd;stroke:none"
         id="path3836" />
      <path
         inkscape:connector-curvature="0"
         d="m 1016.5204,849 c -7.4225,-16.7 -14.9388,-33.38125 -22.9113,-50.7075 2.47625,5.015 6.6763,13.79 10.9688,23.285 4.2712,9.5025 8.8075,19.66 11.9425,27.4225"
         style="fill:#ffffff;fill-opacity:1;fill-rule:evenodd;stroke:none"
         id="path3838" />
      <path
         inkscape:connector-curvature="0"
         d="m 1021.0504,857.90875 c 1.8337,4.2575 3.6662,8.51625 5.5125,12.76875 -0.05,-0.33875 -0.099,-0.67875 -0.1438,-1.0175 l -5.6087,42.725 -0.089,-0.30875 5.4363,-42.45125 0.1525,1.15875 -5.7225,-13.2075 0.4625,0.3325"
         style="fill:#ffffff;fill-opacity:1;fill-rule:evenodd;stroke:none"
         id="path3840" />
      <path
         inkscape:connector-curvature="0"
         d="m 1026.5754,989.2175 c -0.1475,3.01125 -0.1988,5.97375 -0.044,8.85875 0.1625,2.87005 0.5213,5.71875 1.4025,8.16755 0.4625,1.1762 1.0338,2.3212 1.8175,2.94 0.8038,0.6703 1.4875,0.751 3.1425,0.934 2.4813,0.1968 4.9475,-0.3945 7.0413,-1.834 2.0975,-1.42 3.7825,-3.5588 5.1275,-5.9263 1.35,-2.3775 2.395,-4.9925 3.2662,-7.7 1.7475,-5.42625 2.7338,-11.25375 3.44,-17.2825 -0.5987,6.185 -1.5525,12.13875 -3.3012,17.66875 -0.8813,2.75375 -1.9575,5.40625 -3.36,7.80125 -1.3975,2.3825 -3.1625,4.5163 -5.3525,5.8938 -0.5588,0.3175 -1.0888,0.6962 -1.7038,0.8785 l -0.8862,0.3482 c -0.2963,0.1181 -0.6213,0.1361 -0.9288,0.2119 l -0.9325,0.1929 c -0.3087,0.036 -0.6087,0.021 -0.9125,0.038 l -0.9087,0.041 c -0.3225,-0.01 -0.7025,-0.081 -1.0513,-0.1173 l -1.0675,-0.1357 -0.2675,-0.034 -0.033,0 c 0.2063,0.033 0.051,0.01 0.094,0.012 l -0.011,0 -0.044,-0.017 -0.089,-0.034 -0.3562,-0.1245 c -0.2538,-0.044 -0.4588,-0.2026 -0.6688,-0.3443 l -0.3237,-0.1991 -0.28,-0.2975 c -0.7713,-0.7512 -1.3563,-1.8887 -1.7475,-3.135 -0.8225,-2.4887 -1.12,-5.3075 -1.2338,-8.13375 -0.1087,-2.8375 -0.014,-5.735 0.1713,-8.66375"
         style="fill:#ffffff;fill-opacity:1;fill-rule:evenodd;stroke:none"
         id="path3842" />
      <path
         inkscape:connector-curvature="0"
         d="m 1084.2216,1014.9689 c 3.0513,-1.3833 5.465,-3.5464 7.325,-5.8751 1.8513,-2.3563 3.3138,-4.8563 4.4213,-7.5113 0.5362,-1.3362 1.0012,-2.70125 1.45,-4.0775 0.5087,-1.3575 0.9525,-2.75 1.4025,-4.17125 0.8837,-2.84375 1.6675,-5.82875 2.4437,-9.0075 l 0.41,-0.9625 c -0.5887,2.84875 -1.245,5.6975 -2.0325,8.5375 -0.3912,1.42125 -0.8325,2.83625 -1.2975,4.2475 l -0.7612,2.10875 c -0.1725,0.735 -0.4738,1.4325 -0.7075,2.1538 -0.2325,0.72 -0.5513,1.4225 -0.83,2.1362 -0.305,0.7 -0.7,1.3738 -1.0688,2.055 -0.755,1.355 -1.6037,2.6888 -2.59,3.9588 -1.9387,2.538 -4.4475,4.8963 -7.5612,6.4417 -0.1963,0 -0.4038,-0.022 -0.6038,-0.034"
         style="fill:#ffffff;fill-opacity:1;fill-rule:evenodd;stroke:none"
         id="path3844" />
      <path
         inkscape:connector-curvature="0"
         d="m 1024.8354,886.1675 2.0887,-16.44 0.1,0.76 -8.6287,-19.84625 c -1.4138,-3.31625 -2.9025,-6.6075 -4.4038,-9.8925 l -4.48,-9.86625 0.29,0.15125 4.4425,9.8125 c 1.49,3.26625 2.9625,6.5425 4.3638,9.84125 2.85,6.5825 5.6987,13.16375 8.575,19.73375 -0.037,-0.225 -0.076,-0.45 -0.1063,-0.675 l -2.1475,16.6 -0.094,-0.17875"
         style="fill:#ffffff;fill-opacity:1;fill-rule:evenodd;stroke:none"
         id="path3846" />
      <path
         inkscape:connector-curvature="0"
         d="m 1054.2466,973.13875 c 1.2575,5.59125 2.7525,11.1225 4.52,16.5925 1.8088,5.45625 3.81,10.88255 6.6588,16.08505 l 0.087,0.5812 c -2.9063,-5.125 -4.9525,-10.475 -6.7713,-15.86375 -1.81,-5.39375 -3.3112,-10.855 -4.6137,-16.3675 l 0.1187,-1.0275"
         style="fill:#ffffff;fill-opacity:1;fill-rule:evenodd;stroke:none"
         id="path3848" />
      <path
         inkscape:connector-curvature="0"
         d="m 1027.7191,955.60875 c 0.265,-2.1875 0.5463,-4.41 0.5913,-6.52125 l 0.9862,0.91625 -10.8312,0.85625 -1.145,0.09 0.1387,-1.12875 2.7913,-22.52875 0.2487,-0.2425 -2.8275,22.79375 -0.1087,0.875 0.8862,-0.07 c 3.61,-0.28625 7.22,-0.57125 10.8313,-0.84875 l -0.765,-0.7125 c -0.043,2.2275 -0.34,4.54125 -0.62,6.82375 l -0.1763,-0.3025"
         style="fill:#ffffff;fill-opacity:1;fill-rule:evenodd;stroke:none"
         id="path3850" />
      <path
         inkscape:connector-curvature="0"
         d="m 1071.7541,850.75625 c 0.4988,-0.35 1.085,-0.67875 1.6888,-0.97875 0.5062,-0.40375 1.0637,-0.78875 1.6062,-1.20375 0.535,-0.41 1.0388,-0.8575 1.5913,-1.2625 0.275,-0.20375 0.5712,-0.39375 0.82,-0.6125 l 0.7162,-0.6825 c 0.9625,-0.9125 1.8763,-1.845 2.79,-2.78125 l 1.3438,-1.415 c 0.4175,-0.49375 0.8187,-1.005 1.2125,-1.51125 1.5887,-2.02875 3.1225,-4.075 4.645,-6.1175 1.5175,-2.03625 3.0262,-4.07875 4.5475,-6.04125 1.48,-1.9025 3.18,-3.92375 4.82,-5.85 0.4087,-0.4825 0.755,-1.04625 1.1575,-1.53625 1.64,-2.005 3.2812,-4.0125 4.9187,-6.01625 l 8.3325,-10.48625 c 1.7875,-2.28 3.4713,-4.6525 5.285,-6.88375 1.4,-1.6925 2.8275,-3.35 4.2513,-5.01125 l 4.1487,-5.075 c 0.4825,-0.59375 1.0013,-1.355 1.4338,-1.76875 1.5525,-1.48875 2.9487,-3.0775 4.23,-4.72 l 1.3525,-1.73125 -0.1638,-2.04875 c -0.1412,-1.75125 -0.4512,-3.465 -0.7837,-5.14875 -0.36,-1.68125 -0.655,-3.3375 -1.225,-4.93625 -1.2263,-2.2325 -1.745,-3.78 -3.1025,-6.29375 0.2037,0.7025 0.3987,1.38125 0.585,2.03125 0.1512,0.65125 0.1912,1.28125 0.2812,1.8675 0.036,0.59125 0.2388,1.1325 0.3763,1.635 0.089,0.505 0.1037,0.97125 0.15,1.385 -0.305,1.07875 -0.6025,1.8475 -0.9363,2.7775 -0.1037,-1.05125 -0.2187,-2.32625 -0.4187,-3.5025 -0.072,-0.54625 -0.2525,-1.06 -0.385,-1.5725 -0.1038,-0.51125 -0.2075,-1.0275 -0.3113,-1.535 0,1.02375 0,1.99375 0.041,3.08 0.058,2.27375 0.1162,4.5475 0.19,7.39375 -0.8575,-3.52 -1.5713,-6.10125 -1.8888,-8.475 -0.2625,-1.62875 -0.3125,-0.625 -0.7162,0.98375 -0.2988,2.44375 -0.4825,4.73 -0.7975,7.4975 -0.3,-1.81625 -0.5075,-3.06875 -0.81,-4.895 -0.1438,1.3 -0.2925,1.96375 -0.3,2.71875 -0.013,1.9175 -0.06,3.835 0,5.74125 l 1.0475,-3.335 c -3.3612,3.75125 -6.6112,7.58 -9.4087,11.72125 -3.5813,5.42125 -21.7838,26.8375 -23.495,29.5025 -0.5563,0.8925 -1.2463,1.8975 -1.9225,2.725 -1.835,2.22 -3.7663,4.6175 -5.5388,6.93125 l -5.325,6.89625 c -0.785,1.01 -1.4962,2.21625 -2.2512,3.315 l 0.23,0.235 c 1.7725,-2.15875 3.5287,-4.3525 5.2812,-6.57875 l 0.2213,0.175 c -0.9888,1.46 -1.945,2.97875 -2.9913,4.3325 -3.5737,4.33625 -6.5537,9.07 -9.8837,13.35375 -0.5563,0.73375 -1.2013,1.29625 -1.7813,2.08 -0.2025,0.4 -0.4012,0.855 -0.7637,1.13125 -0.3488,0.325 -0.8975,0.62625 -1.3675,0.96125 0.4462,-0.23125 0.875,-0.45125 1.2825,-0.6625 0.3375,-0.2325 0.6575,-0.4575 0.8712,-0.75 0.1125,-0.14125 0.235,-0.21 0.3213,-0.37875 0.125,-0.08 0.2437,-0.15625 0.3587,-0.22875 0.2063,-0.125 0.35,-0.1825 0.4,-0.14875 0.4213,0.27625 0.4325,1.12875 -0.185,2.08625 -0.3987,0.53125 -0.5862,0.77 -0.065,0.54875 0.5788,-0.1625 1.7638,-0.86375 3.6263,-2.58 -0.06,0.16875 -0.4125,0.58 -0.8425,1.04625 -0.4388,0.46 -1.0088,0.93625 -1.4013,1.31 -0.3912,0.35625 -0.7937,0.5025 -0.595,0.5075 0.08,-0.005 0.3375,-0.0463 0.6675,-0.17875 0.31,-0.17375 0.755,-0.43625 1.3713,-0.8125 0.6075,-0.0588 0.7037,0.26375 1.4612,-0.22375 z m 2.095,-1.94375 c 0.47,-0.53125 1.1113,-1.2375 1.8763,-2.03 0.8525,-0.725 1.6312,-1.68875 2.5512,-2.6 0.875,-0.93625 1.8363,-1.87125 2.7488,-2.74875 0.9275,-0.8725 1.7487,-1.7475 2.5487,-2.42375 -0.71,0.865 -1.385,1.7625 -2.1562,2.59125 -0.785,0.8175 -1.5725,1.63875 -2.3638,2.46375 -0.81,0.8125 -1.6087,1.65125 -2.4825,2.43125 -0.9512,0.725 -1.7637,1.56125 -2.7225,2.31625 z m 19.1063,-22.9575 0.1012,0.17125 c -2.7987,3.4825 -5.5837,7.20875 -8.4587,10.8425 l -0.2825,-0.36375 c 2.925,-3.56875 5.7675,-7.23125 8.64,-10.65 z m 19.2737,-33.725 c -3.2875,5.14625 -6.7287,9.065 -10.7337,13.2275 3.7187,-4.5825 6.9925,-8.615 10.7337,-13.2275 z m 17.5675,-24.6675 0.28,-0.2675 c 0.345,1.36375 0.4963,2.7425 0.7325,4.1125 l 0.6588,4.11875 -0.3738,0.13625 c -0.215,-1.34125 -0.585,-2.58125 -0.8575,-3.88 -0.2987,-1.29625 -0.4125,-2.65875 -0.44,-4.22 z m -50.55,74.17875 -0.2025,-0.24375 c 3.215,-3.64875 6.1263,-7.52125 9.1075,-11.29875 l 0.1113,0.1325 c -2.945,3.81375 -5.8063,7.73625 -9.0163,11.41 z m 48.5675,-59.54 0.31,0.09 -4.62,6.6125 -0.525,-0.1225 4.835,-6.58 z m -34.1625,39.74625 -0.2925,-0.14625 6.0125,-7.7875 0.2063,0.2475 -5.9263,7.68625"
         style="fill:#231f20;fill-opacity:1;fill-rule:evenodd;stroke:none"
         id="path3852" />
      <path
         inkscape:connector-curvature="0"
         d="m 1083.5741,839.01 c -0.71,0.865 -1.385,1.7625 -2.1562,2.59125 -0.785,0.8175 -1.5725,1.63875 -2.3638,2.46375 -0.81,0.8125 -1.6087,1.65125 -2.4825,2.43125 -0.9512,0.725 -1.7637,1.56125 -2.7225,2.31625 0.47,-0.53125 1.1113,-1.2375 1.8763,-2.03 0.8525,-0.725 1.6312,-1.68875 2.5512,-2.6 0.875,-0.93625 1.8363,-1.87125 2.7488,-2.74875 0.9275,-0.8725 1.7487,-1.7475 2.5487,-2.42375"
         style="fill:#ffffff;fill-opacity:1;fill-rule:evenodd;stroke:none"
         id="path3854" />
      <path
         inkscape:connector-curvature="0"
         d="m 1084.3154,836.505 c 2.925,-3.56875 5.7675,-7.23125 8.64,-10.65 l 0.1012,0.17125 c -2.7987,3.4825 -5.5837,7.20875 -8.4587,10.8425 l -0.2825,-0.36375"
         style="fill:#ffffff;fill-opacity:1;fill-rule:evenodd;stroke:none"
         id="path3856" />
      <path
         inkscape:connector-curvature="0"
         d="m 1101.4954,805.3575 c 3.7187,-4.5825 6.9925,-8.615 10.7337,-13.2275 -3.2875,5.14625 -6.7287,9.065 -10.7337,13.2275"
         style="fill:#ffffff;fill-opacity:1;fill-rule:evenodd;stroke:none"
         id="path3858" />
      <path
         inkscape:connector-curvature="0"
         d="m 1131.0941,775.5625 c -0.215,-1.34125 -0.585,-2.58125 -0.8575,-3.88 -0.2987,-1.29625 -0.4125,-2.65875 -0.44,-4.22 l 0.28,-0.2675 c 0.345,1.36375 0.4963,2.7425 0.7325,4.1125 l 0.6588,4.11875 -0.3738,0.13625"
         style="fill:#ffffff;fill-opacity:1;fill-rule:evenodd;stroke:none"
         id="path3860" />
      <path
         inkscape:connector-curvature="0"
         d="m 1088.2629,830.23125 c -2.945,3.81375 -5.8063,7.73625 -9.0163,11.41 l -0.2025,-0.24375 c 3.215,-3.64875 6.1263,-7.52125 9.1075,-11.29875 l 0.1113,0.1325"
         style="fill:#ffffff;fill-opacity:1;fill-rule:evenodd;stroke:none"
         id="path3862" />
      <path
         inkscape:connector-curvature="0"
         d="m 1122.9791,788.68125 4.835,-6.58 0.31,0.09 -4.62,6.6125 -0.525,-0.1225"
         style="fill:#ffffff;fill-opacity:1;fill-rule:evenodd;stroke:none"
         id="path3864" />
      <path
         inkscape:connector-curvature="0"
         d="m 1099.5779,814.16125 -5.9263,7.68625 -0.2925,-0.14625 6.0125,-7.7875 0.2063,0.2475"
         style="fill:#ffffff;fill-opacity:1;fill-rule:evenodd;stroke:none"
         id="path3866" />
      <path
         inkscape:connector-curvature="0"
         d="m 1137.4816,776.69875 c 0.3475,-0.22375 0.7,-0.5125 0.9638,-0.81625 0.5312,-0.60875 0.9825,-1.2525 1.4287,-1.8975 0.3338,-0.7 0.575,-1.44375 1.0013,-2.11125 0.049,-0.0812 0.035,-0.20125 0.084,-0.285 0.2013,-0.345 0.4288,-0.67375 0.6225,-1.02125 0.3313,-0.6 0.6538,-1.20375 0.9588,-1.8175 0.2187,-0.385 0.2362,-0.87125 0.42,-1.27125 0.2637,-0.62125 0.59,-1.21 0.8812,-1.81625 0.051,-0.10625 0.066,-0.25375 0.15,-0.31625 0.845,-0.5725 0.6825,-1.59875 0.1875,-2.72 -0.2375,-0.50375 -0.44,-0.86875 -0.7625,-1.465 0.066,0.5175 -0.1,0.85875 -0.1325,1.125 -0.25,0.06 -0.4387,0.0975 -0.7125,0.12 0.044,-0.15875 0.089,-0.35375 0.1063,-0.54625 0.013,-0.18125 -0.011,-0.3625 -0.01,-0.5375 -0.096,0.12875 -0.2187,0.23375 -0.3125,0.37375 -0.1912,0.2875 -0.39,0.585 -0.6612,0.93875 -0.1263,-0.66625 -0.12,-1.10875 -0.085,-1.49625 0.026,-0.2675 -0.15,-0.18125 -0.4225,-0.0425 -0.2025,0.1075 -0.4325,0.19625 -0.6663,0.29125 -0.2137,0.10375 -0.4462,0.20625 -0.7037,0.31625 0.076,-0.27625 0.079,-0.48875 0.2325,-0.7275 -0.31,0.07 -0.43,0.1225 -0.55,0.19375 -0.2413,0.18125 -0.4938,0.35375 -0.72,0.54 -0.1863,0.205 -0.3675,0.4125 -0.5025,0.64125 -0.2825,0.45 -0.4925,0.9325 -0.5475,1.48875 -0.045,0.5225 -0.4513,1.2225 -0.9563,1.85375 -0.4412,0.66125 -1.0112,1.24 -1.5112,1.46 -0.08,0.0363 -0.155,0.14 -0.1575,0.225 -0.013,0.50875 -0.025,1.085 -0.037,1.58625 -0.01,0.17375 -0.051,0.36 -0.145,0.4975 -0.475,0.765 -1.1663,1.42375 -1.3325,2.33875 -0.058,0.1925 -0.01,0.45625 -0.01,0.68625 l 0.1925,0.0975 c 0.155,-0.40875 0.32,-0.81375 0.495,-1.2125 l 0.1825,0.0863 c -0.031,0.28625 -0.019,0.5975 -0.105,0.85 -0.2825,0.8325 -0.5763,1.6525 -0.8138,2.50625 -0.079,0.28375 -0.115,0.59625 -0.1837,0.96375 0.3162,-0.16875 0.5987,-0.42375 0.8062,-0.33875 0.4425,0.18375 0.8725,0.485 1.2125,0.8225 0.3938,0.39625 0.475,0.39375 0.8313,-0.2775 0.2462,0.22375 -0.14,1.1425 0.6062,0.59125 0.2888,0.0588 0.5488,0.20375 0.675,0.1225 z m 0.015,-0.4525 c -0.061,-0.48625 0.475,-1.3675 1.3313,-1.6475 -0.4375,0.54125 -0.875,1.0825 -1.3313,1.6475 z m 2.1925,-3.98 0.1138,0.0662 c -0.3163,0.63 -0.5975,1.27625 -1.08,1.82625 l -0.2663,-0.145 c 0.515,-0.5325 0.8588,-1.14875 1.2325,-1.7475 z m -1.015,-6.99625 c -0.081,0.99125 -0.585,1.63625 -1.3025,2.27 0.4225,-0.8 0.7975,-1.50125 1.3025,-2.27 z m 5.1338,-2.73875 0.1575,0.0325 c 0.1662,0.54875 0.095,0.98375 0.1487,1.48 l -0.2212,-0.0875 c -0.016,-0.23625 -0.1138,-0.4975 -0.1538,-0.73875 -0.03,-0.2375 -0.026,-0.4675 0.069,-0.68625 z m -6.3788,12.19875 -0.1837,-0.0975 c 0.4075,-0.6225 0.8937,-1.2075 1.26,-1.85 l 0.1062,0.0575 c -0.33,0.66 -0.7925,1.2575 -1.1825,1.89 z m 5.85,-10.25375 0.1838,0.0637 -0.1975,1.27625 -0.3013,-0.1025 0.315,-1.2375 z m -4.5762,6.71625 -0.2025,-0.0862 0.5837,-1.39125 0.1888,0.10125 -0.57,1.37625"
         style="fill:#231f20;fill-opacity:1;fill-rule:evenodd;stroke:none"
         id="path3868" />
      <path
         inkscape:connector-curvature="0"
         d="m 1138.8279,774.59875 c -0.4375,0.54125 -0.875,1.0825 -1.3313,1.6475 -0.061,-0.48625 0.475,-1.3675 1.3313,-1.6475"
         style="fill:#ffffff;fill-opacity:1;fill-rule:evenodd;stroke:none"
         id="path3870" />
      <path
         inkscape:connector-curvature="0"
         d="m 1138.4566,774.01375 c 0.515,-0.5325 0.8588,-1.14875 1.2325,-1.7475 l 0.1138,0.0662 c -0.3163,0.63 -0.5975,1.27625 -1.08,1.82625 l -0.2663,-0.145"
         style="fill:#ffffff;fill-opacity:1;fill-rule:evenodd;stroke:none"
         id="path3872" />
      <path
         inkscape:connector-curvature="0"
         d="m 1137.3716,767.54 c 0.4225,-0.8 0.7975,-1.50125 1.3025,-2.27 -0.081,0.99125 -0.585,1.63625 -1.3025,2.27"
         style="fill:#ffffff;fill-opacity:1;fill-rule:evenodd;stroke:none"
         id="path3874" />
      <path
         inkscape:connector-curvature="0"
         d="m 1143.8929,763.95625 c -0.016,-0.23625 -0.1138,-0.4975 -0.1538,-0.73875 -0.03,-0.2375 -0.026,-0.4675 0.069,-0.68625 l 0.1575,0.0325 c 0.1662,0.54875 0.095,0.98375 0.1487,1.48 l -0.2212,-0.0875"
         style="fill:#ffffff;fill-opacity:1;fill-rule:evenodd;stroke:none"
         id="path3876" />
      <path
         inkscape:connector-curvature="0"
         d="m 1138.6116,772.84 c -0.33,0.66 -0.7925,1.2575 -1.1825,1.89 l -0.1837,-0.0975 c 0.4075,-0.6225 0.8937,-1.2075 1.26,-1.85 l 0.1062,0.0575"
         style="fill:#ffffff;fill-opacity:1;fill-rule:evenodd;stroke:none"
         id="path3878" />
      <path
         inkscape:connector-curvature="0"
         d="m 1142.9641,765.71375 0.315,-1.2375 0.1838,0.0637 -0.1975,1.27625 -0.3013,-0.1025"
         style="fill:#ffffff;fill-opacity:1;fill-rule:evenodd;stroke:none"
         id="path3880" />
      <path
         inkscape:connector-curvature="0"
         d="m 1139.2729,769.81625 -0.57,1.37625 -0.2025,-0.0862 0.5837,-1.39125 0.1888,0.10125"
         style="fill:#ffffff;fill-opacity:1;fill-rule:evenodd;stroke:none"
         id="path3882" />
      <path
         inkscape:connector-curvature="0"
         d="m 1140.4754,781.28625 c 0.3975,-0.16 0.785,-0.42625 1.125,-0.69375 0.675,-0.55125 1.2987,-1.145 1.9237,-1.73875 0.5963,-0.62125 1.1675,-1.26625 1.8388,-1.83125 0.082,-0.0688 0.1262,-0.1825 0.2062,-0.25375 0.3288,-0.28 0.695,-0.59125 1.0125,-0.8625 0.565,-0.51 1.1263,-1.025 1.6725,-1.55375 0.3563,-0.3425 0.6525,-0.7425 1.025,-1.06375 0.6025,-0.4625 1.1088,-1.01 1.6425,-1.53375 0.091,-0.0937 0.1688,-0.23625 0.2713,-0.2775 0.4862,-0.21375 0.8737,-0.51125 1.0887,-0.95625 0,-0.13 0,-0.285 0,-0.47875 0.036,-0.1025 0.078,-0.2225 0.1262,-0.3575 0.075,-0.245 0.1413,-0.49375 0.2,-0.74375 0.065,-0.48 -0.13,-1.0325 -0.11,-1.6225 -0.2512,0.43125 -0.425,0.84875 -0.6562,1.01625 -0.3013,-0.0362 -0.5138,-0.0625 -0.7725,-0.0963 0.1075,-0.14375 0.2537,-0.30625 0.3575,-0.48625 0.094,-0.16875 0.1275,-0.37 0.2012,-0.54625 -0.145,0.10125 -0.3037,0.17875 -0.455,0.29125 -0.355,0.27375 -0.625,0.48125 -1.0062,0.7775 0.1687,-0.67625 0.315,-1.15125 0.4662,-1.5675 0.1238,-0.26875 -0.09,-0.23625 -0.3987,-0.16 -0.44,0.15125 -0.8313,0.31125 -1.425,0.39125 0.2137,-0.22625 0.2775,-0.4625 0.4537,-0.72625 -0.25,0.065 -0.4075,0.0688 -0.525,0.13375 -0.1337,0.0762 -0.2575,0.16375 -0.4687,0.16625 -0.096,0.0125 -0.19,0.0263 -0.2813,0.0387 l -0.1812,0.1325 c -0.2388,0.18 -0.4713,0.365 -0.6875,0.5625 -0.4363,0.39625 -0.8175,0.84 -1.0875,1.3875 -0.4813,1.0475 -2.3038,2.75125 -3.335,3.04125 -0.08,0.0238 -0.185,0.1175 -0.2225,0.2025 -0.22,0.50125 -0.4688,1.06875 -0.6863,1.56375 -0.08,0.17 -0.1937,0.34875 -0.3275,0.4725 -0.7262,0.6825 -1.5137,1.3 -2.1412,2.0775 -0.1438,0.1675 -0.2313,0.415 -0.3463,0.625 l 0.1175,0.12 1.0138,-1.04 0.1087,0.10375 c -0.1637,0.26 -0.305,0.54875 -0.4987,0.77 -0.6388,0.73 -1.3,1.43125 -1.9113,2.1875 -0.2,0.25375 -0.375,0.545 -0.6025,0.8775 0.3638,-0.0937 0.7313,-0.285 0.8775,-0.16375 0.3138,0.26 0.5638,0.6275 0.7225,1.0225 0.185,0.46 0.2575,0.475 0.8475,-0.12875 0.1188,0.25875 -0.5875,1.11375 0.2863,0.6875 0.2275,0.10625 0.3962,0.29375 0.5375,0.23375 z m 0.19,-0.455 c 0.1325,-0.50625 0.9462,-1.3025 1.7612,-1.48125 -0.5787,0.4875 -1.1575,0.9725 -1.7612,1.48125 z m 3.5125,-3.61 0.064,0.0762 c -0.5612,0.5475 -1.1125,1.1025 -1.72,1.60625 l -0.155,-0.17375 c 0.6313,-0.4775 1.2163,-0.99875 1.8113,-1.50875 z m 2.17,-6.93625 c -0.4263,1.0175 -1.1513,1.5525 -2.0288,2.06875 0.7038,-0.71625 1.3213,-1.3475 2.0288,-2.06875 z m 5.9137,-1.5625 0.1525,0.0863 c -0.1912,0.46625 -0.5225,0.8025 -0.5125,1.46 l -0.1787,-0.14375 c 0.02,-0.61375 0.037,-1.145 0.5387,-1.4025 z m -11.045,10.58375 -0.1125,-0.12125 c 0.6113,-0.54875 1.2438,-1.0775 1.845,-1.635 l 0.061,0.0663 c -0.58,0.58 -1.1975,1.125 -1.7938,1.69 z m 9.6763,-8.84625 0.1425,0.105 -0.7125,1.215 -0.2363,-0.1675 0.8063,-1.1525 z m -7.0475,5.61125 -0.1313,-0.10875 1.1188,-1.24625 0.115,0.125 -1.1025,1.23"
         style="fill:#231f20;fill-opacity:1;fill-rule:evenodd;stroke:none"
         id="path3884" />
      <path
         inkscape:connector-curvature="0"
         d="m 1142.4266,779.35 c -0.5787,0.4875 -1.1575,0.9725 -1.7612,1.48125 0.1325,-0.50625 0.9462,-1.3025 1.7612,-1.48125"
         style="fill:#ffffff;fill-opacity:1;fill-rule:evenodd;stroke:none"
         id="path3886" />
      <path
         inkscape:connector-curvature="0"
         d="m 1142.3666,778.73 c 0.6313,-0.4775 1.2163,-0.99875 1.8113,-1.50875 l 0.064,0.0762 c -0.5612,0.5475 -1.1125,1.1025 -1.72,1.60625 l -0.155,-0.17375"
         style="fill:#ffffff;fill-opacity:1;fill-rule:evenodd;stroke:none"
         id="path3888" />
      <path
         inkscape:connector-curvature="0"
         d="m 1144.3191,772.35375 c 0.7038,-0.71625 1.3213,-1.3475 2.0288,-2.06875 -0.4263,1.0175 -1.1513,1.5525 -2.0288,2.06875"
         style="fill:#ffffff;fill-opacity:1;fill-rule:evenodd;stroke:none"
         id="path3890" />
      <path
         inkscape:connector-curvature="0"
         d="m 1151.7229,770.125 c 0.02,-0.61375 0.037,-1.145 0.5387,-1.4025 l 0.1525,0.0863 c -0.1912,0.46625 -0.5225,0.8025 -0.5125,1.46 l -0.1787,-0.14375"
         style="fill:#ffffff;fill-opacity:1;fill-rule:evenodd;stroke:none"
         id="path3892" />
      <path
         inkscape:connector-curvature="0"
         d="m 1143.0104,777.61625 c -0.58,0.58 -1.1975,1.125 -1.7938,1.69 l -0.1125,-0.12125 c 0.6113,-0.54875 1.2438,-1.0775 1.845,-1.635 l 0.061,0.0663"
         style="fill:#ffffff;fill-opacity:1;fill-rule:evenodd;stroke:none"
         id="path3894" />
      <path
         inkscape:connector-curvature="0"
         d="m 1150.0866,771.6125 0.8063,-1.1525 0.1425,0.105 -0.7125,1.215 -0.2363,-0.1675"
         style="fill:#ffffff;fill-opacity:1;fill-rule:evenodd;stroke:none"
         id="path3896" />
      <path
         inkscape:connector-curvature="0"
         d="m 1144.9479,774.84125 -1.1025,1.23 -0.1313,-0.10875 1.1188,-1.24625 0.115,0.125"
         style="fill:#ffffff;fill-opacity:1;fill-rule:evenodd;stroke:none"
         id="path3898" />
      <path
         inkscape:connector-curvature="0"
         d="m 1144.2679,784.9 c 0.385,-0.0537 0.8725,-0.075 1.2987,-0.1325 0.4538,-0.0238 0.7613,-0.25625 1.115,-0.41875 0.33,-0.17875 0.6813,-0.36875 1.0188,-0.55125 0.7025,-0.3375 1.2825,-0.8475 1.9987,-1.17875 0.086,-0.0425 0.1375,-0.1425 0.225,-0.1875 0.3425,-0.17125 0.7363,-0.36625 1.0663,-0.53125 0.6162,-0.29875 1.14,-0.73125 1.7012,-1.11125 0.355,-0.26 0.66,-0.59 1.0313,-0.82125 0.5687,-0.3525 1.175,-0.645 1.765,-0.965 0.1025,-0.0563 0.1975,-0.165 0.3062,-0.1675 0.2613,-0.008 0.4913,-0.0563 0.695,-0.1375 0.1963,-0.0962 0.3263,-0.28125 0.4563,-0.46 0.1262,-0.185 0.2337,-0.39375 0.3287,-0.615 0.021,-0.145 -0.02,-0.38125 -0.026,-0.565 -0.028,-0.21375 0.023,-0.315 0.031,-0.47625 0.045,-0.545 0.049,-0.9575 0.045,-1.64625 -0.1962,0.47375 -0.52,0.66625 -0.6812,0.87625 -0.2613,-0.0925 -0.425,-0.13 -0.67,-0.2375 0.089,-0.15375 0.2225,-0.3 0.335,-0.45375 0.099,-0.14875 0.1662,-0.31875 0.2537,-0.46875 -0.1487,0.0588 -0.3087,0.0862 -0.4587,0.15875 -0.3113,0.1475 -0.615,0.3225 -1.0325,0.47875 0.18,-0.685 0.4325,-1.0175 0.63,-1.36625 0.1437,-0.23 -0.053,-0.24375 -0.3525,-0.25625 -0.23,-0.007 -0.4563,-0.0213 -0.76,-0.1325 -0.3213,-0.13625 -0.5025,-0.065 -0.7913,-0.1125 0.083,-0.125 0.1513,-0.23 0.2213,-0.33625 0.057,-0.1225 0.2325,-0.0788 0.3775,-0.1175 -0.3313,-0.13 -0.5863,-0.32 -0.6775,-0.2525 -1.1613,0.17875 -2.055,0.73 -2.6375,1.705 -0.5363,0.93125 -2.575,1.88875 -3.6313,1.8125 -0.081,-0.002 -0.1912,0.06 -0.2325,0.13375 -0.2637,0.4625 -0.5062,0.93625 -0.7787,1.38625 -0.091,0.1475 -0.215,0.2925 -0.355,0.375 -0.3688,0.215 -0.76,0.445 -1.1513,0.6725 -0.35,0.27 -0.6962,0.545 -1.0337,0.83625 -0.1513,0.13 -0.2525,0.3575 -0.3775,0.5375 l 0.1012,0.15375 1.0438,-0.765 0.097,0.13875 c -0.1775,0.215 -0.335,0.46625 -0.5375,0.63375 -0.3225,0.29375 -0.6963,0.50875 -0.9763,0.86 -0.2762,0.35625 -0.5237,0.75125 -0.8312,1.06375 -0.195,0.22375 -0.3738,0.4825 -0.6025,0.7775 0.2962,-0.0762 0.625,-0.215 0.725,-0.0888 0.2175,0.2675 0.3662,0.6275 0.42,0.98 0.059,0.4075 0.1162,0.42625 0.7662,0.04 0.059,0.25125 -0.7737,0.78 0.1063,0.62375 0.1812,0.135 0.29,0.3225 0.435,0.30875 z m 0.2837,-0.31125 c 0.1288,-0.17125 0.4475,-0.3375 0.8338,-0.4525 0.3775,-0.12625 0.7725,-0.2725 1.1875,-0.21625 -0.3125,0.13875 -0.6088,0.2975 -0.9375,0.42 -0.3563,0.0825 -0.7163,0.165 -1.0838,0.24875 z m 3.9613,-2.1725 0.058,0.1 c -0.5813,0.3875 -1.225,0.68625 -1.8575,0.99875 l -0.1338,-0.22 c 0.6525,-0.28125 1.32,-0.5425 1.9338,-0.87875 z m 2.7,-6.27875 c -0.5263,0.85 -1.28,1.15375 -2.2013,1.35875 0.7625,-0.47125 1.435,-0.88625 2.2013,-1.35875 z m 5.7775,0.16 0.1262,0.11625 c -0.1312,0.1775 -0.044,0.665 -0.1637,0.86 l -0.3713,0.565 -0.16,-0.1975 c 0.1175,-0.19 0.1688,-0.45 0.2613,-0.665 0.1537,-0.1275 0.037,-0.65125 0.3075,-0.67875 z m -11.5863,7.19875 -0.095,-0.15125 1.9613,-1.01625 0.055,0.0875 -1.9213,1.08 z m 10.2013,-5.75625 0.1325,0.155 -0.85,0.92125 -0.2113,-0.24 0.9288,-0.83625 z m -7.3325,3.39375 -0.1225,-0.155 1.1937,-0.89625 0.1063,0.1675 -1.1775,0.88375"
         style="fill:#231f20;fill-opacity:1;fill-rule:evenodd;stroke:none"
         id="path3900" />
      <path
         inkscape:connector-curvature="0"
         d="m 1146.5729,783.92 c -0.3125,0.13875 -0.6088,0.2975 -0.9375,0.42 -0.3563,0.0825 -0.7163,0.165 -1.0838,0.24875 0.1288,-0.17125 0.4475,-0.3375 0.8338,-0.4525 0.3775,-0.12625 0.7725,-0.2725 1.1875,-0.21625"
         style="fill:#ffffff;fill-opacity:1;fill-rule:evenodd;stroke:none"
         id="path3902" />
      <path
         inkscape:connector-curvature="0"
         d="m 1146.5791,783.295 c 0.6525,-0.28125 1.32,-0.5425 1.9338,-0.87875 l 0.058,0.1 c -0.5813,0.3875 -1.225,0.68625 -1.8575,0.99875 l -0.1338,-0.22"
         style="fill:#ffffff;fill-opacity:1;fill-rule:evenodd;stroke:none"
         id="path3904" />
      <path
         inkscape:connector-curvature="0"
         d="m 1149.0116,777.49625 c 0.7625,-0.47125 1.435,-0.88625 2.2013,-1.35875 -0.5263,0.85 -1.28,1.15375 -2.2013,1.35875"
         style="fill:#ffffff;fill-opacity:1;fill-rule:evenodd;stroke:none"
         id="path3906" />
      <path
         inkscape:connector-curvature="0"
         d="m 1156.4216,777.64125 c 0.1175,-0.19 0.1688,-0.45 0.2613,-0.665 0.1537,-0.1275 0.037,-0.65125 0.3075,-0.67875 l 0.1262,0.11625 c -0.1312,0.1775 -0.044,0.665 -0.1637,0.86 l -0.3713,0.565 -0.16,-0.1975"
         style="fill:#ffffff;fill-opacity:1;fill-rule:evenodd;stroke:none"
         id="path3908" />
      <path
         inkscape:connector-curvature="0"
         d="m 1147.3254,782.41625 -1.9213,1.08 -0.095,-0.15125 1.9613,-1.01625 0.055,0.0875"
         style="fill:#ffffff;fill-opacity:1;fill-rule:evenodd;stroke:none"
         id="path3910" />
      <path
         inkscape:connector-curvature="0"
         d="m 1154.6766,778.57625 0.9288,-0.83625 0.1325,0.155 -0.85,0.92125 -0.2113,-0.24"
         style="fill:#ffffff;fill-opacity:1;fill-rule:evenodd;stroke:none"
         id="path3912" />
      <path
         inkscape:connector-curvature="0"
         d="m 1149.4504,780.25 -1.1775,0.88375 -0.1225,-0.155 1.1937,-0.89625 0.1063,0.1675"
         style="fill:#ffffff;fill-opacity:1;fill-rule:evenodd;stroke:none"
         id="path3914" />
      <path
         inkscape:connector-curvature="0"
         d="m 1104.8979,833.135 c 10.915,-13.6525 22.435,-26.735 34.0725,-39.80625 0.3725,-0.425 0.7362,-0.87 1.14,-1.31 4.6987,-1.895 9.6412,-3.89 15.4525,-6.235 -5.425,1.9625 -12.0513,4.45375 -12.315,4.38625 -0.5688,-0.1425 0.9275,-1.12625 3.8162,-2.61625 3.085,-1.59 2.7925,-1.5525 -8.0362,2.69875 l -0.11,0.0425 -0.085,0.0888 c -0.77,0.80375 -1.645,1.71375 -2.6013,2.7125 0.2775,-0.38 1.2913,-1.48125 2.5,-2.8075 l 0.092,-0.1025 0.1525,-0.065 c 5.24,-2.2125 13.2225,-5.44625 1.4888,-1.05875 -0.9,0.2175 -1.1013,0.1525 -1.78,0.32 l -0.14,0.0362 -0.3913,0.32375 c -0.2937,0.24375 -0.6987,0.605 -1.365,1.22375 -1.3025,1.19875 -2.6025,2.50875 -3.915,3.87625 -1.3175,1.365 -2.6675,2.765 -4.0325,4.18 -2.72,2.84375 -5.4775,5.77875 -8.1075,8.6425 -7.19,7.84125 -14.2587,15.7475 -21.0025,23.95875 -6.715,8.245 -13.3387,16.56 -18.9512,25.97 l -0.5238,0.87875 0.165,1.08625 c 0.7475,4.93625 1.4425,9.92 2.1038,14.905 0.6687,4.9875 1.2575,9.995 1.8387,15.015 0.2275,1.91875 0.4638,3.92625 0.6925,5.85375 l 0.6338,5.9225 0.54,5.9175 0.5325,5.91375 0.3625,5.9 c 0.325,3.735 0.3387,7.39 0.355,11.04375 -0.9763,0.0562 -1.9488,0.06 -2.935,0.25375 -1.0675,0.17125 -2.125,0.31125 -3.1963,0.5175 l -1.6262,0.41 c -0.275,0.0738 -0.5263,0.12875 -0.8238,0.21875 l -0.9412,0.3225 -2.1413,0.73375 0,2.435 c -0.01,4.98125 0,10 0.1512,15.035 0.2963,9.0225 0.9975,18.1525 3.0588,27.2 0.74,3.06375 1.6475,6.125 2.91,9.1325 l 2.79,6.64375 3.3525,-6.41375 c 1.4037,-2.69 2.3237,-5.355 3.1275,-7.995 0.7887,-2.64125 1.4325,-5.26 2.0362,-7.86125 1.2063,-5.19125 2.2288,-10.3425 3.5438,-15.25875 0.585,-2.21 1.3462,-4.78 2,-6.2875 0.7712,-1.8075 1.7275,-3.47375 2.645,-4.40125 1.0162,-0.8375 1.0937,-0.82375 2.22,-0.58 0.2587,0.0488 0.5975,0.26375 0.9025,0.3625 l 0.01,0.004 0.17,0.0987 c 0.092,0.0562 0.2975,0.1625 0.2762,0.16875 0.058,0.0638 0.076,0.0475 0.2275,0.1825 0.4888,0.39625 1.0213,0.9775 1.5163,1.65875 0.9975,1.37 1.8712,3.075 2.6012,4.85 1.4613,3.57375 2.445,7.475 2.9725,11.28625 0.2638,1.90625 0.3675,3.805 0.3613,5.5875 -0.015,0.8875 -0.089,1.7475 -0.2338,2.49 -0.1275,0.7375 -0.3975,1.36375 -0.5,1.525 -0.1075,0.0987 0.2713,0.0525 0.047,0.12 -0.1937,0.035 -0.7225,-0.13125 -1.2312,-0.425 -1.05,-0.57125 -2.1363,-1.535 -3.1663,-2.54125 -2.0762,-2.065 -4.065,-4.5625 -6.325,-7.8175 2.2988,3.68125 4.6225,7.04375 7.035,9.4675 1.175,1.17875 2.5013,2.17375 3.43,2.345 0.4513,0.0688 0.6375,0.009 0.885,-0.155 0.2438,-0.18875 0.5125,-0.56875 0.7138,-1.0075 0.6437,-1.09625 0.965,-2.415 1.2,-3.6325 0.2275,-1.23875 0.3637,-2.46875 0.4487,-3.8325 0.072,1.58625 0.079,3.35125 -0.17,5.10125 -0.1275,0.87 -0.3212,1.74125 -0.6387,2.5175 -0.3075,0.78125 -0.7738,1.445 -1.3525,1.7375 -0.5325,0.265 -1.2025,0.235 -1.8775,-0.0288 -0.6688,-0.25125 -1.325,-0.6475 -1.9275,-1.11625 -1.2263,-0.92 -2.3025,-2.06125 -3.3438,-3.26125 0.965,1.21625 1.95,2.37125 3.1013,3.3625 0.5737,0.495 1.1962,0.94 1.8775,1.265 0.675,0.30875 1.455,0.50875 2.1575,0.2525 0.7375,-0.23625 1.2825,-0.9075 1.6662,-1.63875 0.3888,-0.7425 0.6263,-1.58 0.8063,-2.4325 0.3387,-1.715 0.4287,-3.51875 0.3912,-5.37375 -0.096,-3.71125 -0.6712,-7.65875 -1.8537,-11.8775 1.745,5.22125 2.5362,10.01875 2.5187,14.415 -0.072,2.19125 -0.2362,4.3425 -1.3625,6.2975 -0.5362,0.9575 -1.7225,1.8475 -2.9812,1.795 -1.2275,-0.0113 -2.1988,-0.53375 -3.0475,-1.05 -1.1513,-0.75625 -1.73,-1.30125 -2.0225,-1.5225 -0.285,-0.23 -0.2663,-0.16 -0.015,0.1425 0.2587,0.295 0.7562,0.82125 1.5212,1.44375 0.395,0.305 0.8538,0.63625 1.435,0.93625 0.575,0.2975 1.3,0.57375 2.1975,0.60875 0.6838,0.0375 1.4513,-0.15375 2.055,-0.52375 0.615,-0.35875 1.095,-0.8475 1.4388,-1.33625 0.7162,-0.99125 1.075,-2.00375 1.3587,-2.9925 0.545,-1.985 0.7263,-3.93125 0.7763,-5.8975 0.05,-3.925 -0.3913,-7.915 -1.4,-12.21875 0.8537,2.8375 1.3562,5.28375 1.7162,7.7725 0.3275,2.49625 0.5975,5.01625 0.2863,8.1775 0.34,-2.1925 0.365,-3.7975 0.35,-5.17875 -0.016,-1.38 -0.091,-2.52875 -0.2325,-3.75125 -0.3338,-2.81375 -0.88,-5.585 -1.6638,-8.325 -0.7937,-2.73875 -1.7937,-5.44875 -3.3162,-8.1025 -0.7725,-1.32125 -1.665,-2.64 -2.91,-3.87375 -0.2975,-0.31 -0.65,-0.6075 -0.9988,-0.9 -0.1837,-0.1525 -0.4337,-0.32625 -0.6537,-0.48125 l -0.3363,-0.2275 -0.215,-0.12875 -0.2125,-0.1275 -0.1075,-0.065 -0.175,-0.0937 -0.037,-0.0187 -0.076,-0.035 -0.6075,-0.2775 c -0.4225,-0.17375 -0.7813,-0.385 -1.2638,-0.51 -1.725,-0.64375 -4.1787,-0.75625 -6.2275,0.10375 -2.065,0.8425 -3.465,2.275 -4.5075,3.6175 -2.0187,2.745 -3.0425,5.48125 -3.9587,8.15625 -0.875,2.68625 -1.5325,5.3425 -2.1313,7.975 -1.1862,5.26125 -2.1025,10.45625 -3.2187,15.48625 -0.1888,0.81375 -0.3938,1.68125 -0.6188,2.58125 -1.0862,-4.6675 -1.76,-9.82875 -2.1475,-15.02375 -0.5762,-7.6925 -0.57,-15.53 -0.4625,-22.6675 0.1475,-0.0338 0.2975,-0.0675 0.4438,-0.10125 0.9362,-0.12375 1.8512,-0.24375 2.7425,-0.36125 1.7975,-0.15875 3.5475,-0.115 5.135,-0.18125 l 3.5687,-0.15 0.087,-3.36875 c 0.069,-2.6925 0.13,-5.0575 0.1813,-7.06 0.021,-0.68125 0.039,-1.685 0.031,-2.71375 -0.056,-1.01125 -0.1262,-2.05125 -0.195,-2.8425 -0.2125,-2.4675 -0.4262,-4.92625 -0.6375,-7.37875 -0.2162,-2.45 -0.5587,-4.85875 -0.8312,-7.28625 -0.2988,-2.42125 -0.5575,-4.85125 -0.8863,-7.27 -0.35,-2.4175 -0.6987,-4.83875 -1.05,-7.27375 -0.4512,-3.215 -0.9725,-6.92875 -1.4325,-10.19875 -0.9225,-7.22875 -1.9612,-14.4075 -3.0512,-21.61 5.0162,-8.2375 11.0037,-16.19125 17.1337,-24.0025 2.47,-3.10875 5.0963,-6.56125 7.7088,-9.81875 l -0.059,-0.22375 c -5.5562,6.73625 -11.06,13.5175 -16.22,20.5025 l -0.1325,-0.12625 c 1.6013,-2.18125 3.2188,-4.385 4.8263,-6.575 1.665,-2.15625 3.2887,-4.32 4.9625,-6.3825 z m 4.6137,116.57375 c 1.61,3.45875 2.74,7.05375 3.4488,10.835 0.3412,1.89375 0.5762,3.8525 0.5862,5.85875 0.014,0.99875 -0.017,2.015 -0.1462,3.0025 -0.1213,0.98375 -0.3638,1.96 -0.7125,2.67375 -0.1375,0.0937 -0.2575,0.22375 -0.3813,0.26125 0.2563,-0.42375 0.495,-1.255 0.6275,-2.1025 0.1388,-0.865 0.19,-1.81375 0.1938,-2.77375 0,-1.92875 -0.145,-3.9275 -0.445,-5.91 -0.6,-3.96 -1.685,-7.9275 -3.2925,-11.46 l 0.1212,-0.385 z m -12.5587,1.625 c 0.5912,-1.90625 1.2712,-3.76875 2.1387,-5.3625 0.8513,-1.5975 1.9575,-2.87125 2.9713,-3.165 0.085,0.0488 0.16,0.0675 0.2375,0.13625 -0.4563,0.17375 -0.9288,0.39875 -1.4163,0.90625 -0.2425,0.235 -0.4775,0.54875 -0.7162,0.8425 -0.2163,0.36125 -0.4688,0.65 -0.6675,1.055 -0.8538,1.51125 -1.535,3.31625 -2.1213,5.17625 -1.18,3.73875 -2.0287,7.74125 -2.8587,11.77125 l -0.49,0.62 c 0.8625,-4.08625 1.7225,-8.155 2.9225,-11.98 z m 34.1612,-154.21 c -5.8875,6.54625 -19.17,21.31375 -27.7362,30.83875 8.83,-10.4175 18.0087,-20.4925 27.7362,-30.83875 z m -49.56,60.9125 -0.3525,0.585 0.115,0.79625 c 0.6088,4.25625 1.1975,8.5375 1.7438,12.81375 l -0.1538,-0.1975 c -0.5587,-4.20125 -1.1612,-8.40625 -1.7812,-12.58625 l -0.1238,-0.83375 0.3975,-0.665 c 5.2275,-8.74375 11.4125,-16.57625 17.6888,-24.32125 l -0.017,0.45375 c -6.2088,7.63625 -12.33,15.355 -17.5163,23.955 z m -1.545,78.36875 c 0.2713,-0.0812 0.56,-0.15125 0.845,-0.2225 0,-0.35375 0.01,-0.7025 0.015,-1.055 l 0.14,-0.20625 c 0,0.40625 0,0.8125 0,1.22 0.3025,-0.075 0.6087,-0.14625 0.9237,-0.21 -0.025,0.0375 -0.052,0.0763 -0.077,0.11375 -0.29,0.0675 -0.5687,0.1425 -0.8462,0.2175 0,0.345 0,0.69 0,1.035 -0.057,0.0862 -0.1162,0.17125 -0.1737,0.25625 0.01,-0.41625 0.011,-0.83125 0.02,-1.2475 -0.325,0.0913 -0.6588,0.175 -0.9638,0.27625 l 0.12,-0.1775 z m 4.42,41.58875 c 0,0.0163 -0.01,0.03 -0.014,0.0462 -2.0913,-7.1175 -2.855,-14.26125 -3.3138,-21.2125 -0.365,-6.3 -0.3712,-12.5225 -0.275,-18.86125 l 0.17,-0.0525 0.01,-0.003 c -0.01,6.47375 0.059,12.92375 0.4362,19.34125 0.4513,7.01875 1.2125,14.0475 2.9875,20.74125 z m 4.7275,-65.35125 c -0.945,-9.8975 -2.025,-19.7875 -3.3425,-29.65625 l 0.1888,-0.22625 c 1.3412,10.00125 2.4425,20.03125 3.3825,30.07125 l -0.2288,-0.18875 z m -3.4175,-59.90625 -0.023,-0.165 c 4.1588,-6.245 8.755,-12.115 13.4288,-17.91 4.6712,-5.79625 9.4912,-11.46 14.3975,-17.04375 l 0.01,0.26125 c -4.9,5.5725 -9.7175,11.22 -14.3875,17.00125 -4.6675,5.78125 -9.2688,11.63 -13.4263,17.85625"
         style="fill:#231f20;fill-opacity:1;fill-rule:evenodd;stroke:none"
         id="path3916" />
      <path
         inkscape:connector-curvature="0"
         d="m 1081.0079,936.2625 c 0,-0.0412 0,-0.0813 0,-0.12125 -0.053,0.0125 -0.1013,0.0275 -0.1538,0.0412 0,0.0412 0,0.0825 0,0.12375 0.051,-0.0137 0.1012,-0.03 0.155,-0.0437"
         style="fill:#231f20;fill-opacity:1;fill-rule:evenodd;stroke:none"
         id="path3918" />
      <path
         inkscape:connector-curvature="0"
         d="m 1103.3779,827.9625 c 8.83,-10.4175 18.0087,-20.4925 27.7362,-30.83875 -5.8875,6.54625 -19.17,21.31375 -27.7362,30.83875"
         style="fill:#ffffff;fill-opacity:1;fill-rule:evenodd;stroke:none"
         id="path3920" />
      <path
         inkscape:connector-curvature="0"
         d="m 1099.0704,834.08125 c -6.2088,7.63625 -12.33,15.355 -17.5163,23.955 l -0.3525,0.585 0.115,0.79625 c 0.6088,4.25625 1.1975,8.5375 1.7438,12.81375 l -0.1538,-0.1975 c -0.5587,-4.20125 -1.1612,-8.40625 -1.7812,-12.58625 l -0.1238,-0.83375 0.3975,-0.665 c 5.2275,-8.74375 11.4125,-16.57625 17.6888,-24.32125 l -0.017,0.45375"
         style="fill:#ffffff;fill-opacity:1;fill-rule:evenodd;stroke:none"
         id="path3922" />
      <path
         inkscape:connector-curvature="0"
         d="m 1086.7816,935.2725 c -2.3612,0.215 -4.8562,0.63375 -6.8925,1.31 l 1.12,-1.66125 c -0.031,7.47875 0,14.925 0.4325,22.33125 0.4738,7.385 1.28,14.78625 3.2625,21.7925 -2.325,-7.45 -3.1212,-14.93875 -3.6025,-22.2175 -0.4237,-7.3075 -0.3725,-14.5 -0.2287,-21.90625 -0.3413,0.50375 -0.6875,1.01625 -1.0363,1.53 2.0525,-0.6325 4.5463,-1.00875 6.945,-1.17875"
         style="fill:#ffffff;fill-opacity:1;fill-rule:evenodd;stroke:none"
         id="path3924" />
      <path
         inkscape:connector-curvature="0"
         d="m 1109.5116,949.70875 c 1.61,3.45875 2.74,7.05375 3.4488,10.835 0.3412,1.89375 0.5762,3.8525 0.5862,5.85875 0.014,0.99875 -0.017,2.015 -0.1462,3.0025 -0.1213,0.98375 -0.3638,1.96 -0.7125,2.67375 -0.1375,0.0937 -0.2575,0.22375 -0.3813,0.26125 0.2563,-0.42375 0.495,-1.255 0.6275,-2.1025 0.1388,-0.865 0.19,-1.81375 0.1938,-2.77375 0,-1.92875 -0.145,-3.9275 -0.445,-5.91 -0.6,-3.96 -1.685,-7.9275 -3.2925,-11.46 l 0.1212,-0.385"
         style="fill:#ffffff;fill-opacity:1;fill-rule:evenodd;stroke:none"
         id="path3926" />
      <path
         inkscape:connector-curvature="0"
         d="m 1085.7166,852.57125 c 4.1588,-6.245 8.755,-12.115 13.4288,-17.91 4.6712,-5.79625 9.4912,-11.46 14.3975,-17.04375 l 0.01,0.26125 c -4.9,5.5725 -9.7175,11.22 -14.3875,17.00125 -4.6675,5.78125 -9.2688,11.63 -13.4263,17.85625 l -0.023,-0.165"
         style="fill:#ffffff;fill-opacity:1;fill-rule:evenodd;stroke:none"
         id="path3928" />
      <path
         inkscape:connector-curvature="0"
         d="m 1094.0304,963.31375 c 0.8625,-4.08625 1.7225,-8.155 2.9225,-11.98 0.5912,-1.90625 1.2712,-3.76875 2.1387,-5.3625 0.8513,-1.5975 1.9575,-2.87125 2.9713,-3.165 0.085,0.0488 0.16,0.0675 0.2375,0.13625 -0.4563,0.17375 -0.9288,0.39875 -1.4163,0.90625 -0.2425,0.235 -0.4775,0.54875 -0.7162,0.8425 -0.2163,0.36125 -0.4688,0.65 -0.6675,1.055 -0.8538,1.51125 -1.535,3.31625 -2.1213,5.17625 -1.18,3.73875 -2.0287,7.74125 -2.8587,11.77125 l -0.49,0.62"
         style="fill:#ffffff;fill-opacity:1;fill-rule:evenodd;stroke:none"
         id="path3930" />
      <path
         inkscape:connector-curvature="0"
         d="m 1089.1566,912.6425 c -0.945,-9.8975 -2.025,-19.7875 -3.3425,-29.65625 l 0.1888,-0.22625 c 1.3412,10.00125 2.4425,20.03125 3.3825,30.07125 l -0.2288,-0.18875"
         style="fill:#ffffff;fill-opacity:1;fill-rule:evenodd;stroke:none"
         id="path3932" />
      <path
         inkscape:connector-curvature="0"
         d="m 1014.8854,754.77875 c 3.7062,-0.1125 7.17,-0.305 10.7712,-0.46625 3.6025,-0.20875 7.345,-0.33875 11.6138,-0.3125 l 0.6712,0.1825 -11.3812,0.5275 c -3.7925,0.16375 -7.5863,0.22125 -11.3788,0.3425 l -0.2962,-0.27375"
         style="fill:#ffffff;fill-opacity:1;fill-rule:evenodd;stroke:none"
         id="path4874" />
      <path
         inkscape:connector-curvature="0"
         d="m 979.3966,754.89125 c 7.4725,-0.13625 14.9425,-0.22125 22.4163,-0.38625 l 0.3437,0.225 c -7.37375,0.22625 -14.74875,0.35375 -22.12375,0.545 l -0.63625,-0.38375"
         style="fill:#ffffff;fill-opacity:1;fill-rule:evenodd;stroke:none"
         id="path4878" />
      <path
         inkscape:connector-curvature="0"
         d="m 1033.9979,739.2275 c 7.0562,-0.19875 13.1712,-0.69875 21.3012,-0.77875 l 0.6425,0.1925 c -3.6087,0.18875 -7.2187,0.505 -10.8287,0.61125 l -10.8313,0.26125 -0.2837,-0.28625"
         style="fill:#ffffff;fill-opacity:1;fill-rule:evenodd;stroke:none"
         id="path4890" />
      <path
         inkscape:connector-curvature="0"
         d="m 1000.2116,739.11625 10.6663,-0.0975 10.6662,-0.19125 0.3325,0.22375 -10.5275,0.26625 -10.5275,0.16375 -0.61,-0.365"
         style="fill:#ffffff;fill-opacity:1;fill-rule:evenodd;stroke:none"
         id="path4894" />
    </g>
  </g>
</svg>
