<?xml version="1.0" encoding="UTF-8" standalone="no"?>
<!-- Created with Inkscape (http://www.inkscape.org/) -->

<svg
   xmlns:dc="http://purl.org/dc/elements/1.1/"
   xmlns:cc="http://creativecommons.org/ns#"
   xmlns:rdf="http://www.w3.org/1999/02/22-rdf-syntax-ns#"
   xmlns:svg="http://www.w3.org/2000/svg"
   xmlns="http://www.w3.org/2000/svg"
   xmlns:sodipodi="http://sodipodi.sourceforge.net/DTD/sodipodi-0.dtd"
   xmlns:inkscape="http://www.inkscape.org/namespaces/inkscape"
   width="266.04681"
   height="198.65773"
   id="svg3100"
   version="1.1"
   inkscape:version="0.48.3.1 r9886"
   sodipodi:docname="drawing.svg">
  <defs
     id="defs3102" />
  <sodipodi:namedview
     id="base"
     pagecolor="#ffffff"
     bordercolor="#666666"
     borderopacity="1.0"
     inkscape:pageopacity="0.0"
     inkscape:pageshadow="2"
     inkscape:zoom="0.35"
     inkscape:cx="356.59483"
     inkscape:cy="-312.09971"
     inkscape:document-units="px"
     inkscape:current-layer="layer1"
     showgrid="false"
     inkscape:window-width="925"
     inkscape:window-height="696"
     inkscape:window-x="65"
     inkscape:window-y="24"
     inkscape:window-maximized="0"
     fit-margin-top="0"
     fit-margin-left="0"
     fit-margin-right="0"
     fit-margin-bottom="0" />
  <metadata
     id="metadata3105">
    <rdf:RDF>
      <cc:Work
         rdf:about="">
        <dc:format>image/svg+xml</dc:format>
        <dc:type
           rdf:resource="http://purl.org/dc/dcmitype/StillImage" />
        <dc:title></dc:title>
      </cc:Work>
    </rdf:RDF>
  </metadata>
  <g
     inkscape:label="Layer 1"
     inkscape:groupmode="layer"
     id="layer1"
     transform="translate(-18.405171,-21.604746)">
    <path
       inkscape:connector-curvature="0"
       id="path3024"
       style="fill:#182442;fill-opacity:1;fill-rule:evenodd;stroke:none"
       d="m 284.21302,110.75997 c -1.78625,12.68125 -4.8225,23.5775 -8.395,35.72625 -1.42875,5.00125 -16.0775,14.6475 -28.94125,20.3625 -8.035,3.5725 -21.07625,11.43375 -29.83,13.755 -11.61125,3.21625 -22.685,7.5025 -34.655,9.29 -13.755,2.1425 -28.045,3.93125 -41.98001,3.03625 -7.68125,-0.35625 -15.89625,-3.21375 -22.68374,1.42875 -8.9325,5.7175 -14.47,17.50625 -27.155004,18.57875 -15.005,7.6825 -36.618751,5.18 -54.125,7.325 -4.645,-5.7175 -3.57125,-14.11125 -4.8225,-18.4 -0.8925,-3.395 3.7525,-6.2525 6.07375,-7.50375 7.503749,-4.10875 13.397499,-8.2175 18.397499,-15.005 -9.10875,-5.18 -19.648749,-7.145 -27.149999,-15.54125 -3.21625,-9.11 -3.93125,-14.11125 -5.0025,-21.97125 -1.07125,-7.50375 -5.35875,-17.86125 -5.5375,-25.00625 -0.1775,-29.83375 14.47,-53.5925 39.478749,-69.489996 34.118751,-21.795 77.167495,-28.93875 116.645005,-24.4725 36.98,4.10625 96.6425,18.75625 107.1825,61.627496 1.6075,6.7875 3.39375,19.47125 2.5,26.26 l 0,0 z M 82.179266,187.57122 c 13.03875,-6.07375 24.116254,-14.47 33.760004,-24.115 3.39499,-2.85875 6.42999,-1.25125 9.82499,-0.71375 3.5725,0.71375 8.2175,1.07 12.505,1.42625 9.64625,0.71625 18.75626,-0.8925 28.22501,-1.42625 10.895,-0.35875 24.29125,-1.7875 34.83375,-5.36 7.85875,-2.85875 15.8975,-6.96625 23.935,-8.03875 18.93625,-11.4325 45.195,-22.15 48.41125,-46.80125 7.14625,-53.947496 -78.24125,-75.739996 -116.11375,-76.277496 -26.61501,-0.35625 -63.235004,9.11125 -86.456254,22.865 -14.648751,8.575 -28.93875,18.756246 -36.79875,35.548746 -4.11,8.7525 -7.68125,18.75625 -8.03875,25.7225 -0.53625,9.6475 5.71625,21.43625 14.46875,26.08125 5.359999,5 19.471249,13.04 26.61625,13.75375 3.93125,0.35875 10.18375,0.35875 11.79125,4.11 -2.3225,8.5725 -5.00125,15.8975 -8.575,23.58 -3.03625,6.43 -12.682501,9.645 -18.220001,15.00375 -3.21625,3.0375 7.85875,2.85875 14.827501,-1.42875 5.71375,0.71375 10.36,-1.785 15.00375,-3.93 l 0,0 z M 269.03052,67.88622 c -0.3575,-1.07125 -0.89625,-1.4275 -1.2525,-1.965 -0.535,-0.715 -1.07,-1.24875 -2.50125,-0.8925 0.715,1.61 2.68125,2.8575 3.75375,2.8575 l 0,0 z m 4.1075,5.35875 c 0,-0.535 -0.1775,-1.07125 -0.53625,-1.785 -0.535,-0.715 -1.60875,-1.43 -1.7875,-0.715 0,0.89375 2.50375,3.75125 2.32375,2.5 l 0,0 z m 4.10875,40.37125 c 0.1775,0.715 0.71375,2.85875 1.07375,3.57375 1.9625,-1.25 2.5,-13.3975 1.78375,-15.18375 -0.535,3.0375 -3.92875,8.395 -2.8575,11.61 l 0,0 z m -3.03875,16.435 c -1.07,3.5725 -0.53375,6.61 -0.17625,10.36 2.14375,-6.25125 3.57,-11.43125 4.1075,-19.11375 0.18125,-1.24875 -0.8925,-3.39375 -1.07125,-2.1425 -0.715,3.39375 -4.82375,7.32375 -2.86,10.89625 l 0,0 z m -21.0775,8.75375 c 0.71375,2.3225 1.43,3.92875 0.3575,5.53625 -2.6775,3.39375 -3.57125,5.895 -4.46625,10.7175 8.3975,-1.78375 9.28875,-14.4675 11.61125,-22.50625 -3.21375,1.25125 -5.71625,3.3925 -7.5025,6.2525 l 0,0 z m -222.041254,3.92875 c -1.07125,3.57375 2.68,13.57625 5.5375,15.00625 -0.53625,-5.71875 3.39375,-11.78875 0.53625,-15.72 -0.53625,-0.8925 -6.43,-5.5375 -7.145,-8.03875 -1.25,2.50125 -0.535,6.96625 1.07125,8.7525 l 0,0 z m 210.073754,3.7525 c 0.35625,1.4275 0.53625,3.03625 -0.89375,4.645 -3.03625,3.57125 -2.86,7.68 -4.465,12.68125 6.2525,-0.53625 7.8575,-4.8225 9.8225,-11.075 1.4325,-4.64375 2.14625,-8.2175 2.68125,-10.89625 -2.5025,0.715 -4.64625,1.96375 -7.145,4.645 l 0,0 z m -200.250004,16.6125 c 2.68,1.965 2.14625,4.64375 5.896249,5.715 2.14375,-4.28625 1.78625,-11.60875 3.7525,-16.43375 -2.67875,-1.24875 -5.18125,-4.645 -8.396249,-5.53875 -1.07125,1.7875 -2.3225,12.3275 -1.2525,16.2575 l 0,0 z m 184.531254,-9.11125 c -0.71625,6.61 -5.00375,8.755 -5.8975,16.43375 3.7525,0.89375 6.79,-3.92875 10.71875,-4.28625 2.50125,-5.71625 2.85875,-11.61125 6.2525,-17.50625 -4.2875,1.25 -7.6825,3.215 -11.07375,5.35875 l 0,0 z m 35.36875,-3.035 6.25125,-4.28875 c 2.68,-3.57125 5.18,-16.43375 2.68,-21.0775 -0.1775,2.32125 -2.8575,3.92875 -4.28625,7.3225 -2.85875,6.78875 -1.07375,12.14875 -4.645,18.04375 l 0,0 z m -205.786255,3.035 c -3.03625,5.36 -0.17875,9.28875 -3.39375,16.25625 1.60625,1.4275 4.10875,1.785 6.43,2.3225 2.50125,-5.18 5.5375,-10.00375 7.145001,-16.25625 -3.215001,-1.25125 -6.966251,-1.25125 -10.181251,-2.3225 l 0,0 z m 155.767505,5.7175 c 0.3575,8.0375 -6.96625,13.57625 -6.61,16.96875 1.96625,0.18125 10.005,-3.3925 11.7925,-4.28625 -1.2525,-5.18125 3.92875,-10.71875 3.92875,-15.72 -3.395,-0.535 -6.25375,1.7875 -9.11125,3.0375 l 0,0 z m -15.8975,5.895 c -1.0725,5.00125 -4.2875,9.64625 -4.82375,14.11125 3.57125,-0.17875 7.32375,-1.25 10.1825,-2.14375 0.3575,-5.18 7.325,-11.4325 5.35875,-16.43375 -4.4675,0.535 -6.9675,2.1425 -10.7175,4.46625 l 0,0 z m -13.755,0.7125 c -2.86,5.0025 -5.0025,10.36125 -5.0025,16.435 3.93125,0 5.3575,-0.35625 8.2175,-1.25 1.7875,-5.895 5.35875,-10.00375 6.42875,-16.6125 -2.855,0.35625 -6.60875,1.0725 -9.64375,1.4275 l 0,0 z m -17.86375,2.32375 c -0.89375,3.3925 -3.7525,9.4675 -4.465,12.505 -0.17875,1.4275 -0.535,2.5 -0.535,4.2875 3.57,0.89125 7.145,-1.0725 11.43,-1.25375 1.96375,-6.24875 5.0025,-11.07375 6.79,-17.32625 -4.29,1.25125 -8.93125,-0.89125 -13.22,1.7875 l 0,0 z m -40.90876,0 c -3.39375,3.75125 -2.85625,9.4675 -3.39375,15.89875 2.3225,0.53625 6.61,2.1425 9.29,1.42875 -2.68,-6.96875 0.71375,-9.10875 2.68,-16.07625 -2.85875,-0.35875 -5.895,-1.25125 -8.57625,-1.25125 l 0,0 z m 13.21875,0.8925 c -1.785,5.36125 -1.785,12.3275 -3.035,16.6125 2.68,0.89375 5.18,0 8.03875,0.715 0.355,-6.07375 5.0025,-10.36125 5.895,-16.96875 -3.5725,-0.53625 -7.3225,-0.53625 -10.89875,-0.35875 l 0,0 z m 15.9,0 c -1.965,3.93 -6.78875,12.3275 -5.7175,16.97 2.3225,0.895 5.5375,0 8.04125,0 -0.89375,-4.46375 3.92876,-11.96875 4.10751,-16.97 -1.965,-0.8925 -4.28876,-0.1775 -6.43126,0 l 0,0 z m -45.72874,12.3275 c -1.25,5.17875 -0.17875,9.645 -3.21625,14.82625 -6.073754,-0.715 -0.5375,-8.04 -1.78625,-11.79125 -5.357504,0.5375 -6.075004,5.18 -7.502504,9.4675 -0.53625,1.60875 2.5025,3.21625 1.96375,5.0025 -0.8925,3.21375 -7.14375,6.25125 -8.03625,1.60625 -0.71375,-3.3925 4.465,-7.1425 3.035,-11.07375 -3.93,0.53625 -6.6075,2.1425 -9.4675,3.75 -0.71375,7.14625 -5.5375,8.93125 -2.67875,13.75625 13.57625,-1.965 26.438754,-7.68125 34.118754,-16.435 -5.89375,-3.75125 0.35625,-6.79 3.21625,-6.60875 0,-2.68 2.3225,-6.96625 -0.535,-8.75375 -1.61,3.93 -7.325,2.32375 -9.11125,6.25375 l 0,0 z m -41.621255,17.32625 c -1.60875,2.8575 -3.21625,7.86 -1.965,10.7175 2.500001,-0.71375 7.145001,0.3575 10.537501,-1.0725 -1.4275,-5.715 4.28875,-8.5725 2.32375,-13.9325 -3.57375,1.96625 -6.78875,3.39375 -10.896251,4.2875 l 0,0 z m -22.331249,12.50375 4.466249,0.17875 c 0.3575,-3.0375 1.0725,-8.7525 0.53625,-11.4325 -5.002499,-2.8575 -7.501249,9.4675 -5.002499,11.25375 l 0,0 z m 16.971249,-11.25375 c -2.68125,0.71625 -5.35875,0.89375 -7.5025,0.3575 -1.6075,2.68 -1.965,7.145 -1.07125,10.36125 2.14375,0 4.8225,0.535 6.0725,-0.3575 0,-3.75125 5.00125,-7.68125 2.50125,-10.36125" />
  </g>
</svg>
