<?xml version="1.0" encoding="UTF-8" standalone="no"?>
<!-- Created with Inkscape (http://www.inkscape.org/) -->

<svg
   xmlns:dc="http://purl.org/dc/elements/1.1/"
   xmlns:cc="http://creativecommons.org/ns#"
   xmlns:rdf="http://www.w3.org/1999/02/22-rdf-syntax-ns#"
   xmlns:svg="http://www.w3.org/2000/svg"
   xmlns="http://www.w3.org/2000/svg"
   xmlns:sodipodi="http://sodipodi.sourceforge.net/DTD/sodipodi-0.dtd"
   xmlns:inkscape="http://www.inkscape.org/namespaces/inkscape"
   width="119.065"
   height="134.25294"
   id="svg11182"
   version="1.1"
   inkscape:version="0.48.3.1 r9886"
   sodipodi:docname="New document 44">
  <defs
     id="defs11184" />
  <sodipodi:namedview
     id="base"
     pagecolor="#ffffff"
     bordercolor="#666666"
     borderopacity="1.0"
     inkscape:pageopacity="0.0"
     inkscape:pageshadow="2"
     inkscape:zoom="0.35"
     inkscape:cx="143.10393"
     inkscape:cy="-58.587813"
     inkscape:document-units="px"
     inkscape:current-layer="layer1"
     showgrid="false"
     fit-margin-top="0"
     fit-margin-left="0"
     fit-margin-right="0"
     fit-margin-bottom="0"
     inkscape:window-width="472"
     inkscape:window-height="415"
     inkscape:window-x="1294"
     inkscape:window-y="24"
     inkscape:window-maximized="0" />
  <metadata
     id="metadata11187">
    <rdf:RDF>
      <cc:Work
         rdf:about="">
        <dc:format>image/svg+xml</dc:format>
        <dc:type
           rdf:resource="http://purl.org/dc/dcmitype/StillImage" />
        <dc:title></dc:title>
      </cc:Work>
    </rdf:RDF>
  </metadata>
  <g
     inkscape:label="Layer 1"
     inkscape:groupmode="layer"
     id="layer1"
     transform="translate(-231.89607,-339.52142)">
    <g
       id="g11137"
       transform="translate(-440.77053,-474.41938)">
      <path
         inkscape:connector-curvature="0"
         d="m 681.3541,823.32875 c 0.5925,3.205 1.6125,6.83 2.81625,10.17625 2.67375,6.62125 6.145,12.84625 10.14875,18.67 3.98375,5.8475 8.535,11.26125 13.295,16.555 0.59375,0.645 1.29625,1.235 1.89875,1.88125 2.445,2.64875 5.015,5.16875 7.7025,7.56375 4.6225,4.1275 9.47125,7.99875 14.50375,11.59625 1.64,1.15625 3.29875,2.29125 4.9975,3.35625 1.69375,1.08 3.3775,2.155 5.055,3.22625 5.13875,3.28125 10.29125,6.53 15.7125,9.34 0.9525,0.48375 2.13875,0.97625 2.83625,1.43625 3.3925,2.1675 6.9775,3.88875 10.6325,5.19625 1.8125,0.69 3.71625,1.08125 5.5725,1.49625 1.82375,0.50875 3.79625,0.4975 5.64125,0.68875 0.815,0.0912 1.59125,0.10375 2.3325,0.12375 0.095,-0.005 0.18,0.02 0.2825,-0.01 0.0888,0.0125 0.1775,0.025 0.27875,-0.008 l 0.585,-0.12625 c 0.38625,-0.075 0.7775,-0.18125 1.15125,-0.2225 0.7225,-0.0325 1.47625,-0.065 2.27625,-0.1 0.1975,-0.005 0.39875,-0.0125 0.60375,-0.0188 0.2,0.0113 0.4125,-0.0163 0.64625,-0.10375 0.455,-0.135 0.92375,-0.2575 1.40875,-0.3725 -0.51875,0.0587 -1.02875,0.11625 -1.53,0.1725 -0.48375,-0.015 -0.93,-0.14875 -1.38,-0.21625 -0.44625,-0.085 -0.88375,-0.1675 -1.30875,-0.2475 -0.20875,-0.0513 -0.42,-0.0838 -0.61875,-0.15 -0.22625,0.03 -0.42625,-0.0213 -0.63625,-0.0287 -0.8425,-0.0175 -1.5625,-0.2725 -2.24125,-0.44875 -0.68125,-0.175 -1.285,-0.38375 -1.835,-0.54 -1.22,-0.915 -2.0825,-1.5425 -3.0575,-2.4725 1.36375,0.4475 3.0575,0.87375 4.62125,1.26875 0.7325,0.16625 1.44625,0.2825 2.14375,0.4 0.71125,0.0838 1.42,0.12875 2.115,0.27125 l -1.9375,-0.6675 c -0.6375,-0.25125 -1.285,-0.5025 -1.97625,-0.74625 -2.8375,-1.0525 -5.7425,-2.15375 -9.2425,-3.73 4.795,0.9175 8.2525,1.62625 11.41125,2.1625 1.08125,0.20125 1.2925,0.24125 1.04375,-0.0437 -0.24375,-0.3025 -1.0125,-0.7 -1.96,-1.155 -1.4475,-0.72375 -2.795,-1.5675 -4.19375,-2.39 -1.40125,-0.82125 -2.8525,-1.63 -4.39875,-2.6075 2.30875,0.69125 3.95125,0.99375 6.225,1.76625 -1.42875,-0.99625 -2.16625,-1.44125 -3.045,-1.885 -1.02375,-0.475 -2.0425,-0.95625 -3.04875,-1.4725 l -3.08125,-1.37125 c -2.04625,-0.945 -4.0825,-1.88375 -6.115,-2.82375 -4.0625,-1.90125 -8.1225,-3.7775 -12.295,-5.47 -3.915,-1.585 -9.94875,-4.98875 -15.4225,-8.895 -5.48875,-3.88625 -10.4325,-8.195 -12.74,-10.88 -0.37125,-0.42375 -1.19625,-1.11125 -1.725,-1.5 -1.655,-1.22125 -3.36625,-2.36875 -4.9675,-3.6375 -0.805,-0.6325 -1.64875,-1.22375 -2.4725,-1.84625 l -2.41875,-1.93625 c -1.0775,-0.84625 -2.245,-1.92 -3.18375,-2.94125 -2.6275,-2.75375 -5.045,-5.6625 -7.4025,-8.60875 -1.17875,-1.4725 -2.28875,-2.9925 -3.43125,-4.49375 -1.0525,-1.55625 -2.2,-3.06125 -3.1975,-4.65625 -0.88875,-1.40875 -2.06875,-2.8275 -2.98375,-4.32 l -0.2925,0.0975 c 1.78625,3.2125 3.82875,6.29 5.92125,9.3325 l -0.2325,0.15125 c -1.38,-1.84 -2.905,-3.65375 -4.07125,-5.58125 -2.03,-3.10875 -3.76625,-6.37 -5.40375,-9.67 l -2.3575,-5.00125 c -0.665,-1.70375 -1.47875,-3.4125 -2.04875,-5.1225 -0.39125,-1.1525 -0.855,-2.26875 -1.265,-3.5475 -0.35,-1.32375 -0.72,-2.72125 -1.12375,-4.25125 0.25625,2.53 0.755,5.5875 0.57125,5.69375 -0.52875,0.34375 -1.47125,-0.1875 -2.3325,-1.44875 -0.525,-0.73 -0.7875,-1.0125 -0.73625,-0.29875 0.035,0.3575 0.10875,0.96125 0.34,1.88875 0.25375,0.93 0.595,2.175 1.04375,3.81625 -0.3125,-0.355 -1.12,-2.68 -1.63875,-4.03 -0.22875,-0.6675 -0.40125,-1.08125 -0.4475,-0.89 -0.0487,0.19 0.0188,0.985 0.38875,2.83 -0.19,0.72125 -0.61625,0.655 -0.40625,1.82625 z m 1.3725,3.54875 c 0.75375,1.72125 1.92,4.7575 3.31875,7.9525 1.40125,3.19125 2.96125,6.57 4.035,9.21 -2.96875,-5.37625 -5.57125,-10.99875 -7.35375,-17.1625 z m 20.70375,35.10125 -0.2075,0.0512 c -4.10125,-4.85375 -7.84,-10.0325 -11.125,-15.49125 l 0.44,-0.0875 c 3.21625,5.44875 6.8775,10.63625 10.8925,15.5275 z m 43.91625,27.91875 c -7.295,-3.51625 -12.8775,-7.74875 -18.51625,-12.86625 6.14,4.82125 11.81,8.74375 18.51625,12.86625 z m 34.46625,23.565 c 0.0762,0.13125 0.13625,0.31625 0.21,0.4575 l -2.89,-0.45625 c -0.9675,-0.1475 -1.87375,-0.4725 -2.81625,-0.7 -1.87,-0.49375 -3.73875,-1.00125 -5.55125,-1.6625 l 0.0475,-0.5175 c 1.77625,0.615 3.5375,0.91625 5.33875,1.29 0.89875,0.195 1.79875,0.42625 2.7225,0.7225 0.95,0.22375 1.925,0.49375 2.93875,0.86625 z m -93.4375,-75.87875 0.29625,-0.0588 c 2.8875,5.9175 6.36125,11.545 10.24375,16.86375 l -0.16625,0.0588 c -3.9325,-5.30375 -7.45125,-10.93125 -10.37375,-16.86375 z m 76.7025,69.615 0.005,0.42125 c -3.46375,-1.3575 -6.9175,-2.7625 -10.29625,-4.335 l -0.008,-0.68625 c 3.37,1.67 6.82875,3.155 10.29875,4.6 z m -56.8825,-42.92 0.1825,-0.29375 c 3.04625,3.24 6.2625,6.31375 9.6,9.245 l -0.29625,0.1975 c -3.3,-2.89875 -6.47375,-5.94375 -9.48625,-9.14875"
         style="fill:#231f20;fill-opacity:1;fill-rule:evenodd;stroke:none"
         id="path3934" />
      <path
         inkscape:connector-curvature="0"
         d="m 690.08035,844.04 c -2.96875,-5.37625 -5.57125,-10.99875 -7.35375,-17.1625 0.75375,1.72125 1.92,4.7575 3.31875,7.9525 1.40125,3.19125 2.96125,6.57 4.035,9.21"
         style="fill:#ffffff;fill-opacity:1;fill-rule:evenodd;stroke:none"
         id="path3936" />
      <path
         inkscape:connector-curvature="0"
         d="m 692.53785,846.45125 c 3.21625,5.44875 6.8775,10.63625 10.8925,15.5275 l -0.2075,0.0512 c -4.10125,-4.85375 -7.84,-10.0325 -11.125,-15.49125 l 0.44,-0.0875"
         style="fill:#ffffff;fill-opacity:1;fill-rule:evenodd;stroke:none"
         id="path3938" />
      <path
         inkscape:connector-curvature="0"
         d="m 728.83035,877.03125 c 6.14,4.82125 11.81,8.74375 18.51625,12.86625 -7.295,-3.51625 -12.8775,-7.74875 -18.51625,-12.86625"
         style="fill:#ffffff;fill-opacity:1;fill-rule:evenodd;stroke:none"
         id="path3940" />
      <path
         inkscape:connector-curvature="0"
         d="m 770.81285,910.58375 c 1.77625,0.615 3.5375,0.91625 5.33875,1.29 0.89875,0.195 1.79875,0.42625 2.7225,0.7225 0.95,0.22375 1.925,0.49375 2.93875,0.86625 0.0762,0.13125 0.13625,0.31625 0.21,0.4575 l -2.89,-0.45625 c -0.9675,-0.1475 -1.87375,-0.4725 -2.81625,-0.7 -1.87,-0.49375 -3.73875,-1.00125 -5.55125,-1.6625 l 0.0475,-0.5175"
         style="fill:#ffffff;fill-opacity:1;fill-rule:evenodd;stroke:none"
         id="path3942" />
      <path
         inkscape:connector-curvature="0"
         d="m 698.7491,854.4475 c -3.9325,-5.30375 -7.45125,-10.93125 -10.37375,-16.86375 l 0.29625,-0.0588 c 2.8875,5.9175 6.36125,11.545 10.24375,16.86375 l -0.16625,0.0588"
         style="fill:#ffffff;fill-opacity:1;fill-rule:evenodd;stroke:none"
         id="path3944" />
      <path
         inkscape:connector-curvature="0"
         d="m 754.7791,902.59875 c 3.37,1.67 6.82875,3.155 10.29875,4.6 l 0.005,0.42125 c -3.46375,-1.3575 -6.9175,-2.7625 -10.29625,-4.335 l -0.008,-0.68625"
         style="fill:#ffffff;fill-opacity:1;fill-rule:evenodd;stroke:none"
         id="path3946" />
      <path
         inkscape:connector-curvature="0"
         d="m 717.6816,873.4275 c -3.3,-2.89875 -6.47375,-5.94375 -9.48625,-9.14875 l 0.1825,-0.29375 c 3.04625,3.24 6.2625,6.31375 9.6,9.245 l -0.29625,0.1975"
         style="fill:#ffffff;fill-opacity:1;fill-rule:evenodd;stroke:none"
         id="path3948" />
      <path
         inkscape:connector-curvature="0"
         d="m 753.16535,824.3925 c -2.03375,2.3925 -4.35,5.27375 -6.40875,8.03125 -2.0675,2.78625 -4.135,5.5625 -6.12125,8.3875 l -5.825,8.5575 c -3.92875,5.67875 -7.6575,11.50125 -11.66375,17.2175 -0.49375,0.705 -0.9025,1.51 -1.395,2.22 l -6.075,8.69125 -10.29625,15.09625 c -2.16125,3.3 -4.33875,6.62125 -6.4875,9.9025 -3.36875,4.97625 -6.82875,9.855 -10.24625,14.78 -0.59625,0.86 -1.23625,1.945 -1.7775,2.56375 -2.60125,2.9725 -4.75625,6.185 -6.71625,9.42125 -0.485,0.8125 -0.96125,1.62375 -1.41375,2.44375 -0.41125,0.8375 -0.8225,1.6775 -1.235,2.51875 -0.80125,1.67875 -1.5625,3.35125 -2.2975,5.0025 -0.325,0.73125 -0.6025,1.42125 -0.85375,2.0975 -0.27,0.66375 -0.31375,1.4475 -0.4825,2.16375 -0.265,1.48 -0.64125,2.94625 -1.20375,4.70625 0.925,-1.73125 1.78875,-3.345 2.52375,-4.79625 0.345,-0.74125 0.80125,-1.34625 1.18875,-1.925 0.39375,-0.575 0.7525,-1.10125 1.0725,-1.57 1.245,-0.895 2.1425,-1.52 3.24375,-2.2675 -0.755,1.2275 -1.71125,2.69 -2.515,4.10125 -0.3725,0.655 -0.7075,1.295 -1.03125,1.93 l -0.91,1.94 c 0.81125,-1.1325 1.68375,-2.1375 2.575,-3.3225 1.82125,-2.48875 3.665,-5.00625 5.96,-8.14 -2.02625,4.505 -3.64,7.73875 -5.03625,10.725 -0.4925,1.0175 -0.55125,1.24375 -0.22,1.07125 0.3425,-0.1675 0.94625,-0.82 1.6575,-1.635 2.1875,-2.5025 4.39125,-4.75 6.97875,-7.51375 -1.1775,2.2225 -2.06125,3.7025 -3.31125,5.89375 1.2375,-1.28125 1.94875,-1.87625 2.595,-2.6775 1.52875,-1.825 2.88625,-3.75875 4.295,-5.65625 1.395,-1.90625 2.77125,-3.8225 4.11375,-5.7575 2.635,-3.89875 5.1125,-7.88625 7.3425,-12.01375 4.24125,-7.70625 15.70875,-24.055 20.75,-29.54 0.40125,-0.43375 1.0525,-1.35875 1.385,-1.96875 2.06375,-3.80875 4.115,-7.59 6.18,-11.4 0.69125,-1.25375 1.54625,-2.68 2.3825,-3.87375 2.27375,-3.28125 4.61875,-6.5 6.8375,-9.80375 2.20375,-3.31875 4.4075,-6.63875 6.61375,-9.96125 0.96375,-1.48625 1.87,-3.20125 2.76625,-4.8325 l -0.27125,-0.2525 c -2.13625,3.24375 -4.33625,6.44625 -6.51625,9.66 l -0.265,-0.1875 c 1.24,-2.0775 2.4375,-4.23625 3.73375,-6.21 4.26125,-6.5025 8.3175,-13.085 12.41125,-19.68875 1.355,-2.2075 2.67625,-4.51875 4.31125,-7.28125 -1.7025,1.9375 -3.63375,4.4175 -3.99875,4.2925 -0.7825,-0.26625 -1.0725,-1.39 -0.9075,-2.99875 0.2025,-1.885 -0.075,-1.685 -3.87375,3.9225 0.0362,-1.01375 4.89125,-8.4375 0.24125,-2.77625 -0.74625,0.26 -1.06375,-0.15875 -1.80375,0.7125 z m -1.8025,3.24625 c -1.65875,3.31875 -6.9175,10.78125 -10.82,14.81375 3.4925,-4.91125 7.1175,-9.73625 10.82,-14.81375 z m -22.69375,33.405 -0.12625,-0.2 c 3.47,-5.2275 7.12875,-10.33125 10.705,-15.49125 l 0.3275,0.41125 c -3.6325,5.095 -7.3525,10.1325 -10.90625,15.28 z m -23.3925,47.40875 c 3.98375,-7.30375 8.15625,-13.06375 13.02125,-19.2425 -4.51,6.6675 -8.4325,12.56625 -13.02125,19.2425 z m -28.935,30.75125 -0.5125,0.0625 c 1.84125,-3.315 3.545,-6.71875 5.515,-9.94875 l 0.48,0.14125 c -1.8775,3.18625 -2.72625,6.47 -5.4825,9.745 z m 69.40125,-100.96875 0.245,0.265 c -3.81625,5.34375 -7.52875,10.76125 -11.30875,16.13 l -0.13375,-0.15375 c 3.7375,-5.41125 7.4,-10.87 11.1975,-16.24125 z m -59.66,86.23375 -0.405,-0.0625 c 1.835,-3.19125 3.7575,-6.32375 5.6325,-9.48875 l 0.66875,0.0638 c -1.9625,3.16375 -3.9675,6.3 -5.89625,9.4875 z m 41.75125,-58.10625 0.355,0.12875 -7.335,11.23875 -0.25,-0.2775 7.23,-11.09"
         style="fill:#231f20;fill-opacity:1;fill-rule:evenodd;stroke:none"
         id="path3950" />
      <path
         inkscape:connector-curvature="0"
         d="m 740.54285,842.4525 c 3.4925,-4.91125 7.1175,-9.73625 10.82,-14.81375 -1.65875,3.31875 -6.9175,10.78125 -10.82,14.81375"
         style="fill:#ffffff;fill-opacity:1;fill-rule:evenodd;stroke:none"
         id="path3952" />
      <path
         inkscape:connector-curvature="0"
         d="m 739.57535,845.76375 c -3.6325,5.095 -7.3525,10.1325 -10.90625,15.28 l -0.12625,-0.2 c 3.47,-5.2275 7.12875,-10.33125 10.705,-15.49125 l 0.3275,0.41125"
         style="fill:#ffffff;fill-opacity:1;fill-rule:evenodd;stroke:none"
         id="path3954" />
      <path
         inkscape:connector-curvature="0"
         d="m 718.29785,889.21 c -4.51,6.6675 -8.4325,12.56625 -13.02125,19.2425 3.98375,-7.30375 8.15625,-13.06375 13.02125,-19.2425"
         style="fill:#ffffff;fill-opacity:1;fill-rule:evenodd;stroke:none"
         id="path3956" />
      <path
         inkscape:connector-curvature="0"
         d="m 681.8241,929.45875 c -1.8775,3.18625 -2.72625,6.47 -5.4825,9.745 l -0.5125,0.0625 c 1.84125,-3.315 3.545,-6.71875 5.515,-9.94875 l 0.48,0.14125"
         style="fill:#ffffff;fill-opacity:1;fill-rule:evenodd;stroke:none"
         id="path3958" />
      <path
         inkscape:connector-curvature="0"
         d="m 734.54535,854.47625 c 3.7375,-5.41125 7.4,-10.87 11.1975,-16.24125 l 0.245,0.265 c -3.81625,5.34375 -7.52875,10.76125 -11.30875,16.13 l -0.13375,-0.15375"
         style="fill:#ffffff;fill-opacity:1;fill-rule:evenodd;stroke:none"
         id="path3960" />
      <path
         inkscape:connector-curvature="0"
         d="m 691.9791,914.98125 c -1.9625,3.16375 -3.9675,6.3 -5.89625,9.4875 l -0.405,-0.0625 c 1.835,-3.19125 3.7575,-6.32375 5.6325,-9.48875 l 0.66875,0.0638"
         style="fill:#ffffff;fill-opacity:1;fill-rule:evenodd;stroke:none"
         id="path3962" />
      <path
         inkscape:connector-curvature="0"
         d="m 720.6041,877.4525 7.23,-11.09 0.355,0.12875 -7.335,11.23875 -0.25,-0.2775"
         style="fill:#ffffff;fill-opacity:1;fill-rule:evenodd;stroke:none"
         id="path3964" />
    </g>
  </g>
</svg>
