<?xml version="1.0" encoding="UTF-8" standalone="no"?>
<!-- Created with Inkscape (http://www.inkscape.org/) -->

<svg
   xmlns:dc="http://purl.org/dc/elements/1.1/"
   xmlns:cc="http://creativecommons.org/ns#"
   xmlns:rdf="http://www.w3.org/1999/02/22-rdf-syntax-ns#"
   xmlns:svg="http://www.w3.org/2000/svg"
   xmlns="http://www.w3.org/2000/svg"
   version="1.1"
   width="124.53275"
   height="276.00873"
   id="svg8792">
  <defs
     id="defs8794" />
  <metadata
     id="metadata8797">
    <rdf:RDF>
      <cc:Work
         rdf:about="">
        <dc:format>image/svg+xml</dc:format>
        <dc:type
           rdf:resource="http://purl.org/dc/dcmitype/StillImage" />
        <dc:title></dc:title>
      </cc:Work>
    </rdf:RDF>
  </metadata>
  <g
     transform="translate(-57.733622,-320.07208)"
     id="layer1">
    <g
       transform="matrix(0.125,0,0,-0.125,393.89351,1584.5442)"
       id="g7194">
      <path
         d="m -2037.7791,10090.807 c -11.223,-12.49 -23.98,-27.56 -35.492,-41.89 -43.672,-59.7299 -83.938,-120.7099 -128.59,-180.3799 -2.769,-3.67 -5.055,-7.9 -7.812,-11.6 -11.465,-15.02 -22.493,-30.27 -33.196,-45.8 l -55.168,-80.36 c -11.828,-17.44 -22.922,-35.47 -34.941,-52.61 -18.402,-26.26 -37.285,-52.01 -55.977,-77.97 -3.261,-4.55 -6.738,-10.3 -9.718,-13.53 -14.34,-15.52 -26.688,-32.11 -37.539,-49.2 -10.77,-17.13 -20.684,-34.26 -27.735,-52.44 -3.051,-7.35 -6.348,-16.41 -8.781,-24.71 -1.211,-4.24 -2.641,-8.39 -3.441,-13.03 l -0.731,-3.47 c -0.195,-0.55 -0.141,-1.22 -0.375,-1.76 0.121,-0.69 0.449,-1.47 0.652,-2.2 0.934,-2.95 1.801,-5.88 2.59,-8.8 -0.406,3.05 -0.722,6.12 -0.965,9.21 0.536,2.78 2.43,4.95 3.551,7.38 2.715,4.66 5.692,8.92 8.309,13 2.652,3.96 5.136,7.67 7.422,11.09 2.136,3.05 4.086,5.83 5.824,8.31 7.23,4.41 12.324,7.53 18.789,11.13 -4.152,-6.47 -9.195,-14.31 -13.457,-21.86 -3.895,-6.84 -7.07,-14.41 -10.442,-21.34 4.864,5.98 9.915,12.18 14.583,17.92 9.98,13.27 19.91,26.48 32.363,43.03 -10.442,-24 -17.781,-40.87 -25.223,-57.97 -4.07,-10.36 0.809,-5.76 8.305,2.3 6.008,6.54 12.121,12.7 18.324,19.13 6.023,6.53 12.324,13.36 19.098,20.7 -5.973,-12.04 -9.567,-20.64 -15.996,-32.46 6.976,6.57 10.265,10.05 13.601,14.39 29.492,40.77 58.778,81.65 82.242,125.89 21.996,41.51 84.653,127.66 112.41,156.24 2.211,2.27 5.782,7.13 7.59,10.36 5.567,10.06 11.149,20.15 16.723,30.24 5.352,10.27 10.699,20.53 16.031,30.75 3.571,6.78 8.012,14.46 12.387,20.88 23.953,35.19 47.887,70.09 71.437,105.6 5.211,7.86 10,17.06 15.004,25.62 l -1.398,1.34 -35.137,-51.26 -1.383,1.01 c 6.692,11.03 13.172,22.49 20.153,32.97 l 34.476,51.5999 c 11.321,17.29 21.867,35.1 32.7,52.78 3.386,6.04 7.527,11.68 10.402,18.68 0.273,2.04 0.555,4.12 0.836,6.24 l 0.211,1.59 c 0.086,0.24 0.254,0.41 0.379,0.61 l 0.05,0.08 0.028,0.04 0.011,0.02 c -0.367,0.25 0.833,-0.56 -0.828,0.57 l 0,0.02 -0.078,0.27 -0.156,0.55 -1.273,4.41 c -3.258,6.98 0.363,9.47 1.804,13.66 -0.793,-1.61 -1.57,-3.19 -2.332,-4.72 -0.375,-0.81 -0.859,-1.55 -1.152,-2.42 -0.543,-0.7 0.328,-2.35 0.387,-3.44 0.488,-2.45 0.882,-4.79 1.191,-7 0.488,-2.33 -0.773,-3.4 -1.074,-4.99 -0.461,-1.49 -1.207,-2.65 -1.41,-4.02 -0.809,-0.83 -1.578,-1.62 -2.321,-2.38 -1.359,-1.32 -2.347,-2.03 -2.812,-1.88 -3.949,1.33 -5.492,7.38 -4.102,15.67 1.102,4.67 1.528,6.58 -1.367,3.92 -0.777,-0.62 -1.789,-1.52 -3.066,-2.71 -0.668,-0.57 -1.289,-1.31 -2.184,-1.98 -0.648,-0.86 -1.344,-1.79 -2.097,-2.8 -2.997,-4.19 -6.958,-9.74 -12.215,-17.11 0.23,2.64 6.886,13.82 10.468,20.5 2.008,3.2 3.981,4.78 2.668,4.51 -0.574,-0.19 -1.984,-0.84 -4.144,-2.29 -1.695,-1.77 -4.067,-4.41 -7.27,-8.1 -3.953,-1.37 -5.547,0.82 -9.617,-3.73 z m -10.098,-17 c -4.582,-8.77 -14.445,-22.72 -25.046,-37.64 -10.641,-14.9 -22.793,-30.24 -33.258,-40.9299 18.875,26.0099 37.379,52.2899 58.304,78.5699 z m -123.304,-176.6299 -0.68,1.08 58.524,81.65 1.695,-2.19 -59.539,-80.54 z m -126.008,-252.39 c 21.242,38.99 44.066,69.3 70.523,101.86 -24.433,-35.29 -45.937,-66.35 -70.523,-101.86 z m -159.813,-160.23 -3.113,-0.08 c 9.172,18.15 20.516,34.88 30.875,52.26 l 2.836,-0.95 c -5.086,-8.48 -8.848,-17.05 -13.363,-25.56 -2.254,-4.26 -4.699,-8.5 -7.598,-12.71 -2.715,-4.33 -5.836,-8.66 -9.637,-12.96 z m 378.465,533.0999 1.285,-1.42 -61.128,-85.4499 -0.692,0.82 60.535,86.0499 z m -324.066,-455.9399 -2.324,0.45 30.687,50.23 3.766,-0.5 -32.129,-50.18 z m 226.726,307.12 1.958,-0.75 -39.868,-59.45 -1.449,1.57 c 12.902,19.69 26.227,39.09 39.359,58.63"
         id="path4270"
         style="fill:#231f20;fill-opacity:1;fill-rule:evenodd;stroke:none" />
      <path
         d="m -2106.1811,9995.2371 c 18.875,26.0099 37.379,52.2899 58.304,78.5699 -4.582,-8.77 -14.445,-22.72 -25.046,-37.64 -10.641,-14.9 -22.793,-30.24 -33.258,-40.9299"
         id="path4272"
         style="fill:#ffffff;fill-opacity:1;fill-rule:evenodd;stroke:none" />
      <path
         d="m -2111.6421,9977.7171 -59.539,-80.54 -0.68,1.08 58.524,81.65 1.695,-2.19"
         id="path4274"
         style="fill:#ffffff;fill-opacity:1;fill-rule:evenodd;stroke:none" />
      <path
         d="m -2226.6661,9746.6471 c -24.433,-35.29 -45.937,-66.35 -70.523,-101.86 21.242,38.99 44.066,69.3 70.523,101.86"
         id="path4276"
         style="fill:#ffffff;fill-opacity:1;fill-rule:evenodd;stroke:none" />
      <path
         d="m -2426.4041,9535.7871 c -5.086,-8.48 -8.848,-17.05 -13.363,-25.56 -2.254,-4.26 -4.699,-8.5 -7.598,-12.71 -2.715,-4.33 -5.836,-8.66 -9.637,-12.96 l -3.113,-0.08 c 9.172,18.15 20.516,34.88 30.875,52.26 l 2.836,-0.95"
         id="path4278"
         style="fill:#ffffff;fill-opacity:1;fill-rule:evenodd;stroke:none" />
      <path
         d="m -2139.0721,9931.6071 60.535,86.0499 1.285,-1.42 -61.128,-85.4499 -0.692,0.82"
         id="path4280"
         style="fill:#ffffff;fill-opacity:1;fill-rule:evenodd;stroke:none" />
      <path
         d="m -2370.4741,9611.8971 -32.129,-50.18 -2.324,0.45 30.687,50.23 3.766,-0.5"
         id="path4282"
         style="fill:#ffffff;fill-opacity:1;fill-rule:evenodd;stroke:none" />
      <path
         d="m -2215.2361,9810.2071 c 12.902,19.69 26.227,39.09 39.359,58.63 l 1.958,-0.75 -39.868,-59.45 -1.449,1.57"
         id="path4284"
         style="fill:#ffffff;fill-opacity:1;fill-rule:evenodd;stroke:none" />
      <path
         d="m -2442.4701,9425.6471 c 10.218,1.48 22.008,4.03 32.742,7.17 21.769,6.05 42.496,14.72 63.656,22.23 21.082,7.76 42.242,15.4 64.008,21.93 2.68,0.8 5.254,2.3 7.941,3.13 10.993,3.3 22.09,6.64 33.047,9.93 l 56.594,18.23 c 12.195,4.04 24.137,8.99 36.348,12.73 18.711,5.72 37.562,10.7 56.367,15.98 3.281,0.92 7.055,2.54 9.777,2.75 26.18,2.21 49.153,11.86 69.227,24.82 4.414,2.98 7.871,6.22 11.386,9.81 1.739,1.84 3.582,3.5 5.344,5.9 l 1.391,1.71 c 0.515,0.44 0.941,1.2 1.223,2.41 0.675,2.09 1.414,4.17 2.234,6.24 -1.113,-1.65 -2.215,-3.27 -3.281,-4.85 -1.25,-1.09 -2.782,-1.27 -4.106,-1.91 -2.769,-0.97 -5.523,-1.56 -8.055,-2.29 -5.093,-1.36 -9.535,-2.55 -13.109,-3.51 -5.68,2.16 -9.699,3.69 -14.574,5.54 4.391,1.63 9.793,3.41 14.562,5.74 4.442,2.14 8.235,4.79 12.321,7.19 -4.586,-0.6 -9.067,-0.79 -13.797,-1.83 -10.113,-2.43 -19.735,-4.74 -32.028,-7.69 13.422,9.74 23.36,16.71 32.258,23.46 6.11,4.67 1.375,4.84 -5.785,4.18 -10.226,-0.82 -21.297,-1.71 -33.883,-2.71 7.075,4.47 11.942,7.56 19.051,12.06 -5.863,-0.48 -9.019,-0.2 -12.238,-1.1 -29.684,-8.31 -59.051,-17.21 -86.043,-32.18 -25.352,-13.99 -87.797,-32.11 -112.551,-33.75 -1.969,-0.12 -5.504,-1.14 -7.523,-2.18 -12.438,-6.46 -25.309,-13.14 -37.703,-19.59 -4.18,-2.11 -9.157,-4.25 -13.711,-5.59 -24.813,-7.28 -49.985,-14.66 -74.715,-21.91 -5.512,-1.67 -11.125,-4.66 -16.696,-7.04 l 0.536,-2.14 36.55,10.27 0.575,-1.77 c -7.305,-2.91 -14.598,-6.34 -21.926,-8.65 -24.239,-7.3 -48.024,-15.43 -71.852,-23.85 -7.887,-2.96 -16.101,-5.62 -25.078,-11.61 8.277,1.5 18.785,2.29 19.961,-0.14 2.531,-5.26 2.125,-11.85 -0.473,-18.62 -3.054,-7.95 -1.773,-8.48 19.039,-1.22 -1.484,-4.36 -28.183,-15.46 -4.367,-11.8 3.008,-2.47 3.633,-6.01 7.356,-5.48 z m 10.476,6.56 c 10.117,7.43 38.383,16.51 56.996,17.6 -18.539,-6.35 -37.386,-11.81 -56.996,-17.6 z m 123.575,44.65 0.089,-1.23 -58.148,-19.25 -0.465,2.97 58.524,17.51 z m 149.238,90.62 c -24.121,-12.77 -46.586,-18.53 -71.824,-23.55 24.886,8.16 46.785,15.34 71.824,23.55 z m 142.363,2.39 1.899,-2.18 c -11.2,-5.23 -22.735,-9.51 -34.09,-14.29 l -1.391,2.58 c 11.051,4.81 19.184,13.21 33.582,13.89 z m -381.484,-116.21 -0.453,2.18 61.101,19.33 0.192,-1.1 -60.84,-20.41 z m 326.086,100.61 1.234,-1.89 -33.125,-13.91 -2.074,2.86 33.965,12.94 z m -225.192,-60.47 -0.933,1.83 41.097,14.74 0.367,-1.98 -40.531,-14.59"
         id="path4286"
         style="fill:#231f20;fill-opacity:1;fill-rule:evenodd;stroke:none" />
      <path
         d="m -2374.9981,9449.8071 c -18.539,-6.35 -37.386,-11.81 -56.996,-17.6 10.117,7.43 38.383,16.51 56.996,17.6"
         id="path4288"
         style="fill:#ffffff;fill-opacity:1;fill-rule:evenodd;stroke:none" />
      <path
         d="m -2366.9431,9459.3471 58.524,17.51 0.089,-1.23 -58.148,-19.25 -0.465,2.97"
         id="path4290"
         style="fill:#ffffff;fill-opacity:1;fill-rule:evenodd;stroke:none" />
      <path
         d="m -2231.0051,9543.9271 c 24.886,8.16 46.785,15.34 71.824,23.55 -24.121,-12.77 -46.586,-18.53 -71.824,-23.55"
         id="path4292"
         style="fill:#ffffff;fill-opacity:1;fill-rule:evenodd;stroke:none" />
      <path
         d="m -2050.4001,9555.9771 c 11.051,4.81 19.184,13.21 33.582,13.89 l 1.899,-2.18 c -11.2,-5.23 -22.735,-9.51 -34.09,-14.29 l -1.391,2.58"
         id="path4294"
         style="fill:#ffffff;fill-opacity:1;fill-rule:evenodd;stroke:none" />
      <path
         d="m -2337.4621,9474.0671 -60.84,-20.41 -0.453,2.18 61.101,19.33 0.192,-1.1"
         id="path4296"
         style="fill:#ffffff;fill-opacity:1;fill-rule:evenodd;stroke:none" />
      <path
         d="m -2106.1811,9541.3271 33.965,12.94 1.234,-1.89 -33.125,-13.91 -2.074,2.86"
         id="path4298"
         style="fill:#ffffff;fill-opacity:1;fill-rule:evenodd;stroke:none" />
      <path
         d="m -2256.8771,9508.3871 -40.531,-14.59 -0.933,1.83 41.097,14.74 0.367,-1.98"
         id="path4300"
         style="fill:#ffffff;fill-opacity:1;fill-rule:evenodd;stroke:none" />
      <path
         d="m -2078.7481,9558.8771 c -11.773,-16.37 -25.492,-35.79 -36.421,-54.91 -10.911,-19.37 -21.559,-38.79 -32.083,-58.25 l -15.718,-29.22 -15.063,-29.56 c -20.078,-39.44 -40.351,-78.85 -62.148,-117.92 -2.692,-4.82 -4.738,-10.24 -7.418,-15.09 l -33.063,-59.37 -55.648,-103.07 c -11.895,-22.35 -22.852,-45.31 -34.988,-67.36 -18.598,-33.75 -37.864,-66.93 -56.801,-100.41 -3.242,-5.88 -6.442,-13.32 -9.477,-17.63 -14.418,-20.81 -26.652,-42.44 -36.508,-64.69 -8.152,-23.15 -14.832,-46.41 -21.117,-69.02 -2.906,-9.94 -4.008,-19.07 -5.508,-28.29 -0.316,-4.82 -0.664,-9.84 -1.175,-15.03 -0.11,-2.6 -0.899,-5.24 -0.547,-8.46 0.062,-1.55 0.133,-3.12 0.195,-4.72 0.086,-0.2 -0.078,-1.05 -0.246,-2.07 -0.133,-0.93 -0.23,-1.87 -0.277,-2.8 -0.047,-0.93 -0.055,-1.85 -0.02,-2.74 0.715,-0.9 0.063,-1.74 0.215,-2.58 -0.113,0.94 0.648,1.85 -0.066,2.85 0.023,0.98 0.101,2 0.234,3.01 0.129,1.01 0.316,2.03 0.547,3.02 0.265,1.07 0.152,1.02 0.254,1.59 l 0.578,5.04 c 0.676,3.3 1.828,6.06 2.695,8.89 1.887,5.63 3.59,11.02 5.793,15.73 4.168,9.59 8.055,17.79 11.36,24.29 6.941,6.83 12.078,11.51 18.425,17.14 -3.875,-8.41 -8.789,-18.48 -12.793,-28.11 -3.699,-8.94 -6.445,-17.42 -9.566,-26.1 4.355,7.83 9.066,14.95 13.734,23.21 9.66,17.07 19.473,34.65 32.032,56.17 -9.77,-30.12 -17.879,-51.77 -25.165,-71.44 -5.132,-13.43 0.321,-6.46 8.575,4.71 12.461,17.26 25.008,33.05 40.605,51.85 -6.691,-14.57 -11.375,-24.53 -18.398,-38.99 7.301,8.84 11.582,13.01 15.367,18.43 l 13.148,18.7 6.551,9.36 5.707,9.79 c 7.567,13.07 15.035,26.18 22.262,39.4 14.715,26.3 27.406,53.56 38.555,81.49 20.91,52.43 84.269,163.59 113.55,201.43 2.328,3 5.942,9.27 7.688,13.38 l 32.246,76.55 c 3.621,8.42 8.191,18.05 12.824,26.15 25.32,44.46 51.192,88.28 76.117,133.01 5.368,9.99 9.868,21.6 14.786,32.46 l -2.2,1.6 c -12.043,-21.78 -24.121,-43.55 -36.867,-64.96 l -2.016,1.15 c 6.875,13.88 13.442,28.25 20.481,41.64 23.469,43.93 47.687,87.13 68.969,132.18 3.644,7.46 6.152,15.64 9.355,24.01 2.86,8.56 7.117,16.92 8.055,28.06 -0.723,-2.02 -1.43,-4.02 -2.129,-5.97 -0.297,-1.03 -0.895,-1.93 -0.965,-3.09 -0.68,-0.83 -1.144,-1.78 -1.726,-2.66 -2.258,-3.55 -4.399,-6.91 -6.372,-10.01 -3.976,-5.98 -7.265,-10.09 -8.691,-9.69 -6.144,1.74 -10.039,9.45 -10.719,20.22 -0.523,12.49 -2.527,11.23 -24.011,-26.51 -1.883,7.3 27.367,56.13 -1.93,18.8 -5.262,-1.75 -8.871,1.42 -13.063,-4.59 z m -8.875,-22.15 c -8.238,-22.35 -35.511,-74.09 -58.414,-101.97 9.457,16.83 18.918,33.67 28.473,50.68 4.805,8.49 9.633,17.03 14.504,25.64 5.101,8.48 10.242,17.02 15.437,25.65 z m -120.425,-229.1 -1.016,1.25 57.145,106.28 2.769,-2.65 -58.898,-104.88 z m -117.004,-318.25 c 20.297,49.32 43.586,88.52 70.867,130.89 -24.555,-45.35 -46.16,-85.26 -70.867,-130.89 z m -163.336,-215.8 -3.043,-0.87 25.117,69.08 3.324,-0.66 c -8.179,-22.49 -11.117,-44.11 -25.398,-67.55 z m 374.144,690.65 2.106,-1.74 c -20.664,-36.65 -41.153,-73.4 -61.305,-110.34 l -1.051,0.95 c 19.746,37.23 39.875,74.24 60.25,111.13 z m -324.597,-588.55 -2.743,0.19 c 9.707,21.51 19.161,43.16 29.407,64.4 l 4.515,-0.08 c -10.785,-21.29 -20.914,-42.94 -31.179,-64.51 z m 229.714,397.02 2.481,-0.67 -39.602,-76.35 -1.879,1.66 39,75.36"
         id="path4302"
         style="fill:#231f20;fill-opacity:1;fill-rule:evenodd;stroke:none" />
      <path
         d="m -2146.0371,9434.7571 c 9.457,16.83 18.918,33.67 28.473,50.68 4.805,8.49 9.633,17.03 14.504,25.64 5.101,8.48 10.242,17.02 15.437,25.65 -8.238,-22.35 -35.511,-74.09 -58.414,-101.97"
         id="path4304"
         style="fill:#ffffff;fill-opacity:1;fill-rule:evenodd;stroke:none" />
      <path
         d="m -2149.1501,9412.5071 -58.898,-104.88 -1.016,1.25 57.145,106.28 2.769,-2.65"
         id="path4306"
         style="fill:#ffffff;fill-opacity:1;fill-rule:evenodd;stroke:none" />
      <path
         d="m -2254.1851,9120.2671 c -24.555,-45.35 -46.16,-85.26 -70.867,-130.89 20.297,49.32 43.586,88.52 70.867,130.89"
         id="path4308"
         style="fill:#ffffff;fill-opacity:1;fill-rule:evenodd;stroke:none" />
      <path
         d="m -2462.9901,8841.1271 c -8.179,-22.49 -11.117,-44.11 -25.398,-67.55 l -3.043,-0.87 25.117,69.08 3.324,-0.66"
         id="path4310"
         style="fill:#ffffff;fill-opacity:1;fill-rule:evenodd;stroke:none" />
      <path
         d="m -2174.4941,9353.0971 c 19.746,37.23 39.875,74.24 60.25,111.13 l 2.106,-1.74 c -20.664,-36.65 -41.153,-73.4 -61.305,-110.34 l -1.051,0.95"
         id="path4312"
         style="fill:#ffffff;fill-opacity:1;fill-rule:evenodd;stroke:none" />
      <path
         d="m -2407.6621,8940.1871 c -10.785,-21.29 -20.914,-42.94 -31.179,-64.51 l -2.743,0.19 c 9.707,21.51 19.161,43.16 29.407,64.4 l 4.515,-0.08"
         id="path4314"
         style="fill:#ffffff;fill-opacity:1;fill-rule:evenodd;stroke:none" />
      <path
         d="m -2248.1271,9197.3371 39,75.36 2.481,-0.67 -39.602,-76.35 -1.879,1.66"
         id="path4316"
         style="fill:#ffffff;fill-opacity:1;fill-rule:evenodd;stroke:none" />
      <path
         d="m -2442.7791,8733.2071 c 5.879,0.52 12.422,1.25 18.559,2.45 6.301,1.19 12.133,3.41 17.843,5.41 22.708,8.59 44.063,18.12 64.68,29.08 20.703,10.73 41.141,21.67 62.297,31.65 2.613,1.22 4.981,3.15 7.582,4.4 10.645,5.07 21.387,10.18 32.004,15.23 18.211,9 35.844,19.02 53.594,28.68 11.468,6.34 22.508,13.55 34.062,19.48 17.692,9.07 35.653,17.38 53.489,25.68 3.117,1.48 6.605,3.7 9.273,4.32 25.637,6.37 46.992,18.26 63.672,36.21 3.687,4.11 6.523,7.92 9.543,12.1 1.512,2.11 3.035,4.14 4.73,6.26 l 1.305,1.61 c 0.242,0.23 0.414,0.64 0.672,0.83 0.156,0.46 0.262,1.08 0.394,1.61 0.524,2.21 1.129,4.41 1.836,6.6 -0.933,-1.93 -1.859,-3.81 -2.761,-5.66 -1.118,-1.25 -2.618,-1.43 -3.868,-2.17 -2.574,-1.22 -5.117,-2.34 -7.422,-3.56 -4.691,-2.29 -8.789,-4.28 -12.085,-5.88 -5.485,0.81 -9.707,2.08 -14.715,3.19 4.207,2.21 9.383,4.65 13.855,7.7 4.199,2.71 7.821,5.64 11.774,8.38 -4.457,-1.22 -8.887,-1.95 -13.543,-3.53 -9.575,-3.38 -19.391,-6.98 -31.5,-11.61 12.394,11.55 21.98,19.48 31.136,26.1 6.309,4.58 1.442,4.32 -6.203,3.44 -11.711,-1.23 -22.551,-2.97 -35.551,-5.24 6.907,5.3 11.868,8.5 19.188,13.37 -6.324,-0.82 -9.641,-0.82 -13.059,-1.89 -30.707,-11.14 -59.234,-25.33 -84.464,-44.59 -23.606,-18.24 -83.657,-47.04 -108.645,-52.27 -1.984,-0.43 -5.309,-2.17 -7.129,-3.62 -11.367,-9.13 -22.394,-18.29 -33.887,-27.18 -3.781,-2.91 -8.355,-6 -12.652,-8.18 -23.398,-11.5 -47.109,-23.16 -70.43,-34.63 -5.101,-2.58 -10.136,-6.61 -15.218,-9.81 l 0.75,-2.01 c 11.351,5.35 22.742,10.94 34.367,16.16 l 0.836,-1.7 c -6.813,-4.03 -13.575,-8.62 -20.418,-12.13 -11.297,-5.8 -22.625,-11.24 -33.91,-16.41 -5.625,-2.5 -11.286,-5.08 -16.832,-7.31 -5.461,-2.7 -10.727,-5.25 -15.993,-7.63 l -5.078,-2.19 c -1.746,-1.11 -2.859,-3.02 -4.422,-4.52 l -2.339,-2.5 c -0.215,-0.63 -0.516,-1.36 -0.961,-2.17 -0.289,-1.98 -3.883,-2.76 -6.641,-3.83 1.176,0.23 2.32,0.46 3.43,0.68 l 1.726,0.29 c 0.41,0.19 0.606,0.49 0.891,0.71 l 1.336,1.13 c 0.304,0.25 0.746,0.47 1.625,0.86 2.89,1.31 5.023,1.62 5.418,0.64 1.648,-4.27 0.902,-10.41 -3.407,-14.79 -2.46,-2.51 -4.238,-3.09 -1.121,-4.07 2.629,-0.45 9.645,-1.79 20.84,2.03 -0.449,-1 -2.64,-2.34 -5.422,-3.62 l -4.3,-1.99 c -1.524,-0.2 -3.024,-0.39 -4.469,-0.58 -2.652,-0.36 -4.336,-0.63 -3.555,-1.26 0.399,-0.32 1.41,-0.72 3.313,-1.28 1.101,-0.3 2.281,-0.61 3.562,-0.96 0.762,-0.26 1.426,-0.17 2.289,-0.66 0.727,0.12 1.539,0.12 2.395,0.19 3.031,-2.23 3.207,-5.31 7.734,-5.04 z m 12.402,5.68 c 11.766,6.59 39.86,19.49 59.293,22.38 -18.929,-7.87 -37.671,-16.34 -59.293,-22.38 z m 123.981,58.86 0.301,-1.25 c -18.778,-9.44 -37.617,-18.87 -56.828,-27.8 l -0.84,2.88 c 19.34,8.44 38.367,17.3 57.367,26.17 z m 134.391,118.16 c -22.184,-17.04 -43.84,-26.72 -68.555,-35.89 23.75,12.43 44.652,23.38 68.555,35.89 z m 142.093,24.18 1.95,-1.71 c -4.692,-4.29 -10.055,-7.01 -15.133,-10.58 -5.051,-3.5 -10.367,-6.56 -15.692,-9.63 l -1.742,2.43 c 10.285,6.2 17.145,16.14 30.617,19.49 z m -365.664,-177.79 -0.625,2.02 c 20.449,8.5 40.461,17.71 60.219,27.33 l 0.359,-1.09 c -19.613,-9.98 -39.523,-19.5 -59.953,-28.26 z m 313.602,153.57 1.527,-1.74 -30.789,-19.27 -2.566,2.61 31.828,18.4 z m -216.156,-99.03 -1.282,1.75 39,21.81 0.77,-2.02 -38.488,-21.54"
         id="path4318"
         style="fill:#231f20;fill-opacity:1;fill-rule:evenodd;stroke:none" />
      <path
         d="m -2371.0841,8761.2671 c -18.929,-7.87 -37.671,-16.34 -59.293,-22.38 11.766,6.59 39.86,19.49 59.293,22.38"
         id="path4320"
         style="fill:#ffffff;fill-opacity:1;fill-rule:evenodd;stroke:none" />
      <path
         d="m -2363.7631,8771.5771 c 19.34,8.44 38.367,17.3 57.367,26.17 l 0.301,-1.25 c -18.778,-9.44 -37.617,-18.87 -56.828,-27.8 l -0.84,2.88"
         id="path4322"
         style="fill:#ffffff;fill-opacity:1;fill-rule:evenodd;stroke:none" />
      <path
         d="m -2240.5601,8880.0171 c 23.75,12.43 44.652,23.38 68.555,35.89 -22.184,-17.04 -43.84,-26.72 -68.555,-35.89"
         id="path4324"
         style="fill:#ffffff;fill-opacity:1;fill-rule:evenodd;stroke:none" />
      <path
         d="m -2060.5291,8920.5971 c 10.285,6.2 17.145,16.14 30.617,19.49 l 1.95,-1.71 c -4.692,-4.29 -10.055,-7.01 -15.133,-10.58 -5.051,-3.5 -10.367,-6.56 -15.692,-9.63 l -1.742,2.43"
         id="path4326"
         style="fill:#ffffff;fill-opacity:1;fill-rule:evenodd;stroke:none" />
      <path
         d="m -2335.6231,8790.5571 c -19.613,-9.98 -39.523,-19.5 -59.953,-28.26 l -0.625,2.02 c 20.449,8.5 40.461,17.71 60.219,27.33 l 0.359,-1.09"
         id="path4328"
         style="fill:#ffffff;fill-opacity:1;fill-rule:evenodd;stroke:none" />
      <path
         d="m -2113.8021,8897.4671 31.828,18.4 1.527,-1.74 -30.789,-19.27 -2.566,2.61"
         id="path4330"
         style="fill:#ffffff;fill-opacity:1;fill-rule:evenodd;stroke:none" />
      <path
         d="m -2259.6421,8838.3771 -38.488,-21.54 -1.282,1.75 39,21.81 0.77,-2.02"
         id="path4332"
         style="fill:#ffffff;fill-opacity:1;fill-rule:evenodd;stroke:none" />
      <path
         d="m -2120.4001,8903.4471 c -5.016,-3.92 -10.016,-8.29 -15.609,-12.43 -4.817,-4.96 -9.7,-10 -14.614,-15.07 l -14.785,-15.69 c -4.535,-5.35 -8.844,-10.75 -13.129,-16.08 l -25.632,-32.41 c -8.688,-10.75 -16.012,-22.17 -24.024,-33.26 l -23.453,-33.56 -21.172,-34.79 -21.062,-34.85 -20.293,-35.22 c -13.567,-23.45 -27.145,-46.92 -40.829,-70.57 -3.386,-5.8 -6.117,-12.28 -9.5,-18.14 -13.843,-23.9 -27.285,-47.8 -40.722,-71.87 -22.668,-41.59 -45.461,-83.15 -66.535,-125.34 -13.879,-27.32 -26.672,-55.2 -40.793,-82.05 -21.7,-41.08 -44.035,-81.47 -66.637,-121.58 -3.941,-7.02 -8.063,-15.79 -11.727,-20.91 -17.464,-24.86 -33.086,-49.84 -46.332,-75.56 -13.109,-25.73 -26.379,-50.31 -35.589,-76.45 -4.512,-11.24 -7.543,-21.19 -10.465,-31.71 -1.328,-5.27 -2.715,-10.79 -4.184,-16.62 -0.387,-1.46 -0.781,-2.94 -1.176,-4.44 -0.254,-0.72 -0.332,-1.56 -0.617,-2.27 0,-0.9 0.16,-1.92 0.227,-2.87 0.336,-3.9 0.554,-7.89 0.636,-12 0.559,4.09 1.106,8.1 1.645,12.04 1.195,3.5 3.504,6.21 5.144,9.24 3.582,5.88 6.977,11.5 10.348,16.67 6.649,10.41 12.703,19.32 17.199,26.77 9.387,7.22 16.528,12.09 24.938,18.17 -5.496,-9.64 -12.11,-21.38 -17.754,-32.53 -5.399,-10.26 -9.598,-20.04 -14.336,-30.06 6.527,8.58 13.27,16.41 19.859,25.78 13.219,19.59 26.188,40.15 42.582,65.4 -13.73,-35.58 -23.246,-62.27 -33.519,-85.81 -6.836,-16.34 0.609,-8.49 11.539,4.54 16.777,19.98 31.328,39.44 49.633,62.71 -7.77,-18.2 -13.114,-30.71 -20.93,-49 8.547,10.95 13.496,16.16 17.797,23 39.324,63.14 75.445,127.47 102.687,195.08 25.582,63.54 100.196,198.9 133.114,245.57 2.644,3.7 6.765,11.39 8.843,16.29 12.997,30.72 24.922,61.5 38.629,91.86 4.453,10.04 10.016,21.54 15.547,31.26 14.977,26.77 31.153,52.47 46.621,78.71 16.172,25.62 32.344,51.25 48.535,76.91 7.172,11.29 13.739,24.45 20.629,36.76 l -1.921,1.85 -48.348,-74.22 -1.961,1.3 c 9.117,16.04 17.816,32.82 27.601,47.84 l 23.958,37.3 c 7.984,12.42 16.871,24.01 25.246,36.07 8.566,11.8 16.714,24.4 25.847,35.12 l 13.352,16.74 c 4.387,5.65 7.898,12.12 11.902,18.22 5.016,8.38 12.074,16.2 17.821,25.45 4.722,10.42 11.757,19.41 13.351,35.22 -0.641,-2.83 -1.367,-5.68 -2.152,-8.49 -0.266,-1.53 -1.09,-2.52 -0.946,-4.46 -0.98,-0.83 -1.496,-2.11 -2.273,-3.12 -2.867,-4.29 -5.742,-8.35 -8.379,-11.8 -1.266,-1.79 -2.699,-3.2 -3.617,-4.83 -1.293,-1.09 -2.504,-2.12 -3.649,-3.08 -2.105,-1.7 -3.578,-2.58 -4.128,-2.31 -4.739,2.35 -4.907,10.94 -0.204,21.85 2.875,6.3 4.204,8.68 -0.609,5.63 -4.758,-3.2 -15.859,-11.24 -33.785,-30.79 0.527,1.8 3.594,6.75 7.805,11.77 4.378,4.86 9.109,10.11 13.011,14.45 3.758,3.98 6.469,6.23 4.793,5.92 -0.793,-0.2 -2.691,-1.02 -5.883,-2.81 -3.187,-2.29 -7.363,-5.29 -12.914,-9.28 -5.886,-1.16 -7.464,2.66 -14.652,-3.16 z m -18.937,-23.25 c -4.09,-6.33 -10.153,-14.53 -17.461,-23.77 -6.961,-9.33 -14.461,-19.92 -22.86,-30.58 -8.203,-10.75 -17.429,-21.41 -25.734,-31.81 -8.262,-10.43 -16.488,-20.11 -24.098,-28.12 6.91,9.65 13.821,19.3 20.742,28.97 6.813,9.73 14.684,18.92 22.02,28.45 7.465,9.45 14.969,18.95 22.527,28.52 7.684,9.54 16.539,18.83 24.864,28.34 z m -176.84,-263.74 -0.961,1.41 c 12.539,21.08 24.648,42.35 37.535,63.26 13.195,20.76 25.816,41.82 39.484,62.3 l 2.383,-3.02 c -13.734,-20.28 -26.703,-41 -40.117,-61.5 -13.09,-20.66 -25.512,-41.64 -38.324,-62.45 z m -145.496,-382.71 c 24.211,59.72 51.484,107.58 83.136,159.41 -28.8,-55.24 -54.152,-103.84 -83.136,-159.41 z m -201.942,-255.91 -4.125,-0.52 c 12.266,26.29 27.035,50.87 39.711,76.97 l 3.781,-0.82 c -12.179,-25.61 -19.289,-49.7 -39.367,-75.63 z m 474.11,821.55 1.687,-2 c -15.234,-20.64 -29.574,-41.85 -44.457,-62.78 l -41.242,-64.77 -0.981,1.08 c 13.614,21.75 26.938,43.65 40.782,65.26 14.777,21.07 28.984,42.45 44.211,63.21 z m -404.735,-705.39 -3.109,0.18 36.617,76.52 5.031,0.13 -38.539,-76.83 z m 273.473,481.43 2.637,-0.67 c -16.563,-30.49 -32.915,-61.09 -48.711,-91.96 l -1.993,1.86 c 15.579,30.46 31.719,60.66 48.067,90.77"
         id="path4334"
         style="fill:#231f20;fill-opacity:1;fill-rule:evenodd;stroke:none" />
      <path
         d="m -2229.4901,8765.9171 c 6.91,9.65 13.821,19.3 20.742,28.97 6.813,9.73 14.684,18.92 22.02,28.45 7.465,9.45 14.969,18.95 22.527,28.52 7.684,9.54 16.539,18.83 24.864,28.34 -4.09,-6.33 -10.153,-14.53 -17.461,-23.77 -6.961,-9.33 -14.461,-19.92 -22.86,-30.58 -8.203,-10.75 -17.429,-21.41 -25.734,-31.81 -8.262,-10.43 -16.488,-20.11 -24.098,-28.12"
         id="path4336"
         style="fill:#ffffff;fill-opacity:1;fill-rule:evenodd;stroke:none" />
      <path
         d="m -2237.7361,8740.4071 c -13.734,-20.28 -26.703,-41 -40.117,-61.5 -13.09,-20.66 -25.512,-41.64 -38.324,-62.45 l -0.961,1.41 c 12.539,21.08 24.648,42.35 37.535,63.26 13.195,20.76 25.816,41.82 39.484,62.3 l 2.383,-3.02"
         id="path4338"
         style="fill:#ffffff;fill-opacity:1;fill-rule:evenodd;stroke:none" />
      <path
         d="m -2378.5371,8393.1571 c -28.8,-55.24 -54.152,-103.84 -83.136,-159.41 24.211,59.72 51.484,107.58 83.136,159.41"
         id="path4340"
         style="fill:#ffffff;fill-opacity:1;fill-rule:evenodd;stroke:none" />
      <path
         d="m -2624.2481,8053.4671 c -12.179,-25.61 -19.289,-49.7 -39.367,-75.63 l -4.125,-0.52 c 12.266,26.29 27.035,50.87 39.711,76.97 l 3.781,-0.82"
         id="path4342"
         style="fill:#ffffff;fill-opacity:1;fill-rule:evenodd;stroke:none" />
      <path
         d="m -2274.4981,8670.9171 c 13.614,21.75 26.938,43.65 40.782,65.26 14.777,21.07 28.984,42.45 44.211,63.21 l 1.687,-2 c -15.234,-20.64 -29.574,-41.85 -44.457,-62.78 l -41.242,-64.77 -0.981,1.08"
         id="path4344"
         style="fill:#ffffff;fill-opacity:1;fill-rule:evenodd;stroke:none" />
      <path
         d="m -2555.7011,8170.8271 -38.539,-76.83 -3.109,0.18 36.617,76.52 5.031,0.13"
         id="path4346"
         style="fill:#ffffff;fill-opacity:1;fill-rule:evenodd;stroke:none" />
      <path
         d="m -2368.8341,8484.6571 c 15.579,30.46 31.719,60.66 48.067,90.77 l 2.637,-0.67 c -16.563,-30.49 -32.915,-61.09 -48.711,-91.96 l -1.993,1.86"
         id="path4348"
         style="fill:#ffffff;fill-opacity:1;fill-rule:evenodd;stroke:none" />
      <path
         d="m -1872.6871,10051.117 c -1.76,-1.64 -3.48,-3.42 -5.46,-5.1 -2.42,-1.39 -6.8,-1.52 -8.17,-3.74 -4.23,-3.76 -8.22,-7.3 -12.09,-10.74 -8.415,-6.84 -14.024,-15.56 -20.606,-23.59 -6.301,-8.1799 -12.649,-16.4099 -18.973,-24.6199 -12.398,-16.58 -23.516,-34.09 -36.312,-50.68 -1.555,-2.06 -2.719,-4.52 -4.274,-6.61 -6.363,-8.43 -12.808,-16.97 -19.156,-25.38 l -32.277,-44.28 c -6.985,-9.57 -13.067,-19.81 -19.891,-29.4 -10.516,-14.63 -21.481,-28.84 -32.254,-43.24 -1.883,-2.51 -3.777,-5.79 -5.602,-7.49 -17.546,-16.44 -28.757,-36.53 -37.367,-56.53 -1.91,-4.43 -2.968,-8.54 -3.886,-12.92 -0.704,-4.53 -2.344,-8.59 -1.825,-15.4 0.563,1.39 1.11,2.75 1.649,4.09 0.719,1.22 1.73,2.21 2.551,3.28 1.718,2.1 3.359,4.1 4.902,5.98 3.082,3.76 5.769,7.05 7.933,9.69 5.055,1.76 8.626,3.01 12.965,4.51 -2.336,-3.63 -5.363,-7.91 -7.718,-12.17 -2.2,-3.96 -3.68,-7.92 -5.469,-11.88 3.015,3 6.14,5.66 9.027,9.05 5.965,7.02 11.805,14.43 19.176,23.5 -4.988,-14.3 -8.883,-24.65 -11.871,-34.45 -2.051,-6.74 1.375,-4.14 6.043,0.46 7.164,7.06 14.316,13.4 22.711,21.22 -2.973,-7.05 -5.024,-11.91 -8.02,-19 3.973,3.65 6.356,5.25 8.239,7.68 17.375,22.47 34.328,45.11 46.621,70.63 5.714,12.01 17.863,29.79 30.293,46.73 12.332,17.01 25.304,32.94 33.605,40.62 1.32,1.22 3.316,3.97 4.238,5.84 5.668,11.57 11.567,23.62 17.211,35.14 1.949,3.85 4.434,8.18 6.992,11.72 6.969,9.62 14,19.33 21.02,29.02 7.235,9.51 12.995,20.03 19.425,30.14 2.76,4.54 5.07,9.98 7.61,14.98 l -1.12,0.98 -18.99,-29.33 -1.14,0.82 c 3.48,6.39 6.77,13.08 10.53,19.08 12.47,19.7 25.25,39.0199 30.77,63.4599 1.72,3.52 3.29,7.21 5.22,10.93 2.26,3.5 4.64,7.19 7.25,11.22 -4.79,-6 -10.27,-13.64 -10.67,-13.72 -1.35,0.16 -1.31,2.95 0.31,7.05 1.66,4.97 1.54,3.89 -10.96,-12.16 0.71,2.65 17.19,23.6 2.59,7.11 -1.89,-0.99 -2.26,-0.1 -4.78,-2.5 z m -8.38,-7.71 c -4.29,-3.76 -9.72,-11.67 -17.1,-19.09 -6.971,-7.69 -13.827,-16.3 -20.573,-21.71 5.703,7.04 11.113,14.28 17.113,21.22 3.3,3.28 6.61,6.57 9.94,9.89 l 5.03,5 2.53,2.52 1.27,1.25 c 0.22,0.21 0.41,0.43 0.56,0.68 0.8,-0.19 0.79,0.18 1.23,0.24 z m -74.489,-95.7199 -0.617,0.77 16.386,22.99 c 5.625,7.54 11.535,14.89 17.289,22.35 l 1.453,-1.58 -17.624,-22.01 -16.887,-22.52 z m -63.84,-146.76 c 11.223,22.43 24.375,39.23 39.883,57.1 -13.735,-19.84 -25.731,-37.36 -39.883,-57.1 z m -100.297,-82.57 -2.398,0.42 17.531,29.19 2.195,-0.97 c -5.59,-9.59 -7.215,-20.11 -17.328,-28.64 z m 218.716,295.3099 1.01,-1.01 -35.648,-47.1299 -0.617,0.62 35.255,47.5199 z m -186.782,-252.9999 -1.77,0.58 16.828,28.52 2.84,-0.8 -17.898,-28.3 z m 131.976,169.41 1.485,-0.7 -22.407,-33.41 -1.179,1.15 22.101,32.96"
         id="path4350"
         style="fill:#231f20;fill-opacity:1;fill-rule:evenodd;stroke:none" />
      <path
         d="m -1918.7401,10002.607 c 5.703,7.04 11.113,14.28 17.113,21.22 3.3,3.28 6.61,6.57 9.94,9.89 l 5.03,5 2.53,2.52 1.27,1.25 c 0.22,0.21 0.41,0.43 0.56,0.68 0.8,-0.19 0.79,0.18 1.23,0.24 -4.29,-3.76 -9.72,-11.67 -17.1,-19.09 -6.971,-7.69 -13.827,-16.3 -20.573,-21.71"
         id="path4352"
         style="fill:#ffffff;fill-opacity:1;fill-rule:evenodd;stroke:none" />
      <path
         d="m -1921.0451,9992.2171 -17.624,-22.01 -16.887,-22.52 -0.617,0.77 16.386,22.99 c 5.625,7.54 11.535,14.89 17.289,22.35 l 1.453,-1.58"
         id="path4354"
         style="fill:#ffffff;fill-opacity:1;fill-rule:evenodd;stroke:none" />
      <path
         d="m -1979.5131,9858.0271 c -13.735,-19.84 -25.731,-37.36 -39.883,-57.1 11.223,22.43 24.375,39.23 39.883,57.1"
         id="path4356"
         style="fill:#ffffff;fill-opacity:1;fill-rule:evenodd;stroke:none" />
      <path
         d="m -2102.3651,9746.9971 c -5.59,-9.59 -7.215,-20.11 -17.328,-28.64 l -2.398,0.42 17.531,29.19 2.195,-0.97"
         id="path4358"
         style="fill:#ffffff;fill-opacity:1;fill-rule:evenodd;stroke:none" />
      <path
         d="m -1936.2321,9966.1471 35.255,47.5199 1.01,-1.01 -35.648,-47.1299 -0.617,0.62"
         id="path4360"
         style="fill:#ffffff;fill-opacity:1;fill-rule:evenodd;stroke:none" />
      <path
         d="m -2069.8611,9788.9671 -17.898,-28.3 -1.77,0.58 16.828,28.52 2.84,-0.8"
         id="path4362"
         style="fill:#ffffff;fill-opacity:1;fill-rule:evenodd;stroke:none" />
      <path
         d="m -1977.8841,9897.1171 22.101,32.96 1.485,-0.7 -22.407,-33.41 -1.179,1.15"
         id="path4364"
         style="fill:#ffffff;fill-opacity:1;fill-rule:evenodd;stroke:none" />
      <path
         d="m -2091.9391,9691.9271 c 2.234,-0.15 4.52,-0.12 6.965,-0.43 2.429,0.25 4.758,0.5 7.019,0.75 4.754,0.51 9.602,1.11 14.243,1.8 9.253,1.5 18.558,3 27.968,4.52 9.172,2 18.196,4.52 27.289,6.78 18.172,4.63 36.375,9.26 54.989,13.03 2.293,0.48 4.558,1.42 6.847,1.95 9.321,2.18 18.774,4.39 28.047,6.57 16.065,4.05 32.085,8.1 48.125,12.15 10.38,2.7 20.62,6.08 30.99,8.54 15.89,3.77 31.85,6.97 47.78,10.41 2.78,0.59 6.02,1.7 8.29,1.79 10.98,0.14 21.07,3.08 30.8,6.41 4.8,1.93 9.72,3.16 14.06,6.27 4.4,2.85 8.91,5.07 12.42,10.6 0.81,1.11 1.55,2.33 2.33,3.27 0.78,0.63 1.61,1.3 2.49,2.01 1.43,1.21 3.02,2.54 4.74,3.98 3.14,2.74 6.52,5.1 10.55,8.67 -4.71,-2.89 -9.48,-4.2 -13.56,-5.95 -2.05,-0.79 -3.98,-1.53 -5.76,-2.21 -1.72,-0.91 -3.18,-2.12 -4.57,-2.86 -4.02,-0.09 -7.22,1.18 -10.96,2.2 3.72,1.21 8.23,2.71 12.15,5.09 3.69,1.97 7.14,3.45 10.71,5.09 -3.7,-0.8 -7.32,-1.18 -11.21,-2.17 -8.02,-2.13 -16.45,-3.62 -26.83,-5.65 11.85,6.9 20.71,11.4 29.24,13.78 5.72,2.2 1.88,2.24 -4.13,2.11 -5,1.35 -9.65,1.93 -14.3,1.92 -4.71,0.27 -9.59,0.55 -14.76,0.24 6.19,3.14 10.71,4.33 17.26,6.31 -5.04,0.4 -7.72,1.03 -10.57,0.91 -12.8,-1.86 -25.45,-4.25 -37.86,-7.33 -12.29,-3.49 -24.37,-7.63 -36.09,-12.9 -21.99,-9.88 -74.91,-21.87 -95.448,-22.49 -1.633,-0.04 -4.629,-0.72 -6.379,-1.45 -10.711,-4.52 -21.953,-9.26 -32.609,-13.76 -3.586,-1.59 -7.825,-3.19 -11.653,-4.19 -20.969,-5.51 -41.836,-10.89 -62.73,-16.76 -4.637,-1.26 -9.489,-3.42 -14.09,-5.69 l 0.203,-1.38 c 9.977,3.53 20.356,5.55 30.531,8.32 l 0.305,-1.21 c -6.215,-2.14 -12.473,-4.63 -18.648,-6.35 -10.18,-2.79 -20.04,-6.64 -30.04,-9.97 l -14.929,-5.26 c -4.996,-1.68 -9.965,-3.48 -14.672,-6.27 -3.141,-1.85 -6.496,-3.08 -9.684,-5.72 -2.343,-5.75 -6.711,-4.86 -10.734,-6.67 1.859,0.42 3.594,0.8 5.227,1.17 0.875,0.19 1.722,0.39 2.542,0.57 0.86,0.04 1.364,1.28 2.024,1.75 0.59,0.71 1.234,1.03 1.672,1.83 0.637,0.08 1.168,0.27 1.637,0.34 0.925,0.18 1.527,0.19 1.656,-0.02 1.074,-1.76 -0.254,-4.92 -3.633,-7.32 -2.059,-1.14 -2.926,-1.46 -0.914,-1.46 0.824,-0.07 1.504,-0.14 2.148,-0.19 0.469,-0.06 0.957,-0.01 1.559,-0.18 0.57,0.1 1.144,0.19 1.766,0.3 2.652,0.48 5.996,1.09 10.566,1.92 -0.945,-1.01 -7.344,-2.69 -11.055,-3.67 -1.902,-0.32 -3.312,0.19 -2.687,-0.25 0.293,-0.16 1.097,-0.55 2.492,-0.99 1.676,0.01 3.519,0.03 5.68,0.05 2.058,-1.08 1.957,-2.49 5.195,-2.65 z m 9.824,2.2 c 9.371,3.66 33.649,8.83 49.293,8.4 -16.203,-2.76 -32.402,-5.53 -49.293,-8.4 z m 106.797,25.21 -0.035,-0.88 -49.789,-11.76 -0.082,1.98 49.906,10.66 z m 130.371,63.31 c -20.89,-8.96 -39.88,-12.68 -61.086,-15.81 21.166,5.48 39.796,10.3 61.086,15.81 z m 116.47,2.48 c 0.34,-0.12 0.82,-0.71 1.16,-0.82 -8.5,-7.85 -18.41,-10.54 -28.02,-14.3 l -0.93,1.89 c 9.35,3.82 16.95,9.07 27.79,13.23 z m -323.196,-79.38 -0.122,1.31 c 17.551,3.39 34.797,7.91 52.204,11.86 l 0.054,-0.77 c -17.375,-4.16 -34.57,-8.96 -52.136,-12.4 z m 277.456,64.76 0.87,-1.43 c -9.42,-3.39 -18.94,-6.42 -28.4,-9.62 l -1.5,2.2 29.03,8.85 z m -190.558,-39.27 -0.621,1.35 35.09,9.87 0.144,-1.49 -34.613,-9.73"
         id="path4366"
         style="fill:#231f20;fill-opacity:1;fill-rule:evenodd;stroke:none" />
      <path
         d="m -2032.8221,9702.5271 c -16.203,-2.76 -32.402,-5.53 -49.293,-8.4 9.371,3.66 33.649,8.83 49.293,8.4"
         id="path4368"
         style="fill:#ffffff;fill-opacity:1;fill-rule:evenodd;stroke:none" />
      <path
         d="m -2025.2241,9708.6771 49.906,10.66 -0.035,-0.88 -49.789,-11.76 -0.082,1.98"
         id="path4370"
         style="fill:#ffffff;fill-opacity:1;fill-rule:evenodd;stroke:none" />
      <path
         d="m -1906.0331,9766.8371 c 21.166,5.48 39.796,10.3 61.086,15.81 -20.89,-8.96 -39.88,-12.68 -61.086,-15.81"
         id="path4372"
         style="fill:#ffffff;fill-opacity:1;fill-rule:evenodd;stroke:none" />
      <path
         d="m -1756.2671,9771.8971 c 9.35,3.82 16.95,9.07 27.79,13.23 0.34,-0.12 0.82,-0.71 1.16,-0.82 -8.5,-7.85 -18.41,-10.54 -28.02,-14.3 l -0.93,1.89"
         id="path4374"
         style="fill:#ffffff;fill-opacity:1;fill-rule:evenodd;stroke:none" />
      <path
         d="m -1999.5371,9718.1471 c -17.375,-4.16 -34.57,-8.96 -52.136,-12.4 l -0.122,1.31 c 17.551,3.39 34.797,7.91 52.204,11.86 l 0.054,-0.77"
         id="path4376"
         style="fill:#ffffff;fill-opacity:1;fill-rule:evenodd;stroke:none" />
      <path
         d="m -1803.2471,9761.6571 29.03,8.85 0.87,-1.43 c -9.42,-3.39 -18.94,-6.42 -28.4,-9.62 l -1.5,2.2"
         id="path4378"
         style="fill:#ffffff;fill-opacity:1;fill-rule:evenodd;stroke:none" />
      <path
         d="m -1745.8271,9773.3371 c -12.32,-14.1 -27.68,-30.22 -40.06,-46.52 -24.33,-33.31 -49.37,-65.86 -70.43,-101.05 -21.95,-34.62 -44.03,-69.25 -67.27,-103.57 -2.868,-4.24 -5.321,-8.99 -8.184,-13.25 -11.766,-17.39 -23.543,-34.79 -35.289,-52.15 l -59.266,-90.9 c -12.707,-19.72 -24.754,-39.97 -37.625,-59.39 -19.722,-29.76 -39.906,-58.99 -59.906,-88.44 -3.496,-5.14 -7.281,-11.6 -10.402,-15.33 -30.043,-35.98 -52.735,-75.34 -71.746,-113.44 -8.2,-17.05 -13.059,-29.17 -15.227,-52.87 0.855,2.9 1.699,5.75 2.531,8.54 1.114,2.6 2.703,4.84 3.992,7.19 2.79,4.57 5.082,9.16 8.059,12.96 5.59,7.82 10.469,14.65 14.391,20.13 7.586,5.27 12.953,8.99 19.464,13.51 -4.5,-7.28 -10.191,-15.95 -14.957,-24.33 -4.39,-7.79 -7.937,-15.16 -11.664,-22.84 5.079,6.56 10.43,12.45 15.582,19.59 10.672,15.01 21.36,30.04 34.715,48.83 -11.929,-26.74 -20.945,-46.25 -28.508,-64.4 -5.203,-12.49 0.446,-6.51 8.485,3.47 12.347,15.32 24.426,29.4 38.707,46.58 -6.57,-13.44 -11.094,-22.7 -17.699,-36.22 6.73,8.05 10.566,11.86 14.011,16.89 31.77,46.35 62.969,92.85 88.871,142.15 24.333,46.24 90.946,144.36 119.762,177.79 2.281,2.66 6.11,8.19 8.028,11.84 l 36.155,67.93 c 4.05,7.47 9.01,16 13.8,23.21 l 78.64,118.24 c 5.34,9.06 10.08,19.64 15.15,29.48 l -1.34,1.28 c -5.92,-9.9 -11.69,-19.9 -17.84,-29.67 l -19.34,-28.7 -1.36,0.95 c 7.34,12.32 14.83,24.91 22.01,36.96 l 35.11,59.58 8.72,14.9 7.93,15.43 15.67,31 c 3.56,6.85 4.83,15.28 8.03,23.02 3.92,7.28 8.07,14.96 12.6,23.36 -4.39,-7.06 -8.45,-13.6 -11.96,-19.24 -3.81,-5.43 -5.38,-10.12 -6.1,-10.01 -2.32,0 -2.36,5.51 1.18,13.34 3.72,9.48 3.6,7.3 -20.96,-24.74 0.4,1.27 2.3,5.11 5.15,9.2 2.91,4.07 6.42,8.59 9.04,11.91 2.48,3.4 3.67,5.83 2.92,5.05 -0.42,-0.37 -1.32,-1.54 -3.07,-3.62 -2.3,-2.2 -5.18,-4.97 -8.92,-8.55 -1.92,-0.99 -3.09,-1.05 -4.41,-1.44 -0.73,-0.17 -1.25,-0.57 -2.41,-0.9 -0.67,-0.66 -1.65,-1.45 -2.76,-2.74 z m -12.45,-18.14 c -12.41,-18.02 -42.27,-63.25 -65.3,-87.41 10.52,14.5 21.05,29 31.68,43.66 5.37,7.29 10.55,14.76 16.16,22.04 5.77,7.17 11.59,14.41 17.46,21.71 z m -134.05,-198.93 -0.61,1.07 61.26,93.55 1.69,-2.23 -62.34,-92.39 z m -139.546,-280.44 c 23.332,43.51 47.571,78.1 75.454,115.51 -26.145,-40.02 -49.149,-75.24 -75.454,-115.51 z m -167.132,-186.47 -3.161,-0.34 34.602,57.81 2.676,-0.68 c -11.137,-18.91 -17.133,-37.68 -34.117,-56.79 z m 404.938,604.58 1.16,-1.35 c -11.03,-16.07 -22.35,-31.98 -33.22,-48.16 l -32.28,-48.77 -0.66,0.81 31.92,49.1 c 10.79,16.28 22.07,32.24 33.08,48.37 z m -345.825,-517.87 -2.223,0.21 33.395,56.34 3.605,-0.08 -34.777,-56.47 z m 241.345,349.68 1.84,-0.56 -42.638,-67.33 -1.262,1.45 42.06,66.44"
         id="path4382"
         style="fill:#231f20;fill-opacity:1;fill-rule:evenodd;stroke:none" />
      <path
         d="m -1823.5771,9667.7871 c 10.52,14.5 21.05,29 31.68,43.66 5.37,7.29 10.55,14.76 16.16,22.04 5.77,7.17 11.59,14.41 17.46,21.71 -12.41,-18.02 -42.27,-63.25 -65.3,-87.41"
         id="path4384"
         style="fill:#ffffff;fill-opacity:1;fill-rule:evenodd;stroke:none" />
      <path
         d="m -1829.9871,9648.6571 -62.34,-92.39 -0.61,1.07 61.26,93.55 1.69,-2.23"
         id="path4386"
         style="fill:#ffffff;fill-opacity:1;fill-rule:evenodd;stroke:none" />
      <path
         d="m -1956.4191,9391.3371 c -26.145,-40.02 -49.149,-75.24 -75.454,-115.51 23.332,43.51 47.571,78.1 75.454,115.51"
         id="path4388"
         style="fill:#ffffff;fill-opacity:1;fill-rule:evenodd;stroke:none" />
      <path
         d="m -2164.8881,9146.1471 c -11.137,-18.91 -17.133,-37.68 -34.117,-56.79 l -3.161,-0.34 34.602,57.81 2.676,-0.68"
         id="path4390"
         style="fill:#ffffff;fill-opacity:1;fill-rule:evenodd;stroke:none" />
      <path
         d="m -1859.0671,9596.4671 31.92,49.1 c 10.79,16.28 22.07,32.24 33.08,48.37 l 1.16,-1.35 c -11.03,-16.07 -22.35,-31.98 -33.22,-48.16 l -32.28,-48.77 -0.66,0.81"
         id="path4392"
         style="fill:#ffffff;fill-opacity:1;fill-rule:evenodd;stroke:none" />
      <path
         d="m -2105.1151,9232.5371 -34.777,-56.47 -2.223,0.21 33.395,56.34 3.605,-0.08"
         id="path4394"
         style="fill:#ffffff;fill-opacity:1;fill-rule:evenodd;stroke:none" />
      <path
         d="m -1940.6071,9459.3071 42.06,66.44 1.84,-0.56 -42.638,-67.33 -1.262,1.45"
         id="path4396"
         style="fill:#ffffff;fill-opacity:1;fill-rule:evenodd;stroke:none" />
      <path
         d="m -2183.9351,9040.2171 c 10.465,0.44 22.801,1.01 34.223,1.94 11.82,-0.31 22.851,2.54 34.039,4.67 11.117,2.26 22.304,4.55 33.453,6.82 22.297,4.58 44.621,9.21 67.383,12.94 2.804,0.45 5.601,1.46 8.421,1.93 11.532,1.88 23.071,3.62 34.442,6.16 l 58.898,12.67 c 12.709,2.82 25.289,6.41 37.969,8.97 19.44,3.9 38.92,7.16 58.39,10.66 3.4,0.61 7.38,1.8 10.13,1.83 26.44,0.43 50.21,9.31 71.96,19.38 4.72,2.69 8.54,5.54 12.48,8.61 4.06,2.56 7.74,7.39 11.89,15.22 -1.29,-1.5 -2.56,-2.98 -3.81,-4.43 -1.32,-1.17 -2.73,-1.82 -4.04,-2.7 -2.74,-1.31 -5.61,-1.49 -8.18,-2.23 -5.2,-1.16 -9.74,-2.16 -13.39,-2.98 -5.35,2.02 -9.13,3.45 -13.73,5.18 4.58,1.29 10.22,2.46 15.26,4.33 4.68,1.71 8.81,3.83 13.2,5.72 -4.62,-0.43 -9.08,-0.48 -13.93,-1.21 -10.37,-1.66 -20.27,-3.23 -32.89,-5.25 14.6,7.53 24.61,12.7 35.35,18.23 6.77,3.46 2.08,3.81 -5.19,3.77 -10.33,-0.15 -21.48,-0.32 -34.18,-0.51 7.68,3.34 12.97,5.65 20.7,9.01 -5.93,-0.07 -9.04,0.35 -12.39,-0.21 -15.4,-2.62 -30.81,-5.11 -45.89,-8.73 -15.02,-3.89 -29.81,-8.54 -44.22,-14.47 -27.05,-11.11 -91.555,-24.25 -116.321,-24.98 -1.972,-0.05 -5.621,-0.81 -7.773,-1.61 -13.5,-4.88 -26.535,-10.58 -39.922,-16.07 -4.406,-1.77 -9.606,-3.58 -14.262,-4.75 -25.527,-6.38 -50.898,-12.71 -76.328,-19.62 -5.629,-1.53 -11.594,-3.95 -17.406,-5.94 l 0.121,-1.35 37.262,9.31 0.257,-1.22 c -7.605,-2.41 -15.293,-5.15 -22.824,-7.14 -24.992,-5.64 -48.894,-15.19 -73.078,-24.12 -4.012,-1.56 -8.101,-3.03 -12.355,-4.92 -4.161,-2.26 -8.559,-4.66 -13.36,-7.27 7.739,3.82 17.551,7.23 18.125,6.21 1.086,-1.53 -0.898,-4.23 -5.156,-6.73 -2.508,-1.43 -3.543,-1.91 -1.141,-1.8 2.422,0.02 8.203,0.98 19.161,3.16 -1.247,-0.92 -9.04,-2.84 -13.555,-4.01 -4.61,-0.76 -5.723,-1.71 6.367,-0.62 2.316,-0.77 2.031,-2.02 5.84,-1.85 z m 11.953,2.45 c 11.746,3.07 41.715,7.08 60.164,8.15 -9.805,-1.69 -19.453,-4.02 -29.48,-5.22 -10.243,-0.32 -20.27,-1.97 -30.684,-2.93 z m 130.844,25.15 -0.11,-0.93 -60.945,-11.94 0.078,1.95 60.977,10.92 z m 161.291,68.54 c -25.709,-9.96 -48.838,-13.93 -74.596,-17.31 25.844,6 48.59,11.27 74.596,17.31 z m 141.95,-3.65 1.58,-1.88 -35.72,-11.29 -1.04,2.26 c 11.6,3.82 20.75,10.97 35.18,10.91 z m -396.144,-79.55 -0.027,1.32 63.66,12.89 0.01,-0.78 -63.641,-13.43 z m 339.094,67.77 0.99,-1.69 -34.88,-10.3 -1.7,2.57 35.59,9.42 z m -232.59,-40.68 -0.64,1.43 42.992,10.4 0.082,-1.65 -42.434,-10.18"
         id="path4398"
         style="fill:#231f20;fill-opacity:1;fill-rule:evenodd;stroke:none" />
      <path
         d="m -2111.8181,9050.8171 c -9.805,-1.69 -19.453,-4.02 -29.48,-5.22 -10.243,-0.32 -20.27,-1.97 -30.684,-2.93 11.746,3.07 41.715,7.08 60.164,8.15"
         id="path4400"
         style="fill:#ffffff;fill-opacity:1;fill-rule:evenodd;stroke:none" />
      <path
         d="m -2102.1151,9056.8971 60.977,10.92 -0.11,-0.93 -60.945,-11.94 0.078,1.95"
         id="path4402"
         style="fill:#ffffff;fill-opacity:1;fill-rule:evenodd;stroke:none" />
      <path
         d="m -1954.4431,9119.0471 c 25.844,6 48.59,11.27 74.596,17.31 -25.709,-9.96 -48.838,-13.93 -74.596,-17.31"
         id="path4404"
         style="fill:#ffffff;fill-opacity:1;fill-rule:evenodd;stroke:none" />
      <path
         d="m -1773.0771,9121.7971 c 11.6,3.82 20.75,10.97 35.18,10.91 l 1.58,-1.88 -35.72,-11.29 -1.04,2.26"
         id="path4406"
         style="fill:#ffffff;fill-opacity:1;fill-rule:evenodd;stroke:none" />
      <path
         d="m -2070.4001,9066.5871 -63.641,-13.43 -0.027,1.32 63.66,12.89 0.01,-0.78"
         id="path4408"
         style="fill:#ffffff;fill-opacity:1;fill-rule:evenodd;stroke:none" />
      <path
         d="m -1830.5371,9111.5071 35.59,9.42 0.99,-1.69 -34.88,-10.3 -1.7,2.57"
         id="path4410"
         style="fill:#ffffff;fill-opacity:1;fill-rule:evenodd;stroke:none" />
      <path
         d="m -1985.1031,9090.4271 -42.434,-10.18 -0.64,1.43 42.992,10.4 0.082,-1.65"
         id="path4412"
         style="fill:#ffffff;fill-opacity:1;fill-rule:evenodd;stroke:none" />
      <path
         d="m -1775.1771,9143.9371 c -10.43,-10.57 -22.41,-21.61 -33.16,-34.08 -10.73,-12.47 -21.51,-25.37 -31.71,-37.99 -20.89,-25.23 -40.04,-51.67 -59.66,-77.7 l -58.369,-78.42 c -38.918,-52.29 -78.062,-104.55 -118.801,-156.35 -5.023,-6.39 -9.57,-13.57 -14.601,-20.01 l -61.801,-78.73 -104.871,-137 c -22.562,-29.7 -44.352,-60.18 -67.066,-89.45 -34.793,-44.83 -70.09,-88.91 -105.161,-133.32 -6.132,-7.76 -13.007,-17.47 -18.246,-23.13 -50.441,-54.52 -91.754,-113.77 -127.957,-170.83 -4.011,-6.32 -7.527,-12.28 -10.793,-18.14 -3.339,-5.8 -5.605,-12.11 -8.382,-18.18 -7.317,-10.81 -5.969,-28.81 -9.438,-47.29 2.356,9.81 4.871,19.09 7.613,27.72 0.461,2.32 1.625,4.08 2.95,5.68 1.23,1.68 2.441,3.33 3.644,4.96 2.399,3.26 4.731,6.43 6.996,9.5 9.043,12.3 17.988,22.24 24.649,30.63 11.664,8.15 19.918,13.91 29.929,20.91 -8.109,-10.92 -18.207,-23.97 -26.98,-36.52 -8.223,-11.58 -14.832,-22.79 -22,-34.27 8.597,9.98 17.289,19.04 26.305,29.73 18.46,22.41 37.222,45.2 60.535,73.51 -23.629,-39.87 -41.328,-68.95 -56.715,-95.94 -11.028,-18.23 -1.207,-9.56 12.375,5.57 20.988,23.11 41.273,44.36 65.457,70.25 -12.727,-20.03 -21.477,-33.8 -34.27,-53.94 11.391,12.13 17.653,17.9 23.75,25.44 56.16,69.49 111.719,139.07 160.711,212.65 45.973,69.06 164.008,216.1 213.008,266.11 3.891,3.97 10.613,12.26 14.301,17.67 22.805,33.9 45.383,67.45 68.203,101.37 7.574,11.17 16.711,23.92 25.305,34.68 47.058,58.83 93.965,117.47 141.05,176.33 10.4,13.1 20.48,28.32 30.72,42.56 l -1.88,2.15 -69.18,-85.62 -1.81,1.5 c 13.5,18.4 26.77,37.51 40.54,55.05 22.53,28.97 45.67,57.35 67.8,86.48 21.93,29.29 44.72,57.91 64.37,89.05 3.36,5.14 6.73,10.29 10.16,15.54 3.24,5.41 5.62,11.61 8.56,17.61 5.4,12.36 12.56,24.31 16.08,40.67 -1.14,-3.03 -2.28,-6.04 -3.4,-9.02 -0.49,-1.59 -1.44,-2.84 -1.58,-4.69 -1.09,-1.14 -1.72,-2.61 -2.6,-3.88 -3.3,-5.27 -6.58,-10.3 -9.58,-14.63 -6,-8.68 -10.88,-14.55 -12.28,-14.06 -6.03,2.09 -7.67,12.58 -3.39,26.32 2.51,8.07 3.56,11.31 -1.65,6.78 -5.05,-4.66 -17.1,-16.53 -36.65,-41.84 0.43,2.24 3.92,8.1 8.22,14.79 2.19,3.36 4.5,6.9 6.74,10.34 2.69,3.11 4.97,6.32 7.05,8.94 8.22,10.53 9.8,14.03 -16.33,-9.32 -6.82,-2.27 -9,1.46 -16.71,-6.14 z m -20.21,-28.55 c -9.09,-14.94 -26.49,-39.69 -46.72,-65.01 -20.05,-25.47 -41.99,-52.21 -60.49,-70.86 17.36,22.52 34.72,45.05 52.26,67.82 18.09,22.36 36.05,45.18 54.95,68.05 z m -229.267,-304.72 -0.641,1.64 108.278,141 2.058,-3.48 -109.695,-139.16 z m -264.453,-421.06 c 43.711,65.1 86.234,117.05 134.703,173.16 -46.672,-59.99 -87.738,-112.79 -134.703,-173.16 z m -278.09,-282.17 -4.316,-0.68 62.601,86.91 3.422,-0.86 c -20.234,-28.43 -33.558,-56.33 -61.707,-85.37 z m 712.48,911.43 1.75,-2.35 -114.249,-146.74 -0.793,1.26 113.292,147.83 z m -608.792,-780.73 -2.946,0.2 60.563,84.7 4.89,0.02 -62.507,-84.92 z m 423.218,526.34 2.524,-0.87 -76.262,-101.22 -1.43,2.19 75.168,99.9"
         id="path4414"
         style="fill:#231f20;fill-opacity:1;fill-rule:evenodd;stroke:none" />
      <path
         d="m -1902.5971,8979.5171 c 17.36,22.52 34.72,45.05 52.26,67.82 18.09,22.36 36.05,45.18 54.95,68.05 -9.09,-14.94 -26.49,-39.69 -46.72,-65.01 -20.05,-25.47 -41.99,-52.21 -60.49,-70.86"
         id="path4416"
         style="fill:#ffffff;fill-opacity:1;fill-rule:evenodd;stroke:none" />
      <path
         d="m -1914.9591,8949.8271 -109.695,-139.16 -0.641,1.64 108.278,141 2.058,-3.48"
         id="path4418"
         style="fill:#ffffff;fill-opacity:1;fill-rule:evenodd;stroke:none" />
      <path
         d="m -2154.4041,8562.7671 c -46.672,-59.99 -87.738,-112.79 -134.703,-173.16 43.711,65.1 86.234,117.05 134.703,173.16"
         id="path4420"
         style="fill:#ffffff;fill-opacity:1;fill-rule:evenodd;stroke:none" />
      <path
         d="m -2505.4901,8192.8071 c -20.234,-28.43 -33.558,-56.33 -61.707,-85.37 l -4.316,-0.68 62.601,86.91 3.422,-0.86"
         id="path4422"
         style="fill:#ffffff;fill-opacity:1;fill-rule:evenodd;stroke:none" />
      <path
         d="m -1968.0091,8871.0371 113.292,147.83 1.75,-2.35 -114.249,-146.74 -0.793,1.26"
         id="path4424"
         style="fill:#ffffff;fill-opacity:1;fill-rule:evenodd;stroke:none" />
      <path
         d="m -2401.0021,8323.0571 -62.507,-84.92 -2.946,0.2 60.563,84.7 4.89,0.02"
         id="path4426"
         style="fill:#ffffff;fill-opacity:1;fill-rule:evenodd;stroke:none" />
      <path
         d="m -2115.4591,8664.5771 75.168,99.9 2.524,-0.87 -76.262,-101.22 -1.43,2.19"
         id="path4428"
         style="fill:#ffffff;fill-opacity:1;fill-rule:evenodd;stroke:none" />
    </g>
  </g>
</svg>
