<?xml version="1.0" encoding="UTF-8" standalone="no"?>
<!-- Created with Inkscape (http://www.inkscape.org/) -->

<svg
   xmlns:dc="http://purl.org/dc/elements/1.1/"
   xmlns:cc="http://creativecommons.org/ns#"
   xmlns:rdf="http://www.w3.org/1999/02/22-rdf-syntax-ns#"
   xmlns:svg="http://www.w3.org/2000/svg"
   xmlns="http://www.w3.org/2000/svg"
   xmlns:sodipodi="http://sodipodi.sourceforge.net/DTD/sodipodi-0.dtd"
   xmlns:inkscape="http://www.inkscape.org/namespaces/inkscape"
   width="275.58618"
   height="216.43469"
   id="svg3462"
   version="1.1"
   inkscape:version="0.48.3.1 r9886"
   sodipodi:docname="New document 22">
  <defs
     id="defs3464" />
  <sodipodi:namedview
     id="base"
     pagecolor="#ffffff"
     bordercolor="#666666"
     borderopacity="1.0"
     inkscape:pageopacity="0.0"
     inkscape:pageshadow="2"
     inkscape:zoom="0.35"
     inkscape:cx="89.935952"
     inkscape:cy="-220.35408"
     inkscape:document-units="px"
     inkscape:current-layer="layer1"
     showgrid="false"
     fit-margin-top="0"
     fit-margin-left="0"
     fit-margin-right="0"
     fit-margin-bottom="0"
     inkscape:window-width="792"
     inkscape:window-height="658"
     inkscape:window-x="263"
     inkscape:window-y="183"
     inkscape:window-maximized="0" />
  <metadata
     id="metadata3467">
    <rdf:RDF>
      <cc:Work
         rdf:about="">
        <dc:format>image/svg+xml</dc:format>
        <dc:type
           rdf:resource="http://purl.org/dc/dcmitype/StillImage" />
        <dc:title></dc:title>
      </cc:Work>
    </rdf:RDF>
  </metadata>
  <g
     inkscape:label="Layer 1"
     inkscape:groupmode="layer"
     id="layer1"
     transform="translate(-285.06405,-95.573413)">
    <path
       inkscape:connector-curvature="0"
       id="path3022"
       style="fill:#182442;fill-opacity:1;fill-rule:evenodd;stroke:none"
       d="m 482.89322,116.55465 c 3.28125,-2.18875 7.84,-5.46875 12.3975,-6.7475 6.74375,-2.005 16.405,-1.4575 23.87875,-1.0925 10.39375,0.365 17.32,6.01625 25.52375,10.20875 0.72875,3.1 3.6475,4.74125 6.015,6.92875 2.735,2.55125 4.1925,6.5625 6.01625,10.57375 0.5475,1.275 1.64125,2.1875 2.00625,3.4625 0.5475,1.09375 0.5475,2.73375 0.91125,4.19375 0.545,2.36875 1.275,4.375 0.91,8.02 -0.18,3.1 -0.18,7.11 -0.7275,9.2975 0,0.365 -1.2775,2.18625 -1.6425,3.1 -0.91,2.73375 -1.82125,4.555 -3.28125,6.92625 -0.54625,0.91125 0,1.82375 -0.54625,2.55375 -1.46,2.185 -3.465,3.8275 -5.65125,5.65125 0.5475,0.7275 2.37,1.82125 2.735,2.915 0.91375,2.005 0.91375,4.01 1.64125,6.19875 0.18125,0.5475 0.91125,0.91125 1.0925,1.64125 0.365,1.27625 0,2.9175 0.1825,4.375 1.27625,6.92625 4.74,14.585 2.9175,23.88125 -1.09375,5.28625 -4.55625,11.11875 -8.38625,15.13 -0.545,0.54625 -1.82375,0.9125 -2.55125,1.46 -0.54875,0.73 -0.73125,2.005 -1.45875,2.55125 -1.2775,1.27625 -3.465,2.37 -5.28625,3.6475 -3.64625,3.0975 -7.84,4.3725 -12.58125,6.5625 -3.09625,7.4725 -7.4725,13.67125 -14.765,16.9525 -13.67125,14.5825 -39.01125,17.50125 -55.05625,5.83375 -2.185,4.7375 -3.825,4.7375 -6.19625,9.29625 -3.465,8.0225 -12.39625,15.13375 -20.23625,17.8675 -2.37,0.91125 -6.74125,2.00625 -10.025,3.4625 -7.47625,3.4625 -16.4075,6.56375 -25.52125,8.56875 -3.09875,0.54625 -7.11,0.73 -10.57499,1.0925 -1.45625,0.36375 -7.10875,1.09375 -9.84375,0.9125 -5.28875,-0.18375 -8.57,-2.005 -13.85625,-2.37 -1.82375,-0.18375 -6.74375,1.64125 -8.74875,1.82125 -4.1925,0.54875 -5.83375,-4.55625 -2.00625,-5.1025 3.46375,-0.365 10.02875,-2.1875 12.3975,-2.73375 11.3,-4.01125 21.51125,-8.75125 28.80124,-16.59125 3.46625,-5.285 9.845,-12.03 7.2925,-14.58375 -2.37,-2.55125 -6.19625,0.1825 -9.84375,-0.54625 -6.56374,-0.1825 -10.57249,-1.64125 -15.85874,-3.82875 -4.92375,-1.63875 -6.92875,-4.00875 -10.20875,-7.29125 -2.9175,-3.1 -5.65375,-5.10375 -7.47375,-9.29625 -0.9125,-4.01125 -1.6425,-7.11125 -1.095,-12.0325 -8.75,1.4575 -16.7725,2.3675 -25.1575,0.54875 -7.475,-1.64375 -13.6725,-4.56 -20.0525,-6.7475 -9.11875,-7.11 -20.05375,-24.97375 -20.78375,-28.255 -1.45625,-7.47625 -4.3725,-14.40375 -2.55125,-22.97125 0.54625,-2.55375 1.82375,-4.92375 2.7325,-7.2925 1.825,-5.8325 4.56,-8.0225 8.57125,-12.2125 5.65,-5.47 12.03125,-10.21 19.87125,-12.0325 -0.73,-2.55375 -1.09375,-5.46875 -1.09375,-7.2925 0.18,-4.73875 0.91,-8.38625 2.185,-12.94375 0.365,-2.00375 3.10125,-6.9275 4.73875,-8.56625 3.64875,-3.46625 12.58,-10.7575 14.58625,-10.57375 2.37125,0.36375 4.7375,-1.45875 7.2925,-2.73625 4.37625,-1.82125 9.295,-3.4625 13.855,-3.8275 5.105,-0.36375 10.025,0.1825 15.12875,0.54625 2.91625,0.18375 5.835,1.27625 8.38625,2.00625 1.27875,0.36375 4.55749,1.45875 5.65124,1.275 2.55375,0 4.92375,-2.73375 6.74625,-3.8275 4.55625,-2.91625 10.57375,-5.286246 15.85875,-6.563746 3.64625,-0.72875 8.2025,-1.27625 12.3975,-1.8225 12.57625,-1.64 25.33625,0.54625 37.73375,3.46375 4.195,0.912496 6.56375,5.287496 10.94,6.563746 1.8225,0.54625 1.09375,3.1 2.5525,3.8275 3.64375,2.00375 6.0175,4.5575 9.115,6.56375 l 0,0 z m -6.0175,0.91125 c -7.475,-10.57375 -22.42125,-16.40875 -38.46375,-18.047496 -10.94,-0.9125 -22.97125,0.365 -31.1725,4.376246 -5.4675,2.55 -6.56375,5.46875 -10.20875,10.02375 -1.8225,2.55375 -3.28375,7.65875 -6.74625,5.2875 -1.27625,-0.9125 -0.54625,-3.8275 -1.45875,-4.1925 -2.5525,-1.275 -5.10249,-2.91875 -6.37999,-3.46375 -7.47375,-3.82875 -20.41875,-4.5575 -28.80375,-0.5475 -1.27625,0.5475 -2.9175,0 -4.19375,0.5475 -10.39,3.82875 -16.22375,11.3025 -22.24125,20.0525 -2.915,4.01125 -7.10625,12.94375 -3.645,18.59625 -1.4575,2.00375 -0.9125,4.73875 1.46,5.65125 -1.095,2.36875 -5.105,2.55125 -6.92875,1.0925 -16.5875,3.82875 -25.15625,16.95375 -24.61,35.00125 0,1.27625 0.73,2.735 0.91125,4.1925 0.54875,2.37 3.1,4.5575 3.83,7.83875 0.545,2.9175 3.64375,7.84125 7.47375,9.6625 2.73375,3.10125 7.83875,5.46875 10.39125,7.6575 10.02625,7.83875 25.88375,14.40125 44.84375,13.49 2.1875,-0.36625 4.74125,3.4625 2.37375,3.645 -1.28,0.36375 -3.83,0.91375 -4.7425,0.91375 1.27625,6.74375 6.0175,11.30125 9.2975,15.8575 2.91875,1.095 3.465,4.19375 6.38,5.83625 2.18625,1.82125 6.745,3.64375 9.1125,4.73875 6.01999,2.36875 9.48249,2.91625 16.22874,1.0925 2.0025,-0.545 7.83625,-2.55125 8.02,0.5475 0,4.375 -0.5475,7.11 -2.00625,11.3025 -2.7325,9.48 -10.93875,12.58 -16.955,18.95875 8.20625,-1.27625 18.0475,-0.72875 24.42875,-4.01 2.005,-0.91125 4.55875,-0.5475 6.565,-1.2775 8.9325,-3.64375 16.7725,-5.4675 22.605,-12.21375 3.82875,-5.285 8.93125,-8.75 10.20875,-14.21875 0.36375,-1.64 -4.37375,-5.10375 -3.2825,-7.1075 2.5525,-1.6425 3.82625,-0.365 8.56875,2.1875 4.37375,2.36875 11.48375,4.37375 16.9525,4.55625 4.01125,0 8.935,1.09375 12.58,0.1825 2.36875,-0.5475 6.0175,-0.1825 8.5675,-0.73 9.29875,-1.8225 15.49625,-7.10875 19.69125,-12.9425 -1.09625,0.18125 -4.195,0.72875 -4.56125,-0.365 -0.545,-1.27625 3.465,-0.7275 5.105,-3.465 0.73,-1.09375 -1.09375,-0.36375 -2.5525,0 -3.8275,0.91125 -7.83875,0.91125 -11.85,1.2775 -2.54875,0.1825 -2.54875,-2.005 -0.3625,-2.55125 7.6575,-1.6425 15.13,-0.18375 18.9575,-5.1075 8.3875,-2.915 18.96,-9.48 21.1475,-12.75875 4.01125,-5.8325 9.11625,-13.1275 9.6625,-22.42375 0,-2.18625 -0.365,-4.37375 -0.365,-6.74375 0.18125,-4.74125 -0.72875,-4.74125 -2.9175,-8.0225 -0.36375,-0.73 -0.36375,-1.82375 -0.91,-2.55125 -2.735,-3.82875 -7.83875,-7.475 -12.75875,-7.84 -2.19,-0.1825 -2.3725,-2.1875 0.7275,-2.37 6.92875,-1.275 8.74875,-7.8375 12.94125,-11.84875 2.555,-5.83375 4.74125,-12.94375 4.56125,-20.235 -0.185,-8.02125 -3.83125,-17.50125 -9.4825,-23.1525 -1.275,-1.45875 -4.00875,-3.82875 -5.8325,-4.74 -0.73,-0.36375 -1.825,-0.1825 -2.37,-0.54625 -0.73,-0.36625 -1.095,-1.46 -1.8225,-1.82375 -3.1,-1.64125 -8.02125,-2.735 -11.30375,-3.0975 -7.2925,-0.91375 -14.21875,0.3625 -19.32375,2.3675 -7.475,2.9175 -16.7725,5.47125 -20.05375,11.6675 -0.9125,1.46 -2.18875,1.2775 -2.73625,0.18375 -0.545,-1.4575 -2.73125,-1.4575 -2.1875,-3.2825 0.73,-2.915 1.2775,-4.74 -0.36375,-7.10875 l 0,0 z m -83.855,-7.2925 c 1.09375,0.18125 2.00375,-1.09375 1.8225,-1.64 -0.72875,-0.18375 -1.8225,0.73 -1.8225,1.64 l 0,0 z m 94.795,7.11125 -2.37125,1.82125 c 1.4575,1.09375 4.01125,-1.095 6.01625,-2.00625 2.005,-0.91 2.73375,-2.005 4.55875,-2.915 1.0925,-0.54625 6.37875,-1.46 3.1,-1.46 -5.65375,0 -8.38625,1.82375 -11.30375,4.56 l 0,0 z m -160.42374,6.74375 c -0.73125,0.91125 -1.82125,3.4625 -2.37,4.73875 3.46375,-4.01 8.75,-9.47875 11.48625,-13.125 -4.74125,2.9175 -6.56625,3.82875 -9.11625,8.38625 l 0,0 z m 228.96874,23.69875 c 0,0.18125 0.545,-0.1825 0.91125,-0.91125 0.36375,-0.72875 -0.1825,-1.27625 -0.5475,-2.5525 -0.18125,-0.54625 -1.09375,-0.54625 -0.91125,0.36375 0,0.9125 -0.36375,2.37125 0.5475,3.1 l 0,0 z m -0.73,8.9325 c 0,0.365 -0.36375,1.095 -0.5475,1.27625 -0.91125,1.45875 -0.91125,2.37 -0.36375,4.37375 2.91625,-2.915 2.005,-7.83625 2.37,-11.665 0,-1.82375 -1.0925,-1.82375 -1.0925,-1.27625 -0.18375,3.46375 -0.91375,4.5575 -0.36625,7.29125 l 0,0 z m -2.55125,9.66125 c 0,-0.73 0.72875,-1.09125 1.0925,-1.455 0.365,-0.55 0.1825,-1.46 -0.72875,-0.91375 -0.7275,0.5475 -1.4575,1.63875 -0.36375,2.36875 l 0,0 z m -6.19875,9.29875 c 0.72875,-0.54875 1.46,-0.9125 1.64,-0.9125 2.735,-1.275 4.195,-4.9225 3.465,-6.92625 -1.09625,3.46375 -4.37625,5.65125 -5.105,7.83875 l 0,0 z m -5.47,2.55125 c -0.3625,0 -0.54625,1.09375 -0.3625,1.275 1.63875,0.73 2.73375,3.6475 4.37375,3.46625 0.36375,-2.3725 -2.36875,-2.3725 -2.5525,-4.01125 -0.72875,0 -1.09125,-0.73 -1.45875,-0.73 l 0,0 z m -252.12124,16.22625 0.36625,2.915 c 3.09875,13.49125 9.84375,23.5175 21.14625,27.89375 0.72875,0.36375 0.9125,1.4575 2.1875,1.82125 2.73625,0.9125 7.84125,6.19875 11.3025,5.105 -3.82875,-1.45875 -9.6625,-5.835 -11.84875,-8.5675 -0.72875,-0.73 -1.64125,-0.18375 -2.73375,-1.09375 -2.37125,-1.82375 -4.56125,-4.01125 -6.19875,-6.20125 -2.005,-2.185 -4.1925,-4.00875 -5.65375,-6.74375 -1.275,-2.18625 -2.1875,-5.1025 -3.4625,-7.83875 -0.91125,-2.0025 -2.55125,-3.645 -3.09875,-5.65125 -1.64,-5.83125 -0.1825,-10.755 -0.54625,-15.86 -1.64125,4.375 -2.735,8.9325 -1.46,14.22125 l 0,0 z m 236.99124,49.58625 c -1.4575,0.91 0.7275,0 2.005,0 5.1025,-0.73125 7.1075,-2.735 9.6625,-4.74 4.01125,-3.1 7.47375,-6.93125 11.11875,-10.57625 1.09375,-1.09125 0.36625,-2.185 0.73,-2.73375 3.46375,-4.01 5.10375,-9.66375 4.74,-16.22375 0,-0.18375 -0.72875,-0.54875 -0.72875,-0.18375 -2.00625,17.86625 -14.76625,26.7975 -27.5275,34.4575 l 0,0 z M 308.06948,227.7559 c -0.5475,0.365 0.91,1.825 1.09,2.18875 1.6425,1.45875 4.195,1.8225 6.56625,1.8225 -4.3775,-1.09375 -5.29125,-4.01125 -7.65625,-4.01125 l 0,0 z m 213.28999,20.4175 c 0.72875,-0.7275 2.00375,-0.7275 2.73375,-0.91 2.00625,-0.5475 0.73,-1.64125 -0.54625,-1.09375 -0.91375,0.36375 -1.8225,0.91 -2.1875,2.00375 l 0,0 z m -3.465,0.73125 c 0.365,-0.365 1.275,-1.095 1.45875,-1.095 0.73125,-0.1825 1.275,-0.91 0.91,-1.27625 -0.545,-0.54625 -2.36875,1.64 -2.36875,2.37125 l 0,0 z m 0.73,6.92625 2.1875,-2.005 c 0.9125,-0.91125 2.37125,-3.1 1.4575,-4.01125 -0.72875,1.275 -4.92125,4.55875 -3.645,6.01625 l 0,0 z m -141.09999,10.3925 0,0 c -6.74375,-4.01125 -12.03125,-9.2975 -17.5025,-14.585 2.55375,7.11125 9.845,11.85 17.5025,14.585 l 0,0 z m 108.28499,3.645 3.64625,-0.54625 c 4.01,-0.18375 9.66375,-1.095 12.03125,-2.91625 -11.66875,2.55125 -26.61625,3.0975 -39.74,0.545 7.10875,5.105 14.4,3.645 24.0625,2.9175 l 0,0 z m 9.6625,2.55125 c 3.4625,-1.82375 -11.3025,0.36625 -13.30875,0.5475 -7.475,-0.18125 -11.12,0.91125 -18.23,-2.37125 5.4675,4.92125 22.06,5.65375 31.53875,1.82375 l 0,0 z m -99.9,14.58375 c 4.55625,-2.55125 6.92875,-7.29125 7.10875,-11.84875 -1.82375,3.2825 -4.5575,8.9325 -7.10875,11.84875 l 0,0 z m 35.3675,7.11125 c 4.91875,-2.37 12.395,-7.475 15.675,-11.48625 2.19125,-2.73375 0.54625,-3.28 -2.735,0.18375 -4.01125,2.73375 -9.11375,8.02125 -12.94,11.3025 l 0,0 z m -29.53375,5.835 c -2.00625,0.18 -3.6475,0.90875 -5.28625,1.09125 -7.11125,0.72875 -13.67374,-0.54625 -17.50374,2.73375 -3.82625,2.9175 2.7375,0.5475 8.93374,0.73 10.0275,0.1825 16.225,-1.8225 24.245,-4.555 4.7425,-1.64375 6.74625,-1.64375 10.94,-3.83125 3.28125,-1.82375 1.27875,-2.915 -0.91125,-1.82375 -8.57,3.1 -11.48625,4.195 -20.4175,5.655 l 0,0 z M 332.31323,234.1384 c -1.64125,-0.36625 -2.73375,-0.5475 -2.91625,0.18 -0.18375,0.5475 1.09375,1.45875 2.73375,1.825 1.64125,0.365 3.465,0 4.5575,-0.36625 1.09375,-0.545 -2.735,-1.0925 -4.375,-1.63875 l 0,0 z m 176.10124,29.8975 c 0.72875,-0.18375 1.45875,-1.09625 1.45875,-1.2775 -0.1825,-0.36375 -1.095,-0.1825 -1.8225,0.18125 -0.72875,0.18375 -1.2775,0.73 -1.09375,1.09625 0.18375,0.18125 0.73,0.36375 1.4575,0 l 0,0 z m 45.94,-123.235 c 0,0 0,0.7275 0.54625,1.4575 0.36625,0.73 1.2775,-0.1825 1.2775,-1.09375 -0.18125,-0.9125 -0.365,-1.27625 -1.095,-1.64 -0.54625,-0.36625 -0.72875,0.54625 -0.72875,1.27625" />
  </g>
</svg>
