<?xml version="1.0" encoding="UTF-8" standalone="no"?>
<!-- Created with Inkscape (http://www.inkscape.org/) -->

<svg
   xmlns:dc="http://purl.org/dc/elements/1.1/"
   xmlns:cc="http://creativecommons.org/ns#"
   xmlns:rdf="http://www.w3.org/1999/02/22-rdf-syntax-ns#"
   xmlns:svg="http://www.w3.org/2000/svg"
   xmlns="http://www.w3.org/2000/svg"
   xmlns:sodipodi="http://sodipodi.sourceforge.net/DTD/sodipodi-0.dtd"
   xmlns:inkscape="http://www.inkscape.org/namespaces/inkscape"
   width="266.56201"
   height="107.46039"
   id="svg3599"
   version="1.1"
   inkscape:version="0.48.3.1 r9886"
   sodipodi:docname="New document 31">
  <defs
     id="defs3601" />
  <sodipodi:namedview
     id="base"
     pagecolor="#ffffff"
     bordercolor="#666666"
     borderopacity="1.0"
     inkscape:pageopacity="0.0"
     inkscape:pageshadow="2"
     inkscape:zoom="0.35"
     inkscape:cx="48.281003"
     inkscape:cy="53.73019"
     inkscape:document-units="px"
     inkscape:current-layer="layer1"
     showgrid="false"
     fit-margin-top="0"
     fit-margin-left="0"
     fit-margin-right="0"
     fit-margin-bottom="0"
     inkscape:window-width="629"
     inkscape:window-height="537"
     inkscape:window-x="621"
     inkscape:window-y="196"
     inkscape:window-maximized="0" />
  <metadata
     id="metadata3604">
    <rdf:RDF>
      <cc:Work
         rdf:about="">
        <dc:format>image/svg+xml</dc:format>
        <dc:type
           rdf:resource="http://purl.org/dc/dcmitype/StillImage" />
        <dc:title></dc:title>
      </cc:Work>
    </rdf:RDF>
  </metadata>
  <g
     inkscape:label="Layer 1"
     inkscape:groupmode="layer"
     id="layer1"
     transform="translate(-326.719,-478.63199)">
    <path
       inkscape:connector-curvature="0"
       id="path3050"
       style="fill:#182442;fill-opacity:1;fill-rule:evenodd;stroke:none"
       d="m 583.52553,501.90692 c -28.9875,12.94375 -48.49375,32.63125 -68.54625,54.5075 -1.8225,1.82375 -4.01125,3.1 -5.4675,4.9225 -3.83125,4.375 -6.38125,8.9325 -9.48,13.67375 -2.7375,4.1925 -3.46375,6.01375 -5.28625,9.8425 -1.46,3.1 -6.01625,-0.18125 -5.105,-3.64625 1.275,-4.92125 1.09375,-9.6625 0.5475,-13.48875 -0.91375,-6.19875 -1.27875,-13.30875 -4.55875,-16.955 -4.5575,-0.36375 -7.11,2.18875 -11.11875,3.64625 -10.21,3.64625 -20.23625,8.38625 -30.44625,11.84875 -4.55625,1.46 -10.2075,1.64125 -14.22,3.82875 -21.50999,5.46875 -41.56249,12.58 -63.62249,12.58 -2.73125,0 -4.7375,-1.825 -2.91625,-2.73625 3.2825,-2.005 9.29875,-2.73375 13.31,-3.645 13.48875,-2.9175 24.245,-3.82875 37.735,-6.74375 2.1875,-0.54875 4.375,-2.00625 6.38,-2.37125 3.09875,-0.9125 8.02249,-2.55125 10.93749,-3.46375 8.02125,-2.55125 14.9475,-4.1925 22.78875,-7.475 8.205,-3.645 16.0425,-7.47375 23.6975,-11.665 2.735,-1.46 8.7525,-5.10625 11.85,-7.29375 3.46375,-2.37 3.645,6.9275 5.10375,12.57875 0,6.01625 2.18625,12.3975 2.73625,18.7775 21.51,-27.5275 45.21,-50.49625 76.38375,-68.3625 -7.11125,0.545 -14.765,0.365 -20.41875,0.545 -32.2675,2.00625 -62.5275,-3.4625 -88.0475,-10.9375 2.55,8.75125 10.93625,15.68 15.675,23.15375 1.8225,1.64125 0,4.9225 -0.91,4.9225 -2.73625,0.545 -5.65375,-0.73125 -8.75,-0.73125 -4.5575,0 -6.74625,2.735 -14.22,4.37625 -0.1825,-1.09375 3.46375,-2.1875 3.28125,-3.1 -19.14125,0.54875 -42.11249,0.9125 -64.71624,-3.28125 -3.465,-0.91 -7.84,-1.82125 -11.48625,-2.735 -4.19375,-1.0925 -10.39125,-3.4625 -14.94875,-5.28625 -11.12125,-4.375 -22.42375,-8.02 -31.90375,-13.855 -3.46251,-2.3675 -8.56751,-4.01 -10.93751,-7.29125 -0.90875,-1.4575 3.2825,-1.8225 6.0175,-0.91125 2.005,0.54625 4.19376,0.54625 7.65626,2.37 26.25,14.40125 47.215,17.86625 76.38375,23.15375 5.10375,0.36375 10.93749,0.545 15.85999,1.09125 0.91125,0.1825 4.3725,0.72875 5.2875,0.91375 2.005,0.36375 5.105,0 7.655,0 9.11625,0 16.58875,-0.54875 24.79375,-0.91375 -0.72875,-3.0975 -2.91875,-4.92125 -4.55625,-8.2025 -2.735,-5.65125 -6.19875,-12.21625 -9.66375,-17.50125 -1.27625,-2.1875 -2.005,-4.37625 -0.36375,-6.38125 1.82375,-2.18625 4.375,-0.365 6.1975,0.5475 14.585,7.2925 32.6325,8.56875 50.315,11.30375 5.64875,0.72875 11.485,1.09375 17.13625,1.82125 2.1875,0.18375 4.01125,1.2775 6.19875,1.45875 2.1875,0.1825 4.74,-0.365 7.1075,0 14.76625,1.64 31.905,1.095 45.21,-2.18625 6.0175,-1.27875 6.385,2.91625 3.2825,6.015 -2.005,1.8225 -6.1975,2.91625 -7.8375,3.28125 l 0,0 z m -88.4175,-8.56875 c 1.46,-0.36375 -2.005,-0.9125 -2.915,-0.36375 -1.095,0.5475 2.00375,0.5475 2.915,0.36375 l 0,0 z m 11.85125,2.18875 c 0.7275,0.18125 2.37125,0.18125 3.2825,0.18125 0.91125,-0.18125 -2.00625,-1.0925 -2.91625,-1.27625 -0.73,0 -1.825,-0.18125 -3.09875,-0.18125 -1.6425,0.18125 2.00625,1.27625 2.7325,1.27625 l 0,0 z m -119.40874,12.39625 c -1.63625,0.18125 -3.46125,-1.09375 -4.73875,0 -0.90875,0.18125 5.2875,2.73625 4.73875,0 l 0,0 z m 2.55375,1.275 c -0.7275,0.365 0.91125,0.91125 1.82375,0.91125 1.09125,0 2.735,0 2.5525,-0.36375 -0.18125,-0.3625 -0.9125,-0.5475 -1.82375,-0.72875 -0.91125,-0.1825 -1.8225,-0.1825 -2.5525,0.18125" />
  </g>
</svg>
