<?xml version="1.0" encoding="UTF-8" standalone="no"?>
<!-- Created with Inkscape (http://www.inkscape.org/) -->

<svg
   xmlns:dc="http://purl.org/dc/elements/1.1/"
   xmlns:cc="http://creativecommons.org/ns#"
   xmlns:rdf="http://www.w3.org/1999/02/22-rdf-syntax-ns#"
   xmlns:svg="http://www.w3.org/2000/svg"
   xmlns="http://www.w3.org/2000/svg"
   xmlns:sodipodi="http://sodipodi.sourceforge.net/DTD/sodipodi-0.dtd"
   xmlns:inkscape="http://www.inkscape.org/namespaces/inkscape"
   width="258.51999"
   height="192.62875"
   id="svg9254"
   version="1.1"
   inkscape:version="0.48.3.1 r9886"
   sodipodi:docname="New document 16">
  <defs
     id="defs9256" />
  <sodipodi:namedview
     id="base"
     pagecolor="#ffffff"
     bordercolor="#666666"
     borderopacity="1.0"
     inkscape:pageopacity="0.0"
     inkscape:pageshadow="2"
     inkscape:zoom="0.35"
     inkscape:cx="283.40286"
     inkscape:cy="-52.257053"
     inkscape:document-units="px"
     inkscape:current-layer="layer1"
     showgrid="false"
     fit-margin-top="0"
     fit-margin-left="0"
     fit-margin-right="0"
     fit-margin-bottom="0"
     inkscape:window-width="472"
     inkscape:window-height="415"
     inkscape:window-x="1294"
     inkscape:window-y="24"
     inkscape:window-maximized="0" />
  <metadata
     id="metadata9259">
    <rdf:RDF>
      <cc:Work
         rdf:about="">
        <dc:format>image/svg+xml</dc:format>
        <dc:type
           rdf:resource="http://purl.org/dc/dcmitype/StillImage" />
        <dc:title></dc:title>
      </cc:Work>
    </rdf:RDF>
  </metadata>
  <g
     inkscape:label="Layer 1"
     inkscape:groupmode="layer"
     id="layer1"
     transform="translate(-91.59714,-287.47638)">
    <g
       transform="matrix(0.125,0,0,-0.125,-696.96536,915.04388)"
       id="g7295">
      <path
         inkscape:connector-curvature="0"
         d="m 6369.57,3479.51 -9.51,0.02 -30.6,0.05 0.08,29.74 c 1.18,445.5 -13.13,890.67 -21.04,1335.97 4.58,-134.12 10.54,-366.64 15.99,-616.33 1.28,-62.42 2.58,-125.92 3.89,-189.23 0.6,-31.65 1.19,-63.25 1.79,-94.66 0.28,-15.69 0.55,-31.34 0.84,-46.91 -0.12,-15.59 -0.25,-31.11 -0.37,-46.53 -0.59,-61.68 -1.1,-121.9 -2.18,-179.4 0.43,-57.43 0.84,-112.15 1.22,-162.91 l 0.21,-29.18 30.17,-0.47 c 3.39,-0.06 6.46,-0.11 9.51,-0.16"
         style="fill:#ffffff;fill-opacity:1;fill-rule:evenodd;stroke:none"
         id="path3248" />
      <path
         inkscape:connector-curvature="0"
         d="m 6611.33,3487.13 688.81,-1.56 688.82,-0.28 -7.1,-1.57 -691.18,-0.89 -691.17,0.68 11.82,3.62"
         style="fill:#ffffff;fill-opacity:1;fill-rule:evenodd;stroke:none"
         id="path3250" />
      <path
         inkscape:connector-curvature="0"
         d="m 7348.61,3492.86 -988.57,-0.09 -16.96,0 -0.31,16.84 c -1.35,76.59 -3.73,153.16 -3.62,229.78 -0.63,76.61 -0.19,153.24 -2.42,229.8 l 2.14,-6.18 c 2.08,-75.54 1.77,-151.12 2.54,-226.69 0.05,-18.89 0.43,-37.77 0.22,-56.68 l 1.14,-56.65 2.25,-113.32 0.28,-14.6 14.73,-0.01 992.61,-0.76 -4.03,-1.44"
         style="fill:#ffffff;fill-opacity:1;fill-rule:evenodd;stroke:none"
         id="path3256" />
      <path
         inkscape:connector-curvature="0"
         d="m 6792.13,4643.24 c 7.83,-1.27 16.39,-3.42 25.1,-4.03 8.73,-0.6 17.63,-1.07 26.24,-1.35 34.73,-1.65 69.19,-0.56 103.74,0.32 34.66,1.74 69.37,3.44 104.48,3.98 4.33,0.07 8.81,0.79 13.17,0.87 17.77,0.27 35.58,0.54 53.33,0.82 30.77,0.5 60.91,2.03 91.35,3.49 19.7,0.99 39.42,2.87 59.01,3.53 14.93,0.36 29.9,0.73 44.91,1.1 l 22.42,0.39 22.34,-0.24 c 5.21,-0.05 11.45,0.4 15.5,-0.14 19.56,-2.94 38.72,-2.27 57.46,-0.94 18.74,1.67 37.03,3.24 54.69,9.64 3.92,1.18 7.53,2.38 11.02,3.62 3.48,1.11 6.84,3.67 10.27,5.37 6.84,3.84 13.96,7.27 22.84,10.62 -9.75,-2.11 -18.82,-4.06 -26.88,-5.79 -8.05,-1.7 -15.09,-1.32 -20.74,-1.9 -7.18,2.51 -12.27,4.31 -18.47,7.17 7.2,0.36 15.9,1.05 23.99,1.97 7.51,0.78 14.33,2.35 21.46,3.7 -6.97,-0.1 -13.57,0.54 -20.97,0.78 -15.59,0.4 -31.03,0.79 -50.44,1.28 24.3,5.14 42.24,8.2 58.57,10.49 5.61,0.76 6.72,1.05 5.06,2.04 -1.65,1.04 -6.05,1.86 -11.44,2.72 -8.28,1.31 -16.32,3.1 -24.64,4.66 -8.31,1.21 -17,2.47 -26.33,3.84 6.28,0.87 11.58,1.6 16.89,2.34 5.32,0.62 10.63,1.79 16.97,1.62 -4.42,1.29 -7.76,2.08 -10.64,2.43 -2.88,0.48 -5.29,0.84 -7.88,0.95 -23.83,0.86 -47.67,2.01 -71.4,1.73 -23.7,-0.8 -47.42,-1.82 -70.63,-5.89 -43.65,-7.18 -143.85,-8.75 -180.96,-4.7 -2.91,0.31 -8.53,0.11 -11.95,-0.45 -21.22,-3.43 -42.63,-6.89 -63.83,-10.32 -7.06,-1.07 -15.3,-2 -22.55,-2.28 -19.79,-0.76 -39.62,-1.52 -59.43,-2.29 l -29.7,-1.21 -29.94,-0.48 c -8.85,-0.18 -18.5,-1.44 -27.76,-2.19 l -0.27,-1.9 58.32,0.33 -0.02,-1.65 c -12.07,-0.79 -24.36,-2 -36.18,-2.25 -19.45,-0.22 -38.82,-1 -58.19,-2.07 -19.38,-1.1 -38.76,-1.28 -58.11,-4.94 -12.91,-2.45 -26.19,-2.93 -42.2,-4.63 12.81,-0.89 28.51,-1.35 29.03,-3 1.14,-3.52 -2.67,-7.51 -9.76,-10.97 -8.32,-4.2 -6.72,-4.07 27.19,-4.62 -4.28,-2.26 -48.68,-2.6 -12.13,-5.92 3.19,-2.34 2.39,-4.58 8.09,-5.65 z m 18.51,0.26 c 9.2,1.04 25.21,1.96 42.39,1.62 17.18,-0.32 35.53,-1.6 49.39,-3.56 -15.08,-0.22 -30.15,0.14 -45.4,0.59 -15.24,0.47 -30.64,0.6 -46.38,1.35 z m 202.23,4.94 -0.45,-1.13 c -31.47,-0.92 -63.03,-2.77 -94.39,-2.55 l 0.74,2.6 c 31.28,-0.68 62.71,0.73 94.1,1.08 z m 260.63,48.79 c -41.27,-6.23 -76.88,-6.28 -116.29,-4.89 40.29,1.7 75.75,3.19 116.29,4.89 z m 209.11,-31.8 1.69,-1.97 -14.07,-2.84 c -4.68,-0.95 -9.38,-0.97 -14.08,-1.51 l -28.13,-2.5 -0.79,2.64 c 9.16,0.89 17.7,2.8 26.62,4.09 4.45,0.66 8.99,1.14 13.75,1.3 4.76,0.57 9.71,0.91 15.01,0.79 z m -612.38,-14.46 0.39,1.84 c 16.43,-0.26 32.86,0.05 49.28,0.04 l 24.64,0.08 24.67,0.76 -0.25,-1 -24.7,-0.99 -24.68,-0.31 c -16.44,-0.11 -32.89,-0.64 -49.35,-0.42 z m 524.5,11.8 0.91,-2.04 -54.7,-3.85 -1.72,3.21 55.51,2.68 z m -357.76,-1.7 -0.51,1.87 67.13,3.9 -0.37,-1.94 -66.25,-3.83"
         style="fill:#231f20;fill-opacity:1;fill-rule:evenodd;stroke:none"
         id="path3966" />
      <path
         inkscape:connector-curvature="0"
         d="m 6902.42,4641.56 c -15.08,-0.22 -30.15,0.14 -45.4,0.59 -15.24,0.47 -30.64,0.6 -46.38,1.35 9.2,1.04 25.21,1.96 42.39,1.62 17.18,-0.32 35.53,-1.6 49.39,-3.56"
         style="fill:#ffffff;fill-opacity:1;fill-rule:evenodd;stroke:none"
         id="path3968" />
      <path
         inkscape:connector-curvature="0"
         d="m 6918.77,4647.36 c 31.28,-0.68 62.71,0.73 94.1,1.08 l -0.45,-1.13 c -31.47,-0.92 -63.03,-2.77 -94.39,-2.55 l 0.74,2.6"
         style="fill:#ffffff;fill-opacity:1;fill-rule:evenodd;stroke:none"
         id="path3970" />
      <path
         inkscape:connector-curvature="0"
         d="m 7157.21,4692.34 c 40.29,1.7 75.75,3.19 116.29,4.89 -41.27,-6.23 -76.88,-6.28 -116.29,-4.89"
         style="fill:#ffffff;fill-opacity:1;fill-rule:evenodd;stroke:none"
         id="path3972" />
      <path
         inkscape:connector-curvature="0"
         d="m 7427.23,4659.25 c 9.16,0.89 17.7,2.8 26.62,4.09 4.45,0.66 8.99,1.14 13.75,1.3 4.76,0.57 9.71,0.91 15.01,0.79 l 1.69,-1.97 -14.07,-2.84 c -4.68,-0.95 -9.38,-0.97 -14.08,-1.51 l -28.13,-2.5 -0.79,2.64"
         style="fill:#ffffff;fill-opacity:1;fill-rule:evenodd;stroke:none"
         id="path3974" />
      <path
         inkscape:connector-curvature="0"
         d="m 6968.96,4652.69 -24.7,-0.99 -24.68,-0.31 c -16.44,-0.11 -32.89,-0.64 -49.35,-0.42 l 0.39,1.84 c 16.43,-0.26 32.86,0.05 49.28,0.04 l 24.64,0.08 24.67,0.76 -0.25,-1"
         style="fill:#ffffff;fill-opacity:1;fill-rule:evenodd;stroke:none"
         id="path3976" />
      <path
         inkscape:connector-curvature="0"
         d="m 7339.22,4660.09 55.51,2.68 0.91,-2.04 -54.7,-3.85 -1.72,3.21"
         style="fill:#ffffff;fill-opacity:1;fill-rule:evenodd;stroke:none"
         id="path3978" />
      <path
         inkscape:connector-curvature="0"
         d="m 6868.85,4030.01 c 14.27,-1.99 31.06,-3.38 46.72,-3.7 31.61,-1.25 62.91,1.38 94.32,2.65 31.4,1.5 62.86,2.83 94.64,2.67 3.92,-0.02 7.98,0.8 11.93,0.8 16.08,-0.07 32.21,-0.13 48.27,-0.21 27.73,-0.1 55.45,1.39 83.16,2.32 17.97,0.75 35.98,2.52 53.84,2.87 27.15,1.06 54.52,2.13 81.79,3.19 4.77,0.2 10.48,0.98 14.19,0.63 17.89,-1.64 35.45,0.38 52.59,2.97 8.57,1.66 17.02,3.57 25.36,5.57 4.04,1 8.17,2.02 12.39,3.06 4.13,0.2 8.09,4.69 12.14,5.17 7.15,1.77 13.15,3.59 19.38,5.62 6.21,2.49 12.66,4.97 20.68,7.38 -8.86,-1.21 -17.11,-2.6 -24.47,-3.12 -7.34,-0.52 -13.77,-0.68 -18.91,-1.25 -6.56,0.47 -11.25,2.72 -16.91,4.64 3.28,0.25 6.9,0.51 10.62,0.77 3.72,0.58 7.53,1.26 11.21,1.52 6.82,0.75 13.03,1.73 19.51,2.63 -6.39,0.23 -13.18,0.48 -19.12,0.7 -13.91,-0.13 -28.22,0.12 -45.92,0.5 11.04,2.29 20.63,3.94 29.3,5.34 4.33,0.82 8.46,1.05 12.41,1.39 3.86,0.52 7.64,1.02 11.44,1.54 10.18,1.29 3.96,2.21 -5.86,3.46 -14.31,2.85 -29.16,5.82 -46.34,9.25 11.38,0.77 19.21,1.18 30.66,1.6 -8.03,1.68 -12.11,3.04 -16.81,3.62 -21.62,3.03 -43.18,5 -64.65,6.33 -21.46,0.62 -42.82,0.06 -64.03,-2.24 -9.95,-1.11 -23.1,-1.64 -37.76,-1.7 -14.65,-0.49 -30.8,-0.5 -46.77,-0.08 -31.93,0.77 -63.12,3.56 -79.98,7.2 -2.67,0.55 -7.83,0.63 -10.96,0.15 -19.45,-3.02 -39.16,-6.09 -58.58,-9.11 -6.46,-0.94 -14.01,-1.64 -20.65,-1.56 -36.26,0.45 -72.71,0.9 -108.93,1.36 -8.06,0.04 -16.82,-1.42 -25.24,-2.18 l -0.2,-2.66 53.11,-1.17 0.01,-2.25 c -10.98,-0.77 -22.15,-2.13 -32.91,-2.17 -35.41,0.4 -70.56,-1.44 -105.9,-2.78 -11.75,-1.34 -23.74,-4.79 -38.26,-7.7 11.66,-1.03 25.95,-1.61 26.48,-4.62 1.14,-6.41 -2.19,-13.72 -8.54,-19.77 -7.46,-6.78 -5.97,-8.03 24.88,-8.15 -3.79,-5.37 -44.24,-3.95 -10.83,-11.23 1.48,-2.01 2.06,-4.06 2.92,-5.78 0.86,-1.75 1.99,-3.23 4.58,-3.47 z m 16.76,3.63 c 16.64,4.95 58.2,4.69 83.48,-0.5 -27.41,-0.93 -54.87,0.23 -83.48,0.5 z m 183.73,7.16 -0.4,-1.45 -85.71,-1.64 0.63,3.59 85.48,-0.5 z m 237.41,50.16 c -37.6,-5.43 -70,-4.14 -105.79,-0.6 36.65,0.21 68.9,0.39 105.79,0.6 z m 190.41,-29.65 c 0.51,-0.06 1.03,-0.92 1.55,-1.28 -8.48,-4.31 -17.09,-4.47 -25.64,-6.32 l -25.69,-4.67 -0.74,2.38 c 8.37,1.46 16.16,3.92 24.28,5.66 4.06,0.89 8.21,1.64 12.55,2.12 2.09,0.19 4.23,0.37 6.67,0.59 2.28,0.18 4.61,1.07 7.02,1.52 z m -557.53,-15.37 0.31,2.65 89.69,0.6 -0.22,-1.34 -89.78,-1.91 z m 477.3,7.24 0.84,-1.95 c -16.66,-2.69 -33.34,-4.2 -50.02,-6.42 l -1.53,3.35 c 16.9,1.75 33.82,2.82 50.71,5.02 z m -325.75,3.24 -0.48,2.43 61.06,2.43 -0.34,-2.41 -60.24,-2.45"
         style="fill:#231f20;fill-opacity:1;fill-rule:evenodd;stroke:none"
         id="path3982" />
      <path
         inkscape:connector-curvature="0"
         d="m 6969.09,4033.14 c -27.41,-0.93 -54.87,0.23 -83.48,0.5 16.64,4.95 58.2,4.69 83.48,-0.5"
         style="fill:#ffffff;fill-opacity:1;fill-rule:evenodd;stroke:none"
         id="path3984" />
      <path
         inkscape:connector-curvature="0"
         d="m 6983.86,4041.3 85.48,-0.5 -0.4,-1.45 -85.71,-1.64 0.63,3.59"
         style="fill:#ffffff;fill-opacity:1;fill-rule:evenodd;stroke:none"
         id="path3986" />
      <path
         inkscape:connector-curvature="0"
         d="m 7200.96,4090.36 c 36.65,0.21 68.9,0.39 105.79,0.6 -37.6,-5.43 -70,-4.14 -105.79,-0.6"
         style="fill:#ffffff;fill-opacity:1;fill-rule:evenodd;stroke:none"
         id="path3988" />
      <path
         inkscape:connector-curvature="0"
         d="m 7446.64,4051.42 c 8.37,1.46 16.16,3.92 24.28,5.66 4.06,0.89 8.21,1.64 12.55,2.12 2.09,0.19 4.23,0.37 6.67,0.59 2.28,0.18 4.61,1.07 7.02,1.52 0.51,-0.06 1.03,-0.92 1.55,-1.28 -8.48,-4.31 -17.09,-4.47 -25.64,-6.32 l -25.69,-4.67 -0.74,2.38"
         style="fill:#ffffff;fill-opacity:1;fill-rule:evenodd;stroke:none"
         id="path3990" />
      <path
         inkscape:connector-curvature="0"
         d="m 7029.41,4047.85 -89.78,-1.91 0.31,2.65 89.69,0.6 -0.22,-1.34"
         style="fill:#ffffff;fill-opacity:1;fill-rule:evenodd;stroke:none"
         id="path3992" />
      <path
         inkscape:connector-curvature="0"
         d="m 7366.22,4048.16 c 16.9,1.75 33.82,2.82 50.71,5.02 l 0.84,-1.95 c -16.66,-2.69 -33.34,-4.2 -50.02,-6.42 l -1.53,3.35"
         style="fill:#ffffff;fill-opacity:1;fill-rule:evenodd;stroke:none"
         id="path3994" />
      <path
         inkscape:connector-curvature="0"
         d="m 7151.42,4058.87 -60.24,-2.45 -0.48,2.43 61.06,2.43 -0.34,-2.41"
         style="fill:#ffffff;fill-opacity:1;fill-rule:evenodd;stroke:none"
         id="path3996" />
      <path
         inkscape:connector-curvature="0"
         d="m 7434.59,4999.32 c -2.52,-7.56 -4.06,-16.39 -5.4,-24.63 -3.4,-16.68 -1.52,-32.97 -1.55,-49.39 0.8,-16.37 1.91,-32.76 1.63,-49.37 -0.04,-2.05 0.59,-4.15 0.59,-6.21 -0.13,-8.37 -0.24,-16.91 -0.36,-25.23 0.14,-14.47 -0.13,-28.98 1.05,-43.4 0.6,-9.36 2.08,-18.71 2.36,-28.03 0.43,-14.27 0.17,-28.51 0.21,-42.76 0.02,-2.49 0.52,-5.46 0.04,-7.42 -1.33,-4.72 -1.33,-9.36 -1.22,-13.93 0.22,-4.58 0.55,-9.11 2.16,-13.52 1.39,-4.42 3.04,-8.78 4.81,-13.05 2.42,-4.26 5.35,-8.42 7.91,-12.52 4.97,-7.25 10.91,-12.07 15.61,-20.27 -2.95,9.14 -5.79,17.02 -6.45,22.37 1.66,3.51 3.13,6.01 5.13,9.05 0.66,-3.39 1.25,-7.53 2.19,-11.32 0.9,-3.53 2.24,-6.71 3.15,-10.06 -0.03,3.31 0.3,6.48 0.33,10 0.08,7.26 0.13,14.74 0.6,24 4.66,-11.34 6.91,-19.75 8.3,-27.43 0.71,-5.3 1.95,-2 3.81,3.21 2.55,7.97 6.24,15.53 9.12,24.57 1.03,-5.9 1.91,-9.96 1.3,-15.97 2.11,4.28 4.09,6.5 4.37,8.95 1.06,5.68 2.26,11.37 3.18,17.04 0.47,5.63 0.85,11.27 1.02,16.87 -0.32,11.17 -1.78,22.25 -4.63,33.21 -5.67,20.55 -3.5,68.15 0.95,85.89 0.4,1.42 0.38,4.1 -0.07,5.72 -2.68,9.92 -5.53,20.42 -8.21,30.28 -0.84,3.35 -1.51,7.26 -1.55,10.73 -0.38,18.96 0.19,37.86 -1.63,56.78 -0.32,4.19 -1.76,8.7 -2.66,13.06 l -1.9,0.04 1.16,-27.65 -1.7,-0.06 c -0.95,5.69 -2.33,11.47 -2.73,17.06 -0.32,4.57 -0.65,9.18 -0.97,13.8 -0.33,4.59 -1.43,9.15 -2.15,13.72 -1.73,9.12 -3.11,18.25 -5.51,27.36 -2.21,6.31 -4.31,12.26 -6.93,19.73 0.47,-6.05 1.1,-13.47 -0.39,-13.79 -3.14,-0.67 -7.02,0.96 -9.95,4.21 -3.35,3.83 -3.55,3.06 -4.29,-13.1 -1.13,0.97 -1.64,6.73 -2.08,10.07 -0.49,3.34 -0.88,4.26 -3.38,-4.54 -2.17,-1.62 -4.24,-1.32 -5.27,-4.07 z m 0.8,-8.76 c 2.15,-8.65 0.17,-30.46 -3.73,-43.79 -0.48,14.29 2.3,28.78 3.73,43.79 z m 1.15,-95.99 -1.14,0.16 c -0.4,14.91 -0.92,29.81 -0.67,44.75 l 2.65,-0.24 c -0.66,-14.92 -0.68,-29.79 -0.84,-44.67 z m 41.77,-122.47 c -5,19.44 -3.74,36.42 -1.5,55.17 0.87,-19.09 0.96,-35.93 1.5,-55.17 z m -27.96,-100.51 -1.46,-0.88 c -1.85,4.4 -4.42,8.75 -5.85,13.18 l -4.04,13.26 2.37,0.48 c 2.9,-8.63 7.99,-15.98 8.98,-26.04 z m -9.13,290.89 1.84,-0.1 c -0.13,-15.62 -0.22,-31.25 -0.06,-46.85 l -1.03,0.08 c -0.49,15.61 -0.7,31.24 -0.75,46.87 z m 2.69,-249.23 -1.92,-0.5 c -2.1,8.62 -2.93,17.31 -4.45,25.97 l 3.08,0.92 c 1.14,-8.8 1.67,-17.62 3.29,-26.39 z m 4.85,170.34 1.92,0.32 2.14,-31.81 -1.92,0.12 -2.14,31.37"
         style="fill:#231f20;fill-opacity:1;fill-rule:evenodd;stroke:none"
         id="path3998" />
      <path
         inkscape:connector-curvature="0"
         d="m 7431.66,4946.77 c -0.48,14.29 2.3,28.78 3.73,43.79 2.15,-8.65 0.17,-30.46 -3.73,-43.79"
         style="fill:#ffffff;fill-opacity:1;fill-rule:evenodd;stroke:none"
         id="path4000" />
      <path
         inkscape:connector-curvature="0"
         d="m 7437.38,4939.24 c -0.66,-14.92 -0.68,-29.79 -0.84,-44.67 l -1.14,0.16 c -0.4,14.91 -0.92,29.81 -0.67,44.75 l 2.65,-0.24"
         style="fill:#ffffff;fill-opacity:1;fill-rule:evenodd;stroke:none"
         id="path4002" />
      <path
         inkscape:connector-curvature="0"
         d="m 7476.81,4827.27 c 0.87,-19.09 0.96,-35.93 1.5,-55.17 -5,19.44 -3.74,36.42 -1.5,55.17"
         style="fill:#ffffff;fill-opacity:1;fill-rule:evenodd;stroke:none"
         id="path4004" />
      <path
         inkscape:connector-curvature="0"
         d="m 7441.37,4697.63 c 2.9,-8.63 7.99,-15.98 8.98,-26.04 l -1.46,-0.88 c -1.85,4.4 -4.42,8.75 -5.85,13.18 l -4.04,13.26 2.37,0.48"
         style="fill:#ffffff;fill-opacity:1;fill-rule:evenodd;stroke:none"
         id="path4006" />
      <path
         inkscape:connector-curvature="0"
         d="m 7441.97,4915.61 c -0.49,15.61 -0.7,31.24 -0.75,46.87 l 1.84,-0.1 c -0.13,-15.62 -0.22,-31.25 -0.06,-46.85 l -1.03,0.08"
         style="fill:#ffffff;fill-opacity:1;fill-rule:evenodd;stroke:none"
         id="path4008" />
      <path
         inkscape:connector-curvature="0"
         d="m 7440.62,4739.64 c 1.14,-8.8 1.67,-17.62 3.29,-26.39 l -1.92,-0.5 c -2.1,8.62 -2.93,17.31 -4.45,25.97 l 3.08,0.92"
         style="fill:#ffffff;fill-opacity:1;fill-rule:evenodd;stroke:none"
         id="path4010" />
      <path
         inkscape:connector-curvature="0"
         d="m 7450.9,4852.22 -2.14,31.37 1.92,0.32 2.14,-31.81 -1.92,0.12"
         style="fill:#ffffff;fill-opacity:1;fill-rule:evenodd;stroke:none"
         id="path4012" />
      <path
         inkscape:connector-curvature="0"
         d="m 7485.66,4071.11 c -1.79,-6.45 -4.21,-14.14 -4.72,-21 l -0.52,-5.23 c 0.26,-1.67 -1.54,-3.67 -1.4,-5.36 0.22,-3.34 0.43,-6.72 0.66,-10.13 0.57,-6.66 1.14,-13.45 1.71,-20.17 1.41,-13.41 4.11,-26.62 4.67,-40.33 0.09,-1.68 0.96,-3.3 1.08,-5 0.38,-6.86 0.77,-13.95 1.14,-20.75 0.9,-11.89 1.84,-23.77 4.11,-35.43 1.3,-7.59 3.66,-15.03 4.57,-22.63 1.41,-11.65 1.98,-23.37 2.92,-35.06 0.15,-2.04 0.94,-4.4 0.48,-6.07 -1.89,-15.79 4.15,-29.9 20.64,-41.24 7.87,-4.94 13.49,-8.27 19.88,-14.23 -2.23,3.49 -3.72,6.84 -5.19,9.79 -0.55,1.5 -1.73,2.8 -2.61,4.03 -0.65,1.27 -0.89,2.5 -1.28,3.55 1.87,3.15 3.27,5.39 5.43,8.19 1.09,-2.67 2.08,-5.96 3.39,-8.94 0.55,-1.4 1.6,-2.64 2.44,-3.9 0.69,-1.27 1.43,-2.63 2.1,-3.84 -0.15,2.73 -0.13,5.34 -0.39,8.22 -0.38,5.97 -0.91,12.09 -0.97,19.75 6.29,-8.58 9.75,-15.08 11.62,-21.23 1.25,-4.22 1.97,-1.4 4.56,3.26 2.06,6.86 6.48,13.7 9.2,21.53 1.62,-4.67 2.99,-7.84 2.36,-12.92 2.37,3.85 4.75,6 4.88,8.05 2.38,9.75 2.84,19.16 2.66,28.43 -0.33,9.25 -3.65,17.97 -7.71,26.53 -4.07,7.98 -6.62,21.75 -7.45,35.45 -0.41,6.86 -0.4,13.71 0.08,19.8 0.12,6.02 0.71,11.32 1.85,15.15 0.36,1.22 0.12,3.41 -0.54,4.66 -4.06,7.89 -8.32,15.57 -12.17,23.5 -1.25,2.6 -2.36,5.71 -2.69,8.53 -1.83,15.47 -3.07,30.95 -7.13,46.07 -0.79,3.36 -2.87,6.84 -4.32,10.25 l -2.12,-0.23 4.01,-22.36 -1.93,-0.3 c -1.64,4.5 -3.75,9.02 -4.72,13.52 -1.93,7.36 -2.3,14.96 -6.42,21.93 -2.32,7.27 -5.5,14.4 -8.82,21.51 -2.2,4.75 -4.84,9.56 -7.81,15.41 0.69,-4.94 1.54,-10.99 -0.01,-11.45 -3.31,-0.97 -7.46,-0.12 -10.91,2.14 -3.93,2.67 -4.22,1.98 -3.33,-11.25 -2.87,1.23 -3.55,18.64 -6.3,3.78 -2.09,-1.58 -4.29,-1.61 -4.98,-3.98 z m 1.25,-7.09 c 0.98,-3.48 1.61,-9.71 1.54,-16.5 -1.65,-7.06 -1.07,-14.2 -3.61,-20.08 l -0.4,8.88 -0.19,4.44 c 0.1,1.53 1.24,3.2 1.1,4.69 0.38,6.09 0.69,12.21 1.56,18.57 z m 6.46,-78.75 -1.33,-0.02 -2.12,18.25 c -0.54,6.11 -0.81,12.26 -1.22,18.39 l 2.99,0.19 0.5,-18.46 1.18,-18.35 z m 57.98,-93.96 c -7.39,15.15 -7.24,29.22 -5.84,44.94 2.29,-15.53 3.79,-29.28 5.84,-44.94 z m -26.21,-86.63 -1.71,-0.95 c -2.09,3.39 -6.04,6.47 -8.04,9.86 l -5.82,10.24 2.84,0.77 c 3.86,-6.66 10.9,-11.83 12.73,-19.92 z m -30.69,237 2.07,0.18 2.97,-38.43 -1.2,-0.1 -3.84,38.35 z m 19.94,-203.89 -2.24,-0.71 c -3.3,6.71 -5.31,13.64 -7.48,20.54 l 3.67,1.24 c 1.77,-7.06 3.24,-14.17 6.05,-21.07 z m -6.02,140.32 2.21,0.54 4.73,-25.73 -2.27,-0.21 -4.67,25.4"
         style="fill:#231f20;fill-opacity:1;fill-rule:evenodd;stroke:none"
         id="path4014" />
      <path
         inkscape:connector-curvature="0"
         d="m 7484.84,4027.44 -0.4,8.88 -0.19,4.44 c 0.1,1.53 1.24,3.2 1.1,4.69 0.38,6.09 0.69,12.21 1.56,18.57 0.98,-3.48 1.61,-9.71 1.54,-16.5 -1.65,-7.06 -1.07,-14.2 -3.61,-20.08"
         style="fill:#ffffff;fill-opacity:1;fill-rule:evenodd;stroke:none"
         id="path4016" />
      <path
         inkscape:connector-curvature="0"
         d="m 7491.69,4022.08 0.5,-18.46 1.18,-18.35 -1.33,-0.02 -2.12,18.25 c -0.54,6.11 -0.81,12.26 -1.22,18.39 l 2.99,0.19"
         style="fill:#ffffff;fill-opacity:1;fill-rule:evenodd;stroke:none"
         id="path4018" />
      <path
         inkscape:connector-curvature="0"
         d="m 7545.51,3936.25 c 2.29,-15.53 3.79,-29.28 5.84,-44.94 -7.39,15.15 -7.24,29.22 -5.84,44.94"
         style="fill:#ffffff;fill-opacity:1;fill-rule:evenodd;stroke:none"
         id="path4020" />
      <path
         inkscape:connector-curvature="0"
         d="m 7512.41,3824.6 c 3.86,-6.66 10.9,-11.83 12.73,-19.92 l -1.71,-0.95 c -2.09,3.39 -6.04,6.47 -8.04,9.86 l -5.82,10.24 2.84,0.77"
         style="fill:#ffffff;fill-opacity:1;fill-rule:evenodd;stroke:none"
         id="path4022" />
      <path
         inkscape:connector-curvature="0"
         d="m 7498.29,4003.33 -3.84,38.35 2.07,0.18 2.97,-38.43 -1.2,-0.1"
         style="fill:#ffffff;fill-opacity:1;fill-rule:evenodd;stroke:none"
         id="path4024" />
      <path
         inkscape:connector-curvature="0"
         d="m 7508.34,3858.86 c 1.77,-7.06 3.24,-14.17 6.05,-21.07 l -2.24,-0.71 c -3.3,6.71 -5.31,13.64 -7.48,20.54 l 3.67,1.24"
         style="fill:#ffffff;fill-opacity:1;fill-rule:evenodd;stroke:none"
         id="path4026" />
      <path
         inkscape:connector-curvature="0"
         d="m 7513.04,3952.71 -4.67,25.4 2.21,0.54 4.73,-25.73 -2.27,-0.21"
         style="fill:#ffffff;fill-opacity:1;fill-rule:evenodd;stroke:none"
         id="path4028" />
      <path
         inkscape:connector-curvature="0"
         d="m 7484.31,4946.34 c 16.5,-14.35 36.84,-29.93 56.38,-43.63 19.66,-13.9 39.39,-27.57 59.17,-41.09 l 29.71,-20.23 30.33,-19.23 c 40.48,-25.62 80.95,-51.41 120.98,-78.7 4.93,-3.37 10.53,-6.17 15.51,-9.53 l 60.8,-41.45 c 35.12,-23.48 70.15,-47.21 105.79,-69.93 23.04,-14.84 46.79,-28.8 69.47,-43.87 34.74,-23.08 68.83,-46.79 103.19,-70.23 6.01,-4.1 13.57,-8.49 17.9,-12.19 41.69,-35.62 87.4,-62.61 134.09,-81.5 5.51,-1.6 10.66,-2.9 15.69,-4.12 4.94,-1.32 10.66,-1.13 15.86,-1.89 10.32,-1.66 21.82,-2.14 34.8,-4.79 -27.32,7.68 -48.15,18.64 -61.54,26.92 -6.08,8.96 -10.38,15.3 -15.59,22.99 8.61,-5.09 18.6,-11.96 28.72,-17.01 9.27,-4.88 18.31,-8.39 27.46,-12.49 -8.07,5.34 -15.24,11.14 -23.59,17.13 -17.45,12.48 -35.03,25.05 -56.96,40.73 15.76,-6.94 29.27,-12.88 41.59,-18.3 12.35,-5.36 23.2,-10.45 33.29,-15.69 6.93,-3.6 8.42,-4.11 7.24,-1.74 -1.14,2.43 -5.54,6.84 -10.99,12.11 -8.12,8.52 -16.9,15.35 -25.43,23.27 -8.68,7.69 -17.42,15.99 -27.31,24.56 15.71,-7.71 26.24,-13.43 41.81,-21.52 -9.11,8.33 -13.35,13.12 -19.07,17.4 -53.29,38.49 -107.7,74.82 -165.36,105.06 -54.31,28.04 -167.96,107.42 -206.91,141.26 -3.07,2.73 -9.55,7.14 -13.82,9.39 -26.58,13.97 -53.07,27.9 -79.65,41.88 -8.76,4.69 -18.74,10.48 -27.12,16.14 -45.98,30.92 -91.17,62.45 -137.64,92.7 -10.45,6.46 -22.63,12.3 -33.99,18.46 l -1.71,-1.88 c 22.78,-14.42 45.5,-28.92 67.55,-44.47 l -1.26,-1.82 c -14.41,8.55 -29.14,17.27 -43.24,25.64 l -68.47,42.84 c -22.83,14.21 -45.51,28.65 -68.97,42 -7.88,4.45 -15.77,8.91 -24.17,13.66 -7.69,5.85 -19.42,6.43 -30.09,10.4 3.99,-1.97 8.45,-3.72 12.52,-5.79 2.1,-0.94 4.15,-1.87 6.13,-2.77 2.03,-0.82 3.39,-2.54 4.97,-3.67 5.97,-5.02 10.12,-8.94 9.69,-10.22 -1.8,-5.52 -9.65,-7.73 -20.86,-6.77 -13.11,1.2 -11.67,-0.66 27.48,-26.69 -7.11,0.06 -58.83,33.46 -19.35,1.33 1.82,-5.23 -1.09,-7.52 4.97,-12.66 z m 22.58,-12.38 c 23.28,-11.07 76.05,-46.09 104.29,-72.96 -34.27,23.98 -68.55,47.96 -104.29,72.96 z m 234.87,-152.92 -1.35,-0.85 -109.1,71.9 2.82,2.32 107.63,-73.37 z m 330.15,-159.52 c -51.07,26.94 -91.14,55.8 -134.6,88.78 46.64,-30.76 87.68,-57.83 134.6,-88.78 z m 215.47,-198.88 c 0.12,-1.25 0.24,-2.5 0.44,-3.6 -23.07,12.62 -46.37,24.89 -68.76,38.57 l 0.98,3.4 c 22.03,-13.13 44.78,-18.87 67.34,-38.37 z m -706.01,473.94 1.81,1.72 56.4,-38.62 56.85,-37.96 -1.04,-0.91 -57.28,37.47 -56.74,38.3 z m 604.04,-405.86 -0.39,-2.8 -66.02,38.76 0.34,4.56 66.07,-40.52 z m -407,284.49 0.81,2.4 78.62,-49.94 -1.86,-1.7 -77.57,49.24"
         style="fill:#231f20;fill-opacity:1;fill-rule:evenodd;stroke:none"
         id="path4030" />
      <path
         inkscape:connector-curvature="0"
         d="m 7611.18,4861 c -34.27,23.98 -68.55,47.96 -104.29,72.96 23.28,-11.07 76.05,-46.09 104.29,-72.96"
         style="fill:#ffffff;fill-opacity:1;fill-rule:evenodd;stroke:none"
         id="path4032" />
      <path
         inkscape:connector-curvature="0"
         d="m 7634.13,4854.41 107.63,-73.37 -1.35,-0.85 -109.1,71.9 2.82,2.32"
         style="fill:#ffffff;fill-opacity:1;fill-rule:evenodd;stroke:none"
         id="path4034" />
      <path
         inkscape:connector-curvature="0"
         d="m 8220.04,4461.01 c 22.03,-13.13 44.78,-18.87 67.34,-38.37 0.12,-1.25 0.24,-2.5 0.44,-3.6 -23.07,12.62 -46.37,24.89 -68.76,38.57 l 0.98,3.4"
         style="fill:#ffffff;fill-opacity:1;fill-rule:evenodd;stroke:none"
         id="path4038" />
      <path
         inkscape:connector-curvature="0"
         d="m 7695.39,4820.81 -57.28,37.47 -56.74,38.3 1.81,1.72 56.4,-38.62 56.85,-37.96 -1.04,-0.91"
         style="fill:#ffffff;fill-opacity:1;fill-rule:evenodd;stroke:none"
         id="path4040" />
      <path
         inkscape:connector-curvature="0"
         d="m 8119.34,4531.24 66.07,-40.52 -0.39,-2.8 -66.02,38.76 0.34,4.56"
         style="fill:#ffffff;fill-opacity:1;fill-rule:evenodd;stroke:none"
         id="path4042" />
      <path
         inkscape:connector-curvature="0"
         d="m 7583.09,3782.46 c 18.15,11.7 38.98,26.28 57.91,40.58 38.14,28.87 75.69,58.07 113.09,87.58 37.28,29.67 74.73,59.26 113.29,88.11 4.76,3.56 9.28,7.83 14.06,11.43 l 58.55,43.84 100.22,76.54 c 21.59,16.66 42.78,33.99 64.34,50.38 l 98.04,76.08 c 5.71,4.44 12.29,10.13 16.99,13.23 22.14,15.52 42.53,32.81 61.99,50.3 4.98,4.23 9.47,9.03 13.86,13.88 4.37,4.77 8.75,9.55 13.18,14.38 8.48,9.21 17.1,18.55 25.8,28 15.05,16.22 24.73,28.07 42.25,45.55 -20.25,-17.9 -37.99,-33.08 -49.94,-43.21 -8.58,-5.11 -14.81,-8.51 -22.5,-12.45 7.62,6.38 16.69,13.98 25.45,21.33 7.42,6.48 14.93,13.04 22.39,19.56 -7.76,-5.71 -15.6,-11.48 -23.32,-17.16 -16.87,-12.62 -34.22,-25.62 -55.92,-41.37 24.66,23.11 43.73,38.91 61.16,53.16 12.06,9.73 4.07,4.71 -8.65,-3.06 -19.5,-11.93 -38.23,-22.6 -61.4,-34.73 13.92,10.24 23.62,17.11 37.89,27.07 -10.84,-5.76 -16.59,-8.34 -22.82,-11.85 -57.01,-32.97 -110.41,-70.25 -159.5,-112.19 -46.69,-38.55 -157.23,-120.82 -201.89,-146.05 -3.54,-2.01 -9.86,-6.59 -13.47,-9.74 -22.39,-19.67 -44.71,-39.27 -67.11,-58.94 -7.44,-6.48 -16.31,-13.76 -24.44,-19.67 -44.47,-32.54 -89.31,-64.08 -133.43,-97.18 -9.78,-7.32 -19.66,-16.33 -29.49,-24.55 l 1.06,-2.06 64.97,47.43 1.14,-1.58 c -13.04,-10.39 -25.83,-21.63 -38.86,-31.42 l -128.4,-96.49 c -3.56,-2.74 -7.11,-5.47 -10.73,-8.25 -3.53,-2.92 -6.67,-6.47 -10.14,-9.82 -7.25,-6.29 -12.94,-15.48 -19.61,-24.95 6.2,6.4 12.85,13.84 19.56,17.76 6.52,4.14 11.52,6.8 12.65,5.87 4.92,-3.99 4.92,-12.79 0.5,-23.25 -2.62,-6.11 -3.4,-8.95 1.21,-6.84 4.59,2.15 15.05,8.63 33.29,23.26 -1.36,-3.15 -13.13,-15.38 -20.6,-21.7 -7.21,-6.64 -8.48,-9.47 13.73,2.92 5.61,-0.18 7.04,-3.99 13.65,0.27 z m 18.2,18.22 c 17.54,18.9 67.41,57.36 101.03,76.12 -33.2,-25.02 -66.41,-50.04 -101.03,-76.12 z m 219,172.44 0.23,-1.39 -103.21,-78.96 -1,3.13 103.98,77.22 z m 264.15,250.16 c -43.08,-37.81 -82.96,-66.41 -128.06,-96.5 44.37,33.43 83.42,62.86 128.06,96.5 z m 244.93,152.76 2.46,0.59 -27.98,-27.81 c -9.34,-9.25 -18.21,-19.11 -28.17,-27.55 l -2.04,0.98 c 9.68,8.32 17.45,17.74 26.18,26.71 8.74,8.94 18.05,17.95 29.55,27.08 z m -669.18,-516.78 -0.93,2.17 108.76,81.53 0.4,-1.14 -108.23,-82.56 z m 576.64,437.13 1.96,-0.61 c -18.78,-17.17 -38.2,-33.51 -57.51,-50 l -3.53,1.01 c 19.81,16.39 39.77,32.56 59.08,49.6 z m -397.62,-292.48 -1.75,1.27 72.97,57.04 0.72,-1.97 -71.94,-56.34"
         style="fill:#231f20;fill-opacity:1;fill-rule:evenodd;stroke:none"
         id="path4046" />
      <path
         inkscape:connector-curvature="0"
         d="m 7702.32,3876.8 c -33.2,-25.02 -66.41,-50.04 -101.03,-76.12 17.54,18.9 67.41,57.36 101.03,76.12"
         style="fill:#ffffff;fill-opacity:1;fill-rule:evenodd;stroke:none"
         id="path4048" />
      <path
         inkscape:connector-curvature="0"
         d="m 7716.31,3895.9 103.98,77.22 0.23,-1.39 -103.21,-78.96 -1,3.13"
         style="fill:#ffffff;fill-opacity:1;fill-rule:evenodd;stroke:none"
         id="path4050" />
      <path
         inkscape:connector-curvature="0"
         d="m 7956.38,4126.78 c 44.37,33.43 83.42,62.86 128.06,96.5 -43.08,-37.81 -82.96,-66.41 -128.06,-96.5"
         style="fill:#ffffff;fill-opacity:1;fill-rule:evenodd;stroke:none"
         id="path4052" />
      <path
         inkscape:connector-curvature="0"
         d="m 8273.64,4322.25 c 9.68,8.32 17.45,17.74 26.18,26.71 8.74,8.94 18.05,17.95 29.55,27.08 l 2.46,0.59 -27.98,-27.81 c -9.34,-9.25 -18.21,-19.11 -28.17,-27.55 l -2.04,0.98"
         style="fill:#ffffff;fill-opacity:1;fill-rule:evenodd;stroke:none"
         id="path4054" />
      <path
         inkscape:connector-curvature="0"
         d="m 7768.42,3941.82 -108.23,-82.56 -0.93,2.17 108.76,81.53 0.4,-1.14"
         style="fill:#ffffff;fill-opacity:1;fill-rule:evenodd;stroke:none"
         id="path4056" />
      <path
         inkscape:connector-curvature="0"
         d="m 8177.75,4246.79 c 19.81,16.39 39.77,32.56 59.08,49.6 l 1.96,-0.61 c -18.78,-17.17 -38.2,-33.51 -57.51,-50 l -3.53,1.01"
         style="fill:#ffffff;fill-opacity:1;fill-rule:evenodd;stroke:none"
         id="path4058" />
      <path
         inkscape:connector-curvature="0"
         d="m 7911.15,4060.25 -71.94,-56.34 -1.75,1.27 72.97,57.04 0.72,-1.97"
         style="fill:#ffffff;fill-opacity:1;fill-rule:evenodd;stroke:none"
         id="path4060" />
      <path
         inkscape:connector-curvature="0"
         d="m 6688.42,4610.23 c -1.83,-5.64 -3.74,-11.79 -5.56,-18.09 -1.68,-6.3 -2.17,-12.79 -3,-19.04 -2.6,-25.28 -5.42,-50.39 -6.22,-75.61 -0.83,-25.22 -1.75,-50.48 -4.05,-75.93 -0.28,-3.13 0.18,-6.43 -0.08,-9.59 -1.16,-12.86 -2.32,-25.82 -3.47,-38.65 -1.99,-22.2 -2.72,-44.46 -3.55,-66.71 -0.51,-14.43 0.01,-28.95 -0.85,-43.28 -1.32,-21.94 -3.43,-43.73 -5.2,-65.58 -0.32,-3.82 -0.1,-8.44 -0.91,-11.38 -3.9,-14.19 -4.09,-28.33 -3.5,-42.19 0.7,-13.85 2.98,-27.44 7.91,-40.66 1.04,-2.91 2.14,-5.62 3.28,-8.23 0.99,-2.6 3.77,-5.18 5.4,-7.76 3.5,-5.17 5.91,-10.48 11.67,-17.19 -0.96,1.82 -1.91,3.62 -2.84,5.36 -0.67,1.75 -0.89,3.45 -1.32,5.11 -0.92,3.33 -0.79,6.48 -1.92,9.46 -0.98,3 -0.76,5.75 -0.83,8.32 -0.03,2.54 -0.06,4.87 -0.08,6.95 3.04,5.14 5.83,8.76 9.04,13.15 0.06,-5.27 0.04,-11.66 0.73,-17.6 0.29,-2.77 0.72,-5.41 1.17,-8.02 0.62,-2.61 1.33,-5.2 1.74,-7.82 0.34,5.08 1.33,9.88 2.02,15.27 1.27,11.51 2.49,22.62 4.04,36.73 4.33,-17.99 6.76,-31.2 8.58,-43.19 0.55,-4.12 0.81,-4.93 1.99,-3.77 1.27,1.16 2.38,4.32 3.58,8.21 3.95,11.91 8.01,23.07 12.03,36.59 1.4,-9.21 1.72,-15.52 2.33,-24.75 2.25,6.34 4.01,9.52 4.76,13.25 2.69,17.21 4.86,34.4 6.34,51.57 0.76,17.2 0.24,34.37 -1.89,51.54 -4.23,32.22 2.84,104.99 10.88,131.63 0.63,2.11 0.9,6.24 0.57,8.78 -2.02,15.69 -4.1,31.81 -6.11,47.46 -0.61,5.24 -0.94,11.33 -0.61,16.65 1.57,29.14 4.39,58.07 4.72,87.29 -0.02,6.47 -1.28,13.58 -1.94,20.38 l -2.13,0.31 c -0.44,-14.2 -0.23,-28.42 -1.58,-42.58 l -1.94,0.11 c -0.1,8.84 -1.15,17.88 -1.14,26.52 0.11,14.13 0.2,28.33 0.3,42.56 l 0.06,21.26 c -0.57,7.11 -1.48,14.24 -2.29,21.37 -0.32,2.41 -0.62,4.78 -0.94,7.2 -0.64,2.46 -1.79,4.97 -3.3,7.55 -4.18,5.23 -7.28,10.7 -7.44,16.57 -0.29,-4.66 1.1,-9.92 3.02,-14.07 0.51,-1.03 0.56,-1.98 1.22,-2.86 -0.18,-0.85 0.02,-1.61 -0.06,-2.24 -0.07,-1.27 -0.31,-2.05 -0.76,-2.12 -3.86,-0.64 -9.07,2.38 -11.68,7.71 -1.32,3.13 -1.81,4.39 -2.76,1.8 -1.32,-2.57 -3.69,-8.98 -4.25,-21.35 -0.63,0.82 -1.02,3.45 -1.28,6.53 l -0.35,4.79 c 0.36,1.57 0.39,3.1 0.58,4.39 0.41,2.57 1.11,4.2 0.26,3.57 -0.78,-0.62 -3.42,-3.51 -5.64,-10.1 -2.83,-2.2 -5.41,-1.47 -6.75,-5.58 z m -0.13,-13.53 c 0.03,-6.74 0.63,-18.48 -0.62,-30.99 -1.12,-12.51 -3.39,-25.82 -6.94,-35.79 1.13,10.98 2.25,21.96 3.38,33.05 0.57,5.55 1.14,11.12 1.72,16.75 0.5,5.62 1.1,11.29 2.46,16.98 z m -8.15,-147.44 -1.26,0.4 c 1.47,22.9 2.4,45.83 4.33,68.72 l 2.98,-0.69 c -2.36,-22.81 -3.96,-45.63 -6.05,-68.43 z m 33.62,-193 c -3.47,30.44 -0.45,56.33 4.62,84.83 -1.6,-29.4 -3.01,-55.26 -4.62,-84.83 z m -48.38,-150.56 -2.28,-1.15 c -2.97,13.93 -3.81,27.79 -4.74,41.65 l 2.96,0.43 c 1.15,-13.54 6.34,-25.45 4.06,-40.93 z m 28.09,447.14 2.06,-0.38 c -1.99,-23.94 -4.11,-47.88 -5.53,-71.84 l -1.16,0.24 c 1,24.02 2.84,48 4.63,71.98 z m -26.67,-382.57 -2.32,-0.55 c -1.22,13.48 -1.19,26.92 -1.84,40.38 l 3.71,1.02 c 0.19,-13.61 -0.22,-27.21 0.45,-40.85 z m 25.99,260.65 2.22,0.24 -1.27,-49.05 -2.2,0.42 1.25,48.39"
         style="fill:#231f20;fill-opacity:1;fill-rule:evenodd;stroke:none"
         id="path4062" />
      <path
         inkscape:connector-curvature="0"
         d="m 6680.73,4529.92 c 1.13,10.98 2.25,21.96 3.38,33.05 0.57,5.55 1.14,11.12 1.72,16.75 0.5,5.62 1.1,11.29 2.46,16.98 0.03,-6.74 0.63,-18.48 -0.62,-30.99 -1.12,-12.51 -3.39,-25.82 -6.94,-35.79"
         style="fill:#ffffff;fill-opacity:1;fill-rule:evenodd;stroke:none"
         id="path4064" />
      <path
         inkscape:connector-curvature="0"
         d="m 6686.19,4517.69 c -2.36,-22.81 -3.96,-45.63 -6.05,-68.43 l -1.26,0.4 c 1.47,22.9 2.4,45.83 4.33,68.72 l 2.98,-0.69"
         style="fill:#ffffff;fill-opacity:1;fill-rule:evenodd;stroke:none"
         id="path4066" />
      <path
         inkscape:connector-curvature="0"
         d="m 6718.38,4341.09 c -1.6,-29.4 -3.01,-55.26 -4.62,-84.83 -3.47,30.44 -0.45,56.33 4.62,84.83"
         style="fill:#ffffff;fill-opacity:1;fill-rule:evenodd;stroke:none"
         id="path4068" />
      <path
         inkscape:connector-curvature="0"
         d="m 6661.32,4146.63 c 1.15,-13.54 6.34,-25.45 4.06,-40.93 l -2.28,-1.15 c -2.97,13.93 -3.81,27.79 -4.74,41.65 l 2.96,0.43"
         style="fill:#ffffff;fill-opacity:1;fill-rule:evenodd;stroke:none"
         id="path4070" />
      <path
         inkscape:connector-curvature="0"
         d="m 6688.84,4480.86 c 1,24.02 2.84,48 4.63,71.98 l 2.06,-0.38 c -1.99,-23.94 -4.11,-47.88 -5.53,-71.84 l -1.16,0.24"
         style="fill:#ffffff;fill-opacity:1;fill-rule:evenodd;stroke:none"
         id="path4072" />
      <path
         inkscape:connector-curvature="0"
         d="m 6666.35,4211.12 c 0.19,-13.61 -0.22,-27.21 0.45,-40.85 l -2.32,-0.55 c -1.22,13.48 -1.19,26.92 -1.84,40.38 l 3.71,1.02"
         style="fill:#ffffff;fill-opacity:1;fill-rule:evenodd;stroke:none"
         id="path4074" />
      <path
         inkscape:connector-curvature="0"
         d="m 6691.54,4382.53 1.25,48.39 2.22,0.24 -1.27,-49.05 -2.2,0.42"
         style="fill:#ffffff;fill-opacity:1;fill-rule:evenodd;stroke:none"
         id="path4076" />
      <path
         inkscape:connector-curvature="0"
         d="m 7402.75,4993.75 c -1.37,-0.19 -2.61,-0.36 -3.73,-0.51 -1.34,-0.1 -2.29,-0.73 -4.47,0.12 -0.5,0.16 -0.91,0.2 -1.47,0.45 l -0.88,-0.29 c -0.63,-0.21 -1.22,-0.41 -1.77,-0.59 -1.21,-0.45 -2.31,-0.86 -3.41,-1.28 -8.69,-3.83 -17.75,-7.11 -24.4,-13.39 -7.2,-5.62 -14.44,-11.19 -22.5,-15.88 -1,-0.58 -1.6,-1.72 -2.59,-2.31 -4.02,-2.34 -8.31,-4.84 -12.26,-7.13 -6.75,-4.46 -14.03,-8.26 -20.11,-13.53 -4.07,-3.28 -7.55,-7.3 -11.79,-10.3 -6.49,-4.6 -13.44,-8.58 -20.19,-12.83 -1.18,-0.74 -2.25,-2.06 -3.5,-2.22 -3.14,-0.23 -5.33,-1.62 -7.43,-3.08 -2.02,-1.55 -3.93,-3.21 -5.02,-5.84 -1.04,-2.68 -2.62,-4.65 -2.64,-8.49 -0.13,-3.69 -0.63,-6.88 -0.79,-10.41 -0.15,-6.44 0.9,-12.26 0.52,-19.25 2.14,5.57 4.77,9.4 6.59,11.9 2.82,-0.45 5.02,-1.03 7.75,-1.81 -1.14,-1.61 -2.8,-3.23 -3.91,-5.26 -1.06,-1.85 -1.75,-3.87 -2.7,-5.69 1.56,0.99 3.32,1.6 5,2.64 3.48,2.12 6.99,4.39 11.64,6.78 -2.21,-7.49 -4.69,-11.94 -7.25,-15.63 -1.87,-2.41 0.44,-2.38 4.02,-2.3 2.81,0 5.39,0.17 8.37,-0.04 1.52,-0.16 3.1,-0.32 4.71,-0.48 1.55,-0.1 2.98,0.01 4.58,-0.01 -1.75,-3.09 -4,-3.93 -6.81,-5.74 3.27,-0.35 5.52,-1.27 7.24,-1.24 3.71,0.41 6.79,1.55 10.08,2.45 2.93,1.33 5.8,2.75 8.51,4.35 4.94,3.77 9.06,8.54 12.25,14.42 5.82,11.19 29.08,24.39 39.88,26.52 0.9,0.12 2.11,1.01 2.57,1.88 2.89,5.52 5.58,11.11 8.62,16.46 1,1.76 2.37,3.56 3.92,4.7 8.47,6.29 17,12.43 25.23,19.04 1.56,1.79 2.48,4.71 3.73,7.05 l -1.09,1.47 c -1.77,-1.89 -3.45,-3.89 -5.36,-5.61 l -6.29,-4.47 -1.05,1.32 c 2.08,2.5 4.2,5.04 6.35,7.35 3.33,3.75 6.83,7.69 10.35,11.64 l 5.08,5.94 c 0.06,3.99 2.08,5.56 3.34,8.08 1.72,3.31 3.95,6.13 6.39,9.83 -2.92,-1.76 -6.35,-4.09 -7.26,-3.18 -1.93,1.94 -3.09,4.99 -3.18,8.1 -0.1,3.66 -0.49,3.46 -8.14,-1.33 -0.29,2.18 9.59,8.61 -0.25,5.45 -1.83,0.93 -2.74,2.41 -4.48,2.18 z m -3.89,-2.97 c -3.07,-0.09 -5.65,-3.62 -9.93,-5.53 -4.12,-2.14 -9.07,-3.71 -13.85,-3.61 3.72,1.73 7.45,3.45 11.22,5.2 l 5.68,2.62 2.88,1.33 c 0.9,0.52 3.1,-0.55 4,-0.01 z m -45.43,-28.71 -0.61,0.95 20.48,14.25 1.5,-2.17 -21.37,-13.03 z m -30.9,-71.86 c 5.74,10.31 14.57,14.33 24.54,18.49 -8.14,-6.85 -16,-12.02 -24.54,-18.49 z m -65.57,-6.51 -1.39,1.02 c 0.84,2.92 1.7,5.81 2.31,9.02 0.79,2.99 2.35,5.03 3.46,7.63 l 1.82,-1.94 c -1.13,-2.48 -1.68,-5.41 -2.45,-8.23 -0.38,-3.28 -1.42,-5.91 -3.75,-7.5 z m 131.42,94.96 1,-1.4 c -3.76,-2.26 -7.69,-4.3 -11.35,-6.67 l -10.8,-7.35 -0.58,0.83 10.52,7.72 c 3.59,2.47 7.48,4.57 11.21,6.87 z m -116.12,-76.77 -1.52,1.5 c 2.66,4.42 6.27,7.68 9.36,11.58 l 2.48,-2.38 c -3.42,-3.61 -7.28,-6.66 -10.32,-10.7 z m 83.47,47.09 1.32,-1.43 -13.57,-11.43 -1.14,1.61 13.39,11.25"
         style="fill:#231f20;fill-opacity:1;fill-rule:evenodd;stroke:none"
         id="path4078" />
      <path
         inkscape:connector-curvature="0"
         d="m 7375.08,4981.64 c 3.72,1.73 7.45,3.45 11.22,5.2 l 5.68,2.62 2.88,1.33 c 0.9,0.52 3.1,-0.55 4,-0.01 -3.07,-0.09 -5.65,-3.62 -9.93,-5.53 -4.12,-2.14 -9.07,-3.71 -13.85,-3.61"
         style="fill:#ffffff;fill-opacity:1;fill-rule:evenodd;stroke:none"
         id="path4080" />
      <path
         inkscape:connector-curvature="0"
         d="m 7374.8,4975.1 -21.37,-13.03 -0.61,0.95 20.48,14.25 1.5,-2.17"
         style="fill:#ffffff;fill-opacity:1;fill-rule:evenodd;stroke:none"
         id="path4082" />
      <path
         inkscape:connector-curvature="0"
         d="m 7347.07,4908.7 c -8.14,-6.85 -16,-12.02 -24.54,-18.49 5.74,10.31 14.57,14.33 24.54,18.49"
         style="fill:#ffffff;fill-opacity:1;fill-rule:evenodd;stroke:none"
         id="path4084" />
      <path
         inkscape:connector-curvature="0"
         d="m 7263.16,4899.43 c -1.13,-2.48 -1.68,-5.41 -2.45,-8.23 -0.38,-3.28 -1.42,-5.91 -3.75,-7.5 l -1.39,1.02 c 0.84,2.92 1.7,5.81 2.31,9.02 0.79,2.99 2.35,5.03 3.46,7.63 l 1.82,-1.94"
         style="fill:#ffffff;fill-opacity:1;fill-rule:evenodd;stroke:none"
         id="path4086" />
      <path
         inkscape:connector-curvature="0"
         d="m 7366.65,4964.07 10.52,7.72 c 3.59,2.47 7.48,4.57 11.21,6.87 l 1,-1.4 c -3.76,-2.26 -7.69,-4.3 -11.35,-6.67 l -10.8,-7.35 -0.58,0.83"
         style="fill:#ffffff;fill-opacity:1;fill-rule:evenodd;stroke:none"
         id="path4088" />
      <path
         inkscape:connector-curvature="0"
         d="m 7282.58,4912.59 c -3.42,-3.61 -7.28,-6.66 -10.32,-10.7 l -1.52,1.5 c 2.66,4.42 6.27,7.68 9.36,11.58 l 2.48,-2.38"
         style="fill:#ffffff;fill-opacity:1;fill-rule:evenodd;stroke:none"
         id="path4090" />
      <path
         inkscape:connector-curvature="0"
         d="m 7342.34,4937.73 13.39,11.25 1.32,-1.43 -13.57,-11.43 -1.14,1.61"
         style="fill:#ffffff;fill-opacity:1;fill-rule:evenodd;stroke:none"
         id="path4092" />
      <path
         inkscape:connector-curvature="0"
         d="m 7508.14,3795.93 c -1.06,0.32 -2.16,0.65 -3.92,1.65 -1.23,0.84 -2.43,1.65 -3.6,2.45 l -1.83,1.25 -0.93,0.63 -0.47,0.32 -0.23,0.16 -0.11,0.08 -0.04,0.02 -0.01,0.01 c -1.47,1.5 -0.41,0.41 -0.74,0.74 l -0.01,0 c -1.31,-0.53 -2.48,-0.98 -3.54,-1.4 -2.33,-1.02 -4.57,-2.21 -6.54,-3.55 -7.91,-5.44 -13.58,-13.12 -20.17,-19.81 -6.37,-6.54 -12.88,-13.01 -20.49,-18.38 -0.94,-0.67 -1.32,-1.99 -2.25,-2.68 -3.79,-2.79 -7.82,-5.31 -11.53,-8.17 -6.3,-5.1 -13.02,-9.3 -19.26,-14.23 -4.07,-3.13 -7.46,-7.11 -11.7,-9.99 -6.2,-4.69 -12.59,-9.37 -19.35,-12.97 -1.15,-0.67 -2.14,-2.01 -3.44,-2.03 -11.96,-0.8 -19.47,-6.19 -17.86,-24.57 -0.48,-2.9 -0.47,-5.95 0.17,-10.09 0.1,-3.35 1.72,-9.11 2.21,-14.12 0.27,1.93 0.55,3.78 0.79,5.56 0.42,1.51 1.28,2.26 1.87,3.31 1.26,1.94 3,2.71 4.09,3.76 3.77,-2.08 5.36,-1.99 9.01,-4.3 -0.78,-0.56 -1.26,-1.75 -1.87,-2.8 -0.75,-0.82 -1.51,-1.7 -2.16,-2.69 -1.24,-1.77 -1.87,-4.09 -2.77,-6.22 1.79,0.72 3.85,0.87 5.77,1.64 3.89,1.66 7.65,3.73 12.81,5.63 -1.02,-4.23 -1.94,-7.95 -3.13,-10.87 -1.41,-2.57 -2.27,-5.47 -3.36,-7.9 -1.66,-3.07 1.16,-3.87 4.79,-3.83 1.41,0 2.84,-0.07 4.3,-0.16 1.12,0.39 3.91,-1.59 5.31,-1.54 3.07,-0.25 6.33,-0.53 9.74,-0.82 -1.02,-1.65 -1.89,-3.05 -2.75,-4.44 -1.05,-1.14 -1.23,-3.53 -3.9,-2.87 1.15,-0.61 2.26,-1.21 3.29,-1.76 0.69,-0.11 1.33,-0.22 1.88,-0.31 1.13,-0.17 2.04,-0.26 2.83,-0.07 1.83,0.44 3.64,0.88 5.39,1.31 1.66,0.64 3.19,1.46 4.75,2.23 3.11,1.58 6.12,3.29 8.98,5.22 5.59,3.92 10.95,8.37 14,15.12 6.54,11.79 29.73,28.1 43.26,28.94 1.04,0.09 2.33,1.04 2.76,2.04 2.63,6.21 4.96,12.53 7.66,18.57 0.89,1.98 2.21,4 3.85,5.24 8.87,6.78 18.56,13.4 26.75,20.4 1.85,1.55 2.82,4.34 4.2,6.54 l -1.83,1.96 -12.94,-9.53 -1.6,1.64 c 1.97,2.7 3.56,5.87 5.98,8 3.9,3.62 8.23,6.74 11.91,10.56 l 5.4,5.82 2.65,2.96 0.34,0.37 0.17,0.16 0.05,0.04 c -0.29,0.31 0.68,-0.67 -0.65,0.69 l -0.02,0.03 -0.04,0.06 -0.07,0.11 -0.29,0.48 -2.36,3.79 -1.18,1.91 -0.59,0.94 c -0.06,0.19 0.41,-0.17 -0.09,0.45 l -0.37,1.79 c -0.38,1.75 -0.72,3.31 -1.07,4.9 -0.15,1.44 0.9,1.68 1.3,2.62 1.12,1.56 2.3,3.22 3.6,5.02 -3.45,-1.47 -7.16,-3.81 -8.32,-2.83 -2.48,2.11 -4.2,5.36 -4.96,8.92 -0.45,2.08 -0.8,3.1 -1.93,2.84 -1.29,-0.08 -2.31,-2.49 -7.83,-3.47 -0.19,0.6 0.48,1.32 1.5,1.91 0.48,0.33 1.21,0.47 1.64,0.88 l 0.8,1.52 c 0.45,0.93 0.63,1.62 0.12,1.79 -0.25,0.08 -0.67,0.03 -1.33,-0.2 l -1.15,-0.45 c -0.44,-0.21 -0.86,-0.55 -2.08,-0.19 -2.78,1.59 -4.05,3.21 -7.26,4.26 z m -9.67,2.59 c -0.29,-3.27 -2.83,-6.94 -6.58,-9.8 -3.68,-2.93 -8.19,-5.48 -13.24,-5.73 3.12,2.7 6.12,5.52 9.35,8.16 3.44,2.42 6.92,4.87 10.47,7.37 z m -38.15,-39.22 -0.93,1.16 c 6.37,5.51 12.77,10.7 19.15,16.57 l 2.39,-2.73 c -6.83,-5.37 -13.73,-10.05 -20.61,-15 z m -21.93,-82.56 c 5.38,11.62 14.24,16.29 25.47,20.19 -8.81,-7.03 -16.45,-13.34 -25.47,-20.19 z m -74.15,4.24 -1.8,1.83 c 0.52,7.83 3.54,11.88 6.52,16 l 2.19,-2.68 c -1.62,-1.78 -1.82,-5.29 -2.75,-7.99 -0.45,-1.38 -1.06,-2.57 -1.92,-3.5 -0.12,-0.91 -0.39,-1.64 -0.33,-2.85 -0.62,-0.25 -1.18,-0.64 -1.91,-0.81 z m 130.33,98.31 1.8,-1.99 c -6.88,-5.73 -13.68,-11.78 -20.68,-17.19 l -0.89,1.03 c 6.66,5.74 13.17,12.12 19.77,18.15 z m -113,-83.06 -1.77,1.98 9.13,11.42 2.93,-3.04 -10.29,-10.36 z m 84.62,47.38 1.84,-1.77 -12.78,-12.95 -1.62,1.93 12.56,12.79"
         style="fill:#231f20;fill-opacity:1;fill-rule:evenodd;stroke:none"
         id="path4094" />
      <path
         inkscape:connector-curvature="0"
         d="m 7478.65,3782.99 c 3.12,2.7 6.12,5.52 9.35,8.16 3.44,2.42 6.92,4.87 10.47,7.37 -0.29,-3.27 -2.83,-6.94 -6.58,-9.8 -3.68,-2.93 -8.19,-5.48 -13.24,-5.73"
         style="fill:#ffffff;fill-opacity:1;fill-rule:evenodd;stroke:none"
         id="path4096" />
      <path
         inkscape:connector-curvature="0"
         d="m 7480.93,3774.3 c -6.83,-5.37 -13.73,-10.05 -20.61,-15 l -0.93,1.16 c 6.37,5.51 12.77,10.7 19.15,16.57 l 2.39,-2.73"
         style="fill:#ffffff;fill-opacity:1;fill-rule:evenodd;stroke:none"
         id="path4098" />
      <path
         inkscape:connector-curvature="0"
         d="m 7463.86,3696.93 c -8.81,-7.03 -16.45,-13.34 -25.47,-20.19 5.38,11.62 14.24,16.29 25.47,20.19"
         style="fill:#ffffff;fill-opacity:1;fill-rule:evenodd;stroke:none"
         id="path4100" />
      <path
         inkscape:connector-curvature="0"
         d="m 7371.15,3696.13 c -1.62,-1.78 -1.82,-5.29 -2.75,-7.99 -0.45,-1.38 -1.06,-2.57 -1.92,-3.5 -0.12,-0.91 -0.39,-1.64 -0.33,-2.85 -0.62,-0.25 -1.18,-0.64 -1.91,-0.81 l -1.8,1.83 c 0.52,7.83 3.54,11.88 6.52,16 l 2.19,-2.68"
         style="fill:#ffffff;fill-opacity:1;fill-rule:evenodd;stroke:none"
         id="path4102" />
      <path
         inkscape:connector-curvature="0"
         d="m 7474.8,3761.14 c 6.66,5.74 13.17,12.12 19.77,18.15 l 1.8,-1.99 c -6.88,-5.73 -13.68,-11.78 -20.68,-17.19 l -0.89,1.03"
         style="fill:#ffffff;fill-opacity:1;fill-rule:evenodd;stroke:none"
         id="path4104" />
      <path
         inkscape:connector-curvature="0"
         d="m 7391.86,3706.59 -10.29,-10.36 -1.77,1.98 9.13,11.42 2.93,-3.04"
         style="fill:#ffffff;fill-opacity:1;fill-rule:evenodd;stroke:none"
         id="path4106" />
      <path
         inkscape:connector-curvature="0"
         d="m 7453.63,3730.82 12.56,12.79 1.84,-1.77 -12.78,-12.95 -1.62,1.93"
         style="fill:#ffffff;fill-opacity:1;fill-rule:evenodd;stroke:none"
         id="path4108" />
      <path
         inkscape:connector-curvature="0"
         d="m 6691.46,4034.69 c -4.58,-2.81 -9.34,-6.61 -13.15,-10.64 -15.47,-16.17 -27.48,-34.61 -43.9,-50.25 -1.01,-0.96 -1.43,-2.44 -2.44,-3.42 -4.15,-3.96 -8.52,-7.75 -12.24,-12.05 -6.55,-7.28 -13.05,-14.61 -19.32,-22.1 -4.07,-4.86 -7.25,-10.43 -11.59,-15.02 -6.67,-7.04 -14.07,-13.46 -21.21,-20.12 -1.24,-1.16 -2.2,-2.97 -3.7,-3.46 -14.5,-4.81 -18.86,-16.85 -20.62,-29.82 -0.35,-2.9 0.13,-5.92 0.99,-9.33 0.58,-1.78 1.2,-3.68 1.84,-5.68 l 0.46,-1.49 c 0.06,-0.25 0.2,-0.54 0.24,-0.77 l 0.97,-1.32 c 1.25,-1.79 2.52,-3.6 3.8,-5.41 -0.62,1.44 -1.25,2.87 -1.86,4.27 -0.04,0.98 0.88,1.22 1.24,1.84 1.02,1.05 1.85,2.15 2.96,2.93 2.08,1.68 3.88,3.15 5.35,4.33 5.33,-1.13 9.1,-1.91 13.67,-2.88 -1.22,-1.96 -3.01,-4.12 -3.99,-6.63 -0.91,-2.34 -1.01,-4.99 -1.39,-7.57 2.27,1.08 4.93,1.74 6.92,3.21 4.13,3.01 7.95,6.44 12.89,10.52 0.23,-9.94 0.04,-16.98 0.72,-24.02 0.45,-4.84 3.46,-4.37 7.09,-2.79 5.57,2.42 11.45,4.21 18.18,6.63 -0.52,-4.61 -0.87,-7.81 -1.4,-12.46 3.21,1.12 5.39,1.26 6.6,2.4 5.56,5.3 11.14,10.58 15.5,16.74 4.17,6.3 7.41,13.28 9.04,21.41 3.08,15.24 24.91,38.86 37.93,43.84 1.04,0.38 2.26,1.73 2.58,2.88 2.14,7.06 3.58,14.5 5.45,21.79 0.64,2.38 1.68,4.92 3.13,6.75 7.93,10.04 15.92,19.94 23.4,30.34 1.65,2.31 2.44,5.58 3.64,8.39 l -1.72,1.42 -11.75,-14.53 -1.57,1.2 c 1.76,3.52 3.18,7.38 5.39,10.45 7.3,10.1 14.8,19.96 21.87,30.2 1.72,3.9 1.92,9.08 3.12,14.59 -3.04,-2.83 -6.5,-6.51 -8.57,-5.15 -4.41,2.88 -8.44,7.46 -10.85,12.13 -2.58,5.31 -3.77,5.55 -11.07,-2.54 -2.77,3.81 8.04,13.47 -4.79,8.5 -1.68,0.63 -3.16,1.51 -4.49,2.14 -1.35,0.67 -2.62,1.15 -3.35,0.55 z m -1.47,-6.31 c -0.74,-6.83 -9.89,-18.24 -20.05,-21.67 6.6,7.12 13.18,14.25 20.05,21.67 z m -39.78,-51.06 -0.97,0.92 20.24,22.53 2.3,-2.04 -21.57,-21.41 z m -15.42,-93.46 c 3.59,13.91 12.23,21.66 22.98,29.3 -7.97,-10.15 -14.98,-19.09 -22.98,-29.3 z m -84.35,-20.12 -3.08,1.64 8.38,16.43 3.08,-2.01 c -2.55,-5.49 0.1,-13.89 -8.38,-16.06 z m 135.18,143.99 1.68,-1.41 -21.21,-23.55 -0.9,0.79 20.43,24.17 z m -115.14,-123.63 -2.39,1.45 c 2.68,5.34 5.61,10.5 8.45,15.74 l 3.73,-2.17 -9.79,-15.02 z m 86.07,78.67 1.96,-1.29 -12.65,-17.4 -1.82,1.56 12.51,17.13"
         style="fill:#231f20;fill-opacity:1;fill-rule:evenodd;stroke:none"
         id="path4110" />
      <path
         inkscape:connector-curvature="0"
         d="m 6669.94,4006.71 c 6.6,7.12 13.18,14.25 20.05,21.67 -0.74,-6.83 -9.89,-18.24 -20.05,-21.67"
         style="fill:#ffffff;fill-opacity:1;fill-rule:evenodd;stroke:none"
         id="path4112" />
      <path
         inkscape:connector-curvature="0"
         d="m 6671.78,3998.73 -21.57,-21.41 -0.97,0.92 20.24,22.53 2.3,-2.04"
         style="fill:#ffffff;fill-opacity:1;fill-rule:evenodd;stroke:none"
         id="path4114" />
      <path
         inkscape:connector-curvature="0"
         d="m 6657.77,3913.16 c -7.97,-10.15 -14.98,-19.09 -22.98,-29.3 3.59,13.91 12.23,21.66 22.98,29.3"
         style="fill:#ffffff;fill-opacity:1;fill-rule:evenodd;stroke:none"
         id="path4116" />
      <path
         inkscape:connector-curvature="0"
         d="m 6558.82,3879.8 c -2.55,-5.49 0.1,-13.89 -8.38,-16.06 l -3.08,1.64 8.38,16.43 3.08,-2.01"
         style="fill:#ffffff;fill-opacity:1;fill-rule:evenodd;stroke:none"
         id="path4118" />
      <path
         inkscape:connector-curvature="0"
         d="m 6665.19,3983.56 20.43,24.17 1.68,-1.41 -21.21,-23.55 -0.9,0.79"
         style="fill:#ffffff;fill-opacity:1;fill-rule:evenodd;stroke:none"
         id="path4120" />
      <path
         inkscape:connector-curvature="0"
         d="m 6580.27,3899.12 -9.79,-15.02 -2.39,1.45 c 2.68,5.34 5.61,10.5 8.45,15.74 l 3.73,-2.17"
         style="fill:#ffffff;fill-opacity:1;fill-rule:evenodd;stroke:none"
         id="path4122" />
      <path
         inkscape:connector-curvature="0"
         d="m 6644.04,3945.64 12.51,17.13 1.96,-1.29 -12.65,-17.4 -1.82,1.56"
         style="fill:#ffffff;fill-opacity:1;fill-rule:evenodd;stroke:none"
         id="path4124" />
      <path
         inkscape:connector-curvature="0"
         d="m 7419.67,4047.79 c -2.17,-1.02 -4.72,-1.99 -6.49,-3.58 -1.76,-1.59 -3.38,-3.36 -4.76,-5.19 -11.13,-14.77 -19.03,-31.57 -31.4,-45.62 -0.77,-0.87 -0.95,-2.21 -1.69,-3.09 -3.07,-3.6 -6.4,-7.01 -9.4,-10.67 -4.88,-6.5 -9.68,-13.06 -14.29,-19.75 -2.99,-4.33 -5.2,-9.25 -8.45,-13.35 -5.03,-6.27 -10.62,-12.09 -15.26,-18.59 -0.84,-1.11 -1.41,-2.76 -2.5,-3.33 -2.53,-1.41 -4.86,-2.94 -6.32,-5.06 -1.42,-2.15 -2.46,-4.54 -3.22,-7.08 -0.37,-1.29 -0.75,-2.56 -0.93,-3.96 0.29,-1.53 0.63,-3.27 1.01,-5.24 0.03,-3.03 -0.29,-5.77 -0.29,-8.67 0.44,-5.48 2.32,-10.33 5.8,-18.59 -0.07,1.64 -0.13,3.23 -0.2,4.74 0.15,1.37 0.86,2.28 1.24,3.32 0.82,2.06 1.76,3.71 2.77,4.85 3.26,0.03 5.68,-0.01 8.67,-0.11 -0.89,-1.73 -2.15,-3.68 -2.94,-5.78 -0.69,-1.97 -0.75,-4.16 -1.22,-6.15 1.44,1.25 3.07,2.25 4.51,3.66 3.3,3.32 5.96,5.99 9.62,9.66 -0.38,-7.7 -1.34,-12.87 -2.13,-17.63 -0.76,-3.13 1.48,-2.49 4.68,-1.25 2.27,1.09 4.54,2.1 7.02,3.05 2.01,1.28 6.32,1.01 9.07,2.12 -0.27,-1.85 -1.7,-2.56 -2.49,-3.73 -1.06,-0.98 -1.25,-2.57 -2.07,-4.06 2.82,0.88 4.29,1.28 6.21,1.6 13.66,5.8 21.6,15.59 25.49,28.11 2.8,12.32 21.46,31.74 33.34,35.37 0.95,0.29 2.03,1.37 2.31,2.3 1.4,5.82 2.95,12.28 4.34,18.03 0.51,1.95 1.42,4.04 2.72,5.49 7.15,7.99 14.49,15.75 21.46,23.9 1.53,1.79 2.12,4.54 3.14,6.84 l -1.9,1.44 -10.83,-11.38 -1.65,1.18 c 1.51,2.88 2.61,6.12 4.61,8.57 3.2,3.86 6.56,7.9 9.96,11.97 3.28,4 7,7.71 9.13,12.54 1.63,3.08 2.77,6.6 4.45,10.65 -4.52,-0.97 -8.67,-3.16 -11.16,-1.57 -5.33,3.43 -10.26,8.18 -14.07,13.2 -4.44,5.87 -5.49,6.1 -10.89,-1.15 -2.69,3.31 3.2,13.63 -6.78,8.78 -3.51,1.46 -6.58,3.9 -8.22,3.21 z m -0.69,-5.56 c 0.79,-6.57 -5.96,-16.7 -14.94,-19.37 4.92,6.36 9.69,12.82 14.94,19.37 z m -28.48,-45.82 -1,0.86 15.17,20.03 2.51,-2.03 -16.68,-18.86 z m -7.8,-80.1 c 2.89,11.48 10.01,18.06 19.28,24.31 -6.69,-8.42 -12.57,-15.83 -19.28,-24.31 z m -62.77,-23.65 -1.83,0.75 c 0.53,2.7 1.74,4.93 1.67,8.07 0.03,1.52 -0.46,3.41 -0.04,4.65 l 1.1,3.85 2.24,-1.34 c -0.62,-2.58 -0.73,-5.31 0,-8.76 0.66,-3.4 -0.88,-5.34 -3.14,-7.22 z m 99,130.11 1.89,-1.46 -16.6,-20.44 -0.94,0.75 15.65,21.15 z m -87.91,-109.1 -1.86,1.03 5.5,14.11 3.02,-1.61 -6.66,-13.53 z m 66.78,69.59 1.89,-1.19 -9.83,-14.97 -1.7,1.36 9.64,14.8"
         style="fill:#231f20;fill-opacity:1;fill-rule:evenodd;stroke:none"
         id="path4126" />
      <path
         inkscape:connector-curvature="0"
         d="m 7404.04,4022.86 c 4.92,6.36 9.69,12.82 14.94,19.37 0.79,-6.57 -5.96,-16.7 -14.94,-19.37"
         style="fill:#ffffff;fill-opacity:1;fill-rule:evenodd;stroke:none"
         id="path4128" />
      <path
         inkscape:connector-curvature="0"
         d="m 7407.18,4015.27 -16.68,-18.86 -1,0.86 15.17,20.03 2.51,-2.03"
         style="fill:#ffffff;fill-opacity:1;fill-rule:evenodd;stroke:none"
         id="path4130" />
      <path
         inkscape:connector-curvature="0"
         d="m 7401.98,3940.62 c -6.69,-8.42 -12.57,-15.83 -19.28,-24.31 2.89,11.48 10.01,18.06 19.28,24.31"
         style="fill:#ffffff;fill-opacity:1;fill-rule:evenodd;stroke:none"
         id="path4132" />
      <path
         inkscape:connector-curvature="0"
         d="m 7323.07,3908.64 c -0.62,-2.58 -0.73,-5.31 0,-8.76 0.66,-3.4 -0.88,-5.34 -3.14,-7.22 l -1.83,0.75 c 0.53,2.7 1.74,4.93 1.67,8.07 0.03,1.52 -0.46,3.41 -0.04,4.65 l 1.1,3.85 2.24,-1.34"
         style="fill:#ffffff;fill-opacity:1;fill-rule:evenodd;stroke:none"
         id="path4134" />
      <path
         inkscape:connector-curvature="0"
         d="m 7403.28,4001.62 15.65,21.15 1.89,-1.46 -16.6,-20.44 -0.94,0.75"
         style="fill:#ffffff;fill-opacity:1;fill-rule:evenodd;stroke:none"
         id="path4136" />
      <path
         inkscape:connector-curvature="0"
         d="m 7337.68,3927.2 -6.66,-13.53 -1.86,1.03 5.5,14.11 3.02,-1.61"
         style="fill:#ffffff;fill-opacity:1;fill-rule:evenodd;stroke:none"
         id="path4138" />
      <path
         inkscape:connector-curvature="0"
         d="m 6634.43,3795.1 c 8.59,-0.85 17.34,-1.7 26.05,-2.56 9.03,-0.61 18.16,0.15 27.01,0.41 17.78,1 35.54,1.99 53.35,3 17.7,1.53 35.33,3.6 53.01,5.39 35.35,3.68 70.76,7.23 106.6,9.75 4.43,0.3 8.98,1.22 13.42,1.55 18.13,1.28 36.32,2.56 54.42,3.84 l 93.75,7.6 c 20.26,1.75 40.53,4.27 60.67,5.72 30.85,2.24 61.61,3.85 92.41,5.73 5.38,0.32 11.81,1.16 16.03,0.97 20.31,-0.86 40.22,0.04 59.57,2.11 19.38,1.75 38.06,6.28 56.14,10.19 8.02,1.82 14.7,3.84 21.57,6.91 3.39,1.93 6.86,3.86 10.57,5.77 l 2.84,1.45 c 0.97,0.35 1.94,1.02 2.89,2.15 1.92,1.93 3.94,3.85 6.07,5.71 -2.37,-1.68 -4.71,-3.33 -7,-4.95 -2.34,-1.07 -4.71,-1.21 -6.98,-1.84 -4.59,-0.92 -8.92,-2.13 -13.07,-2.37 -8.28,-0.81 -15.57,-0.95 -21.39,-1.34 -7.63,2.35 -13.01,4.02 -19.56,6.05 7.37,0.83 16.33,1.6 24.59,2.82 7.67,1.15 14.6,2.7 21.84,4.36 -7.18,-0.22 -14.05,0.3 -21.67,0.03 -16.02,-0.63 -31.94,-1.26 -51.9,-2.05 24.55,5.96 41.77,10.15 59.3,14.42 11.36,2.65 4.24,3.66 -6.87,4.01 -17.07,0.56 -33.17,1.86 -52.55,2.92 12.7,2.58 21.47,4.04 34.27,6.4 -9.11,0.61 -13.76,1.39 -19.06,1.26 -48.69,-1.99 -97.1,-5.55 -144.64,-13.9 -44.59,-7.95 -147.22,-13.97 -185.45,-11.51 -3.04,0.19 -8.85,-0.13 -12.38,-0.71 -21.89,-3.6 -43.92,-7.24 -65.79,-10.84 -7.26,-1.16 -15.76,-2.23 -23.25,-2.66 -40.95,-2.34 -82.01,-4.69 -122.91,-7.03 -9.1,-0.52 -18.94,-2.2 -28.37,-3.9 l -0.15,-1.96 c 19.92,1.91 39.94,2.29 59.92,3.5 l 0.08,-1.64 c -12.36,-1.38 -24.92,-3.21 -37.05,-4.05 -19.97,-1.33 -39.78,-3.7 -59.65,-5.51 l -29.77,-2.98 c -9.86,-1.66 -19.71,-3.73 -29.57,-5.67 -3.3,-0.69 -6.6,-1.38 -9.95,-2.08 -3.36,-0.82 -6.57,-4.01 -10.07,-4.97 -7.05,-1.35 -14.5,-2.77 -22.65,-4.33 7.27,0.45 13.86,0.86 19.61,1.21 2.88,0.02 5.34,0.22 7.09,0.82 1.77,0.37 2.87,0.39 3.03,0.02 1.38,-3.28 -2.18,-8.51 -9.32,-11.48 -8.36,-3.85 -6.71,-3.72 28.26,-3.29 -4.08,-4.65 -50.3,-0.23 -12.03,-7.16 3.44,-2.21 2.76,-4.66 8.69,-5.29 z m 18.96,1.77 c 9.44,0.88 25.75,3.51 43.41,4.39 17.63,1.12 36.56,1.06 50.93,-0.21 -15.5,-0.84 -30.98,-1.68 -46.64,-2.54 -7.83,-0.41 -15.7,-0.82 -23.63,-1.24 -7.92,-0.49 -15.92,-0.89 -24.07,-0.4 z m 207.1,17.95 -0.41,-1.09 -96.56,-8.16 0.59,2.69 96.38,6.56 z m 266.1,55.28 c -42.2,-7.19 -78.77,-8.79 -119.23,-9.28 41.31,3.22 77.67,6.05 119.23,9.28 z m 216.53,-16.63 1.9,-1.95 c -19.3,-2.71 -38.54,-6.02 -57.88,-8.1 l -0.97,2.3 c 18.89,2.28 34.88,8.87 56.95,7.75 z m -629.07,-44.88 0.28,1.91 c 33.76,1.8 67.41,4.79 101.12,7.21 l -0.2,-0.99 c -33.73,-2.74 -67.4,-6.14 -101.2,-8.13 z m 538.34,38.6 1.04,-1.71 -56.33,-7.08 -1.87,2.65 57.16,6.14 z m -367.76,-19.34 -0.61,1.72 68.77,6.59 -0.33,-1.75 -67.83,-6.56"
         style="fill:#231f20;fill-opacity:1;fill-rule:evenodd;stroke:none"
         id="path4142" />
      <path
         inkscape:connector-curvature="0"
         d="m 6747.73,3801.05 c -15.5,-0.84 -30.98,-1.68 -46.64,-2.54 -7.83,-0.41 -15.7,-0.82 -23.63,-1.24 -7.92,-0.49 -15.92,-0.89 -24.07,-0.4 9.44,0.88 25.75,3.51 43.41,4.39 17.63,1.12 36.56,1.06 50.93,-0.21"
         style="fill:#ffffff;fill-opacity:1;fill-rule:evenodd;stroke:none"
         id="path4144" />
      <path
         inkscape:connector-curvature="0"
         d="m 6764.11,3808.26 96.38,6.56 -0.41,-1.09 -96.56,-8.16 0.59,2.69"
         style="fill:#ffffff;fill-opacity:1;fill-rule:evenodd;stroke:none"
         id="path4146" />
      <path
         inkscape:connector-curvature="0"
         d="m 7007.36,3860.82 c 41.31,3.22 77.67,6.05 119.23,9.28 -42.2,-7.19 -78.77,-8.79 -119.23,-9.28"
         style="fill:#ffffff;fill-opacity:1;fill-rule:evenodd;stroke:none"
         id="path4148" />
      <path
         inkscape:connector-curvature="0"
         d="m 7286.17,3845.72 c 18.89,2.28 34.88,8.87 56.95,7.75 l 1.9,-1.95 c -19.3,-2.71 -38.54,-6.02 -57.88,-8.1 l -0.97,2.3"
         style="fill:#ffffff;fill-opacity:1;fill-rule:evenodd;stroke:none"
         id="path4150" />
      <path
         inkscape:connector-curvature="0"
         d="m 6815.25,3816.72 c -33.73,-2.74 -67.4,-6.14 -101.2,-8.13 l 0.28,1.91 c 33.76,1.8 67.41,4.79 101.12,7.21 l -0.2,-0.99"
         style="fill:#ffffff;fill-opacity:1;fill-rule:evenodd;stroke:none"
         id="path4152" />
      <path
         inkscape:connector-curvature="0"
         d="m 7195.23,3841.05 57.16,6.14 1.04,-1.71 -56.33,-7.08 -1.87,2.65"
         style="fill:#ffffff;fill-opacity:1;fill-rule:evenodd;stroke:none"
         id="path4154" />
      <path
         inkscape:connector-curvature="0"
         d="m 6952.46,3834.41 -67.83,-6.56 -0.61,1.72 68.77,6.59 -0.33,-1.75"
         style="fill:#ffffff;fill-opacity:1;fill-rule:evenodd;stroke:none"
         id="path4156" />
      <path
         inkscape:connector-curvature="0"
         d="m 7275.93,3824.55 c -1.41,-4.09 -2.29,-8.74 -2.27,-12.9 0.03,-4.19 0.27,-8.32 0.63,-12.42 0.81,-4 2.21,-7.86 3.29,-11.8 2.3,-7.85 4.45,-15.74 5.27,-24.01 0.1,-1.02 0.96,-1.92 1.09,-2.93 0.49,-4.17 0.66,-8.4 1.26,-12.55 0.99,-7.15 2.89,-14.11 4.57,-21.1 1.17,-4.54 3.28,-8.86 4.1,-13.43 1.24,-7 1.75,-14.13 2.59,-21.19 0.13,-1.24 0.88,-2.6 0.61,-3.65 -1.26,-5.02 -1.22,-9.69 1.86,-13.59 1.52,-1.94 3.34,-3.81 5.3,-5.59 1.2,-0.85 2.99,-1.57 4.45,-2.34 0.63,-0.96 5.93,-0.87 6.57,-1.8 2.13,-1.44 4.27,-2.57 6.64,-3.71 2.91,-1.03 5.8,-2.13 8.62,-3.65 -1.59,2.01 -3.38,3.82 -4.15,5.61 -0.79,1.77 -1.11,3.41 -1.93,4.61 0.14,1.77 2.35,3.48 4.27,5.41 0.43,-0.82 0.86,-1.63 1.33,-2.54 0.77,-0.81 1.68,-1.63 2.04,-2.53 1,-1.6 2.21,-2.99 3.36,-4.47 -0.08,1.68 0.35,3.36 0.23,5.13 -0.56,3.58 -0.68,7.35 -0.65,12.06 2.76,-2.34 5.04,-4.39 6.65,-6.35 0.97,-0.94 1.26,-1.98 1.7,-2.93 0.64,-0.87 1.27,-1.73 1.93,-2.63 1.64,-2.35 2.48,-0.51 3.58,2.33 0.33,1.07 0.77,2.15 2.33,3.48 1.41,1.3 1.72,2.35 2.67,3.55 1.89,2.43 2.61,4.65 4.19,7.27 1.58,-2.69 2.92,-4.47 2.62,-7.59 2.03,2.58 4.09,4.11 4.16,5.37 0.68,3.01 1.47,6.05 1.99,9.02 0.06,2.87 0.01,5.72 -0.25,8.5 -0.26,5.65 -2.72,10.78 -6.15,15.68 -6.76,9.11 -7.58,33.09 -1.67,43.32 0.46,0.81 0.34,2.15 -0.17,2.87 -3.32,4.51 -6.9,8.85 -10.11,13.4 -1.06,1.49 -1.93,3.31 -2.06,5.04 -0.78,9.48 -1.24,19 -2.24,28.44 -0.18,2.11 -1.74,4.1 -3.26,6.01 l -2.37,-0.46 c 1.18,-4.44 0.7,-9.25 1.1,-13.86 l -2.03,-0.44 c -1.04,2.7 -2.61,5.33 -3,8.1 -1.87,9 -4.64,17.74 -7.42,26.52 -0.52,1.46 -1.06,2.92 -1.93,4.42 -1.18,1.41 -2.43,2.91 -3.79,4.54 -1.09,-3.33 -1.66,-7.25 -4.51,-8 -5.63,-1.52 -11.92,-1.97 -17.66,-1.52 -6.41,0.62 -7.66,-0.04 -5.99,-7.87 -1.87,0.1 -3.81,2.62 -5.51,3.96 -1.35,1.41 -3.24,1.46 -4.67,-3.26 -3.14,-1.46 -6.7,-2.04 -7.21,-3.53 z m 3.42,-3.72 c 4.4,-3.49 5.81,-14.22 0.77,-22.02 -0.47,7.19 -0.49,14.47 -0.77,22.02 z m 10.72,-46.51 -1.33,-0.18 -4.08,21.88 3.26,0.53 2.15,-22.23 z m 52.8,-51.76 c -6.2,8.66 -6,17.3 -3.98,27.24 1.38,-9.43 2.59,-17.74 3.98,-27.24 z m -24.17,-55.76 c 0.02,-0.14 -0.95,-0.48 -1.3,-0.69 -9.12,2.54 -9.59,7.01 -13.22,10.78 l 2.55,0.75 c 1.55,-1.9 4.01,-3.43 5.85,-5.2 0.79,-0.9 1.83,-1.78 2.8,-2.73 0.75,-0.99 1.46,-2.04 3.32,-2.91 z m -27.47,142.22 2.32,0.41 c 0.32,-7.88 1.91,-15.47 2.88,-23.21 l -1.22,-0.2 c -1.36,7.65 -3.42,15.15 -3.98,23 z m 17.81,-122.98 -2.02,-0.66 c -2.31,3.94 -4.46,7.9 -6.29,11.94 l 3.27,1.12 c 1.44,-4.19 3.13,-8.32 5.04,-12.4 z m -4.22,85.63 2.19,0.6 4.08,-15.34 -2.2,-0.39 -4.07,15.13"
         style="fill:#231f20;fill-opacity:1;fill-rule:evenodd;stroke:none"
         id="path4158" />
      <path
         inkscape:connector-curvature="0"
         d="m 7280.12,3798.81 c -0.47,7.19 -0.49,14.47 -0.77,22.02 4.4,-3.49 5.81,-14.22 0.77,-22.02"
         style="fill:#ffffff;fill-opacity:1;fill-rule:evenodd;stroke:none"
         id="path4160" />
      <path
         inkscape:connector-curvature="0"
         d="m 7287.92,3796.55 2.15,-22.23 -1.33,-0.18 -4.08,21.88 3.26,0.53"
         style="fill:#ffffff;fill-opacity:1;fill-rule:evenodd;stroke:none"
         id="path4162" />
      <path
         inkscape:connector-curvature="0"
         d="m 7338.89,3749.8 c 1.38,-9.43 2.59,-17.74 3.98,-27.24 -6.2,8.66 -6,17.3 -3.98,27.24"
         style="fill:#ffffff;fill-opacity:1;fill-rule:evenodd;stroke:none"
         id="path4164" />
      <path
         inkscape:connector-curvature="0"
         d="m 7306.73,3677.64 c 1.55,-1.9 4.01,-3.43 5.85,-5.2 0.79,-0.9 1.83,-1.78 2.8,-2.73 0.75,-0.99 1.46,-2.04 3.32,-2.91 0.02,-0.14 -0.95,-0.48 -1.3,-0.69 -9.12,2.54 -9.59,7.01 -13.22,10.78 l 2.55,0.75"
         style="fill:#ffffff;fill-opacity:1;fill-rule:evenodd;stroke:none"
         id="path4166" />
      <path
         inkscape:connector-curvature="0"
         d="m 7295.21,3786.02 c -1.36,7.65 -3.42,15.15 -3.98,23 l 2.32,0.41 c 0.32,-7.88 1.91,-15.47 2.88,-23.21 l -1.22,-0.2"
         style="fill:#ffffff;fill-opacity:1;fill-rule:evenodd;stroke:none"
         id="path4168" />
      <path
         inkscape:connector-curvature="0"
         d="m 7304,3698.44 c 1.44,-4.19 3.13,-8.32 5.04,-12.4 l -2.02,-0.66 c -2.31,3.94 -4.46,7.9 -6.29,11.94 l 3.27,1.12"
         style="fill:#ffffff;fill-opacity:1;fill-rule:evenodd;stroke:none"
         id="path4170" />
      <path
         inkscape:connector-curvature="0"
         d="m 7308.89,3756.54 -4.07,15.13 2.19,0.6 4.08,-15.34 -2.2,-0.39"
         style="fill:#ffffff;fill-opacity:1;fill-rule:evenodd;stroke:none"
         id="path4172" />
      <path
         inkscape:connector-curvature="0"
         d="m 7219.26,4869.84 c -2.46,-3.8 -4.89,-8.29 -6.43,-12.46 -1.88,-8.45 -0.98,-16.84 -1.26,-25.25 -0.03,-8.41 -0.11,-16.83 -1.47,-25.32 -0.17,-1.05 0.36,-2.14 0.21,-3.2 -0.52,-4.3 -1.72,-8.6 -1.74,-12.91 -0.29,-7.41 -0.5,-14.83 -0.5,-22.25 0.01,-4.81 0.91,-9.64 0.6,-14.41 -0.48,-7.32 -1.68,-14.61 -2.58,-21.9 -0.15,-1.28 0.18,-2.81 -0.45,-3.8 -4.59,-9.54 0.3,-18.85 10.41,-27.53 1.48,-1.92 3.08,-3.54 5.06,-5.22 2.91,-1.68 5.77,-3.42 8.46,-5.59 -1.23,2.38 -2.97,4.6 -3.13,6.56 -0.05,1.98 -0.09,3.69 -0.13,5.07 2.51,1.75 3.9,2.99 6.2,4.49 0.58,-1.75 0.83,-3.89 1.32,-5.85 0.56,-1.83 1.38,-3.5 2.26,-5.24 0.32,1.7 1.25,3.31 1.55,5.11 0.71,3.72 1.03,7.55 2.09,12.27 4.29,-5.93 5.69,-10.3 7.9,-14.27 1.37,-2.74 2.6,-1.08 4.11,1.54 1.77,4.01 6.78,7.77 10.03,12.32 0.76,-3.04 1.5,-5.14 0.45,-8.21 2.46,2.14 4.69,3.21 5.08,4.46 6.96,11.52 8.34,23 3.24,34.39 -4.64,10.67 -1.04,34.98 5.9,43.94 0.55,0.72 0.79,2.09 0.49,2.93 -1.68,5.28 -4.64,10.45 -6.77,15.74 -0.73,1.73 -1.25,3.75 -1.14,5.53 0.65,9.72 1.48,19.39 1.74,29.11 0.06,2.16 -1.03,4.52 -1.57,6.77 l -2.03,0.08 -1.24,-14.2 -1.77,0.02 c -0.51,2.94 -1.46,5.94 -1.42,8.81 0.11,4.54 0.22,9.33 0.34,14.18 -0.96,4.72 -2.02,9.43 -3.25,14.16 -0.35,1.58 -2.36,3.17 -3.37,4.86 -0.74,1.69 -1.51,3.49 -2.36,5.43 -0.91,-3.11 -1.36,-6.93 -2.94,-7.05 -4.02,-0.25 -8.79,0.69 -12.28,2.43 -4.18,2.05 -4.36,1.66 -6.08,-6.59 -3.6,1.05 0.23,11.86 -6.77,2.99 -1.44,-0.39 -2.84,-0.53 -4.04,-0.74 -0.64,-0.11 -1.07,-0.24 -1.77,-0.42 -0.35,-0.19 -0.74,-0.43 -0.95,-0.78 z m 1.21,-4.51 c 1.07,-2.24 1.01,-6.14 0.08,-10.32 -0.26,-4.18 -1.59,-8.64 -4.21,-12 0.3,3.67 0.6,7.33 0.91,11.04 0.58,3.72 2.16,7.45 3.22,11.28 z m -1.56,-49.18 -1.18,0.12 1.64,22.93 2.77,-0.2 -3.23,-22.85 z m 36.45,-63.86 c -4.05,10.09 -2.17,18.75 1.47,28.3 -0.51,-9.81 -0.96,-18.44 -1.47,-28.3 z m -35.09,-50.69 -1.77,-0.41 c -0.4,2.31 -3.55,4.6 -4.61,6.91 l -3.37,6.9 2.5,0.18 c 1.14,-2.25 3.18,-4.35 4.6,-6.54 0.75,-2.18 4.17,-4.45 2.65,-7.04 z m 6.71,149.19 2.02,-0.11 -2.09,-23.98 -1.05,0.07 1.12,24.02 z m -10.44,-127.68 -2.03,-0.21 c -1.71,4.48 -2.43,8.95 -3.27,13.42 l 3.27,0.39 c 0.48,-4.53 0.74,-9.07 2.03,-13.6 z m 14.46,87.08 2.01,0.1 0.4,-16.33 -2.03,0.1 -0.38,16.13"
         style="fill:#231f20;fill-opacity:1;fill-rule:evenodd;stroke:none"
         id="path4174" />
      <path
         inkscape:connector-curvature="0"
         d="m 7216.34,4843.01 c 0.3,3.67 0.6,7.33 0.91,11.04 0.58,3.72 2.16,7.45 3.22,11.28 1.07,-2.24 1.01,-6.14 0.08,-10.32 -0.26,-4.18 -1.59,-8.64 -4.21,-12"
         style="fill:#ffffff;fill-opacity:1;fill-rule:evenodd;stroke:none"
         id="path4176" />
      <path
         inkscape:connector-curvature="0"
         d="m 7222.14,4839 -3.23,-22.85 -1.18,0.12 1.64,22.93 2.77,-0.2"
         style="fill:#ffffff;fill-opacity:1;fill-rule:evenodd;stroke:none"
         id="path4178" />
      <path
         inkscape:connector-curvature="0"
         d="m 7256.83,4780.59 c -0.51,-9.81 -0.96,-18.44 -1.47,-28.3 -4.05,10.09 -2.17,18.75 1.47,28.3"
         style="fill:#ffffff;fill-opacity:1;fill-rule:evenodd;stroke:none"
         id="path4180" />
      <path
         inkscape:connector-curvature="0"
         d="m 7213.02,4715.18 c 1.14,-2.25 3.18,-4.35 4.6,-6.54 0.75,-2.18 4.17,-4.45 2.65,-7.04 l -1.77,-0.41 c -0.4,2.31 -3.55,4.6 -4.61,6.91 l -3.37,6.9 2.5,0.18"
         style="fill:#ffffff;fill-opacity:1;fill-rule:evenodd;stroke:none"
         id="path4182" />
      <path
         inkscape:connector-curvature="0"
         d="m 7225.86,4826.77 1.12,24.02 2.02,-0.11 -2.09,-23.98 -1.05,0.07"
         style="fill:#ffffff;fill-opacity:1;fill-rule:evenodd;stroke:none"
         id="path4184" />
      <path
         inkscape:connector-curvature="0"
         d="m 7214.51,4736.71 c 0.48,-4.53 0.74,-9.07 2.03,-13.6 l -2.03,-0.21 c -1.71,4.48 -2.43,8.95 -3.27,13.42 l 3.27,0.39"
         style="fill:#ffffff;fill-opacity:1;fill-rule:evenodd;stroke:none"
         id="path4186" />
      <path
         inkscape:connector-curvature="0"
         d="m 7231.38,4794.06 -0.38,16.13 2.01,0.1 0.4,-16.33 -2.03,0.1"
         style="fill:#ffffff;fill-opacity:1;fill-rule:evenodd;stroke:none"
         id="path4188" />
      <path
         inkscape:connector-curvature="0"
         d="m 6636.5,4604.55 c -4.36,-2.17 -9.08,-5.16 -12.98,-8.38 -1.94,-1.64 -3.94,-3.22 -5.73,-4.99 -1.62,-1.86 -3.26,-3.77 -4.93,-5.7 -3.16,-3.8 -6.42,-7.71 -9.63,-11.56 -6.41,-7.72 -12.92,-15.37 -20.29,-22.4 -0.91,-0.86 -1.4,-2.16 -2.3,-3.04 -3.69,-3.52 -7.57,-7.23 -11.19,-10.69 -6.25,-6.27 -12.47,-12.6 -18.53,-19.06 -3.95,-4.17 -7.28,-8.92 -11.26,-13.01 -6.15,-6.21 -12.77,-11.96 -19.19,-17.91 -1.12,-1.03 -2.12,-2.6 -3.34,-3.09 -5.85,-2.43 -10.24,-6.06 -13.59,-10.42 -1.68,-2.18 -3.11,-4.54 -4.35,-7.03 -1.03,-2.64 -1.76,-5.52 -2.46,-8.35 -0.6,-2.54 -0.67,-5.06 -0.5,-7.88 0.23,-1.5 0.47,-3.11 0.73,-4.8 l 0.16,-1.25 c -0.01,-0.19 0.11,-0.48 0.08,-0.64 l 0.9,-1.38 c 1.17,-1.85 2.35,-3.71 3.54,-5.59 -0.89,1.73 -1.76,3.43 -2.62,5.11 -0.24,1.12 0.62,1.25 0.87,1.9 0.81,1.03 1.46,2.13 2.41,2.86 1.74,1.58 3.29,2.96 4.52,4.08 3.78,-0.56 6.46,-0.96 9.7,-1.44 -1.23,-1.7 -2.91,-3.59 -4.07,-5.72 -1.06,-1.98 -1.61,-4.14 -2.32,-6.28 1.84,1.07 3.95,1.77 5.7,3.09 3.64,2.71 7.16,5.7 11.66,9.25 -1.62,-7.93 -2.7,-13.22 -3.94,-19.25 -0.65,-3.76 1.74,-3.23 4.9,-1.86 4.83,2.12 10.01,3.54 15.46,5.97 -1.2,-3.8 -1.92,-6.5 -3.51,-9.97 2.8,0.93 4.71,0.97 5.77,2.02 10.33,9.21 20.26,18.72 25.83,31.91 5.38,12.25 26.48,32.32 37.64,36.73 0.89,0.34 2.08,1.49 2.53,2.43 2.65,5.75 5.58,12.09 8.21,17.79 0.95,1.93 2.26,3.99 3.78,5.46 8.33,8.13 16.79,16.05 24.96,24.32 1.82,1.83 3.01,4.51 4.49,6.81 l -1.32,1.28 -12.43,-11.61 -1.18,1.05 c 2.05,2.87 3.84,6.07 6.21,8.55 8.2,7.84 14.99,16.81 21.76,25.89 0.58,0.84 1.1,1.59 1.64,2.36 0.32,1 -0.52,3.05 -0.75,4.6 -0.74,3.35 -1.53,6.89 -2.4,10.75 0.65,-5.52 -0.41,-10.66 -1.98,-9.46 -3.26,2.46 -6.68,6.98 -7.56,10.54 -0.53,2.09 -0.58,2.8 -2.05,2.71 -1.25,-0.29 -4.9,-0.51 -7.74,-4.56 -0.3,0.68 -0.07,1.86 0.32,3.14 l 0.66,1.97 c 0.68,0.22 1.08,0.68 1.56,0.95 1.9,1.07 1.79,1.93 -5.78,1.55 -2.57,1.04 -4.47,3.05 -6.07,2.25 z m -2.16,-5.25 c -1.57,-5.76 -11.2,-14.93 -19.61,-18.23 5.74,6.63 12.59,12.24 19.61,18.23 z m -38.52,-44.28 -0.68,0.78 18.72,19.98 1.72,-1.83 -19.76,-18.93 z m -26.39,-78.33 c 5.26,11.42 13.21,18.17 22.97,24.75 -7.96,-8.58 -14.97,-16.13 -22.97,-24.75 z m -68.11,-20.58 -2,1.12 c 2.51,5.11 5.61,9.7 8.82,14.19 l 2.02,-1.49 c -2.95,-4.56 -2.57,-11.1 -8.84,-13.82 z m 126.67,125.65 1.31,-1.31 -20.04,-20.49 -0.65,0.68 19.38,21.12 z m -108.1,-107.8 -1.57,1.06 8.95,13.46 2.5,-1.59 -9.88,-12.93 z m 79.16,68.73 1.4,-1.06 -12.57,-14.92 -1.2,1.23 12.37,14.75"
         style="fill:#231f20;fill-opacity:1;fill-rule:evenodd;stroke:none"
         id="path4190" />
      <path
         inkscape:connector-curvature="0"
         d="m 6614.73,4581.07 c 5.74,6.63 12.59,12.24 19.61,18.23 -1.57,-5.76 -11.2,-14.93 -19.61,-18.23"
         style="fill:#ffffff;fill-opacity:1;fill-rule:evenodd;stroke:none"
         id="path4192" />
      <path
         inkscape:connector-curvature="0"
         d="m 6615.58,4573.95 -19.76,-18.93 -0.68,0.78 18.72,19.98 1.72,-1.83"
         style="fill:#ffffff;fill-opacity:1;fill-rule:evenodd;stroke:none"
         id="path4194" />
      <path
         inkscape:connector-curvature="0"
         d="m 6592.4,4501.44 c -7.96,-8.58 -14.97,-16.13 -22.97,-24.75 5.26,11.42 13.21,18.17 22.97,24.75"
         style="fill:#ffffff;fill-opacity:1;fill-rule:evenodd;stroke:none"
         id="path4196" />
      <path
         inkscape:connector-curvature="0"
         d="m 6510.16,4469.93 c -2.95,-4.56 -2.57,-11.1 -8.84,-13.82 l -2,1.12 c 2.51,5.11 5.61,9.7 8.82,14.19 l 2.02,-1.49"
         style="fill:#ffffff;fill-opacity:1;fill-rule:evenodd;stroke:none"
         id="path4198" />
      <path
         inkscape:connector-curvature="0"
         d="m 6608.61,4560.64 19.38,21.12 1.31,-1.31 -20.04,-20.49 -0.65,0.68"
         style="fill:#ffffff;fill-opacity:1;fill-rule:evenodd;stroke:none"
         id="path4200" />
      <path
         inkscape:connector-curvature="0"
         d="m 6529.77,4486.89 -9.88,-12.93 -1.57,1.06 8.95,13.46 2.5,-1.59"
         style="fill:#ffffff;fill-opacity:1;fill-rule:evenodd;stroke:none"
         id="path4202" />
      <path
         inkscape:connector-curvature="0"
         d="m 7683.8229,3659.3686 12.37,14.75 1.4,-1.06 -12.57,-14.92 -1.2,1.23"
         style="fill:#ffffff;fill-opacity:1;fill-rule:evenodd;stroke:none"
         id="path4204" />
      <path
         inkscape:connector-curvature="0"
         d="m 6481.55,4392.19 c -1.36,-5.2 -2.77,-10.87 -4.09,-16.66 -1.11,-5.8 -3.07,-11.73 -2.94,-17.45 -0.85,-23.11 -1.69,-46.08 -1.24,-69.08 0.43,-23.02 0.74,-46.06 -0.07,-69.32 -0.1,-2.87 0.41,-5.86 0.34,-8.74 -0.41,-11.75 -0.82,-23.62 -1.21,-35.32 l -1.04,-60.91 c 0.09,-13.09 0.2,-26.4 0.29,-39.46 -0.27,-20.02 -1.18,-39.96 -1.79,-59.93 -0.12,-3.49 0.21,-7.68 -0.32,-10.4 -4.91,-26.09 -3.25,-51.57 2.32,-75.33 1.5,-5.27 2.97,-9.71 5.4,-14.3 6.19,-4.6 7.45,-9.36 13.32,-15.29 -0.96,1.63 -1.9,3.23 -2.81,4.8 -0.67,1.57 -0.87,3.1 -1.3,4.61 -0.73,3 -3.59,5.86 -2.79,8.56 0.13,5.39 0.25,10.1 0.34,13.88 2.89,4.78 5.3,8.16 8.03,12.27 0.1,-4.8 0.09,-10.62 0.72,-16.02 0.67,-5.01 1.34,-9.58 2.68,-14.33 0.13,4.64 1.52,9.04 1.82,13.98 0.8,10.58 1.56,20.69 2.54,33.59 3.86,-16.14 6.52,-27.21 9.37,-39.07 1.8,-7.48 3.22,-2.94 4.79,4.21 2.63,10.98 4.76,21.29 7.5,33.73 1.49,-8.33 2.53,-14.09 4.02,-22.48 1.28,5.86 2.4,8.81 2.62,12.23 1.96,31.52 3.58,62.95 -0.62,94.08 -3.57,29.23 -1.12,95.76 4.77,120.29 0.47,1.95 0.63,5.72 0.34,8.03 -1.85,14.2 -3.76,28.88 -5.6,43.04 -0.56,4.76 -0.93,10.29 -0.75,15.15 0.88,26.61 2.7,53.06 2.83,79.68 -0.04,5.9 -1.16,12.34 -1.76,18.52 l -1.9,0.21 c -0.28,-12.95 -0.11,-25.89 -0.97,-38.84 l -1.66,0.02 c -0.27,8.06 -1.27,16.27 -1.34,24.14 -0.03,12.86 -0.06,25.81 -0.1,38.79 l -0.03,9.68 -1.13,9.69 c -0.83,6.48 -1.65,12.95 -2.49,19.4 l -0.94,6.53 c -0.46,2.22 -1.53,4.46 -2.31,6.77 -0.84,4.63 -6.02,9.52 -6.83,14.86 0.48,-2.13 0.6,-4.38 1.53,-6.56 1,-2.18 1.82,-4.3 1.76,-6.15 0.28,-3.73 0.09,-6.42 -0.74,-6.59 -3.59,-0.7 -8.14,1.9 -11.07,6.66 -1.68,2.82 -2.52,3.95 -3.22,1.56 -0.7,-2.38 -2.06,-8.3 -2.3,-19.59 -0.94,1.44 -2.3,9.56 -1.79,14.28 0.07,4.71 -0.41,6.03 -4.37,-6.12 -2.44,-2.1 -4.8,-1.52 -5.81,-5.3 z m 0.51,-12.33 c 0.44,-12.28 1.03,-42.7 -4.29,-61.1 0.41,10.04 0.82,20.08 1.23,30.22 0.28,5.08 0.25,10.18 0.77,15.32 0.76,5.13 1.52,10.32 2.29,15.56 z m -1.29,-134.61 -1.07,0.32 c 0.3,20.91 0.22,41.83 0.82,62.75 l 2.6,-0.53 c -1.02,-20.85 -1.53,-41.7 -2.35,-62.54 z m 33.14,-174.78 c -3.62,27.63 -2.08,51.31 1.04,77.44 -0.36,-26.84 -0.67,-50.44 -1.04,-77.44 z m -37.04,-138.73 -2.14,-1.12 c -1.63,12.6 -1.8,25.2 -2.78,37.8 l 2.43,0.49 c 1.05,-12.31 5.35,-22.99 2.49,-37.17 z m 11.05,408.32 1.87,-0.29 c -0.77,-21.87 -1.6,-43.75 -1.96,-65.64 l -0.98,0.19 c 0,21.91 0.55,43.82 1.07,65.74 z m -9.22,-349.44 -1.85,-0.57 -2.56,36.73 2.92,1.05 1.49,-37.21 z m 13.19,238.32 1.81,0.3 0.52,-44.74 -1.79,0.3 -0.54,44.14"
         style="fill:#231f20;fill-opacity:1;fill-rule:evenodd;stroke:none"
         id="path4206" />
      <path
         inkscape:connector-curvature="0"
         d="m 6477.77,4318.76 c 0.41,10.04 0.82,20.08 1.23,30.22 0.28,5.08 0.25,10.18 0.77,15.32 0.76,5.13 1.52,10.32 2.29,15.56 0.44,-12.28 1.03,-42.7 -4.29,-61.1"
         style="fill:#ffffff;fill-opacity:1;fill-rule:evenodd;stroke:none"
         id="path4208" />
      <path
         inkscape:connector-curvature="0"
         d="m 6483.12,4307.79 c -1.02,-20.85 -1.53,-41.7 -2.35,-62.54 l -1.07,0.32 c 0.3,20.91 0.22,41.83 0.82,62.75 l 2.6,-0.53"
         style="fill:#ffffff;fill-opacity:1;fill-rule:evenodd;stroke:none"
         id="path4210" />
      <path
         inkscape:connector-curvature="0"
         d="m 6514.95,4147.91 c -0.36,-26.84 -0.67,-50.44 -1.04,-77.44 -3.62,27.63 -2.08,51.31 1.04,77.44"
         style="fill:#ffffff;fill-opacity:1;fill-rule:evenodd;stroke:none"
         id="path4212" />
      <path
         inkscape:connector-curvature="0"
         d="m 6474.38,3968.91 c 1.05,-12.31 5.35,-22.99 2.49,-37.17 l -2.14,-1.12 c -1.63,12.6 -1.8,25.2 -2.78,37.8 l 2.43,0.49"
         style="fill:#ffffff;fill-opacity:1;fill-rule:evenodd;stroke:none"
         id="path4214" />
      <path
         inkscape:connector-curvature="0"
         d="m 6486.85,4274.32 c 0,21.91 0.55,43.82 1.07,65.74 l 1.87,-0.29 c -0.77,-21.87 -1.6,-43.75 -1.96,-65.64 l -0.98,0.19"
         style="fill:#ffffff;fill-opacity:1;fill-rule:evenodd;stroke:none"
         id="path4216" />
      <path
         inkscape:connector-curvature="0"
         d="m 6477.21,4027.83 1.49,-37.21 -1.85,-0.57 -2.56,36.73 2.92,1.05"
         style="fill:#ffffff;fill-opacity:1;fill-rule:evenodd;stroke:none"
         id="path4218" />
      <path
         inkscape:connector-curvature="0"
         d="m 6492.43,4184.8 -0.54,44.14 1.81,0.3 0.52,-44.74 -1.79,0.3"
         style="fill:#ffffff;fill-opacity:1;fill-rule:evenodd;stroke:none"
         id="path4220" />
    </g>
  </g>
</svg>
