<?xml version="1.0" encoding="UTF-8" standalone="no"?>
<!-- Created with Inkscape (http://www.inkscape.org/) -->

<svg
   xmlns:dc="http://purl.org/dc/elements/1.1/"
   xmlns:cc="http://creativecommons.org/ns#"
   xmlns:rdf="http://www.w3.org/1999/02/22-rdf-syntax-ns#"
   xmlns:svg="http://www.w3.org/2000/svg"
   xmlns="http://www.w3.org/2000/svg"
   xmlns:sodipodi="http://sodipodi.sourceforge.net/DTD/sodipodi-0.dtd"
   xmlns:inkscape="http://www.inkscape.org/namespaces/inkscape"
   width="81.377548"
   height="115.195"
   id="svg10206"
   version="1.1"
   inkscape:version="0.48.3.1 r9886"
   sodipodi:docname="New document 29">
  <defs
     id="defs10208" />
  <sodipodi:namedview
     id="base"
     pagecolor="#ffffff"
     bordercolor="#666666"
     borderopacity="1.0"
     inkscape:pageopacity="0.0"
     inkscape:pageshadow="2"
     inkscape:zoom="0.35"
     inkscape:cx="-35.7398"
     inkscape:cy="129.02612"
     inkscape:document-units="px"
     inkscape:current-layer="layer1"
     showgrid="false"
     fit-margin-top="0"
     fit-margin-left="0"
     fit-margin-right="0"
     fit-margin-bottom="0"
     inkscape:window-width="472"
     inkscape:window-height="415"
     inkscape:window-x="1294"
     inkscape:window-y="24"
     inkscape:window-maximized="0" />
  <metadata
     id="metadata10211">
    <rdf:RDF>
      <cc:Work
         rdf:about="">
        <dc:format>image/svg+xml</dc:format>
        <dc:type
           rdf:resource="http://purl.org/dc/dcmitype/StillImage" />
        <dc:title></dc:title>
      </cc:Work>
    </rdf:RDF>
  </metadata>
  <g
     inkscape:label="Layer 1"
     inkscape:groupmode="layer"
     id="layer1"
     transform="translate(-410.7398,-546.1933)">
    <g
       transform="matrix(0.125,0,0,-0.125,-472.10895,1428.4758)"
       id="g7449">
      <path
         inkscape:connector-curvature="0"
         d="m 7479.2,7000.33 c 11.46,-16.17 25.96,-34.09 39.24,-50.84 26.09,-34.54 48,-71.86 67.29,-110.74 18.91,-39.09 33.71,-80.56 43.4,-123.65 1.19,-5.3 3.31,-10.63 4.21,-16.05 4.37,-21.97 7.6,-44.08 10.03,-66.3 4.3,-38.25 5.81,-76.82 4.06,-115.13 -0.54,-12.41 -1.34,-24.83 -2.06,-37.23 -1.41,-12.33 -2.28,-24.73 -4.26,-36.87 -1.61,-9.28 -2.89,-18.62 -4.84,-27.8 l -6.22,-27.4 -7.63,-26.94 -8.27,-26.66 c -1.76,-6.27 -4.38,-13.61 -6.51,-18.2 -5.32,-10.98 -10.73,-21.62 -13.68,-33.37 -1.39,-5.92 -4.25,-11.14 -6.62,-16.54 -2.37,-5.43 -4.7,-10.81 -7.05,-16.2 -5,-10.57 -8.41,-21.98 -12.65,-32.98 -5.1,-10.36 -9.85,-20.97 -15.37,-30.9 -5.04,-8.68 -8.89,-16.43 -13.23,-24.3 -4.75,-7.5 -9.32,-15.72 -15.75,-25.53 7.9,9.92 15.73,18.63 22.28,26.7 6.32,8.25 11.85,15.46 16.3,21.24 6.83,6.41 11.8,10.95 18.05,16.38 -5.28,-7.72 -11,-17.63 -17.45,-26 -5.85,-7.86 -10.45,-15.67 -16.33,-22.94 6.46,6.46 12.04,13.1 18.44,20.42 12.78,15.46 24.79,32.31 38.49,53.95 -3.34,-7.35 -6.59,-14.19 -9.73,-20.61 -3.16,-6.41 -6.77,-12.05 -9.92,-17.6 -3.3,-5.45 -6.19,-10.82 -9.49,-15.6 -3.29,-4.69 -6.49,-9.26 -9.67,-13.82 -8.68,-12.29 -2.18,-5.95 8.1,4.37 8.12,7.75 15.05,16.03 22.76,24.34 7.77,8.28 15.44,17.14 24.12,26.91 -4.58,-7.26 -8.46,-13.39 -12.33,-19.52 -4.18,-5.94 -8.35,-11.9 -13.3,-18.98 8.33,8.83 13.15,13.04 17.76,18.5 l 15.78,19.17 c 5.02,6.6 8.86,13.84 13.33,20.78 l 6.45,10.56 c 2.11,3.54 3.81,7.27 6.23,10.67 4.27,7.07 9.5,13.81 12.5,21.48 12.9,30.24 23.44,61.51 28.34,93.66 4.74,30.06 13.63,78.76 16.44,126.9 3.64,48.06 2.63,95.08 3.37,120.73 0.02,4.07 -0.78,11.86 -1.71,16.56 -5.64,29.49 -13.71,57.83 -22.41,86.34 -3.13,9.32 -6.43,20.23 -8.8,29.94 -14.33,52.85 -33.96,104.29 -60.6,153.03 -5.84,10.83 -14.34,21.42 -21.73,31.95 l -1.97,-0.79 c 14.69,-22.51 27.43,-46.2 38.35,-70.56 l -1.66,-0.72 c -3.63,7.44 -7.73,14.73 -12.03,21.87 -4.28,7.13 -8.09,14.45 -12.29,21.39 -7.09,11.3 -13.71,22.86 -21.65,33.61 l -11.51,16.35 -12.43,15.7 c -8.03,10.65 -17.39,20.28 -26.3,30.25 -4.37,5.05 -9.43,9.54 -14.65,13.78 -5.28,4.25 -10.08,8.7 -15.76,12.7 -7.45,5.35 -15.05,10.67 -23.03,16.1 -7.54,5.2 -17.44,8.11 -27.46,12.37 7.47,-4.08 16.25,-8.01 21.8,-12.88 5.73,-4.5 9.55,-9.11 9.23,-9.91 -1.56,-4.24 -8.2,-4.08 -17.87,-1.36 -5.71,1.63 -8.18,2.07 -4.85,-1.36 5.32,-5.03 12.33,-11.64 27.74,-26.19 -6.01,1.68 -47.74,39.99 -16.13,5.24 1.2,-4.69 -1.3,-5.98 3.11,-11.47 z m 16.71,-16.06 c 2,-2.09 4.94,-4.02 7.76,-6.69 2.75,-2.74 5.74,-5.84 8.89,-9.22 3.18,-3.5 6.48,-7.13 9.88,-10.88 3.29,-3.96 6.45,-8.3 9.71,-12.66 3.21,-4.4 6.56,-8.8 9.59,-13.43 l 8.44,-14.08 c 5.58,-9.15 9.76,-18.56 13.03,-26.77 -18.58,33.23 -40.73,64.39 -67.3,93.73 z m 128.07,-219.87 -1.3,0.23 c -12.19,38.16 -27.7,75.26 -46.77,110.33 l 2.98,0.49 c 18.59,-35.41 33.51,-72.74 45.09,-111.05 z m 64.78,-337.38 c 4.1,55.9 7.7,103.23 8.18,156.26 2.76,-54.2 0.59,-102.27 -8.18,-156.26 z m -131.15,-239.42 -2.5,-0.77 c 6.03,10.43 12.12,20.77 17.23,31.6 4.55,11.23 9.2,22.17 13.9,33.05 l 2.45,-0.27 c -1.06,-2.66 -2.12,-5.32 -3.2,-8.03 -1.18,-2.57 -2.21,-5.2 -3.13,-7.89 -2.01,-5.36 -4.03,-10.78 -6,-16.05 -1.92,-5.52 -4.88,-10.52 -8.05,-15.72 -3.17,-5.18 -6.65,-10.51 -10.7,-15.92 z m -7.24,743.21 1.95,0.72 c 23.61,-35.23 43.53,-72.9 59.49,-112.21 l -1.13,-0.1 c -16.31,39.16 -36.56,76.59 -60.31,111.59 z m 57.72,-643.45 -2.17,-0.23 c 7.07,22.1 14.13,44.07 19.22,66.6 l 3.84,0.95 c -3.25,-11.26 -5.8,-22.8 -9.6,-33.9 l -11.29,-33.42 z m 36.79,450.39 1.81,1.1 c 7.7,-28.17 14.46,-56.67 18.9,-85.6 l -2.09,0.29 c -4.38,28.45 -11.05,56.48 -18.62,84.21"
         style="fill:#231f20;fill-opacity:1;fill-rule:evenodd;stroke:none"
         id="path4994" />
      <g
         id="g7424">
        <path
           id="path4962"
           style="fill:#231f20;fill-opacity:1;fill-rule:evenodd;stroke:none"
           d="m 7098.85,6777.69 c 6.25,-9.12 9.85,-19.93 16.09,-28.35 5.56,-9.19 10.66,-19.04 16.01,-28.36 3.98,-10.15 8.76,-19.84 12.6,-29.96 7.21,-20.41 12.88,-41.7 13.75,-63.83 0.13,-2.72 0.86,-5.49 1.01,-8.23 1.19,-11.13 -0.65,-22.4 -0.87,-33.53 -1.58,-19.2 -4.55,-38.33 -9.4,-57.05 -0.65,-3.05 -1.3,-6.11 -1.95,-9.18 l -2.5,-9.09 c -1.64,-6.08 -3.28,-12.15 -5.18,-18.1 -6.95,-17.89 -15.06,-35.19 -24.93,-51.58 -1.61,-2.91 -3.15,-6.64 -4.81,-8.67 -9.02,-9.21 -16.18,-18.97 -21.7,-29.74 -6.01,-10.46 -11.78,-20.79 -15.81,-32.54 -3.69,-10.4 -5.84,-17.95 -8.37,-32.27 1.5,3.12 2.94,6.15 4.32,9.03 1.55,2.69 3.55,4.74 5.16,6.94 3.37,4.2 6.32,7.87 8.7,10.82 5.17,1.98 8.83,3.39 13.27,5.09 -2.85,-3.95 -6.08,-8.42 -9.57,-13.26 -2.93,-4.22 -5.28,-8.39 -8,-12.53 3.54,3.22 7.17,6.04 10.84,9.59 7.91,7.04 14.26,15.81 23.39,25.72 -3.48,-7.89 -6.7,-14.72 -9.66,-20.94 -2.78,-6.37 -6.65,-10.99 -9.7,-15.97 -4.45,-6.62 -0.22,-4.03 6.4,0.32 2.52,1.61 5.08,3.24 7.7,4.91 2.57,1.63 4.59,3.74 7,5.62 4.7,3.89 9.66,7.99 14.94,12.35 -4.7,-7.91 -7.93,-13.37 -12.66,-21.32 5.07,4.13 8.04,5.96 10.66,8.72 5.9,6.45 12.28,12.62 17.77,19.47 5.43,6.91 10.02,14.41 14.83,21.73 4.98,7.22 8.49,15.31 12.19,23.22 3.4,8.06 7.38,15.8 9.4,24.4 2.14,7.94 5.65,18.03 9.98,29.11 3.31,11.45 7.66,23.84 11.61,36.24 2.85,12.7 6.35,25.13 9.01,36.24 2.12,11.22 4.3,20.94 6.39,27.77 0.71,2.16 1.22,6.43 0.78,9.09 -2,16.57 -3.46,32.54 -7.58,48.57 -1.13,5.27 -2.17,11.4 -2.6,16.84 -1.12,7.4 -2.63,14.75 -3.93,22.13 -1.32,7.39 -2.59,14.79 -5.07,21.93 l -6.65,21.63 c -2.27,7.21 -5.93,13.93 -9.17,20.78 -3.18,5.94 -6.58,12.44 -11.15,17.91 l -1.63,-0.66 c 4.18,-6.02 6.52,-13.02 9.81,-19.52 2.97,-6.64 6.4,-13.14 8.45,-20.13 l -1.47,-0.51 c -3.37,8.34 -8.66,16.04 -12.34,23.96 l -4.72,9.72 -5.77,9.13 -11.62,18.14 c -3.99,6.03 -9.31,11.49 -14.39,16.8 l -7.62,7.96 -3.82,3.93 -3.95,3.2 c -3.56,2.75 -7.02,5.69 -11.11,8.36 -4.6,2.15 -9.45,4.43 -14.75,6.92 3.73,-2.5 7.74,-5.42 10.68,-7.93 0.75,-0.61 1.34,-1.29 2.03,-1.73 0.42,-0.62 0.82,-1.22 1.21,-1.81 0.64,-1.06 0.93,-1.83 0.71,-2.18 -1.91,-3.02 -6.62,-4.01 -12.36,-2.82 -3.3,0.77 -4.64,1.08 -3.44,-1.23 1.1,-2.43 5.19,-7.03 13.4,-15.37 -1.85,0.23 -8.3,5.68 -12.23,8.64 -1.91,1.55 -2.99,2.68 -2.98,1.79 0.02,-0.41 0.31,-1.35 1.04,-2.85 0.85,-1.37 2.17,-3.28 4.04,-5.87 0.01,-3.11 -1.96,-4.28 0.29,-7.61 z m 8.51,-8.51 c 4.05,-4.14 10.49,-11.81 16.5,-21.02 2.73,-4.87 5.38,-10.01 7.64,-15 2.27,-4.99 4.3,-9.76 4.8,-14.46 -1.55,4.62 -4.09,8.7 -6.41,12.94 -2.33,4.25 -4.66,8.52 -7.02,12.8 -1.22,2.09 -2.25,4.43 -3.63,6.36 -1.37,1.95 -2.87,3.79 -4.12,5.84 -2.57,4.15 -5.15,8.32 -7.76,12.54 z m 53.73,-116.62 -1.07,0.1 -2.75,14.95 c -1.22,4.89 -2.9,9.66 -4.32,14.51 l -4.4,14.54 -5.87,13.97 2.41,0.54 c 1.76,-4.79 3.86,-9.42 5.57,-14.19 l 4.1,-14.71 c 1.29,-4.91 2.92,-9.71 3.94,-14.67 l 2.39,-15.04 z m 16.64,-179.5 c 1.56,7.33 2.91,14.4 4.71,21.15 1.58,6.81 4.14,13.17 5.31,19.86 2.68,13.27 7.59,25.95 9.98,39.94 -0.42,-3.61 -0.8,-7.16 -1.21,-10.68 -0.52,-3.49 -1.36,-6.88 -2.04,-10.28 -1.41,-6.78 -2.82,-13.45 -4.23,-20.13 -1.11,-6.76 -3.87,-13.07 -5.82,-19.72 -2.2,-6.57 -4.2,-13.32 -6.7,-20.14 z m -101.82,-104.88 -2.14,0.39 c 5.81,11.22 12.52,21.43 18.57,32.04 l 2.28,-1.01 c -5.83,-10.44 -8.6,-21.66 -18.71,-31.42 z m 58.25,373.15 1.59,0.65 c 2.67,-4.78 5.51,-9.46 8.03,-14.29 l 6.3,-15.14 c 1.93,-5.1 4.55,-9.91 6.1,-15.14 l 4.66,-15.66 -0.95,-0.11 -4.86,15.55 c -1.67,5.17 -4.31,9.95 -6.29,15 l -6.43,15.01 -8.15,14.13 z m -24.77,-326.12 -1.92,0.54 c 2.7,5.34 5.96,10.36 8.19,15.91 l 7,16.44 3.15,-0.42 c -5.1,-10.98 -9.92,-22.16 -16.42,-32.47 z m 65.18,223.29 1.71,0.55 c 1.47,-15.07 3.74,-30.11 3.08,-45.34 l -1.77,0.32 c 0.65,14.93 -1.59,29.68 -3.02,44.47"
           inkscape:connector-curvature="0" />
        <path
           id="path4964"
           style="fill:#ffffff;fill-opacity:1;fill-rule:evenodd;stroke:none"
           d="m 7136.3,6718.7 c -1.55,4.62 -4.09,8.7 -6.41,12.94 -2.33,4.25 -4.66,8.52 -7.02,12.8 -1.22,2.09 -2.25,4.43 -3.63,6.36 -1.37,1.95 -2.87,3.79 -4.12,5.84 -2.57,4.15 -5.15,8.32 -7.76,12.54 4.05,-4.14 10.49,-11.81 16.5,-21.02 2.73,-4.87 5.38,-10.01 7.64,-15 2.27,-4.99 4.3,-9.76 4.8,-14.46"
           inkscape:connector-curvature="0" />
        <path
           id="path4966"
           style="fill:#ffffff;fill-opacity:1;fill-rule:evenodd;stroke:none"
           d="m 7145.09,6711.17 c 1.76,-4.79 3.86,-9.42 5.57,-14.19 l 4.1,-14.71 c 1.29,-4.91 2.92,-9.71 3.94,-14.67 l 2.39,-15.04 -1.07,0.1 -2.75,14.95 c -1.22,4.89 -2.9,9.66 -4.32,14.51 l -4.4,14.54 -5.87,13.97 2.41,0.54"
           inkscape:connector-curvature="0" />
        <path
           id="path4968"
           style="fill:#ffffff;fill-opacity:1;fill-rule:evenodd;stroke:none"
           d="m 7197.73,6554.01 c -0.42,-3.61 -0.8,-7.16 -1.21,-10.68 -0.52,-3.49 -1.36,-6.88 -2.04,-10.28 -1.41,-6.78 -2.82,-13.45 -4.23,-20.13 -1.11,-6.76 -3.87,-13.07 -5.82,-19.72 -2.2,-6.57 -4.2,-13.32 -6.7,-20.14 1.56,7.33 2.91,14.4 4.71,21.15 1.58,6.81 4.14,13.17 5.31,19.86 2.68,13.27 7.59,25.95 9.98,39.94"
           inkscape:connector-curvature="0" />
        <path
           id="path4970"
           style="fill:#ffffff;fill-opacity:1;fill-rule:evenodd;stroke:none"
           d="m 7094.62,6399.6 c -5.83,-10.44 -8.6,-21.66 -18.71,-31.42 l -2.14,0.39 c 5.81,11.22 12.52,21.43 18.57,32.04 l 2.28,-1.01"
           inkscape:connector-curvature="0" />
        <path
           id="path4972"
           style="fill:#ffffff;fill-opacity:1;fill-rule:evenodd;stroke:none"
           d="m 7159.89,6681.64 -4.86,15.55 c -1.67,5.17 -4.31,9.95 -6.29,15 l -6.43,15.01 -8.15,14.13 1.59,0.65 c 2.67,-4.78 5.51,-9.46 8.03,-14.29 l 6.3,-15.14 c 1.93,-5.1 4.55,-9.91 6.1,-15.14 l 4.66,-15.66 -0.95,-0.11"
           inkscape:connector-curvature="0" />
        <path
           id="path4974"
           style="fill:#ffffff;fill-opacity:1;fill-rule:evenodd;stroke:none"
           d="m 7125.81,6447.68 c -5.1,-10.98 -9.92,-22.16 -16.42,-32.47 l -1.92,0.54 c 2.7,5.34 5.96,10.36 8.19,15.91 l 7,16.44 3.15,-0.42"
           inkscape:connector-curvature="0" />
        <path
           id="path4976"
           style="fill:#ffffff;fill-opacity:1;fill-rule:evenodd;stroke:none"
           d="m 7177.59,6594.03 c 0.65,14.93 -1.59,29.68 -3.02,44.47 l 1.71,0.55 c 1.47,-15.07 3.74,-30.11 3.08,-45.34 l -1.77,0.32"
           inkscape:connector-curvature="0" />
        <path
           id="path4978"
           style="fill:#231f20;fill-opacity:1;fill-rule:evenodd;stroke:none"
           d="m 7270.9,6922.23 c 2.4,-3.26 4.82,-7.31 7.19,-11.21 2.8,-3.64 5.62,-7.32 8.45,-11 5.17,-7.95 10.96,-15.55 16,-23.36 19.91,-31.66 39.28,-63.91 53.69,-99.19 14.65,-35.06 25.55,-72.16 31.99,-110.46 0.88,-4.71 2.37,-9.51 2.94,-14.31 2.86,-19.51 4.69,-39.11 5.94,-58.77 2.26,-33.86 2.23,-67.93 -0.35,-101.74 -0.69,-10.98 -1.89,-21.92 -2.71,-32.89 -1.41,-10.89 -2.63,-21.81 -4.63,-32.52 -5.95,-32.88 -15.43,-64.74 -27.07,-95.44 -1.87,-5.44 -4.07,-11.96 -6.33,-15.85 -5.49,-10.21 -10.39,-19.32 -15.07,-28.02 -4.59,-9.4 -9.74,-18.26 -14.16,-27.41 -3.92,-9.45 -8.8,-18.12 -12.76,-27.35 -4.37,-8.55 -8.85,-17.32 -13.41,-26.26 -1.05,-1.87 -2.16,-3.59 -2.97,-5.48 -0.52,-2.02 -1.05,-4.08 -1.59,-6.18 -0.96,-4.15 -2.8,-7.43 -4.14,-11.27 -3.87,-6.59 -5.66,-15.61 -9.96,-25.47 2.91,4.79 5.71,9.42 8.39,13.84 2.85,4.2 6.4,7.43 8.9,11.23 2.84,3.5 4.92,7.26 6.98,10.55 2.26,3.15 4.85,5.62 6.64,8.22 7.24,4.81 12.35,8.2 18.57,12.32 -4.62,-6.75 -9.97,-15.18 -15.28,-22.73 -4.83,-7.07 -8.28,-14.36 -13.22,-20.93 5.74,5.59 10.82,11.27 16.51,17.64 11.48,13.41 22.11,28.16 34.45,47.06 -5.54,-13.12 -10.18,-24.84 -15.65,-34.75 -5.17,-10.08 -9.6,-19.45 -15.55,-27.12 -7.39,-11.17 -1.51,-5.68 8.97,2.52 14.07,14.18 26.78,28.2 41.27,46.12 -6.88,-13.69 -11.39,-23.3 -19.64,-36.53 7.5,7.96 11.89,11.72 15.41,16.99 18,23.42 31.06,49.78 42.37,76.44 11.18,26.76 18.81,54.63 23.93,82.62 4.43,26.35 12.64,68.87 17.29,110.89 5.07,41.97 6.62,83.24 8.82,105.74 0.26,3.57 0,10.44 -0.57,14.62 -3.35,26.17 -8.94,51.48 -14.85,77.05 -2.21,8.38 -4.5,18.16 -5.98,26.85 -8.97,47.45 -22.74,94.15 -42.95,139.15 -4.26,10.06 -11.17,20 -16.77,29.97 l -2.02,-0.73 c 10.78,-21.36 20.8,-42.99 28.61,-65.31 l -1.68,-0.61 c -5.47,13.59 -12.87,26.67 -18.67,39.78 -10.55,21.16 -21.57,42.24 -36.09,61.21 -6.7,9.83 -14.45,18.95 -22.11,28.1 -7.67,9.2 -16.2,17.6 -25.47,25.45 -6.51,5.16 -13.17,10.23 -20.18,15.46 -6.85,4.43 -14.14,8.88 -23.21,12.43 6.51,-3.73 12.96,-8.88 17.63,-13.43 4.74,-4.43 7.93,-8.89 7.45,-9.76 -2.17,-4.51 -8.8,-4.96 -17.82,-3.11 -11.2,1.98 -8.15,1.33 18.24,-25.85 -5.63,1.38 -40.92,35.19 -15.08,3.74 0.45,-4.53 -2.21,-6.07 1.31,-10.95 z m 14.6,-13.76 c 4.13,-3.03 8.85,-8.12 14.04,-14.26 2.59,-3.08 5.4,-6.32 8.1,-9.89 2.54,-3.77 5.13,-7.61 7.76,-11.53 5.46,-7.75 9.74,-16.68 14.06,-24.96 4.58,-8.13 7.52,-16.69 10.11,-23.9 -15.66,29.21 -31.97,58.18 -54.07,84.54 z m 101.19,-197.86 -1.24,0.24 c -8.72,34.11 -20.29,67.43 -35.15,99.05 l 2.97,0.4 c 14.32,-31.96 25.3,-65.49 33.42,-99.69 z m 44.33,-299.52 c 4.83,49.02 9.91,90.41 12.82,136.98 -0.02,-47.74 -3.96,-89.77 -12.82,-136.98 z m -124.11,-204.99 -2.82,-0.17 c 10.83,17.55 20.91,35.47 29.11,54.41 l 2.7,-0.53 c -7.95,-18.52 -13.01,-36.42 -28.99,-53.71 z m 24.51,654.13 2.05,0.71 c 19.1,-31.83 34.43,-65.98 46.19,-101.34 l -1.11,-0.05 c -12.1,35.22 -27.8,69.14 -47.13,100.68 z m 24.59,-570.3 -2.22,-0.05 c 4.03,9.29 6.91,19.14 10.44,28.64 3.2,9.66 5.85,19.53 8.81,29.25 l 3.44,0.77 c -3.02,-9.9 -6.1,-19.81 -9.37,-29.64 -3.74,-9.62 -6.92,-19.53 -11.1,-28.97 z m 48.59,396.34 1.79,0.9 c 5.42,-25.14 9.65,-50.57 12.3,-76.19 l -1.92,0.34 c -2.64,25.21 -6.82,50.22 -12.17,74.95"
           inkscape:connector-curvature="0" />
        <path
           id="path4980"
           style="fill:#ffffff;fill-opacity:1;fill-rule:evenodd;stroke:none"
           d="m 7339.57,6823.93 c -15.66,29.21 -31.97,58.18 -54.07,84.54 4.13,-3.03 8.85,-8.12 14.04,-14.26 2.59,-3.08 5.4,-6.32 8.1,-9.89 2.54,-3.77 5.13,-7.61 7.76,-11.53 5.46,-7.75 9.74,-16.68 14.06,-24.96 4.58,-8.13 7.52,-16.69 10.11,-23.9"
           inkscape:connector-curvature="0" />
        <path
           id="path4982"
           style="fill:#ffffff;fill-opacity:1;fill-rule:evenodd;stroke:none"
           d="m 7353.27,6810.3 c 14.32,-31.96 25.3,-65.49 33.42,-99.69 l -1.24,0.24 c -8.72,34.11 -20.29,67.43 -35.15,99.05 l 2.97,0.4"
           inkscape:connector-curvature="0" />
        <path
           id="path4984"
           style="fill:#ffffff;fill-opacity:1;fill-rule:evenodd;stroke:none"
           d="m 7443.84,6548.07 c -0.02,-47.74 -3.96,-89.77 -12.82,-136.98 4.83,49.02 9.91,90.41 12.82,136.98"
           inkscape:connector-curvature="0" />
        <path
           id="path4986"
           style="fill:#ffffff;fill-opacity:1;fill-rule:evenodd;stroke:none"
           d="m 7335.9,6259.81 c -7.95,-18.52 -13.01,-36.42 -28.99,-53.71 l -2.82,-0.17 c 10.83,17.55 20.91,35.47 29.11,54.41 l 2.7,-0.53"
           inkscape:connector-curvature="0" />
        <path
           id="path4988"
           style="fill:#ffffff;fill-opacity:1;fill-rule:evenodd;stroke:none"
           d="m 7378.55,6759.55 c -12.1,35.22 -27.8,69.14 -47.13,100.68 l 2.05,0.71 c 19.1,-31.83 34.43,-65.98 46.19,-101.34 l -1.11,-0.05"
           inkscape:connector-curvature="0" />
        <path
           id="path4990"
           style="fill:#ffffff;fill-opacity:1;fill-rule:evenodd;stroke:none"
           d="m 7376.48,6348.54 c -3.02,-9.9 -6.1,-19.81 -9.37,-29.64 -3.74,-9.62 -6.92,-19.53 -11.1,-28.97 l -2.22,-0.05 c 4.03,9.29 6.91,19.14 10.44,28.64 3.2,9.66 5.85,19.53 8.81,29.25 l 3.44,0.77"
           inkscape:connector-curvature="0" />
        <path
           id="path4992"
           style="fill:#ffffff;fill-opacity:1;fill-rule:evenodd;stroke:none"
           d="m 7416.77,6611.32 c -2.64,25.21 -6.82,50.22 -12.17,74.95 l 1.79,0.9 c 5.42,-25.14 9.65,-50.57 12.3,-76.19 l -1.92,0.34"
           inkscape:connector-curvature="0" />
        <path
           id="path4996"
           style="fill:#ffffff;fill-opacity:1;fill-rule:evenodd;stroke:none"
           d="m 7563.21,6890.54 c -18.58,33.23 -40.73,64.39 -67.3,93.73 2,-2.09 4.94,-4.02 7.76,-6.69 2.75,-2.74 5.74,-5.84 8.89,-9.22 3.18,-3.5 6.48,-7.13 9.88,-10.88 3.29,-3.96 6.45,-8.3 9.71,-12.66 3.21,-4.4 6.56,-8.8 9.59,-13.43 l 8.44,-14.08 c 5.58,-9.15 9.76,-18.56 13.03,-26.77"
           inkscape:connector-curvature="0" />
        <path
           id="path4998"
           style="fill:#ffffff;fill-opacity:1;fill-rule:evenodd;stroke:none"
           d="m 7578.89,6875.45 c 18.59,-35.41 33.51,-72.74 45.09,-111.05 l -1.3,0.23 c -12.19,38.16 -27.7,75.26 -46.77,110.33 l 2.98,0.49"
           inkscape:connector-curvature="0" />
        <path
           id="path5000"
           style="fill:#ffffff;fill-opacity:1;fill-rule:evenodd;stroke:none"
           d="m 7696.94,6583.28 c 2.76,-54.2 0.59,-102.27 -8.18,-156.26 4.1,55.9 7.7,103.23 8.18,156.26"
           inkscape:connector-curvature="0" />
        <path
           id="path5002"
           style="fill:#ffffff;fill-opacity:1;fill-rule:evenodd;stroke:none"
           d="m 7588.69,6251.21 c -1.06,-2.66 -2.12,-5.32 -3.2,-8.03 -1.18,-2.57 -2.21,-5.2 -3.13,-7.89 -2.01,-5.36 -4.03,-10.78 -6,-16.05 -1.92,-5.52 -4.88,-10.52 -8.05,-15.72 -3.17,-5.18 -6.65,-10.51 -10.7,-15.92 l -2.5,-0.77 c 6.03,10.43 12.12,20.77 17.23,31.6 4.55,11.23 9.2,22.17 13.9,33.05 l 2.45,-0.27"
           inkscape:connector-curvature="0" />
        <path
           id="path5004"
           style="fill:#ffffff;fill-opacity:1;fill-rule:evenodd;stroke:none"
           d="m 7610.68,6819.22 c -16.31,39.16 -36.56,76.59 -60.31,111.59 l 1.95,0.72 c 23.61,-35.23 43.53,-72.9 59.49,-112.21 l -1.13,-0.1"
           inkscape:connector-curvature="0" />
        <path
           id="path5006"
           style="fill:#ffffff;fill-opacity:1;fill-rule:evenodd;stroke:none"
           d="m 7628.98,6354.68 c -3.25,-11.26 -5.8,-22.8 -9.6,-33.9 l -11.29,-33.42 -2.17,-0.23 c 7.07,22.1 14.13,44.07 19.22,66.6 l 3.84,0.95"
           inkscape:connector-curvature="0" />
        <path
           id="path5008"
           style="fill:#ffffff;fill-opacity:1;fill-rule:evenodd;stroke:none"
           d="m 7663.5,6653.54 c -4.38,28.45 -11.05,56.48 -18.62,84.21 l 1.81,1.1 c 7.7,-28.17 14.46,-56.67 18.9,-85.6 l -2.09,0.29"
           inkscape:connector-curvature="0" />
      </g>
    </g>
  </g>
</svg>
