<?xml version="1.0" encoding="UTF-8" standalone="no"?>
<!-- Created with Inkscape (http://www.inkscape.org/) -->

<svg
   xmlns:dc="http://purl.org/dc/elements/1.1/"
   xmlns:cc="http://creativecommons.org/ns#"
   xmlns:rdf="http://www.w3.org/1999/02/22-rdf-syntax-ns#"
   xmlns:svg="http://www.w3.org/2000/svg"
   xmlns="http://www.w3.org/2000/svg"
   xmlns:sodipodi="http://sodipodi.sourceforge.net/DTD/sodipodi-0.dtd"
   xmlns:inkscape="http://www.inkscape.org/namespaces/inkscape"
   width="295.63391"
   height="143.30992"
   id="svg3879"
   version="1.1"
   inkscape:version="0.48.3.1 r9886"
   sodipodi:docname="New document 47">
  <defs
     id="defs3881" />
  <sodipodi:namedview
     id="base"
     pagecolor="#ffffff"
     bordercolor="#666666"
     borderopacity="1.0"
     inkscape:pageopacity="0.0"
     inkscape:pageshadow="2"
     inkscape:zoom="0.35"
     inkscape:cx="154.24554"
     inkscape:cy="-22.630748"
     inkscape:document-units="px"
     inkscape:current-layer="layer1"
     showgrid="false"
     fit-margin-top="0"
     fit-margin-left="0"
     fit-margin-right="0"
     fit-margin-bottom="0"
     inkscape:window-width="472"
     inkscape:window-height="415"
     inkscape:window-x="887"
     inkscape:window-y="127"
     inkscape:window-maximized="0" />
  <metadata
     id="metadata3884">
    <rdf:RDF>
      <cc:Work
         rdf:about="">
        <dc:format>image/svg+xml</dc:format>
        <dc:type
           rdf:resource="http://purl.org/dc/dcmitype/StillImage" />
        <dc:title></dc:title>
      </cc:Work>
    </rdf:RDF>
  </metadata>
  <g
     inkscape:label="Layer 1"
     inkscape:groupmode="layer"
     id="layer1"
     transform="translate(-220.75446,-366.42152)">
    <path
       inkscape:connector-curvature="0"
       id="path3040"
       style="fill:#182442;fill-opacity:1;fill-rule:evenodd;stroke:none"
       d="m 359.68675,374.62527 c -3.82875,4.01125 -1.095,9.47875 -0.91125,14.94875 4.55625,1.64 14.76625,-0.5475 21.32875,-0.72875 10.75375,-0.365 22.42375,-1.64125 34.6375,-2.00625 6.01375,-0.36375 12.39625,0.18125 18.41125,0.18125 5.105,0 10.02625,-0.91 15.3125,-0.91 6.38125,0.18 12.7625,1.27375 19.69,0.91 0.36375,0 1.0925,-0.545 1.4575,-0.545 7.83875,0.18125 19.5075,3.645 24.42875,-0.5475 2.18875,0.72875 4.375,1.45625 7.8375,1.0925 0.73125,0.73125 0.9125,2.00625 0.9125,3.465 -1.46,1.275 -4.375,1.275 -4.555,3.8275 -7.47625,-0.365 -16.045,-1.82375 -25.52375,-1.82375 0,1.2775 2.005,0.73125 1.8225,2.1875 -3.82875,8.20375 -10.39125,13.85625 -13.125,23.33625 -1.2775,1.275 -2.00625,3.09875 -2.37,5.28625 -2.5525,2.1875 -2.5525,6.92875 -4.55875,9.66125 2.37,-1.09375 3.46375,-4.375 4.9225,-6.74375 4.1925,-7.1125 9.115,-14.94875 13.855,-21.51125 1.27625,-3.28125 3.09875,-5.6525 4.555,-8.5675 1.46,0.18125 2.5525,0.545 3.465,1.275 -7.4725,12.76 -14.765,26.06875 -20.05125,41.01875 5.83125,-8.7525 10.75375,-18.41375 15.67625,-27.89375 1.825,-2.005 3.28125,-4.5575 4.55875,-7.10875 1.275,-2.1875 2.1875,-5.65375 5.47,-5.65375 1.275,5.28875 -5.47,11.48625 -7.84125,16.04375 -0.545,0.91125 -0.3625,2.1875 -0.90875,3.28 -0.55,1.27875 -1.825,2.555 -2.37125,4.0125 -0.36375,0.7275 0,1.63875 -0.36375,2.37 -0.73,1.8225 -2.18875,3.465 -2.735,5.285 -0.9125,2.555 -1.45875,5.28625 -2.3725,7.84125 -1.4575,4.01125 -2.37,7.29 -4.00875,10.935 2.1875,-2.55 3.82875,-5.65 5.46875,-8.565 4.92375,-8.20625 10.57125,-16.77375 15.1325,-25.705 3.8275,-2.735 3.8275,-9.2975 8.93125,-10.755 1.6425,4.555 -1.8225,6.74375 -4.375,10.39 -2.91875,4.55625 -5.10625,9.11625 -7.47375,14.03875 -2.37125,4.73875 -3.83,9.48 -5.46875,14.76625 5.28625,-6.19875 8.7475,-17.13875 14.765,-23.7 0.91375,-1.82375 1.27375,-4.01125 3.64625,-4.19375 2.91625,3.1 -1.27625,7.65625 -2.91625,10.02625 -4.74125,11.30125 -10.39125,22.78875 -14.4025,34.0925 2.18875,-1.27875 4.01125,-4.925 5.2875,-8.0225 4.92125,-6.19625 8.0225,-14.21875 12.76,-20.6 1.09375,-0.18375 1.64125,0.36375 2.37,0.54625 0,4.375 -3.28125,7.84 -5.10375,11.6675 -1.82125,3.46375 -2.73375,6.92625 -4.55875,10.9375 1.095,0.54625 1.825,-1.82375 3.6475,-0.7275 2.54875,4.1925 -3.28125,7.65375 -3.6475,12.5775 2.9175,-1.64 5.10625,-6.37875 6.92625,-10.02875 8.0225,0.55 -2.3675,10.9425 -3.645,15.13375 0,1.8225 0,3.64375 -1.27625,4.1925 -1.8225,0.545 -1.8225,-0.91125 -2.735,-1.4575 -1.6375,0 -1.6375,1.63875 -3.28125,1.82125 -1.27375,0 -2.005,-0.545 -2.3675,-1.275 -1.2775,2.18625 -2.00625,4.55625 -4.37625,5.4675 -3.64625,-1.63875 -1.45625,-4.55625 0,-8.20125 1.64,-3.83 3.46375,-8.205 4.92125,-11.85125 -2.005,0.91125 -2.7325,4.01125 -4.00875,6.3825 -1.095,2.36875 -2.55375,4.92125 -3.6475,7.11 -1.45625,-0.36625 -1.45625,0.72625 -2.91625,0.54625 -1.64125,-0.72875 -1.4575,-4.01125 -0.365,-5.1075 0.54875,-3.825 1.4575,-7.29 3.10125,-9.84 0,-0.55 0,-1.0975 0,-1.825 2.3675,-4.74125 4.37375,-9.6625 6.37875,-14.765 -6.01625,8.02 -9.84375,18.2275 -13.49,28.8025 -0.91125,0.18375 -1.4575,0.9125 -2.9175,0.5475 -2.55125,-1.46 -0.36375,-3.46625 0.55,-5.6525 0.91,-2.1875 1.0925,-5.2875 1.82125,-8.0225 2.00375,-6.37875 5.65125,-12.575 7.29125,-19.3225 -5.10375,7.10875 -10.57375,17.135 -13.3075,28.25875 -0.91125,0.7275 -2.19,1.09125 -2.73375,2.005 -2.55375,-0.55 -2.37125,-3.64875 -1.64125,-6.565 2.185,-8.20375 6.92625,-19.14125 8.9325,-26.7975 -4.01125,4.3725 -5.46875,11.12 -9.11625,15.86 -1.64,5.47 -5.10125,10.75375 -5.28625,16.9525 -0.72875,0.73 -0.91,1.82375 -0.91,2.73625 0.18125,1.275 1.095,1.45625 1.275,2.36875 0.18375,0.54625 -0.91125,0.9125 -0.91125,1.6425 0,1.0925 1.64125,1.0925 0.91125,2.0025 -0.73,0.9125 -1.46,2.19 -1.275,3.465 -0.185,0.9125 -2.00625,0.1825 -2.73625,0.9125 10.7575,0.9125 22.7875,2.36875 34.09125,1.82375 8.38625,-0.54875 17.13625,2.73375 24.97625,1.09125 1.275,-0.1825 2.7325,-1.46 3.82625,-1.46 2.555,0 4.73875,2.55375 3.6475,5.8375 -2.1875,1.455 -6.92875,2.36875 -8.7525,0 -16.95375,-0.9125 -35.72875,-1.27875 -53.4125,-1.27875 -17.6825,-0.18 -36.095,-2.005 -53.5975,-2.18625 -5.8325,0 -12.395,-0.9125 -18.41125,-0.1825 -4.5575,0.36375 -8.75,1.64125 -13.49,1.82125 -0.18125,2.00625 -0.91125,3.83125 -2.91625,4.195 -1.27625,7.11 -2.00625,11.85 -0.365,17.685 -0.73,0.90875 -1.82375,1.63875 -2.735,2.3675 -3.1,0.91125 -4.19125,-1.45875 -6.015,-2.3675 -2.91625,-1.64375 -6.565,-2.3725 -8.57,-4.55875 -7.4725,-1.825 -14.035,-4.7425 -21.3275,-7.6575 -5.105,-2.1875 -9.115,-3.64625 -14.76625,-5.8325 -2.9175,-1.095 -5.28625,-2.005 -8.20375,-0.91125 -1.45875,0 -1.45875,-1.6425 -2.18875,-2.3725 -8.385,-3.09875 -16.77125,-6.38 -24.24375,-10.39125 -8.38875,-1.09375 -17.13625,-4.375 -25.525,-6.38 -0.91,-0.36375 -1.4575,-0.91 -2.1875,-1.45625 -5.64875,-1.09625 -10.57125,-4.375 -16.40375,-6.38 -2.00625,-0.7325 -3.465,-1.09625 -5.105,-1.82625 -1.2775,-0.54625 -3.6475,-0.7275 -5.28875,0 -0.72875,-2.55125 -3.645,-7.65375 -0.18,-10.025 1.275,-0.9125 2.915,-0.36375 4.55625,-0.9125 1.27625,-0.54625 1.8225,-1.82125 2.91625,-2.36875 1.2775,-0.73 3.10125,-0.9125 4.37625,-1.6425 9.11375,-4.5575 18.23,-12.5775 26.06875,-16.04 1.64125,-1.82375 4.1925,-2.55375 5.1025,-4.9225 0.9125,0.36375 0.9125,-0.36375 1.6425,-0.1825 1.4575,-2.36875 3.09875,-4.375 4.1925,-7.11 2.37,-0.1825 4.73875,-0.1825 6.745,0.365 2.37125,-1.46125 5.835,-2.5525 7.84,-5.8325 1.27625,-2.005 1.09375,-6.19875 4.01125,-6.01625 1.4575,0 1.4575,0.73 2.36875,1.82375 1.27625,-0.36625 1.0925,-2.19 1.8225,-3.1 0.73,-0.54875 2.5525,-0.18125 3.64625,-0.18125 5.46875,-3.83 12.03125,-6.3825 15.12875,-12.5825 1.82625,-0.18 2.73625,-1.09125 3.65,-2.0025 0.91,0 1.6375,0 2.55125,0 5.65,-4.9225 13.67125,-7.47625 18.23,-13.49 6.19875,-0.185 8.38375,-4.19375 13.30625,-5.65375 0,-4.19125 3.46375,-2.3675 5.835,-3.0975 1.27625,0.91125 2.73375,1.45875 2.915,3.0975 0.54625,2.00625 -1.63875,4.01125 0.36625,5.10625 l 0,0 z m -10.39125,1.82375 0,0 c -4.5575,2.7325 -9.11625,5.10375 -12.76125,8.2025 -3.0975,6.92875 -5.47125,14.40125 -9.11375,20.965 -0.73,6.37875 -5.6525,10.39 -6.0175,16.0425 6.745,-11.12125 13.3075,-22.60625 20.6,-32.99625 0,-1.09625 0.545,-1.27875 0.36375,-2.5525 1.46,-1.64125 4.92375,-3.46375 5.835,-0.1825 0.5475,2.005 -1.27625,3.64625 -1.82375,4.5575 -0.18125,0.365 0.18125,1.095 0,1.4575 -0.36375,1.09375 -1.82375,2.005 -2.1875,3.2825 -0.91,4.01125 -3.1,7.47375 -3.1,9.11375 1.095,-0.7275 2.00625,-1.82125 4.01125,-1.82125 1.82375,-2.55375 1.6425,-7.2925 5.10625,-8.205 -0.73,-5.28625 2.18625,-10.0275 1.82125,-16.0425 -0.72875,-0.72875 -1.82125,-1.095 -2.73375,-1.82125 l 0,0 z m 84.5875,22.42125 0,0 c -2.005,3.28125 -4.375,9.11625 -6.745,10.39125 0,0.72875 0,1.46 0,2.18875 -4.37625,6.9275 -7.11,15.13 -10.0275,22.97 8.20375,-11.3025 15.67875,-23.51875 21.32875,-37.3725 0.54875,-0.365 0.9125,-0.72875 2.00625,-0.5475 1.45875,0.1825 0.73,2.1875 1.8225,2.37 2.1875,-0.7275 1.45875,-5.10375 4.5575,-4.73875 4.74125,0.36375 -0.54625,5.8325 -2.005,8.38625 -2.00625,3.28 -3.82875,6.015 -4.375,8.56625 -2.37125,1.82375 -2.735,5.835 -5.105,7.84 0.36375,2.1875 -2.37,4.375 -1.27625,5.46875 4.92375,-8.02 10.9375,-15.13125 15.315,-23.69875 2.55125,0.36375 5.64875,0.5475 6.37875,2.18625 0.5475,1.45875 -0.73,1.6425 -1.64125,3.1 -1.82125,3.09875 -4.7375,8.56875 -6.0175,11.85 -0.54375,0.36375 -0.72625,1.27375 -1.45625,1.4575 -1.275,5.8325 -4.375,9.84375 -5.83375,15.495 8.02125,-9.8425 13.855,-21.875 23.1525,-30.44375 1.64,-4.01125 5.28625,-5.8325 6.37875,-10.2075 0.5475,-0.73 1.64125,-0.91125 2.00625,-1.6425 -6.19625,-0.54625 -13.855,-1.82375 -20.05125,-1.4575 -1.09375,0 -2.37,0.72875 -3.64625,0.91125 -2.37,0.18375 -5.47,-0.5475 -8.20375,-0.5475 -2.1875,0 -5.2875,-0.18125 -6.5625,1.45875 4.55625,1.2775 1.275,4.01125 0,6.01625 l 0,0 z m -18.59625,-4.19375 0,0 c 4.9225,-0.72875 1.46,4.37625 0.5475,5.835 -3.09875,5.65125 -6.01625,11.48375 -8.385,17.50125 -2.91625,7.47375 -5.46875,16.22375 -7.2925,22.78625 10.39125,-15.3125 20.59875,-30.80875 28.43875,-48.85625 -12.76125,0 -25.34,1.64125 -37.37125,2.73375 -9.2975,15.67875 -18.7775,31.17375 -24.7925,50.13375 1.64,-0.5475 1.82375,-2.36875 3.28125,-3.0975 -0.1825,-0.91375 0.36375,-1.09375 0.36375,-1.82625 6.38125,-7.8375 12.03125,-16.22125 17.5025,-24.79375 0.7275,-3.27875 2.00375,-5.83125 4.55625,-7.10625 1.45875,-0.36375 1.27625,0.91 2.55375,0.73 0.18,-2.00875 1.09375,-3.28125 2.73125,-3.64875 0.55,0.9125 2.19,0.73 2.37375,2.005 1.09125,2.555 -1.64375,3.465 -2.37375,4.56125 -0.91,1.09125 -1.275,3.09625 -2.185,4.555 -1.4575,2.37125 -2.37125,3.465 -3.28375,5.835 -1.09375,2.36875 -2.7325,4.01125 -2.7325,6.7425 -2.18625,3.465 -4.56,8.57125 -4.56,12.39625 6.19875,-8.93125 11.12375,-18.95875 16.955,-28.255 1.46,-4.375 3.2825,-8.0225 6.01625,-10.93875 1.09375,0 2.1875,0 3.1,0 2.36875,-1.4575 1.4575,-6.9275 4.55625,-7.2925 l 0,0 z m -98.98875,3.6475 0,0 c -2.36875,7.47375 -6.01625,13.67125 -8.20375,21.33 4.55875,-4.92375 7.84,-10.7575 11.48625,-16.40625 2.1875,-3.4675 4.37625,-7.11 5.83375,-10.94 -3.82875,1.27625 -6.01625,4.01125 -9.11625,6.01625 l 0,0 z m 44.84625,0 0,0 c -0.18125,1.64 2.00625,0.72875 1.6425,2.37 -0.36625,3.645 -3.28375,4.74125 -3.46625,8.5675 -2.005,1.64 -2.36875,5.105 -4.55625,6.745 -4.92375,13.6725 -10.21,27.1625 -14.76625,41.565 3.2825,-6.0175 6.74625,-11.85 9.2975,-18.59375 8.93375,-13.8575 17.13625,-28.44 26.43375,-41.93 -5.6525,0.365 -9.2975,0.7275 -14.585,1.27625 l 0,0 z m -26.98125,44.1175 0,0 c 6.9275,-10.3925 11.85125,-22.7875 16.045,-35.55 1.4575,0.18125 1.63875,-0.5475 2.5525,-0.72875 0.72875,0.72875 0.91,2.00625 2.00375,2.1875 2.55125,-2.5525 1.82125,-8.38625 5.28625,-10.02625 -3.09875,0.36375 -5.8325,2.5525 -8.5675,0.54625 -6.5625,13.49 -12.76125,28.98625 -17.32,43.57125 l 0,0 z m -0.91,-32.81375 0,0 c -7.11,8.0225 -12.3975,18.9575 -17.86625,28.80375 -1.82125,3.28125 -4.5575,6.7425 -5.8325,10.02375 -0.18375,0.36625 0.18125,1.09375 0,1.46 -0.73,1.4575 -2.19,2.55125 -2.735,4.01125 -1.45875,3.645 -3.28125,5.8325 -4.01125,10.025 -0.54625,0.1825 -0.91,0.54875 -1.45875,0.9125 -0.5475,4.92 -3.645,7.2925 -4.55625,11.85 2.1875,0.545 3.82875,1.63875 6.38,1.82125 3.2825,-2.73375 3.83,-8.20125 6.745,-11.3 0,-0.7325 0,-1.4625 -0.36375,-1.825 2.1875,-1.45875 2.005,-4.19125 3.09875,-6.38125 4.01125,-8.93125 8.75,-17.31625 12.94375,-25.7025 3.645,-10.57625 9.11375,-20.78375 11.85,-30.99375 -1.45875,2.19 -3.46375,4.01125 -4.19375,7.295 l 0,0 z m -10.02625,-6.19875 0,0 c 0.54625,1.09375 0.73,-1.09625 0,0 l 0,0 z m -38.64875,68.36125 0,0 c 2.19,1.82375 5.83375,1.82375 8.20375,3.09875 0.91125,-2.005 1.46,-3.27875 0.91125,-6.01625 2.00625,-1.09375 1.82375,-4.1925 3.64625,-5.28625 -0.91,-1.8225 0.91125,-1.8225 0.72875,-3.8275 1.095,-0.1825 1.095,-1.46 2.00625,-1.82125 4.55875,-8.7525 7.11,-18.23 11.6675,-26.2525 2.735,-8.75 8.20375,-14.58625 10.02625,-24.24625 0.91125,-0.5475 0.91125,-1.8225 1.45875,-2.73375 0,-0.36625 -0.365,-0.5475 -0.5475,-0.5475 -14.585,20.59875 -27.71,42.6575 -38.10125,67.6325 l 0,0 z m 95.52625,-65.6275 0,0 c 1.4575,-1.095 -1.09375,-1.4575 0,0 l 0,0 z m -3.64625,6.38 0,0 c -2.37,4.01125 -5.83375,10.02875 -6.38125,13.67375 3.28125,-6.3825 6.92875,-12.5775 9.6625,-19.325 -2.00375,0.91 -2.5525,3.46375 -3.28125,5.65125 l 0,0 z m -80.5775,-1.0925 0,0 c -2.91625,6.01375 -5.8325,11.84875 -8.20375,18.41125 5.65125,-6.74375 10.21,-14.5825 14.95125,-22.06 0.36375,-0.17875 0,-0.545 -0.36625,-0.72875 -1.82375,1.82375 -4.01125,3.1 -6.38125,4.3775 l 0,0 z m 43.38875,-3.1 0,0 c 0.91,0.36625 1.45875,-1.09375 0.72875,-1.2775 -0.1825,0.55 -0.54625,0.72875 -0.72875,1.2775 l 0,0 z m -3.28125,10.0275 0,0 c 1.09125,-2.7325 2.5525,-4.9225 3.28125,-7.84 0,-0.365 -0.18375,-0.365 -0.5475,-0.365 -0.7275,2.5525 -3.28125,6.2 -2.73375,8.205 l 0,0 z m -62.53,49.7675 0,0 c 1.4575,0.54625 2.73375,1.095 4.5575,1.27625 0.91125,-3.1 1.64125,-6.1975 3.82875,-7.84125 4.92375,-14.21875 13.48875,-25.88375 18.0475,-40.105 1.82375,-2.005 2.37,-5.1025 3.83,-7.2925 0,-0.36375 0,-0.7275 -0.54875,-0.7275 -10.755,17.5 -23.1525,33.17875 -29.715,54.69 l 0,0 z m 14.21875,-48.8575 0,0 c 1.09375,0 1.2775,-0.91 1.46,-1.82375 -0.9125,0.18625 -1.46,0.73 -1.46,1.82375 l 0,0 z m 86.59375,56.51375 0,0 c 9.11375,-1.82375 15.6775,1.275 24.97375,0.9125 0.9125,-1.825 -0.91125,-3.28125 0,-5.10375 2.00625,-3.2825 3.28375,-7.11 3.83,-11.67 5.10375,-11.485 8.75,-24.42625 13.6725,-35.72875 -2.735,1.0925 -3.1,4.74 -5.6525,6.38 -4.19375,8.93125 -10.5725,16.40375 -14.58375,25.15625 -1.4575,2.9175 -2.37125,6.20125 -4.375,9.11625 1.27625,6.38 -7.47625,8.56875 -5.47,0.54625 3.10125,-2.73375 3.2825,-6.92625 4.0125,-10.2075 3.1,-12.03375 9.84375,-23.33625 12.21375,-36.27875 -0.1825,-0.18375 -0.36375,-0.36375 -0.73,-0.18375 -10.75625,17.50125 -22.605,34.0925 -27.89125,57.06125 l 0,0 z m -42.29375,8.75 0,0 c -0.365,0.91125 0.18,0.91125 0,2.18875 -1.09375,0.91125 -1.64125,2.18625 -2.005,4.01 3.82875,0.36375 5.65125,2.735 9.2975,3.28125 0.54625,-1.09375 -1.46,-2.36875 -1.8225,-3.6475 2.36875,-2.36875 4.55625,-5.105 4.92,-9.4775 0.5475,-0.36625 1.46,-0.18125 1.27625,-1.09375 1.825,-4.74125 3.82875,-9.29875 5.6525,-14.04 0.1825,-1.0925 -0.1825,-1.45625 -0.1825,-2.18625 7.4725,-13.125 11.1225,-30.0775 17.5,-44.29875 0,-0.18375 -0.18125,-0.36375 -0.5475,-0.36375 -11.485,21.695 -25.7025,40.835 -34.08875,65.6275 l 0,0 z m -50.1325,-51.225 0,0 c 2.55125,-3.465 5.65125,-9.2975 5.2875,-13.4925 -1.825,4.3775 -4.19375,8.20625 -5.2875,13.4925 l 0,0 z m 134.9025,-10.0275 0,0 c 0.54625,0.9125 0.91125,-1.275 0,0 l 0,0 z m 15.495,42.11125 0,0 c -0.9125,0.5475 -1.8225,1.45875 -2.91625,1.825 -1.8225,-0.7325 -1.64125,-3.465 -2.1875,-5.47125 0.72875,-2.1875 2.73375,-4.37375 2.1875,-6.92625 1.82125,-3.465 2.73375,-8.0225 3.8275,-12.2125 2.915,-3.28375 3.1,-9.29875 5.835,-12.76375 -0.36625,-1.82125 1.82125,-3.4625 0.54625,-4.19125 -8.3875,13.8525 -18.23125,26.4325 -22.0575,45.02625 -1.46,1.82375 -2.00625,4.375 -3.1,6.5625 11.66625,1.64125 22.0575,2.37125 34.63625,2.73625 -2.73375,-3.0975 -1.275,-7.2925 -2.1875,-10.94 0.5475,-0.54625 0.9125,-1.27625 1.64,-1.82 3.10125,-14.76875 8.93375,-26.8 13.67375,-40.10875 -5.10375,5.65 -8.0225,13.30875 -11.6675,20.41625 -0.72875,1.6425 -2.18625,2.91875 -2.91625,4.92375 -2.005,5.105 -2.37125,11.12 -4.37625,16.955 -1.275,0 -1.64,1.0925 -2.915,1.275 -1.095,-0.3625 -1.095,-1.82375 -1.6425,-2.73375 1.2775,-2.5525 2.005,-4.925 2.73625,-7.6575 1.45625,-4.5575 2.36875,-9.47875 4.01,-14.0375 1.8225,-5.105 4.375,-10.21 6.38,-14.7675 1.0925,-2.73375 2.36875,-5.28375 3.09875,-8.20125 -0.1825,-0.36375 -0.365,-0.36375 -0.73,-0.36375 -7.655,13.6725 -18.04875,24.7925 -21.875,42.475 l 0,0 z m -24.7925,-2.9175 0,0 c -2.00625,4.9225 -2.5525,10.94 -5.46875,14.22125 2.18625,0.7275 5.28625,0.545 7.8375,0.91125 2.735,-4.1925 2.9175,-9.11625 4.19375,-14.03875 1.8225,-6.5625 6.1975,-12.76 6.74375,-20.0525 2.73625,-4.01125 5.65375,-9.48125 6.0175,-14.7675 0.91125,-1.45625 2.005,-2.73125 2.18625,-4.555 0,-0.36625 -0.18125,-0.36625 -0.545,-0.36625 -7.65875,12.2125 -15.49625,24.24625 -20.965,38.6475 l 0,0 z m 24.61,-35.36625 0,0 c 0.73,1.2775 0.36625,-0.91 0,0 l 0,0 z m -123.41625,53.78 0,0 c 1.0925,0.91125 2.36875,1.45875 3.645,2.1875 2.9175,-2.00625 3.4625,-6.5625 5.46875,-9.48 2.36875,-8.20375 6.01625,-15.86125 8.75125,-23.69875 2.37,-6.19625 6.1975,-12.03125 6.745,-19.14375 1.09375,-0.36125 0.73,-2.3675 1.82125,-2.73125 0,-0.36625 0,-0.73 -0.545,-0.55 -9.115,17.32 -18.77875,34.27375 -25.88625,53.41625 l 0,0 z m 59.79375,-52.5025 0,0 c 0.36375,0 0.54875,0 0.73,0 0,-0.36375 0.36375,-0.36375 0.18,-0.91375 -0.18,0 -0.36125,0 -0.54625,0 0,0.36625 -0.36375,0.36625 -0.36375,0.91375 l 0,0 z m -95.3425,8.7475 0,0 c 0,0.55 0,0.9125 0.36375,1.28 -2.55375,1.6375 -3.28125,5.1025 -4.9225,8.2025 -1.09375,2.005 -2.73375,3.8275 -3.28,5.105 -1.095,2.54875 -0.5475,5.285 -3.6475,5.47 -1.275,0.18125 -2.18625,-1.64375 -3.645,-0.915 -1.2775,-1.09125 -0.5475,-2.915 -0.91125,-4.555 1.27625,-0.7325 1.4575,-2.9175 2.735,-3.83 -1.095,-1.64125 0.91,-3.28125 1.4575,-4.92 -0.18375,-3.28125 3.1,-4.375 2.37,-6.93125 -4.9225,6.0175 -9.66125,12.76375 -12.94375,20.60125 -0.72875,0.9125 -2.36875,1.09375 -2.735,2.37 5.835,1.64125 11.12,4.00875 16.955,5.835 0.18125,-2.37125 2.1875,-2.915 2.1875,-5.47125 2.7325,-1.455 2.55125,-5.65 4.73875,-7.65375 2.1875,-8.02 5.6525,-14.95125 7.6575,-22.9725 0.54625,-0.18125 0,-0.54375 -0.365,-0.72625 -1.64,3.28125 -3.46375,6.7425 -6.015,9.11125 l 0,0 z m 106.27875,-4.555 0,0 c 0.36625,0 0.55,0 0.73125,0 0.36375,-0.365 0.36375,-0.73 -0.365,-0.91125 0,0.36375 -0.36625,0.54625 -0.36625,0.91125 l 0,0 z m -16.405,31.72 0,0 c -4.9225,9.2975 -10.93875,19.505 -12.3975,30.99125 -0.18125,0.91125 -1.275,0.91125 -1.275,2.37 1.64,1.64125 4.19375,2.37 7.29,2.37 0.36625,-0.5475 0.73,-0.91125 1.2775,-1.09375 -0.3625,-7.6575 4.01,-12.03125 4.19125,-18.0475 0.54875,0 0.7325,-0.36625 1.2775,-0.18125 -1.2775,-4.56 2.73375,-5.47125 6.93,-4.56 0,-1.27625 -0.54875,-4.375 -0.915,-6.38125 0.54875,-1.0925 1.6425,-1.275 2.19,-2.185 2.73375,-12.215 7.65625,-22.2425 10.9375,-33.72625 0,-0.1825 -0.18125,-0.36375 -0.5475,-0.36375 -6.745,9.29625 -13.3075,20.23375 -18.95875,30.8075 l 0,0 z m -82.9475,-24.975 0,0 c 0.73,-1.82125 1.09375,-3.8275 2.1875,-5.105 -0.36375,-0.18375 -0.36375,-0.54625 -0.9125,-0.36375 -0.36375,1.64125 -2.36875,4.19125 -1.275,5.46875 l 0,0 z m 95.70875,-1.2775 0,0 c 0,-0.3625 1.27625,-0.9125 0.36375,-1.0925 0,0.36625 -0.91125,1.0925 -0.36375,1.0925 l 0,0 z m 107.37375,1.8225 0,0 c 0.73,0.1825 1.82375,-1.8225 0.5475,-1.8225 0.1825,0.91375 -0.72875,0.91375 -0.5475,1.8225 l 0,0 z m -111.56625,3.46375 0,0 c 1.09375,0.18375 3.8275,-3.46375 2.73375,-4.3725 -0.72875,1.64125 -2.00375,2.55125 -2.73375,4.3725 l 0,0 z m -36.82625,3.83 0,0 c -3.4625,12.39625 -11.30125,20.41875 -14.21875,33.17875 -2.19,0.5475 -2.735,2.915 -3.6475,4.92 2.73625,1.09625 5.46875,2.3725 8.7525,2.92 4.55625,-14.95125 10.02625,-32.63375 14.03625,-47.9475 0,-0.1825 0,-0.54375 -0.36375,-0.54375 -1.275,2.54875 -2.735,5.285 -4.55875,7.4725 l 0,0 z m 125.78625,-6.92875 0,0 c -0.72875,0.91125 1.09375,-0.72875 0,0 l 0,0 z m -182.3,2.19 0,0 c 1.2775,0.18375 1.46,-0.54875 1.2775,-1.6425 -0.91125,0.18375 -1.2775,0.54625 -1.2775,1.6425 l 0,0 z m -41.19875,7.8375 0,0 c -0.365,2.00625 -3.1,1.64125 -3.645,3.28125 4.375,2.73375 8.02,3.09875 13.30625,4.92375 -4.01,-2.73625 0.1825,-5.65125 1.45875,-9.6625 0.91125,-2.37125 0.73,-4.3775 1.82375,-5.47125 -4.5575,0.73 -7.84,5.47125 -12.94375,6.92875 l 0,0 z m 123.59875,12.21375 0,0 c 4.01125,-5.83375 7.65875,-11.85 10.94,-18.23 -0.36375,0 -0.5475,0 -0.9125,0 -3.4625,5.835 -8.02125,10.755 -10.0275,18.23 l 0,0 z m -1.82125,-7.10875 0,0 c 1.09125,0.18125 1.64,-1.82375 0.91125,-2.37125 -0.5475,0.5475 -0.73,1.46 -0.91125,2.37125 l 0,0 z m 126.15125,0.91 0,0 c 0.36375,1.09625 0.72875,-1.09125 0,0 l 0,0 z m -131.98625,17.68375 0,0 c 0.1825,-0.73 0.91125,-0.9125 0.73,-1.82125 -1.09625,-0.36625 -1.27625,1.4575 -0.73,1.82125 l 0,0 z m -1.09375,3.28125 0,0 c 0.1825,-0.7275 0.7275,-1.4575 0.91375,-2.37 -1.095,-0.18 -1.46,2.00875 -0.91375,2.37 l 0,0 z m -0.91125,0.91125 0,0 c 0.365,1.095 0.73,-1.09375 0,0 l 0,0 z m -0.7275,1.825 0,0 c 0.5475,1.0925 0.91125,-1.095 0,0 l 0,0 z m -9.1175,14.5825 0,0 c 0.36625,0 0.36625,0.365 0.73,0.365 0,-0.365 0.1825,-0.365 0.1825,-0.545 -0.1825,0 -0.36375,-0.36625 -0.54625,-0.36625 0,0.36625 -0.18125,0.36625 -0.36625,0.54625" />
  </g>
</svg>
